<?xml version="1.0" encoding="utf-8"?>
<!-- Generator: Adobe Illustrator 18.1.1, SVG Export Plug-In . SVG Version: 6.00 Build 0)  -->
<!DOCTYPE svg PUBLIC "-//W3C//DTD SVG 1.1//EN" "http://www.w3.org/Graphics/SVG/1.1/DTD/svg11.dtd">
<svg version="1.1" id="XMLID_1_" xmlns="http://www.w3.org/2000/svg" xmlns:xlink="http://www.w3.org/1999/xlink" x="0px" y="0px"
	 viewBox="0 0 332.8424 86.7426" enable-background="new 0 0 332.8424 86.7426" xml:space="preserve">
<g id="logo-main">
	<path fill="#BF4647" stroke="#BF4647" stroke-width="1.0581" stroke-linecap="round" stroke-linejoin="round" d="M221.8924,48.7127
		c0.1234-2.0945-1.3062-3.6672-2.221-5.405c-0.3481-1.1863-1.4754-1.8356-2.1668-2.8297c-0.5805-0.1633-0.8817-0.7321-1.3356-1.0871
		c-1.0683-1.5398-2.734-2.5504-4.4722-3.4942c-1.3738-0.0379-2.4676-1.1453-3.8371-1.4203l-3.0871-0.0676
		c-1.2164,0.0172-2.7004-0.0938-3.6199,0.2629l-0.0422-0.0968c-0.3309,0.3023-3.2989,1.0957-3.5571,1.4031
		c-0.3481,0.0766,1.8902-1.1242,1.5938-0.8524l0.0805,0.0184c-0.9754,0.7355-1.7555,1.2359-2.7395,1.9656
		c-0.1683,0.3012-0.6894,0.4426-0.5629,0.8938l0.7083,2.0469c2.0566-1.6102,4.8324-2.4871,7.2832-3.3859
		c2.0051,0.5336,4.0282,0.782,5.9015,1.5816c0.2074-0.2168,0.3602,0.0758,0.4875,0.1055c1.743,0.6484,3.2309,1.8254,4.6593,3.0206
		c1.3817,0.8118,2.4211,2.1535,3.3578,3.4535c1.6496,3.0059,1.1023,5.9527,0.2297,8.9606
		c-0.9199,1.8461-1.0902,4.0726-2.6629,5.4961c-1.3703,2.4782-4.1851,3.8703-6.7965,4.5875
		c-4.3066,0.568-9.0348-0.9023-12.4684-3.8282c-0.9332-1.143-2.0468-2.1304-2.7554-3.4687
		c-1.9332-4.3117-2.3492-8.6446-1.2046-12.8836l-0.5891-3.2137c0.6149-1.3504,0.6234-3.6586,1.268-4.884l-0.5137,0.3176
		c-2.6406,0.0516-1.2543,3.9219-2.1313,6.0286c-2.2019,5.1703-1.5898,10.5523,0.636,15.7602
		c1.564,2.6781,3.6582,4.8578,6.3804,6.4218c4.7692,2.2844,9.729,3.807,14.7497,1.5687c3.9758-1.5515,6.9781-4.8453,7.8594-9.0562
		l0.1558-0.0539c0.2383-0.9133,0.8446-1.7007,0.8446-2.6164C222.1171,52.351,222.5838,50.4135,221.8924,48.7127z"/>
	<path fill="#BF4647" stroke="#BF4647" stroke-width="0.8465" stroke-linecap="round" stroke-linejoin="round" d="M228.8752,82.3791
		c-2.3102-4.8546-5.9695-8.2625-9.0137-12.4766c-0.4742-0.6453,0.4578-0.4633,0.4962-0.9641
		c2.2434-0.457,3.4976,1.6298,4.7656,3.1547c2.3785,2.8289,4.7481,6.2164,5.1637,9.811c-0.3649,0.339-0.5844,0.4414-1.0774,0.5734
		L228.8752,82.3791z"/>
	<path fill="#BF4647" stroke="#BF4647" stroke-width="0.8465" stroke-linecap="round" stroke-linejoin="round" d="M201.8951,86.1307
		c-0.582-0.9149-0.4797-1.9719-0.3566-3.0258c0.5176-3.3961,0.8262-6.9366,1.8914-10.2648
		c0.5336-0.2195,0.6867-1.3477,1.4274-0.7172c1.0949,1.0656,0.7382,2.7266,0.5183,4.0656
		c-0.5562,3.3688-1.2418,6.7891-2.3453,10.011C202.6955,86.4065,202.2088,86.3205,201.8951,86.1307z"/>
	<path fill="#BF4647" stroke="#BF4647" stroke-width="0.8465" stroke-linecap="round" stroke-linejoin="round" d="M243.3619,60.0322
		c-4.3671-1.6234-9.0648-2.7617-12.4438-5.8469l-0.3304-0.4758c0.7046-1.232,2.1836,0.2523,3.2218-0.2226
		c2.8118,1.4797,6.1718,2.2805,9.2383,3.2469c1.0906,0.3046,1.6671,1.3789,2.7312,1.7469c0.1133,0.4453,0.5977,0.3672,0.7492,0.7672
		c-0.2453,0.2687-0.2281,0.7086-0.5554,0.9578C245.1721,61.0166,244.1682,60.2322,243.3619,60.0322z"/>
	<path fill="#BF4647" stroke="#BF4647" stroke-width="0.8465" stroke-linecap="round" stroke-linejoin="round" d="M183.6604,70.8268
		c-0.1653-0.0852-0.3989-0.0383-0.4492-0.2633c1.0812-2.4695,3.8578-3.5586,6.164-4.7125c0.5891,0.0874,0.8313-0.7391,1.4199-0.3836
		c0.0977,0.307-0.0812,0.6586-0.2457,0.8726C188.6077,68.3729,185.9323,69.6369,183.6604,70.8268z"/>
	<path fill="#BF4647" stroke="#BF4647" stroke-width="0.8465" stroke-linecap="round" stroke-linejoin="round" d="M224.5046,41.3366
		c-0.1692,0.1035-0.1493-0.1953-0.3184-0.1953c-0.1406-0.1738,0.0594-0.4813-0.241-0.5774
		c2.0254-5.1539,7.2106-8.245,11.5363-11.7684c1.6446-1.043,3.179-2.3695,5.0446-2.5961c0.3047,0.2226,0.7251,0.2094,1.1141,0.1625
		c0.6672,0.3746,1.7094-0.5426,2.0141,0.711c-5.7657,2.9906-10.586,7.0516-15.5508,11.2402c-1.0047,1.123-2.039,2.2508-3.268,3.2481
		L224.5046,41.3366z"/>
	<path fill="#BF4647" stroke="#BF4647" stroke-width="0.8465" stroke-linecap="round" stroke-linejoin="round" d="M182.4901,51.8791
		c-4.9938,0.5188-10.0558,0.5547-14.9867,1.1922c-0.3012-0.0891-0.7809-0.1742-0.7203-0.6078
		c1.3047-1.1,3.1074-1.1516,4.6254-1.6562c3.5442-0.3797,7.325-0.9844,11.0348,0.3266c0.3816-0.0625,0.6274,0.1984,0.8566,0.4469
		L182.4901,51.8791z"/>
	<path fill="#BF4647" stroke="#BF4647" stroke-width="0.8465" stroke-linecap="round" stroke-linejoin="round" d="M210.2416,27.7354
		c-0.3679-0.3113-1.3301-0.4922-0.8855-1.2609c1.1668-3.084,3.4844-5.4161,5.016-8.2825c1.568-2.4699,3.0227-5.0484,4.9684-7.2836
		c0.4195-0.2839,0.7121-0.7671,1.2293-0.8175c0.6016,0.2175,1.1324,0.4695,1.5359,0.7539c-0.2305,0.3394,0.152,0.4328,0.2906,0.6406
		l0.391,0.191c-1.0766,0.5715-1.484,1.8824-2.2176,2.8187c-3.0481,4.4985-5.6297,9.2852-9.5258,13.2157L210.2416,27.7354z"/>
	<path fill="#BF4647" stroke="#BF4647" stroke-width="0.8465" stroke-linecap="round" stroke-linejoin="round" d="M183.9112,39.9416
		c-3.0371-0.7465-6.1446-1.1855-8.9047-2.5652c-4.2598-1.8718-8.3218-4.0058-12.532-5.9652
		c-1.0676-0.6446-2.5848-1.3391-2.675-2.7891c-0.0379-0.3441,0.0383-0.7117,0.1871-0.9714
		c-0.2289-0.4305,0.2582-0.6481,0.3722-0.9914c0.7641-0.1758,1.5906-0.3355,2.3754,0.0234
		c3.1148,1.7786,6.7578,2.7918,9.2805,5.4965c1.7258,1.157,3.7,1.7043,5.8034,2.323c3.1411-0.9863,4.9809,2.0856,7.4153,3.2344
		c0.2879,0.3183,0.8691,0.6469,0.7199,1.1711c-0.2668,0.391-1.0508,0.5371-1.2422,1.0046L183.9112,39.9416z"/>
	<path fill="#BF4647" stroke="#BF4647" stroke-width="0.8465" stroke-linecap="round" stroke-linejoin="round" d="M194.51,26.7537
		c-3.6469-3.3168-3.0914-8.1586-4.2531-12.3215c-0.4367-4.5602-1.543-8.9965-1.8777-13.5738c0.241-0.0777,0.5469-0.021,0.6234-0.148
		c-0.0515-0.0461-0.0344-0.089-0.0219-0.1164l0.0602,0.093c0.0918-0.0344,0.3172-0.3184,0.5507-0.2543
		c0.979,0.0418,1.0938,1.2125,1.5766,1.8992c0.6406,5.8297,1.2938,11.7485,2.5864,17.4993
		c0.1691,2.5902,1.5988,4.9578,2.5394,7.4121c-0.3688-0.1094-0.3391,0.3278-0.5887,0.4371
		C195.2338,27.571,194.967,26.9729,194.51,26.7537z"/>
	<g>
		<path fill="#333333" stroke="#333333" stroke-width="0.3749" d="M0.4311,61.9322c0.3839-0.4117,0.655-1.3578,0.8117-2.8312
			c0.1594-1.4782,0.2328-4.6344,0.2328-9.4719v-1.7328c0-5.3004-0.0734-8.6742-0.2328-10.134
			c-0.1566-1.4644-0.4278-2.4015-0.8117-2.8152h1.3374c1.2422,0,2.8004-0.0551,4.6547-0.1817
			c1.8531-0.1258,3.1019-0.1871,3.7332-0.1871c2.605,0,4.5726,0.6086,5.9102,1.836c1.3313,1.2168,2.0031,3.0218,2.0031,5.4144
			c0,2.4707-0.7297,4.4848-2.1785,6.0442c-1.45,1.5734-3.3246,2.3516-5.6055,2.3516c-0.8218,0-1.5898-0.079-2.2934-0.2398
			c-0.7039-0.1555-1.3465-0.3836-1.9246-0.686h0.432c2.2894,0,4.0805-0.643,5.3754-1.9382c1.2934-1.289,1.9422-3.0797,1.9422-5.3734
			c0-1.9359-0.4539-3.3774-1.3566-4.3145c-0.9066-0.9406-2.2894-1.4117-4.1524-1.4117c-0.5343,0-1.0328,0.0172-1.5031,0.0515
			c-0.4598,0.0348-0.9031,0.0825-1.3105,0.1527c-0.1395,0.5914-0.2371,1.9371-0.2989,4.0317
			c-0.066,2.0938-0.0926,4.9309-0.0926,8.5043c0,5.3078,0.0762,8.6828,0.2305,10.1312c0.1633,1.4562,0.4351,2.3883,0.8183,2.8
			H0.4311z"/>
		<path fill="#333333" stroke="#333333" stroke-width="0.3749" d="M21.076,60.8635v-4.6008
			c0.8371,1.3875,1.9031,2.4555,3.2008,3.1954c1.293,0.7335,2.7598,1.1086,4.3918,1.1086c1.6301,0,2.9594-0.4828,3.9813-1.4453
			c1.0215-0.9626,1.5282-2.1914,1.5282-3.6938c0-1.1727-0.3414-2.2-1.0278-3.0977c-0.6894-0.8953-1.8488-1.7805-3.4852-2.6617
			l-0.5511-0.3078c-4.7465-2.593-7.1102-5.2262-7.1102-7.9031c0-2.0664,0.8058-3.7625,2.421-5.0688
			c1.6153-1.3094,3.7266-1.9625,6.3258-1.9625c0.8305,0,1.7508,0.0258,2.741,0.0797c0.9914,0.0555,1.5746,0.0813,1.7402,0.0813
			c0.0481,0,0.1653,0.009,0.3395,0.0207c0.1667,0.0125,0.3179,0.021,0.4382,0.021h1.0554v4.3586
			c-0.5359-0.8856-1.2738-1.5668-2.2234-2.0305c-0.9542-0.4645-2.0691-0.6961-3.3406-0.6961c-1.7508,0-3.1371,0.3824-4.1465,1.1511
			c-1.0137,0.7676-1.518,1.8043-1.518,3.113c0,1.9308,1.8574,3.8824,5.5836,5.8449l0.2714,0.1258
			c2.3188,1.2305,3.9809,2.4524,4.9754,3.6626c1,1.2086,1.5027,2.5766,1.5027,4.0968c0,2.2688-0.9242,4.2008-2.7789,5.8008
			c-1.8485,1.6031-4.1301,2.4016-6.8446,2.4016c-1.082,0-2.2394-0.129-3.4578-0.389C23.8654,61.8135,22.5343,61.4096,21.076,60.8635
			z"/>
		<path fill="#333333" stroke="#333333" stroke-width="0.3749" d="M48.0569,61.9322c0.3641-0.6438,0.6355-1.4922,0.8195-2.5562
			c0.189-1.0453,0.2848-2.3,0.2848-3.7586c0-2.6126-0.3606-5.0883-1.0692-7.4226c-0.7137-2.3352-1.9816-5.0801-3.8133-8.2321
			c-0.6867-1.1746-1.3527-2.2004-1.993-3.0613c-0.6477-0.861-1.2246-1.5149-1.7328-1.9543h1.4383h1.9699
			c0.8734,0,1.5218,0.1726,1.9586,0.5004c0.4363,0.3386,0.911,1.0214,1.4203,2.0687c0.7969,1.6446,1.534,3.3543,2.2211,5.1297
			c0.6894,1.7723,1.4202,3.8622,2.2042,6.277l3.5786-6.557l0.2629-0.491c1.3996-2.6207,2.0988-4.3375,2.0988-5.1602
			c0-0.3149-0.0656-0.6188-0.1957-0.9153c-0.1309-0.2926-0.3176-0.5816-0.5676-0.8523h5.395
			c-2.016,3.0008-3.6699,5.5285-4.9668,7.5762c-1.2977,2.0477-2.2426,3.6293-2.8278,4.7519
			c-0.6446,1.2938-1.1148,2.6211-1.3859,3.9946c-0.284,1.3859-0.4246,3.5062-0.4246,6.3633c0,0.8226,0.0641,1.5852,0.2035,2.2961
			c0.1336,0.7062,0.3481,1.3719,0.634,2.0031H48.0569z"/>
		<path fill="#333333" stroke="#333333" stroke-width="0.3749" d="M84.8518,34.9092l-0.2461,5.8122
			c-0.6019-1.4794-1.4457-2.595-2.5226-3.3426c-1.0813-0.7441-2.3953-1.1179-3.9422-1.1179c-3.0086,0-5.3742,0.9926-7.0891,2.9812
			c-1.721,1.9922-2.5797,4.7352-2.5797,8.2309c0,3.6102,0.9406,6.4813,2.8211,8.6282c1.8828,2.1351,4.3969,3.2046,7.5422,3.2046
			c1.495,0,2.8914-0.2843,4.1801-0.8546c1.2934-0.5742,2.4168-1.3946,3.3602-2.4547c-0.4938,1.9625-1.6008,3.5313-3.3238,4.7016
			c-1.7191,1.1703-3.7832,1.7594-6.1957,1.7594c-3.6801,0-6.6906-1.2821-9.0434-3.8539c-2.3613-2.5602-3.5382-5.857-3.5382-9.8961
			c0-4.4625,1.2656-7.9562,3.8007-10.4871c2.5356-2.5309,6.0375-3.7942,10.5062-3.7942c0.6989,0,1.7446,0.0797,3.1329,0.2434
			C83.1073,34.828,84.1503,34.9092,84.8518,34.9092z"/>
		<path fill="#333333" stroke="#333333" stroke-width="0.3749" d="M108.4619,46.7542v-1.3954c0-3.9507-0.0847-6.5558-0.2422-7.8191
			c-0.1614-1.2617-0.4488-2.1266-0.8649-2.5926h5.7742c-0.3934,0.3988-0.6687,1.3098-0.8203,2.7367
			c-0.1546,1.4301-0.2312,4.4668-0.2312,9.1078v1.6422v1.6102c0,4.6633,0.0766,7.707,0.2312,9.143
			c0.1516,1.4344,0.427,2.3453,0.8203,2.7453h-5.7742c0.4161-0.4843,0.7035-1.3906,0.8649-2.7312
			c0.1574-1.3469,0.2422-3.9141,0.2422-7.711v-3.2094h-12.6v3.2094c0,4.125,0.0801,6.7851,0.2348,7.9828
			c0.1554,1.2047,0.4266,2.018,0.8117,2.4594h-5.723c0.3817-0.4117,0.6531-1.3578,0.8141-2.8359
			c0.157-1.4828,0.2379-4.6469,0.2379-9.4953v-1.7282c0-5.2832-0.0809-8.6606-0.2379-10.1191
			c-0.161-1.4558-0.4324-2.393-0.8141-2.8066h5.723c-0.3851,0.4394-0.6562,1.2598-0.8117,2.45
			c-0.1547,1.1922-0.2348,3.848-0.2348,7.9617v1.3954H108.4619z"/>
		<path fill="#333333" stroke="#333333" stroke-width="0.3749" d="M119.078,61.9322c0.3816-0.4117,0.6542-1.3578,0.814-2.8343
			c0.1562-1.4844,0.241-4.6485,0.241-9.4969v-1.7282c0-5.2832-0.0848-8.6606-0.241-10.1191
			c-0.1598-1.4558-0.4324-2.393-0.814-2.8066h5.7226c-0.3848,0.3988-0.6524,1.3098-0.8129,2.734
			c-0.1602,1.4293-0.236,4.4558-0.236,9.1042v1.6438v1.6234c0,4.6594,0.0758,7.6985,0.236,9.1344
			c0.1605,1.4344,0.4281,2.3453,0.8129,2.7453H119.078z"/>
		<path fill="#333333" stroke="#333333" stroke-width="0.3749" d="M150.4291,34.9092l-0.2457,5.8122
			c-0.6012-1.4794-1.4449-2.595-2.5274-3.3426c-1.0809-0.7441-2.3934-1.1179-3.9418-1.1179c-3.0043,0-5.3719,0.9926-7.0875,2.9812
			c-1.7184,1.9922-2.5754,4.7352-2.5754,8.2309c0,3.6102,0.937,6.4813,2.8199,8.6282c1.882,2.1351,4.3968,3.2046,7.5465,3.2046
			c1.4878,0,2.8855-0.2843,4.1742-0.8546c1.2985-0.5742,2.4153-1.3946,3.3586-2.4547c-0.4906,1.9625-1.6027,3.5313-3.3195,4.7016
			c-1.7203,1.1703-3.7829,1.7594-6.1981,1.7594c-3.6711,0-6.6894-1.2821-9.0473-3.8539c-2.3574-2.5602-3.5297-5.857-3.5297-9.8961
			c0-4.4625,1.2656-7.9562,3.7992-10.4871s6.0348-3.7942,10.5016-3.7942c0.7015,0,1.743,0.0797,3.1351,0.2434
			C148.6916,34.828,149.7295,34.9092,150.4291,34.9092z"/>
		<path fill="#333333" stroke="#333333" stroke-width="0.3749" d="M167.6042,60.8635v-4.6008
			c0.8316,1.3875,1.9004,2.4555,3.1926,3.1954c1.3027,0.7335,2.7648,1.1086,4.3934,1.1086c1.6359,0,2.9629-0.4828,3.9813-1.4453
			c1.0202-0.9626,1.5297-2.1914,1.5297-3.6938c0-1.1727-0.3395-2.2-1.0305-3.0977c-0.6828-0.8953-1.8485-1.7805-3.4805-2.6617
			l-0.5547-0.3078c-4.7449-2.593-7.1148-5.2262-7.1148-7.9031c0-2.0664,0.8144-3.7625,2.4336-5.0688
			c1.6148-1.3094,3.7183-1.9625,6.325-1.9625c0.827,0,1.7469,0.0258,2.7356,0.0797c0.9961,0.0555,1.5719,0.0813,1.7297,0.0813
			c0.0629,0,0.1816,0.009,0.3507,0.0207c0.1742,0.0125,0.311,0.021,0.4418,0.021h1.0469v4.3586
			c-0.5332-0.8856-1.2762-1.5668-2.2211-2.0305c-0.9543-0.4645-2.0613-0.6961-3.3418-0.6961c-1.7458,0-3.1371,0.3824-4.1418,1.1511
			c-1.0137,0.7676-1.5215,1.8043-1.5215,3.113c0,1.9308,1.8609,3.8824,5.5832,5.8449l0.2703,0.1258
			c2.3324,1.2305,3.9863,2.4524,4.9828,3.6626c0.9961,1.2086,1.4961,2.5766,1.4961,4.0968c0,2.2688-0.9195,4.2008-2.7726,5.8008
			c-1.852,1.6031-4.1336,2.4016-6.8469,2.4016c-1.0805,0-2.2434-0.129-3.4594-0.389
			C170.3901,61.8135,169.0592,61.4096,167.6042,60.8635z"/>
		<path fill="#333333" stroke="#333333" stroke-width="0.3749" d="M244.6839,61.9322l0.1226-3.9351
			c-0.8898,1.4266-2.0805,2.5359-3.5766,3.3039c-1.518,0.7672-3.2398,1.1562-5.1508,1.1562c-2.9766,0-5.1523-0.7282-6.5343-2.1672
			c-1.3899-1.4523-2.0727-3.7344-2.0727-6.8578c0-0.8406,0.0172-1.8156,0.0297-2.9297c0.0172-1.1195,0.0172-1.807,0.0172-2.0687
			c0-5.5383-0.0758-9.0649-0.2375-10.5742c-0.157-1.5211-0.4359-2.4871-0.8226-2.9125h5.7274
			c-0.4156,0.3863-0.7039,1.4453-0.8602,3.1793c-0.1617,1.739-0.2469,5.5543-0.2469,11.4558c0,4.3157,0.4883,7.1688,1.468,8.5469
			c0.975,1.379,2.6882,2.0641,5.1258,2.0641c2.4961,0,4.2734-0.8516,5.3234-2.5656c1.057-1.7195,1.582-4.775,1.582-9.1813
			c0-5.5539-0.0797-9.0898-0.2289-10.6078c-0.1531-1.5136-0.4328-2.4777-0.8258-2.8914h5.7742
			c-0.4118,0.4137-0.6954,1.3778-0.857,2.8867c-0.161,1.5187-0.2422,5.0477-0.2422,10.5953c0,5.5485,0.0813,9.0828,0.2422,10.6078
			c0.1617,1.5218,0.4453,2.4836,0.857,2.8953H244.6839z"/>
		<path fill="#333333" stroke="#333333" stroke-width="0.3749" d="M256.4104,34.9471c1.6539,0,3.4906-0.0527,5.5211-0.1574
			c2.0266-0.1094,3.243-0.1562,3.6414-0.1562c2.1282,0,3.7305,0.4574,4.8289,1.3691c1.1024,0.916,1.6485,2.2496,1.6485,4.0242
			c0,1.7254-0.5383,3.2683-1.6195,4.623c-1.0844,1.3543-2.6742,2.4637-4.7649,3.3465l6.0211,8.382
			c0.9961,1.3821,1.9164,2.5352,2.7594,3.4672c0.8383,0.9274,1.6023,1.6195,2.2766,2.0867h-3.9938
			c-0.5297,0-0.9328-0.0718-1.2172-0.2148c-0.2789-0.1477-0.5843-0.4383-0.9062-0.8766l-7.1859-10.1157
			c-0.5219-0.7406-1.0133-1.232-1.4633-1.4609c-0.4523-0.229-1.039-0.3539-1.7554-0.3539h-0.3258v2.5711
			c0,4.1258,0.0758,6.7937,0.225,7.9914c0.1648,1.2047,0.4367,2.018,0.8172,2.4594h-5.7149
			c0.3821-0.4117,0.6531-1.3578,0.8149-2.8359c0.1523-1.4844,0.232-4.6508,0.232-9.5039v-1.7195
			c0-5.291-0.0797-8.6606-0.232-10.1191c-0.1618-1.4558-0.4328-2.393-0.8149-2.8066H256.4104z M259.8752,47.2752
			c0.2462,0.0602,0.5039,0.0985,0.8008,0.1282c0.2922,0.0242,0.611,0.0382,0.9664,0.0382c2.0485,0,3.6211-0.5359,4.7149-1.6031
			c1.1023-1.0722,1.6577-2.6066,1.6577-4.6019c0-1.6578-0.4328-2.8977-1.2554-3.7078c-0.8469-0.8094-2.1187-1.2164-3.8406-1.2164
			c-0.6656,0-1.2,0.0126-1.5727,0.0262c-0.3781,0.0242-0.7336,0.0563-1.0813,0.0993c-0.1351,0.5992-0.2374,1.5621-0.3015,2.8758
			c-0.0555,1.311-0.0883,3.1714-0.0883,5.5711v0.457V47.2752z"/>
		<path fill="#333333" stroke="#333333" stroke-width="0.3749" d="M298.1714,34.9092l-0.2415,5.8122
			c-0.6078-1.4794-1.4461-2.595-2.5313-3.3426c-1.0766-0.7441-2.3961-1.1179-3.9343-1.1179c-3.0188,0-5.3727,0.9926-7.0977,2.9812
			c-1.7125,1.9922-2.5765,4.7352-2.5765,8.2309c0,3.6102,0.9445,6.4813,2.8218,8.6282c1.8829,2.1351,4.3969,3.2046,7.5469,3.2046
			c1.4969,0,2.8883-0.2843,4.1852-0.8546c1.2843-0.5742,2.3992-1.3946,3.3539-2.4547c-0.5008,1.9625-1.6031,3.5313-3.3242,4.7016
			c-1.7219,1.1703-3.7821,1.7594-6.1985,1.7594c-3.6718,0-6.6938-1.2821-9.0523-3.8539c-2.3469-2.5602-3.5266-5.857-3.5266-9.8961
			c0-4.4625,1.2625-7.9562,3.7985-10.4871c2.5398-2.5309,6.0406-3.7942,10.5109-3.7942c0.6898,0,1.75,0.0797,3.129,0.2434
			C296.4283,34.828,297.4714,34.9092,298.1714,34.9092z"/>
		<path fill="#333333" stroke="#333333" stroke-width="0.3749" d="M304.5088,61.9448c0.3898-0.407,0.6617-1.3532,0.8148-2.8313
			c0.157-1.4805,0.2367-4.6359,0.2367-9.489V47.887c0-5.2879-0.0797-8.6562-0.2367-10.116c-0.1531-1.4586-0.425-2.393-0.8148-2.8051
			h2.6125c1.864,0,3.9812-0.0187,6.3374-0.0652c2.3531-0.0383,3.807-0.059,4.3031-0.059c0.0211,0,0.1101,0.0086,0.2547,0.0207
			c0.4243,0.0149,0.8305,0.0234,1.2297,0.0234l0.3257,3.9664c-0.3257-0.8637-0.9914-1.4586-1.9836-1.798
			c-0.9882-0.3434-2.8882-0.5133-5.6773-0.5133h-2.3406c-0.1391,0.5882-0.2407,1.5609-0.3008,2.921
			c-0.0594,1.3618-0.0922,3.3282-0.0922,5.8906v1.3938c0.3523,0.025,0.7367,0.0453,1.1734,0.0656
			c0.4374,0.0141,1.1406,0.0188,2.1195,0.0188c1.6492,0,3.0445-0.0391,4.1679-0.1149c1.1196-0.0742,2.129-0.1969,3.0234-0.3617
			c-0.7726,0.9-1.7984,1.5359-3.0617,1.9094c-1.2594,0.3758-3.3742,0.5602-6.3383,0.5602c-0.0679,0-0.2156-0.0086-0.4539-0.0172
			c-0.2375-0.0133-0.4532-0.0211-0.6305-0.0211v2.7282c0,2.5718,0.0328,4.5406,0.0922,5.9156
			c0.0602,1.379,0.1617,2.3578,0.3008,2.943h2.4218c2.7844,0,4.8703-0.2195,6.2782-0.6617
			c1.3992-0.4454,2.4726-1.1859,3.2437-2.2211l-0.7211,4.2102c-0.5641,0.1141-1.2039,0.1906-1.9211,0.2454
			c-0.721,0.0562-1.4789,0.0859-2.2718,0.0859c-0.6446,0-1.9156-0.0172-3.8328-0.0422c-1.9164-0.0266-3.5102-0.0437-4.8079-0.0437
			H304.5088z"/>
	</g>
	<g>
		<path fill="#333333" d="M331.4948,34.951c0.8766,0.8781,1.3476,2.0527,1.3476,3.3074c0,1.2801-0.471,2.4286-1.3562,3.2879
			c-0.9336,0.9058-2.1125,1.4008-3.3375,1.4008c-1.2422,0-2.4038-0.495-3.3015-1.4008c-0.8899-0.8836-1.3743-2.0523-1.3743-3.2879
			c0-1.2374,0.4992-2.4293,1.4125-3.3469c0.8594-0.8758,1.9922-1.3418,3.2633-1.3418
			C329.4252,33.5698,330.5916,34.0482,331.4948,34.951z M331.0955,35.3436c-0.7961-0.7996-1.8148-1.2141-2.9469-1.2141
			c-1.1063,0-2.1148,0.4047-2.8742,1.1734c-0.8094,0.8141-1.2383,1.8558-1.2383,2.9554c0,1.0809,0.4289,2.1,1.2125,2.8969
			c0.7852,0.7996,1.8109,1.218,2.8875,1.218c1.1023,0,2.1414-0.4184,2.9508-1.218c0.7718-0.7538,1.1992-1.7605,1.1992-2.871
			C332.2862,37.1588,331.8721,36.117,331.0955,35.3436z M330.5104,36.9752c0,0.7442-0.4664,1.295-1.2547,1.423l1.2079,2.4582
			h-1.0086l-1.1273-2.3266h-1.1282v2.3266h-0.9039v-5.3558h1.9891C329.7682,35.5006,330.5104,35.9693,330.5104,36.9752z
			 M327.1994,36.0873v1.8535h0.9367c0.9883,0,1.4508-0.2215,1.4508-0.9016c0-0.6922-0.4711-0.9519-1.4813-0.9519H327.1994z"/>
	</g>
</g>
</svg>
