<?xml version="1.0" encoding="utf-8"?>
<!-- Generator: Adobe Illustrator 18.1.1, SVG Export Plug-In . SVG Version: 6.00 Build 0)  -->
<!DOCTYPE svg PUBLIC "-//W3C//DTD SVG 1.1//EN" "http://www.w3.org/Graphics/SVG/1.1/DTD/svg11.dtd">
<svg version="1.1" id="XMLID_2_" xmlns="http://www.w3.org/2000/svg" xmlns:xlink="http://www.w3.org/1999/xlink" x="0px" y="0px"
	 viewBox="0 0 217.4102 19.375" enable-background="new 0 0 217.4102 19.375" xml:space="preserve">
<g id="logo-tagline">
	<path fill="#676767" d="M0,14.6485L2.4024,0.9766h1.8554L2.1485,12.9688h5.4687l-0.3125,1.6797H0z"/>
	<path fill="#676767" d="M8.7719,14.6485l1.6797-9.5703h1.7774l-1.6798,9.5703H8.7719z M10.8422,2.9298l0.332-1.9532h1.7774
		l-0.3321,1.9532H10.8422z"/>
	<path fill="#676767" d="M16.6438,6.4454l-1.4453,8.2031h-1.7774l1.4453-8.2031h-1.4062l0.4297-1.3672h1.211l0.4297-2.4218
		C15.8039,1.1126,16.5266,0,18.3625,0c0.7618,0,1.3282,0.1954,1.4844,0.2531l-0.4882,1.4844
		c-0.3516-0.1359-0.7031-0.175-0.957-0.175c-0.8008,0-0.957,0.3906-1.3086,2.3438l-0.2148,1.1718h2.207l-0.2539,1.3672H16.6438z"/>
	<path fill="#676767" d="M22.6992,10.5469c-0.8007,0-1.4453-0.0984-1.7187-0.1562c0,2.3047,1.0938,2.8906,2.4805,2.8906
		c0.7617,0,1.7969-0.1766,2.6367-0.5672l-0.0782,1.3875c-0.7226,0.3313-1.7773,0.7422-3.0273,0.7422
		c-2.6563,0-3.9063-1.8172-3.9063-4.1406c0-3.0281,2.0898-5.8202,5.2149-5.8202c1.8554,0,2.8516,0.9953,2.8516,2.4406
		C27.1524,8.7688,26.1367,10.5469,22.6992,10.5469z M21.1758,9.1595c0.4102,0.0594,0.5078,0.1953,1.3672,0.1953
		c2.3438,0,2.9883-1.0344,2.9883-1.8156c0-0.7813-0.6446-1.0938-1.4062-1.0938C22.9141,6.4454,21.8398,7.2657,21.1758,9.1595z"/>
	<path fill="#676767" d="M29.7524,3.8079l-0.3711-0.2531l0.8984-1.7l-0.5469-0.175L30.0258,0h1.8946l-0.3125,1.6798L29.7524,3.8079z
		"/>
	<path fill="#676767" d="M30.7297,14.0031l0.4883-1.6984c0.3711,0.3703,1.289,0.9766,2.5586,0.9766
		c1.2305,0,1.7969-0.5672,1.7969-1.3672c0-0.9187-0.7617-1.1922-1.4258-1.4062c-1.0938-0.3515-2.2266-0.7422-2.2266-2.325
		c0-1.4641,0.9961-3.3,3.7695-3.3c1.1718,0,1.9336,0.3312,2.3828,0.625l-0.4687,1.6016c-0.4102-0.4688-1.1133-0.8406-2.0313-0.8406
		c-1.0546,0-1.875,0.489-1.875,1.4453c0,0.7813,0.5469,0.9969,1.7382,1.4062c0.8398,0.2938,1.9922,0.7813,1.9922,2.4031
		c0,1.1329-0.5469,3.3203-3.8086,3.3203C32.0188,14.8438,31.1203,14.3157,30.7297,14.0031z"/>
	<path fill="#676767" d="M45.0875,13.4375l-1.0351,5.9375H42.275l2.5195-14.2969h1.4453l-0.0586,1.3672
		c0.8594-0.9969,1.6797-1.5625,2.8906-1.5625c2.1874,0,3.2617,1.8156,3.2617,4.0422c0,3.0281-1.9726,5.9187-4.8046,5.9187
		C46.4742,14.8438,45.6149,14.4329,45.0875,13.4375z M45.5367,10.6251c0,1.9141,0.8203,2.6562,1.8946,2.6562
		c1.7969,0,3.0664-2.0313,3.0664-4.239c0-1.5234-0.6054-2.5969-1.875-2.5969C47.0797,6.4454,45.5367,8.0079,45.5367,10.6251z"/>
	<path fill="#676767" d="M53.5274,10.8c0-3.1437,2.1875-5.9171,5.2539-5.9171c2.4414,0,3.6133,1.7766,3.6133,4.0625
		c0,3.125-2.1875,5.8984-5.2539,5.8984C54.6992,14.8438,53.5274,13.086,53.5274,10.8z M55.3438,10.6438
		c0,1.7391,0.6836,2.6375,2.0508,2.6375c1.9531,0,3.1836-1.875,3.1836-4.2c0-1.7578-0.7031-2.6359-2.0508-2.6359
		C56.5742,6.4454,55.3438,8.3203,55.3438,10.6438z"/>
	<path fill="#676767" d="M62.9633,14.0031l0.4883-1.6984c0.371,0.3703,1.289,0.9766,2.5586,0.9766
		c1.2305,0,1.7969-0.5672,1.7969-1.3672c0-0.9187-0.7617-1.1922-1.4258-1.4062c-1.0938-0.3515-2.2266-0.7422-2.2266-2.325
		c0-1.4641,0.9961-3.3,3.7695-3.3c1.1718,0,1.9336,0.3312,2.3828,0.625l-0.4687,1.6016c-0.4102-0.4688-1.1133-0.8406-2.0313-0.8406
		c-1.0546,0-1.875,0.489-1.875,1.4453c0,0.7813,0.5469,0.9969,1.7382,1.4062c0.8398,0.2938,1.9922,0.7813,1.9922,2.4031
		c0,1.1329-0.5468,3.3203-3.8086,3.3203C64.2524,14.8438,63.3539,14.3157,62.9633,14.0031z"/>
	<path fill="#676767" d="M70.5625,14.0031l0.4883-1.6984c0.3711,0.3703,1.289,0.9766,2.5586,0.9766
		c1.2305,0,1.7969-0.5672,1.7969-1.3672c0-0.9187-0.7617-1.1922-1.4258-1.4062c-1.0938-0.3515-2.2266-0.7422-2.2266-2.325
		c0-1.4641,0.9961-3.3,3.7695-3.3c1.1719,0,1.9336,0.3312,2.3828,0.625l-0.4687,1.6016c-0.4102-0.4688-1.1133-0.8406-2.0313-0.8406
		c-1.0546,0-1.875,0.489-1.875,1.4453c0,0.7813,0.5469,0.9969,1.7382,1.4062c0.8398,0.2938,1.9922,0.7813,1.9922,2.4031
		c0,1.1329-0.5469,3.3203-3.8086,3.3203C71.8516,14.8438,70.9531,14.3157,70.5625,14.0031z"/>
	<path fill="#676767" d="M78.5524,14.6485l1.6797-9.5703h1.7773l-1.6797,9.5703H78.5524z M80.6226,2.9298l0.3321-1.9532h1.7774
		L82.4,2.9298H80.6226z"/>
	<path fill="#676767" d="M85.0766,13.4375l-0.3515,1.211h-1.6016L85.7016,0h1.7774l-1.0742,6.1126
		c0.8594-0.9954,1.8945-1.2297,2.6758-1.2297c2.1875,0,3.2617,1.8546,3.2617,4.0234c0,3.2031-2.3438,5.9374-4.9024,5.9374
		C86.3461,14.8438,85.5454,14.336,85.0766,13.4375z M85.5454,10.6641c0,1.8938,0.8007,2.6172,1.875,2.6172
		c1.7774,0,3.0859-1.9922,3.0859-4.2c0-1.5031-0.6054-2.6359-1.914-2.6359C87.0492,6.4454,85.5454,8.0469,85.5454,10.6641z"/>
	<path fill="#676767" d="M93.2821,14.6485l1.6797-9.5703h1.7774l-1.6798,9.5703H93.2821z M95.3524,2.9298l0.332-1.9532h1.7774
		l-0.3321,1.9532H95.3524z"/>
	<path fill="#676767" d="M100.607,14.8438h-0.6054c-1.3867,0-1.875-0.8203-1.875-1.7969c0-0.1953,0.0195-0.4297,2.2461-13.0469
		h1.7774c-2.1094,11.9922-2.1679,12.3626-2.1679,12.6563c0,0.6437,0.293,0.7812,1.0937,0.7812L100.607,14.8438z"/>
	<path fill="#676767" d="M103.2062,14.6485l1.6797-9.5703h1.7774l-1.6797,9.5703H103.2062z M105.2766,2.9298l0.3321-1.9532h1.7773
		l-0.332,1.9532H105.2766z"/>
	<path fill="#676767" d="M111.5469,14.8438h-1.4648c-1.4063,0-1.9141-0.8406-1.9141-1.7781c0-0.1954,0.0195-0.4485,1.1133-6.6203
		h-1.4062l0.3906-1.3672h1.25l0.4297-2.3641l1.7969-0.175l-0.4493,2.539h2.168l-0.2539,1.3672h-2.1679
		c-0.9766,5.5656-1.0352,5.9562-1.0352,6.2297c0,0.7031,0.3516,0.7625,1.4649,0.7625h0.4687L111.5469,14.8438z"/>
	<path fill="#676767" d="M114.0867,14.6485l1.6797-9.5703h1.7774l-1.6797,9.5703H114.0867z M116.157,2.9298l0.3321-1.9532h1.7773
		l-0.332,1.9532H116.157z"/>
	<path fill="#676767" d="M122.4867,10.5469c-0.8008,0-1.4453-0.0984-1.7187-0.1562c0,2.3047,1.0938,2.8906,2.4805,2.8906
		c0.7617,0,1.7969-0.1766,2.6367-0.5672l-0.0782,1.3875c-0.7226,0.3313-1.7774,0.7422-3.0274,0.7422
		c-2.6562,0-3.9062-1.8172-3.9062-4.1406c0-3.0281,2.0898-5.8202,5.2149-5.8202c1.8554,0,2.8515,0.9953,2.8515,2.4406
		C126.9398,8.7688,125.9242,10.5469,122.4867,10.5469z M120.9633,9.1595c0.4102,0.0594,0.5078,0.1953,1.3672,0.1953
		c2.3438,0,2.9883-1.0344,2.9883-1.8156c0-0.7813-0.6446-1.0938-1.4063-1.0938C122.7016,6.4454,121.6273,7.2657,120.9633,9.1595z"/>
	<path fill="#676767" d="M127.2149,14.0031l0.4882-1.6984c0.3711,0.3703,1.2891,0.9766,2.5586,0.9766
		c1.2305,0,1.7969-0.5672,1.7969-1.3672c0-0.9187-0.7618-1.1922-1.4258-1.4062c-1.0937-0.3515-2.2266-0.7422-2.2266-2.325
		c0-1.4641,0.9962-3.3,3.7695-3.3c1.1719,0,1.9336,0.3312,2.3829,0.625l-0.4688,1.6016c-0.4101-0.4688-1.1133-0.8406-2.0312-0.8406
		c-1.0547,0-1.875,0.489-1.875,1.4453c0,0.7813,0.5469,0.9969,1.7383,1.4062c0.8398,0.2938,1.9922,0.7813,1.9922,2.4031
		c0,1.1329-0.5469,3.3203-3.8086,3.3203C128.5039,14.8438,127.6055,14.3157,127.2149,14.0031z"/>
	<path fill="#676767" d="M135.1461,14.6485l0.293-1.6797h1.7773l-0.293,1.6797H135.1461z"/>
	<path fill="#676767" d="M151.0852,14.6485l-1.7188-5.3328h-2.5l-0.9374,5.3328h-1.9141l2.4023-13.6719h4.1602
		c2.1875,0,3.6523,0.761,3.6523,3.1047c0,2.2266-1.3281,3.9062-2.9883,4.7469l1.8164,5.8203H151.0852z M148.0773,2.4798
		l-0.8984,5.039h2.3437c1.543,0,2.7344-0.9562,2.7344-2.9485c0-1.3672-0.5664-2.0906-2.1094-2.0906H148.0773z"/>
	<path fill="#676767" d="M158.5297,10.5469c-0.8007,0-1.4453-0.0984-1.7187-0.1562c0,2.3047,1.0938,2.8906,2.4805,2.8906
		c0.7617,0,1.7969-0.1766,2.6367-0.5672l-0.0782,1.3875c-0.7226,0.3313-1.7774,0.7422-3.0274,0.7422
		c-2.6562,0-3.9062-1.8172-3.9062-4.1406c0-3.0281,2.0898-5.8202,5.2149-5.8202c1.8554,0,2.8515,0.9953,2.8515,2.4406
		C162.9828,8.7688,161.9672,10.5469,158.5297,10.5469z M157.0062,9.1595c0.4102,0.0594,0.5079,0.1953,1.3672,0.1953
		c2.3438,0,2.9883-1.0344,2.9883-1.8156c0-0.7813-0.6446-1.0938-1.4062-1.0938C158.7446,6.4454,157.6703,7.2657,157.0062,9.1595z"/>
	<path fill="#676767" d="M167.5742,14.6485h-1.8164l-1.6211-9.5703h1.875l0.9961,7.6359l3.6523-7.6359h1.8946L167.5742,14.6485z"/>
	<path fill="#676767" d="M176.0531,10.5469c-0.8007,0-1.4453-0.0984-1.7187-0.1562c0,2.3047,1.0938,2.8906,2.4805,2.8906
		c0.7617,0,1.7969-0.1766,2.6367-0.5672l-0.0782,1.3875c-0.7226,0.3313-1.7774,0.7422-3.0273,0.7422
		c-2.6562,0-3.9062-1.8172-3.9062-4.1406c0-3.0281,2.0898-5.8202,5.2149-5.8202c1.8554,0,2.8515,0.9953,2.8515,2.4406
		C180.5062,8.7688,179.4906,10.5469,176.0531,10.5469z M174.5297,9.1595c0.4102,0.0594,0.5078,0.1953,1.3672,0.1953
		c2.3438,0,2.9883-1.0344,2.9883-1.8156c0-0.7813-0.6446-1.0938-1.4062-1.0938C176.268,6.4454,175.1938,7.2657,174.5297,9.1595z"/>
	<path fill="#676767" d="M189.4336,11.8547c-0.0586,0.3125-0.0781,0.5859-0.0781,0.7625c0,0.625,0.2343,0.8203,0.9179,0.8203
		l-0.4883,1.4062c-1.1133,0-1.9531-0.039-2.2266-1.4062c-0.7813,0.9172-1.9531,1.4062-2.9883,1.4062
		c-1.9336,0-3.1836-1.739-3.1836-4.0234c0-2.989,2.1094-5.9374,5.039-5.9374c0.8008,0,1.7188,0.214,2.2266,1.2109l0.371-1.0156
		h1.5625L189.4336,11.8547z M183.2226,10.6438c0,1.4657,0.5665,2.6375,1.9336,2.6375c1.4844,0,3.0664-1.4062,3.0664-4.0438
		c0-1.9531-0.8594-2.7922-1.9922-2.7922C184.5117,6.4454,183.2226,8.4172,183.2226,10.6438z"/>
	<path fill="#676767" d="M194.475,14.8438h-0.6055c-1.3867,0-1.875-0.8203-1.875-1.7969c0-0.1953,0.0195-0.4297,2.2461-13.0469
		h1.7774c-2.1094,11.9922-2.168,12.3626-2.168,12.6563c0,0.6437,0.293,0.7812,1.0938,0.7812L194.475,14.8438z"/>
	<path fill="#676767" d="M200.1203,10.5469c-0.8008,0-1.4453-0.0984-1.7187-0.1562c0,2.3047,1.0938,2.8906,2.4805,2.8906
		c0.7617,0,1.7969-0.1766,2.6367-0.5672l-0.0782,1.3875c-0.7226,0.3313-1.7774,0.7422-3.0273,0.7422
		c-2.6562,0-3.9062-1.8172-3.9062-4.1406c0-3.0281,2.0898-5.8202,5.2149-5.8202c1.8554,0,2.8515,0.9953,2.8515,2.4406
		C204.5734,8.7688,203.5578,10.5469,200.1203,10.5469z M198.5969,9.1595c0.4102,0.0594,0.5078,0.1953,1.3672,0.1953
		c2.3438,0,2.9883-1.0344,2.9883-1.8156c0-0.7813-0.6446-1.0938-1.4063-1.0938C200.3352,6.4454,199.261,7.2657,198.5969,9.1595z"/>
	<path fill="#676767" d="M211.3726,14.6485l0.0782-1.211c-0.8008,0.9172-1.7969,1.4062-2.8125,1.4062
		c-1.9141,0-3.1836-1.739-3.1836-4.0438c0-2.9687,2.1094-5.9171,5.039-5.9171c0.8008,0,1.7187,0.214,2.2266,1.2109L213.7946,0
		h1.7774l-2.5782,14.6485H211.3726z M207.2906,10.6438c0,1.4657,0.5664,2.6375,1.9336,2.6375c1.4844,0,3.0664-1.4062,3.0664-4.0438
		c0-1.9531-0.8594-2.7922-1.9922-2.7922C208.5797,6.4454,207.2906,8.4172,207.2906,10.6438z"/>
	<path fill="#676767" d="M215.3398,14.6485l0.293-1.6797h1.7774l-0.293,1.6797H215.3398z"/>
</g>
</svg>
