<svg xmlns="http://www.w3.org/2000/svg" width="16" height="68" viewBox="0 0 16 68"><radialGradient id="a" cx="81.985" cy="664.982" r="13.698" gradientTransform="matrix(.926 .039 -.039 .926 -42.07 -551.746)" gradientUnits="userSpaceOnUse"><stop offset="0" stop-color="#FF2817"/><stop offset=".107" stop-color="#FF5737"/><stop offset=".224" stop-color="#FF8255"/><stop offset=".337" stop-color="#FFA46C"/><stop offset=".443" stop-color="#FFBD7D"/><stop offset=".578" stop-color="#FFCC87"/><stop offset=".814" stop-color="#FFD18B"/><stop offset="1" stop-color="#FFD60A"/></radialGradient><path fill="url(#a)" stroke="#DB703C" stroke-linejoin="round" d="M3.6 66.75l.8-5-3.5-3.3 4.9-.7 2.1-4.5 2.3 4.4 4.9.7-3.6 3.4.9 4.9-4.4-2.3z"/><radialGradient id="b" cx="81.805" cy="33.854" r="13.698" gradientTransform="matrix(.926 .039 .039 -.926 -69.291 69.103)" gradientUnits="userSpaceOnUse"><stop offset="0" stop-color="#179EFF"/><stop offset=".107" stop-color="#37ACFF"/><stop offset=".224" stop-color="#55B8FF"/><stop offset=".337" stop-color="#6CC2FF"/><stop offset=".443" stop-color="#7DC9FF"/><stop offset=".578" stop-color="#87CDFF"/><stop offset=".814" stop-color="#8BCFFF"/><stop offset="1" stop-color="#47B3FF"/></radialGradient><path fill="url(#b)" stroke="#3D99D8" stroke-linejoin="round" d="M3.6 40.75l.8-5-3.5-3.3 4.9-.7 2.1-4.5 2.3 4.4 4.9.7-3.6 3.4.9 4.9-4.4-2.3z"/><path fill="#E9DED0" stroke="#E8CDC1" stroke-linejoin="round" d="M3.6 14.75l.8-5-3.5-3.3 4.9-.7 2.1-4.5 2.3 4.4 4.9.7-3.6 3.4.9 4.9-4.4-2.3z"/></svg>