<?xml version="1.0" encoding="utf-8"?>
<!-- Generator: Adobe Illustrator 18.1.0, SVG Export Plug-In . SVG Version: 6.00 Build 0)  -->
<!DOCTYPE svg PUBLIC "-//W3C//DTD SVG 1.1//EN" "http://www.w3.org/Graphics/SVG/1.1/DTD/svg11.dtd">
<svg version="1.1" id="Layer_1" xmlns="http://www.w3.org/2000/svg" xmlns:xlink="http://www.w3.org/1999/xlink" x="0px" y="0px"
	 width="16px" height="16px" viewBox="0 0 16 16" style="enable-background:new 0 0 16 16;" xml:space="preserve">
<g>
	<g style="opacity:0.2;">
		<polygon style="stroke:#000000;stroke-width:1.0191;stroke-linejoin:round;" points="4.3,15.4 5,10.6 1.5,7.3 6.3,6.5 8.4,2.2 
			10.6,6.5 15.4,7.1 12,10.5 12.8,15.3 8.5,13.1 4.3,15.4 		"/>
		<polygon style="stroke:#000000;stroke-width:0.4269;stroke-linejoin:round;" points="4.2,15.2 5,10.4 1.5,7.1 6.3,6.4 8.4,2 
			10.6,6.3 15.4,7 11.9,10.4 12.8,15.1 8.5,12.9 4.2,15.2 		"/>
	</g>
	<g>
		<g>
			<polygon style="fill:#830E44;stroke:#830E44;stroke-width:1.0191;stroke-linejoin:round;" points="3.3,14.4 4,9.6 0.5,6.3 
				5.3,5.5 7.4,1.2 9.6,5.5 14.4,6.1 11,9.5 11.8,14.3 7.5,12.1 3.3,14.4 			"/>
			
				<radialGradient id="SVGID_1_" cx="7.3575" cy="2.0363" r="13.4025" gradientTransform="matrix(0.9256 3.918997e-02 -3.918997e-02 0.9256 0.5485 12.3332)" gradientUnits="userSpaceOnUse">
				<stop  offset="0" style="stop-color:#FF2817"/>
				<stop  offset="0.1069" style="stop-color:#FF5737"/>
				<stop  offset="0.2236" style="stop-color:#FF8255"/>
				<stop  offset="0.3366" style="stop-color:#FFA46C"/>
				<stop  offset="0.4431" style="stop-color:#FFBD7D"/>
				<stop  offset="0.5408" style="stop-color:#FFCC87"/>
				<stop  offset="0.6213" style="stop-color:#FFD18B"/>
				<stop  offset="1" style="stop-color:#FFD60A"/>
			</radialGradient>
			<polygon style="fill:url(#SVGID_1_);stroke:#FF793F;stroke-width:0.4269;stroke-linejoin:round;" points="3.2,14.2 4,9.4 
				0.5,6.1 5.3,5.4 7.4,1 9.6,5.3 14.4,6 10.9,9.4 11.8,14.1 7.5,11.9 3.2,14.2 			"/>
		</g>
	</g>
</g>
</svg>
