<?xml version="1.0" encoding="utf-8"?><!DOCTYPE svg PUBLIC "-//W3C//DTD SVG 1.1//EN" "http://www.w3.org/Graphics/SVG/1.1/DTD/svg11.dtd"><svg width="270" height="193" viewBox="0 0 270 193" xmlns="http://www.w3.org/2000/svg" xmlns:xlink="http://www.w3.org/1999/xlink"><svg viewBox="0 0 7.0119 11.6667" enable-background="new 0 0 7.0119 11.6667" width="7.0119" height="11.6667" id="item-arrow-left" x="260" y="71.6667"><path fill="none" stroke="#000" stroke-width="1.667" stroke-linecap="round" stroke-miterlimit="10" d="M6.178 10.833l-5-5 5-5"/></svg><svg viewBox="0 0 7.0118 11.6667" enable-background="new 0 0 7.0118 11.6667" width="7.0118" height="11.6667" id="item-arrow-right" x="260" y="60"><path fill="none" stroke="#000" stroke-width="1.667" stroke-linecap="round" stroke-miterlimit="10" d="M.833.833l5 5-5 5"/></svg><svg viewBox="0 0 32 32" enable-background="new 0 0 32 32" width="32" height="32" id="points-left" x="210" y="110"><path d="M7.6 22c.2 0 .5-.1.7-.3.4-.3.4-.9 0-1.3l-5-4.4 4.9-4.5c.4-.3.4-.9 0-1.3-.4-.3-1-.3-1.4 0l-5.6 5.1c-.4.3-.4.9 0 1.3l5.6 5.1c.3.2.5.3.8.3z"/></svg><svg viewBox="0 0 32 32" enable-background="new 0 0 32 32" width="32" height="32" id="points-right" x="210" y="142"><path d="M15.2 22c-.2 0-.5-.1-.7-.3-.4-.3-.4-.9 0-1.3l4.9-4.5-4.9-4.5c-.4-.3-.4-.9 0-1.3.4-.3 1-.3 1.4 0l5.6 5.1c.4.3.4.9 0 1.3l-5.6 5.1c-.2.3-.5.4-.7.4z"/></svg><svg viewBox="29 5 82 14" enable-background="new 29 5 82 14" width="82" height="14" id="scroll" y="178.0035"><path fill="none" d="M104.3 6.6c-.2-.1-.3-.2-.5-.2-.2-.1-.4-.1-.6-.2.1.3.2.5.3.8.3-.1.5-.3.8-.4zM0 8.8c0 .1 0 .1 0 0v-.1.1z"/><path fill="#ABC5C8" stroke="#ABC5C8" stroke-width=".25" stroke-miterlimit="10" d="M109.1 8.8c-.2.1-.4.1-.5.2-.4-.3-.9-.5-1.4-.6-2.2-3.1-7-3.7-10-2.9-3.1.9-4.3 3.3-1.7 5.4 1.2 1 3.1 1.2 4.6 1-.7.5-.7 1.5-.3 2.2-.1 0-.2 0-.4.1-2.7.3-5.6-1.8-8.1-2.9-5.4-2.3-12.2-4-18-1.6-1.4.6-2.7 1.6-3 3.1-.2.2-.4.5-.4.8 0 .5.4.8.8.9.2.1.4-.3.1-.4h-.1c-.1 0-.1-.1-.2-.1l-.1-.1c-.2-.3-.1-.5.1-.7.1 0 .1 0 .1-.1 0 0 .1-.1.2-.1h.6c.4.1.8.4 1 .8 0 .1 0 .1.1.2v.2c0 .1 0 .1-.1.2 0 .1-.1.1-.1.2l-.3.3c-.1.1-.3.2-.4.2-.2.1-.4.1-.6.2h-1.1c-.7-.1-1.4-.3-2.1-.5 1.7-2.2.1-5.1-2.9-6.1-1.3-.4-3.3-.5-4.6 0-.5-.3-1.1-.6-1.6-.9C47.6.5 39.5 12.5 32 12.5c-.3 0-.7-.1-1-.3-.2-.1-.4-.2-.5-.3-.1-.1-.3-.3-.5-.6.4.1.8 0 1.1-.2.5-.3.9-.8.8-1.4-.2-.9-1.2-1.3-2-1.4H29v.4c.3 0 .7-.1 1 0 .2 0 .4.1.6.2.2.1.4.2.5.3l.3.3c.1.1.1.1.1.2s0 .1.1.2v.2c0 .1 0 .1-.1.2-.2.4-.6.7-1 .8h-.3c-.1 0-.2 0-.2-.1-.3-.2-.7-.5-.4-.9l.1-.1c.1 0 .1-.1.2-.1h.1c.2-.1.1-.5-.1-.4-.4.1-.8.4-.8.9v.1c0 .2.1.4.3.6.3 1.5 1.6 2.6 3 3.2 5.8 2.3 12.6.6 18-1.6 2.5-1 5.4-3.2 8.1-2.9.1 0 .2 0 .4.1-.4.7-.3 1.7.3 2.2-1.5-.2-3.5 0-4.6 1-2.6 2.1-1.4 4.6 1.7 5.4 2.9.8 7.8.3 10-2.9.5-.1 1-.3 1.4-.6.2.1.4.1.5.2.9.3 1.8.5 2.7.5.8-.1 1.8-.5 2-1.4.1-.6-.3-1.1-.8-1.4-.3-.2-.7-.3-1-.2.2-.3.4-.5.5-.6.2-.1.3-.2.5-.3.3-.1.7-.2 1-.3 7.4.1 15.5 12 26.8 4.9.6-.3 1.1-.6 1.6-.9 1.3.5 3.4.4 4.6 0 3-1 4.6-3.9 2.9-6.1l2.1-.6v-.4c-.7 0-1.4.2-2 .4zm-77.7 4.3c-.2-.1-.5-.2-.7-.4l-.2-.2c.7.4 1.6.5 2.4.5 7.6 0 15.9-11.2 27-4.2-.1 0-.1.1-.2.1-11.7-2.5-19.9 5.3-27.1 4.5l-1.2-.3zm1.5.7c3.5.3 9.3-2.1 12.8-3.1 2.3-.7 4.6-1.3 6.9-1.6 2.2-.3 4.5-.3 6.7.1l-.2.2c-8.2-1.6-14.9 8.2-26.2 4.4zm26.2-3.7c.1-.1.1-.3.2-.4l.3-.3.1-.1c.4.1.9.2 1.3.3l.4.4c.8 1-.3 1.7-1.3 1.8h-.3c-.1 0-.2 0-.3-.1-.1 0-.1-.1-.2-.1-.4-.3-.4-.9-.2-1.5zm7.1 4.6c-1.3 2.9-5.7 3.7-8.6 3.3-3.6-.5-4-3.2-2.3-4.7 1.1-1 3.1-1.4 5.3-.5.3.1.6.3.8.5l.1.1c-.2 0-.4.1-.6.1-1.2.3-2.5 1.8-1.3 2.7.9.7 2.6 0 3-1 .2-.5 0-1-.2-1.5.5 0 1.1 0 1.6.1.6.1 1.2.2 1.7.4.2.1.4.2.6.2-.1.2-.1.2-.1.3zm-4.6-.9h.3c.1.1.2.3.2.4.1.1.1.3.1.5v.3c0 .1 0 .2-.1.2 0 .1-.1.2-.1.2l-.3.3c-.4.3-.9.5-1.5.4-.1 0-.2 0-.3-.1-.1 0-.1-.1-.2-.1-.9-.9 1-2 1.9-2.1zm4.8.3c-.4-.2-.7-.3-1.1-.4-.7-.2-1.3-.3-2-.3h-1.1c-.2-.3-.5-.5-.8-.6-.3-.2-.6-.3-1-.4.4-.1.7-.2 1-.4.9-.5 1.1-1.2.5-2 1.8.6 4.2 1.3 4.5 3.5v.6c0-.1 0-.1 0 0zm.4.8c-.1 0-.2.1-.3.1.1-.1.1-.3.2-.4.2.1.3.1.5.2-.2.1-.3.1-.4.1zm.7-.4c-.1 0-.2-.1-.2-.1-.2-.1-.3-.1-.5-.2.5-2.8-2.4-3.9-4.5-4.7-.3-.1-.6-.2-1-.3-.2-.1-.3-.2-.5-.3.1 0 .3 0 .4-.1 4.2-1.2 8.8 2.4 6.4 5.5 0 .1-.1.2-.1.2zm40.4-5.4c.1 0 .2.1.3.1-.2.1-.3.1-.5.2 0-.2-.1-.3-.2-.5.1.1.2.1.4.2zm-.5.9v.7c-.3 2.2-2.7 2.9-4.5 3.5.6-.8.4-1.6-.5-2-.3-.2-.6-.3-1-.4.3-.1.7-.2 1-.4.3-.2.6-.4.8-.6h1.1c.7 0 1.4-.1 2-.3.4-.3.7-.4 1.1-.5zm-4.7.2c-.9-.1-2.9-1.2-1.7-2.1.1 0 .1-.1.2-.1s.2-.1.3-.1c.5-.1 1 .1 1.5.4l.3.3c.1.1.1.2.1.2 0 .1.1.2.1.2v.3c0 .2-.1.3-.1.5-.1.1-.1.3-.2.4h-.5zm-6.4.5C94.7 9.2 95 6.5 98.6 6c2.9-.4 7.3.4 8.6 3.3 0 .1.1.2.1.3-.2.1-.4.2-.6.2-.6.2-1.1.3-1.7.4-.5.1-1.1.1-1.6.1.2-.4.4-1 .2-1.5-.4-1-2.1-1.7-3-1-1.1.9.1 2.4 1.3 2.7.2 0 .4.1.6.1l-.1.1c-.3.2-.5.3-.8.5-2.1.9-4.2.4-5.3-.5zm3.8 3.9c.1.1.1.2.2.2-2.2.4-4.5.4-6.7.1-2.4-.3-4.7-.9-6.9-1.6-3.5-1-9.3-3.4-12.8-3.1 11.3-3.8 18 6 26.2 4.4zM74 11c-.8 0-1.7.1-2.4.5l.2-.2c.2-.2.4-.3.7-.4.4-.2.8-.2 1.2-.3 7.2-.8 15.4 7 27.1 4.5.1 0 .1.1.2.1-11.1 7-19.4-4.2-27-4.2zm26.8 3.7l-.1-.1-.3-.3c-.1-.1-.2-.3-.2-.4-.2-.5-.2-1.1.3-1.5.1 0 .1-.1.2-.1s.2-.1.3-.1h.3c1 .2 2 .8 1.3 1.8-.1.2-.3.3-.4.4-.5.1-.9.2-1.4.3zm1.4.5c-.1 0-.3 0-.4-.1.2-.1.3-.2.4-.3.3-.1.6-.2 1-.3 2.1-.8 5-1.8 4.5-4.7.2-.1.3-.1.5-.2.1 0 .2-.1.2-.1l.2.2c2.4 3-2.1 6.7-6.4 5.5z"/></svg><svg viewBox="15 15 20 20" enable-background="new 15 15 20 20" width="20" height="20" id="star-corner-orange" x="242" y="110"><radialGradient id="fa" cx="25.021" cy="26.979" r="9.938" gradientTransform="matrix(1 0 0 -1 0 52)" gradientUnits="userSpaceOnUse"><stop offset=".515" stop-color="#fff"/><stop offset="1" stop-color="#fff" stop-opacity="0"/></radialGradient><circle fill="url(#fa)" cx="25" cy="25" r="9.9"/><path fill="#E88640" d="M15.6 27.3l7.3-2.8-4.4-6.2 5.9 4.8 3.3-7.1-1.4 7.6 7.7-.9-7.3 2.8 4.4 6.2-5.9-4.8-3.3 7.1 1.4-7.6-7.7.9zm8.2.8l1.1-2.4 2 1.6-1.5-2.1 2.5-1-2.6.3.5-2.6-1.1 2.4-2-1.7 1.5 2.1-2.5 1 2.6-.3-.5 2.7zM22 34h-.2l1.4-7.5-7.6.9v-.2l7.2-2.8-4.3-6.1.1-.1 5.8 4.7 3.2-7 .2.1-1.4 7.5 7.6-.9v.2l-7.2 2.8 4.3 6.1-.1.1-5.8-4.7L22 34zm1.4-7.7l-1.3 7 3-6.5.1.1 5.3 4.4-4.1-5.7 6.7-2.6-7.1.9 1.3-7-3 6.5-5.3-4.6 4.1 5.7-6.7 2.6 7-.8zm.5 1.8l-.2-.1.4-2.5-2.5.3v-.2l2.4-1-1.5-2 .1-.1 1.9 1.6 1.1-2.3.2.1-.5 2.5 2.5-.3v.2l-2.4.9 1.4 2-.1.1-1.7-1.5-1.1 2.3zm.5-2.7l-.4 2 .9-1.9 1.5 1.3-1.2-1.6 2-.8-2.1.2.4-2.1-.9 1.9-1.6-1.3 1.2 1.7-2 .8 2.2-.2z"/></svg><svg viewBox="15 15 20 20" enable-background="new 15 15 20 20" width="20" height="20" id="star-corner-red" x="242" y="142"><radialGradient id="ga" cx="25" cy="27" r="9.995" gradientTransform="matrix(1 0 0 -1 0 52)" gradientUnits="userSpaceOnUse"><stop offset=".515" stop-color="#fff"/><stop offset="1" stop-color="#fff" stop-opacity="0"/></radialGradient><circle fill="url(#ga)" cx="25" cy="25" r="10"/><path fill="#B85D57" d="M26.3 26.4l1.4 7.7-3.3-7.1-5.9 4.8 4.4-6.2-7.3-2.8 7.7.9-1.4-7.7 3.3 7.1 5.9-4.8-4.4 6.2 7.3 2.9-7.7-1zm-1-.9l2.7.3-2.5-1 1.5-2.1-2 1.7-1.2-2.4.5 2.6-2.7-.3 2.5 1-1.5 2.1 2-1.6 1.1 2.4-.4-2.7zM24.3 27.1l-5.8 4.7-.1-.1 4.4-6.1-7.2-2.8v-.2l7.6.9-1.4-7.5.2-.1 3.3 7 5.8-4.7.1.1-4.3 6.1 7.2 2.8v.2l-7.6-.9 1.4 7.5-.2.1-3.4-7zm9 0l-6.8-2.6 4.1-5.7-5.5 4.5-3.1-6.6 1.3 7.1-7.1-.9 6.8 2.6-4.1 5.7 5.4-4.4.1-.1 3.1 6.6-1.3-7.1 7.1.9zm-8.7-1.3l-1.9 1.5-.1-.1 1.4-2-2.4-1V24l2.5.3-.5-2.5.2-.1 1.1 2.3 1.9-1.6.1.1-1.5 2 2.4 1v.2l-2.5-.3.4 2.5-.2.1-.9-2.2zm2.7-.2l-2-.8 1.2-1.7-1.6 1.3-.9-1.8.4 2.1-2.1-.3 2 .8-1.2 1.6 1.6-1.3.9 1.9-.4-2.1 2.1.3z"/></svg><svg viewBox="0 0 60 60" enable-background="new 0 0 60 60" width="60" height="60" id="star-corner-three" x="210"><g fill="#F57F24"><path d="M17.2 33.9L32.6 28l-9.3-13.1L35.9 25l7-15-3 16.1 16.3-1.9-15.4 5.9L50 43.2 37.5 33l-7 15 3-16.1-16.3 2zm17.4 1.7l2.3-5.1 4.2 3.4-3.1-4.5 5.3-2.1-5.5.6 1.1-5.5-2.3 5.1-4.2-3.6 3.2 4.4-5.3 2.1 5.5-.6-1.2 5.8zM30.8 48h-.4l3-15.9L17.3 34v-.4l15.2-5.9-9.1-12.9.2-.2 12.3 9.9 6.8-14.8.3.3-3 15.9L56.1 24v.4l-15.2 5.9L50 43.2l-.2.2-12.3-9.9L30.8 48zm2.9-16.3L31 46.6l6.3-13.7.2.2 11.2 9.3L40 30.3l14.2-5.5-15 1.9L42 11.9l-6.3 13.7-11.2-9.7L33.2 28 19 33.5l14.7-1.8zm1.1 3.9l-.4-.2.8-5.3-5.3.6v-.4l5.1-2.1-3.2-4.2.2-.2 4 3.4 2.3-4.9.4.2-1.1 5.3 5.3-.6v.4L38 29.4l3 4.2-.2.2-3.6-3.2-2.4 5zm1.1-5.8l-.9 4.3 1.9-4 3.2 2.7-2.5-3.4 4.2-1.7-4.4.4.8-4.4-1.9 4-3.4-2.7 2.5 3.6-4.2 1.7 4.7-.5z"/></g><g fill="#6D9DBA"><path d="M12.9 15.2l7.7-4.6-6.2-6.1L22 8.7 24.3.1l-.1 8.8 8.5-2.5L25 11l6.2 6.1-7.6-4.3-2.3 8.6.1-8.8-8.5 2.6zm9.4-.7l.8-2.9 2.6 1.4-2.1-2.1 2.6-1.6-2.9.8.1-3-.8 2.9L20 8.5l2.1 2.1-2.6 1.6 2.9-.8-.1 3.1zM21.4 21.5h-.2l.1-8.7-8.4 2.5v-.2l7.6-4.6-6-6 .1-.1 7.5 4.2L24.2 0l.2.1-.1 8.7 8.4-2.5v.2l-7.6 4.6 6 6-.1.1-7.5-4.2-2.1 8.5zm.1-9l-.1 8.1 2.1-7.9.1.1 6.8 3.9-5.7-5.6 7-4.2-7.8 2.4.1-8.1-2.1 7.9L15 4.9l5.7 5.6-7 4.2 7.8-2.2zm.9 2l-.2-.1v-2.9l-2.8.8v-.2l2.5-1.6-2.1-2 .1-.1 2.5 1.4.7-2.8.2.1V10l2.7-.8v.2l-2.5 1.5 2 2-.1.1-2.2-1.4-.8 2.9zm0-3.2l-.1 2.3.6-2.3 1.9 1.2-1.5-1.5 2.1-1.3-2.3.6V7.9l-.6 2.3L20.4 9l1.7 1.7L20 12l2.4-.7z"/></g><g fill="#C04747"><path d="M5.8 54.8l8.4-8.9-10.4-5.8 11.5 2.8-.1-12.2 3.2 11.6 10.2-6.5-8.4 8.9 10.4 5.8-11.5-2.8.1 12.2L16 48.3 5.8 54.8zm12.1-4.5l-.1-4.1 3.9.9-3.5-1.9 2.8-3.1-3.5 2.2-1.1-4 .1 4.1-4-1 3.5 1.9-2.8 3.1 3.5-2.2 1.2 4.1zM19.4 59.9l-.3.1L16 48.5 5.9 54.9l-.1-.3 8.2-8.8-10.2-5.7.1-.2 11.3 2.7-.2-12h.3l3.1 11.5 10.1-6.4.1.3-8.2 8.8 10.2 5.7-.1.2L19.2 48l.2 11.9zm-3.3-11.8L19 58.8l-.2-11.2.2.1 10.4 2.6-9.6-5.3 7.7-8.2-9.4 6.1-2.9-10.7.2 11.2-10.5-2.9 9.6 5.3L6.8 54l9.3-5.9zm2 2.2h-.3l-1.1-3.8-3.3 2.1-.1-.3 2.7-3-3.5-1.8.1-.2 3.8 1v-4h.3l1 3.9 3.3-2.1.1.3-2.8 2.9 3.3 1.9-.1.2-3.4-1v3.9zm-1.2-4.2l.8 3.1v-3.3l3 .8-2.8-1.4 2.3-2.5-2.8 1.7-.9-3.2v3.3l-3.1-.8 2.8 1.6-2.2 2.5 2.9-1.8z"/></g></svg><svg viewBox="0 0 50 50" enable-background="new 0 0 50 50" width="50" height="50" id="star-corner-two" x="210" y="60"><g fill="#6D9DBA"><path d="M3.8 34.9l8.9-.7L9.9 26l4.9 7.2 5.9-6.7-4 7.9 8.7 1.5-8.9.7 2.8 8.2-4.9-7.2-5.9 6.7 4-7.9-8.7-1.5zm8.7 3.5l2-2.3 1.7 2.4-1-2.8 3.1-.3-3-.4 1.4-2.7-2 2.3-1.6-2.5 1 2.8-3.1.2 2.9.5-1.4 2.8zM8.6 44.3l-.2-.1 4-7.8L3.7 35l.1-.2 8.8-.7L9.9 26l.1-.1 4.8 7 5.8-6.6.2.2-4 7.8 8.6 1.5v.2l-8.8.7 2.7 8.1-.1.1-4.8-7-5.8 6.4zm4-8l-3.7 7.2 5.4-6.1.1.1 4.4 6.6-2.6-7.6 8.2-.7-8.1-1.3 3.7-7.2-5.4 6.1-4.3-6.8 2.6 7.6-8.2.7 7.9 1.4zm0 2.2l-.2-.2 1.3-2.6-2.8-.5.1-.2 3-.3-1-2.7.1-.1 1.6 2.4 2-2.2.2.2-1.4 2.6 2.8.5-.1.2-2.9.2.9 2.7-.1.1-1.4-2.2-2.1 2.1zm1.4-2.8l-1.1 2.1 1.6-1.8 1.2 1.9-.7-2.2 2.5-.2-2.4-.5 1.1-2.2-1.6 1.8-1.3-1.9.7 2.3-2.5.2 2.5.5z"/></g><g fill="#C04747"><path d="M12.3 20l13.6-3.1-6.2-12 9.2 9.9 7.6-11.7-4.4 13 13.8.3-13.6 3.1 6.2 12-9.2-9.9-7.6 11.7 4.4-13-13.8-.3zm14.2 3.4l2.5-4 3.1 3.3-2.1-4.1 4.7-1.1-4.7-.1 1.5-4.5-2.5 4-3-3.4 2.1 4.1-4.7 1.1 4.7.1-1.6 4.6zM21.9 33.4h-.4l4.3-12.9-13.6-.3v-.4l13.4-3.1-6-11.9.2-.2 9 9.7 7.4-11.5.3.2-4.2 13 13.6.3v.4l-13.4 3.1 6.1 11.8-.2.2-9-9.7-7.5 11.3zm4.4-13.3l-4 12 6.9-10.7.2.2 8.2 9.1-5.8-11.1 12.4-2.9-12.7-.2 4-12-6.9 10.7-8.2-9.4 5.8 11.1-12.4 2.9 12.5.3zm.4 3.3l-.3-.2 1.3-4.3-4.5-.1v-.4l4.5-1.2-2.1-3.9.2-.2 2.9 3.3 2.5-3.8.3.2-1.5 4.3 4.5.1v.4l-4.5 1 2 3.9-.2.2-2.6-3.1-2.5 3.8zm1.6-4.6l-1.2 3.4 2.1-3.1 2.3 2.7-1.7-3.1 3.7-.9-3.7-.2L31 14l-2.1 3.1-2.5-2.7 1.7 3.3-3.7.9 3.9.2z"/></g></svg><svg viewBox="0 0 153.9997 32.0035" enable-background="new 0 0 153.9997 32.0035" width="153.9997" height="32.0035" id="top-flourish" y="146"><g><path fill-rule="evenodd" clip-rule="evenodd" fill="#576C76" d="M136.832 30.504c-7.734 0-15.76-5.237-20.693-10.136-2.576-2.558-4.64-4.606-6.373-6.115.085.875-.053 1.83-.415 2.777-.916 2.398-2.806 3.773-5.187 3.773-2.794 0-5.618-1.91-6.717-4.543-.98-2.352-.407-4.848 1.574-6.847 1.27-1.285 3.053-1.994 5.015-1.994.26 0 .525.012.79.037.225-.04.45-.073.676-.1-1.544-.355-3.094-.554-4.632-.593l-.412-.004c-1.956 0-3.69.237-5.3.724-1.392.438-2.784 1.08-4.327 1.808-.203.097-.423.144-.64.144-.327 0-.653-.107-.92-.316-.448-.347-.66-.915-.553-1.47l.137-.703c.09-.468.4-.865.832-1.07 1.77-.834 3.665-1.69 5.637-2.16 1.654-.392 3.387-.592 5.15-.592 2.845 0 5.75.507 8.64 1.507 2.006.694 4.04 1.662 6.214 2.96 3.53 2.11 6.61 3.535 10.172 3.642l.272.003c.698 0 1.415-.047 2.168-.142.007-2.272.753-4.304 2.19-5.94 2.045-2.323 5.327-3.656 9.007-3.656 3.95 0 7.627 1.53 10.09 4.198 2.432 2.632 3.544 6.21 3.215 10.344-.623 7.836-6.813 13.065-12.605 14.18-.965.187-1.976.28-3.004.28zm-4.99-8.51c.986.144 2.032.247 3.15.302.353.017.7.025 1.033.025 3.952 0 6.66-1.16 7.834-3.36 1.047-1.964.735-4.706-.794-6.986-1.393-2.077-3.983-3.472-6.444-3.472-1.067 0-2.46.272-3.582 1.416.245-.077.49-.152.735-.218.754-.202 1.65-.41 2.575-.41.588 0 1.138.087 1.635.256 1.773.603 2.678 2.164 2.363 4.073-.388 2.343-2.686 4.937-5.497 5.28-.52 1.256-1.513 2.354-2.748 2.972-.085.043-.172.083-.26.12zM120.44 14.02c.512.476 1.02.93 1.547 1.36 1.616 1.31 3.168 2.24 4.737 2.84.06.02.12.042.178.063-.13-.298-.224-.616-.28-.95-.16-.975.02-1.824.41-2.524-.394.024-.782.036-1.163.036l-.342-.003c-1.93-.04-3.585-.347-5.087-.822zm-16.64-2.902c-.955 0-1.734.348-2.255 1.005-.544.688-.75 1.666-.54 2.553.285 1.206 1.313 2.1 2.34 2.432-.38-.537-.61-1.204-.662-1.933-.1-1.444.517-3.193 1.85-3.995-.254-.04-.498-.062-.733-.062zm29.734 2.397c.56.437 1.037 1.012 1.345 1.698.564-.218 1.243-.687 1.685-1.3.248-.347.376-.68.355-.917-.01-.004-.02-.01-.03-.013-.086-.028-.273-.057-.51-.066-.612 0-1.293.124-2.21.403-.2.063-.414.128-.635.195zm-27.31.878c-.033.08-.07.214-.063.41.006 0 .1-.016.145-.02-.003-.156-.03-.29-.083-.39z"/><path fill="#fff" d="M139.137 3c6.028 0 12.512 4.1 11.81 12.923-.586 7.356-6.392 11.864-11.393 12.827-.896.173-1.805.253-2.72.253-7.38 0-15.147-5.238-19.64-9.7-5.537-5.5-8.533-8.453-11.35-9.345-.742-.235-1.425-.34-2.047-.34-3.262 0-4.846 2.906-4.253 5.404.51 2.155 2.626 3.726 4.634 3.726.897 0 1.773-.314 2.473-1.03.203-.23.383-.484.544-.76.565-1.035.898-2.45.262-3.422-.087-.116-.182-.218-.287-.31-.16-.124-.327-.217-.507-.29-.172-.06-.34-.087-.5-.087-.935 0-1.626.95-1.486 2.236.022.143.056.28.1.412.045.108.097.21.157.303.277.38.608.503 1.03.525.166 0 .33-.02.496-.05.015-.004.03-.005.043-.005.275 0 .27.554-.03.61-.167.033-.337.05-.506.05-.43 0-.85-.117-1.182-.434-.355-.337-.567-.86-.607-1.43-.08-1.126.5-2.45 1.46-2.752.18-.056.365-.083.55-.083.708 0 1.414.397 1.782 1.1.48.91.373 2.138-.02 3.164-.763 2-2.23 2.81-3.784 2.81-3.783 0-8.088-4.787-4.08-8.836.98-.99 2.377-1.55 3.95-1.55.278 0 .56.02.847.054.823-.156 1.652-.232 2.48-.232.884 0 1.765.087 2.633.256.104.02.207.04.31.063 2.382.518 3.85 1.364 5.705 2.923 1.72 1.445 3.29 3.14 5.025 4.56 1.59 1.287 3.308 2.372 5.152 3.077 1.088.404 2.22.67 3.38.706h.1c.36 0 .714-.033 1.075-.138.308-.1.608-.24.896-.425.26-.177.507-.385.734-.63.183-.205.35-.43.492-.68.11-.2.203-.412.275-.636.047-.17.083-.34.105-.514-.44-.123-.865-.33-1.26-.625-.634-.474-1.27-1.124-1.695-1.93l-.16.042c-.235.077-.464.182-.685.322-.155.106-.3.228-.438.37-.09.108-.176.22-.25.347-.056.104-.103.212-.142.327-.027.1-.047.2-.06.304-.006.12-.004.234.008.35.024.15.06.29.11.43.083.212.19.405.31.588.07.095.144.177.23.25.135.104.28.183.435.245.197.07.4.11.61.12.15 0 .298-.016.448-.056.087-.03.17-.068.25-.117.055-.038.104-.08.15-.127.038-.044.07-.09.102-.14.028-.056.052-.114.074-.174.02-.08.035-.162.044-.244.005-.092.006-.182-.003-.272-.01-.056-.023-.11-.04-.163-.023-.05-.047-.097-.074-.142-.04-.05-.082-.097-.128-.138-.056-.04-.115-.075-.177-.102-.058-.018-.116-.03-.175-.035-.044.002-.087.007-.13.018-.023.01-.046.02-.067.032l-.036.03-.02.027c-.004.01-.01.022-.013.033-.004.018-.008.036-.01.055 0 .04 0 .077.003.115.015.09.038.172.066.255l.016.04c.096.24-.092.496-.257.496-.064 0-.125-.04-.164-.135-.17-.42-.28-1.073.148-1.402.155-.12.33-.174.505-.174.372 0 .74.245.912.624.287.64.11 1.62-.475 2.016-.315.214-.657.31-.995.31-.974 0-1.92-.807-2.113-1.982-.25-1.53.837-2.52 1.95-2.874-.15-.4-.245-.832-.265-1.293-1.305.26-2.616.42-3.92.42-.103 0-.207 0-.31-.002-5.674-.115-8.73-2.728-13.336-5.096-.98-.505-1.983-.95-3.006-1.34-2.668-.99-5.455-1.57-8.304-1.643-.15-.002-.3-.004-.45-.004-1.907 0-3.84.215-5.736.79-1.54.484-3.038 1.18-4.534 1.886l.136-.7c1.756-.83 3.517-1.623 5.344-2.058 1.59-.378 3.2-.552 4.804-.552 2.79 0 5.556.527 8.15 1.424 2.066.714 4.024 1.69 5.935 2.832 3.467 2.072 6.875 3.732 10.895 3.852l.318.003c1.248 0 2.5-.14 3.748-.373C128.738 6.268 133.756 3 139.138 3m-9.222 8.55c.855-3.765 4.297-5.614 7.937-5.614 3.262 0 6.684 1.483 8.55 4.4 3.526 5.514 1.504 14.422-10.02 14.422-.338 0-.683-.008-1.037-.023-4.306-.19-9.805-1.64-17.045-5.97 7.452 6.465 13.7 8.92 18.62 8.92 7.562 0 11.986-5.794 12.835-11.73.798-5.58-3.602-12.3-10.652-12.3-1.066 0-2.193.153-3.37.487-2.92.923-5.564 3.01-5.89 6.217-.022.316.022.773.072 1.19m.377.658c.998-.217 1.994-.49 2.983-.792.296-.092.59-.187.887-.267.7-.19 1.457-.36 2.188-.36.397 0 .785.05 1.152.176 3.243 1.103.343 6.472-3.276 6.472-.17 0-.338-.012-.51-.036-.19 1.437-1.218 2.594-2.286 3.13-.606.302-1.213.4-1.83.4-.166 0-.334-.007-.502-.02-1.06-.077-2.09-.335-3.085-.71-1.99-.75-3.835-1.94-5.532-3.36-1.733-1.448-3.308-3.157-5.055-4.587-2.437-1.97-4.688-2.817-7.842-2.91-.09-.003-.182-.004-.272-.004-.26 0-.523.01-.785.024.332.117.666.258 1 .424 9.49 4.718 12.847 13.297 27.392 14.006.38.018.75.027 1.107.027 10.444 0 11.634-7.692 8.288-12.68-1.676-2.5-4.77-4.138-7.69-4.138-2.224 0-4.346.95-5.663 3.196-.192.35-.354.713-.483 1.102-.086.3-.15.6-.185.908m.28 1.89c.127-.018.25-.027.37-.027.047 0 .092.003.136.005 1.182.073 2.575 1.14 2.666 2.72.158.028.316.045.478.05h.014c2.018 0 4.747-2.452 4.082-4.436-.04-.1-.088-.194-.144-.282-.075-.1-.16-.19-.25-.27-.15-.114-.31-.2-.482-.268-.325-.113-.664-.16-1.008-.172h-.06c-.88 0-1.77.202-2.64.466-.83.258-1.66.506-2.496.714-.32.08-.64.155-.96.225.004.102.013.203.024.306.043.278.11.542.2.8l.07.168m2.65 2.563c-.024-.128-.057-.252-.1-.372-.067-.173-.152-.33-.25-.48-.148-.206-.318-.382-.503-.538-.24-.19-.497-.354-.77-.465-.222-.077-.45-.118-.686-.127h-.028l.032.05c.335.477.713.904 1.137 1.26.342.272.707.493 1.098.65l.07.023m-2.704.628l-.02-.05c.006.017.012.034.02.05M139.136 0c-4.11 0-7.803 1.518-10.132 4.165-1.39 1.58-2.226 3.464-2.482 5.552-.254.013-.504.02-.75.02l-.26-.003c-3.21-.096-6.088-1.44-9.415-3.428-2.266-1.353-4.39-2.364-6.494-3.092-3.047-1.054-6.12-1.588-9.13-1.588-1.88 0-3.73.213-5.498.633-2.116.503-4.09 1.393-5.93 2.262-.864.408-1.482 1.203-1.665 2.14l-.135.702c-.216 1.11.21 2.247 1.104 2.94.536.418 1.185.632 1.84.632.436 0 .874-.095 1.282-.288 1.49-.705 2.833-1.322 4.152-1.738.714-.216 1.467-.378 2.266-.486-2.338 2.406-3.022 5.545-1.826 8.413 1.322 3.168 4.73 5.467 8.102 5.467 2.992 0 5.454-1.772 6.587-4.74.036-.093.07-.186.1-.28 1.25 1.19 2.65 2.582 4.228 4.148 5.147 5.11 13.563 10.57 21.753 10.57 1.123 0 2.23-.102 3.288-.306 6.35-1.223 13.134-6.952 13.817-15.535.46-5.763-1.708-9.424-3.607-11.48C147.583 1.706 143.503 0 139.137 0zm-3.26 20.233c3.115-.78 5.502-3.656 5.95-6.37.052-.31.08-.617.083-.916 1.148 1.795 1.395 3.863.625 5.308-.883 1.655-3.195 2.566-6.51 2.566-.167 0-.337 0-.51-.006.13-.188.25-.382.36-.58z"/></g><g><path fill-rule="evenodd" clip-rule="evenodd" fill="#576C76" d="M17.167 30.504c-1.03 0-2.04-.095-3.005-.282-5.79-1.115-11.98-6.343-12.605-14.18-.33-4.135.783-7.712 3.214-10.344C7.236 3.03 10.914 1.5 14.864 1.5c3.678 0 6.96 1.333 9.005 3.657 1.44 1.635 2.185 3.667 2.192 5.939.753.095 1.47.14 2.168.14h.288c3.548-.108 6.628-1.534 10.155-3.642 2.178-1.3 4.21-2.268 6.217-2.962 2.89-1 5.796-1.506 8.64-1.506 1.763 0 3.496.2 5.15.593 1.972.468 3.866 1.323 5.637 2.158.432.204.74.602.832 1.07l.137.702c.107.556-.106 1.124-.553 1.47-.268.21-.593.317-.92.317-.218 0-.437-.048-.642-.144-1.54-.73-2.93-1.37-4.342-1.813-1.594-.482-3.328-.72-5.284-.72l-.426.004c-1.53.04-3.075.237-4.62.592.227.03.452.062.675.1.268-.024.532-.037.792-.037 1.963 0 3.744.708 5.017 1.993 1.98 2 2.552 4.495 1.57 6.847-1.097 2.632-3.922 4.543-6.716 4.543-2.38 0-4.27-1.376-5.186-3.774-.362-.948-.5-1.902-.415-2.777-1.734 1.508-3.797 3.557-6.37 6.115-4.934 4.9-12.962 10.136-20.696 10.136zm.21-22.002c-2.46 0-5.05 1.395-6.443 3.472-1.53 2.28-1.84 5.022-.792 6.987 1.173 2.2 3.88 3.36 7.833 3.36.335 0 .68-.007 1.034-.024 1.115-.055 2.16-.158 3.146-.303-.086-.038-.172-.078-.257-.12-1.237-.62-2.23-1.717-2.75-2.973-2.812-.343-5.11-2.936-5.498-5.28-.317-1.91.59-3.47 2.362-4.074.498-.17 1.048-.255 1.636-.255.925 0 1.822.208 2.576.41.25.067.497.144.745.22-1.115-1.142-2.517-1.418-3.593-1.418zm9.592 6.306c.388.7.568 1.55.408 2.526-.054.333-.15.65-.278.95l.19-.07c1.536-.587 3.132-1.543 4.73-2.837.523-.427 1.03-.88 1.54-1.356-1.5.476-3.155.784-5.085.823l-.343.003c-.38 0-.768-.012-1.163-.038zm22.5-3.628c1.333.802 1.95 2.55 1.848 3.994-.05.728-.28 1.396-.66 1.934 1.026-.33 2.053-1.226 2.338-2.43.21-.89.004-1.867-.54-2.555-.52-.657-1.3-1.005-2.253-1.005-.234 0-.48.02-.733.062zm-1.626 3.625c.01-.193-.03-.334-.066-.415l-.012.008.006-.003c.004 0-.013.02-.03.043-.047.073-.068.192-.066.343.05.005.16.024.168.025z"/><path fill="#fff" d="M14.863 3c5.38 0 10.4 3.27 9.616 9.364 1.248.234 2.5.373 3.747.373.106 0 .212 0 .318-.003 4.02-.12 7.428-1.78 10.896-3.852 1.912-1.142 3.87-2.118 5.937-2.833 2.593-.898 5.36-1.424 8.15-1.424 1.603 0 3.214.174 4.803.552 1.827.435 3.588 1.228 5.344 2.057l.136.7c-1.496-.706-2.994-1.4-4.534-1.886-1.896-.575-3.828-.79-5.737-.79-.15 0-.3.002-.45.004-2.85.073-5.635.652-8.304 1.643-1.023.388-2.026.835-3.007 1.34-4.607 2.368-7.663 4.98-13.336 5.096l-.312.003c-1.303 0-2.614-.162-3.92-.42-.02.46-.113.892-.264 1.292 1.113.354 2.2 1.344 1.95 2.874-.192 1.175-1.138 1.983-2.113 1.983-.338 0-.68-.098-.995-.31-.584-.397-.762-1.377-.475-2.017.17-.38.54-.624.912-.624.174 0 .35.054.505.173.427.33.317.983.15 1.402-.04.095-.1.134-.165.134-.165 0-.353-.256-.256-.497l.017-.04c.028-.082.05-.165.066-.254.003-.038.004-.076.004-.115l-.01-.055-.015-.034c-.006-.01-.012-.02-.02-.027-.01-.012-.023-.022-.035-.032l-.067-.03c-.043-.01-.086-.015-.13-.017-.06.005-.117.017-.175.035-.062.027-.12.06-.177.102-.046.04-.088.087-.127.138-.026.045-.05.092-.072.142-.018.053-.03.108-.04.164-.01.09-.01.18-.004.272.01.082.024.162.044.243.022.06.046.116.074.173.03.05.064.096.1.14.048.047.097.09.15.127.082.05.165.087.252.117.15.04.3.057.448.057.21-.01.413-.05.61-.12.153-.063.3-.142.436-.246.085-.073.16-.155.228-.25.12-.183.228-.376.312-.59.048-.137.085-.278.11-.428.01-.116.013-.23.006-.35-.012-.103-.032-.203-.06-.303-.038-.115-.085-.223-.14-.328-.075-.127-.16-.24-.25-.347-.138-.143-.284-.265-.44-.37-.22-.14-.45-.246-.685-.323-.055-.015-.108-.03-.16-.04-.424.803-1.06 1.454-1.696 1.928-.394.294-.82.502-1.26.625.023.174.058.345.107.514.073.224.166.435.275.636.144.25.31.475.493.68.227.244.473.453.734.63.288.184.587.325.896.425.36.104.716.138 1.076.138h.098c1.16-.037 2.292-.302 3.38-.706 1.845-.705 3.562-1.79 5.152-3.077 1.737-1.42 3.304-3.115 5.025-4.56 1.855-1.56 3.322-2.405 5.705-2.924.102-.023.205-.045.308-.065.868-.168 1.75-.256 2.635-.256.826 0 1.655.075 2.48.232.285-.035.567-.053.844-.053 1.575 0 2.97.56 3.95 1.548 4.01 4.05-.295 8.835-4.078 8.835-1.555 0-3.02-.81-3.785-2.81-.393-1.025-.5-2.253-.02-3.164.368-.704 1.074-1.1 1.78-1.1.186 0 .372.028.552.084.96.3 1.54 1.626 1.46 2.753-.04.57-.252 1.092-.607 1.43-.334.316-.753.434-1.182.434-.17 0-.34-.018-.507-.05-.3-.056-.304-.61-.03-.61.014 0 .03 0 .043.004.165.032.33.05.496.05.42-.02.753-.145 1.03-.523.06-.093.112-.194.155-.302.047-.132.08-.27.102-.412.14-1.287-.55-2.237-1.485-2.237-.16 0-.328.027-.5.087-.18.072-.348.165-.506.288-.105.093-.2.195-.287.31-.636.973-.302 2.388.263 3.423.16.276.34.53.542.76.7.716 1.576 1.03 2.473 1.03 2.01 0 4.125-1.57 4.636-3.726.592-2.498-.99-5.404-4.253-5.404-.623 0-1.306.105-2.047.34-2.817.892-5.813 3.844-11.352 9.346-4.492 4.46-12.26 9.7-19.638 9.7-.915 0-1.824-.08-2.72-.254-5-.963-10.808-5.47-11.393-12.827C2.35 7.1 8.833 3 14.863 3m2.216 24.685c4.92 0 11.167-2.454 18.62-8.92-7.24 4.33-12.74 5.78-17.046 5.97-.353.015-.7.023-1.036.023-11.526 0-13.546-8.908-10.02-14.42 1.866-2.918 5.288-4.402 8.55-4.402 3.64 0 7.082 1.848 7.936 5.615.05-.417.095-.874.07-1.19-.323-3.21-2.966-5.295-5.886-6.218-1.178-.334-2.305-.488-3.37-.488-7.052 0-11.45 6.72-10.653 12.3.848 5.936 5.274 11.73 12.834 11.73m.895-3.863c.36 0 .727-.008 1.107-.026 14.545-.71 17.9-9.288 27.393-14.006.333-.166.667-.307 1-.424-.263-.015-.525-.023-.786-.023-.092 0-.183.002-.273.004-3.154.094-5.405.94-7.843 2.91-1.747 1.43-3.32 3.14-5.056 4.59-1.697 1.417-3.542 2.61-5.532 3.358-.995.375-2.025.633-3.085.71-.167.013-.334.02-.5.02-.617 0-1.224-.098-1.83-.4-1.07-.536-2.095-1.693-2.287-3.13-.17.024-.34.036-.51.036-3.62 0-6.52-5.37-3.276-6.472.368-.125.756-.175 1.152-.175.73 0 1.488.17 2.188.36.297.08.59.174.887.266.99.303 1.985.575 2.983.792-.036-.31-.1-.61-.186-.908-.128-.39-.29-.752-.482-1.103-1.316-2.244-3.44-3.195-5.663-3.195-2.92 0-6.013 1.638-7.69 4.137-3.345 4.988-2.153 12.68 8.288 12.68m1.79-6.974h.013c.16-.006.32-.023.478-.05.09-1.58 1.484-2.648 2.665-2.72.046-.003.09-.004.137-.004.12 0 .243.008.37.026.025-.055.048-.112.07-.17.09-.256.157-.52.2-.8.012-.102.02-.203.025-.305-.32-.07-.64-.145-.96-.224-.836-.21-1.666-.458-2.495-.716-.872-.264-1.76-.467-2.64-.467h-.06c-.345.014-.685.06-1.01.173-.17.068-.33.154-.48.27-.092.078-.176.167-.25.268-.057.088-.105.18-.145.28-.665 1.985 2.063 4.438 4.082 4.438m1.013-.185l.07-.023c.39-.156.756-.377 1.098-.648.424-.358.8-.785 1.137-1.263l.032-.05h-.028c-.235.01-.464.05-.686.128-.274.11-.53.275-.77.465-.185.156-.354.332-.503.54-.098.147-.182.305-.25.478-.043.12-.075.244-.1.373m2.704.628l.02-.05-.02.05M14.864 0h-.002C10.496 0 6.417 1.706 3.67 4.68 1.77 6.735-.398 10.396.06 16.16c.683 8.584 7.468 14.313 13.816 15.536 1.06.204 2.165.307 3.288.307 8.19 0 16.607-5.46 21.752-10.57 1.578-1.567 2.98-2.96 4.227-4.147.032.093.066.186.102.28 1.132 2.966 3.595 4.738 6.587 4.738 3.373 0 6.78-2.3 8.1-5.466 1.197-2.868.515-6.007-1.824-8.413.804.11 1.566.274 2.297.495 1.288.406 2.63 1.023 4.12 1.728.41.193.847.288 1.282.288.654 0 1.304-.214 1.84-.63.894-.695 1.32-1.832 1.105-2.942l-.137-.7c-.182-.94-.8-1.734-1.664-2.142-1.84-.87-3.815-1.76-5.93-2.262-1.767-.42-3.617-.634-5.498-.634-3.01 0-6.083.534-9.13 1.588-2.104.728-4.228 1.74-6.493 3.092-3.328 1.99-6.208 3.332-9.448 3.43h-.228c-.247 0-.496-.006-.75-.02-.256-2.086-1.093-3.97-2.482-5.55C22.665 1.52 18.973 0 14.863 0zm3.112 20.82c-3.315 0-5.627-.91-6.51-2.566-.77-1.445-.523-3.512.624-5.307.003.3.03.606.082.917.448 2.713 2.836 5.59 5.952 6.37.11.198.23.392.36.58-.172.005-.342.007-.51.007z"/></g><g><path fill="#F37522" d="M74.368 24.055c-.108 0-.242-.02-.344-.055-.506-.164-.822-.692-.727-1.224l1.24-6.64-6.707.812c-.04.004-.084.007-.124.007-.504 0-.94-.338-1.062-.823-.133-.53.152-1.08.662-1.28l6.439-2.507-3.854-5.41c-.315-.444-.252-1.06.15-1.43.184-.17.486-.29.737-.29.254 0 .5.09.696.253l5.14 4.197 2.914-6.25c.164-.352.596-.628.984-.628.112 0 .222.017.328.05.534.167.852.705.742 1.252l-1.24 6.61 6.703-.805c.04-.006.097-.01.137-.01.496 0 .927.34 1.048.825.133.53-.15 1.078-.656 1.277l-6.446 2.506 3.863 5.405c.31.43.257 1.04-.13 1.415-.187.18-.496.304-.756.304-.24 0-.477-.08-.666-.227l-5.17-4.214-2.914 6.25c-.165.353-.598.63-.986.63z"/><path fill="#fff" d="M80.51 3.787c.01 0 .02 0 .03.004.042.015.068.058.06.1l-1.493 7.965 8.055-.968.018-.002c.042 0 .07.03.078.068.01.043-.012.087-.053.103l-7.64 2.97 4.61 6.453c.026.034.02.084-.01.114-.018.016-.04.023-.06.023-.02 0-.04-.006-.057-.02l-6.143-5.006-3.458 7.415c-.014.03-.046.05-.08.05-.008 0-.018 0-.026-.003-.04-.014-.067-.057-.06-.1l1.49-7.973-8.06.975h-.004c-.048 0-.08-.024-.092-.066-.01-.044.012-.09.054-.105l7.636-2.975-4.598-6.455c-.026-.035-.02-.085.012-.115.016-.016.038-.024.06-.024.02 0 .04.007.055.02l6.142 5.017 3.458-7.415c.015-.032.044-.05.078-.05m-2.23 7l-.926 1.958c-.01.024-.033.042-.06.048l-.02.002c-.02 0-.04-.007-.055-.02l-1.634-1.336 1.23 1.71c.015.02.02.048.012.074-.007.027-.027.048-.05.057l-2.024.808 2.125-.27.01-.002c.024 0 .047.01.064.027.02.02.028.05.023.077l-.38 2.1.92-1.936c.012-.024.034-.042.06-.048h.018c.02 0 .04.004.057.017l1.59 1.293-1.19-1.657c-.016-.023-.02-.05-.013-.077.006-.026.026-.047.05-.057l2.028-.802-2.14.256c-.026 0-.054-.007-.073-.027-.02-.02-.028-.05-.023-.077l.398-2.117m2.23-9.003c-.803 0-1.52.45-1.875 1.174L76.25 8.08l-4.152-3.39c-.36-.3-.835-.472-1.32-.472-.546 0-1.06.21-1.453.59-.734.677-.856 1.857-.248 2.71l3.108 4.363-5.243 2.042c-.977.38-1.523 1.434-1.268 2.452.233.93 1.068 1.58 2.032 1.58h.06c.063-.002.124-.006.185-.014l5.353-.648-.988 5.292c-.184 1.037.422 2.05 1.407 2.37.2.064.435.1.646.1.806 0 1.548-.47 1.89-1.2l2.374-5.09 4.153 3.384.04.034c.365.28.82.435 1.28.435.498 0 .982-.18 1.36-.504.032-.027.062-.054.09-.082.74-.716.845-1.887.242-2.722l-3.11-4.35 5.243-2.038c.98-.384 1.522-1.438 1.268-2.452-.232-.932-1.062-1.583-2.018-1.583-.08 0-.17.006-.256.016l-5.35.644.99-5.285c.208-1.022-.403-2.056-1.424-2.377-.194-.06-.426-.096-.63-.096z"/></g></svg><svg width="210" height="146" viewBox="0 0 210 146" id="top-right-leaf"><path fill="#5B6A74" d="M181.1 48l-1.5 90.6.7-87.2z"/><path fill="#5B6A74" d="M11.5 22.1l134.7-1.4-5.3.7z"/><g fill="#613C1C"><path d="M161.9.7c-.3.1-.3 3.3-3.1 5.1-1.7 1.6-3.7 2.7-5.1 4.6-1.9 2.7-2.3 6.1-2 9.3.1.8.9 7.7.9 7.7-.5-.1-.3-12.7.1-14.1 1.7-5 7.7-6.3 9.3-11 .6 4.3-.8 9.3-3.7 12.5-.7.8-7.7 10.8-5.1 11.3-2-.3 6.7-12.5 7.2-13.4.6-1 3.1-12.6 1.5-12M155.1 26c-.4.2-3.4 1.7-3.1 2.2-.3-.4 6.9-3 7.7-3.1 4.1-.8 8.2-.1 11.7 2.1 6.9 4.3 10.3 12.3 17.4 16.6-4.7.4-9.7 1.3-14-1.1-3.9-2.1-5.8-6.1-8.5-9.5-2-2.6-4.5-4.4-7.8-5-1.6-.3-3.3-.4-4.9-.1-.3.1-4 1.6-3 2.3-.1-.1 2.8-1.8 3.2-1.8 1.5-.3 3.1-.2 4.7.1 3.8.7 6.3 3 8.5 6.1 2.5 3.5 4.8 7.3 9.1 9 1.4.6 13.4 2.2 13.8.3.1-.3-6.2-4.7-6.8-5.3-3-2.9-5.2-6.6-8.3-9.5-5.6-5.4-12.7-6-19.7-3.3M163.3 16.7c-.7.3-6.8 3.8-6.1 4.3-.2-.2 8-4.5 8.8-4.7 4.8-1.5 9.4-2.4 14.5-1.7 9 1.3 18.5 6.7 27.8 5.2-4.3 5-11.9 7.7-18.2 8.6-4.2.5-7.9.3-12-.6-.8-.2-9-2.2-9-2.2-.2.7 7.4 2.3 8.2 2.5 4.4.9 8.3 1.3 12.8.7 3.9-.6 7.3-1.9 10.9-3.4 1-.4 8.9-4.7 8-6.1-.1-.2-5.7.7-11.1-.8-3.1-.8-6.2-1.7-9.2-2.5-8.9-2.4-16.7-2.6-25.4.7M153.4 27.8c-.6.2-1.2.5-1.7 1l.3.3c4.8-4.8 14-.7 17.9 3 5 4.7 11.3 12.8 19.1 12.1v-.5c-6.2.6-12.6-5.5-16.5-9.6-5-5.4-11.5-9.2-19.1-6.3M163.9 18.5c-4.3 1.7-8.7 4.9-11.3 8.8.1.1.3.2.4.3 5.7-8.8 16.5-11.2 26.3-9.8 9.4 1.3 20.4 6.6 29.6 1.9-.1-.1-.1-.3-.2-.4-5.4 2.7-13.1 1.8-18.7.4-8.3-2.3-17.7-4.4-26.1-1.2M160.7 21.6c-.9.3-9 4.6-8.1 5.7-.7-.9 9.7-5.8 10.7-6.2 5-1.6 10.4-.3 15.4.6 4.8.8 9.8 1.9 14.7 2.3 3.2.3 6.5-.1 9.5-1.3.6-.2 6.5-2.6 6-3.2.1.1-8.9 3.6-9.8 3.8-4.6.8-9.2-.2-13.8-1-8.1-1.4-16.7-3.8-24.6-.7M162 1.6c-.3.1-.4 2.2-.4 2.4-.7 2.4-2.2 4.3-3.7 6.2-1.6 2-3 4.3-4 6.7-.3.7-2 9.2-.5 8.8-.3.1.2-6.4.4-7.1.9-3 2.5-5.7 4.4-8.2 1.6-2 3.1-3.9 3.8-6.4 0 0 .7-2.7 0-2.4M154.9 26.9s-3.3 1.2-2.9 1.7c.1.1 5.7-2.1 6.2-2.2 4.5-.9 9.2.3 12.9 3 3.1 2.3 4.9 5.5 7.4 8.2.7.7 10.3 7.8 10.6 6.1-.1.3-7.1-3.5-7.7-4-2.7-2.1-4.4-4.9-6.6-7.4-5-5.7-12.6-8.2-19.9-5.4M158.5 23.7c-.3.1-5.7 2.5-5.2 3.2-.1-.1 7.5-3.4 8.1-3.6 5.9-1.3 12.5.8 18.3 1.9 5 1 9.8 1.3 14.9.7 1-.1 14-3.4 12.7-4.9.3.3-7.7 3.5-8.5 3.7-4 .9-8.2 1.2-12.4 1-9.1-.5-18.8-5.5-27.9-2M154.1 28c-.5.2 2.9 0 3.2 0 4.2-.1 7.7 1.7 10.5 4.7 2.6 2.8 4.8 6 7.8 8.3.9.7 10.6 5 10.6 3.3 0 .5-8.3-2.3-9.2-2.9-3.1-2-5.4-4.9-7.8-7.7-3.6-4.3-9.1-7.7-15.1-5.7"/></g></svg></svg>