<?xml version="1.0" encoding="utf-8"?><!DOCTYPE svg PUBLIC "-//W3C//DTD SVG 1.1//EN" "http://www.w3.org/Graphics/SVG/1.1/DTD/svg11.dtd"><svg width="210" height="186" viewBox="0 0 210 186" xmlns="http://www.w3.org/2000/svg" xmlns:xlink="http://www.w3.org/1999/xlink"><svg viewBox="29 5 82 14" enable-background="new 29 5 82 14" width="82" height="14" id="scroll" y="172"><path fill="none" d="M104.3 6.6c-.2-.1-.3-.2-.5-.2-.2-.1-.4-.1-.6-.2.1.3.2.5.3.8.3-.1.5-.3.8-.4zM0 8.8c0 .1 0 .1 0 0v-.1.1z"/><path fill="#ABC5C8" stroke="#ABC5C8" stroke-width=".25" stroke-miterlimit="10" d="M109.1 8.8c-.2.1-.4.1-.5.2-.4-.3-.9-.5-1.4-.6-2.2-3.1-7-3.7-10-2.9-3.1.9-4.3 3.3-1.7 5.4 1.2 1 3.1 1.2 4.6 1-.7.5-.7 1.5-.3 2.2-.1 0-.2 0-.4.1-2.7.3-5.6-1.8-8.1-2.9-5.4-2.3-12.2-4-18-1.6-1.4.6-2.7 1.6-3 3.1-.2.2-.4.5-.4.8 0 .5.4.8.8.9.2.1.4-.3.1-.4h-.1c-.1 0-.1-.1-.2-.1l-.1-.1c-.2-.3-.1-.5.1-.7.1 0 .1 0 .1-.1 0 0 .1-.1.2-.1h.6c.4.1.8.4 1 .8 0 .1 0 .1.1.2v.2c0 .1 0 .1-.1.2 0 .1-.1.1-.1.2l-.3.3c-.1.1-.3.2-.4.2-.2.1-.4.1-.6.2h-1.1c-.7-.1-1.4-.3-2.1-.5 1.7-2.2.1-5.1-2.9-6.1-1.3-.4-3.3-.5-4.6 0-.5-.3-1.1-.6-1.6-.9C47.6.5 39.5 12.5 32 12.5c-.3 0-.7-.1-1-.3-.2-.1-.4-.2-.5-.3-.1-.1-.3-.3-.5-.6.4.1.8 0 1.1-.2.5-.3.9-.8.8-1.4-.2-.9-1.2-1.3-2-1.4H29v.4c.3 0 .7-.1 1 0 .2 0 .4.1.6.2.2.1.4.2.5.3l.3.3c.1.1.1.1.1.2s0 .1.1.2v.2c0 .1 0 .1-.1.2-.2.4-.6.7-1 .8h-.3c-.1 0-.2 0-.2-.1-.3-.2-.7-.5-.4-.9l.1-.1c.1 0 .1-.1.2-.1h.1c.2-.1.1-.5-.1-.4-.4.1-.8.4-.8.9v.1c0 .2.1.4.3.6.3 1.5 1.6 2.6 3 3.2 5.8 2.3 12.6.6 18-1.6 2.5-1 5.4-3.2 8.1-2.9.1 0 .2 0 .4.1-.4.7-.3 1.7.3 2.2-1.5-.2-3.5 0-4.6 1-2.6 2.1-1.4 4.6 1.7 5.4 2.9.8 7.8.3 10-2.9.5-.1 1-.3 1.4-.6.2.1.4.1.5.2.9.3 1.8.5 2.7.5.8-.1 1.8-.5 2-1.4.1-.6-.3-1.1-.8-1.4-.3-.2-.7-.3-1-.2.2-.3.4-.5.5-.6.2-.1.3-.2.5-.3.3-.1.7-.2 1-.3 7.4.1 15.5 12 26.8 4.9.6-.3 1.1-.6 1.6-.9 1.3.5 3.4.4 4.6 0 3-1 4.6-3.9 2.9-6.1l2.1-.6v-.4c-.7 0-1.4.2-2 .4zm-77.7 4.3c-.2-.1-.5-.2-.7-.4l-.2-.2c.7.4 1.6.5 2.4.5 7.6 0 15.9-11.2 27-4.2-.1 0-.1.1-.2.1-11.7-2.5-19.9 5.3-27.1 4.5l-1.2-.3zm1.5.7c3.5.3 9.3-2.1 12.8-3.1 2.3-.7 4.6-1.3 6.9-1.6 2.2-.3 4.5-.3 6.7.1l-.2.2c-8.2-1.6-14.9 8.2-26.2 4.4zm26.2-3.7c.1-.1.1-.3.2-.4l.3-.3.1-.1c.4.1.9.2 1.3.3l.4.4c.8 1-.3 1.7-1.3 1.8h-.3c-.1 0-.2 0-.3-.1-.1 0-.1-.1-.2-.1-.4-.3-.4-.9-.2-1.5zm7.1 4.6c-1.3 2.9-5.7 3.7-8.6 3.3-3.6-.5-4-3.2-2.3-4.7 1.1-1 3.1-1.4 5.3-.5.3.1.6.3.8.5l.1.1c-.2 0-.4.1-.6.1-1.2.3-2.5 1.8-1.3 2.7.9.7 2.6 0 3-1 .2-.5 0-1-.2-1.5.5 0 1.1 0 1.6.1.6.1 1.2.2 1.7.4.2.1.4.2.6.2-.1.2-.1.2-.1.3zm-4.6-.9h.3c.1.1.2.3.2.4.1.1.1.3.1.5v.3c0 .1 0 .2-.1.2 0 .1-.1.2-.1.2l-.3.3c-.4.3-.9.5-1.5.4-.1 0-.2 0-.3-.1-.1 0-.1-.1-.2-.1-.9-.9 1-2 1.9-2.1zm4.8.3c-.4-.2-.7-.3-1.1-.4-.7-.2-1.3-.3-2-.3h-1.1c-.2-.3-.5-.5-.8-.6-.3-.2-.6-.3-1-.4.4-.1.7-.2 1-.4.9-.5 1.1-1.2.5-2 1.8.6 4.2 1.3 4.5 3.5v.6c0-.1 0-.1 0 0zm.4.8c-.1 0-.2.1-.3.1.1-.1.1-.3.2-.4.2.1.3.1.5.2-.2.1-.3.1-.4.1zm.7-.4c-.1 0-.2-.1-.2-.1-.2-.1-.3-.1-.5-.2.5-2.8-2.4-3.9-4.5-4.7-.3-.1-.6-.2-1-.3-.2-.1-.3-.2-.5-.3.1 0 .3 0 .4-.1 4.2-1.2 8.8 2.4 6.4 5.5 0 .1-.1.2-.1.2zm40.4-5.4c.1 0 .2.1.3.1-.2.1-.3.1-.5.2 0-.2-.1-.3-.2-.5.1.1.2.1.4.2zm-.5.9v.7c-.3 2.2-2.7 2.9-4.5 3.5.6-.8.4-1.6-.5-2-.3-.2-.6-.3-1-.4.3-.1.7-.2 1-.4.3-.2.6-.4.8-.6h1.1c.7 0 1.4-.1 2-.3.4-.3.7-.4 1.1-.5zm-4.7.2c-.9-.1-2.9-1.2-1.7-2.1.1 0 .1-.1.2-.1s.2-.1.3-.1c.5-.1 1 .1 1.5.4l.3.3c.1.1.1.2.1.2 0 .1.1.2.1.2v.3c0 .2-.1.3-.1.5-.1.1-.1.3-.2.4h-.5zm-6.4.5C94.7 9.2 95 6.5 98.6 6c2.9-.4 7.3.4 8.6 3.3 0 .1.1.2.1.3-.2.1-.4.2-.6.2-.6.2-1.1.3-1.7.4-.5.1-1.1.1-1.6.1.2-.4.4-1 .2-1.5-.4-1-2.1-1.7-3-1-1.1.9.1 2.4 1.3 2.7.2 0 .4.1.6.1l-.1.1c-.3.2-.5.3-.8.5-2.1.9-4.2.4-5.3-.5zm3.8 3.9c.1.1.1.2.2.2-2.2.4-4.5.4-6.7.1-2.4-.3-4.7-.9-6.9-1.6-3.5-1-9.3-3.4-12.8-3.1 11.3-3.8 18 6 26.2 4.4zM74 11c-.8 0-1.7.1-2.4.5l.2-.2c.2-.2.4-.3.7-.4.4-.2.8-.2 1.2-.3 7.2-.8 15.4 7 27.1 4.5.1 0 .1.1.2.1-11.1 7-19.4-4.2-27-4.2zm26.8 3.7l-.1-.1-.3-.3c-.1-.1-.2-.3-.2-.4-.2-.5-.2-1.1.3-1.5.1 0 .1-.1.2-.1s.2-.1.3-.1h.3c1 .2 2 .8 1.3 1.8-.1.2-.3.3-.4.4-.5.1-.9.2-1.4.3zm1.4.5c-.1 0-.3 0-.4-.1.2-.1.3-.2.4-.3.3-.1.6-.2 1-.3 2.1-.8 5-1.8 4.5-4.7.2-.1.3-.1.5-.2.1 0 .2-.1.2-.1l.2.2c2.4 3-2.1 6.7-6.4 5.5z"/></svg><svg viewBox="15 15 20 20" enable-background="new 15 15 20 20" width="20" height="20" id="star-corner-orange" x="156" y="146"><radialGradient id="ba" cx="25.021" cy="26.979" r="9.938" gradientTransform="matrix(1 0 0 -1 0 52)" gradientUnits="userSpaceOnUse"><stop offset=".515" stop-color="#fff"/><stop offset="1" stop-color="#fff" stop-opacity="0"/></radialGradient><circle fill="url(#ba)" cx="25" cy="25" r="9.9"/><path fill="#E88640" d="M15.6 27.3l7.3-2.8-4.4-6.2 5.9 4.8 3.3-7.1-1.4 7.6 7.7-.9-7.3 2.8 4.4 6.2-5.9-4.8-3.3 7.1 1.4-7.6-7.7.9zm8.2.8l1.1-2.4 2 1.6-1.5-2.1 2.5-1-2.6.3.5-2.6-1.1 2.4-2-1.7 1.5 2.1-2.5 1 2.6-.3-.5 2.7zM22 34h-.2l1.4-7.5-7.6.9v-.2l7.2-2.8-4.3-6.1.1-.1 5.8 4.7 3.2-7 .2.1-1.4 7.5 7.6-.9v.2l-7.2 2.8 4.3 6.1-.1.1-5.8-4.7L22 34zm1.4-7.7l-1.3 7 3-6.5.1.1 5.3 4.4-4.1-5.7 6.7-2.6-7.1.9 1.3-7-3 6.5-5.3-4.6 4.1 5.7-6.7 2.6 7-.8zm.5 1.8l-.2-.1.4-2.5-2.5.3v-.2l2.4-1-1.5-2 .1-.1 1.9 1.6 1.1-2.3.2.1-.5 2.5 2.5-.3v.2l-2.4.9 1.4 2-.1.1-1.7-1.5-1.1 2.3zm.5-2.7l-.4 2 .9-1.9 1.5 1.3-1.2-1.6 2-.8-2.1.2.4-2.1-.9 1.9-1.6-1.3 1.2 1.7-2 .8 2.2-.2z"/></svg><svg viewBox="15 15 20 20" enable-background="new 15 15 20 20" width="20" height="20" id="star-corner-red" x="176" y="146"><radialGradient id="ca" cx="25" cy="27" r="9.995" gradientTransform="matrix(1 0 0 -1 0 52)" gradientUnits="userSpaceOnUse"><stop offset=".515" stop-color="#fff"/><stop offset="1" stop-color="#fff" stop-opacity="0"/></radialGradient><circle fill="url(#ca)" cx="25" cy="25" r="10"/><path fill="#B85D57" d="M26.3 26.4l1.4 7.7-3.3-7.1-5.9 4.8 4.4-6.2-7.3-2.8 7.7.9-1.4-7.7 3.3 7.1 5.9-4.8-4.4 6.2 7.3 2.9-7.7-1zm-1-.9l2.7.3-2.5-1 1.5-2.1-2 1.7-1.2-2.4.5 2.6-2.7-.3 2.5 1-1.5 2.1 2-1.6 1.1 2.4-.4-2.7zM24.3 27.1l-5.8 4.7-.1-.1 4.4-6.1-7.2-2.8v-.2l7.6.9-1.4-7.5.2-.1 3.3 7 5.8-4.7.1.1-4.3 6.1 7.2 2.8v.2l-7.6-.9 1.4 7.5-.2.1-3.4-7zm9 0l-6.8-2.6 4.1-5.7-5.5 4.5-3.1-6.6 1.3 7.1-7.1-.9 6.8 2.6-4.1 5.7 5.4-4.4.1-.1 3.1 6.6-1.3-7.1 7.1.9zm-8.7-1.3l-1.9 1.5-.1-.1 1.4-2-2.4-1V24l2.5.3-.5-2.5.2-.1 1.1 2.3 1.9-1.6.1.1-1.5 2 2.4 1v.2l-2.5-.3.4 2.5-.2.1-.9-2.2zm2.7-.2l-2-.8 1.2-1.7-1.6 1.3-.9-1.8.4 2.1-2.1-.3 2 .8-1.2 1.6 1.6-1.3.9 1.9-.4-2.1 2.1.3z"/></svg><svg width="156" height="26" viewBox="0 0 156 26" id="top-flourish" y="146"><path fill-rule="evenodd" clip-rule="evenodd" fill="#fff" d="M0 0h156v24.9H0z"/><g><path fill-rule="evenodd" clip-rule="evenodd" fill="#586C76" d="M130.3 14.2zm-.9-4.8c-1.3.2-2.7.4-4 .4-3.9-.1-7.3-1.7-10.7-3.8-1.9-1.1-3.8-2.1-5.8-2.8-4-1.4-8.4-1.9-12.7-.9-1.8.4-3.5 1.2-5.2 2l-.1.7c1.5-.7 2.9-1.4 4.4-1.8 2-.6 4-.8 6-.8 2.8.1 5.5.6 8.1 1.6 1 .4 2 .8 2.9 1.3 4.5 2.3 7.5 4.9 13 5 1.4 0 2.8-.1 4.1-.4 0 .5.1.9.3 1.3-1.1.3-2.2 1.3-1.9 2.8.3 1.5 1.8 2.4 3 1.6.6-.4.7-1.3.5-2-.2-.5-.9-.8-1.4-.4-.4.3-.3 1-.1 1.4.1.3.5 0 .4-.4 0-.1 0-.2-.1-.2v-.2h.4c.1 0 .1.1.2.1l.1.1.1.1v.7c0 .1 0 .1-.1.2l-.1.1-.1.1c-.1 0-.2.1-.2.1-.1 0-.3.1-.4.1-.2 0-.4-.1-.6-.1-.2-.1-.3-.1-.4-.2l-.2-.2-.3-.6c0-.1-.1-.3-.1-.4v-.3c0-.1 0-.2.1-.3 0-.1.1-.2.1-.3.1-.1.2-.2.2-.3l.4-.4c.2-.1.4-.2.7-.3h.2c.4.8 1 1.4 1.7 1.9.4.3.8.5 1.2.6 0 .2-.1.3-.1.5l-.3.6c-.1.2-.3.5-.5.7-.2.2-.5.4-.7.6-.3.2-.6.3-.9.4-.4.1-.8.1-1.1.1-1.1 0-2.2-.3-3.3-.7-1.8-.7-3.5-1.8-5-3-1.7-1.4-3.2-3-4.9-4.5-1.8-1.5-3.2-2.4-5.6-2.9-.1 0-.2 0-.3-.1-1.6-.3-3.3-.3-5 0-1.9-.2-3.6.3-4.7 1.5-5.5 5.6 5.1 12.6 7.7 5.9.4-1 .5-2.2 0-3.1-.5-.9-1.4-1.3-2.3-1-.9.3-1.5 1.6-1.4 2.7 0 .6.2 1.1.6 1.4.5.4 1.1.5 1.7.4.3-.1.3-.7 0-.6h-.5c-.4 0-.7-.1-1-.5-.1-.1-.1-.2-.2-.3 0-.1-.1-.3-.1-.4-.2-1.5.8-2.5 1.9-2.1.2.1.3.2.5.3l.3.3c.6 1 .3 2.3-.3 3.3-.2.3-.3.5-.5.7-2.2 2.3-6.2.4-7-2.6-.7-2.9 1.6-6.4 6.2-5 2.8.9 5.7 3.8 11.1 9.1 4.9 4.9 13.9 10.8 21.9 9.2 4.9-.9 10.6-5.3 11.1-12.5 1.3-16.3-22.6-16.1-20.9-3.5zm4.1 5c-.2 1.4-1.2 2.5-2.2 3.1-.8.4-1.5.4-2.3.4-1-.1-2-.3-3-.7-1.9-.7-3.8-1.9-5.4-3.3-1.7-1.4-3.2-3.1-4.9-4.5-2.4-1.9-4.6-2.8-7.7-2.8h-1c.3.1.7.3 1 .4 9.3 4.6 12.6 13 26.8 13.7 11.2.5 12.6-7.3 9.2-12.4-2.9-4.3-10.1-6-13.1-.9-.2.3-.3.7-.5 1.1-.1.3-.1.6-.2.9 1-.2 1.9-.5 2.9-.8l.9-.3c1.1-.3 2.2-.5 3.3-.2 3.2 1.1-.1 6.8-3.8 6.3zm0-.6c-.1-1.5-1.5-2.6-2.6-2.7h-.5c0-.1 0-.1-.1-.2-.1-.3-.2-.5-.2-.8v-.3c.3-.1.6-.1.9-.2.8-.2 1.6-.4 2.4-.7.9-.3 1.8-.5 2.6-.5.3 0 .7.1 1 .2.2.1.3.2.5.3.1.1.2.2.2.3.1.1.1.2.1.3.7 1.9-2 4.3-4 4.3h-.3zm-2.8-2.1c.3 0 .5 0 .7.1.3.1.5.3.8.5l.5.5c.1.1.2.3.2.5 0 .1.1.2.1.4h-.1c-.4-.2-.7-.4-1.1-.6-.4-.5-.7-.9-1.1-1.4zm-1-3.1c1.6-7 12.3-7.2 16.1-1.2 3.5 5.5 1.4 14.6-10.8 14.1-4.2-.2-9.6-1.6-16.7-5.8 18.5 16 29.4 6.8 30.8-2.7.9-6.3-4.9-14-13.7-11.5-2.9.9-5.4 2.9-5.8 6.1 0 .2.1.6.1 1z"/><path fill-rule="evenodd" clip-rule="evenodd" fill="#586C76" d="M25.7 14.2zm.9-4.8c1.6-12.6-22.3-12.8-21 3.5.6 7.2 6.3 11.6 11.1 12.5 7.9 1.5 16.9-4.3 21.9-9.2C44.1 10.8 47 8 49.8 7.1c4.5-1.4 6.9 2 6.2 5-.7 3-4.7 4.9-7 2.6-.2-.2-.4-.5-.5-.7-.6-1-.9-2.4-.3-3.3l.3-.3c.2-.1.3-.2.5-.3 1.1-.4 2.1.6 1.9 2.1 0 .1-.1.3-.1.4 0 .1-.1.2-.2.3-.3.4-.6.5-1 .5h-.5c-.3-.1-.3.5 0 .6.6.1 1.2.1 1.7-.4.3-.3.6-.8.6-1.4.1-1.1-.5-2.4-1.4-2.7-.8-.3-1.8.1-2.3 1-.5.9-.4 2.1 0 3.1 2.6 6.7 13.2-.3 7.7-5.9-1.1-1.1-2.8-1.7-4.7-1.5-1.7-.3-3.4-.3-5 0-.1 0-.2 0-.3.1-2.3.5-3.8 1.3-5.6 2.9-1.7 1.4-3.2 3.1-4.9 4.5-1.6 1.3-3.2 2.3-5 3-1.1.4-2.2.7-3.3.7-.4 0-.8 0-1.1-.1-.3-.1-.6-.2-.9-.4-.3-.2-.5-.4-.7-.6-.2-.2-.3-.4-.5-.7l-.3-.6c0-.2-.1-.3-.1-.5.4-.1.8-.3 1.2-.6.6-.5 1.2-1.1 1.7-1.9h.2c.2.1.5.2.7.3.2.1.3.2.4.4.1.1.2.2.2.3.1.1.1.2.1.3 0 .1 0 .2.1.3v.3c0 .1-.1.3-.1.4l-.3.6c-.1 0-.2.1-.3.1-.1.1-.3.2-.4.2-.2.1-.4.1-.6.1-.1 0-.3 0-.4-.1-.1 0-.2-.1-.2-.1-.1 0-.1-.1-.1-.1l-.1-.1c0-.1-.1-.1-.1-.2V14s0-.1.1-.1c0-.1.1-.1.1-.1.1 0 .1-.1.2-.1h.4v.2c0 .1 0 .2-.1.2-.1.3.3.7.4.4.2-.4.3-1-.1-1.4-.5-.4-1.1-.1-1.4.4-.3.6-.1 1.6.5 2 1.2.8 2.8-.1 3-1.6.2-1.5-.8-2.5-1.9-2.8.1-.4.2-.8.3-1.3 1.4.3 2.8.4 4.1.4 5.5-.1 8.5-2.7 13-5 1-.5 1.9-.9 2.9-1.3 2.6-1 5.3-1.5 8.1-1.6 2 0 4 .2 6 .8 1.5.5 3 1.2 4.4 1.8v-.5c-1.7-.8-3.4-1.6-5.2-2-4.3-1-8.7-.5-12.7.9-2 .7-3.9 1.7-5.8 2.8-3.4 2-6.7 3.6-10.7 3.8-1.3-.1-2.6-.2-4-.5zm-4.1 5c-3.8.5-7-5.2-3.7-6.3 1-.3 2.2-.1 3.3.2l.9.3c1 .3 1.9.6 2.9.8 0-.3-.1-.6-.2-.9-.1-.4-.3-.7-.5-1.1-3-5.1-10.2-3.4-13.1.9-3.4 5-2 12.9 9.2 12.4C35.5 20 38.8 11.6 48.1 7c.3-.2.7-.3 1-.4h-1c-3.1.1-5.3.9-7.7 2.8-1.7 1.4-3.2 3.1-4.9 4.5-1.7 1.4-3.5 2.6-5.4 3.3-1 .4-2 .6-3 .7-.8.1-1.5 0-2.3-.4-1.1-.6-2.1-1.7-2.3-3.1zm0-.6c-.2 0-.3 0-.5.1-2 0-4.7-2.4-4-4.3 0-.1.1-.2.1-.3.1-.1.2-.2.2-.3.1-.1.3-.2.5-.3.3-.1.6-.2 1-.2.9 0 1.8.2 2.6.5s1.6.5 2.4.7c.3.1.6.2.9.2v.3c0 .3-.1.5-.2.8 0 .1 0 .1-.1.2h-.5c-.9 0-2.3 1-2.4 2.6zm2.8-2.1c-.4.5-.7.9-1.1 1.3-.3.3-.7.5-1.1.6H23c0-.1.1-.2.1-.4.1-.2.1-.3.2-.5s.3-.4.5-.5c.2-.2.5-.3.8-.5.2.1.5 0 .7 0zm1-4.2c-.3-3.1-2.9-5.2-5.8-6.1C11.8-1.1 6 6.7 6.9 13c1.4 9.6 12.3 18.8 30.8 2.7-7.1 4.2-12.5 5.6-16.7 5.8-12.2.6-14.4-8.5-10.9-14 3.9-6 14.5-5.8 16.1 1.2.1-.5.2-.9.1-1.2z"/><path fill-rule="evenodd" clip-rule="evenodd" fill="#F17523" stroke="#F17523" stroke-width=".22" d="M68.9 12.9l7.6-2.9-4.6-6.4 6.1 5 3.4-7.4L80 9l8-1-7.6 3 4.6 6.4-6.1-5-3.4 7.3 1.5-7.9-8.1 1.1zm8.5.7l1.2-2.5 2.1 1.7-1.5-2.1 2.6-1-2.9.3.5-2.7-1.2 2.5-2.1-1.7 1.6 2.2-2.6 1 2.7-.4-.4 2.7z"/></g></svg><svg width="210" height="146" viewBox="0 0 210 146" id="top-right-leaf"><path fill="#5B6A74" d="M181.1 48l-1.5 90.6.7-87.2z"/><path fill="#5B6A74" d="M11.5 22.1l134.7-1.4-5.3.7z"/><g fill="#613C1C"><path d="M161.9.7c-.3.1-.3 3.3-3.1 5.1-1.7 1.6-3.7 2.7-5.1 4.6-1.9 2.7-2.3 6.1-2 9.3.1.8.9 7.7.9 7.7-.5-.1-.3-12.7.1-14.1 1.7-5 7.7-6.3 9.3-11 .6 4.3-.8 9.3-3.7 12.5-.7.8-7.7 10.8-5.1 11.3-2-.3 6.7-12.5 7.2-13.4.6-1 3.1-12.6 1.5-12M155.1 26c-.4.2-3.4 1.7-3.1 2.2-.3-.4 6.9-3 7.7-3.1 4.1-.8 8.2-.1 11.7 2.1 6.9 4.3 10.3 12.3 17.4 16.6-4.7.4-9.7 1.3-14-1.1-3.9-2.1-5.8-6.1-8.5-9.5-2-2.6-4.5-4.4-7.8-5-1.6-.3-3.3-.4-4.9-.1-.3.1-4 1.6-3 2.3-.1-.1 2.8-1.8 3.2-1.8 1.5-.3 3.1-.2 4.7.1 3.8.7 6.3 3 8.5 6.1 2.5 3.5 4.8 7.3 9.1 9 1.4.6 13.4 2.2 13.8.3.1-.3-6.2-4.7-6.8-5.3-3-2.9-5.2-6.6-8.3-9.5-5.6-5.4-12.7-6-19.7-3.3M163.3 16.7c-.7.3-6.8 3.8-6.1 4.3-.2-.2 8-4.5 8.8-4.7 4.8-1.5 9.4-2.4 14.5-1.7 9 1.3 18.5 6.7 27.8 5.2-4.3 5-11.9 7.7-18.2 8.6-4.2.5-7.9.3-12-.6-.8-.2-9-2.2-9-2.2-.2.7 7.4 2.3 8.2 2.5 4.4.9 8.3 1.3 12.8.7 3.9-.6 7.3-1.9 10.9-3.4 1-.4 8.9-4.7 8-6.1-.1-.2-5.7.7-11.1-.8-3.1-.8-6.2-1.7-9.2-2.5-8.9-2.4-16.7-2.6-25.4.7M153.4 27.8c-.6.2-1.2.5-1.7 1l.3.3c4.8-4.8 14-.7 17.9 3 5 4.7 11.3 12.8 19.1 12.1v-.5c-6.2.6-12.6-5.5-16.5-9.6-5-5.4-11.5-9.2-19.1-6.3M163.9 18.5c-4.3 1.7-8.7 4.9-11.3 8.8.1.1.3.2.4.3 5.7-8.8 16.5-11.2 26.3-9.8 9.4 1.3 20.4 6.6 29.6 1.9-.1-.1-.1-.3-.2-.4-5.4 2.7-13.1 1.8-18.7.4-8.3-2.3-17.7-4.4-26.1-1.2M160.7 21.6c-.9.3-9 4.6-8.1 5.7-.7-.9 9.7-5.8 10.7-6.2 5-1.6 10.4-.3 15.4.6 4.8.8 9.8 1.9 14.7 2.3 3.2.3 6.5-.1 9.5-1.3.6-.2 6.5-2.6 6-3.2.1.1-8.9 3.6-9.8 3.8-4.6.8-9.2-.2-13.8-1-8.1-1.4-16.7-3.8-24.6-.7M162 1.6c-.3.1-.4 2.2-.4 2.4-.7 2.4-2.2 4.3-3.7 6.2-1.6 2-3 4.3-4 6.7-.3.7-2 9.2-.5 8.8-.3.1.2-6.4.4-7.1.9-3 2.5-5.7 4.4-8.2 1.6-2 3.1-3.9 3.8-6.4 0 0 .7-2.7 0-2.4M154.9 26.9s-3.3 1.2-2.9 1.7c.1.1 5.7-2.1 6.2-2.2 4.5-.9 9.2.3 12.9 3 3.1 2.3 4.9 5.5 7.4 8.2.7.7 10.3 7.8 10.6 6.1-.1.3-7.1-3.5-7.7-4-2.7-2.1-4.4-4.9-6.6-7.4-5-5.7-12.6-8.2-19.9-5.4M158.5 23.7c-.3.1-5.7 2.5-5.2 3.2-.1-.1 7.5-3.4 8.1-3.6 5.9-1.3 12.5.8 18.3 1.9 5 1 9.8 1.3 14.9.7 1-.1 14-3.4 12.7-4.9.3.3-7.7 3.5-8.5 3.7-4 .9-8.2 1.2-12.4 1-9.1-.5-18.8-5.5-27.9-2M154.1 28c-.5.2 2.9 0 3.2 0 4.2-.1 7.7 1.7 10.5 4.7 2.6 2.8 4.8 6 7.8 8.3.9.7 10.6 5 10.6 3.3 0 .5-8.3-2.3-9.2-2.9-3.1-2-5.4-4.9-7.8-7.7-3.6-4.3-9.1-7.7-15.1-5.7"/></g></svg></svg>