<?xml version="1.0" encoding="utf-8"?><!DOCTYPE svg PUBLIC "-//W3C//DTD SVG 1.1//EN" "http://www.w3.org/Graphics/SVG/1.1/DTD/svg11.dtd"><svg width="210" height="193" viewBox="0 0 210 193" xmlns="http://www.w3.org/2000/svg" xmlns:xlink="http://www.w3.org/1999/xlink"><svg viewBox="0 0 11.182 18.1213" enable-background="new 0 0 11.182 18.1213" width="11.182" height="18.1213" id="item-arrow-right" x="193.9979" y="146"><path fill="none" stroke="#000" stroke-width="3" stroke-miterlimit="10" d="M1.06 1.06l8 8-8 8"/></svg><svg viewBox="29 5 82 14" enable-background="new 29 5 82 14" width="82" height="14" id="scroll" y="178.0035"><path fill="none" d="M104.3 6.6c-.2-.1-.3-.2-.5-.2-.2-.1-.4-.1-.6-.2.1.3.2.5.3.8.3-.1.5-.3.8-.4zM0 8.8c0 .1 0 .1 0 0v-.1.1z"/><path fill="#ABC5C8" stroke="#ABC5C8" stroke-width=".25" stroke-miterlimit="10" d="M109.1 8.8c-.2.1-.4.1-.5.2-.4-.3-.9-.5-1.4-.6-2.2-3.1-7-3.7-10-2.9-3.1.9-4.3 3.3-1.7 5.4 1.2 1 3.1 1.2 4.6 1-.7.5-.7 1.5-.3 2.2-.1 0-.2 0-.4.1-2.7.3-5.6-1.8-8.1-2.9-5.4-2.3-12.2-4-18-1.6-1.4.6-2.7 1.6-3 3.1-.2.2-.4.5-.4.8 0 .5.4.8.8.9.2.1.4-.3.1-.4h-.1c-.1 0-.1-.1-.2-.1l-.1-.1c-.2-.3-.1-.5.1-.7.1 0 .1 0 .1-.1 0 0 .1-.1.2-.1h.6c.4.1.8.4 1 .8 0 .1 0 .1.1.2v.2c0 .1 0 .1-.1.2 0 .1-.1.1-.1.2l-.3.3c-.1.1-.3.2-.4.2-.2.1-.4.1-.6.2h-1.1c-.7-.1-1.4-.3-2.1-.5 1.7-2.2.1-5.1-2.9-6.1-1.3-.4-3.3-.5-4.6 0-.5-.3-1.1-.6-1.6-.9C47.6.5 39.5 12.5 32 12.5c-.3 0-.7-.1-1-.3-.2-.1-.4-.2-.5-.3-.1-.1-.3-.3-.5-.6.4.1.8 0 1.1-.2.5-.3.9-.8.8-1.4-.2-.9-1.2-1.3-2-1.4H29v.4c.3 0 .7-.1 1 0 .2 0 .4.1.6.2.2.1.4.2.5.3l.3.3c.1.1.1.1.1.2s0 .1.1.2v.2c0 .1 0 .1-.1.2-.2.4-.6.7-1 .8h-.3c-.1 0-.2 0-.2-.1-.3-.2-.7-.5-.4-.9l.1-.1c.1 0 .1-.1.2-.1h.1c.2-.1.1-.5-.1-.4-.4.1-.8.4-.8.9v.1c0 .2.1.4.3.6.3 1.5 1.6 2.6 3 3.2 5.8 2.3 12.6.6 18-1.6 2.5-1 5.4-3.2 8.1-2.9.1 0 .2 0 .4.1-.4.7-.3 1.7.3 2.2-1.5-.2-3.5 0-4.6 1-2.6 2.1-1.4 4.6 1.7 5.4 2.9.8 7.8.3 10-2.9.5-.1 1-.3 1.4-.6.2.1.4.1.5.2.9.3 1.8.5 2.7.5.8-.1 1.8-.5 2-1.4.1-.6-.3-1.1-.8-1.4-.3-.2-.7-.3-1-.2.2-.3.4-.5.5-.6.2-.1.3-.2.5-.3.3-.1.7-.2 1-.3 7.4.1 15.5 12 26.8 4.9.6-.3 1.1-.6 1.6-.9 1.3.5 3.4.4 4.6 0 3-1 4.6-3.9 2.9-6.1l2.1-.6v-.4c-.7 0-1.4.2-2 .4zm-77.7 4.3c-.2-.1-.5-.2-.7-.4l-.2-.2c.7.4 1.6.5 2.4.5 7.6 0 15.9-11.2 27-4.2-.1 0-.1.1-.2.1-11.7-2.5-19.9 5.3-27.1 4.5l-1.2-.3zm1.5.7c3.5.3 9.3-2.1 12.8-3.1 2.3-.7 4.6-1.3 6.9-1.6 2.2-.3 4.5-.3 6.7.1l-.2.2c-8.2-1.6-14.9 8.2-26.2 4.4zm26.2-3.7c.1-.1.1-.3.2-.4l.3-.3.1-.1c.4.1.9.2 1.3.3l.4.4c.8 1-.3 1.7-1.3 1.8h-.3c-.1 0-.2 0-.3-.1-.1 0-.1-.1-.2-.1-.4-.3-.4-.9-.2-1.5zm7.1 4.6c-1.3 2.9-5.7 3.7-8.6 3.3-3.6-.5-4-3.2-2.3-4.7 1.1-1 3.1-1.4 5.3-.5.3.1.6.3.8.5l.1.1c-.2 0-.4.1-.6.1-1.2.3-2.5 1.8-1.3 2.7.9.7 2.6 0 3-1 .2-.5 0-1-.2-1.5.5 0 1.1 0 1.6.1.6.1 1.2.2 1.7.4.2.1.4.2.6.2-.1.2-.1.2-.1.3zm-4.6-.9h.3c.1.1.2.3.2.4.1.1.1.3.1.5v.3c0 .1 0 .2-.1.2 0 .1-.1.2-.1.2l-.3.3c-.4.3-.9.5-1.5.4-.1 0-.2 0-.3-.1-.1 0-.1-.1-.2-.1-.9-.9 1-2 1.9-2.1zm4.8.3c-.4-.2-.7-.3-1.1-.4-.7-.2-1.3-.3-2-.3h-1.1c-.2-.3-.5-.5-.8-.6-.3-.2-.6-.3-1-.4.4-.1.7-.2 1-.4.9-.5 1.1-1.2.5-2 1.8.6 4.2 1.3 4.5 3.5v.6c0-.1 0-.1 0 0zm.4.8c-.1 0-.2.1-.3.1.1-.1.1-.3.2-.4.2.1.3.1.5.2-.2.1-.3.1-.4.1zm.7-.4c-.1 0-.2-.1-.2-.1-.2-.1-.3-.1-.5-.2.5-2.8-2.4-3.9-4.5-4.7-.3-.1-.6-.2-1-.3-.2-.1-.3-.2-.5-.3.1 0 .3 0 .4-.1 4.2-1.2 8.8 2.4 6.4 5.5 0 .1-.1.2-.1.2zm40.4-5.4c.1 0 .2.1.3.1-.2.1-.3.1-.5.2 0-.2-.1-.3-.2-.5.1.1.2.1.4.2zm-.5.9v.7c-.3 2.2-2.7 2.9-4.5 3.5.6-.8.4-1.6-.5-2-.3-.2-.6-.3-1-.4.3-.1.7-.2 1-.4.3-.2.6-.4.8-.6h1.1c.7 0 1.4-.1 2-.3.4-.3.7-.4 1.1-.5zm-4.7.2c-.9-.1-2.9-1.2-1.7-2.1.1 0 .1-.1.2-.1s.2-.1.3-.1c.5-.1 1 .1 1.5.4l.3.3c.1.1.1.2.1.2 0 .1.1.2.1.2v.3c0 .2-.1.3-.1.5-.1.1-.1.3-.2.4h-.5zm-6.4.5C94.7 9.2 95 6.5 98.6 6c2.9-.4 7.3.4 8.6 3.3 0 .1.1.2.1.3-.2.1-.4.2-.6.2-.6.2-1.1.3-1.7.4-.5.1-1.1.1-1.6.1.2-.4.4-1 .2-1.5-.4-1-2.1-1.7-3-1-1.1.9.1 2.4 1.3 2.7.2 0 .4.1.6.1l-.1.1c-.3.2-.5.3-.8.5-2.1.9-4.2.4-5.3-.5zm3.8 3.9c.1.1.1.2.2.2-2.2.4-4.5.4-6.7.1-2.4-.3-4.7-.9-6.9-1.6-3.5-1-9.3-3.4-12.8-3.1 11.3-3.8 18 6 26.2 4.4zM74 11c-.8 0-1.7.1-2.4.5l.2-.2c.2-.2.4-.3.7-.4.4-.2.8-.2 1.2-.3 7.2-.8 15.4 7 27.1 4.5.1 0 .1.1.2.1-11.1 7-19.4-4.2-27-4.2zm26.8 3.7l-.1-.1-.3-.3c-.1-.1-.2-.3-.2-.4-.2-.5-.2-1.1.3-1.5.1 0 .1-.1.2-.1s.2-.1.3-.1h.3c1 .2 2 .8 1.3 1.8-.1.2-.3.3-.4.4-.5.1-.9.2-1.4.3zm1.4.5c-.1 0-.3 0-.4-.1.2-.1.3-.2.4-.3.3-.1.6-.2 1-.3 2.1-.8 5-1.8 4.5-4.7.2-.1.3-.1.5-.2.1 0 .2-.1.2-.1l.2.2c2.4 3-2.1 6.7-6.4 5.5z"/></svg><svg viewBox="15 15 20 20" enable-background="new 15 15 20 20" width="20" height="20" id="star-corner-orange" x="153.9979" y="146"><radialGradient id="ca" cx="25.021" cy="26.979" r="9.938" gradientTransform="matrix(1 0 0 -1 0 52)" gradientUnits="userSpaceOnUse"><stop offset=".515" stop-color="#fff"/><stop offset="1" stop-color="#fff" stop-opacity="0"/></radialGradient><circle fill="url(#ca)" cx="25" cy="25" r="9.9"/><path fill="#E88640" d="M15.6 27.3l7.3-2.8-4.4-6.2 5.9 4.8 3.3-7.1-1.4 7.6 7.7-.9-7.3 2.8 4.4 6.2-5.9-4.8-3.3 7.1 1.4-7.6-7.7.9zm8.2.8l1.1-2.4 2 1.6-1.5-2.1 2.5-1-2.6.3.5-2.6-1.1 2.4-2-1.7 1.5 2.1-2.5 1 2.6-.3-.5 2.7zM22 34h-.2l1.4-7.5-7.6.9v-.2l7.2-2.8-4.3-6.1.1-.1 5.8 4.7 3.2-7 .2.1-1.4 7.5 7.6-.9v.2l-7.2 2.8 4.3 6.1-.1.1-5.8-4.7L22 34zm1.4-7.7l-1.3 7 3-6.5.1.1 5.3 4.4-4.1-5.7 6.7-2.6-7.1.9 1.3-7-3 6.5-5.3-4.6 4.1 5.7-6.7 2.6 7-.8zm.5 1.8l-.2-.1.4-2.5-2.5.3v-.2l2.4-1-1.5-2 .1-.1 1.9 1.6 1.1-2.3.2.1-.5 2.5 2.5-.3v.2l-2.4.9 1.4 2-.1.1-1.7-1.5-1.1 2.3zm.5-2.7l-.4 2 .9-1.9 1.5 1.3-1.2-1.6 2-.8-2.1.2.4-2.1-.9 1.9-1.6-1.3 1.2 1.7-2 .8 2.2-.2z"/></svg><svg viewBox="15 15 20 20" enable-background="new 15 15 20 20" width="20" height="20" id="star-corner-red" x="173.9979" y="146"><radialGradient id="da" cx="25" cy="27" r="9.995" gradientTransform="matrix(1 0 0 -1 0 52)" gradientUnits="userSpaceOnUse"><stop offset=".515" stop-color="#fff"/><stop offset="1" stop-color="#fff" stop-opacity="0"/></radialGradient><circle fill="url(#da)" cx="25" cy="25" r="10"/><path fill="#B85D57" d="M26.3 26.4l1.4 7.7-3.3-7.1-5.9 4.8 4.4-6.2-7.3-2.8 7.7.9-1.4-7.7 3.3 7.1 5.9-4.8-4.4 6.2 7.3 2.9-7.7-1zm-1-.9l2.7.3-2.5-1 1.5-2.1-2 1.7-1.2-2.4.5 2.6-2.7-.3 2.5 1-1.5 2.1 2-1.6 1.1 2.4-.4-2.7zM24.3 27.1l-5.8 4.7-.1-.1 4.4-6.1-7.2-2.8v-.2l7.6.9-1.4-7.5.2-.1 3.3 7 5.8-4.7.1.1-4.3 6.1 7.2 2.8v.2l-7.6-.9 1.4 7.5-.2.1-3.4-7zm9 0l-6.8-2.6 4.1-5.7-5.5 4.5-3.1-6.6 1.3 7.1-7.1-.9 6.8 2.6-4.1 5.7 5.4-4.4.1-.1 3.1 6.6-1.3-7.1 7.1.9zm-8.7-1.3l-1.9 1.5-.1-.1 1.4-2-2.4-1V24l2.5.3-.5-2.5.2-.1 1.1 2.3 1.9-1.6.1.1-1.5 2 2.4 1v.2l-2.5-.3.4 2.5-.2.1-.9-2.2zm2.7-.2l-2-.8 1.2-1.7-1.6 1.3-.9-1.8.4 2.1-2.1-.3 2 .8-1.2 1.6 1.6-1.3.9 1.9-.4-2.1 2.1.3z"/></svg><svg viewBox="0 0 153.9979 32.0035" enable-background="new 0 0 153.9979 32.0035" width="153.9979" height="32.0035" id="top-flourish" y="146"><g fill-rule="evenodd" clip-rule="evenodd"><g stroke="#fff" stroke-width="6" stroke-linejoin="round"><path fill="#576C76" d="M130.5 17.238l.017.05-.018-.05zm-.98-4.874c-1.355.254-2.713.396-4.067.37-4.02-.12-7.428-1.78-10.896-3.852-1.91-1.142-3.868-2.118-5.935-2.833-4.085-1.414-8.6-1.908-12.954-.872-1.827.435-3.588 1.228-5.343 2.057l-.137.7c1.496-.706 2.994-1.4 4.534-1.886 2.045-.62 4.132-.82 6.186-.786 2.85.073 5.636.652 8.305 1.643 1.022.388 2.025.835 3.006 1.34 4.606 2.368 7.66 4.98 13.334 5.096 1.406.028 2.822-.138 4.23-.418.02.46.116.893.266 1.293-1.113.354-2.2 1.344-1.95 2.874.26 1.583 1.887 2.5 3.108 1.672.584-.396.762-1.376.475-2.016-.25-.558-.93-.825-1.417-.45-.427.328-.317.982-.15 1.4.138.34.556-.025.42-.36l-.015-.04c-.027-.083-.05-.166-.064-.255-.004-.04-.004-.076-.004-.115.002-.02.006-.037.01-.055l.014-.034c.007-.01.013-.02.02-.028.01-.01.023-.02.036-.03.02-.012.044-.023.066-.03.043-.012.087-.017.13-.02.06.006.118.018.176.036.062.027.12.06.176.1.046.043.09.088.127.14.028.045.052.092.074.142.018.053.03.108.042.164.008.09.008.18.003.272-.01.082-.025.162-.045.242-.02.06-.045.118-.073.175-.03.05-.065.095-.1.14-.048.047-.098.09-.15.126-.083.05-.166.087-.253.117-.15.04-.298.057-.448.057-.21-.01-.412-.05-.61-.12-.153-.063-.3-.142-.436-.246-.084-.073-.16-.155-.227-.25-.122-.183-.228-.376-.313-.59-.048-.137-.084-.278-.108-.428-.012-.116-.015-.23-.007-.35.012-.103.03-.203.06-.303.037-.115.084-.223.14-.328.075-.127.16-.24.25-.347.138-.143.284-.265.44-.37.22-.14.45-.246.685-.323.053-.015.106-.03.16-.04.423.803 1.06 1.454 1.695 1.928.394.294.818.502 1.258.625-.02.174-.057.345-.105.514-.072.224-.166.435-.275.636-.144.25-.31.475-.493.68-.226.244-.472.453-.733.63-.288.184-.588.325-.896.425-.393.114-.78.144-1.174.137-1.16-.036-2.292-.3-3.38-.705-1.845-.705-3.56-1.79-5.152-3.077-1.737-1.42-3.304-3.115-5.024-4.56-1.857-1.56-3.323-2.405-5.707-2.924-.102-.023-.205-.045-.308-.065-1.678-.326-3.408-.347-5.113-.023-1.916-.236-3.645.333-4.796 1.496-5.658 5.714 5.24 12.895 7.863 6.026.392-1.026.498-2.253.02-3.165-.466-.888-1.47-1.286-2.334-1.016-.96.3-1.54 1.626-1.46 2.753.04.57.253 1.092.608 1.43.464.44 1.096.497 1.69.384.313-.06.302-.665-.015-.606-.166.032-.33.05-.497.05-.422-.02-.754-.145-1.03-.523-.06-.093-.112-.194-.156-.302-.045-.132-.08-.269-.1-.412-.165-1.51.81-2.553 1.985-2.15.18.073.348.166.506.29.105.092.2.194.287.31.636.972.303 2.387-.262 3.422-.16.276-.34.53-.543.76-2.27 2.317-6.37.422-7.107-2.696-.706-2.975 1.674-6.528 6.3-5.064 2.817.892 5.813 3.845 11.35 9.346 5.05 5.014 14.238 11.01 22.36 9.446 5-.963 10.807-5.47 11.393-12.827C152.274-.775 127.86-.56 129.52 12.363zm4.195 5.038c-.192 1.437-1.218 2.594-2.287 3.13-.77.384-1.54.438-2.33.38-1.06-.076-2.09-.335-3.086-.71-1.99-.748-3.835-1.94-5.532-3.36-1.734-1.448-3.31-3.157-5.056-4.587-2.437-1.97-4.69-2.817-7.843-2.91-.35-.008-.703-.002-1.056.02.332.116.666.257 1 .423 9.49 4.718 12.847 13.297 27.392 14.006 11.463.558 12.855-7.494 9.394-12.655-2.952-4.403-10.306-6.135-13.352-.942-.192.35-.353.714-.482 1.102-.087.3-.15.6-.185.908.998-.217 1.994-.488 2.984-.792.295-.092.59-.187.886-.266 1.08-.29 2.297-.54 3.34-.184 3.395 1.155.06 6.98-3.785 6.436zm.028-.607c-.09-1.58-1.485-2.647-2.666-2.72-.16-.01-.33-.002-.505.023-.025-.056-.05-.112-.072-.17-.09-.256-.156-.52-.2-.8-.01-.102-.02-.203-.023-.305.32-.07.64-.145.96-.224.835-.21 1.665-.458 2.494-.716.893-.27 1.802-.476 2.702-.466.345.013.684.06 1.01.172.17.068.33.154.48.27.092.078.175.167.25.268.056.088.105.18.145.28.666 1.99-2.076 4.45-4.096 4.438-.16-.006-.32-.023-.477-.05zm-2.86-2.117h.03c.234.01.463.05.685.127.274.11.53.275.77.465.185.156.354.332.503.54.1.147.183.305.25.478.044.12.076.244.1.373l-.068-.023c-.392-.156-.757-.377-1.098-.648-.425-.358-.802-.785-1.138-1.263l-.032-.05zm-.97-3.127c1.62-7.14 12.538-7.387 16.488-1.213 3.63 5.674 1.382 14.945-11.056 14.398-4.307-.19-9.806-1.64-17.046-5.97 18.907 16.4 30.055 6.99 31.455-2.81.92-6.423-5.05-14.36-14.022-11.813-2.92.923-5.563 3.01-5.887 6.217-.024.316.02.773.07 1.19z"/><path fill="#fff" stroke-miterlimit="10" d="M130.5 17.238l.017.05-.018-.05zm-.98-4.874c-1.355.254-2.713.396-4.067.37-4.02-.12-7.428-1.78-10.896-3.852-1.91-1.142-3.868-2.118-5.935-2.833-4.085-1.414-8.6-1.908-12.954-.872-1.827.435-3.588 1.228-5.343 2.057l-.137.7c1.496-.706 2.994-1.4 4.534-1.886 2.045-.62 4.132-.82 6.186-.786 2.85.073 5.636.652 8.305 1.643 1.022.388 2.025.835 3.006 1.34 4.606 2.368 7.66 4.98 13.334 5.096 1.406.028 2.822-.138 4.23-.418.02.46.116.893.266 1.293-1.113.354-2.2 1.344-1.95 2.874.26 1.583 1.887 2.5 3.108 1.672.584-.396.762-1.376.475-2.016-.25-.558-.93-.825-1.417-.45-.427.328-.317.982-.15 1.4.138.34.556-.025.42-.36l-.015-.04c-.027-.083-.05-.166-.064-.255-.004-.04-.004-.076-.004-.115.002-.02.006-.037.01-.055l.014-.034c.007-.01.013-.02.02-.028.01-.01.023-.02.036-.03.02-.012.044-.023.066-.03.043-.012.087-.017.13-.02.06.006.118.018.176.036.062.027.12.06.176.1.046.043.09.088.127.14.028.045.052.092.074.142.018.053.03.108.042.164.008.09.008.18.003.272-.01.082-.025.162-.045.242-.02.06-.045.118-.073.175-.03.05-.065.095-.1.14-.048.047-.098.09-.15.126-.083.05-.166.087-.253.117-.15.04-.298.057-.448.057-.21-.01-.412-.05-.61-.12-.153-.063-.3-.142-.436-.246-.084-.073-.16-.155-.227-.25-.122-.183-.228-.376-.313-.59-.048-.137-.084-.278-.108-.428-.012-.116-.015-.23-.007-.35.012-.103.03-.203.06-.303.037-.115.084-.223.14-.328.075-.127.16-.24.25-.347.138-.143.284-.265.44-.37.22-.14.45-.246.685-.323.053-.015.106-.03.16-.04.423.803 1.06 1.454 1.695 1.928.394.294.818.502 1.258.625-.02.174-.057.345-.105.514-.072.224-.166.435-.275.636-.144.25-.31.475-.493.68-.226.244-.472.453-.733.63-.288.184-.588.325-.896.425-.393.114-.78.144-1.174.137-1.16-.036-2.292-.3-3.38-.705-1.845-.705-3.56-1.79-5.152-3.077-1.737-1.42-3.304-3.115-5.024-4.56-1.857-1.56-3.323-2.405-5.707-2.924-.102-.023-.205-.045-.308-.065-1.678-.326-3.408-.347-5.113-.023-1.916-.236-3.645.333-4.796 1.496-5.658 5.714 5.24 12.895 7.863 6.026.392-1.026.498-2.253.02-3.165-.466-.888-1.47-1.286-2.334-1.016-.96.3-1.54 1.626-1.46 2.753.04.57.253 1.092.608 1.43.464.44 1.096.497 1.69.384.313-.06.302-.665-.015-.606-.166.032-.33.05-.497.05-.422-.02-.754-.145-1.03-.523-.06-.093-.112-.194-.156-.302-.045-.132-.08-.269-.1-.412-.165-1.51.81-2.553 1.985-2.15.18.073.348.166.506.29.105.092.2.194.287.31.636.972.303 2.387-.262 3.422-.16.276-.34.53-.543.76-2.27 2.317-6.37.422-7.107-2.696-.706-2.975 1.674-6.528 6.3-5.064 2.817.892 5.813 3.845 11.35 9.346 5.05 5.014 14.238 11.01 22.36 9.446 5-.963 10.807-5.47 11.393-12.827C152.274-.775 127.86-.56 129.52 12.363zm4.195 5.038c-.192 1.437-1.218 2.594-2.287 3.13-.77.384-1.54.438-2.33.38-1.06-.076-2.09-.335-3.086-.71-1.99-.748-3.835-1.94-5.532-3.36-1.734-1.448-3.31-3.157-5.056-4.587-2.437-1.97-4.69-2.817-7.843-2.91-.35-.008-.703-.002-1.056.02.332.116.666.257 1 .423 9.49 4.718 12.847 13.297 27.392 14.006 11.463.558 12.855-7.494 9.394-12.655-2.952-4.403-10.306-6.135-13.352-.942-.192.35-.353.714-.482 1.102-.087.3-.15.6-.185.908.998-.217 1.994-.488 2.984-.792.295-.092.59-.187.886-.266 1.08-.29 2.297-.54 3.34-.184 3.395 1.155.06 6.98-3.785 6.436zm.028-.607c-.09-1.58-1.485-2.647-2.666-2.72-.16-.01-.33-.002-.505.023-.025-.056-.05-.112-.072-.17-.09-.256-.156-.52-.2-.8-.01-.102-.02-.203-.023-.305.32-.07.64-.145.96-.224.835-.21 1.665-.458 2.494-.716.893-.27 1.802-.476 2.702-.466.345.013.684.06 1.01.172.17.068.33.154.48.27.092.078.175.167.25.268.056.088.105.18.145.28.666 1.99-2.076 4.45-4.096 4.438-.16-.006-.32-.023-.477-.05zm-2.86-2.117h.03c.234.01.463.05.685.127.274.11.53.275.77.465.185.156.354.332.503.54.1.147.183.305.25.478.044.12.076.244.1.373l-.068-.023c-.392-.156-.757-.377-1.098-.648-.425-.358-.802-.785-1.138-1.263l-.032-.05zm-.97-3.127c1.62-7.14 12.538-7.387 16.488-1.213 3.63 5.674 1.382 14.945-11.056 14.398-4.307-.19-9.806-1.64-17.046-5.97 18.907 16.4 30.055 6.99 31.455-2.81.92-6.423-5.05-14.36-14.022-11.813-2.92.923-5.563 3.01-5.887 6.217-.024.316.02.773.07 1.19zM23.5 17.238l-.02.05.02-.05zm.98-4.874C26.14-.56 1.723-.776 3.05 15.924c.586 7.355 6.393 11.863 11.393 12.826 8.122 1.565 17.31-4.432 22.36-9.446 5.538-5.5 8.533-8.454 11.35-9.346 4.627-1.464 7.006 2.09 6.3 5.064-.738 3.118-4.837 5.013-7.107 2.697-.202-.232-.382-.486-.542-.76-.565-1.037-.9-2.452-.263-3.424.087-.116.182-.218.287-.31.158-.124.327-.217.506-.29 1.174-.403 2.15.642 1.986 2.15-.022.143-.055.28-.1.412-.045.108-.096.21-.156.303-.277.38-.61.503-1.03.525-.167 0-.33-.02-.497-.05-.318-.06-.33.546-.015.606.593.114 1.225.057 1.69-.384.354-.337.567-.86.607-1.43.08-1.126-.5-2.45-1.46-2.752-.863-.27-1.868.128-2.333 1.015-.48.91-.373 2.138.02 3.164 2.62 6.87 13.52-.312 7.862-6.026-1.15-1.163-2.88-1.732-4.795-1.496-1.706-.324-3.436-.303-5.114.024-.103.02-.206.04-.308.063-2.384.518-3.85 1.364-5.706 2.923-1.722 1.445-3.29 3.14-5.026 4.56-1.59 1.287-3.307 2.372-5.152 3.077-1.088.404-2.22.67-3.38.705-.394.007-.78-.023-1.175-.137-.308-.1-.608-.24-.895-.425-.262-.177-.508-.386-.734-.63-.184-.205-.35-.43-.493-.68-.11-.2-.203-.413-.275-.636-.048-.17-.084-.34-.105-.514.44-.123.864-.33 1.258-.625.636-.474 1.272-1.124 1.696-1.93l.158.042c.236.077.465.182.686.322.155.106.3.228.438.37.092.107.176.22.252.347.054.104.102.212.14.327.028.1.047.2.06.304.007.12.004.234-.008.35-.024.15-.06.29-.108.43-.085.212-.19.405-.313.588-.07.095-.143.177-.227.25-.137.104-.283.183-.437.245-.196.07-.4.11-.608.12-.15 0-.3-.016-.448-.056-.087-.03-.17-.068-.252-.118-.053-.038-.103-.08-.15-.128-.036-.044-.07-.09-.1-.14-.03-.056-.053-.113-.074-.173-.02-.082-.035-.162-.045-.244-.005-.092-.005-.182.003-.272.01-.056.024-.11.04-.164.023-.05.047-.097.075-.142.04-.05.082-.097.128-.138.056-.04.114-.075.176-.102.058-.018.116-.03.176-.035.043.002.086.007.13.018l.066.03c.013.01.025.02.037.033l.02.026.012.033c.005.018.008.036.01.055 0 .04 0 .077-.003.115-.015.09-.037.172-.065.255l-.016.04c-.135.335.284.7.42.36.17-.418.28-1.07-.148-1.4-.486-.375-1.167-.108-1.417.45-.287.64-.11 1.62.475 2.016 1.22.828 2.85-.09 3.107-1.672.25-1.53-.836-2.52-1.95-2.874.15-.4.246-.832.266-1.293 1.41.28 2.825.446 4.23.418 5.674-.115 8.73-2.728 13.336-5.097.98-.504 1.983-.95 3.005-1.34 2.67-.99 5.456-1.57 8.305-1.642 2.054-.035 4.14.166 6.186.785 1.54.484 3.038 1.18 4.534 1.886l-.137-.7c-1.755-.83-3.516-1.623-5.344-2.058-4.353-1.036-8.87-.542-12.954.87-2.067.716-4.024 1.692-5.936 2.834-3.467 2.072-6.875 3.732-10.895 3.852-1.355.026-2.712-.116-4.066-.37zm-4.198 5.038c-3.845.544-7.18-5.28-3.785-6.436 1.044-.355 2.26-.106 3.34.183.298.08.592.174.887.266.99.303 1.985.575 2.983.792-.035-.31-.098-.61-.185-.908-.13-.39-.29-.752-.482-1.102-3.046-5.193-10.4-3.46-13.352.94-3.46 5.16-2.07 13.214 9.394 12.656 14.545-.71 17.9-9.288 27.393-14.006.333-.166.667-.307 1-.424-.354-.02-.707-.027-1.058-.02-3.155.094-5.406.94-7.843 2.91-1.747 1.43-3.322 3.14-5.056 4.59-1.697 1.417-3.542 2.61-5.532 3.358-.996.375-2.025.633-3.085.71-.79.058-1.56.004-2.33-.38-1.07-.536-2.096-1.693-2.288-3.13zm-.027-.607c-.157.028-.316.045-.478.05-2.02.013-4.762-2.447-4.096-4.436.04-.1.09-.194.146-.282.075-.1.158-.19.25-.27.15-.114.31-.2.48-.268.326-.113.665-.16 1.01-.172.9-.01 1.81.196 2.7.466.83.258 1.66.506 2.495.714.32.08.64.155.96.224-.003.103-.01.204-.023.307-.043.278-.11.542-.2.8-.022.056-.046.112-.07.168-.176-.025-.347-.032-.506-.023-1.18.073-2.574 1.14-2.665 2.72zm2.86-2.117l-.033.05c-.336.477-.713.904-1.138 1.26-.34.272-.706.493-1.098.65l-.07.022c.026-.128.058-.252.1-.372.07-.173.153-.33.25-.48.15-.206.32-.382.504-.538.24-.19.496-.354.77-.465.222-.077.45-.118.686-.127h.028zm1.04-4.32c-.324-3.207-2.967-5.293-5.888-6.216-8.97-2.547-14.94 5.39-14.022 11.812 1.4 9.8 12.548 19.21 31.455 2.812-7.24 4.33-12.74 5.78-17.046 5.97-12.438.546-14.686-8.725-11.057-14.4 3.95-6.173 14.867-5.926 16.487 1.215.05-.417.095-.874.07-1.19z"/><path fill="#fff" stroke-linecap="round" d="M67.7 15.868l7.74-3.017-4.663-6.546 6.23 5.09 3.506-7.52-1.515 8.082 8.175-.982-7.745 3.012 4.675 6.544-6.23-5.078-3.506 7.516 1.51-8.09-8.178.99zm8.695.786l1.2-2.532 2.102 1.708-1.574-2.192 2.657-1.05-2.812.335.524-2.79-1.217 2.575-2.15-1.76 1.62 2.252-2.667 1.063 2.812-.36-.495 2.75z"/></g><g><path fill="#576C76" d="M130.5 17.238l.017.05-.018-.05zm-.98-4.874c-1.355.254-2.713.396-4.067.37-4.02-.12-7.428-1.78-10.896-3.852-1.91-1.142-3.868-2.118-5.935-2.833-4.085-1.414-8.6-1.908-12.954-.872-1.827.435-3.588 1.228-5.343 2.057l-.137.7c1.496-.706 2.994-1.4 4.534-1.886 2.045-.62 4.132-.82 6.186-.786 2.85.073 5.636.652 8.305 1.643 1.022.388 2.025.835 3.006 1.34 4.606 2.368 7.66 4.98 13.334 5.096 1.406.028 2.822-.138 4.23-.418.02.46.116.893.266 1.293-1.113.354-2.2 1.344-1.95 2.874.26 1.583 1.887 2.5 3.108 1.672.584-.396.762-1.376.475-2.016-.25-.558-.93-.825-1.417-.45-.427.328-.317.982-.15 1.4.138.34.556-.025.42-.36l-.015-.04c-.027-.083-.05-.166-.064-.255-.004-.04-.004-.076-.004-.115.002-.02.006-.037.01-.055l.014-.034c.007-.01.013-.02.02-.028.01-.01.023-.02.036-.03.02-.012.044-.023.066-.03.043-.012.087-.017.13-.02.06.006.118.018.176.036.062.027.12.06.176.1.046.043.09.088.127.14.028.045.052.092.074.142.018.053.03.108.042.164.008.09.008.18.003.272-.01.082-.025.162-.045.242-.02.06-.045.118-.073.175-.03.05-.065.095-.1.14-.048.047-.098.09-.15.126-.083.05-.166.087-.253.117-.15.04-.298.057-.448.057-.21-.01-.412-.05-.61-.12-.153-.063-.3-.142-.436-.246-.084-.073-.16-.155-.227-.25-.122-.183-.228-.376-.313-.59-.048-.137-.084-.278-.108-.428-.012-.116-.015-.23-.007-.35.012-.103.03-.203.06-.303.037-.115.084-.223.14-.328.075-.127.16-.24.25-.347.138-.143.284-.265.44-.37.22-.14.45-.246.685-.323.053-.015.106-.03.16-.04.423.803 1.06 1.454 1.695 1.928.394.294.818.502 1.258.625-.02.174-.057.345-.105.514-.072.224-.166.435-.275.636-.144.25-.31.475-.493.68-.226.244-.472.453-.733.63-.288.184-.588.325-.896.425-.393.114-.78.144-1.174.137-1.16-.036-2.292-.3-3.38-.705-1.845-.705-3.56-1.79-5.152-3.077-1.737-1.42-3.304-3.115-5.024-4.56-1.857-1.56-3.323-2.405-5.707-2.924-.102-.023-.205-.045-.308-.065-1.678-.326-3.408-.347-5.113-.023-1.916-.236-3.645.333-4.796 1.496-5.658 5.714 5.24 12.895 7.863 6.026.392-1.026.498-2.253.02-3.165-.466-.888-1.47-1.286-2.334-1.016-.96.3-1.54 1.626-1.46 2.753.04.57.253 1.092.608 1.43.464.44 1.096.497 1.69.384.313-.06.302-.665-.015-.606-.166.032-.33.05-.497.05-.422-.02-.754-.145-1.03-.523-.06-.093-.112-.194-.156-.302-.045-.132-.08-.269-.1-.412-.165-1.51.81-2.553 1.985-2.15.18.073.348.166.506.29.105.092.2.194.287.31.636.972.303 2.387-.262 3.422-.16.276-.34.53-.543.76-2.27 2.317-6.37.422-7.107-2.696-.706-2.975 1.674-6.528 6.3-5.064 2.817.892 5.813 3.845 11.35 9.346 5.05 5.014 14.238 11.01 22.36 9.446 5-.963 10.807-5.47 11.393-12.827C152.274-.775 127.86-.56 129.52 12.363zm4.195 5.038c-.192 1.437-1.218 2.594-2.287 3.13-.77.384-1.54.438-2.33.38-1.06-.076-2.09-.335-3.086-.71-1.99-.748-3.835-1.94-5.532-3.36-1.734-1.448-3.31-3.157-5.056-4.587-2.437-1.97-4.69-2.817-7.843-2.91-.35-.008-.703-.002-1.056.02.332.116.666.257 1 .423 9.49 4.718 12.847 13.297 27.392 14.006 11.463.558 12.855-7.494 9.394-12.655-2.952-4.403-10.306-6.135-13.352-.942-.192.35-.353.714-.482 1.102-.087.3-.15.6-.185.908.998-.217 1.994-.488 2.984-.792.295-.092.59-.187.886-.266 1.08-.29 2.297-.54 3.34-.184 3.395 1.155.06 6.98-3.785 6.436zm.028-.607c-.09-1.58-1.485-2.647-2.666-2.72-.16-.01-.33-.002-.505.023-.025-.056-.05-.112-.072-.17-.09-.256-.156-.52-.2-.8-.01-.102-.02-.203-.023-.305.32-.07.64-.145.96-.224.835-.21 1.665-.458 2.494-.716.893-.27 1.802-.476 2.702-.466.345.013.684.06 1.01.172.17.068.33.154.48.27.092.078.175.167.25.268.056.088.105.18.145.28.666 1.99-2.076 4.45-4.096 4.438-.16-.006-.32-.023-.477-.05zm-2.86-2.117h.03c.234.01.463.05.685.127.274.11.53.275.77.465.185.156.354.332.503.54.1.147.183.305.25.478.044.12.076.244.1.373l-.068-.023c-.392-.156-.757-.377-1.098-.648-.425-.358-.802-.785-1.138-1.263l-.032-.05zm-.97-3.127c1.62-7.14 12.538-7.387 16.488-1.213 3.63 5.674 1.382 14.945-11.056 14.398-4.307-.19-9.806-1.64-17.046-5.97 18.907 16.4 30.055 6.99 31.455-2.81.92-6.423-5.05-14.36-14.022-11.813-2.92.923-5.563 3.01-5.887 6.217-.024.316.02.773.07 1.19zM130.5 17.238l.017.05-.018-.05zm-.98-4.874c-1.355.254-2.713.396-4.067.37-4.02-.12-7.428-1.78-10.896-3.852-1.91-1.142-3.868-2.118-5.935-2.833-4.085-1.414-8.6-1.908-12.954-.872-1.827.435-3.588 1.228-5.343 2.057l-.137.7c1.496-.706 2.994-1.4 4.534-1.886 2.045-.62 4.132-.82 6.186-.786 2.85.073 5.636.652 8.305 1.643 1.022.388 2.025.835 3.006 1.34 4.606 2.368 7.66 4.98 13.334 5.096 1.406.028 2.822-.138 4.23-.418.02.46.116.893.266 1.293-1.113.354-2.2 1.344-1.95 2.874.26 1.583 1.887 2.5 3.108 1.672.584-.396.762-1.376.475-2.016-.25-.558-.93-.825-1.417-.45-.427.328-.317.982-.15 1.4.138.34.556-.025.42-.36l-.015-.04c-.027-.083-.05-.166-.064-.255-.004-.04-.004-.076-.004-.115.002-.02.006-.037.01-.055l.014-.034c.007-.01.013-.02.02-.028.01-.01.023-.02.036-.03.02-.012.044-.023.066-.03.043-.012.087-.017.13-.02.06.006.118.018.176.036.062.027.12.06.176.1.046.043.09.088.127.14.028.045.052.092.074.142.018.053.03.108.042.164.008.09.008.18.003.272-.01.082-.025.162-.045.242-.02.06-.045.118-.073.175-.03.05-.065.095-.1.14-.048.047-.098.09-.15.126-.083.05-.166.087-.253.117-.15.04-.298.057-.448.057-.21-.01-.412-.05-.61-.12-.153-.063-.3-.142-.436-.246-.084-.073-.16-.155-.227-.25-.122-.183-.228-.376-.313-.59-.048-.137-.084-.278-.108-.428-.012-.116-.015-.23-.007-.35.012-.103.03-.203.06-.303.037-.115.084-.223.14-.328.075-.127.16-.24.25-.347.138-.143.284-.265.44-.37.22-.14.45-.246.685-.323.053-.015.106-.03.16-.04.423.803 1.06 1.454 1.695 1.928.394.294.818.502 1.258.625-.02.174-.057.345-.105.514-.072.224-.166.435-.275.636-.144.25-.31.475-.493.68-.226.244-.472.453-.733.63-.288.184-.588.325-.896.425-.393.114-.78.144-1.174.137-1.16-.036-2.292-.3-3.38-.705-1.845-.705-3.56-1.79-5.152-3.077-1.737-1.42-3.304-3.115-5.024-4.56-1.857-1.56-3.323-2.405-5.707-2.924-.102-.023-.205-.045-.308-.065-1.678-.326-3.408-.347-5.113-.023-1.916-.236-3.645.333-4.796 1.496-5.658 5.714 5.24 12.895 7.863 6.026.392-1.026.498-2.253.02-3.165-.466-.888-1.47-1.286-2.334-1.016-.96.3-1.54 1.626-1.46 2.753.04.57.253 1.092.608 1.43.464.44 1.096.497 1.69.384.313-.06.302-.665-.015-.606-.166.032-.33.05-.497.05-.422-.02-.754-.145-1.03-.523-.06-.093-.112-.194-.156-.302-.045-.132-.08-.269-.1-.412-.165-1.51.81-2.553 1.985-2.15.18.073.348.166.506.29.105.092.2.194.287.31.636.972.303 2.387-.262 3.422-.16.276-.34.53-.543.76-2.27 2.317-6.37.422-7.107-2.696-.706-2.975 1.674-6.528 6.3-5.064 2.817.892 5.813 3.845 11.35 9.346 5.05 5.014 14.238 11.01 22.36 9.446 5-.963 10.807-5.47 11.393-12.827C152.274-.775 127.86-.56 129.52 12.363zm4.195 5.038c-.192 1.437-1.218 2.594-2.287 3.13-.77.384-1.54.438-2.33.38-1.06-.076-2.09-.335-3.086-.71-1.99-.748-3.835-1.94-5.532-3.36-1.734-1.448-3.31-3.157-5.056-4.587-2.437-1.97-4.69-2.817-7.843-2.91-.35-.008-.703-.002-1.056.02.332.116.666.257 1 .423 9.49 4.718 12.847 13.297 27.392 14.006 11.463.558 12.855-7.494 9.394-12.655-2.952-4.403-10.306-6.135-13.352-.942-.192.35-.353.714-.482 1.102-.087.3-.15.6-.185.908.998-.217 1.994-.488 2.984-.792.295-.092.59-.187.886-.266 1.08-.29 2.297-.54 3.34-.184 3.395 1.155.06 6.98-3.785 6.436zm.028-.607c-.09-1.58-1.485-2.647-2.666-2.72-.16-.01-.33-.002-.505.023-.025-.056-.05-.112-.072-.17-.09-.256-.156-.52-.2-.8-.01-.102-.02-.203-.023-.305.32-.07.64-.145.96-.224.835-.21 1.665-.458 2.494-.716.893-.27 1.802-.476 2.702-.466.345.013.684.06 1.01.172.17.068.33.154.48.27.092.078.175.167.25.268.056.088.105.18.145.28.666 1.99-2.076 4.45-4.096 4.438-.16-.006-.32-.023-.477-.05zm-2.86-2.117h.03c.234.01.463.05.685.127.274.11.53.275.77.465.185.156.354.332.503.54.1.147.183.305.25.478.044.12.076.244.1.373l-.068-.023c-.392-.156-.757-.377-1.098-.648-.425-.358-.802-.785-1.138-1.263l-.032-.05zm-.97-3.127c1.62-7.14 12.538-7.387 16.488-1.213 3.63 5.674 1.382 14.945-11.056 14.398-4.307-.19-9.806-1.64-17.046-5.97 18.907 16.4 30.055 6.99 31.455-2.81.92-6.423-5.05-14.36-14.022-11.813-2.92.923-5.563 3.01-5.887 6.217-.024.316.02.773.07 1.19zM23.5 17.238l-.02.05.02-.05zm.98-4.874C26.14-.56 1.723-.776 3.05 15.924c.586 7.355 6.393 11.863 11.393 12.826 8.122 1.565 17.31-4.432 22.36-9.446 5.538-5.5 8.533-8.454 11.35-9.346 4.627-1.464 7.006 2.09 6.3 5.064-.738 3.118-4.837 5.013-7.107 2.697-.202-.232-.382-.486-.542-.76-.565-1.037-.9-2.452-.263-3.424.087-.116.182-.218.287-.31.158-.124.327-.217.506-.29 1.174-.403 2.15.642 1.986 2.15-.022.143-.055.28-.1.412-.045.108-.096.21-.156.303-.277.38-.61.503-1.03.525-.167 0-.33-.02-.497-.05-.318-.06-.33.546-.015.606.593.114 1.225.057 1.69-.384.354-.337.567-.86.607-1.43.08-1.126-.5-2.45-1.46-2.752-.863-.27-1.868.128-2.333 1.015-.48.91-.373 2.138.02 3.164 2.62 6.87 13.52-.312 7.862-6.026-1.15-1.163-2.88-1.732-4.795-1.496-1.706-.324-3.436-.303-5.114.024-.103.02-.206.04-.308.063-2.384.518-3.85 1.364-5.706 2.923-1.722 1.445-3.29 3.14-5.026 4.56-1.59 1.287-3.307 2.372-5.152 3.077-1.088.404-2.22.67-3.38.705-.394.007-.78-.023-1.175-.137-.308-.1-.608-.24-.895-.425-.262-.177-.508-.386-.734-.63-.184-.205-.35-.43-.493-.68-.11-.2-.203-.413-.275-.636-.048-.17-.084-.34-.105-.514.44-.123.864-.33 1.258-.625.636-.474 1.272-1.124 1.696-1.93l.158.042c.236.077.465.182.686.322.155.106.3.228.438.37.092.107.176.22.252.347.054.104.102.212.14.327.028.1.047.2.06.304.007.12.004.234-.008.35-.024.15-.06.29-.108.43-.085.212-.19.405-.313.588-.07.095-.143.177-.227.25-.137.104-.283.183-.437.245-.196.07-.4.11-.608.12-.15 0-.3-.016-.448-.056-.087-.03-.17-.068-.252-.118-.053-.038-.103-.08-.15-.128-.036-.044-.07-.09-.1-.14-.03-.056-.053-.113-.074-.173-.02-.082-.035-.162-.045-.244-.005-.092-.005-.182.003-.272.01-.056.024-.11.04-.164.023-.05.047-.097.075-.142.04-.05.082-.097.128-.138.056-.04.114-.075.176-.102.058-.018.116-.03.176-.035.043.002.086.007.13.018l.066.03c.013.01.025.02.037.033l.02.026.012.033c.005.018.008.036.01.055 0 .04 0 .077-.003.115-.015.09-.037.172-.065.255l-.016.04c-.135.335.284.7.42.36.17-.418.28-1.07-.148-1.4-.486-.375-1.167-.108-1.417.45-.287.64-.11 1.62.475 2.016 1.22.828 2.85-.09 3.107-1.672.25-1.53-.836-2.52-1.95-2.874.15-.4.246-.832.266-1.293 1.41.28 2.825.446 4.23.418 5.674-.115 8.73-2.728 13.336-5.097.98-.504 1.983-.95 3.005-1.34 2.67-.99 5.456-1.57 8.305-1.642 2.054-.035 4.14.166 6.186.785 1.54.484 3.038 1.18 4.534 1.886l-.137-.7c-1.755-.83-3.516-1.623-5.344-2.058-4.353-1.036-8.87-.542-12.954.87-2.067.716-4.024 1.692-5.936 2.834-3.467 2.072-6.875 3.732-10.895 3.852-1.355.026-2.712-.116-4.066-.37zm-4.198 5.038c-3.845.544-7.18-5.28-3.785-6.436 1.044-.355 2.26-.106 3.34.183.298.08.592.174.887.266.99.303 1.985.575 2.983.792-.035-.31-.098-.61-.185-.908-.13-.39-.29-.752-.482-1.102-3.046-5.193-10.4-3.46-13.352.94-3.46 5.16-2.07 13.214 9.394 12.656 14.545-.71 17.9-9.288 27.393-14.006.333-.166.667-.307 1-.424-.354-.02-.707-.027-1.058-.02-3.155.094-5.406.94-7.843 2.91-1.747 1.43-3.322 3.14-5.056 4.59-1.697 1.417-3.542 2.61-5.532 3.358-.996.375-2.025.633-3.085.71-.79.058-1.56.004-2.33-.38-1.07-.536-2.096-1.693-2.288-3.13zm-.027-.607c-.157.028-.316.045-.478.05-2.02.013-4.762-2.447-4.096-4.436.04-.1.09-.194.146-.282.075-.1.158-.19.25-.27.15-.114.31-.2.48-.268.326-.113.665-.16 1.01-.172.9-.01 1.81.196 2.7.466.83.258 1.66.506 2.495.714.32.08.64.155.96.224-.003.103-.01.204-.023.307-.043.278-.11.542-.2.8-.022.056-.046.112-.07.168-.176-.025-.347-.032-.506-.023-1.18.073-2.574 1.14-2.665 2.72zm2.86-2.117l-.033.05c-.336.477-.713.904-1.138 1.26-.34.272-.706.493-1.098.65l-.07.022c.026-.128.058-.252.1-.372.07-.173.153-.33.25-.48.15-.206.32-.382.504-.538.24-.19.496-.354.77-.465.222-.077.45-.118.686-.127h.028zm1.04-4.32c-.324-3.207-2.967-5.293-5.888-6.216-8.97-2.547-14.94 5.39-14.022 11.812 1.4 9.8 12.548 19.21 31.455 2.812-7.24 4.33-12.74 5.78-17.046 5.97-12.438.546-14.686-8.725-11.057-14.4 3.95-6.173 14.867-5.926 16.487 1.215.05-.417.095-.874.07-1.19z"/><path fill="#F37522" stroke="#F37522" stroke-width=".176" d="M67.7 15.868l7.74-3.017-4.663-6.546 6.23 5.09 3.506-7.52-1.515 8.082 8.175-.982-7.745 3.012 4.675 6.544-6.23-5.078-3.506 7.516 1.51-8.09-8.178.99zm8.695.786l1.2-2.532 2.102 1.708-1.574-2.192 2.657-1.05-2.812.335.524-2.79-1.217 2.575-2.15-1.76 1.62 2.252-2.667 1.063 2.812-.36-.495 2.75z"/></g></g></svg><svg width="210" height="146" viewBox="0 0 210 146" id="top-right-leaf"><path fill="#5B6A74" d="M181.1 48l-1.5 90.6.7-87.2z"/><path fill="#5B6A74" d="M11.5 22.1l134.7-1.4-5.3.7z"/><g fill="#613C1C"><path d="M161.9.7c-.3.1-.3 3.3-3.1 5.1-1.7 1.6-3.7 2.7-5.1 4.6-1.9 2.7-2.3 6.1-2 9.3.1.8.9 7.7.9 7.7-.5-.1-.3-12.7.1-14.1 1.7-5 7.7-6.3 9.3-11 .6 4.3-.8 9.3-3.7 12.5-.7.8-7.7 10.8-5.1 11.3-2-.3 6.7-12.5 7.2-13.4.6-1 3.1-12.6 1.5-12M155.1 26c-.4.2-3.4 1.7-3.1 2.2-.3-.4 6.9-3 7.7-3.1 4.1-.8 8.2-.1 11.7 2.1 6.9 4.3 10.3 12.3 17.4 16.6-4.7.4-9.7 1.3-14-1.1-3.9-2.1-5.8-6.1-8.5-9.5-2-2.6-4.5-4.4-7.8-5-1.6-.3-3.3-.4-4.9-.1-.3.1-4 1.6-3 2.3-.1-.1 2.8-1.8 3.2-1.8 1.5-.3 3.1-.2 4.7.1 3.8.7 6.3 3 8.5 6.1 2.5 3.5 4.8 7.3 9.1 9 1.4.6 13.4 2.2 13.8.3.1-.3-6.2-4.7-6.8-5.3-3-2.9-5.2-6.6-8.3-9.5-5.6-5.4-12.7-6-19.7-3.3M163.3 16.7c-.7.3-6.8 3.8-6.1 4.3-.2-.2 8-4.5 8.8-4.7 4.8-1.5 9.4-2.4 14.5-1.7 9 1.3 18.5 6.7 27.8 5.2-4.3 5-11.9 7.7-18.2 8.6-4.2.5-7.9.3-12-.6-.8-.2-9-2.2-9-2.2-.2.7 7.4 2.3 8.2 2.5 4.4.9 8.3 1.3 12.8.7 3.9-.6 7.3-1.9 10.9-3.4 1-.4 8.9-4.7 8-6.1-.1-.2-5.7.7-11.1-.8-3.1-.8-6.2-1.7-9.2-2.5-8.9-2.4-16.7-2.6-25.4.7M153.4 27.8c-.6.2-1.2.5-1.7 1l.3.3c4.8-4.8 14-.7 17.9 3 5 4.7 11.3 12.8 19.1 12.1v-.5c-6.2.6-12.6-5.5-16.5-9.6-5-5.4-11.5-9.2-19.1-6.3M163.9 18.5c-4.3 1.7-8.7 4.9-11.3 8.8.1.1.3.2.4.3 5.7-8.8 16.5-11.2 26.3-9.8 9.4 1.3 20.4 6.6 29.6 1.9-.1-.1-.1-.3-.2-.4-5.4 2.7-13.1 1.8-18.7.4-8.3-2.3-17.7-4.4-26.1-1.2M160.7 21.6c-.9.3-9 4.6-8.1 5.7-.7-.9 9.7-5.8 10.7-6.2 5-1.6 10.4-.3 15.4.6 4.8.8 9.8 1.9 14.7 2.3 3.2.3 6.5-.1 9.5-1.3.6-.2 6.5-2.6 6-3.2.1.1-8.9 3.6-9.8 3.8-4.6.8-9.2-.2-13.8-1-8.1-1.4-16.7-3.8-24.6-.7M162 1.6c-.3.1-.4 2.2-.4 2.4-.7 2.4-2.2 4.3-3.7 6.2-1.6 2-3 4.3-4 6.7-.3.7-2 9.2-.5 8.8-.3.1.2-6.4.4-7.1.9-3 2.5-5.7 4.4-8.2 1.6-2 3.1-3.9 3.8-6.4 0 0 .7-2.7 0-2.4M154.9 26.9s-3.3 1.2-2.9 1.7c.1.1 5.7-2.1 6.2-2.2 4.5-.9 9.2.3 12.9 3 3.1 2.3 4.9 5.5 7.4 8.2.7.7 10.3 7.8 10.6 6.1-.1.3-7.1-3.5-7.7-4-2.7-2.1-4.4-4.9-6.6-7.4-5-5.7-12.6-8.2-19.9-5.4M158.5 23.7c-.3.1-5.7 2.5-5.2 3.2-.1-.1 7.5-3.4 8.1-3.6 5.9-1.3 12.5.8 18.3 1.9 5 1 9.8 1.3 14.9.7 1-.1 14-3.4 12.7-4.9.3.3-7.7 3.5-8.5 3.7-4 .9-8.2 1.2-12.4 1-9.1-.5-18.8-5.5-27.9-2M154.1 28c-.5.2 2.9 0 3.2 0 4.2-.1 7.7 1.7 10.5 4.7 2.6 2.8 4.8 6 7.8 8.3.9.7 10.6 5 10.6 3.3 0 .5-8.3-2.3-9.2-2.9-3.1-2-5.4-4.9-7.8-7.7-3.6-4.3-9.1-7.7-15.1-5.7"/></g></svg></svg>