<?xml version="1.0" encoding="utf-8"?><!DOCTYPE svg PUBLIC "-//W3C//DTD SVG 1.1//EN" "http://www.w3.org/Graphics/SVG/1.1/DTD/svg11.dtd"><svg xmlns="http://www.w3.org/2000/svg" xmlns:xlink="http://www.w3.org/1999/xlink"><symbol viewBox="0 0 600.1 509.15" enable-background="new 0 0 600.1 509.15" id="audio"><path d="M578.85 386.75l-6.8 17.85-67.15 11.9c-10.2 39.1-45.9 68.85-89.25 68.85v11.9c0 6.8-5.1 11.9-11.9 11.9H380.8c-6.8 0-11.9-5.1-11.9-11.9V289c0-6.8 5.1-11.9 11.9-11.9h22.95c6.8 0 11.9 5.1 11.9 11.9v11.9c34.85 0 64.6 19.55 80.75 47.6l24.65-4.25c6.8-22.1 10.2-45.9 10.2-69.7 0-108.8-107.95-204-231.2-204s-231.2 95.2-231.2 204c0 23.8 3.4 47.6 10.2 69.7l24.65 4.25c16.15-28.05 45.9-47.6 80.75-47.6V289c0-6.8 5.1-11.9 11.9-11.9h22.95c6.8 0 11.9 5.1 11.9 11.9v208.25c0 6.8-5.1 11.9-11.9 11.9h-22.95c-6.8 0-11.9-5.1-11.9-11.9v-11.9c-43.35 0-79.05-28.9-89.25-68.85l-67.15-11.9-6.8-17.85C6.8 351.05 0 312.8 0 273.7 0 124.95 137.7 0 300.05 0S600.1 124.95 600.1 273.7c0 38.25-6.8 76.5-21.25 113.05z"/></symbol><symbol viewBox="0 0 20 19" enable-background="new 0 0 20 19" id="chat"><path d="M20 7.5C20 3.358 16.167 0 10 0S0 3.358 0 7.5 3.5 15 10 15c.062 0 .12-.005.18-.006C12.143 17.197 14.974 19 14.974 19s-.422-2.32-.623-4.605C18.046 13.248 20 10.595 20 7.5z"/></symbol><symbol viewBox="0 0 32 32" id="close"><path d="M16 0C7.164 0 0 7.164 0 16s7.164 16 16 16 16-7.164 16-16S24.836 0 16 0zm7.914 21.086l-2.828 2.828L16 18.828l-5.086 5.086-2.828-2.828L13.172 16l-5.086-5.086 2.828-2.828L16 13.172l5.086-5.086 2.828 2.828L18.828 16l5.086 5.086z" fill="#444"/></symbol><symbol viewBox="0 0 612 612" enable-background="new 0 0 612 612" id="filter"><path d="M0 0h612v99.45H0V0zm0 172.55h459V272H0v-99.45zM0 340h306v99.45H0V340zm0 172.55h153V612H0v-99.45z"/></symbol><symbol viewBox="0 0 20 14.0053" enable-background="new 0 0 20 14.0053" id="people-list"><g><path d="M7.7 8.335C7.046 8.745 6.303 9 5.5 9s-1.546-.254-2.2-.665C1.36 8.952 0 10.36 0 12c0 2.21 2.462 2 5.5 2s5.5.21 5.5-2c0-1.64-1.358-3.048-3.3-3.665z"/><ellipse cx="5.5" cy="4" rx="3.5" ry="4"/><path d="M20 3c0 .55-.45 1-1 1h-6c-.55 0-1-.45-1-1s.45-1 1-1h6c.55 0 1 .45 1 1zM20 7c0 .55-.45 1-1 1h-7c-.55 0-1-.45-1-1s.45-1 1-1h7c.55 0 1 .45 1 1zM20 11c0 .55-.45 1-1 1h-5c-.55 0-1-.45-1-1s.45-1 1-1h5c.55 0 1 .45 1 1z"/></g></symbol><symbol viewBox="0 0 16.9601 22.219" enable-background="new 0 0 16.9601 22.219" id="phone"><path d="M1.65 1.48s-4.665 2.914 1.694 13.09 11.023 7.262 11.023 7.262l2.126-1.328c.465-.29.607-.904.316-1.37l-2.127-3.402c-.29-.465-.904-.607-1.37-.316l-2.55 1.593s-.847.53-4.027-4.56-2.33-5.617-2.33-5.617L6.953 5.24c.466-.29.607-.904.316-1.37L5.144.467C4.854.002 4.24-.14 3.774.15L1.65 1.48z"/></symbol><symbol viewBox="0 0 611.9998 612" enable-background="new 0 0 611.9998 612" id="picks"><path d="M170.85 282.2l83.3 164.9S389.3 112.2 601.8 0c-5.1 79.9-26.35 148.75 10.2 233.75C518.5 255 326.4 494.7 264.35 612 175.95 500.65 72.25 414.8 0 388.45L170.85 282.2z"/></symbol><symbol viewBox="0 0 612.3668 611.426" enable-background="new 0 0 612.3668 611.426" id="search"><path d="M593.3 592.56c-21.25 21.25-61.2 26.35-82.45 5.95L321.3 407.26c-13.6-13.6-17.85-32.3-14.45-49.3-34 24.65-68 32.3-111.35 32.3-52.7 0-102-20.4-138.55-57.8S0 246.61 0 193.91c0-51.85 20.4-101.15 57.8-137.7 76.5-75.65 201.45-74.8 277.1 1.7 68.85 69.7 80.75 171.7 23.8 248.2 17-3.4 36.55.85 50.15 14.45l189.55 190.4c22.1 20.4 16.15 60.35-5.1 81.6zM311.1 193.91c0-30.6-11.9-58.65-33.15-80.75-44.2-44.2-116.45-45.05-161.5-.85-45.05 44.2-45.05 116.45-.85 160.65 44.2 44.2 116.45 45.05 161.5.85 21.25-21.25 33.15-49.3 34-79.9z"/></symbol><symbol viewBox="0 0 612 612" enable-background="new 0 0 612 612" id="sort"><g><path d="M193.8 612V221h102.85L147.9 0 0 221h102v391zM425.85 0v391H323l148.75 221L612 391H508.3V0z"/></g></symbol><symbol viewBox="0 0 609.4501 487.9002" enable-background="new 0 0 609.4501 487.9002" id="video"><path d="M609.45 243.95c0-90.1-9.35-165.75-27.2-199.75C572.9 19.55 545.7 0 514.25 0H92.65c-28.9 0-56.1 19.55-65.45 44.2C10.2 78.2 0 153.85 0 243.95S9.35 409.7 27.2 443.7c9.35 24.65 36.55 44.2 65.45 44.2h421.6c28.9 0 56.1-19.55 68-44.2 17-34 27.2-109.65 27.2-199.75zm-418.2-163.2l283.05 163.2-283.05 163.2V80.75z"/></symbol></svg>