<?xml version="1.0" encoding="utf-8"?><svg xmlns="http://www.w3.org/2000/svg" xmlns:xlink="http://www.w3.org/1999/xlink"><symbol viewBox="-202 310 206.1 173" enable-background="new -202 310 206.1 173" id="aquarius"><style type="text/css">.st0{fill:#202020}</style><path class="st0" d="M-27.9 460.2c-16.2 38.2-62.7-5.5-60.1-25.5 3.7-20.1 53-29.7 23.4-59.7-5.1-5.1-21.9-14.5-27.7-6.7-1.9.3-3.5 1.1-4.6 2.7 2.8 1.1 2.7.7 1.8 2 1.1-.1 2.2-.2 3.3-.5-2 .8-2.6 1.1-3.3 2 3.6.7 2.5 1.1 2.3 1.8l.1.2c5.4 2.7 16 6 19.4 11.6-4-4.5-8.3-6.2-14.4-8.7 7.4 3.5 12.7 7.7 15.3 13.9-.1.7-.4 1.3-.7 2-3.8-8.8-9.7-15.9-21.4-14.9 13.4.7 17.2 7.1 20.7 16.2-.3.5-.7 1.1-1.2 1.6.6 0 1.1-.1 1.7-.1.8 2.1 1.6 4.4 2.5 6.8 1.6-1.9 4.1-8 4-8-1.2 1.5-3.4 5-3.7 5.2-.4-1.4-.9-2.8-1.4-4.1.3 0 .6 0 .9-.1.1.8.3 1.6.3 2.4.8-.8 4-3.7 4.1-4.7.5-3 .2-6-.9-8.9 1.6 1.9 2.8 3.7 3.1 5.4 4.9 28.1-43 24.1-26.3 57.7 4.5 8.9 15.3 20.2 23.3 23.2-5.9-4-10.8-8.9-14.8-14.8 9.6 10.4 24.1 24.8 39.9 18.9-21.8 7.6-63-35.4-43.9-50-16.5 17.3 40.7 79.3 58.3 33.1z"/><path d="M-42.4 456.8c4.3-6.7-22.1-.4-21.8-.8 3.3 3.5-2.4 3.2 1.9 5.9-.9 0-5.3-1.4-8.1 2.1 8.9-2.5 22.8 4.9 28-7.2.3-.5-.9 2 0 0z"/><path class="st0" d="M-115.7 377.3c.9.5 1.7 1.1 2.4 1.8-.8-1.1-1.4-1.6-1.5-1.7.1.1.6.3 1.4.4-1.4-2.5-4.4-2.4-6-4.4 1.9.7 3.7 1.5 5.4 2.5-2.6-3.6-.1-.1 1.2.1-1.3-1.5-4.1-4.6-6.5-5.6 1.5.6 2.8 1.4 4.3 2-.5-.8-2.8-2.3-2.6-2.5l-.2-.2c-2.6-1.9-5.2-2.6-7.8-2.7 2.4-4.6 3.5-9.6 3.3-14.8.3 5.3-1.6 10.8-5.1 14.9-1.2.1-2.3.4-3.5.7 6.8-6.4 12.2-16.1 3.6-23.5 14.1 16.1-13.8 28.4-24.8 31.3-3 .8-9.5-1.9-13.2-.3-13.2-5.8-19.9-22-15.3-35.3 5-9.5 13.1-18.7 22.9-21.3 1.3-.3 3.8-1.1 5.3-1.4-2.8-.1-4 .3-5.6.7-2.3.6-5.9 2.5-8.3 3.9 2.5-2.2 7.1-5 10-5 3.2-.2 6.1 0 8.7.5-15.6-6.3-38.6 7.6-40.5 32.5-.7-15.6 13.1-31.1 27.4-35.2 23.7-6.7 32.4 28.3 48.7 10.8-17.9 16.7-22.4-17.9-47-12.3-10.8 2.4-24.5 13.9-28.5 24.7-9.7 26.2 14 49.3 38.8 45.8 2.5-.4 4.9-1.8 7.3-2.4 21.3-5.5 12.1-1 30 2.1-1.4-2.2-3-4-4.3-6.1zM-13.6 423.6c.4 1.3.4 2.6-.1 4-.5-1.3-1.6-2.6-3-3.8-1.8-2.5-2.3-3.7-4.9-5.4-.2-.1-1.1-.7-1.3-.8.1 0-1.1-.6-.9-.6-2.2-1.4-4.6-2.3-6.8-2.3-.4-.1-.7-.2-1.1-.3v.4c-.4 0-.9.1-1.3.3.3 2.5 1 4.1 2.2 5.1 1.8 3.9 5.7 4.6 8.8 9.8-2.1 1-6.4 3.8-6.8 5.3 2.7.2 2.7-1.1 5-.5-1.8 2.3-1.7 1.7-2.1 3.2 2.9-.5 3.1-.4 3.1.1-.4.2-.7.5-1.1.7.4-.2.7.1 1.1-.1 0 .1.7-.1.7 0l-.6.6c6.7-.4 9.3-3.9 9.1-7.6 2.2-3 1.9-5.7 0-8.1zM-100.8 365.5c2.3-8.4 9.9-45.5-6.2-44-8.5.8-15.1 53.4-6.6 22.7-.6 9.1-1.3 16.6.5 25.3-2.3-14-.4-32.4 9-43.3-5.5 10.1-15.4 45.8-2.7 55-12.4-11.8-1.1-42.9 4.1-54.5-.3.5-13.2 38.6-3.3 45.2 1.1-4.2.6-3.5 1.9-2.6-.2-1.4-.4-2.7-.8-4.1 1.3 2.8 1.1 2.8 2.3 3.8l.3-4.5c1.3 5.7.5.8 1.2 1"/><path class="st0" d="M-66 439.5c3-.2 8.5-1.5 8-3.3 0 .2 2.1.3 1.8 2.1 1-1.5 1.8-2.8 2-5.4.2-2.5-1.2-7.4-2.7-9.8 10.4 8.3 2.8 16.7-2.9 22.2 15.6-11.9 12.2-31-5.4-23.1.6-.3 2.3 7.8.4 9.6-1.8 1.8-3.5 2.7-3.4 2.6 1.3 1.1 1.3.8.6 1.9.3.2 1.9-.9 2-.9-1.1 1.4-1.6 1.5-2.3 2.3.1.1 4.5-.7 1.9 1.8zM-93.3 449.5c-3.6 9.2-22.9 11.1-22.9-.1h.3c4.7 15.5 30.3.6 19.7-6 10.3 8.1-15.8 17.4-18.5 6 10.2-.4 25.8-8 16.6-11.7-.7 2.3-.4 2.1-1.7 1.5-.1.2.9 2.4.5 2.7-.5-1.6-1.1-2.3-2-2.8-.4 2.4-1 1.5-1.5 1.1h-.1c-4.6 4.1-12.5 3.8-18.3.4-1.9 8.3 11.8 32.6 21.8 17.1-2.5 1.6-5.7 1.8-8.5 1 5.6-.1 12.9-3 14.6-9.2zM-92.8 362c22.2-8 41.6 15.7 41.9 35.8-3.2 18.7-28.8 17.6-33.8 32.9 3.4-6.8 9.6-9.4 16.3-11.8-13.4 7.5-25 23.3-5.3 31.4-30.9-17 25-36.2 28.4-51.2-.7 7.7-5.1 13.1-10.7 18.1-7.8 7-25.4 7.6-24.9 20.9.5 13.2 23 18.8 29.9 7.3-9.5 12.7-33.1 3-27.7-12.7 2.9-8.5 18-6.2 29-19.6 3.8-4.9 5.3-9.6 6-15.5 4.4-38.7-62.1-55.7-60.6-32.8 1.7-1.2 3.1-2.8 5-3.8-.3.4-.5 1.3-.4 2.1 1.8-1 2.8-3.9 4.8-4.5-1.2 1.2-2.3 2.6-3.2 4.1 3.1-2 .1.2-.1 1.1 1.9-1.4 3.8-2.3 5.8-3.6l-.4 1.8zM-103.8 379.8c11.3 5.5 26.1 15.6 14.5 27.7-5.3 2.8-13.7 7.5-15.3 13.8 1.9-3.1 5.2-5.9 8.4-7.5-7.5 6.1-16.4 16.6-7.6 24-12.2-15.3 14.6-21.7 21-29.5-5.2 7.9-36.5 20.2-17.2 28.7-16.5-8.8 10.3-17.5 15.8-24.3 6.2-7.7 8.1-12.1 4.4-22.2-2.3-6.3-29.5-26.2-29.8-14.6 1.2-.3 2.5-1 3.8-.6-2.6 1.5-.3-.3-.9 1.5.4.1 3.1-1.3 3.7-.9-2.3.8-2.8 1.2-3.3 2.4 3.9-.2 2.5 1.1 2.4 1.4"/></symbol><symbol viewBox="-202 310 206.1 173" enable-background="new -202 310 206.1 173" id="aries"><style type="text/css">.st0{fill:#231f20}</style><path class="st0" d="M-198.7 358.6c4.5 11.1 11.8 19 18.3 19.7 3.5.4 6.5-1.2 8.9-4.8l.2-.5c.1-.2.4-.6.6-1.1.5-.9 1.1-2 1.2-2.6l.1-.6-.4.5c-.9 1-1.8 2.1-2.8 3 1.3-1.6 2.3-3.4 2.9-5.4.4-.3.5-.5.5-.7 0-.1-.1-.1-.2-.1.1-.5.2-1 .3-1.4v-.3l-.3.2c-1.9 1.2-2 1.5-1.9 1.7s.2.2.4.2h1c0 .1-.1.3-.1.4-.7.6-2.2 1.6-4.5 3 .5-.8 1.1-1.4 1.7-2 1-1 2.1-2 2.2-4.5v-.3l-.2.1c-.3.2-.5.4-.7.5.1-.4.2-1 .3-1.7l.1-1.3-.4 1.2c-.3.6-.5 1.2-.6 1.6.2-1.3.3-3.5.2-6.4v-.3l-.2.1c-3.8 2.8-5.5 6-6.7 8.4-.8 1.7-1.4 2.8-2.3 2.9-1.4.1-3.7-2.3-9.4-10-6.4-8.7-6.8-16.8-1.2-25.5 2-3 6.9-6.4 13.5-9.2 6-2.5 12.2-4 15.9-3.9 10.8.4 19.2 4.3 24.8 11.6 5.1 6.7 8 16.1 8.6 28.1.5 12.2-1.5 24.5-3.3 32.6-10.7 13.3-8.9 36.4-6.8 49 .1 1.2.2 2.3.3 3.5-1.4-5.1-2.2-8.8-2.3-10.2h-.3c-.1 10.9 3.7 26.1 9.2 36 .5.8.9 1.6 1.4 2.3 3.4 5.4 7.1 8.4 10.9 9 .9.4 1.7.6 2.6.6 2.2 0 4.3-1.3 6.3-4 2-1.9 4.1-4.5 6-7.9 6.8-11.7 8-28.1 9.3-45.5 2.2-30.1 4.5-61.3 38.2-66.3 7.5-1.1 17 .4 25.9 4 9.4 3.9 17 9.6 21.2 16.1 7.4 11.3 6.5 24.2-2.3 35.4-8.2 10.4-21.2 16.1-29.6 13.1-3.9-1.4-8.6-5.4-8.3-16.4v-.8c-.1-.5.4-3.6.7-5.3.1-.9.3-1.6.3-2l.1-1-.4.9c-.8 2-1.5 4-2 6.1.7-5.2 2-10.3 4-15.2l.2-.6-.5.5c-.6.6-1.4 2.5-2 4 .1-.6.4-1.4.6-2.3l.3-1-.6.9c-2 3.4-3.7 7.4-5.1 12 .5-3.4 2.1-6.9 3.7-10.4 1-2.1 1.9-4.2 2.5-6l-.3-.1c-1.1 2.2-1.7 3.2-2 3.7.3-.7.9-2.4 2.6-6.5l-.3-.1c-1.5 3.1-2.3 4.4-2.6 5 .6-1.9 3.6-9.2 5.2-12.9.5-1.1.9-2 1.1-2.6l.2-.5-.4.3c-5 3.7-9.3 10.1-12 17.8-2.7 7.6-3.6 15.9-2.6 23.1 1.4 10.1 6.6 17.4 14.6 20.4 13.5 5.1 27 .9 36.8-11.8 5.7-7.3 9.5-16.6 10.6-26.1 1.2-9.9-.9-19.2-5.6-26-8.5-12.1-23.2-21-39.2-23.6-14.3-2.4-27.8.5-38 8.1-8.1 5.9-13.6 14.7-16.7 26.7-2.6 10.4-3.4 21.7-4 34.4-.2 1.4-.4 2.9-.6 4.3-.3-2.1-.9-3.8-1.8-5 3.2-20.2.9-28.7-4.7-32.9-3.6-2.7-8.2-2.2-12.6-1-1.3.3-2.4.8-3.6 1.4l.1.2c1.4-.7 3-1.2 4.7-1.4 4-.5 7.1 1.1 9.6 3.4 4.9 4.6 7.1 14.3 6.1 29.9-1-1.2-2.5-1.9-4.1-1.8-2.5.2-5.3 2-7.1 4.8l-.2.4c-.3.7-.5 2.2-.1 3.6-.2-.2-.4-.5-.4-.6v-.3h-.1l-.1-.5-.2.6v1.3H-117.7c-.7 2.6-.6 4.1.3 4.7 1.9 1.2 6.6-2.7 8.3-4.2 1.9 4.9.1 8.1-2.1 9.5l.1.2c4.9-2.3 3.6-7.2 2.3-10.1.6-.5 1.2-1.1 1.7-1.6 1.1 1.1 1.8 2.4 2 3.9-.9 6.6-1.9 12.5-2.6 16.5-.1.7-.2 1.3-.3 1.9h.3c.5-2.1 1.6-7.4 2.5-14l.1-.1c.7-1 1.3-2.2 1.9-3.3.2-.5.4-.9.6-1.2-3.3 20.9-8.2 44.8-15.8 45.8-3.6.5-7.7-4.3-12.1-14.1-.2-.6-.5-1.3-.8-2-.8-2.4-1.7-5-2.4-7.7-.8-3-1.5-6.2-2.1-9.6-1.9-10.9-2.1-21.9-.8-31.1 1.7-4.1 3.3-9.3 4.6-14.9 1.9-3.6 4.4-6.1 7.3-7.7l-.1-.2c-.8.3-1.5.8-2.2 1.3 1-1 1.9-1.8 2.8-2.6 8.6-5.8 12.4-4.1 15-1.7l.2-.2c-4.1-3.9-9.5-3.4-15.4 1.6-.5.3-.9.6-1.3.9 4.4-17.4 2.7-35.9-4.6-51.3 4.1 6.9 6.5 14.4 7.2 22.4l.1 1.3.2-1.3c1.1-9.3-.9-18.2-5.7-25.7-4.4-6.9-11-12.5-19.1-16-8.2-3.6-17.3-4.7-25.7-3.2-9.2 1.6-17.4 6.3-23.5 13.6-7.5 8.8-5.8 22.7-1.9 32.8zM-131.9 434.4c-.3.6-.6 1.2-1.1 1.7-.8.7-2 1.3-3.7 1.6v.3c1.6-.1 2.9-.7 3.9-1.7.6-.6 1-1.2 1.2-1.9.9-2.3.9-5.5 0-9.9l.4.4c.1 2.2 1.1 5.3 3 6.8-.1 1.5-.7 3.1-1.9 4.7l-.5.7.7-.5c1-.6 2-1.5 2.9-2.3.8-.7 1.7-1.5 2-1.6v.1h.2c.3-1.1.7-2.2.8-3.1h.2v-.1c-.1-.5 1-5.4 1.7-5.6.1 0 .2.2.3.4.1.1.1.2.1.2l.3-.1s-.1-.1-.1-.2c-1.6-4.2-3.6-6.6-5.8-7.3-1.5-.5-3-.2-4.6.9-3.3 2.2-2.2 6-1 9.7.7 2.5 1.4 4.8 1 6.8z"/></symbol><symbol viewBox="79 328.4 455 302" enable-background="new 79 328.4 455 302" id="cancer"><style type="text/css">.st0{fill:#231f20}</style><path class="st0" d="M502.6 476.2c-.9-1.3-1-1.1 0 0zM282.9 496.2c8 3.9-1.2-.7 0 0zM293.6 502.4c-3.6-1.8-7.2-3.9-10.7-6.2-6.5-3.9-26.7-9.5-36.7-17.6 9.9 8.4 30.8 17.5 47.4 23.8zM246.2 478.6c-2.5-2.1-4.3-4.1-5.1-6.1 1 2.2 2.8 4.2 5.1 6.1zM313.7 509.2c-4.2-1.2-11.6-3.6-20.1-6.8 6.4 3.1 13.1 5.3 20.1 6.8zM192.8 423.9c-.3-.6-.5-1.2-.8-1.8.3.8.6 1.4.8 1.8zM365.2 552.8c-1.5 1.9-2.8 3.7-4 5.4 1.2-1.7 2.5-3.5 4-5.4zM409.1 532.3c-4.9.6-9.7 2.3-14.4 4.9 5.6-2.5 10.7-4.2 14.4-4.9zM180.8 429.5v.6-.6zM97.6 427.8c-.6 1.7 10.5-6.9 0 0zM348.3 621c-1.3-2-2-4.2-3-6.6-.8-2-1.8-4-3.2-6 3 .1 6.6-.6 10.6-1.7 3.3-.3 6.5-1.1 9.4-2.3-.1 0-.6-.1-1.5-.1 9.6-2.4 22.7-7.6 27.4-14.9 1.5-.2 3-6.5 3.6-8.3 2.5-7.4 2.6-15.3.2-22.8-1.6-5-9.2-3.2-8.4 1.6h-.8c-.5.1-1 .3-1.5.2-.3-.1 2.5 4.6.8 15.1-.7 4 .1 4.1-3.2 8.5-3.3 4.3-14.7 9.9-17.2 10.8-8.1 3-4.4-8.4-1.1-15.9 3.2-7.1 19.6-18.2 19.4-18.2-.7.2-3.2.7-3.9.9-5.1 1.7-9.7 4.7-13.2 8.7 6.2-11.1 18.3-25.4 31.9-32.9-19 8.4-47.2 32.3-41.9 51.1-.5 1.8-.8 3.7-1 5.7-4-5 .4-22.5 9.5-35.8-11.9 16.9-14.8 32.7-9.5 36.3 0 .4-.1.7-.1 1v.2c-5.4 1.9-12.2 1-22.1-3.8-1.3 13.9 6.5 23.7 18.8 29.2zM338.1 601.2h.5c-.4.8-.5 1.7-.5 2.5.1 0 .1 0 0 0-1.6-.2-1.6-2.7 0-2.5zM348.5 621.1s-.1-.1-.2-.1c2.4 3.8 6.7 5.9 17.8 6.7.2 0 .2.6.4.6-11.2-.8-15.5-3.5-18-7.2zM85.8 426.7c-1.4 3.9-2.4 7.8-3.1 11.8 2.7-2.3 6.4-4.8 10.1-7.3 1.1.7 2.1 1.4 3.2 2.1.4-1.9 1-3.6 1.6-5.3 10.5-6.8 19.1-12.4 7-8.9-.2.4 5.9-7.6 5.9-7.1 0 2.1 1 2.4 2.2 1.9l.2-.2c.8-4 3.8-6.4 7.4-7.6.6-.5 1.3-1 1.9-1.5.3-.3.5-.7.6-1.2-.1.2.4.2 1.1 0 6.2-4.1 13.2-7 20.3-9.4.1-.3.1-.5.2-.8-16.4 0-14 3.7-10.1 1.6-1 .5-12.6 6.2-20.2 9.6 7.4-6.4 16.2-11 25-13.8 2.6-.1 6-1.2 1.5-.4 11.9-3.4 23.8-3.5 32.3 0-3.3.6-6.5 1.5-9.8 2.7h-.1c-2.8 1-5.7 2.2-8.5 3.6-.4-.1-.3-.1 0 0-31.4 15.2-60.9 50.6-61.6 73.8-.9 32.1 27 68.7 56.5 58 .9.6 1.9 1.1 2.9 1.7-.1-.9-.1-1.9-.2-2.8 3.4-1.6 6.8-3.8 10.2-6.7-4.4-1.7-8-3.6-10.9-5.6 0-.8-.1-1.6-.1-2.4l-1.5 1.2c-17.9-14.2-1.3-33 8.8-36.7 1.7-.2 3.4-.3 4.9-.2 2.8 1.5 2.2 7.3-6.3 19.7.8.8 1.5 1.4 2.2 1.9-.5.5-1 1-1.6 1.5.6-.4 1.2-.9 1.8-1.4.3.1.6.3.9.4-.1 1.2-.1 2.4-.2 3.6l.4-.4v.8c1.6-1.5 3-3 4.2-4.5 1.2-.8 2.6-3 4-6 7.7-9.5 28.1-33.3 13.5-60.4 0 .4-.1.7-.1 1.1.3.8.5 1.6.7 2.5 2.5 7.8 1 16.6-.9 24.6-.8 3.4-1.9 6.7-3.4 9.7-.8 2.8-1.8 5.6-3.1 8.2-1.1 2.3-2.4 4.8-3.8 7.1 1.9-5.3 3.6-11.2 4.7-15.9-.5.9-2.4 4.2-4 7.3-.2-2.7-1-4.9-2.4-6.4-3.7-7.3-12.8-6.7-21-1.1-2.6.9-5 2.5-7.2 4.8-13.5 9.2-23 26.5-6.3 43.8-24.6-4.6-37-71.2 6-95.5 12-6.8 25.1-9.7 38.5-11.9 2 9.6 6.9 19 13.6 27.9-.4-.6-.7-1.2-1.1-1.8 1.3 2-.3-.6-4.9-8l-.6-1.2c2.4 4 4.6 8.3 8.4 11.1 2.3 1.7 14.6 13.7 27.3 25.1-.4.3.4 1 2.2 2 3.1 2.7 6.2 5.4 9.2 7.9-.3-.2-.6-.3-.9-.4 1.5 1.2 2.9 2.2 4.3 3.2.2.1.3.3.5.4 3.2 4 4.6 9.4 15.5 9.4 2 .8 4 1.5 6 2.2-1.4-.8-2.7-1.5-4-2.2h.5c-10.7-6.7-20.8-14.2-30.2-22.6-.4 0-.8-.1-1.1-.1-10.6-10.1-34.4-35-40.8-53.7l.3-.2c.8-.8 2.1-1.2 3-1.5.9 4.5 2.5 9.3 4.7 14.4-1.2-3-3.2-8.6-4.6-14.4 1.1-.3 1.6-.3-.1-.4-.1-.3-.1-.5-.2-.8 3.4-.3 6.9-.4 10.4-.3-5.2-4.5 1.3-1.7-11-3.8v-.7c4.2-.2 8.9 2.2 13 1.7-1.1-1.1-1.4-1.7-1.4-2.1-.6-.1-1.3-.3-2.2-.5 4.8-.3 9.7-.4 14.5-.3-4.8-5.2-10.4-8.4-16.3-10.2-.1-.2-.2-.3-.3-.4 0 0 4.3-16.6 12.1-21.4s1.7-.1 2.5 0c57.7-24.6 209.8 22.6 226.4 86.6 4 15.1 1.1 27.9-5.8 38.2-.1.6-.1 1.1-.3 1.6-.3.8-1 1.6-1.8 1.9-.2.2-.5.3-.8.4-.7.8-1.4 1.7-2.2 2.5-.1 0-.1-.1-.1-.1-1.3-2-2.7-3.9-3.8-5.4-.1 2.2-.3 3.1-.4 3.5.3 0 .8.8 1.9 4.3.4 1.4 1 3.2 1.6 5.7-.5-.5-.9-1.2-1.3-1.8-.3-1.2-.6-2.2-.9-3.1l-.3.3c0-.1-.1-.1-.1-.2-.5-1.4-1-2.9-1.5-4.3v-.1c-.6-1.5-1.3-3.1-2.4-4.3-.3 1.5-.6 2.2-.9 2.4.2.6.4 1.2.7 2-.6-.7-1.1-1.5-1.7-2.2-.8-1.9-1.1-1.9-1-1.3-1.7-2.3-3.5-4.6-5.3-6.8-.3-.1-.6-.3-.9-.4-.8 6.7 1.6 13.7 5.1 21 .8 1.6 1.6 3.2 2.5 4.8-.2.2-.5.3-.7.5-.8-1.5-1.6-3-2.3-4.5-8.5 5.6-18.5 9.6-28.6 12.1-8.7 2.1-18.1 2-26.8 1-5.5-1.4-13.9-3-18.6-3.5-5.8-1.4-9.9-2.8-10.7-3-.8-.2-73-26.1-73.8-23.5 3.7 28.5 86.4 46.4 109.8 46.2 20.7-.2 40.2-6.5 55.5-16.9-.8-1.4-1.6-2.7-2.4-4.1.3 0 .5-.1.8-.2.7 1.2 1.4 2.5 2.1 3.7 7.5 12.9 22.6 27.1 21.9 40.2-2.5 46.9-68.2 75.6-95.9 52.4 1 2.5 1.8 4.8 3.1 6.8 43.9 19.3 143.5-15.6 84.6-110.9l2.4-2.7c2.3.5 7.5 1.1 13.7 1.9l.6.3c-3.4-.4-5.9-.8-8.8.2 5.4-.5 11.1-.5 16.2 1.3 1.4.3 2.6.8 3.5 1.3.4.3.7.6 1.1.9 1.2.8 2.4 1.7 3.4 2.8 1.2 1 2.3 1.8 2.9 2.2.5 1.1 1.1 2.5 1.7 4.1 1.4 2.3 3.7 9.5 3.5 7-.3-4.9 7 18.3 7.5 15.9 1.3-6-14.4-42.4-10.2-36.2 7.9 11.9 29.9 51.9 29.8 76.8 0 .8-6.8-13.3-13.5-27.1-6.5-13.2-12.7-26.3-12.5-25.6.4 1 2.9 6.5 3.2 7.5 2 6.4 3.3 13.1 3.6 19.8 6 17.3 14.3 34.1 25.2 48.3 29.2-48-5.2-129.1-57.3-120.2-.8.2-1.6.3-2.3.5 3.2-8.3 4.6-17.2 3.7-26.4.7 2 1.5 4.9 5.9 8.1.4.3 19.9-11.8 23-11.6 22.2 1.3 36.9 21.1 45.6 32.1-14.2-7-34.9-20.1-34.8-20-7.8-4.1-15.6-1.6-19.7-.3 6.6-1.1 47.5 30.6 60.8 37.7 10.4-43.1-43-82.2-71.5-58.8-6.4 6-9.3 9.1-9.6 11.4-1.6-13.3-8-27.3-20.6-41-32.1-35.2-165.2-100.5-223.7-67.6-.5-.6-1.1-1.2-1.7-1.8-21.6-22.5-57.3-23.4-79.9-3.2-1.4 0-2.8-.1-4.1-.2.5.9.9 1.9 1.4 2.8-2.6 2.7-5.1 5.7-7.2 9h1c1.7-.8 3.4-1.4 5.2-1.9.4-.3.9-.5 1.5-.6.4 0-6.5 5.7-6.1 5.7 2.2-.5 9.6-3.1 11.8-3.3 5-1 10-2.2 15.1-2.6 7-.6 14.1-.5 21 .6 3.5.5 7.3 1.4 10.8 2.8-.1-.1-2.9-4.4-5.4-4.8-21.8-3.3-37.7 1.4-37.8.1-.1-2.2 8-7.4 33.8-7.2 1.6.2 19.3 3.5 18.1 3.5-36.8.9-8.1 8.5-7.6 8.9 4.5 2.2 10.3 1.9 10.8 7.5.1.9-.2 1.6-.7 2.1l.2 2.7c1.5-2.8-4.6 9.1-4.4 6.8-.3-.3-.6-.5-.9-.7-33-21-74.7 3.2-91.6 39.1-2.7 2.1-5.3 4.1-7.5 5.9 1.4.8 2.7 1.7 4.1 2.8zM466.3 511.8c1.3 1.6 2.7 3.5 4 5.5-1.3-2-2.7-3.9-4-5.5zM415.5 514.8c-.3.2-.5.3-.7.5 0-.2-.1-.3-.2-.5l.6-.6.3.6zM428 505.8l-.3.3c-.4-.7-.8-1.5-1.3-2.3-1.1-3.1 0-.9 1.1.7.1.4.3.8.5 1.3zM429 508.9c-.4-.9-.9-1.8-1.4-2.8l.3-.3c.4.9.7 1.9 1.1 3.1zM188.4 357.8c.9.4 1.5.7 1.9.9-.5-.1-1-.5-1.9-.9zM198.1 401.5c6.5 1.5.2-1.4 0 0z"/></symbol><symbol viewBox="-202 310 206.1 173" enable-background="new -202 310 206.1 173" id="capricorn"><style type="text/css">.st0{fill:#202020}</style><path class="st0" d="M-114.1 436.6c-8.2-3.6-12.9-16.6-12.9-21-.1-5.4 1.1-12.3 4.2-17.3-3.3 4.9-6.2 8.3-5.6 16.9.5 8.6 5.5 18.2 14.3 21.4zM-48.9 411.6c-3.1-.8-5.8-1.5-8.3-2.2 2.2.5 4.5 1.1 7.1 1.7-10.3-4.2-20.9-8.1-28.5-13.5 2.1 1.9 4 3.5 5.8 4.8-2.6-1.7-5.6-3.7-9-6.3-15.8-12-30.1-17.5-42.8 1.5 6.8-10.1 13.6-12.6 20.5-11.2-8.1.7-14.7 5.7-18.8 12.5 1.2-1.8 2.6-3.5 4.3-4.9 21.6-19.6 33.9 10.6 52.7 19.3 18.4 8.5 44 8.2 38.3 34.2-2.3 10.3-12.3 20.6-21.9 23.8-39.9 13.3-62.9-58.3-9.6-36.4 3.9 1.3 8.7 7.4 9.3 11.6.3.6.3 1.6.1 2.7-3.6.2-10 0-10.3.8.7-3.8-3.9-4 .5-6.7-5.1-.7-4.5 4.1-3.2 7.8-1-1.2-1.6-3.2-1.8-4.8-.1 1.8.3 3.6 1.1 5.3-.5-1-1.1-2-1.6-3 .7 7.2 6.1 4.1 10.9 4.7-3.3.5-8.1 2-10.6-1.1.6 1.4 1.7 2.3 3.1 2.7-2.5-.2-3.1-2.3-4.5-4 1.8 6.2 10.9 5.6 15.9 5-3 .5-6.1.5-9.1 1 1.5.3 6.1.2 6.1.5l.5.1c22.4.9-1.3-53.1-36.3-31.7-25.6 15.7-2.7 49.2 19.9 53.5 18.1 3.4 35.6-4 44.6-20 15.8-28.3-3.1-38.8-24.4-47.7zm4.3 59.7c12.9-6 22.9-25.6 18.1-39.1-5-13.8-17.1-13.2-28.5-17.5-2.7-1-5.6-2.7-8.6-4.7 15.6 5.6 35.4 4.7 39.7 25 2.8 13.2-7.9 31.6-20.7 36.3zM-148.3 465.6c2.3-12.4-4.7-25.7 3.1-36.9-1.9-.8-1.3-1.7-2.3-3.3 3 3.6 5.5 8.8 12.2 3.9-3 .5-5.8-.2-8.7-1 6.4-.1 12.2.3 18.7-1-4.3.7-18.5 2.2-22.3-2.5-.9 1.4-4.6 5.3-6 7.8 4.3-18.8 25.6 1.1 37.5-11-11.9 9-24.3-3.8-33.2 1.1-5.7 2.5-13.1 43.9-3.3 48.2.2-1.5-.5-4.1.1-5.1 1.5 1.7 1.8 2.1 3 2.6-.3-4-.1-2.2 1.1-2.7"/><path class="st0" d="M-113.1 480.3c-.5-.5-3.2-2.9-3.3-3.2 1.9 0 2.7-.1 3.7-.6-2.9-2.4-.9-1-.8-2.3l-.1-.3c-9-14.7-14-22.2-9.1-30.8.1-.2.2-.6.4-.9.9.7 1.8.5 3.1-2.4-1.3 1-2.1 1.6-2.7 1.7-.3-.2.3-.2-.9-.8 2.7-1.7 5.6-3.7 8.4-5.2-.2.1 1-1 1.7-1.7-3.5 3-8.9 3.8-12 6-3.1 2.2-5.8 6.6-6.3 11.3 1.7 12.4 10.3 33.1 17.9 29.2zM-107.8 424.7c-5.8 9.9-14.8 7.4-20.5 14.8-1.8 2.2-2.5 5.8-2.6 10 .4-4.3 2.3-7.8 5-10.9 10.9-5.5 15.5-6.9 18.1-13.9zM-126.3 363c5.3-10.2 3.8-21.3 14.1-28.6 11.4-8.1 17.4.2 28-4.1-2.9-.2-5.8-1.1-8.7-1.6 6-.7 13.1.9 18 4.4-8.2-6.3-25.5-8.1-35.9-6.2 15.7-6.1 34.6-1.3 44.6 14.5-18-28.5-46.3-20.9-58.4-4.8-4.3 5.7-9.4 16.3-7.7 31.4.4-1.1.3-2.4.9-3.4 1 2.8-.4 0 1.3 1.3 0-1.3-.1-2.5-.3-3.8.9 2.5.9 2.9 1.9 3.9.2-1.3.5-2.6.9-3.9.5 5.1.5.9 1.1 1.1"/><path class="st0" d="M-117.8 361.9c-8.3-5.5-16.3 10.2-14.6 11.3 0 0 1-.1 2.1-.1.3-.5.6-1.1 1-1.5-.1.5-.1 1-.2 1.3.1-.1.3 0 .6.4.1 0 .3 0 .4.1.6-1.4.9-4.9 2-5.9-1.1 4.2-1.2 4.5-.4 6.2.9-2.1 2.1-4.1 3.6-5.9-3.6 7.1-.2 2 .4 1.8l.2-.1c1.7-1.9 4.8.4 2.7 1.2-.4 10.6-9.7 43.9-20.2 36.5-1.4-2-.8-7.9 0-9.5 4.1-14 7.1-27.2 1-43.3-.2-.3-1-2-1.2-2.3-4.6-7.2-10.3-13.3-5.1-23.7-7.3 13.8 2.4 17.5 4.5 26.3 3.2 13.8 3.8 22.8-.9 37.6 2.3-13.4 2.9-22.9-.3-35.7-1-3.9-6.8-8.4-7.2-11-3.6-16.2 5.7-26.7 16.9-32.9-21.3 9.9-22 26.5-15 38.3 1.4 1.6 4 5.5 4.7 8 4.1 15.3-4.2 28.5-1.9 43.6.6 4 1.3 8.1 3.1 9.3 17.2 9.9 32.7-41.4 23.8-50z"/></symbol><symbol viewBox="0 291.4 612 391.6" enable-background="new 0 291.4 612 391.6" id="gemini"><style type="text/css">.st0{fill:#202020}</style><path class="st0" d="M605.7 553.6c.1-.2.1-.4.2-.5.2-.2.3-.3.3-.5.2-.5.3-.8.2-.8v-.1.1c-.1 0-.2.1-.3.2-.4.3-1.1.7-1.8 1-1.9-.4-4.8.6-9.1 3.3-12 31.4-9.4 23.1-25.5 15.1-.8-.4-1.7-.8-2.7-1.3 0 0 10.4 12.1 17.9 11.1 4.4-.6 12.2-19 12.6-18.3.9 1.3 1.9 19.4-10.6 23.7-.2.1-4.1.2-5.3 0-2.6-.5-9.5-.5-9.9-.8-.3-.2-9.3-8.6-13.9-11.9-2.3-1.7 6.6 1.4 3.9-.6-2.2-1.6-4.5-3.2-6.6-4.8-7.5-5.4-14-10.1-14.3-10.5-.2-.2 26.7 12.7 25.4 11.4-8.7-8.1-44.8-37.9-39.5 1.5 0 0 0 .1.1 0 6.5-2.5 4.6-3.7 5.4.9 0 0 0 .1.1 0 .7-.6 3.2-7.1 4.5-7.1 0 0 .1.1 0 .1-2.1 3.8-2.5 7.6-2.2 10.1 0 0 0 .1.1 0 6.1-5.3 3.8-1.4 4.9.3l.2.2c3.6.2 5.5 1.7 6.1-2.7-4.4 22.4 40.6 46.8 57.9 5.2h.1c.2 7.5.8 14 1.1 15.3-2-14.1 5.9-35.6.7-39.6zM46.2 666.3c3.8 13.4 31 9.3 54 2-28.6 5.6-62.6 2.7-50.2-13.4 2.1-2.7 4.4-4.3 7-5.3-8.2.3-14.5 3.5-10.8 16.7zM133.4 652.8c-2.6 3.4-16.8 10.2-33.1 15.4 15.1-2.9 28.7-8.3 33.1-15.4zM133.4 652.8c.2-.2.3-.4.4-.6-.2.2-.3.4-.4.6zM69 678.3c-4.2.6-10.8.5-16.8-1 4.1 1.6 9.6 2.2 16.8 1zM57.1 649.6c8.2-.3 18.4 2.3 22.9 1-8.1-1.2-16.2-3.5-22.9-1zM47.5 648.7c7.9-4.9 19.9-2 28.7-5.7-12.6-5.8-22.9-1.6-28.7 5.7zM39.9 662.4c-1.3 8.6 4.9 12.9 12.3 14.9-12.1-4.8-12.1-19.2-4.7-28.6-3.7 2.3-6.5 6.4-7.6 13.7zM268 655.6c1.9-4.5 2.5-7.3 1.9-10.1-7.2 4.7-6.1 1.4-6.6 0l-.3-.2c-10.8 1.9-23.1 5-33.6-1.1-17.8-10.3-13.9-32-20.1-48.3-4.6-12-7.1-56.7-6.7-12.4-4-13.8-8.2-27.7-12.5-41.4 8.3 26.4 8.8 52.9 7.9 80.2-9.4-34.2-4.9-71.2-22.9-103.1 17.1 42.3 1.5 118 46.7 143.5 11.4 6.4 65.8 14.7 57.8-13.1-1.7.8-10.8 6.1-11.6 6zM32.8 619.1c-9.9-11.1-20.7-34.8-18.7-45.7-8.4 3.7-1.9 28 18.7 45.7zM33.2 578.1c-15.1-13.5-17.6-12.2-19.1-4.7 5.4-2.3 11.9 3.9 27 26.1-1.3-8-2.2-16.2-7.9-21.4zM5.6 566.2c1.9-3.3 5.1-5.2 8.9-6-.5-.1-1-.1-1.5-.2-4.2-.4-6.4 2.2-7.4 6.2zM8.2 593.8c-.6-1.6-4.9-18.3-2.6-27.6-3.2 5.4-3.1 14.4 2.6 27.6zM282.4 407.7c-10.9-7.1-26.3 4.6-36.4.7.8-.7 1.6-1.5 2.4-2.3-.8.8-1.7 1.6-2.5 2.2-2.3-.9-4.3-2.6-5.9-5.5 1.3-.4 2.6-.9 3.8-1.6-1.3.4-2.7.7-4.2.8-.5-1-1-2.1-1.4-3.3.3 1.2.6 2.4 1 3.4-11.8 1-27.4-6-37.4-18.5-4.7-8-7.4-18.3-6.4-30.3 5.4-64.5 61.1-46.7 54.5 3.1-.7-2.8-1.3-5.7-1.8-8.6 1.6 1.2 2.3 1.8 2.6 2.1-.3-.4-.9-1.4 2.1-1-1.6-2.9-3.6-5.5-5.9-7.9 6.5 4.7 5.7 5 9.8 5.8-1.3-3.3-2.4-6.6-3.5-9.9 8.9 10.6 2.3 1.2 4.3.8l.2-.4c-12.8-118.6-133 40.3-60.2 69.5.2 3.1.3 6.1-2.4 9.4-3.8 4.6-31.6-4.4-30.1 11.2 2.1-3.9 6.7-5.2 10.7-5.3-5.4 3-9.3 7.1-11.8 12.2-.7 1.2-1.3 2.7-1.7 4.3-28.1 17.8-29.6 87.4-45.5 141.4-21.2-2.3-19.7 22.3-35 26.2-13.4 3.4-12.5-.8-24.1-4.6-7.5-3.2-4.8-41.6-30-43.9 12.9 5.2 18 14.8 21.3 27.6-8.5-17.8-21.9-27.9-34.5-25.3 28.5 3.3 16.7 15 32.1 36.9 12.3 17.5-2.3 17.9 22.9 25-14.5-.7-16.3-3.5-23.6-15.1-1.7-2.6-3.3-5.1-4.8-7.4 1.2 7.4.2 14.8 6.1 19.5 12.3 9.8 6.2 6.5 20.8 6.4 8.6 2.3 19.9 2.7 36.2-9.5-3 6.6-6.1 12.4-9.6 17.2-5.7 3.6-11.7 6.6-17.5 9.4-.3.1-.6.3-.9.4.1 0 .2.1.3.1 10.2 1.3 19.1-1.4 26.9-6.8-6.5 5.1-13.9 9.8-22.6 13.9-.2.1-.5.2-.8.3 5.9.8 11.7 1.1 16.9-1.5 45.6-23.1 40.8-80.4 51.1-124.2 4.6-19.4 6.3-70.7 32.7-68.2 23.8 2.3 66.3 99.8 73.9 136-3.4-.8-6.7-1.3-8-.7 3.2 1.2 6 3.2 8.9 5.3.4 2.5.5 4.6.3 6 .2-.4.8-1 1.6-1.7 2.8 2.1 5.1 2.4 5.8 2.4-.5 0-1.8.2-4.1.9 1.1.7 8.9 1.8 7.5 1.4 0-3.7-1.3-10.3-.1-13.5 1.2 6.9 4.9 13.4-2.5 15.7 4.7.5 4.7.3 6.1-3.7.8 6.6-4.8 4.1-9.5 5.5 14.4 4.6 14.1-12.4 13.5-22.8.3 4.9.7 9.9 1.1 14.8 1-2.4 1.8-9.9 2.5-9.8l.4-.8c4-32.5-54.4-142-93.2-155.7 3-1.3 6.2-2.7 9.3-4 1.4-.2 2.6-.4 3.6-.6-.4-.1-.9-.2-1.3-.4 9.6-4.1 18.8-8.5 22.2-14.4.5-.9 1-1.8 1.4-2.6 8 3 16.7 2.1 25.1-4.7 10.8 5.6 29.9-6.1 41.9 3.7 15.4 12.6 14 46.8 10.4 79.1 4-31.3 8.6-68.7-15-84.1zM279.8 401.2c13.1 1.9 20 15 23.9 29.6-2.6-16-9.5-28-23.9-29.6zM274.1 401.1c2-.1 3.9-.1 5.7.1-1.8-.3-3.7-.3-5.7-.1zM295.6 507.4c.6-5 1.3-10.2 1.9-15.5-.7 5.4-1.4 10.6-1.9 15.5zM250.7 350c.2.2.3.2 0 0zM254 373.5c1.6 14.8-3 23.8-10.2 27.9 9-2.8 14.4-11.6 10.2-27.9zM415.5 569.9c-.3-.4-.5-.8-.8-1.2-.3.3 0 .7.8 1.2zM554.8 647.1c.1.3-.6.3-1.8.1-4.9-2.5-15.1-7.7-22.8-13.4-8.9-13.2-10.4-23.6-11.4-41.5-1.8-29.9 36.8-136.3.2-158.8-7.9-4.9-15.3-6.5-22.1-5.8-2.9-12.9-1.9-26.7-16.9-29 1.2 1 2.5 1.9 3.9 2.6-7.2-2.6-7.7-.9-9.8-.5 3.8-1.6 8.1-4.1 12.8-7.6 21.6-16.1 19.9-69.7-6.9-80-43.4-16.7-43.2 23-37.8 29.5 1.1-2.1-4.8-3.9-3.3-5.7.8 6.4 6.8.1 9.7 3.8.6-2.7-6.2-5.3-5.8-8 .2 4.9 8.1 7.5 9.7 9.8 4.5-7.3-2.4-3.7-1.2-2.6h.4c5-39 63.7 20.4 18.4 40.4-3 .5-14.2-.1-18.2 3.6 3.2.6 6.3 1.5 9.4 2.6-3.6 1-6.5 1-8.8.3-7.6-11.5-13.5-27.4-16.6-36.8 3.5 22.4 8.4 61.2 36.3 51.3-1.7 5 2.2 20.6 7.6 32.3-7.8 4.9-15 12-21.9 19.4-12.7 13.6-41.4 47.3-54.1 77.3 1.4-19 2.1-37.5 4.5-51.4.6-3.5 20.1-70.7-2.7-9 .2-1.7 8.9-39.6 9.3-51.7-19.5 30.7-17.2 68.2-30.4 101.9-2 12.6 20.8-158.8 57.5-120-38.7-54.1-75.8 183.4-76.1 186.1-13.5-3.6-43.3-17.5-44.1 2.4 3.4-1.1 8.1-3.4 11.9-2.4-7.2 3.8-1-.2-2.6 4.3 1 .1 9.8-3.7 11.5-2.4-5.7 1.7-9 4-10.1 6.7.3 0 .5 0 .8-.1-1.5 2.4-1.3 2-4.2.6 0 .1 2.3 3.9 3 4.6-7.4-4.9-2.5-2.8-7.3-5-1 7.4-1.1 2.5-3.7 4l-.3.2c-3.7 10.6 1.8 16.5 10.5 20.2-4.9-1.2-9.5-2.2-11.7-6.2-3.9-30.9 7-151.4-12-178.2 2.8 11.3 3.4 22.8 1.6 34.3-.8-8.1-1.6-24.1-5.4-38.6 5.3 32.5-7 81.7-8.9 95-.3-5.3.1-11.5.8-18.4-2 16.2-4 30.9-3.8 40.6.3 18.6-5 54.2 4.2 70.7 3 5.4 27.4 26.8 33.1 24.6.2.9.5 1.7 1.1 2.5 2.7-3.2 6.3-13.1 5.3-4 2.2-4.4.1-3.5 2.4-.6 2.4-3-2.4-7.6-2.3-7.8 3.1-1.2 4.4 4.3 5 6 .2-.4.3-.7.4-1 .1.8.5 1.9 1.4 3.1 1.8-4.3 1.7-10.5-1.9-13.7 1.8 1.4 4.2 3.7 5.6 6.4.9-3.4-3.8-9.5-3.7-9.6l-.5-.8c-.8-.7-1.7-1.2-2.7-1.7 11.1 3 23.8 4.2 29.8 7.3h-1c.8.6 1.4 2 2.2 2.6-.2-.9-.2-1.5 0-1.9 1.5 1 2.3 2.2 2.2 3.7.1-.3.4-.7.6-1.2 0 .5-.1 1-.1 1.4h1.1c0 .1-.1.2-.1.3 2.1 0 4 .3 5.9.7-.1.4-.2.7-.4 1.1.6.1 1.2.2 1.9.3 0 .1-.1.2-.1.2 1.9.4 3.8.7 5.7 1.1v-.3l1.8.3v-.2c5.1 1.4 7.7.6 5-10.4 1.5 10.3-.7 11.5-5 10.4.9-9-.2-19.7-3.7-28.2 2.8 9.1 3.4 18.3 1.9 27.7-.4-.1-.8-.3-1.3-.4-1.2-.4-2.5-.9-3.9-1.3 5.1-12.1-1.5-20.7-10.9-26 4.3 0 8.5-1.1 12.6-3.5 8.2-9.8 13-23.8 16-39.5.8 2 1.9 3.9 3.2 5.7 8 10.2 26 16 31.7-5.9-7.5 1.1-9.8 8.9-18.2 7.9 3.1-.9 5.8-2.6 8-5-2.5 1.5-5.3 2.4-8.2 2.7 7.8-1.2-10.7-1.3-6.7-15.1 1.1 3.8 3.2 8.2 5.5 11.7.2-.2.5-.3 1.1-.4-.8.3-.1 2.4.1 0h.2-.2v-.8c.2.2.5.4.7.6.1.2.1.3.1.4v-.3c.5.3 1 .7 1.7 1.1-1.2-5-1.3-8.8-1.6-13.6 1.2 10.3 3.8.2 3.5.1l.3-.6c1.8-21.5 44.3-97 69.4-107.4.9.3 1.8.2 2.7-.4-.4.1-.7 0-1-.2 2-.6 3.9-.7 5.7-.3 59.7 13.9-50.1 198.2 41.9 211.3-24.7-6.9-37.2-38.8-35-62.1 0 5.2 2.4 11.7 6.2 18.5 2.6 11.9 7.8 22.7 16.5 31.2 2.8 2.7 15.2 10.4 23.8 10.8 3.4 1.4 5.8 1.1 6.7-1.4.1.5.4.9.6 1.3.1.8.2 1.6.2 2.3-4.2.5-11.2-.6-11.9-.6.9.1 7.8 1.2 11.9.9-.2 22.5-63-9.8-60.6-29.1-5.9 31.3 63.9 51.3 69.2 26.2 2.3-10.2-11.1-6.1-12.2-8.6zM492.3 564.4c4.3-11.7 6.3-23.8 6.2-36.1-.1 23.2-13.7 46.3-35.6 55.2 13.6-12.5 48.6-60.7 22.7-78.3 30.1 29.4-25 79.1-48.3 91.5-10 5.3-22.4-5.1-31.8 2.8 4.5 4.8 4.2 3.1 1.1 5.9 2.4.3 4.7.1 7-.5-7 3.4-5.3 1.6-8.6 4.5 6.9 3.6 4.7 3.9 3.8 5.5l.1.4c13.7 10.8 25.8 3.3 39.3-1.9 17.4-6.6 29.2-22.7 40.7-35.9 6.3-7.4 29.6-47.6 3.4-13.1zM414.4 415.7c.6.9.3.5.1.2.2.6.3 1.4.3 2.5.2-.3.4-.7.6-1 .2.5-.9-1.9-1-1.7zM414.5 415.9c0-.1-.1-.2-.1-.2s0 .1.1.2zM372.9 634.2c-.4 2.8-.2 1.8 0 0zM372.3 635c.1-.4.2-.7.2-1.1-.3.5-.3.9-.2 1.1zM490.7 401.2l-.3 1.4c.6-.3.4-.9.3-1.4z"/></symbol><symbol viewBox="-202 291.8 206.1 211.2" enable-background="new -202 291.8 206.1 211.2" id="leo"><style type="text/css">.st0{fill:#202020}</style><path class="st0" d="M-102.3 498.5c-.3-.1 1.8-1.8 1.8-2 0 .2-1.5-.1-1.9-.1 1.5.3-1.8 2-2.1 2.2 1.5-1.7 2-2.2-.8-2.2 4.6.4-1 1.6-.4 3.8.4 1.6 2.4-.1 3-.4-.1.1 1.2-.9 1.2-.9M-104.7 500.6s-.1 0 0 0M-93.3 497.2c-.2.1-.5.2-.7.3-.4 0 1.5-2.1 1.5-2.2.1.2-1.5 0-1.9 0 1.4.3-1.5 2.2-1.8 2.6 1-2 1.9-2.5-1.1-2.6 4.7.5-1.4 2.3.4 4.9 1.1 1.6 3-1.5 3.4-1.9-.1 0-.2.1-.3 0M-95.6 500.4c-.1 0-.1 0-.1-.1"/><path class="st0" d="M-79.8 489.3c-2.1-1.9-5.3-2.5-7.9-1.7-.5.1-1 .3-1.4.6-.4-.4-.9-.8-1.5-1.1-3.7-1.8-8.6-1.4-11.5 1.1-2.4-.7-5.3-.1-7.1 1.8 1.8-1.1 4.4-1.7 6.7-1.3l-.2.2c-3.6-.4-8.3 2-10.6 5 2.3-2.8 6.9-4.8 10.2-4.4-.2.3-.4.6-.6 1-3 .1-6.9 2.5-8.4 3.9-1.4 2.1-1.2 5.2 4.1 6.3-1.9-.1-5.6-.6-5.3-3.5.3-3 4.7-5.1 7.1-5.7.9-.2 1.6-.3 2.2-.2-.2.5-.3 1.1-.4 1.7.6-.1 1.2-.1 1.8-.1 0 0 .3-.7.4-.9.2.1 1.2.6 1.4.9 0-.1.8-1.1.9-1.3.1.2.2.5.3.8.6-.1 1.2 0 1.8.1-.2-.7-.5-1.3-.8-1.8 1.8-.9 4.4-1 6.2-.2-.3.3-.3.4 0 1.1.6 1.5 1.5 2.1 2.5 1.6.6.4.2.3 1.4-.5 1.1-.8 2.4-1.6 3.8-1.7 2.7-.1 2.9 2.4 1.1 3.9-.4.4-2 1-2.2 1 0 0 1.6-1.9 1.6-2.2 0 .2-1.4.2-1.9.3 1.7-.2-1.6 2.2-1.8 2.3 1.5-1.7 1.5-2.3-.9-1.2 2.5-1 1.8-.2.6 1.2-.5.6-.8 1-.8 1.3-.6.4-1 .9-1.3 1.5.8 0 1.6-.3 2.4-.4-.3.3-.6.5-.9.7.4 0 .6-.1.7-.1-.1.1-.2.2-.3.4.8-.1 1.6-1.4 2.3-1.3-.6.6-2.3 1.4-1 1.4-.3.2-.6.4-.8.6.9-.2 2.1-.4 2.9-.9-.4.3-1.1.6-1.4 1 .5 0 1.1-.2 1.2-.1l-.2.2c4.7-1.2 10.5-6.7 5.6-11.3zm-21.1 2.5c-.2-.4-.5-.7-.8-.9.2-.3.4-.5.6-.7.3.2.6.5.8.8-.2.3-.4.5-.6.8zm9.2-2c-2-1.2-5.1-.9-7.3.3l-.8-.8c.7-.4 1.4-.7 2.2-.8 5.4-.4 6 1.3 5.9 1.3zM-158.5 498.6c-.3.1-.5.1-.8 0s1.9-1.6 2-1.8c0 .2-1.5-.2-1.9-.3 1.5.4-2 1.8-2.3 2 1.6-1.6 2.2-2-.6-2.3 4.5.8-1.1 1.5-.7 3.8.3 1.6 4.3-.9 4.3-.9M-161.8 500.5s-.1 0 0 0M-150.2 498.1c-.2.1-.5.2-.7.2-.4 0 1.7-2 1.7-2.1.1.2-1.5-.1-1.9-.2 1.4.4-1.7 2.1-2 2.4 1.2-1.9 2.1-2.3-.9-2.7 4.6.9-1.6 2.2 0 4.9 1 1.7 4-2 3.9-2M-152.7 501.1c-.1 0-.1 0 0 0"/><path class="st0" d="M-136 491.4c-1.9-2.1-5.1-2.9-7.7-2.4-.5.1-1 .3-1.5.4-.4-.5-.8-.9-1.4-1.2-3.5-2.1-8.4-2.2-11.5.2-2.4-.9-5.3-.6-7.2 1.1 1.9-.9 4.6-1.3 6.7-.7l-.2.2c-3.5-.7-8.5 1.3-11 4.1 2.5-2.6 7.3-4.2 10.5-3.5-.2.3-.5.6-.7.9-3-.2-7.5 1.9-8.7 3.1-1.6 1.4-2.7 5.3 4.5 5.6-2.4-.1-5.9.6-5.9-2.9.3-3 5.1-4.7 7.6-5.1.9-.1 1.6-.1 2.2 0-.2.5-.4 1.1-.6 1.7h1.8s.4-.7.5-.9c.2.1 1.2.7 1.3 1.1 0-.1.9-1 1-1.2.1.3.2.5.2.9.6 0 1.2.1 1.8.2-.1-.7-.4-1.3-.7-1.9 1.9-.7 4.5-.6 6.2.3-.4.3-.3.4-.1 1.1.5 1.5 1.3 2.2 2.3 1.8.6.4.2.3 1.5-.4 1.2-.7 2.5-1.4 3.9-1.4 2.7.1 2.7 2.6.8 4-.5.3-2.1.8-2.3.8 0 0 1.8-1.8 1.8-2.1 0 .2-1.4.1-1.9.1 1.7-.1-1.8 2.1-2 2.1 1.6-1.6 1.7-2.2-.8-1.3 2.6-.8 1.8 0 .5 1.2-.6.6-.8 1-.9 1.2-.6.3-1.1.8-1.4 1.4.8.1 1.6-.2 2.4-.2-.3.3-.6.4-1 .6.4 0 .6 0 .7-.1-.1.1-.2.2-.3.4.8 0 1.7-1.3 2.4-1.1-.6.5-2.4 1.2-1.1 1.3-.3.2-.6.3-.8.5.9-.1 2.1-.2 3-.6-.4.3-1.1.5-1.5.9.5 0 1.1-.1 1.2 0l-.2.2c4.8-.4 11.1-5.4 6.6-10.4zm-21.3.7c-.2-.4-.4-.7-.7-1 .2-.2.4-.5.7-.7.3.2.5.5.7.9-.2.3-.4.5-.7.8zm9.4-1.2c-1.9-1.3-5-1.4-7.3-.3-.2-.3-.5-.6-.8-.8.7-.3 1.5-.6 2.3-.6 5.4 0 5.9 1.6 5.8 1.7zM3.5 332.8c-1.1-20.1-39-40.6-48.2-40.9-8.3-.7-17 13.9-16.8 14.3.2.6 2.2 1.4 2.8 1.8.8.5-3.3 6.2-1.4.8-.2.6-1.9 1.7-2.5 2 .4-.8 2.3-2.4 1.8-3.2-.2 1.3-3.5.2-4.9 3.4-.3.7 1.2 6.4 1.2 6.4 2.9 7.2 10.7 5.3 15 .7 4.9-5.2 2.5-10.9.9-14.7 4.5-8.2 41.6 11.3 44 29.2v-.2c.6 7.6-3.4 15.2-8.3 20.7-3.5 3.9-8.7 8.5-14.3 8.8-3-.3-6.1-.5-9.1-1.3-6.6-1.8-11.6-6.2-18.8-5.5-8.9.8-18.8 5.7-22.3 14.3 6.3-10.7 22.1-17.2 33.4-10.1-7.7-3.9-15.1-2.1-22.6 1.4-9.1 4.3-11 14.8-18.7 20.6-.3.1-1.4.6-1.6.7-1.4.5-2.8.7-4.3.7h-.2l-.1.1c2.2.1 4.4-.2 6.5-1.3 6.2-4.5 8.4-12.5 14.4-17.4 3.2-2.6 7.6-4.1 11.6-5.1s8-1 11.8.7c3.5 1.6 6.5 3.9 10.2 5.1 2.9 1 7.3 2 9.8 2 10.2-.3 18.9-9 24.3-17-3.8 6.9-9.6 13.5-16.8 17-5.1 2.5-9.9 2-15.3.8-3.8-.9-7.2-2.4-10.6-4.4-1.9-1.1-3.8-2.1-6-2.5-5.2-.8-11.6 1.3-16 4-3.6 2.2-5.9 5.8-8.1 9.2-2.3 3.5-5.2 6.9-8.2 9.2-4.5 2.4-9.3 1.8-14.1.6-.4 0-.8.1-1.3.1 5.4 1.4 10.8 2.6 15.7 0 3.6-2.5 6.2-5.7 8.6-9.3 2.4-3.5 4.7-7.2 8.6-9.2 4.4-2.4 11-4.6 15.9-3.1 4.1 1.2 7.6 4.2 11.7 5.7 3.9 1.4 8.4 2.3 12.6 2.3 8.5-.1 16.3-7.4 21.1-13.7 5.1-6.7 9-15.1 8.6-23.7zM-58.4 312.5c0 .3 1 2.8 1 2.9"/><path class="st0" d="M-10.3 440.5c-.7.2-1.1 1-1.8 1.1.1-.3.1-.6.2-.9l-1.2.6c-.2.5-.4.9-.6.9.1-.2.1-.5.2-.7-7.2 1.8-9-4.3-9.3-5.1-3-.4-4.3-2.3-4.8-3.7-1.2-3.2-.4-6.1-.7-9.3-.2-2.1-.8-7.1-2.8-8.3.9 1.7.7 3.7.4 5.5-1.4-3.8-2-7.9-3.8-11.6 3.1 7.6 1.9 15.2.4 23.1-1.7-8.9 2-22.7-6.6-29 9.1 9.3 1.9 22.8 6.3 33.7 2 5 6.7 9.3 12.1 10.4 3.8.8 14.3-.5 12-6.7zM2.8 423.8c.5-5.3 2.2-11.4.7-16.6.2 6-1.3 11.8-2.4 17.6.4-12.9 4.5-27.9-4-39.3 9.5 13 2.5 29.1 1.6 43.3-.1 2.1.2 4.1-.1 6.3-1.2 6.9-7.3 11.3-11.2 16.6 3.3-6.3 9.7-11.7 9.3-19.4-.4-8 1.9-15.6 2.7-23.5.8-7.2.6-15.3-3.6-21.6-4-6-11.3-8.1-17.3-11.3 4.7 3 10.6 4.6 14.6 8.7 3.8 3.8 5.5 9.2 5.8 14.5.4 6-.6 12.1-1.8 18-.9 4.7-2.5 10.3-1.9 14.8.8 5.6-3.5 10.5-6.5 14.7-3.5 5-5.5 9.8-5.7 15.9-.2 4 .2 8.1.5 12.1.2 2.9 1.1 7.3-.4 10-1.9 3.4-6.9 4.7-10.4 5.1 0 0-1.6-9.5-2.5-11.1-.8 1.4-1.8 2.6-3.5 3.2.6 1 1.2 2 1.1 3-.6-.9-1.1-1.9-1.7-2.8-.6.2-1.2.3-1.7.3.2 1.5.4 3.1.8 4.4-.5-1.1-.7-2.6-1.6-3.5-.2 1.1.1 2.2-.1 2.5h.1c0 2.3.7 4.9 1.3 7.1.5 1.9 1.3 3.6 2.9 4.7 3.6 2.3 10.2 1.7 13.8-.3s7.2-5.3 8.7-9.2c1.6-4.1 1.4-9.2 1.3-13.5-.2-8-1.7-15.8 3.2-22.6 4.5-6.2 9.4-12 8.5-20.1-.4-2.7-.7-5.2-.5-8zM-66.8 460.7c13.4-1.4 29.3-14.9 29.1-29.3-2 13.4-13.4 24.6-26.5 27.3-2.7.5-7.2-.2-12.1-1.1-1.1.3-2.3.7-3.3 1.3-1.6 1.2-3.3 2.3-5.2 3.2 12.8 2.7 39.7 10.3 41.7-9.9-1.8 2.8-4.1 4.9-7 6.4 4.5-4.8 8.7-10 11.3-16.1-5.3 10.4-15.5 20-28 18.2zM-134.5 363.2c0 .1 0 .1 0 0zM-51.7 443.9c0 .4.2 1.3 0 0-2.8-12.7-.6-23.5-7.6-35.6-2.2-3.8-9.6-9.8-10.4-13.8-1.3-6.4-1.9-7.2 5.3-10.2-8.7-7.5-15-8.9-23.2-16.1-3.5 0-9.6-10.4-16.1-10.6-4-.1-9.2 3-13.1 4.3 7.2-1.4 13.5-1.7 19.6 2.7 3.9 2.7 6.1 7 10 9.8 4.6 3.3 10.4 4.5 15 7.8-7.5-.6-19.1-8.9-23.2-12.5-4.2-3.7-8.1-7.8-14.2-5.6 4.9 0 7.9 1.7 11.7 4.3 3.1 2.1 5 6.1 8.2 8.4 4.5 3.2 10.2 4.3 15 6.9-9.3 6.6-2 13.8 2.6 20.2 5.9 8.1 11.2 16.5 12.3 26.8.8 7.6 0 15-2.3 21.4-1.2 3.4-1.8 9-3.2 12.1-3.9 8.1-1.8 2.4-11.1 6.4-.2.8-3.7 2.8-4.8 3.1-2.3 1.5-4.5 3-7 3.8.3.3.8.9-1.9 1.2 3.5 1.3 6.1-1.9 9.3-2.4-2.1 1.5-4.4 2.7-6.9 3.5 4-.2 3.6.1-1.2.9 3.8.5 8.2-.9 11.5-2.5-2 .9-3.9 1.9-5.7 3 6-.5 20.2-2.7 23.7-5.8 4-3.5 2.5-8.2 3.5-12.6 1-4.5 4.2-8.7 4.4-13.4-.4 2.4-.5.6-.2-5.5zm-24.7-56.4c1.1-1.5 2.8-3.3 3.5-2.6-1.4.6-2.5 1.4-3.5 2.6zM-76.9 388.3c-.2.3-.3.5-.5.8 0-.1.2-.4.5-.8zM-65.2 468.7s.1 0 0 0c.1 0 .1 0 0 0zM-65.1 468.7c0-.1 0-.1 0 0l.1-.1s-.1 0-.1.1zM-138.2 361.1c-.5-1.1-1.6-2.1-2.3-2.9-.3-.4-2.2-2.7-2.6-2.7-.3 0-.8.7-1.1.9 1.9 1.6 3.8 3.3 5.7 4.8.2.4.3.7.3 1.1-.1 3.3-5.3 1.9-7.1 1.6 2 .4 7.2 2 7.4-1.6 0-.3 0-.5-.1-.8.4.3.9.7 1.3 1 1.1.7 1.7.9 2.2.8-.4-.4-3.6-2.2-3.7-2.2zm-5.8-4.8c.8-1.2 2.6 1.4 3.2 2.1.6.6 1.4 1.3 1.9 2.1l-5.1-4.2zM-133.8 354.5c-.3 1 .5 3.2.6 4.3.1 1.3-1.1 3.2-1.3 4.4.7-.3 1.9-2.4 1.8-4.1-.1-1.2-1.2-4.4-.2-5.3-.6.2-.7.1-.9.7zM-129.6 353.7c.2.2 2.3 4.9 2.5 5.2-.4-.9-2.2-7.3-2.6-7.5-.7-.5-5.7.6-6.2 1.3-.1.1.4 7.5.3 7.7.2-2.4.7-6.1.8-6.2.3-.3 4.3-1.8 5.2-.5zM-119.2 362.7c-.4.1-.8.3-1.2.3-.2.1-.4.1-.6.2-1.7.7-3.5 1.2-5 .6-2.2-.9-2.2-4.4-3.1-6.3-.4-.7-1.3-3.8-1.9-4.1-.1-.1-.6.1-.9.2h.1c1.4.2 1.6 5.7 2.5 7.2 1.3 2.1 2.8 3.9 5.4 3.7 2.3-.2 6.8-2.4 6.8-2.5-.8.3-1.5.5-2.1.7zM-80.4 473.4l3.7-1.1c-.7.2-1.6.4-2.6.7-.4.1-.7.3-1.1.4zM-154.2 366.9c.1-.1-2.2 2.2-3.6 2.4.9-1 3-2.6 2.7-4.2-.3.3-.6.6-1 .8.2-.4.3-.8.5-1.2-.4.1-3.6 1.7-4.7 2.4.9-.6 1.5-1.6 2.8-2.4-1 .2-2.4.6-2.4.6-2 .6-3.6 1.8-5.5 2.6-1.8.7-3.3 1.1-4.5 2.7-1 1.4-1.2 3.1-2.1 4.6-1.5 2.4-3.4 4.5-4.8 6.9-2.2 3.8-4.8 7.4-7.6 10.8-2.8 3.3-5.6 6.5-7.6 10.3-1.8 3.4-7.3 20.9-6.9 26.4.2 3.4 2 6.8 1.8 10.2-.5 5.8-5.3 14.8-4.8 20.6.5 5.4 4.2 12.2 9.9 13.5-8.8-3.5-10.2-14.9-6.9-22.6-1.7 6.4-1.5 12.5 2.8 17.7.9 1.2 2 2.2 3.2 3 3.3 2.1 7.2 1.9 10.6 3.6-.2.1-.2 2.3.1 3 1.2 2.7 4.6 2.3 6.8 3.2-2.2-1-5.4-.6-6.7-3.3-.5-1-.2-3 0-3-3.1-2.2-7.5-1.8-10.8-4.1-2.3-1.7-4.1-4.6-5.1-7.3-2.3-6.6 1-12.8 4-18.5.9-2.2 1.8-4.3 1.9-6.7.1-2.5-.8-5-1.1-7.5-.3-2.6.1-5.1 1.1-7.6-1.5 6.4 2.8 11.9 1.4 18.2-.8 3.8-2.9 7.1-4.3 10.7-2 5-1.9 9.9 1.3 14.4 1.4 2 3.2 3.2 5.5 4 2.2.8 5.5 1 7.3 2.7.6 1.4 0 3 .9 4.2.7 1 2.1 1.1 3.2 1.4 1.4.3 2.5.8 3.7 1.5 2.9 1.9 5 2.2 8.5 2 1.5-.1 3.4.6 4.8.4 1.1-.1 1 0 1.3-1.8-.4 1.6-.1 1.4-1.1 1.6-.5.1-4-.7-4.9-.6-3.3.2-5.4 0-8.2-1.9-1.6-1.1-3.4-1.3-5.3-2-2.8-1.1-1.3-2.9-2.3-5.1-1.8-1.9-5-2.1-7.5-3-2.7-1-4.5-2.5-5.9-4.9-3.2-5.6-1-11 1.7-16.3 1.4-2.8 2.7-5.6 3.1-8.7.5-4.6-1.9-8.7-2-13.2v.1c-.2-4.8 3.7-20.2 10.5-27.6 3.1-3.8 15.1-14 18.3-24.5-.2.3 12-4.8 14.2-9.5-2 .7-4.2 1.2-6.3 1zM-114.5 465.7c-1.6 2-5.3 10-11.9 9.1-.5-.1-8.2-7.6-10.5-8.2 1.5 1.1 2.7 2.6 3.9 3.9-3.2-2.3-6.1-5.1-8.8-8.1 2.5 3 5.4 5.8 8.1 8.6 2 2.1 4.8 6.3 7.9 7-4.3-.2-8.7-6.1-11.4-8.9-3.4-3.6-7.3-7.4-8.8-12.3.6 4.8 5.4 9.2 8.5 12.6 2.9 3.3 7.1 9 11.8 9.4 5 .4 9.4-4.2 12.5-7.5 1.9-2 8.2-8.7 6.2-11.9-.3.4-4 1.8-4 1.8"/><path class="st0" d="M-150 395.8c-2.4-.1 6.1 15.2 6.4 17.5.4 3 1 6.3-3.4 5.6-2.2-.3-11.8-5.6-12.3-5.4-.6.2 0 1.8.4 2.2-.2-.3-.3-.5-.2-.6 0 0 10.4 5.2 11.6 5.5 4.8 1.4 5.7-1.7 5.4-5.9-.2-2.3-4.8-12.1-4.1-12.6.3 0 6.7 5.7 7.9 7.5-1.4-3.3-10.5-13.7-11.7-13.8zM-169 412.5c4.7 3.8 16.8 11.4 17.4 10.5.5-.8-5.2-5.7-7-7.2 1.2 1.2 4.7 5 5.8 6.2-.1 0-11.8-7.3-16.2-9.5zM-164.1 425c-.2-.2-1.3-.7-1.5-.8l-.3.1c.2.1 1 .7 1.3.8-.3.1-1.4.4-1.6.5v.1c.3-.1 1.4-.4 1.6-.5 2.7 1.6 7 4.1 3.7 5.6-.3.1-12.4 2.1-13.2 3.6.5 0 13.6-2.8 14-2.9 4.4-1-.4-5.1-3.9-6.4 2.8-1.2-5.2-13.5-5.6-12.5 0 .1-1.2 1.1-1.1 1.4 0 0 8.8 10 6.6 11zM-107.2 393.8s0-.1.1-.1c-2.3 2-4.2 5.7-6.3 8.2-2 2.5-4.2 5.6-7 7.1-2.8 1.6-4-1.3-4.5-4.9v.2c.5 3.9 1.8 7.1 5.3 5.1 4.5-2.7 12.3-14.4 12.9-15.2-.2-.2-.3-.3-.5-.4zM-108.5 396.7c0 .1-.1.1-.1.2-1.9 4.1-4.9 10.7-5.9 15.9.3-1 .6-1.9.8-2.6 1.4-4.7 3.3-9.1 5.2-13.5zM-129.1 369.7c-4.2.2-2.9 24.6-3.6 26.3.1 0 .2.1.2.2 2.7-3.4 2.5-13.5 2.8-17.3.2-2.4 1.5-2 1.6-.4.4 3.2.9 13.1 2.5 16 0 0 1.3 1.2 1.3 1.1-.9-1.3-.6-26.1-4.8-25.9zM-132.6 396.7v-.4c-.2.1-.7 1.2-.8 1.1-.3 1-.2 2.2-.2 3.3-.2 1.9-.2 10.1-3.3 9.7-.3 0-.7-.2-1-.5.6.5 1.1.8 1.5.8 3.1-.1 3.1-8.8 3.2-10.8.1-1 .2-1.8.4-2.4-.1-.2.2-.8.2-.8zM-96 433.2c1-.1 2.3-1.2 3.4-1.6 2.4-1 4.9-1.8 7.4-2.5 1.9-.6 3.9-1.2 5.9-1.8 1.6-.1 3.3-.2 4.9-.2-.1-.5-.3-1.7-.3-1.7s-.1-.8-.2-1.1c-.6.2-7.2 1-9.5 1.1-2.7 0-5.8.2-8.4-.7-2.5-.9-2.4-2.7-1.4-4.6 5-2.5 10-5 15-7.4-.2-.3-.7-2-1.1-2.2-.9-.3-8.7 4.4-10.2 5.1l1.9-1.9c.7-.5 6.8-4.8 6.8-4.8-.1-.1-1.7-2.1-1.8-2.3-.5.5-2.8 2.2-3.3 2.5-4.9 2.5-9.9 4.9-15 7-2.3.9-10.5 5.1-11.2.8-.6-3.5 1.9-8.6 3.1-11.6 1-2.6 2.1-5.3 3.2-7.9 1-2.3 1.9-2.6-.2-3.8-.2-.1-1.1-.8-1.4-.8-.5.1-1.5 2-1.8 2.4-1.6 2.2-8.5 11.4-10.8 12.5-1.6.8-1.6-.3-2-2-.6-2.8-.6-5.8-.6-8.6 0-.7-.3-1.2-.5-1.5-.1.1 0 .6-.1.6 0 3.8-.2 7.5.9 11.1 1.4 4.4 5.7-.9 7.3-2.7 1.4-1.6 2.7-3.2 3.9-4.8 1.3-1.7 2.5-4 4-5.4.5-.4.6-1.3 1.3-.5.5.6-.1 1.3-.5 2.1-.9 2.1-1.8 4.1-2.7 6.2-1.7 4.1-3.6 8.4-4.2 12.7-.6 4.6 1.9 5.6 6 4.7 3.2-.7 6.4-1.8 9.5-3.2-3.9 1.8-8.8 4.4-13 3.9-3.1-.4-3.6-3.5-2.8-7.6-.8 2.8-1.3 6.3 1.2 7.7 4 2.3 11.2-1.8 14.8-3.4 1.1-.5 2.1-1 3.2-1.4l-2.4 1.5c-1.3.8-9.2 4.8-7.4 6.9 1.4 1.6 6.7-1.7 8.8-2.8-.3 1.1-.3 2.1.1 3.1 1.5 3 6.3 3.1 9.1 3.2-3.4.9-7 2-9.4 3.9-2.3 1.8-1.4 3.1.4 4-.3.2 20.5 5.8 21.5 4.8.3-.3 1.4-6.2 1.8-6.4-.6-.1-22.6-.5-23.2-.6zm-3.8-12.6c.1 0 .1-.1.2-.1.7-.5 1.5-1 2.2-1.5 0 .1 0 .2.1.3l.1.1c-.9.4-1.7.8-2.6 1.2z"/></symbol><symbol viewBox="-202 291.8 206.1 211.2" enable-background="new -202 291.8 206.1 211.2" id="libra"><path d="M-178.7 425.8c3.5 5.4 12.6 11.5 19.3 10.8 3.2-.3 9.4-2.7 8.4-6.9-.6.4-4.9 4.2-2.3.7l-1.4 1.2s.2-.7.6-1.4c-.6.2-2.2 2.7-3.2 2.7 1.5-1.4 2.1-2.7 2-3.7-1 .8-2.2 1.3-3.5 1.5 3.3-2-5.3-2.9-7.9-4-5.9-2.6-9.8-9.1-10.6-15-5 5-8.7 8.8-8.6 16.8.2 11.3 14.6 27.7 27.3 23.9-4.2-.1-8.3-1.9-11.8-4.2 8 3.4 18.2 5.3 26.1.7-12.3 6.6-35.5-.3-35.9-17.9 2.3 10.5 10.7 14.8 18.9 16.9 6.4 1.7 23.9 1.2 21.4-10.9 3.1 19.3-43.6 12.1-38.8-11.2zM-100.4 352.8c-1.4-1.4-3-2.2-4.7-3-15.5-7-33.7 5.6-37.4 7.6-2.8 1.5-11.2 5.2-12.1 5.4-3.3.6-6.7.6-10.1.4-6.6-.5-13.1-2.1-18.7-5.7-3.5-2.3-6.6-4.9-8-12.2-.4-2.1-.3-4.3.7-6.1 1.1-1.8 2.8-2.8 4.4-4.1-1.9.8-3.8 1.9-5.1 3.6-1.3 1.7-1.8 4.1-1.6 6.2-.5-2.6-.3-5.3 1.4-7.5 1.6-2.1 4.4-3.3 6.9-3.7 4.9-.8 11.4.4 13.6 5.4-1.5-3.7-5.7-5.4-9.4-5.8-4.5-.5-9.9.7-12.6 4.7-2.6 3.8-1.6 8.9-.4 13 .8 2.9 2.1 5.6 4.3 7.7 4.2 4.1 9.9 6.6 15.3 8.6-5.5-1.3-11.2-4.1-15.6-7.7-4.3-3.5-6.1-8.2-6.7-13.7-.5-5.3 1.2-9.9 6.2-12.2 4.9-2.3 11.4-2.5 16.2.3 2.3 1.4 3.8 2.9 4.6 5.5 2.6 9.5-7.3 15-12 15.1 6.2 1.1 12.6-5.5 13.1-10.5.3-3.1 0-5.5-1.7-7.8-1.6-2.1-4-3.8-6.4-4.7-5.5-1.8-12.8-1.2-17.4 2.6-4.5 3.9-4.8 10.1-3.4 15.5.5 2 1.2 4.1 2.1 6 1.2 2.6 3.3 4.7 5.5 6.4 4.9 3.6 10.9 5.6 16.8 6.8 6.1 1.2 12.6 1.8 18.7.6 3-.5 5.5-1.7 8.2-3.2 4.7-2.7 9.3-5.2 14.3-7.4 6.2-2.6 13.5-5.2 20.3-3.8 2.8.6 5.3 2.1 7.3 4.1 1.1 1 2.1 2.1 3.1 3.2 1.2 1.3.3-9.6.3-9.6zM-58.1 440.1c.3 1.1 1.2 1.8 1.8 2.7.8.9 1.1 2 1.8 3 .6.8 1.3 1.2 2.2 1.8 1.1.7 2 1.6 3 2.4 1.8 1.3 4.2 1.7 6.3 1.9 3.2.3 6.4.3 9.5.4 4.8.3 9.8-1 14-3.4 4-2.2 7.8-5.5 10.1-9.5 2.4-4.2 3.1-9.2 2.4-13.9-.4-2.3-.8-4.6-1.6-6.9-.7-2.1-1.2-4.6-2.5-6.5-.8-1.1-1.4-2.4-2.1-3.6-2.3-3.9-4.5-7.9-6.8-11.8-.3 2.7-1.3 11.9-1.5 13.8-.1.9-.4 2-.2 2.9.8-4.4 1.6-8.9 2.4-13.3 1.3 2.1 2.5 4.3 3.8 6.4 1.4 2.3 6.5 13.8 6.7 17.3-1.1-4.6-7.5-17.8-8.6-20.3-.9 2.6-1.8 5.2-2.6 7.8-1.5 4.5-3 8.8-6 12.6 4.8-5.4 6.6-12.8 8.9-19.5 1.2 2.7 2.4 5.4 3.6 8.2 3 7 4.9 15.1 1.5 22.3-1.4 3-3.7 5.5-6.7 7 5.6-4.1 7.1-11.8 6.4-18.3-.6-4.8-2.5-9.1-4.5-13.5-1.5 4.2-3 8.3-5.5 11.9-1.6 2.3-3.5 4.6-6 6.1-2.6 1.6-5.5 2.1-8.5 2.3 11 .6 16.7-9.6 20.2-18.5 3.4 8.3 5.7 18.4-.2 26.2-3 3.9-7.6 6.9-12.4 7-5.6.1-13.2-1-15.4-2-2.3-1.1-4.4-2.8-6-4.9-1-1.2-1.8-2.6-2.7-3.9-.8-1.1-1.7-2.2-3.1-2.6.1 1.2.6 2.4.8 3.5-.4-.4-.9-.7-1.2-1.2.1.5.2 1 .5 1.5-.3-.3-.6-.6-1-.7.1.7.8 1.4 1.3 1.9.3.3 1.3.8 1.3 1.3-1-.6-1.8-1.5-2.9-2.1.1.3.2.7.3 1-.4-.3-.7-1.1-1.2-1.2.3.8.7 1.5 1 2.3.3.7.6 1.5 1.1 2.1-.7-.7-1.2-1.6-2.1-2 .1.4.3.8.5 1.2-.5-.2.3.7-.2.7.1 0 .1 0 .2-.1"/><path d="M-87.9 315c-.8-1.2-1.9-2.4-3.4-2.8 1 2.3 2.5 4.4 2.7 7-.3-.6-3.4-7.7-7.7-8.9-3.1-.9-6.5-.5-9.2 1.2-5.9 3.8-8.5 13.3-3.2 18.7 1.6 1.6 3.4 2.9 7.7 3.6.5.1.1 15.8.3 21 .3 10.4.1 20.7.5 31.1.2 5.4.6 10.7.7 16.1.1 5.3-.2 10.9 1.1 16-.5-7.1-.1-14.2.2-21.2 1 15.2.7 30.5 1.6 45.8-.7-21.4-.2-42.8.6-64.2.2-6 .5-12 1-18 .5 14 .7 28 .5 42-.2 14.1-.8 28.2-.2 42.3.3 7.1.5 14.5 2.1 21.4-3-20.6-1.6-41.7-1-62.4.3-10.3.6-20.6.4-30.9-.2-10.5-.4-39.2-.4-39.3-.1-.3 0-.5.3-.5 4.3-1.4 5-3.2 6-4.5 2.9-3.9 2.1-9.6-.6-13.5-.3-.5 1.2 1.6 0 0zm-15.6 9.3c-.6-.9-.1-2.4.3-3.3.7-1.8 2.1-4.3 4-4.1 1.3.1 2.2.5 2.7 1.4.8 1.4-.2 5.7-2.2 7.2-.5.4-.9.6-1.5.4-.4-.1-2.8-.9-3.3-1.6 0-.1.3.4 0 0zM-104.7 446.2c-.9.7-1.7 1.6-2.3 2.5-1.4 1.9-3.7 2.3-5 4.2-1.7 2.3-4.4 3.3-6.4 5.3-2.4 2.4-5.1 4.7-8.2 5.4l-2.9.7 1.8 2.1c1.3 1.5 2.5 3.1 4 4.5 2 2 4.6 3.6 7.3 4.4 2.7.8 5.5 1.1 8 1.1 2.6.1 5.1 0 7.5.1 1.2 0 13.7.9 17.1.6 3.4-.3 6.9-.9 10.2-2.2 1.5-.6 3.6-1.4 5.8-2.5 2.2-1.1 4.3-2.6 6-4l8.5-6.2-10.2-3.9c-1.7-.5-3.3-1-4.6-1.1 1.5.6 2.9 1.2 4.4 1.8l8.8 3.5-7.3 5.5c-3 2.2-6.6 4-10.1 5 3.4-1.4 6.6-3.5 9.5-5.8l5.6-4.3-6.8-2.9c-3.2-1-6.5-2.7-9.6-4.6-3.2-1.9-6.3-4-9.3-6.2 3 2.3 6.1 4.5 9.2 6.5 3.1 2 6.3 3.8 9.5 5l6 2.4-5 3.6c-1.4 1-2.8 1.9-4.3 2.7-1.5.8-3.1 1.5-4.6 2-3.2 1.1-6.4 1.5-9.5 1.7-3.1.2-6.2 0-9.2-.3-3-.3-5.9-.9-8.9-1.5 2.8.1 5.6.3 8.5.3 2.9.1 5.9 0 8.9-.3s6.1-.8 9.2-1.8c1.5-.5 3-1.2 4.4-1.9 1.4-.8 2.8-1.6 4.1-2.5l2-1.4-2.4-1c-2.7-1.1-5.4-2.6-7.9-4.2s-22.2-16.7-22.9-17.2c-.7-.5-1.4-1.1-2-1.5 5 4.2 10 8.3 15.4 12.5 2.7 2.1 5.4 4.1 8.2 6.1 2.9 1.9 5.8 3.7 9 5.1l1 .4-.9.6c-2.2 1.5-4.7 2.8-7.1 3.7-2.5.9-5.1 1.4-7.6 1.8-5.1.6-10.1.5-14.9.2 0 0-13-.4-15.3-.6-2.3-.2-4.4-.6-6.1-1.3-1.7-.7 2.6-3.4 5-5.4 2.4-2 4.6-4.2 6.7-6.3 1.8-1.9 4.3-4.5 6.3-7 1-1.2 1.8-2.4 2.3-3.4.1-.3.2-.5.4-.8.1-.3.3-.5.4-.8.2-.5.3-1 .3-1.5-.7.4-1.5 1-2 1.6-.6.6-1.2 1.1-1.9 1.5.3-.6.5-1.3 1-1.9-.5.4-1.2.8-1.5 1.4.3-.5.5-1 .5-1.4-.7.5-1.2 1.6-1.6 2.2-.2.4-.9 2.1-1.4 2.3.5-1.3 1.3-2.9 1.6-4.1-.4.3-.7.6-1 .9.2-.6.9-1.4.9-1.9-.8.8-1.4 1.6-2.3 2.4-.7.6-1.3 1.2-1.9 1.9.6-1 1.5-2.1 1.7-3-.5.2-.8.7-1.1 1.1v-.2c-.2.2-.4.3-.6.5-.1-.1-.2-.1-.2-.2l.1.1M-159.6 361c-.3 8.4.5 16.7.3 25.1-.2 7.2-1.3 22.1.3 29.3-.1-2.4-.1-18.1 1-27.5-.3 12-1.7 24.3.8 36.2-2-13-.6-26.2-.4-39.2.1-5.9 3.2-23.5-1.1-28.4-.1 3.5-.7.4 0 4.3-.4-1.6-.7-4.3-.6.7-.8-5-.1-.5-.3-.5"/><path d="M-159.1 357.2c-.9 2.5-.8 2.8-1.3 1.7-.2.8-.6 1.7-.9 2v.1c-2.5 6.9-4.1 14-6.6 20.9-2.4 6.6-6.4 13.9-6.8 21 .5-2.2 1.2-4.4 2-6.5-1.3 4.7-2.6 9.4-3.6 14.1 1.8-8.5 4.6-16.8 8.4-24.6-3.7 10-8.8 21.2-9 32.1.9-10.9 5.4-21.3 9.1-31.4 2.1-5.8 11.5-23.8 8.7-29.4zM-157 359.2c.5 2.6.1 3.9 0 4.3v.1c1.3 7.2 3.6 14.1 4.9 21.3 1.3 6.9 1.6 15.2 4.8 21.5-.7-2.2-1.2-4.4-1.5-6.6 1.3 4.7 2.5 9.4 4.1 14-2.8-8.2-4.6-16.8-5.3-25.4 1.9 10.5 3.2 22.7 8.5 32.2-4.8-9.8-6.2-21.1-8.1-31.7-1-6-2.1-26.3-7.4-29.7zM-35.6 361c-.3 8.4.5 16.7.3 25.1-.2 7.2-1.3 22.1.3 29.3-.1-2.4-.1-18.1 1-27.5-.3 12-1.7 24.3.8 36.2-2-13-.6-26.2-.4-39.2.1-5.9 3.2-23.5-1.1-28.4-.1 3.5-.7.4 0 4.3-.4-1.6-.7-4.3-.6.7-.8-5-.1-.5-.3-.5"/><path d="M-35.1 357.2c-.9 2.5-.8 2.8-1.3 1.7-.2.8-.6 1.7-.9 2v.1c-2.5 6.9-4.1 14-6.6 20.9-2.4 6.6-6.4 13.9-6.8 21 .5-2.2 1.2-4.4 2-6.5-1.3 4.7-2.6 9.4-3.6 14.1 1.8-8.5 4.6-16.8 8.4-24.6-3.7 10-8.8 21.2-9 32.1.9-10.9 5.4-21.3 9.1-31.4 2.1-5.8 11.5-23.8 8.7-29.4zM-33 359.2c.5 2.6.1 3.9 0 4.3v.1c1.3 7.2 3.6 14.1 4.9 21.3 1.3 6.9 1.6 15.2 4.8 21.5-.7-2.2-1.2-4.4-1.5-6.6 1.3 4.7 2.5 9.4 4.1 14-2.8-8.2-4.6-16.8-5.3-25.4 1.9 10.5 3.2 22.7 8.5 32.2-4.8-9.8-6.2-21.1-8.1-31.7-1-6-2.1-26.3-7.4-29.7zM-94.4 352.3c1.4-1.4 3-2.2 4.7-3 15.5-7 33.7 5.6 37.4 7.6 2.8 1.5 11.2 5.2 12.1 5.4 3.3.6 6.7.6 10.1.4 6.6-.5 13.1-2.1 18.7-5.7 3.5-2.3 6.6-4.9 8-12.2.4-2.1.3-4.3-.7-6.1-1.1-1.8-2.8-2.8-4.4-4.1 1.9.8 3.8 1.9 5.1 3.6 1.3 1.7 1.8 4.1 1.6 6.2.5-2.6.3-5.3-1.4-7.5-1.6-2.1-4.4-3.3-6.9-3.7-4.9-.8-11.4.4-13.6 5.4 1.5-3.7 5.7-5.4 9.4-5.8 4.5-.5 9.9.7 12.6 4.7 2.6 3.8 1.6 8.9.4 13-.8 2.9-2.1 5.6-4.3 7.7-4.2 4.1-9.9 6.6-15.3 8.6 5.5-1.3 11.2-4.1 15.6-7.7 4.3-3.5 6.1-8.2 6.7-13.7.5-5.3-1.2-9.9-6.2-12.2-4.9-2.3-11.4-2.5-16.2.3-2.3 1.4-3.8 2.9-4.6 5.5-2.6 9.5 7.3 15 12 15.1-6.2 1.1-12.6-5.5-13.1-10.5-.3-3.1 0-5.5 1.7-7.8 1.6-2.1 4-3.8 6.4-4.7 5.5-1.8 12.8-1.2 17.4 2.6 4.5 3.9 4.8 10.1 3.4 15.5-.5 2-1.2 4.1-2.1 6-1.2 2.6-3.3 4.7-5.5 6.4-4.9 3.6-10.9 5.6-16.8 6.8-6.1 1.2-12.6 1.8-18.7.6-3-.5-5.5-1.7-8.2-3.2-4.7-2.7-9.3-5.2-14.3-7.4-6.2-2.6-13.5-5.2-20.3-3.8-2.8.6-5.3 2.1-7.3 4.1-1.1 1-2.1 2.1-3.1 3.2-1.2 1.3-.3-9.6-.3-9.6z"/></symbol><symbol viewBox="-202 310 206.1 173" enable-background="new -202 310 206.1 173" id="pisces"><style type="text/css">.st0{fill:#202020}.st1{fill:#222}</style><path class="st0" d="M-80.6 386.3c-22.5 3.9 5.5-30.8 11.1-29 4.8 1.5 8.7 16.4 8.6 22.1-.3 22.7-23.9 28.7-36.8 43 5.6-4.5 12.2-8.4 18-12.4-11.5 9.6-35.3 19-29.1 37.1-9.2-29.9 50.4-35.7 53.1-63.9 0 29-41.3 30.1-50.7 52-5 11.6 5 23 3.3 35.5 3.5-18.8-9.9-26.8 2.8-41.7 16.6-19.4 49-21.8 44.5-53.9-3.2-22.9-15.1-30.1-30.6-11.6-25.4 30.2 13.9 37.4 19.8 21.3-8.2 3.4-6.1 2.2-5.6 1.1-2.4.7-4.4 3.2-6.8 3.5 4.8-2.7 4.3-2.1 5.4-4.3-2.8 1.1-5 1.8-7.8 2.7 10.5-4 1.2-1 1.1-1.4"/><path class="st0" d="M-110.8 436.2c-.7 1-.9 2.7-1.3 2.8-.5-1.2-.9-1.9-1.6-2.4-.7 2-1 1.2-1.4.9h-.1c-2.1 2.5-4 5.6-7 7.1-2.5 1.2-5.9.7-9.1.1-9.6-.2-14.2 2.9-19 3.9-.3.1 6.7-.7 7-.8 5.3-.5 8.6-1 13.7 1.4 7.1 3.5 23.8-7.8 18.8-13zM-132.1 471c4.1-1.6 8-6 11.3-8.5 2.4-1.8 17.6-12.9 7.8-6.6 3.2-3 4-6.2 3.8-9.5-.1 5.9-6.5 10.9-12.7 11.4 1.4-.7 18.9-10.8 9.2-16.6 13 8.8-27.1 19.9-23.4 28.4-.2.1 2.9 1.4 4 1.4"/><path class="st0" d="M-133.9 469.9c9.9-16-18.3-23.8-24-19 8.7 1.1 17.8 4.7 18.5 13 .1 1.5-.3 2.7-1 3.5-1.5 3-5 6.6-10.3 10.8 6.8-.9 21.9-.4 27.7-3.6-2.2 0-4.4-.2-6.5-.7 4.4-.8 9.8-.1 13.9 1.4-6-2.6-13.5-3.2-20.1-2.9.4-.5.8-1 1.1-1.5 9.1-1 24.4.6 24.1 10.6 1.4-9.9-13.9-12.1-23.4-11.6zM-107.7 434c6.3-6.5 11.3-18.7 15.7-26.9 2-3.7 6.2-20.3.5-5.4.3-4.8-.2-9.6-1.6-14.2 2.5 10.9.5 16.8-7.3 23.1 6.8-10.4 9.1-16.9 3.7-30.4 2.5 10.6 2.4 15.9-1 24.6-1.7 4.3-19.9 24.1-15.1 30.4.8-.7 1.7-2.7 2.2-2.9.4 1.9.3 2.1.9 3 1.5-2.3 1.4-1.5 1.9-1.2M-50 394c2.4 4.1 9.9 4.8 9.9 4.8-1.6-1-.6-.7 2.4-1.3-2.9-.4-5.6-2.1-6.2-4.6 2 2 7.1 3.8 9.2.8-3.1 4-16.6-10.6-14.7-3-1.1 2.1-.4 2.2-.6 3.3M-62.3 409.2c-.1 2 1.5 4.6 4.8 6.2-.7-1.4.7-.6 2.4-1.6-2.7-.1-3.9-1.6-2-4.9-.4 4.3 4.1 3.2 4.7 1.3-1.2 2-3.5.7-3.5-.5.1-.6-.4-4.1-.5-4.1-.5-.6-2.6.5-3.3 2-1.4-1.7-2.8.9-2.6 1.6M-54.4 400.8c.2.7 2 5.2 6.7 6-1.3-1.5.3-1.1 2.2-1.1-3.3-2.2-4-3.5-3.7-4.8.8 1.3 5.7 4.4 7.4 2.1-3.7 2.4-9.2-11.8-10.7-5.2-1.6 1.7-1.4 2.2-1.9 3"/><path class="st0" d="M-68.3 415.1c-.1.3-1 2.2-2.1 2.7 0 0 2.9.6 2.8.6-1.1-1.8-.3-2.6 3.3-2.3-4 2-1.4 2.3 1.2 2.1-6-.3.9-1.8 1.9-3.5 1.1-1.8-5-.1-6.7.2l-.4.2zM-79.4 421.9c.8-.5-1 4.4-2.4 3 0 0 2.9.7 2.8.7-.2-1.7.7-2.7 2.8-2.5-3.8 2.1-1.1 2.5 1.7 2.3-8.6.3 3.7-3.3 1.8-4.4-1.7-1-5.6 1-3.3.3-1.8.3-2.6.5-3.4.6M-49.5 385.9c5.3 4.3 12.8 3.4 15.1 1.8-3.6.9-6.3-1.7-6.9-2.8 2.5 2.1 7.2 3.2 9.4-1.3-4 6.1-19.6-9.1-17-.9-1.3 2.1-.4 2.1-.6 3.2"/><path class="st1" d="M-136.1 410.4c22.3-5.4-1.6 30.6-8.2 29.2-4.4-.9-10.2-15.1-10.7-21-2-22.4 20.8-29.9 32.7-44.9-5.3 4.8-11.4 9-17 13.4 10.5-10.1 34-21.2 26.1-38.7 11.8 28.2-48.1 38.9-47.4 67.1-3.5-29.1 39.1-33 46.2-55.3 3.7-11.7-9.3-31.4-8.8-43.6-1.1 12.3 12 31.6 8.5 43.3-2.6 8.6-14.6 14-21.1 19.2-17.4 13.9-36.5 37.3-17.8 58.9 16.9 19.3 31.9-16.7 31.1-23.4 0-16.2-22.7-17.8-27.4-2 7.9-3.8 5.9-2.6 5.5-1.4 2.3-.9 4.1-3.5 6.5-3.9-4.5 2.9-4.2 2.4-5.1 4.6 2.7-1.3 4.9-2 7.5-3.1-10.1 4.6-1.1 1-1 1.5M-106.6 357.6c1.5-2.1 3.6-3.6 5.9-5.1 4.5-3 9.5-1.9 14.5-2.8 2.2.1 8.6-1.8 12.6-4.6-6.7 2.7-10.4 3.4-16.9 2.8 6.8-2.5 16.8-.5 21.7-8 .2-.2-58.6 9.5-41.8 19.5 1-1.8.5-1.5 1.6-.9-.1-.7-.3-1.4-.5-2.1.6 1.1 1.1 1.8 1.8 2.2.2-2 .6-1.2 1.1-1M-92 323.6c-4 1.8-7.4 6.3-10.6 9.1-2.3 2-16.5 13.9-7.2 7-1.9 2.9-2.9 6.2-3 9.7-.1-6.4 5.6-11.3 11.7-12.1-1.1.7-17.9 13.4-7.7 16.8-13.6-7.1 24.9-21.7 20.9-29.4 0 0-2.9 1.5-1.9 1.5-.1-1.4-.2-1.8-.6-2.7-1.7 1.8-.6.1-1.6.1M-68.4 337.4c-19.1-2.2-21.3-8.3-5.9-22-6.7 4.3-21.7 4.8-27.2 5.3 2.2-.1 4.4 0 6.6.3-4.4 1-9.9.8-14.2-.4 7.1 2.4 8.7 3.1 23.4 2.2-7.2 2.5-32.3-.1-32.6-11.5-1.3 11.7 30.7 16.1 29.8 15.3-10.2 12.2 22.6 23.3 25 14.2-2.8.7-3.3.5-1.6-.6.2 0-2.6.9-3 .8 1.5-1.3 1.8-1.6 2.1-2.6-4 .3-1.3 0-2.4-1M-113.2 361.6c-5.7 6.8-9.6 19.2-13.3 27.5-1.8 4.2-4.1 20.5 0 5.5.1 4.8 1.1 9.4 3 13.8-3.5-10.5-2.1-16.4 5.1-23.2-5.7 10.5-7 18-.9 30.1-3.1-9.2-3.7-15.9-1.3-24.3.9-3.2 17.4-25.1 12.4-30.9-1.6 1.8-1 1.6-1.9.7-.1.8-.2 1.6-.1 2.4-.6-1.8-.5-2-1.1-2.9-1.2 2.2-1.3 1.6-1.8 1.3M-163.8 397.7c-3.8-5.1-5.4-5.1-7.2-5.5 1.3 1.5.5 1.8-2.9 1.7 2.6.9 3.7 1.5 4.9 3.2-2.8-1.6-6.1-2.5-8.7.6 3.3-4 10.9 9.6 11.8 2.8 1.3-1.8 1.6-2 2.1-2.8M-157 388.9c-.8-3.6-4.9-6.2-5.2-5.7.7 1.1 1 1.6-1.7 1.5 2.2.6 3.4 1.6 1.8 5-.2-4.1-3-4-4.2-1.1.8-1 1.7-1.6 2.6-1.1.8.5 1.1 5.3 1.3 5.5.7.6 3.1-1.4 2.8-2 1.6-.2 1.9.1 2.6-.3M-167.3 404.6c-4-2.9-10.4-4.1-10.4-4.1 3 1.7 1.8 1.4-2.4 1.5 3.6.4 6.5 2.4 6.3 4.1-1.9-2.3-6.7-4.5-9-.2 2.8-4.2 17.5 9.5 15 2.1 1-2.3.4-2.4.5-3.4M-151.5 382.8c.5-.6.5-2.2 2.2-3 0 0-3-.3-2.8-.3 1.3 1.7.1 2.6-3.5 2.7 3.7-2.4 1.6-2.5-.9-2 4.7-.2-.7 1.8-1.6 3.7-.9 1.9 6.8-1.5 3.4-.1 1.6-.4 2.4-.8 3.2-1M-140.6 375.1c-.7.5.3-2.7 2.1-3.3 0 0-3-.4-2.9-.4 1.3 1.7-.1 2.4-2.3 2.6 3.5-2.5.6-2.5-2.1-2 8.5-1.1-3.4 3.6-1.3 4.5 1.8.8 5.4-1.6 3.2-.6 1.7-.2 2.5-.6 3.3-.8M-167.3 412.6c-5.6-4-13.2-2.6-15.4-.8 3.6-1.2 7.2-.7 8.7 1.7-2.7-1.9-9-2-11 2.6 3.6-6.3 20.5 7.8 17.3-.1 1.1-2.3.3-2.3.4-3.4"/></symbol><symbol viewBox="-202 310 206.1 173" enable-background="new -202 310 206.1 173" id="sagittarius"><style type="text/css">.st0{fill:#202020}.st1{fill:none}</style><path class="st0" d="M-175.4 313.6c-4.7 3.3-15.8 2.6-17.5 5s-3 16.1 2.4 18.2c-1.2-1.4-1.9-3-1.9-4.9 1.7 3.1 3.8 6.4 6.9 8.4-5.9-5.2-7-11.2-3.3-18.3-1 7.4-2.1 16.9 10.7 19.3-12.1-2.2-9.8-14-9.4-17.8-.5 1.4.9-1.2.2-1.9 3.8-1.4 15.5.4 14.2-5.9.2 0-1 1-2.3 1 1.1-3.8-.1-.5-.4-1.9M-110.5 317.2c-22.6 13.4-47.2-6.1-64.2 24-7.3 12.9-8.2 33.5-.9 46.8-2.3-5.9-3.5-12.1-3.8-18.4 2 12.8 7.8 24.5 10.2 37.2-3.5-23.5-16.5-45.6 1.8-66.2-17 26.4.5 57.3 1.4 86 1.8-29.9-18.3-60.9 1.5-87.7 16.7-21.6 62.7 0 63.8-27.6-1 1.9-1.6 3.8-3 5.4.2-.8.4-1.8.6-2.6-1.4 2.6-.5 1.8-1 .4-.9 1.2-1.6 4.8-3.1 5.6 2.3-3.8 2.1-3.9 1.5-5.8-1 1.9-2.5 3.4-4.3 4.6 5.3-5.6.2-1.9.1-1.8"/><path class="st0" d="M-104.2 336.8c7.8-12 21.3-4.8 21.4 8.6-.1-14.9-11-23.7-21.1-11.5-16.8 26.9 15.9 28 16.8 18.3-2.1 2.1-1.7 1.2-.8-.7.4-.3-3.4 2.3-3.4 2.3l3.8-3.5s-1.6 1.2-1.2-.2c-1.7 1.7-5.4 3.9-5.4 3.9-12.8 1.9-12-8.8-7.8-15.3.3-.4 1.2-1.9 1.6-2.3 1.1-1.6 1.4-1.8 2.9-2.4 2.2-.8 5.2.7 5.4.8-1-.4-2.3-1.5-2.1-1.5 3.8 1.6 4.8 1.1 9.4 4.6-8.9-9.6-13.6-6.2-19.5-1.1zM-184.6 331.1c44.9 36.9 48.5 39.3 63.5 42.4-3.8-.5-7.8-2.6-11.1-4.6 7.9 2.8 16.5 5.6 24.9 5.6-15.4-1-30-8.3-39.9-20.1 12.9 10.7 36 24.5 53.1 16.7-16.2 5.1-32.4-4.2-45.5-12.8-29.8-19.7-36.1-30-47.1-35.4 2.2 2.8 2.6 3.3 4.7 5-3-.6-2.9-.8-4.5-.4 1.1.9 2.3 2 3.3 2.9-4.6-2.1-1.5-.3-1.6.4M-78.1 370.7c5.6-18.3-17.4-3.6-28.1-8.2-6-2.3-20.2-12.7-30.9-5.1 13.7-8.3 30.6 15.8 49.7 9.7 5.6-2.1 4.5 4.7 3.7 7 1.4-1.9 4.5-3.3 5.4-3.1"/><path class="st1" d="M-106.5 369c-7-3.5-32.8-11.5-31.5-8.9"/><path class="st0" d="M-86.1 370.7c-17.5 10.7-33.7-12.4-50.8-14.3 3.5.5 5.2 2.2 7.9 3.6-.3-.1 0 .1.1.1 0 0-.4-.2-.1 0-5.8-1.9-12.1-3.4-17.5-4.8.1 0 4.4 1.4 3.8 1.1 9.8 3 17.9 7 25.2 14.2-9.5-6.5-27.1-15.8-39.7-15.9 14.6 2.2 25.8 10.7 38.4 16.8 12.7 5.2 24.3 7.9 32.6 5.8 3.2-.8 9.8-4.5 6-7.5-.3 1.1-.9 2.2-1.8 3 .2-2.5.2-.3-.6-1.6-.4.3-.7 3.1-1.6 3.1.7-1.6.7-2.8.1-3.7-1.4 2.5-1.9.6-2.1.3M-84.1 403.2c-2.1-.7-3.1-1.2-4.1-3.7-1.6-4.6 7.4-10.2 8.5-13.8 1.4-4.7 2.3-6.8 1.2-12-.9 7.5-2.2 12.4-8.9 15.8 2.8-3.7 13.7-14.9 5.3-22.3 9 11.1-7.7 19.6-11.1 28.6-2.4 8 11.4 23.6 12.3 11.5-2.2-.2-1.6.1-1.5-1.4-.6.4-1.2.9-1.8 1.5 2-2.6.7-3.5.1-4.2M-113.8 372.8c5.5-.1-2.8 27.1-2.3 29.9.3-1.5.6-2.4 1-3.6.4 3-.1 5.6.6 8.6-.7-6 .7-12.8 5.2-17.1-2.2 5.3-7 18.8-1.5 23.3-6.1-6.5 14.1-43 .7-44.2 0-.2-.6 3.8.2 2.8-2.7-1.6-3.4-.5-3.9.3M-41.1 432.9c18.8-14-.7-58.7-25.6-43.1 2.8-.4 5.9-.4 8.7-.3-3.8.2-11.3 1-19.4.6 10.7 1 28.6-2.4 33.3 9.9-6.3-8.1-37.6-15-40.6-.9 3.7-10.3 29.7-6.7 36.1-1.8 17.4 15.2 3.2 28.1.2 35.3 2.7-.8 2.4-1.2 2.7.3 1-.3.9-2.8 1.7-2.9-.2 1-.4 2.1-.6 3 1-.8 1-.5.2.9.8-.6 2.3-1.8 2.8-2.7-1.5 4.2-.4 1.4.4 1.5M-46.1 428.5c.4-.3.8-.9 1.4-1.1M-102.2 440c-17.8-2.5-12.8-16.3-12.1-27.1-.6 7-5.6 12.2-6.4 19-2.1-8.4 8.8-18.3 3.5-26.2 4.4 9.5-6.8 15.8-5.2 24.7 1.7 7.5 11.7 15.8 21.6 14.6-1.9-1.2-1.5-.6-.7-1.9-.7.2-1.5.4-2.2.6 1.4-.9 2-1.4 2.6-2.2-2.9-.6-.5-.4-1.1-1.5"/><path class="st1" d="M-121.4 429.7c.1-8.4 7-20.3 1.4-27.1"/><path class="st0" d="M-79.1 416.8c.7 3.3 5.1 14.4.3 25.1-2.3 6-5.6 15.8-4.2 23.4.1.4.3-5.4 1-7.1-.1 5.3-.4 10.8.3 16-1.1-9 .2-20.5 6.4-27.6-3.8 10.1-8.1 26-2.4 36.4-5.2-15.6 4.4-30.6 5.5-37.9 1-6.9 2.7-30.8-5-31.2 1.7 1.2 2.5 3 2.4 3.5-.5-1-1.5-2-2.8-2.1 1 1 3.1 3.5-.1 1.4l.8 1.7c-.1 0-1.5-1.2-2.2-1.6zM-73.9 417.1c.2.5.4 1.2.3 1.8M-43.9 426.4c-2.6 7.4-.4 16.5 5.4 21.3-.4-.1 0 0 .1.1-.5-.2-1.1-.1-1 .7.5 3.7-3.4 7.4-3.7 12.6-.3 4.9.5 8.1 1.4 11.3-.8-10.5 4.2-15.7 7.9-24.1-1 9.4-11.7 23-3.4 31.7-8.8-13.2 13.4-29.8.3-39.5 0 .1-.2.3-.2.3 2-3 2.7-16.4-2.3-18.1-.2.7-.4 3.8-.4 3.8-1.2-1.4-1.7-1.8-2.7-2.2-.1 2.8-.6 2-1.2 1.9"/><path class="st0" d="M-51.5 414.4c1.4 2.9 1.2 4.7 1.4 6.8.4 7.1-18.1 12-10.5 10.3-2.2 1.9-4.7 3.3-7.3 4.5 5.6-2.6 11.7-3.8 17.1-6.8-6.1 6.9-16 6.2-23 11.6 10.5-6 26.9-4.9 28.2-20.6.3-3.4-2.8-18.5-9.4-13.5 1.2 1.9 1.1 1.2-.1 2 .7.2 1.5.3 2.3.4-2.9.2-1.3 1.7-1.4 2.3l2.7 3zM-51.1 407.4c.3.3.7.8.8 1.2M-124.3 420.7c-9.1 1.2-20.8 2.9-24.8 11.7-1.2 5.1 2.1 26.4 12.6 26.2-2.9-1.2-4.5-3.7-6.5-5.9 5.4 3.4 9.5 7.2 16.1 8.9-8.6-2.7-23-12.9-17.4-24.4-2 13 15.8 26.7 27.6 23.5-12 1.4-33.2-14.2-25-27.4 3.6-12.2 23.5.6 23.4-10.3-1.5.2-3.4 1.6-4.6 1.4 1-2 1.4-2.3 1.4-3.5-3.1 1.2-2.6.5-2.8-.2"/><path class="st0" d="M-58.7 372.8c-1.8 2.8-6 6.7-6 6.7-1.4 3.4-.4 6 2 15.3.4-.5.9-1.1 1.5-1.7v.1l.1.1c1.5.7 5-2 5.8-2.7-.5-.9-.9-1.9-1.4-2.8.2-.2.4-.4.5-.6 1.5 3.3 3.4 6.3 6 7.7-1.5-2-2-4.4-2.4-6.8 1.7 3.8 3.8 7.4 6.4 10.6-2.8-3.8-4.5-8.7-6.2-13.4.9.3 1.4 1.1 2.2 1.5-2-2-2.9-6.2-5.7-10 5.5 6.9 10.4 19.7 14.8 23.9-.1 1-.1 1.7 0 2.1 0-.4.1-1 .3-2-6.9-7.5-7.6-21-17.9-28zm6.1 14.4s-1.6-1-6.1.3c-.3-.7-.5-7.2-.8-8.1 0 0 .6-1.4 2.1 2.2.2.1 1.6-3.5 1.9 1.4 1.5-4.3 2.9 4.2 2.9 4.2zM-94.5 412.5v.1h.1c.8-2.9 1-4.6 3.9-6.4-3.1.2-3.8 3-4 6.3zM-103.3 419.9c.8-.5 2.4-3 1.9-2.9-.8-1.2-1.8-3-2.7-5.3-.1.8-1.7 2.2-3 3.3-.9-.7-2 .1-2.8 1.6-.8-3.5-1.5-7.3-4.3-9.4-1 2.1-.6 2.1-2 1.4-.3.6 1.4 2.3 1.1 2.7-3.4-3.2-.5-1.2-2.7-2.7-.4 3.9 0 2.1-1.4 2.7l-.2.1c2.3.8 8.6 18.9 12 15.9.5.9 3.1-.1 3.1-.1.1-.8-.9-1.5-2.2-2 .2-.9.4-2.2.7-3.6.6.4 1.4.7 2.2 1 1.4.9 2.7 1.5 4.4 1.5-1.3-.5-3.8-2.7-4.1-4.2zM-94.5 422c.1 0 .1 0 0 0 3-1.7 3.2-4.9 2-8.6-.1.4-.1.8-.1 1.2.5 3.1-.8 5.8-2.7 7.4l-.6.6c.5-.1 1-.2 1.4-.6z"/></symbol><symbol viewBox="-202 310 206.1 173" enable-background="new -202 310 206.1 173" id="scorpio"><style type="text/css">.st0{fill:#202020}</style><path class="st0" d="M-68.9 331.9c0 .3 0-3.6-1.9-5-1.5-1.6-3.4-1-4.7-1.2 2.5 2.2 3.2 2.8.2 5.7.1-4.9-.7-4.8-5-5.5 2.7.1 7.1 20 9.2 11.2 1.6-1.5 1.9-2.1 1.9-2.8l.3-2.4zM-62.3 342.5c.3 0 8.2-6.5 7.6-10.8-.3-1.5-1.3-2.3-2.3-2.4 2.8 2.9-.6 6-4.9 6 3.2-1.8 5.4-6.6-.5-7.8 5.8 1.4-8.6 9.6-3 12.2 1.4 2 2.1 2.5 3.1 2.8"/><path class="st0" d="M-53.8 349.3c3 .5 11-3.4 11.1-6.6.2-1.9-.1-2.8-.2-3.7-1.5 4.2-5.2 3.8-7.5 2.5 3.6.4 8.1-3.3 3.9-7.1 6.2 7.3-18.8 6.5-10.4 11.4.9 2.1 1.7 3 2.5 3.3l.6.2zM-51.1 359.9c2.3 1.1 19.4 2.9 12.5-.3 2.7.5 4.6.2 5.4-3.9-3 4.7-8.2 1.3-10.6-2.1 5.5 3.1 13.4.4 8.5-3.3 3.9 5.7-16.1.6-14.2.2-7.5 1.9-2.6 5.6-3.3 4.5-.4 2.3-.6 3.5 0 4l1.7.9zM-51.7 382.9c.3.3 9.8 4.2 10.3 4.2-1.7 0 3.1-3.4 3.1-3.4-3.8 1.3-6-.3-6.5-5.1 3.3 3.6 7 5.8 8.3-.4-1.8 6.1-17.4-8-14.8.5-.8 2.1-.8 3.4-.4 4.2M-53.1 369.4c1.7 1.6 7.1 5.6 12.4 6.1 3.1.1 4.5-.3 6.7-1.2-4.8.4-8.4-1.4-9.2-6.5 2.8 2.9 9.6 7 13.3 2-5.2 5.5-24.8-14.1-22.2-4.4-1.4 2.1-1.4 3.2-1 4"/><path class="st0" d="M-81.3 337.5c1.2-1.2 2.6-4.4 2-5.2-.6-1.1-3.5-2.7-3.4-1.4.1 2 .3 4.2-3 4.2 4.5-3.2.8-6-2.8-3.8 2.2-.9 3.5-.4 3.8 1.3-3.4 5-5 6.6-1.6 6.6 2.1-.1 5-1.7 5-1.7zM-74.4 388c16.2-12.3 24.2 13.5 35.9 16-1.2-1.6-2.2-3.3-3-5.1 2.2 1.9 5.6 5.1 4.2 8.6 2.8-5.4-8.1-17.7-10.6-21.4 13.4 11.2 15.1 20 6.2 30.2 17.8-15.8-5.4-41.9-26.1-39.2-2.6.3-21.2 7.2-12.4 13.1 1.3-2.6.9-2.3 2.1-1.4 0 0-.1-3 .2-3.2 0 1 .2 2 .6 2.9.4-.9.6-.7.7.6 1.3-2.5 1.6-1.5 2.2-1.1M-74.2 428.3c22.2 5.9 7.7 28.4 15.4 42.1.2-2.4.6-4.8 1.4-7.2.2 3.3.5 10.9-2.8 13.6 5.7-5.2 6-21.6 7.5-28.5 1 15.5 0 29.8-16.2 32.2 22.4.3 21.7-36.8 11.9-50-1-1.3-23.4-18.8-22.8-5.4.9-.4 1.9-.8 2.9-.9-1.5 1.9-.2.1-.3 1.7.2 0 2.3-2.1 2.8-1.9-.8.6-1.5 1.4-2 2.4 1-.2 1 0 0 .9 2.9-1 2.3.2 2.3.8"/><path class="st0" d="M-85.6 398.2c8.5-.7 10.4 3.1 18.1 6.2 2.3.9 15.6 14.8 7.3 3.9 1.3.7 5.7 3.2 5.7 5.1l.1-.8c1.5-2.4-12.4-14.9-12.8-15.4 14.3 10 17.4 13.9 9.1 24.5 16.2-16-7.7-31.5-24.3-32-3-.1-23.1 4.2-15.1 10 .5-.8.4-1.8 1.2-2.4.2 2.2-.1.3.9 1.4.5-.4 0-2.8.7-2.9-.2 1.6 0 2.7.7 3.6 1.2-2.2 1.5-.6 1.8-.3l6.6-.9zM-59.5 453.2c-4-1.1-15.3 5.1-17.2 7.7-1.3 1.9-2.2 3.8-2.2 8.1 1.6-5.4 5.3-7.4 11.1-6-5 1.3-12.9 5.2-8.3 11.6-1.3-2.4-1.2-9.3 8.1-9.4 4.2-.1 6.6-5.2 7.6-7.4 0 0 .9-2.7.9-4.6M-96.7 396c-67.4.1-11.5 57.1 19.7 30.8-4.4 1.7-9 3-13.8 3.8 6.7-2.8 37.2-11.7 16.4-21.4 22.3 11.2-27.2 27-41.1 14.5 7.7 4.6 44.1 4.9 43.5-9.3-.2-4.1-14-9.7-18-9.4 16.8 4.9 21.2 10.9 9.5 17.7-7.6 4.9-32.3 1.7-33.7.3.2.1-13.7-11.2-7.2-15.3 4.8-3.8 23.5-4.8 29-7.4 4-1.9-1.1 1.1 1.3-1.3-1.8-.8-3.3 1.6-4.8 1.2 8.1-5.7.3.8 4.4-2.9-2 0-4 0-6 .4 7.3-3.3.9-.5.9-1.5"/><path class="st0" d="M-171.7 412c-4.8 2.5-5 7.7-5.2 9.3 2-4.4 4.2-6.2 9.4-5.3-3.8 2-10 5.2-7.8 11.4 0-1.9.9-5 2.8-6.9 1-1 8.8-3.9 9.5-5 4.7-7.7 5.1-19.1-2.4-11.5 0 .1 1.4 1.5 1.3 1.8-2.3 0-.8 2.5-3.5 5l-4.1 1.2zM-122.6 399.2c-1.8-2.6-6.1-4.1-8.8-5-5.1-1.7-12.6-.3-18-.1-8.8.2-17 0-25.7 1.4-3.4.5-7.7.4-12.1 4.7 6-3.2 3.5-1.8 11.5-2.9-6.5 2.2-13.8 2.7-18 13.1 5.7-11.7 23.2-13.3 35.1-10.7-16.7.1-27.6 3.3-33.7 12.7-2.1 4.5.7 8.8 6.4 7.5-15.3-2.8 4.5-16.5 15-17.8 14.1-2.6 26.9 1.5 40.4 1.3 2 0 4.2 2.4 6 3 .1-.9-.4-1.7-.4-2.6 2.3 1.1-.2 0 1.7.2-.1-1.4-2.3-1-2.6-1.9 2.5.1 2.4.8 3.9 1-.4-1-1.6-2.9-2.5-3.4 4 1.6 1 .1 1.6-.4"/><path class="st0" d="M-35 378.9c0 .2-.8 3.6.4 7.1.1 1.4.5 2.1.6 2.3.2 1.2.6 1.4-.2 3.7 3.8-4.5-.4-10.2-.8-13.1zM-28.8 390c-.4 5.1-5 8.4-7.1 9.6 0 0 .6 0 2.1-.4 1.2-.2 6.2-2.2 5-9.2zM-32.2 369.2c.6-.9 1.5-2.7-.3-3.8.5-.2 1.6-6-1.9-5.9.2-.1 1.2-.6.9-1.7-4.6-25.2-18-50.6-48.2-36.1-2.4 1.2-8.9 4.1-13.5 7.5-9.2-16.8-25.8-30.4-36.3-4.5-1.5 5.8.2 12 2.5 14.5-1.9-4.8-2.2-7.5-1.2-11.8-.2 7.6 3.3 16.2 9.5 20.8-6-4.9-15.1-30.2 2.6-31.1-22.1 9.8 1.2 43.5 10.4 32.1-15.1 8.6-28.5-28.8-6.9-30.3 4.6.8 8.3 10.2 11.3 15.6-.4.8-.7 1.5-.9 2.3-.1.4-.1.9 0 1.3-2-3.5-2.2-6.7-7.7-11.1 4.5 3.7 3.8 9 3.5 13.9-1.9-4.5-3.1-14.3-10-15.2 9.6 2.5 5.8 24.2 17 21.1 1.5-.4 3-1.8 4.2-3.5 1.9.2 3.7-1.9 4.8-4.9 0-1.8.5-1.7.7-2.3 4.8-1.6 7-5.9 12.1-7.7 26.9-9.1 29.8 2.6 38.2 24.3 2.5 8.5 2.5 12.2 8.2 22.9.1 1.2.2 2.4 0 4.6.9-.3 1-3.3 1-3.1.8-1.3-.4 6.6.3 6 3.4-7.7 2.3-13.9-.3-13.9z"/></symbol><symbol viewBox="-202 310 206.1 173" enable-background="new -202 310 206.1 173" id="taurus"><style type="text/css">.st0{fill:#231f20}</style><path class="st0" d="M-76.2 408.7h.2c31.9-19.4-8.5-66.9-33.2-72.6 3.8 2.5 7.4 5.2 10.7 8.3-7.6-4.4-17-9.8-22-17.3 9.1 14.6 28 21.5 38.6 35.2-12.3-12.6-51-27.3-38.5-49.2-15.2 21.4 28.6 38.6 39 51.9 9.2 11.9 9.3 20.4 4.6 33.8-.5 1.4-2 2.6-3.8 3.9-1.3-.6-2.8-1.4-2.5-1.9l-.2-.3c-15.8-11.2-45.7-11.3-53.9 9.3-1 2.4-.7 5.7-1.7 7.8-1.3 2.7 2.4 7.4.9 10.3-1.5 2.9-6.3 1.3-7.3 3.3-6.8 13.7-6.5 16.5 3.3 23.6-.1.5-.1 1 .1 1.5 3.9 11.3 16.6 12.5 28.7 10.8 13 1.2 26.6-1 31.6-9.2-7 8.8-19.2 10.2-31.2 9.2 1.3-.2 2.6-.4 3.9-.7-4.4-.1-8-.1-11.7-.3-6.7-1.3-12.7-3.4-16.5-6.1-1.7-1.1-2-2.2-1.7-3.1 1.5 1 3.2 2.2 5.1 3.5-1.1-.8-1.7-1.6-1.9-2.4.4.2.9.4 1.5.7-.3-.3-.5-.6-.7-1 .5-.2.8-.3 1.3-.4 2.2.2 4.6.2 4-1.3 0-.1-.1-.2-.2-.3 1.6-1.1-.5-1.5-3.5-2.6 0 0-.1 0-.1-.1.7-.9 1.3-1.7 1.5-2.4-1-.2-2.8 0-4.7.5-1.7-1-3.4-2.1-4.9-3.2-.6-.8-1-1.7-1.3-2.8-3.1-12 11.3-6.1 12.4-16.4.8-5.6-1.1-11 .2-16.6 6.1-16.4 31.1-10.6 44.6-4.2-.2.4-.2.8-.3 1.3.6-.2 1.2-.4 1.6-.6.8.4 1.5.8 2.2 1.2.3.2-.7 2.4-.8 2.7 1.2-.5 2.1-1.3 2.4-2.3.2-.2.5-.3.8-.5.1.2.2.5.2.8.1-.3.1-.7 0-1 .2-.1.3-.2.5-.3.1 0 .1.1.2.2v-.3c1.1-.7 2.2-1.5 2.7-2.1-2.4 2.9-1.8 1.7-.2 1.7zM-140.8 319.9c1.5 3.2-3.6 15.3-7.8 26 5-11 10.4-21.8 7.8-26zM-132 397.2c-2.4-2.7-2.2-1.9-.7-2.7-.3-.3-3.1-.6-3.3-1.1 2.3.2 3 .2 4.1-.3-1-.6-2-1.3-2.8-2.1 3.9 1.2 1.2 0 1.4-.6v-.2c-6.6-8.9-14.1-14.1-14.7-26.3-.4-7.8 5.9-15.9 5.1-23.6-.8 2.1-2.2 4.9-3.2 7 .7-3.1 1.8-5.6 3.1-8.1-3.8 7.3-7.9 14.2-10.7 22.7.2-3.1 2.6-9.3 5.3-16-3.8 8.5-7.3 17.2-6.5 23.1.6 5.7 12.6 34.3 22.9 28.2zM-138.9 330.2c-1.2 2.8-2.4 5.4-3.7 8 1.3-2.4 2.6-4.9 3.7-8zM-140.8 319.9c-.1-.2-.2-.4-.4-.5.2.2.3.3.4.5zM-84.3 458.2c-13.8 6-36.8 5.7-46 2-1.6-.6-2.9-1.2-3.9-1.6 8.2 9.5 35.2 8.7 49.9-.4zM-77.5 434.1c6.1 10.6 1.7 18.8-6.8 24.1 9.9-4.3 15-12 6.8-24.1zM-42.5 442.5c-7.3-20.1-17.6-40.2-28.2-28.8 1 .7 3.7 1.5 4.2 2.2-2 .6-2.6.7-3.4 1.6 3.4 1.3 1.7 1 1.6 2.1v.2c5.4 4.4 12 7 16.4 12.8 4.2 5.5 10.2 35.2 8.7 18.5 1.9 5 3.6 10.1 5 15.3-2.2-7.8-3.4-15.8-4.3-23.9zM-40.2 449.3c1.3 9.3 2.1 19.2 7.7 25.4-.5-.8-3.4-12.4-7.7-25.4zM-43.1 436.4c.2 2 .4 4.1.6 6.1.8 2.3 1.6 4.5 2.3 6.8-.7-4.6-1.4-9.1-2.9-12.9z"/></symbol><symbol viewBox="-202 291.8 206.1 211.2" enable-background="new -202 291.8 206.1 211.2" id="virgo"><style type="text/css">.st0{fill:#231f20}</style><g id="lXMLID_23_"><path class="st0" d="M-92.4 382c-7.9 3.4-9.8 16.6-11 19.5-1.3 3.2-1.6 5.6-3.8 15.2-.8 3.3-7.2 17.1-8 20.3-.4 1.8-3.2 12.8-3.7 16.5 1.1-4 1.6-5.4 3-9.3-.6 3.8-1.6 7.3-1.5 11.4.7-2.8 7-23.6 12.2-32.3-1.5 4.6-7.2 23.1-8.8 27.7-2.3 6.6-7.9 16-5.8 13.1 9.4-9.1 14.6-36.7 17.3-44.4 2.6-7.5 4.9-15.4 8.9-22.3 2-3.4 4.6-9.3 14-10.1 1.7-.2 4-.2 5.3-1.4-1.2-.6-12.3-6.4-18.1-3.9z"/><path id="lXMLID_2_" class="st0" d="M-43.8 386.4c11.2.4 22.2-16.4 28.6-32 .8-2.3 3.3-12.5 2.3-14.8 0 3.6-1.7 15-11.9 23.7 12.1-15.9 9.7-28.7 8.8-35.3.1 16.5-8.9 33-12.4 37.5-1.8 2.2-12.6 13.1-23.4 15.3-1.6.2-7.6 1.7-8.3 2.9 1 .3 15.4 3.3 16.3 2.7z"/><path id="lXMLID_57_" class="st0" d="M-77.9 370.8c.7 1 1.8 1.2 2.6 2s5.3 4.2 9.8 2.1c14-7.4 15.7-23.1 15.1-28.1-.3-2.6-1.3-5-2.4-7.4-1-2.2-2.6-5.4-5.1-6.3 2.4 2.1 3.7 5.2 4.3 8.3-2.8-5.8-7.4-11.3-13.6-13.7 10.4 4.7 16.6 18.6 9.5 28.6 1.7-5.3 1.7-11-.4-16.2-2-5-5.9-9.4-11-11.3-2.5-.9-5.8-1.5-8.2-.1 6.5-2.2 13.2 2.5 16.5 7.8 3.6 5.8 4 13 1.8 19.3-.8 2.3-3.3 10.2-8.9 10.8-1.7.1-8.2-2.9-9.2-2.8.3.8 1 1.5 1.3 2.3-.4 0-.9-.2-1.3-.5.2.3.2.7.6.9-.3-.1-.7-.3-1-.2.1.5 2.6 1 2.7 1.3-1 0-1.9-.3-2.9-.4.1.2.3.4.4.6-.5-.1-.8-.5-1.3-.5.4.5.8.9 1.2 1.4.4.5.7.9 1.2 1.2-.7-.3-1.4-.7-2.1-.8"/><path id="lXMLID_3_" class="st0" d="M-78.8 327c-3.4 2.1-5.9 7-6.4 8.4-.9 2.6-1.3 5.3-2 8-.8 3.1-2.2 5.8-2 9.1.1 1.6.5 3.2.8 4.8.3 1.5.9 3.5 2.4 4.2-1.4-2-1.4-4.3-1.3-6.7 1.4 4.6 3.1 9.8 7.5 12.4-3.3-2.4-5.3-6-5.8-10.1-.5-4.6 1.1-9.3 3.8-13-1.5 5.2-2.7 10.8-.9 16.1.8 2.4 2.2 4.5 4.4 5.9 2 1.2 4.6 1.7 6.6.4-8.9 2.3-11.1-8.9-10.9-12.4.3-6.1 2.3-14.2 3.3-16.5.9-2.3 6.7-3.1 7.6-4 .3-.3 1.8-2.1 2.1-2.4-.4-.4-.8-.2-1.2-.5.2-.3.6-1.1.7-1.4-.6-.4-1.8 1.3-2 1.1.5-.7 1.1-1.3 1.7-1.9-.2 0-.4-.1-.5-.1.3-.3.8-.3 1-.7-.5-.1-.9 0-1.4 0-.4 0-.9-.1-1.3.1.5-.4 2.1-.3 1.5-1.1s-7.7.3-7.7.3z"/><path id="lXMLID_4_" class="st0" d="M-87.1 429.4c2.1-2.4 3.2-8.8 3.2-13.5-.4 8.8-6.1 16-13.3 20.6 3.2-4.2 6.8-8.2 9.2-13 1.2-2.4 2.1-5 2.3-7.8.2-2.5-.2-5.6-2.1-7.5 2.5 3.6 2 8.3.4 12.2-1.7 4-4.5 7.5-7.3 10.8-2.7 3.1-5.4 6.3-7.4 9.9-1.1 1.9-9.9 17.1 1 24.6-.2-.7-1.3-4.9-1.1-5.5.8.4 2.9 1 3.3.9-.1-.3-.4-.5-.5-.8-.1-.4-.1-.7-.3-1 .4.4.7.8 1.3.9 0 0-10.4-6.6 11.3-30.8z"/><path id="lXMLID_36_" class="st0" d="M-55.7 389.7c17 5.3-2.6 20.1-5.6 22.6-2.8 2.4-5 5.1-6.7 8.4-.7 1.4-1.5 2.7-2.2 4.2-.6 1.3-1.3 3-1 4.5.7-2.8 2.4-5.2 4.2-7.3-2.5 5.4-5 11.1-5.6 17.1 1.7-11 8.5-20.4 18.2-25.7-7.4 7.5-15.2 16.1-16.6 27-.4 2.8-.4 6.1.8 8.7-3.5-12 5.3-23.2 13.2-31.1 4.1-4.1 8.6-8 11.7-12.9 4.9-7.2 4.7-15.2-4.3-20.8-2.4-1.5-6.4-3-8.7-.4.7.5 1.7.5 2.4 1.1-.4.1-.7.8-.3.8-.3 0 1.8-.2 2.2.4-.9.2-3.1 1.2-3.4 1.5.5.2 2.2 1 2.8 1.1-.6 0-1.4-.1-1.9.2"/><path id="lXMLID_35_" class="st0" d="M-66.1 452.2c11.8 5.1 44.7 0 49 .4 2.3.2 9.2.5 11.9 3.9 0-.1-.1-.1-.1-.2 1.7 2.8.2 6.2-1.3 8.7-1.6 2.6-3.8 4.8-6.1 6.8-4.3 3.7-19.6 10-22.3 10.7-6.2 1.5-12.4 2.2-18.7 2.7-3.3.3-6.7.4-9.8 1.4 7.1-.7 14.3-.6 21.4-1.1-12 2.2-24.3 2.1-36.5 2.7-3.5.2 26.2.8 44.3-2 17.2-4.8 21.5-7.7 26.8-11.7-9.2 11.9-30.2 14.4-36.7 15-15.1 1.3-30.2-.1-45.3 1.3-7.8.8-16 2.1-23 5.8 13.6-6.1 28.9-6.1 43.5-5.9 14.5.2 29.3.6 43.4-3.3 5.4-1.5 10.6-4.9 15-8.4 5.3-4.1 10.6-9.5 12.5-16.1 1-3.4.8-7-.9-10.1-1.4-2.6-4-4.3-6.8-5.4-8.9-3.4-37.6-1.4-45.3-1.4-3.4 0-11.9.8-20.9-6.9 0 2.2 1.1 3.7 2.3 5.4-.8-.4-1.7-1.2-2.3-1.9.4.8 1 2.4 1.7 2.9-.5-.3-1.1-.8-1.7-.9.7 1.2 5.6 2.8 6.4 3.3-2 0-4.1-1.2-5.9-2 .4.5 1.5 1.3 2 1.8-1-.3-2-1-3-1.2 1 1.2 6.3 4.2 7.9 4.5-1.7-.2-3.4-.8-5.1-1.1"/><path class="st0" d="M-20 461.4c-4.5 1.2-47.5 16.6-74.8 1.8-3.4-1.1-5.6-1.9-6.1-1.9 1.3 1.8 3.2 2.9 4.8 4.4-.9-.3-1.8-.4-2.6-.9.7.6 1.4 1.2 2.2 1.6-.5-.2-1.2-.6-1.8-.4.9.8 5.8 1.8 6.7 2.3-1.7 0-3.4-.6-5.1-.8 5.7 6.4 22.7 9.3 23.2 9.4-3.2.6-6.4 1.2-9.6 1.9-.1.1 43.2-5.2 48-6.1-1.9.5-19.2 4.1-26 5.1-13.5 2-27.3 3.5-40.2 8.1-6.5 2.3-12.9 5.4-18.1 10 5.7-4.3 12.1-7.6 18.9-9.9 6.9-2.2 13.9-3.7 21.1-4.8 14.9-2.3 29.8-3.4 44.5-7.1 6.2-1.6 12.1-3.8 18-6.2-.4-1-2.9-6.4-3.1-6.5z"/><path id="lXMLID_33_" class="st0" d="M-114.2 476.3c-.4-2.8-5-7.8-5-7.8.2.5-1 1.1-1.4 1.1 0 .6 2.1 2.5 2.1 2.9-.8-.7-2.7-1.6-2.9-1.7-.1.1.2 2.5.5 3.1-.4-.6-1.5-.4-1.5-.4s.2 1.4.4 2c-1.5-1-3.6-1.2-5.3-1.4 1.8-1 7-5.6 7.7-6.5.1-.1-5.4 4.8-8.7 6.4-1.7-.1-3.5-.3-5.2-.4 11-4.9 16.5-12.2 14.9-19 2.5 9.4-14.7 18.1-18 18.7-.3.1-5.9-1.6-8.8-2.2.1 1 .5 3.4.4 3.4.3.4 2.4 2.2 3.2 2.5-.3 0-3.9.2-4.6.1.3-.4 1.3-2.2 1.1-2.5-1.2.7-2.6 2.3-3.4 3.4 1.9.4 6.8 3.2 6.9 3.3.1.1 2.8-.7 3.9-1 2.1.4 10.2 1.1 10.4 1.1 3.8 2.8 3.8 6.4-6 13.3 16.5-6.2 19.7-14.6 19.3-18.4z"/><path id="lXMLID_30_" class="st0" d="M-16.9 319.5c.3-3.2 1.4-6.3 2.8-9.2.2-.4.4-.9.7-1.4.1-.1 5.1-3.8 7.4-5.8-1.2-.7-2.3-1.5-3.5-2.2.5-1.1.8-2 .7-2.3l-.6-2.1c-.9.7-2.4 2-4.2 3.4-.4 0-2.3 0-2.6-.3-.4.6-1.2 2.8-1.4 3.7-2.2 1.9-7.8 7.5-9.3 8.9l-6.1-10.4-1.8-2.1c-.4 3.3-10.4 28.3 14.8 26.4 0-.1.6-.5.7-.6.1-.2.2-.4.2-.7 0 0-1.8-.4-2.4-.8.5-.1 1-.3 1.5-.3-.4-.2-1.5-1-2.1-.9-.3 0-1.3.3-1.6 0 1-.2 2.1-.3 3.1-.8-.2-.1-.5-.2-.7-.4.4-.1 1 .1 1.4-.3-.6-.2-1.3-.3-1.9-.6-.5-.2-.9-.5-1.5-.6.7 0 1.5.2 2.2-.1-.2-.2-4.8-1.6-4.8-1.6 2.6.4 4.7-1.8 6.4-3.5l2-2.3c-1.8 4.5-2.2 9.3-1.6 12.2 0 .1.1.1.1.2v.3l.1.2c.1.4.2.7.4 1-.1-.4-.2-.8-.3-1.3-.3-3.3 1.1-8.8 2.7-13.9l.8-.8c-.3.6-.6 1.2-.7 1.6-1.9 5.1-2.6 11.2.2 16.1 1.3 2.4 3.6 4.7 6.4 5.3-5.6-2-8-8.4-7.5-14zm5.7-19.7s.6-.8 1.2-1.2c.1.3.4 1.5.6 1.5-.2.2-.4.3-.6.4-.1 0-.2.1-.3.2-.5-.6-1.5-.1-.9-.9z"/><path class="st0" d="M-67.8 405.4c-10.5 7.5-14-2.3-16.2-4.8-.6-.3-1.8-1.4-2.5-1.6 1.5.7.5 1 1.5 3.4.7 1.7 1.2 3.7 1.3 5.5-.6-1.2-1.1-2.4-1.4-3.7-.2-.9-.4-2-.8-2.8-.9-1.6-3.4-2.3-5.1-2.6 1.8.6 4.1 1.2 4.7 3.2.4 1.3.4 2.7.8 4 .4 1.5 1 2.9 1.9 4.1.9 1.1 3.6 2.8 9 2.1 3.7-.5 6.8-5.9 6.8-6.8z"/><path id="lXMLID_28_" class="st0" d="M-86.7 402.3c-.6-2-4-2.6-5.7-3l5.7 3z"/><path id="lXMLID_27_" class="st0" d="M-67.1 319.2c-1.6-.7-3.3-.6-5.1-.9-15.3-2.5-26.4 3.9-29 8.5-3.2 5.6-2.3 12-1.4 18.1.4 3.1 5.6 34.4-25.2 53.7-2.7 2-5.5 3.8-8.4 5.5-3 1.7-6.2 3.3-8.8 5.5 6-3.2 12.1-6.1 17.8-9.6-8.8 6.9-19.2 12-29.9 15.4-3.2 1-6.5 2-9.8 2.7 11-2.2 21.7-6.4 31.7-11.6 4.8-2.5 9.5-5.3 13.8-8.5 4-3 7.6-7.2 12.1-11.2-3.2 5.8-8.7 11.4-13.8 15-6.1 4.3-12.7 7.7-19.6 10.6-7.1 3-14.6 5.5-22.1 7.1-4.3.9-8.7 1.6-13.1 1.8-4.2.2-8.3-.1-12.5-.7 11.7 2.5 24.2.2 35.5-3.2 11-3.2 21.8-7.8 31.4-14.1 29.5-13.2 28.9-38.8 29.1-49 .1-3.7-.6-7.3-1.3-10.9-.8-4.2-1.9-9.4 1.3-12.9.3-.3 8.7-9.7 26.1-3.8 1.2.4 2.2 1.1 3 2.1.4.5.8.9 1.1 1.4.4.6.6 1.3 1.2 1.8.1-1.1.1-2.1-.1-3.1s-.7-1.8-1-2.8c.7.5 1.4 1.1 1.8 1.9-.2-.9-.5-1.7-1.2-2.4.4.4.9.9 1.4 1.1-.3-1.1-1.3-1.9-2.3-2.4-1.1-.6-2.4-.6-3.4-1.2 2 0 3.7.8 5.4 1.6-.4-.5-.8-1-1.3-1.5 1 .3 1.5 1.4 2.5 1.8-1.5-2.5-4.7-4.6-7.6-4.9 1.8.2 3.4.9 5.1 1.1-.6-.6-1.4-.9-2.2-1.3.1 0 .2 0 .2-.1-.2-.1-1.4-.6-1-.8 0 .1-.1.1-.1.2"/><path id="lXMLID_24_" class="st0" d="M-165.3 453.9c-1.2-.4-2.4-.7-3.7-1.1 2.1-1.4 17.1-10.4 23-12.6 1.2.1 2.4.3 3.7.4-5.8 2.5-19 8.1-21.6 11.3 1.5.5 3 1 4.5 1.4 3.3.7 6.7.6 10 .1 6.6-1.1 12.2-3.1 18.4-5.5-.1 1.3-.5 6.1-.5 6.8.1-.1 3.3-10.3 3-9.4-5.4 2-19.8 7.1-31.6 5.8 7-4.4 12.9-6.9 20.5-10 1.5.2 2.9.4 4.4.6l-.6-2.1 5.7-2.4c1.5-.6 2.9-1.3 4.4-1.9-3.8-.4-7.7-.8-11.5-1.2-.1-.5-.3-1.1-.4-1.6-1.1.4-2.1.8-3.1 1.3-7.3-.1-32.8-2.9-39-7.4 1.4-.6 2.6-1.5 3.2-2.8-1.8.1-5.3.3-5.4.2.8-.5 2.3-.6 3-1.2h-4.9c.9-.3 2.9-.9 2.4-.8.3-.4-4.5 0-4.5 0-6.9-.2-14.9-4-14.6-2.5 0 0 7 8.6 7.3 8.8l-.4 1c.6 0 1.2-.1 1.8-.1.3.2 15 8.3 38.7 11-2.2 1.2-13.1 7.2-16.6 10.1-.7.5 8.9-4.6 15.3-7.5-5.6 3.5-12.6 7.5-17.8 11.5 2.7.6 7.1 1.4 9.8 2 5.4 1.3 10.7 1 16-.4 3.7-1 7.3-2.4 10.8-3.9-5.7 2.3-11.7 4.5-18 4.7-4.3-.4-7.9-1.4-11.7-2.6zm34-18c-1.7.7-6.2 2.8-7.9 3.5-.1-.4 2.2-3.7 2.2-4 1.9.1 3.8.3 5.7.5z"/></g></symbol></svg>