<?xml version="1.0" encoding="utf-8"?><svg xmlns="http://www.w3.org/2000/svg" xmlns:xlink="http://www.w3.org/1999/xlink"><symbol viewBox="0 98.4 612 572.6" enable-background="new 0 98.4 612 572.6" id="aries"><style type="text/css">.st0{fill:#231f20}</style><path class="st0" d="M502.1 211.6c-13.3-15.8-31-26-51-29.6-18.3-3.3-38.1-.8-55.8 6.9-17.5 7.6-31.9 19.7-41.6 34.8-10.5 16.4-14.8 35.7-12.3 55.8l.4 2.9.3-2.9c1.6-17.4 6.8-33.7 15.7-48.6-15.8 33.5-19.5 73.7-10.1 111.5-.9-.6-1.8-1.3-2.8-1.9-12.9-10.8-24.5-12-33.4-3.5l.4.4c5.7-5.3 14-9 32.7 3.6 2 1.7 4 3.5 6 5.6-1.5-1.1-3-2.1-4.7-2.9l-.3.5c6.3 3.4 11.7 9 15.9 16.8 2.8 12.2 6.3 23.4 9.9 32.3 2.9 19.9 2.3 43.9-1.7 67.5-1.3 7.3-2.8 14.3-4.5 20.8-1.6 5.9-3.4 11.6-5.3 16.8-.6 1.6-1.2 3.1-1.8 4.3-9.6 21.4-18.5 31.7-26.3 30.7-16.6-2.2-27.1-54.1-34.4-99.6.4.7.9 1.6 1.3 2.5 1.2 2.4 2.7 5 4.1 7.1l.2.2c2 14.4 4.4 25.8 5.4 30.5l.6-.1c-.2-1.2-.5-2.6-.7-4.1-1.5-8.6-3.8-21.6-5.6-35.8.5-3.2 1.9-6.1 4.3-8.4 1.1 1.1 2.4 2.4 3.6 3.5-2.8 6.2-5.7 17 5.1 21.9l.3-.5c-4.8-3-8.8-10.1-4.5-20.6 3.6 3.2 13.9 11.8 18.1 9.2 1.9-1.2 2.2-4.6.6-10.2h-.4c-1.4.1-2.3.1-2.4 0-.1-.1-.1-.4 0-.7v-2.1l-.4-1.2-.3 1-.3-.1.1.7c-.1.3-.4.9-.8 1.4.9-3.1.5-6.4-.3-7.9l-.5-.8v.1c-3.9-6-10-10.1-15.5-10.4-3.5-.2-6.7 1.2-9 4-2.2-33.9 2.5-54.9 13.2-65 5.4-5.1 12.1-8.4 20.8-7.3 3.6.5 7.1 1.5 10.3 3.1h.1l.3-.5c-2.5-1.3-5.1-2.3-7.8-3-9.5-2.6-19.5-3.8-27.3 2.1-12.1 9.2-17.1 27.6-10.3 71.5-1.9 2.7-3.2 6.3-3.9 10.8-.5-3.1-.9-6.2-1.4-9.3-1.4-27.6-3-52.2-8.8-74.7-6.8-26.1-18.7-45.2-36.2-58.1-22.2-16.5-51.6-22.8-82.6-17.7-34.8 5.7-66.7 24.9-85.2 51.4-10.3 14.8-14.7 34.9-12.1 56.6 2.4 20.7 10.6 40.8 23 56.8 21.4 27.5 50.6 36.8 80 25.6 17.4-6.6 28.7-22.4 31.8-44.4 2.2-15.7.2-33.6-5.7-50.3-5.9-16.8-15.2-30.6-26-38.8l-.9-.7.4 1c.5 1.2 1.3 3.2 2.4 5.6 3.4 8 10.1 23.9 11.3 28-.7-1.2-2.3-4.1-5.7-10.8l-.6.3c3.7 8.9 5.1 12.6 5.6 14.1-.6-1-1.9-3.2-4.3-8l-.6.2c1.2 4 3.3 8.4 5.4 13.1 3.4 7.5 6.9 15.3 8 22.5-3-9.9-6.8-18.7-11.1-26l-1.2-2 .6 2.2c.5 2 1 3.7 1.4 5.1-1.3-3.3-3-7.3-4.3-8.6l-1-1 .5 1.4c4.3 10.7 7.2 21.7 8.8 33-1.1-4.6-2.5-9-4.4-13.3l-.8-2 .3 2.1c.1.8.4 2.4.7 4.3.6 3.7 1.7 10.4 1.5 11.5h-.1l-.1 1.7c.6 23.9-9.5 32.6-18.1 35.7-18.2 6.6-46.5-5.9-64.4-28.5-19.2-24.3-21-52.3-5-76.9 9.2-14.2 25.6-26.5 46.1-34.9 19.4-7.9 39.9-11 56.2-8.6 73.3 10.9 78.2 78.6 83 144.1 2.8 37.8 5.4 73.5 20.2 99 4.2 7.3 8.6 13.1 13.1 17.1 4.3 5.8 8.9 8.7 13.6 8.7 1.9 0 3.8-.5 5.7-1.4 8.2-1.2 16.2-7.8 23.6-19.6 1-1.5 2-3.2 3-5 12-21.6 20.3-54.5 19.9-78.2h-.6c-.2 3-1.9 11.1-4.9 22.2.3-2.6.5-5.1.7-7.7 4.5-27.4 8.4-77.7-14.8-106.6-3.9-17.7-8.3-44.4-7.1-70.9 1.2-26.1 7.5-46.6 18.7-61.1 12.2-15.8 30.4-24.3 53.9-25.2 8.1-.3 21.6 3 34.5 8.4 14.3 6 24.9 13.4 29.3 20.1 12.2 19 11.4 36.6-2.5 55.4-12.3 16.7-17.3 22-20.4 21.8-1.9-.2-3.3-2.7-5.1-6.3-2.7-5.2-6.3-12.2-14.5-18.2l-.5-.3v.6c-.2 6.4.1 11.1.4 13.9-.3-.9-.7-2.1-1.2-3.5l-.9-2.7.3 2.9c.2 1.6.5 2.8.7 3.6-.4-.3-.9-.6-1.5-1l-.5-.3v.6c.3 5.5 2.6 7.7 4.8 9.8 1.3 1.2 2.6 2.5 3.6 4.4-5.1-3.1-8.3-5.2-9.8-6.5l-.3-.9c.3 0 .6.1.9.1.5.1.9.1 1.3.1s.7-.1.8-.4c.2-.4 0-1-4.1-3.7l-.6-.4.1.7c.2.9.4 1.9.7 3-.2 0-.4.1-.4.3-.1.4.2.8 1 1.5 1.4 4.3 3.5 8.2 6.3 11.7-2.2-2-4.2-4.3-6.1-6.6l-.8-1 .3 1.3c.3 1.4 1.5 3.8 2.5 5.7l1.2 2.4h-.1l.4 1.1c5.3 7.8 11.8 11.3 19.4 10.4 14.1-1.6 30.1-18.8 39.7-42.9 8.6-21.7 12.2-52-4-71.2zM310.8 338.4l-.4-.4c-1.1 1.1-2.1 2.3-3 3.7l.5.4c.9-1.4 1.9-2.6 2.9-3.7zM359.8 422.8c2.5-8 5.1-16.2-2.1-21.1-3.4-2.3-6.7-3-9.9-2-4.8 1.5-9.1 6.8-12.7 15.8-.1.2-.2.4-.2.5l.6.2c.1-.1.1-.3.2-.4.2-.5.5-.8.7-.8 1.6.4 3.9 11 3.8 12.1v.2l.2.1c.1 0 .1.1.2 0 .3 2 1 4.3 1.8 6.7l.3-.1.3-.1c-.1-.2-.1-.3-.1-.3.6.2 2.6 2 4.4 3.5 2 1.7 4.2 3.7 6.2 5.1l1.5 1.1-1.1-1.5c-2.5-3.5-3.9-7-4.2-10.3 4.2-3.2 6.2-9.9 6.6-14.8.3-.3.6-.6.9-.8-2 9.5-2 16.5-.1 21.5.5 1.6 1.3 2.9 2.5 4.1 2.1 2.2 4.9 3.4 8.5 3.7l.1-.6c-3.7-.7-6.3-1.9-8.1-3.5-1-1.1-1.8-2.4-2.4-3.8-1.1-4.2.5-9.2 2.1-14.5z"/></symbol><symbol viewBox="0 98.4 612 572.6" enable-background="new 0 98.4 612 572.6" id="cancer"><style type="text/css">.st0{fill:#231f20}</style><path class="st0" d="M111.7 365.8c1-1.1.9-1.3 0 0zM331.4 385.8c1.2-.7-8 3.9 0 0zM368.1 368.2c-10 8.1-30.2 13.7-36.7 17.6-3.5 2.3-7.1 4.4-10.7 6.2 16.6-6.3 37.5-15.4 47.4-23.8zM373.2 362.1c-.8 2-2.6 4-5.1 6.1 2.3-1.9 4.1-3.9 5.1-6.1zM320.7 392c-8.5 3.2-15.9 5.6-20.1 6.8 7-1.5 13.7-3.7 20.1-6.8zM422.3 311.7c-.3.6-.5 1.2-.8 1.8.2-.4.5-1 .8-1.8zM253.1 447.8c-1.2-1.7-2.5-3.5-4-5.4 1.5 1.9 2.8 3.7 4 5.4zM219.6 426.8c-4.7-2.6-9.5-4.3-14.4-4.9 3.7.7 8.8 2.4 14.4 4.9zM433.5 319.7v-.6.6zM516.7 317.4c-10.5-6.9.6 1.7 0 0zM284.8 481.4c-9.9 4.8-16.7 5.7-22.1 3.8v-.2c0-.3-.1-.6-.1-1 5.3-3.6 2.4-19.4-9.5-36.3 9.1 13.3 13.5 30.8 9.5 35.8-.2-2-.5-3.9-1-5.7 5.3-18.8-22.9-42.7-41.9-51.1 13.6 7.5 25.7 21.8 31.9 32.9-3.5-4-8.1-7-13.2-8.7-.7-.2-3.2-.7-3.9-.9-.2 0 16.2 11.1 19.4 18.2 3.3 7.5 7 18.9-1.1 15.9-2.5-.9-13.9-6.5-17.2-10.8-3.3-4.4-2.5-4.5-3.2-8.5-1.7-10.5 1.1-15.2.8-15.1-.5.1-1-.1-1.5-.2h-.8c.8-4.8-6.8-6.6-8.4-1.6-2.4 7.5-2.3 15.4.2 22.8.6 1.8 2.1 8.1 3.6 8.3 4.7 7.3 17.8 12.5 27.4 14.9-.9 0-1.4.1-1.5.1 2.9 1.2 6.1 2 9.4 2.3 4 1.1 7.6 1.8 10.6 1.7-1.4 2-2.4 4-3.2 6-1 2.4-1.7 4.6-3 6.6 12.3-5.5 20.1-15.3 18.8-29.2zM276.2 493.3c-.1 0-.1 0 0 0 0-.8-.1-1.7-.5-2.5h.5c1.6-.2 1.6 2.3 0 2.5zM247.8 517.9c.2 0 .2-.6.4-.6 11.1-.8 15.4-2.9 17.8-6.7-.1 0-.2.1-.2.1-2.5 3.7-6.8 6.4-18 7.2zM532.6 313.5c-2.2-1.8-4.8-3.8-7.5-5.9-16.9-35.9-58.6-60.1-91.6-39.1-.3.2-.6.4-.9.7.2 2.3-5.9-9.6-4.4-6.8l.2-2.7c-.5-.5-.8-1.2-.7-2.1.5-5.6 6.3-5.3 10.8-7.5.5-.4 29.2-8-7.6-8.9-1.2 0 16.5-3.3 18.1-3.5 25.8-.2 33.9 5 33.8 7.2-.1 1.3-16-3.4-37.8-.1-2.5.4-5.3 4.7-5.4 4.8 3.5-1.4 7.3-2.3 10.8-2.8 6.9-1.1 14-1.2 21-.6 5.1.4 10.1 1.6 15.1 2.6 2.2.2 9.6 2.8 11.8 3.3.4 0-6.5-5.7-6.1-5.7.6.1 1.1.3 1.5.6 1.8.5 3.5 1.1 5.2 1.9h1c-2.1-3.3-4.6-6.3-7.2-9 .5-.9.9-1.9 1.4-2.8-1.3.1-2.7.2-4.1.2-22.6-20.2-58.3-19.3-79.9 3.2-.6.6-1.2 1.2-1.7 1.8-58.5-32.9-191.6 32.4-223.7 67.6-12.6 13.7-19 27.7-20.6 41-.3-2.3-3.2-5.4-9.6-11.4-28.5-23.4-81.9 15.7-71.5 58.8 13.3-7.1 54.2-38.8 60.8-37.7-4.1-1.3-11.9-3.8-19.7.3.1-.1-20.6 13-34.8 20 8.7-11 23.4-30.8 45.6-32.1 3.1-.2 22.6 11.9 23 11.6 4.4-3.2 5.2-6.1 5.9-8.1-.9 9.2.5 18.1 3.7 26.4-.7-.2-1.5-.3-2.3-.5-52.1-8.9-86.5 72.2-57.3 120.2 10.9-14.2 19.2-31 25.2-48.3.3-6.7 1.6-13.4 3.6-19.8.3-1 2.8-6.5 3.2-7.5.2-.7-6 12.4-12.5 25.6-6.7 13.8-13.5 27.9-13.5 27.1-.1-24.9 21.9-64.9 29.8-76.8 4.2-6.2-11.5 30.2-10.2 36.2.5 2.4 7.8-20.8 7.5-15.9-.2 2.5 2.1-4.7 3.5-7 .6-1.6 1.2-3 1.7-4.1.6-.4 1.7-1.2 2.9-2.2 1-1.1 2.2-2 3.4-2.8.4-.3.7-.6 1.1-.9.9-.5 2.1-1 3.5-1.3 5.1-1.8 10.8-1.8 16.2-1.3-2.9-1-5.4-.6-8.8-.2l.6-.3c6.2-.8 11.4-1.4 13.7-1.9l2.4 2.7c-58.9 95.3 40.7 130.2 84.6 110.9 1.3-2 2.1-4.3 3.1-6.8-27.7 23.2-93.4-5.5-95.9-52.4-.7-13.1 14.4-27.3 21.9-40.2.7-1.2 1.4-2.5 2.1-3.7.3.1.5.2.8.2-.8 1.4-1.6 2.7-2.4 4.1 15.3 10.4 34.8 16.7 55.5 16.9 23.4.2 106.1-17.7 109.8-46.2-.8-2.6-73 23.3-73.8 23.5-.8.2-4.9 1.6-10.7 3-4.7.5-13.1 2.1-18.6 3.5-8.7 1-18.1 1.1-26.8-1-10.1-2.5-20.1-6.5-28.6-12.1-.7 1.5-1.5 3-2.3 4.5-.2-.2-.5-.3-.7-.5.9-1.6 1.7-3.2 2.5-4.8 3.5-7.3 5.9-14.3 5.1-21-.3.1-.6.3-.9.4-1.8 2.2-3.6 4.5-5.3 6.8.1-.6-.2-.6-1 1.3-.6.7-1.1 1.5-1.7 2.2.3-.8.5-1.4.7-2-.3-.2-.6-.9-.9-2.4-1.1 1.2-1.8 2.8-2.4 4.3v.1c-.5 1.4-1 2.9-1.5 4.3 0 .1-.1.1-.1.2l-.3-.3c-.3.9-.6 1.9-.9 3.1-.4.6-.8 1.3-1.3 1.8.6-2.5 1.2-4.3 1.6-5.7 1.1-3.5 1.6-4.3 1.9-4.3-.1-.4-.3-1.3-.4-3.5-1.1 1.5-2.5 3.4-3.8 5.4 0 0 0 .1-.1.1-.8-.8-1.5-1.7-2.2-2.5-.3-.1-.6-.2-.8-.4-.8-.3-1.5-1.1-1.8-1.9-.2-.5-.2-1-.3-1.6-6.9-10.3-9.8-23.1-5.8-38.2 16.6-64 168.7-111.2 226.4-86.6.8-.1-5.3-4.8 2.5 0s12.1 21.4 12.1 21.4c-.1.1-.2.2-.3.4-5.9 1.8-11.5 5-16.3 10.2 4.8-.1 9.7 0 14.5.3-.9.2-1.6.4-2.2.5 0 .4-.3 1-1.4 2.1 4.1.5 8.8-1.9 13-1.7v.7c-12.3 2.1-5.8-.7-11 3.8 3.5-.1 7 0 10.4.3-.1.3-.1.5-.2.8-1.7.1-1.2.1-.1.4-1.4 5.8-3.4 11.4-4.6 14.4 2.2-5.1 3.8-9.9 4.7-14.4.9.3 2.2.7 3 1.5l.3.2c-6.4 18.7-30.2 43.6-40.8 53.7-.3 0-.7.1-1.1.1-9.4 8.4-19.5 15.9-30.2 22.6h.5c-1.3.7-2.6 1.4-4 2.2 2-.7 4-1.4 6-2.2 10.9 0 12.3-5.4 15.5-9.4.2-.1.3-.3.5-.4 1.4-1 2.8-2 4.3-3.2-.3.1-.6.2-.9.4 3-2.5 6.1-5.2 9.2-7.9 1.8-1 2.6-1.7 2.2-2 12.7-11.4 25-23.4 27.3-25.1 3.8-2.8 6-7.1 8.4-11.1l-.6 1.2c-4.6 7.4-6.2 10-4.9 8-.4.6-.7 1.2-1.1 1.8 6.7-8.9 11.6-18.3 13.6-27.9 13.4 2.2 26.5 5.1 38.5 11.9 43 24.3 30.6 90.9 6 95.5 16.7-17.3 7.2-34.6-6.3-43.8-2.2-2.3-4.6-3.9-7.2-4.8-8.2-5.6-17.3-6.2-21 1.1-1.4 1.5-2.2 3.7-2.4 6.4-1.6-3.1-3.5-6.4-4-7.3 1.1 4.7 2.8 10.6 4.7 15.9-1.4-2.3-2.7-4.8-3.8-7.1-1.3-2.6-2.3-5.4-3.1-8.2-1.5-3-2.6-6.3-3.4-9.7-1.9-8-3.4-16.8-.9-24.6.2-.9.4-1.7.7-2.5 0-.4-.1-.7-.1-1.1-14.6 27.1 5.8 50.9 13.5 60.4 1.4 3 2.8 5.2 4 6 1.2 1.5 2.6 3 4.2 4.5v-.8l.4.4c-.1-1.2-.1-2.4-.2-3.6.3-.1.6-.3.9-.4.6.5 1.2 1 1.8 1.4-.6-.5-1.1-1-1.6-1.5.7-.5 1.4-1.1 2.2-1.9-8.5-12.4-9.1-18.2-6.3-19.7 1.5-.1 3.2 0 4.9.2 10.1 3.7 26.7 22.5 8.8 36.7l-1.5-1.2c0 .8-.1 1.6-.1 2.4-2.9 2-6.5 3.9-10.9 5.6 3.4 2.9 6.8 5.1 10.2 6.7-.1.9-.1 1.9-.2 2.8 1-.6 2-1.1 2.9-1.7 29.5 10.7 57.4-25.9 56.5-58-.7-23.2-30.2-58.6-61.6-73.8.3-.1.4-.1 0 0-2.8-1.4-5.7-2.6-8.5-3.6h-.1c-3.3-1.2-6.5-2.1-9.8-2.7 8.5-3.5 20.4-3.4 32.3 0-4.5-.8-1.1.3 1.5.4 8.8 2.8 17.6 7.4 25 13.8-7.6-3.4-19.2-9.1-20.2-9.6 3.9 2.1 6.3-1.6-10.1-1.6.1.3.1.5.2.8 7.1 2.4 14.1 5.3 20.3 9.4.7.2 1.2.2 1.1 0 .1.5.3.9.6 1.2.6.5 1.3 1 1.9 1.5 3.6 1.2 6.6 3.6 7.4 7.6l.2.2c1.2.5 2.2.2 2.2-1.9 0-.5 6.1 7.5 5.9 7.1-12.1-3.5-3.5 2.1 7 8.9.6 1.7 1.2 3.4 1.6 5.3 1.1-.7 2.1-1.4 3.2-2.1 3.7 2.5 7.4 5 10.1 7.3-.7-4-1.7-7.9-3.1-11.8 1.4-1.1 2.7-2 4.1-2.8zM144 406.9c1.3-2 2.7-3.9 4-5.5-1.3 1.6-2.7 3.5-4 5.5zM199.1 403.8l.6.6c-.1.2-.2.3-.2.5-.2-.2-.4-.3-.7-.5l.3-.6zM186.8 394.1c1.1-1.6 2.2-3.8 1.1-.7-.5.8-.9 1.6-1.3 2.3l-.3-.3c.2-.5.4-.9.5-1.3zM186.4 395.4l.3.3c-.5 1-1 1.9-1.4 2.8.4-1.2.7-2.2 1.1-3.1zM424 248.3c.4-.2 1-.5 1.9-.9-.9.4-1.4.8-1.9.9zM416.2 291.1c-.2-1.4-6.5 1.5 0 0z"/></symbol><symbol viewBox="0 98.4 612 572.6" enable-background="new 0 98.4 612 572.6" id="gemini"><style type="text/css">.st0{fill:#202020}</style><path class="st0" d="M605.7 456.2c.1-.2.1-.4.2-.5.2-.2.3-.3.3-.5.2-.5.3-.8.2-.8v-.1.1c-.1 0-.2.1-.3.2-.4.3-1.1.7-1.8 1-1.9-.4-4.8.6-9.1 3.3-12 31.4-9.4 23.1-25.5 15.1-.8-.4-1.7-.8-2.7-1.3 0 0 10.4 12.1 17.9 11.1 4.4-.6 12.2-19 12.6-18.3.9 1.3 1.9 19.4-10.6 23.7-.2.1-4.1.2-5.3 0-2.6-.5-9.5-.5-9.9-.8-.3-.2-9.3-8.6-13.9-11.9-2.3-1.7 6.6 1.4 3.9-.6-2.2-1.6-4.5-3.2-6.6-4.8-7.5-5.4-14-10.1-14.3-10.5-.2-.2 26.7 12.7 25.4 11.4-8.7-8.1-44.8-37.9-39.5 1.5 0 0 0 .1.1 0 6.5-2.5 4.6-3.7 5.4.9 0 0 0 .1.1 0 .7-.6 3.2-7.1 4.5-7.1 0 0 .1.1 0 .1-2.1 3.8-2.5 7.6-2.2 10.1 0 0 0 .1.1 0 6.1-5.3 3.8-1.4 4.9.3l.2.2c3.6.2 5.5 1.7 6.1-2.7-4.4 22.4 40.6 46.8 57.9 5.2h.1c.2 7.5.8 14 1.1 15.3-2-14.1 5.9-35.6.7-39.6zM46.2 568.9c3.8 13.4 31 9.3 54 2-28.6 5.6-62.6 2.7-50.2-13.4 2.1-2.7 4.4-4.3 7-5.3-8.2.3-14.5 3.5-10.8 16.7zM133.4 555.4c-2.6 3.4-16.8 10.2-33.1 15.4 15.1-2.9 28.7-8.3 33.1-15.4zM133.4 555.4c.2-.2.3-.4.4-.6-.2.2-.3.4-.4.6zM69 580.9c-4.2.6-10.8.5-16.8-1 4.1 1.6 9.6 2.2 16.8 1zM57.1 552.2c8.2-.3 18.4 2.3 22.9 1-8.1-1.2-16.2-3.5-22.9-1zM47.5 551.3c7.9-4.9 19.9-2 28.7-5.7-12.6-5.8-22.9-1.6-28.7 5.7zM39.9 565c-1.3 8.6 4.9 12.9 12.3 14.9-12.1-4.8-12.1-19.2-4.7-28.6-3.7 2.3-6.5 6.4-7.6 13.7zM268 558.2c1.9-4.5 2.5-7.3 1.9-10.1-7.2 4.7-6.1 1.4-6.6 0l-.3-.2c-10.8 1.9-23.1 5-33.6-1.1-17.8-10.3-13.9-32-20.1-48.3-4.6-12-7.1-56.7-6.7-12.4-4-13.8-8.2-27.7-12.5-41.4 8.3 26.4 8.8 52.9 7.9 80.2-9.4-34.2-4.9-71.2-22.9-103.1 17.1 42.3 1.5 118 46.7 143.5 11.4 6.4 65.8 14.7 57.8-13.1-1.7.8-10.8 6.1-11.6 6zM32.8 521.7c-9.9-11.1-20.7-34.8-18.7-45.7-8.4 3.7-1.9 28 18.7 45.7zM33.2 480.7c-15.1-13.5-17.6-12.2-19.1-4.7 5.4-2.3 11.9 3.9 27 26.1-1.3-8-2.2-16.2-7.9-21.4zM5.6 468.8c1.9-3.3 5.1-5.2 8.9-6-.5-.1-1-.1-1.5-.2-4.2-.4-6.4 2.2-7.4 6.2zM8.2 496.4c-.6-1.6-4.9-18.3-2.6-27.6-3.2 5.4-3.1 14.4 2.6 27.6zM282.4 310.3c-10.9-7.1-26.3 4.6-36.4.7.8-.7 1.6-1.5 2.4-2.3-.8.8-1.7 1.6-2.5 2.2-2.3-.9-4.3-2.6-5.9-5.5 1.3-.4 2.6-.9 3.8-1.6-1.3.4-2.7.7-4.2.8-.5-1-1-2.1-1.4-3.3.3 1.2.6 2.4 1 3.4-11.8 1-27.4-6-37.4-18.5-4.7-8-7.4-18.3-6.4-30.3 5.4-64.5 61.1-46.7 54.5 3.1-.7-2.8-1.3-5.7-1.8-8.6 1.6 1.2 2.3 1.8 2.6 2.1-.3-.4-.9-1.4 2.1-1-1.6-2.9-3.6-5.5-5.9-7.9 6.5 4.7 5.7 5 9.8 5.8-1.3-3.3-2.4-6.6-3.5-9.9 8.9 10.6 2.3 1.2 4.3.8l.2-.4c-12.8-118.6-133 40.3-60.2 69.5.2 3.1.3 6.1-2.4 9.4-3.8 4.6-31.6-4.4-30.1 11.2 2.1-3.9 6.7-5.2 10.7-5.3-5.4 3-9.3 7.1-11.8 12.2-.7 1.2-1.3 2.7-1.7 4.3-28.1 17.8-29.6 87.4-45.5 141.4-21.2-2.3-19.7 22.3-35 26.2-13.4 3.4-12.5-.8-24.1-4.6-7.5-3.2-4.8-41.6-30-43.9 12.9 5.2 18 14.8 21.3 27.6-8.5-17.8-21.9-27.9-34.5-25.3 28.5 3.3 16.7 15 32.1 36.9 12.3 17.5-2.3 17.9 22.9 25-14.5-.7-16.3-3.5-23.6-15.1-1.7-2.6-3.3-5.1-4.8-7.4 1.2 7.4.2 14.8 6.1 19.5 12.3 9.8 6.2 6.5 20.8 6.4 8.6 2.3 19.9 2.7 36.2-9.5-3 6.6-6.1 12.4-9.6 17.2-5.7 3.6-11.7 6.6-17.5 9.4-.3.1-.6.3-.9.4.1 0 .2.1.3.1 10.2 1.3 19.1-1.4 26.9-6.8-6.5 5.1-13.9 9.8-22.6 13.9-.2.1-.5.2-.8.3 5.9.8 11.7 1.1 16.9-1.5 45.6-23.1 40.8-80.4 51.1-124.2 4.6-19.4 6.3-70.7 32.7-68.2 23.8 2.3 66.3 99.8 73.9 136-3.4-.8-6.7-1.3-8-.7 3.2 1.2 6 3.2 8.9 5.3.4 2.5.5 4.6.3 6 .2-.4.8-1 1.6-1.7 2.8 2.1 5.1 2.4 5.8 2.4-.5 0-1.8.2-4.1.9 1.1.7 8.9 1.8 7.5 1.4 0-3.7-1.3-10.3-.1-13.5 1.2 6.9 4.9 13.4-2.5 15.7 4.7.5 4.7.3 6.1-3.7.8 6.6-4.8 4.1-9.5 5.5 14.4 4.6 14.1-12.4 13.5-22.8.3 4.9.7 9.9 1.1 14.8 1-2.4 1.8-9.9 2.5-9.8l.4-.8c4-32.5-54.4-142-93.2-155.7 3-1.3 6.2-2.7 9.3-4 1.4-.2 2.6-.4 3.6-.6-.4-.1-.9-.2-1.3-.4 9.6-4.1 18.8-8.5 22.2-14.4.5-.9 1-1.8 1.4-2.6 8 3 16.7 2.1 25.1-4.7 10.8 5.6 29.9-6.1 41.9 3.7 15.4 12.6 14 46.8 10.4 79.1 4-31.3 8.6-68.7-15-84.1zM279.8 303.8c13.1 1.9 20 15 23.9 29.6-2.6-16-9.5-28-23.9-29.6zM274.1 303.7c2-.1 3.9-.1 5.7.1-1.8-.3-3.7-.3-5.7-.1zM295.6 410c.6-5 1.3-10.2 1.9-15.5-.7 5.4-1.4 10.6-1.9 15.5zM250.7 252.6c.2.2.3.2 0 0zM254 276.1c1.6 14.8-3 23.8-10.2 27.9 9-2.8 14.4-11.6 10.2-27.9zM415.5 472.5c-.3-.4-.5-.8-.8-1.2-.3.3 0 .7.8 1.2zM554.8 549.7c.1.3-.6.3-1.8.1-4.9-2.5-15.1-7.7-22.8-13.4-8.9-13.2-10.4-23.6-11.4-41.5-1.8-29.9 36.8-136.3.2-158.8-7.9-4.9-15.3-6.5-22.1-5.8-2.9-12.9-1.9-26.7-16.9-29 1.2 1 2.5 1.9 3.9 2.6-7.2-2.6-7.7-.9-9.8-.5 3.8-1.6 8.1-4.1 12.8-7.6 21.6-16.1 19.9-69.7-6.9-80-43.4-16.7-43.2 23-37.8 29.5 1.1-2.1-4.8-3.9-3.3-5.7.8 6.4 6.8.1 9.7 3.8.6-2.7-6.2-5.3-5.8-8 .2 4.9 8.1 7.5 9.7 9.8 4.5-7.3-2.4-3.7-1.2-2.6h.4c5-39 63.7 20.4 18.4 40.4-3 .5-14.2-.1-18.2 3.6 3.2.6 6.3 1.5 9.4 2.6-3.6 1-6.5 1-8.8.3-7.6-11.5-13.5-27.4-16.6-36.8 3.5 22.4 8.4 61.2 36.3 51.3-1.7 5 2.2 20.6 7.6 32.3-7.8 4.9-15 12-21.9 19.4-12.7 13.6-41.4 47.3-54.1 77.3 1.4-19 2.1-37.5 4.5-51.4.6-3.5 20.1-70.7-2.7-9 .2-1.7 8.9-39.6 9.3-51.7-19.5 30.7-17.2 68.2-30.4 101.9-2 12.6 20.8-158.8 57.5-120-38.7-54.1-75.8 183.4-76.1 186.1-13.5-3.6-43.3-17.5-44.1 2.4 3.4-1.1 8.1-3.4 11.9-2.4-7.2 3.8-1-.2-2.6 4.3 1 .1 9.8-3.7 11.5-2.4-5.7 1.7-9 4-10.1 6.7.3 0 .5 0 .8-.1-1.5 2.4-1.3 2-4.2.6 0 .1 2.3 3.9 3 4.6-7.4-4.9-2.5-2.8-7.3-5-1 7.4-1.1 2.5-3.7 4l-.3.2c-3.7 10.6 1.8 16.5 10.5 20.2-4.9-1.2-9.5-2.2-11.7-6.2-3.9-30.9 7-151.4-12-178.2 2.8 11.3 3.4 22.8 1.6 34.3-.8-8.1-1.6-24.1-5.4-38.6 5.3 32.5-7 81.7-8.9 95-.3-5.3.1-11.5.8-18.4-2 16.2-4 30.9-3.8 40.6.3 18.6-5 54.2 4.2 70.7 3 5.4 27.4 26.8 33.1 24.6.2.9.5 1.7 1.1 2.5 2.7-3.2 6.3-13.1 5.3-4 2.2-4.4.1-3.5 2.4-.6 2.4-3-2.4-7.6-2.3-7.8 3.1-1.2 4.4 4.3 5 6 .2-.4.3-.7.4-1 .1.8.5 1.9 1.4 3.1 1.8-4.3 1.7-10.5-1.9-13.7 1.8 1.4 4.2 3.7 5.6 6.4.9-3.4-3.8-9.5-3.7-9.6l-.5-.8c-.8-.7-1.7-1.2-2.7-1.7 11.1 3 23.8 4.2 29.8 7.3h-1c.8.6 1.4 2 2.2 2.6-.2-.9-.2-1.5 0-1.9 1.5 1 2.3 2.2 2.2 3.7.1-.3.4-.7.6-1.2 0 .5-.1 1-.1 1.4h1.1c0 .1-.1.2-.1.3 2.1 0 4 .3 5.9.7-.1.4-.2.7-.4 1.1.6.1 1.2.2 1.9.3 0 .1-.1.2-.1.2 1.9.4 3.8.7 5.7 1.1v-.3l1.8.3v-.2c5.1 1.4 7.7.6 5-10.4 1.5 10.3-.7 11.5-5 10.4.9-9-.2-19.7-3.7-28.2 2.8 9.1 3.4 18.3 1.9 27.7-.4-.1-.8-.3-1.3-.4-1.2-.4-2.5-.9-3.9-1.3 5.1-12.1-1.5-20.7-10.9-26 4.3 0 8.5-1.1 12.6-3.5 8.2-9.8 13-23.8 16-39.5.8 2 1.9 3.9 3.2 5.7 8 10.2 26 16 31.7-5.9-7.5 1.1-9.8 8.9-18.2 7.9 3.1-.9 5.8-2.6 8-5-2.5 1.5-5.3 2.4-8.2 2.7 7.8-1.2-10.7-1.3-6.7-15.1 1.1 3.8 3.2 8.2 5.5 11.7.2-.2.5-.3 1.1-.4-.8.3-.1 2.4.1 0h.2-.2v-.8c.2.2.5.4.7.6.1.2.1.3.1.4v-.3c.5.3 1 .7 1.7 1.1-1.2-5-1.3-8.8-1.6-13.6 1.2 10.3 3.8.2 3.5.1l.3-.6c1.8-21.5 44.3-97 69.4-107.4.9.3 1.8.2 2.7-.4-.4.1-.7 0-1-.2 2-.6 3.9-.7 5.7-.3 59.7 13.9-50.1 198.2 41.9 211.3-24.7-6.9-37.2-38.8-35-62.1 0 5.2 2.4 11.7 6.2 18.5 2.6 11.9 7.8 22.7 16.5 31.2 2.8 2.7 15.2 10.4 23.8 10.8 3.4 1.4 5.8 1.1 6.7-1.4.1.5.4.9.6 1.3.1.8.2 1.6.2 2.3-4.2.5-11.2-.6-11.9-.6.9.1 7.8 1.2 11.9.9-.2 22.5-63-9.8-60.6-29.1-5.9 31.3 63.9 51.3 69.2 26.2 2.3-10.2-11.1-6.1-12.2-8.6zM492.3 467c4.3-11.7 6.3-23.8 6.2-36.1-.1 23.2-13.7 46.3-35.6 55.2 13.6-12.5 48.6-60.7 22.7-78.3 30.1 29.4-25 79.1-48.3 91.5-10 5.3-22.4-5.1-31.8 2.8 4.5 4.8 4.2 3.1 1.1 5.9 2.4.3 4.7.1 7-.5-7 3.4-5.3 1.6-8.6 4.5 6.9 3.6 4.7 3.9 3.8 5.5l.1.4c13.7 10.8 25.8 3.3 39.3-1.9 17.4-6.6 29.2-22.7 40.7-35.9 6.3-7.4 29.6-47.6 3.4-13.1zM414.4 318.3c.6.9.3.5.1.2.2.6.3 1.4.3 2.5.2-.3.4-.7.6-1 .2.5-.9-1.9-1-1.7zM414.5 318.5c0-.1-.1-.2-.1-.2s0 .1.1.2zM372.9 536.8c-.4 2.8-.2 1.8 0 0zM372.3 537.6c.1-.4.2-.7.2-1.1-.3.5-.3.9-.2 1.1zM490.7 303.8l-.3 1.4c.6-.3.4-.9.3-1.4z"/></symbol><symbol viewBox="0 98.4 612 572.6" enable-background="new 0 98.4 612 572.6" id="taurus"><style type="text/css">.st0{fill:#231f20}</style><path class="st0" d="M369.3 403.9h.6c82.7-50.2-22-173.2-86-188.1 9.8 6.4 19.1 13.5 27.8 21.4-19.7-11.5-43.9-25.4-57-44.7 23.5 37.7 72.6 55.7 99.9 91.1-31.8-32.6-132-70.8-99.8-127.4-39.4 55.5 74.1 99.9 101 134.5 23.9 30.7 24 52.9 11.9 87.5-1.2 3.5-5.3 6.7-9.8 10.2-3.3-1.5-7.3-3.6-6.4-4.8l-.5-.7c-40.9-29.1-118.3-29.2-139.6 24-2.5 6.3-1.8 14.7-4.4 20.3-3.3 7.1 6.1 19.2 2.4 26.6-3.8 7.6-16.4 3.4-18.9 8.6-17.6 35.6-16.8 42.6 8.6 61-.3 1.2-.2 2.5.3 3.9 10.2 29.2 43 32.3 74.3 28 33.6 3 68.9-2.7 81.9-23.9-18.1 22.7-49.6 26.4-80.9 23.7 3.4-.5 6.8-1.1 10.1-1.7-11.3-.3-20.8-.2-30.4-.9-17.4-3.4-32.9-8.9-42.8-15.7-4.3-2.9-5.3-5.6-4.5-7.9 3.9 2.7 8.3 5.7 13.1 9-2.9-2-4.3-4.1-4.8-6.2 1 .5 2.3 1 3.8 1.7-.7-.8-1.4-1.6-1.9-2.5 1.2-.4 2.2-.8 3.3-1.1 5.7.4 11.8.4 10.3-3.3-.1-.3-.3-.6-.5-.9 4.1-2.8-1.4-4-9.1-6.7-.1-.1-.2-.1-.3-.2 1.8-2.3 3.4-4.5 3.8-6.3-2.5-.4-7.3.1-12.1 1.4-4.3-2.6-8.8-5.4-12.7-8.4-1.5-2.1-2.6-4.5-3.3-7.2-7.9-31 29.3-15.8 32-42.4 2.1-14.5-2.9-28.4.5-42.9 15.9-42.5 80.5-27.5 115.6-10.8-.4 1-.6 2.1-.7 3.3 1.6-.6 3-1.1 4.2-1.5 2 1 3.9 2 5.6 3 .7.4-1.9 6.1-2.1 6.9 3.1-1.4 5.5-3.3 6.1-6 .6-.4 1.4-.8 2.2-1.3.3.6.5 1.3.6 2.1.2-.9.2-1.7 0-2.5.4-.3.8-.5 1.2-.8.2.1.3.3.5.4 0-.2-.1-.4-.1-.7 2.8-1.8 5.8-4 7.1-5.5-5.8 7.6-4.3 4.6-.1 4.4zM202.2 174.1c3.8 8.2-9.2 39.5-20.2 67.3 12.8-28.5 26.8-56.4 20.2-67.3zM224.8 374.3c-6.3-7.1-5.7-5-1.9-7.1-.7-.8-8.1-1.5-8.6-2.8 5.9.5 7.7.5 10.5-.9-2.6-1.6-5.1-3.4-7.3-5.5 10.1 3.2 3.1-.1 3.7-1.6v-.4c-17-23.1-36.5-36.4-38-68-1-20.3 15.3-41.1 13.3-61-2.1 5.5-5.7 12.8-8.4 18 1.7-8.1 4.6-14.5 7.9-20.9-9.8 19-20.4 36.7-27.6 58.7.6-8 6.7-24 13.6-41.5-9.9 22.1-19 44.6-16.9 59.7 2.1 15 33 89 59.7 73.3zM207.1 200.8c-3 7.2-6.2 14-9.6 20.7 3.2-6.3 6.7-12.7 9.6-20.7zM202.2 174.1c-.3-.6-.6-1-1-1.4.4.5.7.9 1 1.4zM348.3 532.2c-35.7 15.6-95.2 14.7-119.2 5.2-4.2-1.6-7.4-3-10-4.1 21.2 24.5 91.2 22.5 129.2-1.1zM365.9 469.9c15.7 27.5 4.5 48.6-17.7 62.3 25.8-11.2 39.1-31 17.7-62.3zM456.6 491.6c-18.8-52.1-45.5-104.1-73.1-74.5 2.5 1.8 9.7 4 10.8 5.8-5.2 1.5-6.8 1.9-8.9 4.1 8.7 3.4 4.5 2.7 4.2 5.4l.1.4c14.1 11.3 31.2 18.2 42.5 33.1 10.9 14.3 26.3 91.2 22.6 47.8 4.8 13 9.2 26.2 13 39.6-5.8-20.2-8.9-40.9-11.2-61.7zM462.6 509.1c3.4 24 5.5 49.6 20 65.8-1.4-2.2-8.8-32-20-65.8zM455 475.7c.5 5.3 1 10.6 1.6 15.9 2.1 5.9 4.1 11.7 6 17.5-1.7-12-3.6-23.6-7.6-33.4z"/></symbol></svg>