<?xml version="1.0" encoding="utf-8"?><!DOCTYPE svg PUBLIC "-//W3C//DTD SVG 1.1//EN" "http://www.w3.org/Graphics/SVG/1.1/DTD/svg11.dtd"><svg xmlns="http://www.w3.org/2000/svg" xmlns:xlink="http://www.w3.org/1999/xlink"><symbol viewBox="-269 361 72 72" enable-background="new -269 361 72 72" id="audio"><path d="M-837.7 431v-46h12.1l-17.5-26-17.4 26h12v46zM-810.4 359v46h-12.1l17.5 26 16.5-26h-12.2v-46zM-532.7 389.2l9.8 19.4S-507 369.2-482 356c-.6 9.4-3.1 17.5 1.2 27.5-11 2.5-33.6 30.7-40.9 44.5-10.4-13.1-22.6-23.2-31.1-26.3l20.1-12.5zM-386 361h72v11.7h-72V361zm0 20.3h54V393h-54v-11.7zm0 19.7h36v11.7h-36V401zm0 20.3h18V433h-18v-11.7zM-631.6 425.8c-2.5 2.5-7.2 3.1-9.7.7l-22.3-22.5c-1.6-1.6-2.1-3.8-1.7-5.8-4 2.9-8 3.8-13.1 3.8-6.2 0-12-2.4-16.3-6.8-4.3-4.4-6.7-10.1-6.7-16.3 0-6.1 2.4-11.9 6.8-16.2 9-8.9 23.7-8.8 32.6.2 8.1 8.2 9.5 20.2 2.8 29.2 2-.4 4.3.1 5.9 1.7l22.3 22.4c2.6 2.4 1.9 7.1-.6 9.6zm-33.2-46.9c0-3.6-1.4-6.9-3.9-9.5-5.2-5.2-13.7-5.3-19-.1-5.3 5.2-5.3 13.7-.1 18.9 5.2 5.2 13.7 5.3 19 .1 2.5-2.5 3.9-5.8 4-9.4zM-200.2 410.9l-.8 2.1-7.9 1.4c-1.2 4.6-5.4 8.1-10.5 8.1v1.4c0 .8-.6 1.4-1.4 1.4h-2.7c-.8 0-1.4-.6-1.4-1.4v-24.5c0-.8.6-1.4 1.4-1.4h2.7c.8 0 1.4.6 1.4 1.4v1.4c4.1 0 7.6 2.3 9.5 5.6l2.9-.5c.8-2.6 1.2-5.4 1.2-8.2 0-12.8-12.7-24-27.2-24s-27.2 11.2-27.2 24c0 2.8.4 5.6 1.2 8.2l2.9.5c1.9-3.3 5.4-5.6 9.5-5.6v-1.4c0-.8.6-1.4 1.4-1.4h2.7c.8 0 1.4.6 1.4 1.4v24.5c0 .8-.6 1.4-1.4 1.4h-2.7c-.8 0-1.4-.6-1.4-1.4v-1.4c-5.1 0-9.3-3.4-10.5-8.1l-7.9-1.4-.8-2.1c-1.7-4.2-2.5-8.7-2.5-13.3 0-17.5 16.2-32.2 35.3-32.2s35.3 14.7 35.3 32.2c0 4.5-.8 9-2.5 13.3z"/></symbol><symbol viewBox="0 0 20 19" enable-background="new 0 0 20 19" id="chat"><path d="M20 7.5C20 3.358 16.167 0 10 0S0 3.358 0 7.5 3.5 15 10 15c.062 0 .12-.005.18-.006C12.143 17.197 14.974 19 14.974 19s-.422-2.32-.623-4.605C18.046 13.248 20 10.595 20 7.5z"/></symbol><symbol viewBox="0 0 32 32" enable-background="new 0 0 32 32" id="fave"><path d="M31 10.4c0-4.5-3.4-8.1-7.5-8.1-4 0-7.3 2-7.5 6.3-.2-4.3-3.5-6.3-7.5-6.3C4.4 2.3 1 5.9 1 10.4c0 2.4.9 4.5 2.4 6 0 0 11 10.8 12.6 13.3 0 0 1.2-2.5 12.3-13l.3-.3c1.5-1.5 2.4-3.6 2.4-6zM23 18h-5v5h-4v-5H9v-4h5V9h4v5h5v4z"/></symbol><symbol viewBox="0 0 72 72" id="filter"><g fill-rule="evenodd" clip-rule="evenodd"><path d="M-451.7 70V24h12.1l-17.5-26-17.4 26h12v46zM-424.4-2v46h-12.1l17.5 26 16.5-26h-12.2V-2z"/></g><path fill-rule="evenodd" clip-rule="evenodd" d="M-146.7 28.2l9.8 19.4S-121 8.2-96-5c-.6 9.4-3.1 17.5 1.2 27.5-11 2.5-33.6 30.7-40.9 44.5-10.4-13.1-22.6-23.2-31.1-26.3l20.1-12.5zM0 0h72v11.7H0V0zm0 20.3h54V32H0V20.3zM0 40h36v11.7H0V40zm0 20.3h18V72H0V60.3zM-245.6 64.8c-2.5 2.5-7.2 3.1-9.7.7L-277.6 43c-1.6-1.6-2.1-3.8-1.7-5.8-4 2.9-8 3.8-13.1 3.8-6.2 0-12-2.4-16.3-6.8-4.3-4.4-6.7-10.1-6.7-16.3 0-6.1 2.4-11.9 6.8-16.2 9-8.9 23.7-8.8 32.6.2 8.1 8.2 9.5 20.2 2.8 29.2 2-.4 4.3.1 5.9 1.7l22.3 22.4c2.6 2.4 1.9 7.1-.6 9.6zm-33.2-46.9c0-3.6-1.4-6.9-3.9-9.5-5.2-5.2-13.7-5.3-19-.1-5.3 5.2-5.3 13.7-.1 18.9 5.2 5.2 13.7 5.3 19 .1 2.5-2.5 3.9-5.8 4-9.4z"/></symbol><symbol viewBox="0 0 32 32" enable-background="new 0 0 32 32" id="heart"><path d="M32 10c0-4.8-3.6-8.7-8-8.7-4.3 0-7.8 2.2-8 6.7-.2-4.6-3.7-6.7-8-6.7-4.4 0-8 3.9-8 8.7 0 2.5 1 4.8 2.6 6.4 0 0 11.7 11.5 13.4 14.2 0 0 1.3-2.7 13.1-13.9l.3-.3C31 14.8 32 12.6 32 10z"/></symbol><symbol viewBox="0 0 20 14.0053" enable-background="new 0 0 20 14.0053" id="people-list"><g><path d="M7.7 8.335C7.046 8.745 6.303 9 5.5 9s-1.546-.254-2.2-.665C1.36 8.952 0 10.36 0 12c0 2.21 2.462 2 5.5 2s5.5.21 5.5-2c0-1.64-1.358-3.048-3.3-3.665z"/><ellipse cx="5.5" cy="4" rx="3.5" ry="4"/><path d="M20 3c0 .55-.45 1-1 1h-6c-.55 0-1-.45-1-1s.45-1 1-1h6c.55 0 1 .45 1 1zM20 7c0 .55-.45 1-1 1h-7c-.55 0-1-.45-1-1s.45-1 1-1h7c.55 0 1 .45 1 1zM20 11c0 .55-.45 1-1 1h-5c-.55 0-1-.45-1-1s.45-1 1-1h5c.55 0 1 .45 1 1z"/></g></symbol><symbol viewBox="0 0 16.9601 22.219" enable-background="new 0 0 16.9601 22.219" id="phone"><path d="M1.65 1.48s-4.665 2.914 1.694 13.09 11.023 7.262 11.023 7.262l2.126-1.328c.465-.29.607-.904.316-1.37l-2.127-3.402c-.29-.465-.904-.607-1.37-.316l-2.55 1.593s-.847.53-4.027-4.56-2.33-5.617-2.33-5.617L6.953 5.24c.466-.29.607-.904.316-1.37L5.144.467C4.854.002 4.24-.14 3.774.15L1.65 1.48z"/></symbol><symbol viewBox="0 0 72 72" id="picks"><g fill-rule="evenodd" clip-rule="evenodd"><path d="M-285 75V29h12.1l-17.4-26-17.5 26h12.1v46zM-257.6 3v46h-12.1l17.4 26 16.5-26h-12.1V3z"/></g><path fill-rule="evenodd" clip-rule="evenodd" d="M20.1 33.2l9.8 19.4S45.8 13.2 70.8 0c-.6 9.4-3.1 17.5 1.2 27.5C61 30.1 38.4 58.2 31.1 72 20.7 58.9 8.5 48.8 0 45.7l20.1-12.5zM166.8 5h72v11.7h-72V5zm0 20.3h54V37h-54V25.3zm0 19.7h36v11.7h-36V45zm0 20.3h18V77h-18V65.3zM-78.8 69.8c-2.5 2.5-7.2 3.1-9.7.7L-110.9 48c-1.6-1.6-2.1-3.8-1.7-5.8-4 2.9-8 3.8-13.1 3.8-6.2 0-12-2.4-16.3-6.8-4.3-4.4-6.7-10.1-6.7-16.3 0-6.1 2.4-11.9 6.8-16.2 9-8.9 23.7-8.8 32.6.2 8.3 8.1 9.7 20.1 3 29.1 2-.4 4.3.1 5.9 1.7l22.3 22.4c2.5 2.5 1.7 7.2-.7 9.7zm-33.3-46.9c0-3.6-1.4-6.9-3.9-9.5-5.2-5.2-13.7-5.3-19-.1-5.3 5.2-5.3 13.7-.1 18.9 5.2 5.2 13.7 5.3 19 .1 2.6-2.5 4-5.8 4-9.4z"/></symbol><symbol viewBox="0 0 72 72" id="search"><g fill-rule="evenodd" clip-rule="evenodd"><path d="M-136.4 75V29h12.1l-17.4-26-17.5 26h12.1v46zM-109 3v46h-12.1l17.4 26 16.5-26h-12.1V3z"/></g><path fill-rule="evenodd" clip-rule="evenodd" d="M168.7 33.2l9.8 19.4S194.4 13.2 219.4 0c-.6 9.4-3.1 17.5 1.2 27.5-11 2.5-33.6 30.7-40.9 44.5-10.4-13.1-22.6-23.2-31.1-26.3l20.1-12.5zM315.4 5h72v11.7h-72V5zm0 20.3h54V37h-54V25.3zm0 19.7h36v11.7h-36V45zm0 20.3h18V77h-18V65.3zM69.7 69.8c-2.5 2.5-7.2 3.1-9.7.7L37.7 48c-1.6-1.6-2.1-3.8-1.7-5.8-4 2.9-8 3.8-13.1 3.8-6.2 0-12-2.4-16.3-6.8C2.4 34.8 0 29 0 22.9 0 16.7 2.4 11 6.8 6.6c9-8.9 23.7-8.8 32.6.2C47.6 15 49 27 42.3 36c2-.4 4.3.1 5.9 1.7l22.3 22.4c2.4 2.5 1.7 7.2-.8 9.7zM36.5 22.9c0-3.6-1.4-6.9-3.9-9.5-5.2-5.2-13.7-5.3-19-.1-5.2 5.2-5.3 13.7-.1 18.9 5.2 5.2 13.7 5.3 19 .1 2.6-2.5 4-5.8 4-9.4z"/></symbol><symbol viewBox="0 0 72 72" id="sort"><g fill-rule="evenodd" clip-rule="evenodd"><path d="M22.8 72V26h12.1L17.5 0 0 26h12.1v46zM50.2 0v46H38l17.5 26L72 46H59.9V0z"/></g><path fill-rule="evenodd" clip-rule="evenodd" d="M327.9 30.2l9.8 19.4S353.6 10.2 378.6-3c-.6 9.4-3.1 17.5 1.2 27.5-11 2.5-33.6 30.7-40.9 44.5-10.4-13.1-22.6-23.2-31.1-26.3l20.1-12.5zM474.5 2h72v11.7h-72V2zm0 20.3h54V34h-54V22.3zm0 19.7h36v11.7h-36V42zm0 20.3h18V74h-18V62.3zM228.9 66.8c-2.5 2.5-7.2 3.1-9.7.7L196.9 45c-1.6-1.6-2.1-3.8-1.7-5.8-4 2.9-8 3.8-13.1 3.8-6.2 0-12-2.4-16.3-6.8-4.3-4.4-6.7-10.1-6.7-16.3 0-6.1 2.4-11.9 6.8-16.2 9-8.9 23.7-8.8 32.6.2 8.1 8.2 9.5 20.2 2.8 29.2 2-.4 4.3.1 5.9 1.7l22.3 22.4c2.6 2.4 1.9 7.1-.6 9.6zm-33.2-46.9c0-3.6-1.4-6.9-3.9-9.5-5.2-5.2-13.7-5.3-19-.1-5.3 5.2-5.3 13.7-.1 18.9 5.2 5.2 13.7 5.3 19 .1 2.6-2.5 4-5.8 4-9.4z"/></symbol><symbol viewBox="0 0 32 32" enable-background="new 0 0 32 32" id="unfave"><path d="M32 10c0-4.8-3.6-8.7-8-8.7-4.3 0-7.8 2.2-8 6.7-.2-4.6-3.7-6.7-8-6.7-4.4 0-8 3.9-8 8.7 0 2.5 1 4.8 2.6 6.4 0 0 11.7 11.5 13.4 14.2 0 0 1.3-2.7 13.1-13.9l.3-.3C31 14.8 32 12.6 32 10zm-9 7H9v-4h14v4z"/></symbol><symbol viewBox="-269 361 72 72" enable-background="new -269 361 72 72" id="video"><path d="M-867.7 431v-46h12.1l-17.5-26-17.4 26h12v46zM-840.4 359v46h-12.1l17.5 26 16.5-26h-12.2v-46zM-562.7 389.2l9.8 19.4S-537 369.2-512 356c-.6 9.4-3.1 17.5 1.2 27.5-11 2.5-33.6 30.7-40.9 44.5-10.4-13.1-22.6-23.2-31.1-26.3l20.1-12.5zM-416 361h72v11.7h-72V361zm0 20.3h54V393h-54v-11.7zm0 19.7h36v11.7h-36V401zm0 20.3h18V433h-18v-11.7zM-661.6 425.8c-2.5 2.5-7.2 3.1-9.7.7l-22.3-22.5c-1.6-1.6-2.1-3.8-1.7-5.8-4 2.9-8 3.8-13.1 3.8-6.2 0-12-2.4-16.3-6.8-4.3-4.4-6.7-10.1-6.7-16.3 0-6.1 2.4-11.9 6.8-16.2 9-8.9 23.7-8.8 32.6.2 8.1 8.2 9.5 20.2 2.8 29.2 2-.4 4.3.1 5.9 1.7l22.3 22.4c2.6 2.4 1.9 7.1-.6 9.6zm-33.2-46.9c0-3.6-1.4-6.9-3.9-9.5-5.2-5.2-13.7-5.3-19-.1-5.3 5.2-5.3 13.7-.1 18.9 5.2 5.2 13.7 5.3 19 .1 2.5-2.5 3.9-5.8 4-9.4zM-197.1 396c0-10.6-1.1-19.5-3.2-23.5-1.1-2.9-4.3-5.2-8-5.2h-49.6c-3.4 0-6.6 2.3-7.7 5.2-2 4-3.2 12.9-3.2 23.5s1.1 19.5 3.2 23.5c1.1 2.9 4.3 5.2 7.7 5.2h49.6c3.4 0 6.6-2.3 8-5.2 2-4 3.2-12.9 3.2-23.5zm-49.2-19.2L-213 396l-33.3 19.2v-38.4z"/></symbol></svg>