<?xml version="1.0" encoding="utf-8"?><!DOCTYPE svg PUBLIC "-//W3C//DTD SVG 1.1//EN" "http://www.w3.org/Graphics/SVG/1.1/DTD/svg11.dtd"><svg xmlns="http://www.w3.org/2000/svg" xmlns:xlink="http://www.w3.org/1999/xlink"><symbol viewBox="0 0 72 72" id="filter"><g fill-rule="evenodd" clip-rule="evenodd"><path d="M-451.7 70V24h12.1l-17.5-26-17.4 26h12v46zM-424.4-2v46h-12.1l17.5 26 16.5-26h-12.2V-2z"/></g><path fill-rule="evenodd" clip-rule="evenodd" d="M-146.7 28.2l9.8 19.4S-121 8.2-96-5c-.6 9.4-3.1 17.5 1.2 27.5-11 2.5-33.6 30.7-40.9 44.5-10.4-13.1-22.6-23.2-31.1-26.3l20.1-12.5zM0 0h72v11.7H0V0zm0 20.3h54V32H0V20.3zM0 40h36v11.7H0V40zm0 20.3h18V72H0V60.3zM-245.6 64.8c-2.5 2.5-7.2 3.1-9.7.7L-277.6 43c-1.6-1.6-2.1-3.8-1.7-5.8-4 2.9-8 3.8-13.1 3.8-6.2 0-12-2.4-16.3-6.8-4.3-4.4-6.7-10.1-6.7-16.3 0-6.1 2.4-11.9 6.8-16.2 9-8.9 23.7-8.8 32.6.2 8.1 8.2 9.5 20.2 2.8 29.2 2-.4 4.3.1 5.9 1.7l22.3 22.4c2.6 2.4 1.9 7.1-.6 9.6zm-33.2-46.9c0-3.6-1.4-6.9-3.9-9.5-5.2-5.2-13.7-5.3-19-.1-5.3 5.2-5.3 13.7-.1 18.9 5.2 5.2 13.7 5.3 19 .1 2.5-2.5 3.9-5.8 4-9.4z"/></symbol><symbol viewBox="0 0 72 72" id="picks"><g fill-rule="evenodd" clip-rule="evenodd"><path d="M-285 75V29h12.1l-17.4-26-17.5 26h12.1v46zM-257.6 3v46h-12.1l17.4 26 16.5-26h-12.1V3z"/></g><path fill-rule="evenodd" clip-rule="evenodd" d="M20.1 33.2l9.8 19.4S45.8 13.2 70.8 0c-.6 9.4-3.1 17.5 1.2 27.5C61 30.1 38.4 58.2 31.1 72 20.7 58.9 8.5 48.8 0 45.7l20.1-12.5zM166.8 5h72v11.7h-72V5zm0 20.3h54V37h-54V25.3zm0 19.7h36v11.7h-36V45zm0 20.3h18V77h-18V65.3zM-78.8 69.8c-2.5 2.5-7.2 3.1-9.7.7L-110.9 48c-1.6-1.6-2.1-3.8-1.7-5.8-4 2.9-8 3.8-13.1 3.8-6.2 0-12-2.4-16.3-6.8-4.3-4.4-6.7-10.1-6.7-16.3 0-6.1 2.4-11.9 6.8-16.2 9-8.9 23.7-8.8 32.6.2 8.3 8.1 9.7 20.1 3 29.1 2-.4 4.3.1 5.9 1.7l22.3 22.4c2.5 2.5 1.7 7.2-.7 9.7zm-33.3-46.9c0-3.6-1.4-6.9-3.9-9.5-5.2-5.2-13.7-5.3-19-.1-5.3 5.2-5.3 13.7-.1 18.9 5.2 5.2 13.7 5.3 19 .1 2.6-2.5 4-5.8 4-9.4z"/></symbol><symbol viewBox="0 0 72 72" id="search"><g fill-rule="evenodd" clip-rule="evenodd"><path d="M-136.4 75V29h12.1l-17.4-26-17.5 26h12.1v46zM-109 3v46h-12.1l17.4 26 16.5-26h-12.1V3z"/></g><path fill-rule="evenodd" clip-rule="evenodd" d="M168.7 33.2l9.8 19.4S194.4 13.2 219.4 0c-.6 9.4-3.1 17.5 1.2 27.5-11 2.5-33.6 30.7-40.9 44.5-10.4-13.1-22.6-23.2-31.1-26.3l20.1-12.5zM315.4 5h72v11.7h-72V5zm0 20.3h54V37h-54V25.3zm0 19.7h36v11.7h-36V45zm0 20.3h18V77h-18V65.3zM69.7 69.8c-2.5 2.5-7.2 3.1-9.7.7L37.7 48c-1.6-1.6-2.1-3.8-1.7-5.8-4 2.9-8 3.8-13.1 3.8-6.2 0-12-2.4-16.3-6.8C2.4 34.8 0 29 0 22.9 0 16.7 2.4 11 6.8 6.6c9-8.9 23.7-8.8 32.6.2C47.6 15 49 27 42.3 36c2-.4 4.3.1 5.9 1.7l22.3 22.4c2.4 2.5 1.7 7.2-.8 9.7zM36.5 22.9c0-3.6-1.4-6.9-3.9-9.5-5.2-5.2-13.7-5.3-19-.1-5.2 5.2-5.3 13.7-.1 18.9 5.2 5.2 13.7 5.3 19 .1 2.6-2.5 4-5.8 4-9.4z"/></symbol><symbol viewBox="0 0 72 72" id="sort"><g fill-rule="evenodd" clip-rule="evenodd"><path d="M22.8 72V26h12.1L17.5 0 0 26h12.1v46zM50.2 0v46H38l17.5 26L72 46H59.9V0z"/></g><path fill-rule="evenodd" clip-rule="evenodd" d="M327.9 30.2l9.8 19.4S353.6 10.2 378.6-3c-.6 9.4-3.1 17.5 1.2 27.5-11 2.5-33.6 30.7-40.9 44.5-10.4-13.1-22.6-23.2-31.1-26.3l20.1-12.5zM474.5 2h72v11.7h-72V2zm0 20.3h54V34h-54V22.3zm0 19.7h36v11.7h-36V42zm0 20.3h18V74h-18V62.3zM228.9 66.8c-2.5 2.5-7.2 3.1-9.7.7L196.9 45c-1.6-1.6-2.1-3.8-1.7-5.8-4 2.9-8 3.8-13.1 3.8-6.2 0-12-2.4-16.3-6.8-4.3-4.4-6.7-10.1-6.7-16.3 0-6.1 2.4-11.9 6.8-16.2 9-8.9 23.7-8.8 32.6.2 8.1 8.2 9.5 20.2 2.8 29.2 2-.4 4.3.1 5.9 1.7l22.3 22.4c2.6 2.4 1.9 7.1-.6 9.6zm-33.2-46.9c0-3.6-1.4-6.9-3.9-9.5-5.2-5.2-13.7-5.3-19-.1-5.3 5.2-5.3 13.7-.1 18.9 5.2 5.2 13.7 5.3 19 .1 2.6-2.5 4-5.8 4-9.4z"/></symbol></svg>