<?xml version="1.0" encoding="utf-8"?>
<!-- Generator: Adobe Illustrator 19.0.0, SVG Export Plug-In . SVG Version: 6.00 Build 0)  -->
<svg version="1.1" id="Layer_1" xmlns="http://www.w3.org/2000/svg" xmlns:xlink="http://www.w3.org/1999/xlink" x="0px" y="0px"
	 width="35.4px" height="87.1px" viewBox="0 0 35.4 87.1" style="enable-background:new 0 0 35.4 87.1;" xml:space="preserve">
<g id="XMLID_1_">
	<path id="XMLID_3_" d="M29,43v1.7c-3,0.5-5.4,1.6-7.2,3.4C20,49.8,19,51.8,19,54c0,1.5,0.4,3.8,1.1,6.7c0.7,2.7,1,5.1,1,7.1
		c0,4.4-1.6,8.2-4.8,11.5c-3.2,3.3-7.1,5.2-11.8,5.8v-1.7c3.4-0.5,6-1.8,7.7-3.9c1.7-2.1,2.5-4.3,2.5-6.7c0-1.8-0.3-4-0.8-6.6
		c-0.6-3.1-0.9-5.6-0.9-7.5c0-3.5,1.2-6.5,3.6-9.1c2.4-2.5,5.3-4.4,8.8-5.7c-3.9-1.5-6.9-3.5-9.1-6.2c-2.2-2.7-3.3-5.6-3.3-8.8
		c0-1.8,0.3-4.2,1-7.4c0.5-2.6,0.8-4.8,0.8-6.6c0-5.6-3.4-9.2-10.2-10.9V2.5C9.2,3.1,13.1,5,16.3,8.3c3.2,3.4,4.7,7.1,4.7,11.4
		c0,2-0.3,4.3-0.9,6.9C19.4,29.7,19,32,19,33.4c0,2.1,0.8,4.1,2.5,5.9C23.1,41.2,25.6,42.4,29,43z"/>
</g>
</svg>
