<?xml version="1.0" encoding="utf-8"?>
<!-- Generator: Adobe Illustrator 19.0.0, SVG Export Plug-In . SVG Version: 6.00 Build 0)  -->
<svg version="1.1" id="Layer_1" xmlns="http://www.w3.org/2000/svg" xmlns:xlink="http://www.w3.org/1999/xlink" x="0px" y="0px"
	 width="35.4px" height="87.1px" viewBox="0 0 35.4 87.1" style="enable-background:new 0 0 35.4 87.1;" xml:space="preserve">
<g id="XMLID_1_">
	<path id="XMLID_3_" d="M4.5,44.7V43c3-0.5,5.4-1.6,7.2-3.4c1.8-1.7,2.8-3.7,2.8-6c0-1.5-0.4-3.8-1.1-6.7c-0.7-2.7-1-5.1-1-7.1
		c0-4.4,1.6-8.2,4.8-11.5C20.4,5,24.4,3.1,29,2.5v1.7c-3.4,0.5-6,1.8-7.7,3.9c-1.7,2.1-2.5,4.3-2.5,6.7c0,1.8,0.3,4,0.8,6.6
		c0.6,3.1,0.9,5.6,0.9,7.5c0,3.5-1.2,6.5-3.6,9.1c-2.4,2.5-5.3,4.4-8.8,5.7c3.9,1.5,6.9,3.5,9.1,6.2c2.2,2.7,3.3,5.6,3.3,8.8
		c0,1.8-0.3,4.2-1,7.4c-0.5,2.6-0.8,4.8-0.8,6.6c0,5.6,3.4,9.2,10.2,10.9v1.5c-4.7-0.5-8.6-2.5-11.8-5.8c-3.2-3.4-4.7-7.1-4.7-11.4
		c0-2,0.3-4.3,0.9-6.9c0.7-3.1,1.1-5.3,1.1-6.8c0-2.1-0.8-4.1-2.5-5.9C10.4,46.5,7.9,45.3,4.5,44.7z"/>
</g>
</svg>
