<?xml version="1.0" encoding="utf-8"?>
<!-- Generator: Adobe Illustrator 15.1.0, SVG Export Plug-In  -->
<!DOCTYPE svg PUBLIC "-//W3C//DTD SVG 1.1//EN" "http://www.w3.org/Graphics/SVG/1.1/DTD/svg11.dtd" [
	<!ENTITY ns_flows "http://ns.adobe.com/Flows/1.0/">
]>
<svg version="1.1"
	 xmlns="http://www.w3.org/2000/svg" xmlns:xlink="http://www.w3.org/1999/xlink" xmlns:a="http://ns.adobe.com/AdobeSVGViewerExtensions/3.0/"
	 x="0px" y="0px" width="32px" height="20px" viewBox="0 0 32 20" overflow="visible" enable-background="new 0 0 32 20"
	 xml:space="preserve">
<defs>
</defs>
<rect fill="#CCCCCC" width="32" height="20"/>
<rect y="2" width="32" height="5"/>
<rect x="2" y="9.167" fill="#FFFFFF" width="20" height="5"/>
<rect x="22.5" y="9.167" fill="#FFFFFF" width="7" height="5"/>
<path fill="#666666" d="M11.011,16.498c-0.019,0-0.038-0.002-0.056-0.007c-0.072-0.017-0.133-0.064-0.167-0.131
	c-0.124-0.245-0.069-0.688,0.189-1.527l0.021-0.071c0.113-0.392,0.241-0.777,0.384-1.153c-0.028-0.009-0.054-0.021-0.078-0.04
	c-0.062-0.047-0.099-0.12-0.099-0.197l0-0.083C11.203,12.869,11.2,12.142,11,11.74c-0.15,0.123-0.299,0.269-0.454,0.42
	c-0.378,0.371-0.77,0.755-1.274,0.891c-0.073,0.021-0.154,0.005-0.216-0.042c-0.062-0.046-0.098-0.119-0.099-0.196
	c-0.004-0.347,0-0.694,0.004-1.043c-0.243,0.502-0.881,1.626-1.649,1.429C7,13.117,6.858,12.905,6.799,12.659
	c-0.293,0.41-0.692,0.741-1.094,0.807c-0.073,0.011-0.141-0.007-0.196-0.052c-0.055-0.044-0.089-0.109-0.094-0.18
	c-0.01-0.149-0.005-0.298,0.009-0.445c-0.549,0.626-1.351,1.23-2.103,1.076c-0.116-0.022-0.201-0.123-0.203-0.241
	c-0.012-0.824,0.518-1.493,1.062-2.108c0.012-0.014,1.211-1.322,1.842-1.208c0.028,0.004,0.054,0.011,0.08,0.02
	c0.016-0.001,0.032-0.001,0.048,0.001c0.127,0.016,0.223,0.125,0.22,0.254c0,0.011,0,0.021-0.001,0.032
	c0.009,0.044,0.006,0.088-0.007,0.128c-0.03,0.375-0.131,0.746-0.229,1.106c-0.093,0.343-0.182,0.672-0.212,0.995
	c0.436-0.29,0.871-0.987,0.838-1.446c-0.008-0.123,0.074-0.234,0.195-0.262c0.123-0.025,0.243,0.038,0.288,0.153
	c0.072,0.184,0.054,0.421,0.035,0.671c-0.037,0.482-0.022,0.706,0.161,0.753c0.309,0.088,0.81-0.579,1.122-1.263
	c0.114-0.249,0.156-0.526,0.2-0.82c0.044-0.292,0.089-0.594,0.211-0.875c0.046-0.106,0.158-0.167,0.274-0.146
	C9.359,9.629,9.444,9.726,9.45,9.842c0.032,0.606,0.023,1.221,0.014,1.816c-0.004,0.258-0.008,0.516-0.008,0.773
	c0.254-0.15,0.493-0.385,0.741-0.628c0.228-0.224,0.464-0.455,0.722-0.625c0.099-0.064,0.23-0.054,0.314,0.032
	c0.337,0.336,0.432,0.958,0.459,1.505c0.12-0.298,0.215-0.699,0.289-1.01c0.099-0.416,0.184-0.775,0.313-1.004
	c0.048-0.084,0.133-0.136,0.236-0.126c0.096,0.007,0.18,0.069,0.215,0.159c0.02,0.051,0.039,0.102,0.057,0.15
	c0.55-0.776,1.314-1.616,2.274-2.096c0.091-0.045,0.202-0.031,0.279,0.038c0.639,0.572,0.75,2.048,0.741,3.089
	c0.324-0.322,0.918-0.81,1.335-0.914c0.125-0.035,0.255,0.038,0.298,0.159c0.088,0.252,0.118,0.512,0.146,0.763
	c0.005,0.04,0.01,0.081,0.015,0.122c0.146-0.121,0.305-0.238,0.52-0.316c0.104-0.039,0.2-0.052,0.286-0.062
	c0.113-0.016,0.175-0.025,0.232-0.071c0.107-0.084,0.265-0.067,0.352,0.041c0.086,0.108,0.067,0.266-0.041,0.352
	c-0.169,0.133-0.34,0.156-0.478,0.174c-0.068,0.009-0.127,0.017-0.179,0.036c-0.181,0.065-0.312,0.179-0.465,0.311
	c-0.08,0.068-0.161,0.138-0.252,0.204c-0.067,0.05-0.154,0.062-0.232,0.034s-0.138-0.093-0.158-0.174
	c-0.049-0.191-0.073-0.392-0.096-0.593c-0.017-0.137-0.031-0.269-0.056-0.395c-0.328,0.182-0.761,0.551-0.975,0.789
	c-0.115,0.128-0.22,0.355-0.311,0.601c-0.065,0.491-0.197,0.926-0.324,1.349c-0.079,0.26-0.158,0.522-0.225,0.806
	c-0.026,0.112-0.126,0.191-0.241,0.192c0,0-0.001,0-0.002,0c-0.114,0-0.214-0.077-0.242-0.188c-0.095-0.371,0.083-0.867,0.2-1.195
	l0.044-0.127c0.029-0.086,0.061-0.193,0.096-0.312c0.061-0.204,0.128-0.43,0.206-0.646c0.01-0.082,0.017-0.166,0.022-0.252
	c0.071-1.177-0.008-2.682-0.439-3.276c-0.92,0.518-1.643,1.406-2.135,2.162c0.201,0.715,0.237,1.291,0.107,1.719
	c-0.091,0.299-0.26,0.58-0.423,0.853c-0.081,0.134-0.16,0.267-0.226,0.396c-0.055,0.107-0.11,0.222-0.167,0.339
	c-0.284,0.589-0.606,1.257-1.128,1.654C11.118,16.48,11.065,16.498,11.011,16.498z M12.629,12.1
	c-0.468,0.839-0.863,1.799-1.151,2.801l-0.024,0.08c-0.077,0.249-0.129,0.445-0.164,0.601c0.212-0.306,0.388-0.669,0.55-1.006
	c0.058-0.12,0.114-0.237,0.17-0.348c0.071-0.139,0.156-0.281,0.244-0.427c0.147-0.246,0.3-0.501,0.373-0.739
	C12.685,12.871,12.714,12.569,12.629,12.1z M5.811,10.835c-0.337,0.149-1.021,0.749-1.255,1.013
	c-0.42,0.476-0.832,0.982-0.919,1.537c0.666-0.059,1.451-0.866,1.815-1.466C5.641,11.608,5.733,11.203,5.811,10.835z"/>
<text transform="matrix(1 0 0 1 23.001 12.6309)" font-family="'Helvetica-Oblique'" font-size="3">123</text>
<g>
	<path fill="#EE2A69" d="M25.999,9.167c2.169,0,4.001,1.146,4.001,2.501c0,1.354-1.832,2.499-4.001,2.499
		c-2.168,0-3.999-1.145-3.999-2.499C22,10.312,23.831,9.167,25.999,9.167 M25.999,8.167C23.238,8.167,21,9.734,21,11.668
		c0,1.933,2.238,3.499,4.999,3.499c2.762,0,5.001-1.566,5.001-3.499C31,9.734,28.761,8.167,25.999,8.167L25.999,8.167z"/>
</g>
</svg>
