<?xml version="1.0" encoding="utf-8"?>
<!-- Generator: Adobe Illustrator 18.1.1, SVG Export Plug-In . SVG Version: 6.00 Build 0)  -->
<!DOCTYPE svg PUBLIC "-//W3C//DTD SVG 1.1//EN" "http://www.w3.org/Graphics/SVG/1.1/DTD/svg11.dtd">
<svg version="1.1" id="XMLID_1_" xmlns="http://www.w3.org/2000/svg" xmlns:xlink="http://www.w3.org/1999/xlink" x="0px" y="0px"
	 viewBox="0 0 14 12.8187" enable-background="new 0 0 14 12.8187" xml:space="preserve">
<path id="heart" fill="#DD5C8B" d="M14,3.8062C14,1.7062,12.425,0,10.5,0C8.6188,0,7.0875,0.9625,7,2.9312l0,0
	C6.9125,0.9187,5.3812,0,3.5,0C1.575,0,0,1.7063,0,3.8062c0,1.0938,0.4375,2.1,1.1375,2.8l0,0c0,0,5.1187,5.0312,5.8625,6.2125
	c0,0,0.5687-1.1813,5.7312-6.0813l0,0c0.0438-0.0437,0.0875-0.0875,0.1313-0.1312l0,0C13.5625,5.9062,14,4.9437,14,3.8062z"/>
</svg>
