<?xml version="1.0" encoding="utf-8"?>
<!-- Generator: Adobe Illustrator 17.1.0, SVG Export Plug-In . SVG Version: 6.00 Build 0)  -->
<!DOCTYPE svg PUBLIC "-//W3C//DTD SVG 1.1//EN" "http://www.w3.org/Graphics/SVG/1.1/DTD/svg11.dtd">
<svg version="1.1" id="Layer_1" xmlns="http://www.w3.org/2000/svg" xmlns:xlink="http://www.w3.org/1999/xlink" x="0px" y="0px"
	 viewBox="29 5 82 14" enable-background="new 29 5 82 14" xml:space="preserve">
<path fill="none" d="M104.3,6.6c-0.2-0.1-0.3-0.2-0.5-0.2c-0.2-0.1-0.4-0.1-0.6-0.2c0.1,0.3,0.2,0.5,0.3,0.8
	C103.8,6.9,104,6.7,104.3,6.6z"/>
<path fill="none" d="M0,8.8C0,8.9,0,8.9,0,8.8l0-0.1C0,8.7,0,8.8,0,8.8z"/>
<path fill="#ABC5C8" stroke="#ABC5C8" stroke-width="0.25" stroke-miterlimit="10" d="M109.1,8.8c-0.2,0.1-0.4,0.1-0.5,0.2
	c-0.4-0.3-0.9-0.5-1.4-0.6c-2.2-3.1-7-3.7-10-2.9c-3.1,0.9-4.3,3.3-1.7,5.4c1.2,1,3.1,1.2,4.6,1c-0.7,0.5-0.7,1.5-0.3,2.2
	c-0.1,0-0.2,0-0.4,0.1c-2.7,0.3-5.6-1.8-8.1-2.9c-5.4-2.3-12.2-4-18-1.6c-1.4,0.6-2.7,1.6-3,3.1c-0.2,0.2-0.4,0.5-0.4,0.8
	c0,0.5,0.4,0.8,0.8,0.9c0.2,0.1,0.4-0.3,0.1-0.4c0,0-0.1,0-0.1,0c-0.1,0-0.1-0.1-0.2-0.1c0,0-0.1-0.1-0.1-0.1
	c-0.2-0.3-0.1-0.5,0.1-0.7c0.1,0,0.1,0,0.1-0.1c0,0,0.1-0.1,0.2-0.1C71,13,71,13,71.1,13c0.1,0,0.2,0,0.3,0c0.4,0.1,0.8,0.4,1,0.8
	c0,0.1,0,0.1,0.1,0.2c0,0.1,0,0.1,0,0.2c0,0.1,0,0.1-0.1,0.2c0,0.1-0.1,0.1-0.1,0.2c-0.1,0.1-0.2,0.2-0.3,0.3
	c-0.1,0.1-0.3,0.2-0.4,0.2c-0.2,0.1-0.4,0.1-0.6,0.2c-0.4,0-0.7,0-1.1,0c-0.7-0.1-1.4-0.3-2.1-0.5c1.7-2.2,0.1-5.1-2.9-6.1
	c-1.3-0.4-3.3-0.5-4.6,0c-0.5-0.3-1.1-0.6-1.6-0.9C47.6,0.5,39.5,12.5,32,12.5c-0.3,0-0.7-0.1-1-0.3c-0.2-0.1-0.4-0.2-0.5-0.3
	c-0.1-0.1-0.3-0.3-0.5-0.6c0.4,0.1,0.8,0,1.1-0.2c0.5-0.3,0.9-0.8,0.8-1.4c-0.2-0.9-1.2-1.3-2-1.4c-0.3,0-0.6,0-0.9,0v0.4
	c0.3,0,0.7-0.1,1,0c0.2,0,0.4,0.1,0.6,0.2C30.8,9,31,9.1,31.1,9.2c0.1,0.1,0.2,0.2,0.3,0.3c0.1,0.1,0.1,0.1,0.1,0.2
	c0,0.1,0,0.1,0.1,0.2c0,0.1,0,0.1,0,0.2c0,0.1,0,0.1-0.1,0.2c-0.2,0.4-0.6,0.7-1,0.8c-0.1,0-0.2,0-0.3,0c-0.1,0-0.2,0-0.2-0.1
	c-0.3-0.2-0.7-0.5-0.4-0.9c0,0,0.1-0.1,0.1-0.1c0.1,0,0.1-0.1,0.2-0.1c0,0,0.1,0,0.1,0c0.2-0.1,0.1-0.5-0.1-0.4
	c-0.4,0.1-0.8,0.4-0.8,0.9v0.1c0,0.2,0.1,0.4,0.3,0.6c0.3,1.5,1.6,2.6,3,3.2c5.8,2.3,12.6,0.6,18-1.6c2.5-1,5.4-3.2,8.1-2.9
	c0.1,0,0.2,0,0.4,0.1c-0.4,0.7-0.3,1.7,0.3,2.2c-1.5-0.2-3.5,0-4.6,1c-2.6,2.1-1.4,4.6,1.7,5.4c2.9,0.8,7.8,0.3,10-2.9
	c0.5-0.1,1-0.3,1.4-0.6c0.2,0.1,0.4,0.1,0.5,0.2c0.9,0.3,1.8,0.5,2.7,0.5c0.8-0.1,1.8-0.5,2-1.4c0.1-0.6-0.3-1.1-0.8-1.4
	c-0.3-0.2-0.7-0.3-1-0.2c0.2-0.3,0.4-0.5,0.5-0.6c0.2-0.1,0.3-0.2,0.5-0.3c0.3-0.1,0.7-0.2,1-0.3c7.4,0.1,15.5,12,26.8,4.9
	c0.6-0.3,1.1-0.6,1.6-0.9c1.3,0.5,3.4,0.4,4.6,0c3-1,4.6-3.9,2.9-6.1c0.7-0.2,1.4-0.4,2.1-0.6c0,0,0,0,0,0V8.4
	C110.4,8.4,109.7,8.6,109.1,8.8z M31.4,13.1c-0.2-0.1-0.5-0.2-0.7-0.4c-0.1-0.1-0.1-0.1-0.2-0.2c0.7,0.4,1.6,0.5,2.4,0.5
	c7.6,0,15.9-11.2,27-4.2c-0.1,0-0.1,0.1-0.2,0.1C48,6.4,39.8,14.2,32.6,13.4C32.2,13.3,31.8,13.2,31.4,13.1z M32.9,13.8
	c3.5,0.3,9.3-2.1,12.8-3.1c2.3-0.7,4.6-1.3,6.9-1.6c2.2-0.3,4.5-0.3,6.7,0.1c-0.1,0.1-0.1,0.1-0.2,0.2C50.9,7.8,44.2,17.6,32.9,13.8
	z M59.1,10.1c0.1-0.1,0.1-0.3,0.2-0.4c0.1-0.1,0.2-0.2,0.3-0.3c0,0,0.1-0.1,0.1-0.1c0.4,0.1,0.9,0.2,1.3,0.3
	c0.1,0.1,0.3,0.3,0.4,0.4c0.8,1-0.3,1.7-1.3,1.8c-0.1,0-0.2,0-0.3,0c-0.1,0-0.2,0-0.3-0.1c-0.1,0-0.1-0.1-0.2-0.1
	C58.9,11.3,58.9,10.7,59.1,10.1z M66.2,14.7c-1.3,2.9-5.7,3.7-8.6,3.3c-3.6-0.5-4-3.2-2.3-4.7c1.1-1,3.1-1.4,5.3-0.5
	c0.3,0.1,0.6,0.3,0.8,0.5c0,0,0.1,0.1,0.1,0.1c-0.2,0-0.4,0.1-0.6,0.1c-1.2,0.3-2.5,1.8-1.3,2.7c0.9,0.7,2.6,0,3-1
	c0.2-0.5,0-1-0.2-1.5c0.5,0,1.1,0,1.6,0.1c0.6,0.1,1.2,0.2,1.7,0.4c0.2,0.1,0.4,0.2,0.6,0.2C66.2,14.6,66.2,14.6,66.2,14.7z
	 M61.6,13.8c0.1,0,0.2,0,0.3,0c0.1,0.1,0.2,0.3,0.2,0.4c0.1,0.1,0.1,0.3,0.1,0.5c0,0.1,0,0.2,0,0.3c0,0.1,0,0.2-0.1,0.2
	c0,0.1-0.1,0.2-0.1,0.2c-0.1,0.1-0.2,0.2-0.3,0.3c-0.4,0.3-0.9,0.5-1.5,0.4c-0.1,0-0.2,0-0.3-0.1c-0.1,0-0.1-0.1-0.2-0.1
	C58.8,15,60.7,13.9,61.6,13.8z M66.4,14.1c-0.4-0.2-0.7-0.3-1.1-0.4c-0.7-0.2-1.3-0.3-2-0.3c-0.4,0-0.8,0-1.1,0
	c-0.2-0.3-0.5-0.5-0.8-0.6c-0.3-0.2-0.6-0.3-1-0.4c0.4-0.1,0.7-0.2,1-0.4c0.9-0.5,1.1-1.2,0.5-2c1.8,0.6,4.2,1.3,4.5,3.5
	C66.4,13.6,66.4,13.8,66.4,14.1C66.4,14,66.4,14,66.4,14.1z M66.8,14.9c-0.1,0-0.2,0.1-0.3,0.1c0.1-0.1,0.1-0.3,0.2-0.4
	c0.2,0.1,0.3,0.1,0.5,0.2C67,14.9,66.9,14.9,66.8,14.9z M67.5,14.5c-0.1,0-0.2-0.1-0.2-0.1c-0.2-0.1-0.3-0.1-0.5-0.2
	c0.5-2.8-2.4-3.9-4.5-4.7c-0.3-0.1-0.6-0.2-1-0.3C61.1,9.1,61,9,60.8,8.9c0.1,0,0.3,0,0.4-0.1c4.2-1.2,8.8,2.4,6.4,5.5
	C67.6,14.4,67.5,14.5,67.5,14.5z M107.9,9.1c0.1,0,0.2,0.1,0.3,0.1c-0.2,0.1-0.3,0.1-0.5,0.2c0-0.2-0.1-0.3-0.2-0.5
	C107.6,9,107.7,9,107.9,9.1z M107.4,10c0,0.2,0,0.4,0,0.7c-0.3,2.2-2.7,2.9-4.5,3.5c0.6-0.8,0.4-1.6-0.5-2c-0.3-0.2-0.6-0.3-1-0.4
	c0.3-0.1,0.7-0.2,1-0.4c0.3-0.2,0.6-0.4,0.8-0.6c0.4,0,0.8,0,1.1,0c0.7,0,1.4-0.1,2-0.3C106.7,10.2,107,10.1,107.4,10
	C107.4,10,107.4,10,107.4,10z M102.7,10.2c-0.9-0.1-2.9-1.2-1.7-2.1c0.1,0,0.1-0.1,0.2-0.1c0.1,0,0.2-0.1,0.3-0.1
	c0.5-0.1,1,0.1,1.5,0.4c0.1,0.1,0.2,0.2,0.3,0.3c0.1,0.1,0.1,0.2,0.1,0.2c0,0.1,0.1,0.2,0.1,0.2c0,0.1,0,0.2,0,0.3
	c0,0.2-0.1,0.3-0.1,0.5c-0.1,0.1-0.1,0.3-0.2,0.4C102.9,10.2,102.8,10.2,102.7,10.2z M96.3,10.7C94.7,9.2,95,6.5,98.6,6
	c2.9-0.4,7.3,0.4,8.6,3.3c0,0.1,0.1,0.2,0.1,0.3c-0.2,0.1-0.4,0.2-0.6,0.2c-0.6,0.2-1.1,0.3-1.7,0.4c-0.5,0.1-1.1,0.1-1.6,0.1
	c0.2-0.4,0.4-1,0.2-1.5c-0.4-1-2.1-1.7-3-1c-1.1,0.9,0.1,2.4,1.3,2.7c0.2,0,0.4,0.1,0.6,0.1c0,0-0.1,0.1-0.1,0.1
	c-0.3,0.2-0.5,0.3-0.8,0.5C99.5,12.1,97.4,11.6,96.3,10.7z M100.1,14.6c0.1,0.1,0.1,0.2,0.2,0.2c-2.2,0.4-4.5,0.4-6.7,0.1
	c-2.4-0.3-4.7-0.9-6.9-1.6c-3.5-1-9.3-3.4-12.8-3.1C85.2,6.4,91.9,16.2,100.1,14.6z M74,11c-0.8,0-1.7,0.1-2.4,0.5
	c0.1-0.1,0.1-0.1,0.2-0.2c0.2-0.2,0.4-0.3,0.7-0.4c0.4-0.2,0.8-0.2,1.2-0.3c7.2-0.8,15.4,7,27.1,4.5c0.1,0,0.1,0.1,0.2,0.1
	C89.9,22.2,81.6,11,74,11z M100.8,14.7c0,0-0.1-0.1-0.1-0.1c-0.1-0.1-0.2-0.2-0.3-0.3c-0.1-0.1-0.2-0.3-0.2-0.4
	c-0.2-0.5-0.2-1.1,0.3-1.5c0.1,0,0.1-0.1,0.2-0.1c0.1,0,0.2-0.1,0.3-0.1c0.1,0,0.2,0,0.3,0c1,0.2,2,0.8,1.3,1.8
	c-0.1,0.2-0.3,0.3-0.4,0.4C101.7,14.5,101.3,14.6,100.8,14.7z M102.2,15.2c-0.1,0-0.3,0-0.4-0.1c0.2-0.1,0.3-0.2,0.4-0.3
	c0.3-0.1,0.6-0.2,1-0.3c2.1-0.8,5-1.8,4.5-4.7c0.2-0.1,0.3-0.1,0.5-0.2c0.1,0,0.2-0.1,0.2-0.1c0.1,0.1,0.1,0.1,0.2,0.2
	C111,12.7,106.5,16.4,102.2,15.2z"/>
</svg>
