<?xml version="1.0" encoding="utf-8"?>
<!-- Generator: Adobe Illustrator 18.1.1, SVG Export Plug-In . SVG Version: 6.00 Build 0)  -->
<svg version="1.1" id="Layer_1" xmlns="http://www.w3.org/2000/svg" xmlns:xlink="http://www.w3.org/1999/xlink" x="0px" y="0px"
	 viewBox="0 0 50 50" enable-background="new 0 0 50 50" xml:space="preserve">
<g>
	<g>
		<path fill="#6D9DBA" d="M3.8,34.9l8.9-0.7L9.9,26l4.9,7.2l5.9-6.7l-4,7.9l8.7,1.5l-8.9,0.7l2.8,8.2l-4.9-7.2l-5.9,6.7l4-7.9
			L3.8,34.9z M12.5,38.4l2-2.3l1.7,2.4l-1-2.8l3.1-0.3L15.3,35l1.4-2.7l-2,2.3l-1.6-2.5l1,2.8L11,35.1l2.9,0.5L12.5,38.4z"/>
		<path fill="#6D9DBA" d="M8.6,44.3l-0.2-0.1l4-7.8L3.7,35l0.1-0.2l8.8-0.7L9.9,26l0.1-0.1l4.8,7l5.8-6.6l0.2,0.2l-4,7.8l8.6,1.5
			L25.4,36l-8.8,0.7l2.7,8.1l-0.1,0.1l-4.8-7L8.6,44.3z M12.6,36.3l-3.7,7.2l5.4-6.1l0.1,0.1l4.4,6.6l-2.6-7.6l8.2-0.7l-8.1-1.3
			l3.7-7.2l-5.4,6.1l-4.3-6.8l2.6,7.6l-8.2,0.7L12.6,36.3z M12.6,38.5l-0.2-0.2l1.3-2.6l-2.8-0.5l0.1-0.2l3-0.3l-1-2.7l0.1-0.1
			l1.6,2.4l2-2.2l0.2,0.2l-1.4,2.6l2.8,0.5l-0.1,0.2l-2.9,0.2l0.9,2.7l-0.1,0.1l-1.4-2.2L12.6,38.5z M14,35.7l-1.1,2.1l1.6-1.8
			l1.2,1.9L15,35.7l2.5-0.2L15.1,35l1.1-2.2l-1.6,1.8l-1.3-1.9L14,35l-2.5,0.2L14,35.7z"/>
	</g>
	<g>
		<path fill="#C04747" d="M12.3,20l13.6-3.1l-6.2-12l9.2,9.9l7.6-11.7l-4.4,13l13.8,0.3l-13.6,3.1l6.2,12l-9.2-9.9l-7.6,11.7l4.4-13
			L12.3,20z M26.5,23.4l2.5-4l3.1,3.3l-2.1-4.1l4.7-1.1l-4.7-0.1l1.5-4.5l-2.5,4L26,13.5l2.1,4.1l-4.7,1.1l4.7,0.1L26.5,23.4z"/>
		<path fill="#C04747" d="M21.9,33.4l-0.4,0l4.3-12.9l-13.6-0.3l0-0.4l13.4-3.1L19.6,4.8l0.2-0.2l9,9.7l7.4-11.5l0.3,0.2L32.3,16
			l13.6,0.3l0,0.4l-13.4,3.1l6.1,11.8l-0.2,0.2l-9-9.7L21.9,33.4z M26.3,20.1l-4,12l6.9-10.7l0.2,0.2l8.2,9.1l-5.8-11.1l12.4-2.9
			l-12.7-0.2l4-12l-6.9,10.7l-8.2-9.4l5.8,11.1l-12.4,2.9L26.3,20.1z M26.7,23.4l-0.3-0.2l1.3-4.3l-4.5-0.1l0-0.4l4.5-1.2l-2.1-3.9
			l0.2-0.2l2.9,3.3l2.5-3.8l0.3,0.2l-1.5,4.3l4.5,0.1l0,0.4l-4.5,1l2,3.9l-0.2,0.2l-2.6-3.1L26.7,23.4z M28.3,18.8l-1.2,3.4l2.1-3.1
			l2.3,2.7l-1.7-3.1l3.7-0.9l-3.7-0.2l1.2-3.6l-2.1,3.1l-2.5-2.7l1.7,3.3l-3.7,0.9L28.3,18.8z"/>
	</g>
</g>
</svg>
