<?xml version="1.0" encoding="utf-8"?>
<!-- Generator: Adobe Illustrator 17.1.0, SVG Export Plug-In . SVG Version: 6.00 Build 0)  -->
<!DOCTYPE svg PUBLIC "-//W3C//DTD SVG 1.1//EN" "http://www.w3.org/Graphics/SVG/1.1/DTD/svg11.dtd">
<svg version="1.1" id="Layer_1" xmlns="http://www.w3.org/2000/svg" xmlns:xlink="http://www.w3.org/1999/xlink" x="0px" y="0px"
	 viewBox="15 15 20 20" enable-background="new 15 15 20 20" xml:space="preserve">
<radialGradient id="SVGID_1_" cx="25" cy="27" r="9.9946" gradientTransform="matrix(1 0 0 -1 0 52)" gradientUnits="userSpaceOnUse">
	<stop  offset="0.5153" style="stop-color:#FFFFFF"/>
	<stop  offset="1" style="stop-color:#FFFFFF;stop-opacity:0"/>
</radialGradient>
<circle fill="url(#SVGID_1_)" cx="25" cy="25" r="10"/>
<path fill="#B85D57" d="M26.3,26.4l1.4,7.7l-3.3-7.1l-5.9,4.8l4.4-6.2l-7.3-2.8l7.7,0.9L21.9,16l3.3,7.1l5.9-4.8l-4.4,6.2l7.3,2.9
	L26.3,26.4z M25.3,25.5l2.7,0.3l-2.5-1l1.5-2.1l-2,1.7l-1.2-2.4l0.5,2.6l-2.7-0.3l2.5,1l-1.5,2.1l2-1.6l1.1,2.4L25.3,25.5z"/>
<path fill="#B85D57" d="M24.3,27.1l-5.8,4.7l-0.1-0.1l4.4-6.1l-7.2-2.8l0-0.2l7.6,0.9L21.8,16l0.2-0.1l3.3,7l5.8-4.7l0.1,0.1
	l-4.3,6.1l7.2,2.8l0,0.2l-7.6-0.9l1.4,7.5l-0.2,0.1L24.3,27.1z M33.3,27.1l-6.8-2.6l4.1-5.7l-5.5,4.5l-3.1-6.6l1.3,7.1l-7.1-0.9
	l6.8,2.6l-4.1,5.7l5.4-4.4l0.1-0.1l3.1,6.6l-1.3-7.1L33.3,27.1z M24.6,25.8l-1.9,1.5l-0.1-0.1l1.4-2l-2.4-1l0-0.2l2.5,0.3l-0.5-2.5
	l0.2-0.1l1.1,2.3l1.9-1.6l0.1,0.1l-1.5,2l2.4,1l0,0.2l-2.5-0.3l0.4,2.5l-0.2,0.1L24.6,25.8z M27.3,25.6l-2-0.8l1.2-1.7l-1.6,1.3
	L24,22.6l0.4,2.1l-2.1-0.3l2,0.8l-1.2,1.6l1.6-1.3l0.9,1.9l-0.4-2.1L27.3,25.6z"/>
</svg>
