<?xml version="1.0" encoding="utf-8"?>
<!-- Generator: Adobe Illustrator 18.1.1, SVG Export Plug-In . SVG Version: 6.00 Build 0)  -->
<svg version="1.1" id="Layer_1" xmlns="http://www.w3.org/2000/svg" xmlns:xlink="http://www.w3.org/1999/xlink" x="0px" y="0px"
	 viewBox="0 0 60 60" enable-background="new 0 0 60 60" xml:space="preserve">
<g>
	<g>
		<path fill="#F57F24" d="M17.2,33.9l15.4-5.9l-9.3-13.1L35.9,25l7-15l-3,16.1l16.3-1.9l-15.4,5.9L50,43.2L37.5,33l-7,15l3-16.1
			L17.2,33.9z M34.6,35.6l2.3-5.1l4.2,3.4L38,29.4l5.3-2.1l-5.5,0.6l1.1-5.5l-2.3,5.1l-4.2-3.6l3.2,4.4l-5.3,2.1l5.5-0.6L34.6,35.6z
			"/>
		<path fill="#F57F24" d="M30.8,48h-0.4l3-15.9l-16.1,1.9v-0.4l15.2-5.9l-9.1-12.9l0.2-0.2l12.3,9.9l6.8-14.8L43,10l-3,15.9
			l16.1-1.9v0.4l-15.2,5.9L50,43.2l-0.2,0.2l-12.3-9.9L30.8,48z M33.7,31.7L31,46.6l6.3-13.7l0.2,0.2l11.2,9.3l-8.7-12.1l14.2-5.5
			l-15,1.9L42,11.9l-6.3,13.7l-11.2-9.7l8.7,12.1l-14.2,5.5L33.7,31.7z M34.8,35.6l-0.4-0.2l0.8-5.3l-5.3,0.6v-0.4l5.1-2.1l-3.2-4.2
			l0.2-0.2l4,3.4l2.3-4.9l0.4,0.2l-1.1,5.3l5.3-0.6v0.4L38,29.4l3,4.2l-0.2,0.2l-3.6-3.2L34.8,35.6z M35.9,29.8L35,34.1l1.9-4
			l3.2,2.7l-2.5-3.4l4.2-1.7l-4.4,0.4l0.8-4.4l-1.9,4L32.9,25l2.5,3.6l-4.2,1.7L35.9,29.8z"/>
	</g>
	<g>
		<path fill="#6D9DBA" d="M12.9,15.2l7.7-4.6l-6.2-6.1L22,8.7l2.3-8.6l-0.1,8.8l8.5-2.5L25,11l6.2,6.1l-7.6-4.3l-2.3,8.6l0.1-8.8
			L12.9,15.2z M22.3,14.5l0.8-2.9l2.6,1.4l-2.1-2.1l2.6-1.6l-2.9,0.8l0.1-3L22.6,10L20,8.5l2.1,2.1l-2.6,1.6l2.9-0.8L22.3,14.5z"/>
		<path fill="#6D9DBA" d="M21.4,21.5l-0.2,0l0.1-8.7l-8.4,2.5l0-0.2l7.6-4.6l-6-6l0.1-0.1l7.5,4.2L24.2,0l0.2,0.1l-0.1,8.7l8.4-2.5
			l0,0.2l-7.6,4.6l6,6l-0.1,0.1l-7.5-4.2L21.4,21.5z M21.5,12.5l-0.1,8.1l2.1-7.9l0.1,0.1l6.8,3.9l-5.7-5.6l7-4.2l-7.8,2.4L24,1.2
			l-2.1,7.9l-6.9-4.2l5.7,5.6l-7,4.2L21.5,12.5z M22.4,14.5l-0.2-0.1l0-2.9l-2.8,0.8l0-0.2l2.5-1.6l-2.1-2l0.1-0.1l2.5,1.4L23.1,7
			l0.2,0.1L23.3,10L26,9.2l0,0.2l-2.5,1.5l2,2L25.4,13l-2.2-1.4L22.4,14.5z M22.4,11.3l-0.1,2.3l0.6-2.3l1.9,1.2L23.3,11l2.1-1.3
			l-2.3,0.6l0-2.4l-0.6,2.3L20.4,9l1.7,1.7L20,12L22.4,11.3z"/>
	</g>
	<g>
		<path fill="#C04747" d="M5.8,54.8l8.4-8.9L3.8,40.1l11.5,2.8l-0.1-12.2l3.2,11.6l10.2-6.5l-8.4,8.9l10.4,5.8l-11.5-2.8l0.1,12.2
			l-3.2-11.6L5.8,54.8z M17.9,50.3l-0.1-4.1l3.9,0.9l-3.5-1.9l2.8-3.1l-3.5,2.2l-1.1-4l0.1,4.1l-4-1l3.5,1.9l-2.8,3.1l3.5-2.2
			L17.9,50.3z"/>
		<path fill="#C04747" d="M19.4,59.9L19.1,60L16,48.5L5.9,54.9l-0.1-0.3l8.2-8.8L3.8,40.1l0.1-0.2l11.3,2.7l-0.2-12l0.3,0l3.1,11.5
			l10.1-6.4l0.1,0.3l-8.2,8.8l10.2,5.7l-0.1,0.2L19.2,48L19.4,59.9z M16.1,48.1L19,58.8l-0.2-11.2l0.2,0.1l10.4,2.6l-9.6-5.3
			l7.7-8.2l-9.4,6.1l-2.9-10.7l0.2,11.2L4.9,40.5l9.6,5.3l-7.7,8.2L16.1,48.1z M18.1,50.3l-0.3,0l-1.1-3.8l-3.3,2.1l-0.1-0.3l2.7-3
			l-3.5-1.8l0.1-0.2l3.8,1l0-4l0.3,0l1,3.9l3.3-2.1l0.1,0.3l-2.8,2.9l3.3,1.9l-0.1,0.2l-3.4-1L18.1,50.3z M16.9,46.1l0.8,3.1l0-3.3
			l3,0.8l-2.8-1.4l2.3-2.5l-2.8,1.7l-0.9-3.2l0,3.3l-3.1-0.8l2.8,1.6L14,47.9L16.9,46.1z"/>
	</g>
</g>
</svg>
