<?xml version="1.0" encoding="utf-8"?>
<!-- Generator: Adobe Illustrator 18.1.1, SVG Export Plug-In . SVG Version: 6.00 Build 0)  -->
<!DOCTYPE svg PUBLIC "-//W3C//DTD SVG 1.1//EN" "http://www.w3.org/Graphics/SVG/1.1/DTD/svg11.dtd">
<svg version="1.1" id="top-flourish" xmlns="http://www.w3.org/2000/svg" xmlns:xlink="http://www.w3.org/1999/xlink" x="0px"
	 y="0px" viewBox="0 0 153.9997 32.0035" enable-background="new 0 0 153.9997 32.0035" xml:space="preserve" width="153.9997" height="32.0035">
<g id="top-flourish-right">
	<path fill-rule="evenodd" clip-rule="evenodd" fill="#576C76" d="M136.8323,30.5037c-7.7344-0.001-15.7607-5.2363-20.6934-10.1357
		c-2.5752-2.5576-4.6387-4.6064-6.3721-6.1152c0.085,0.8755-0.0527,1.8306-0.415,2.7773c-0.916,2.3975-2.8057,3.7734-5.1865,3.7734
		c-2.7939,0-5.6182-1.9111-6.7168-4.5435c-0.9805-2.3521-0.4072-4.8477,1.5732-6.8472c1.2715-1.2852,3.0537-1.9937,5.0156-1.9937
		c0.2607,0,0.5244,0.0127,0.791,0.0381c0.2236-0.0391,0.4492-0.0728,0.6748-0.1011c-1.5439-0.3545-3.0938-0.5532-4.6318-0.5923
		l-0.4131-0.0034c-1.9561,0-3.6904,0.2368-5.3008,0.7241c-1.3916,0.438-2.7832,1.0781-4.3262,1.8076
		c-0.2041,0.0967-0.4238,0.144-0.6416,0.144c-0.3271,0-0.6523-0.1074-0.9209-0.3159c-0.4463-0.3467-0.6592-0.9155-0.5518-1.4712
		l0.1367-0.7017c0.0918-0.4683,0.4004-0.8657,0.832-1.0693c1.7715-0.8354,3.665-1.6904,5.6377-2.1597
		c1.6533-0.3931,3.3867-0.5928,5.1504-0.5928c2.8438,0,5.75,0.5068,8.6396,1.5063c2.0059,0.6938,4.0391,1.6626,6.2139,2.9614
		c3.5283,2.1084,6.6084,3.5342,10.1719,3.6411l0.2725,0.0024c0.6982,0,1.415-0.0464,2.168-0.1416
		c0.0078-2.272,0.7529-4.3037,2.1914-5.9395c2.0439-2.3232,5.3262-3.6562,9.0059-3.6562c3.9492,0,7.627,1.5303,10.0908,4.1987
		c2.4316,2.6323,3.543,6.2095,3.2139,10.3438c-0.623,7.8364-6.8125,13.0649-12.6045,14.1802
		c-0.9648,0.1865-1.9766,0.2812-3.0039,0.2812H136.8323z M131.8431,21.993c0.9854,0.1455,2.0312,0.248,3.1475,0.3027
		c0.3545,0.0176,0.7002,0.0254,1.0342,0.0254c3.9521,0,6.6611-1.1621,7.834-3.3604c1.0479-1.9644,0.7363-4.7065-0.793-6.9868
		c-1.3926-2.0767-3.9824-3.4722-6.4434-3.4722c-1.0674,0-2.459,0.272-3.582,1.416c0.2441-0.0767,0.4883-0.1519,0.7344-0.2178
		c0.7539-0.2021,1.6494-0.4092,2.5752-0.4092c0.5879,0,1.1377,0.0859,1.6348,0.2554c1.7734,0.603,2.6787,2.1641,2.3633,4.0732
		c-0.3877,2.3438-2.6865,4.938-5.4971,5.2808c-0.5205,1.2559-1.5137,2.3535-2.749,2.9717
		C132.0169,21.9148,131.93,21.9549,131.8431,21.993z M120.4378,14.0208c0.5127,0.4756,1.0205,0.9307,1.5469,1.3604
		c1.6162,1.3081,3.168,2.2378,4.7373,2.8374c0.0596,0.0225,0.1191,0.0439,0.1777,0.0645c-0.1289-0.2979-0.2236-0.6162-0.2783-0.9492
		c-0.1602-0.9756,0.0195-1.8247,0.4082-2.5249c-0.3936,0.0249-0.7812,0.0371-1.1621,0.0371l-0.3428-0.0034
		C123.595,14.8035,121.9398,14.4959,120.4378,14.0208z M103.7972,11.118c-0.9541,0-1.7334,0.3477-2.2539,1.0054
		c-0.5439,0.6875-0.751,1.666-0.54,2.5527c0.2852,1.2056,1.3125,2.1011,2.3389,2.4321c-0.3779-0.5371-0.6084-1.2046-0.6611-1.9336
		c-0.1025-1.4434,0.5156-3.1924,1.8486-3.9946C104.2757,11.1385,104.0316,11.118,103.7972,11.118z M133.5316,13.5154
		c0.5605,0.4365,1.0371,1.0117,1.3457,1.6978c0.5635-0.2183,1.2432-0.6875,1.6846-1.3013c0.248-0.3457,0.376-0.6777,0.3555-0.916
		c-0.0098-0.0044-0.0195-0.0088-0.0312-0.0132c-0.085-0.0278-0.2725-0.0571-0.5078-0.0659c-0.6133,0.0005-1.2939,0.1245-2.21,0.4028
		C133.9661,13.3826,133.7532,13.448,133.5316,13.5154z M106.222,14.3933c-0.0332,0.0786-0.0693,0.2134-0.0625,0.4111
		c0.0068-0.001,0.0996-0.0171,0.1455-0.022C106.3021,14.6267,106.2757,14.493,106.222,14.3933z"/>
	<path fill="#FFFFFF" d="M139.1368,3c6.0279,0,12.5121,4.1011,11.8102,12.9232c-0.5856,7.3556-6.3923,11.8637-11.393,12.827
		c-0.8962,0.1727-1.8052,0.2532-2.7204,0.2532c-7.3784,0-15.1466-5.2388-19.6382-9.6996
		c-5.5386-5.5013-8.5343-8.4538-11.3514-9.3456c-0.7415-0.2347-1.4246-0.3404-2.0471-0.3404c-3.2619,0-4.8455,2.9064-4.2531,5.4044
		c0.5107,2.1551,2.6267,3.7256,4.6344,3.7256c0.8969,0,1.7725-0.3136,2.4732-1.0286c0.2017-0.2311,0.3817-0.4852,0.5424-0.7607
		c0.5651-1.0356,0.8987-2.4503,0.2625-3.4221c-0.0872-0.1165-0.1818-0.2187-0.2872-0.3112
		c-0.1581-0.1227-0.3264-0.2157-0.506-0.2885c-0.1721-0.0592-0.3399-0.0872-0.5006-0.0872c-0.9349,0-1.6256,0.9493-1.4853,2.2365
		c0.0216,0.1434,0.0555,0.2802,0.101,0.412c0.0439,0.108,0.0955,0.2086,0.1554,0.3032c0.2769,0.3781,0.6086,0.5021,1.0304,0.5237
		c0.166-0.0011,0.3307-0.0191,0.4963-0.0508c0.0148-0.0028,0.0289-0.0041,0.0424-0.0041c0.2748,0.0001,0.2708,0.554-0.0288,0.6108
		c-0.1676,0.0318-0.3382,0.0502-0.5073,0.0502c-0.4291,0-0.8482-0.1183-1.1815-0.4348c-0.3551-0.3374-0.5672-0.8588-0.6076-1.4293
		c-0.0799-1.1272,0.4999-2.4518,1.46-2.7525c0.1798-0.0564,0.3657-0.0838,0.5515-0.0838c0.7067,0,1.413,0.396,1.7815,1.0981
		c0.4785,0.9119,0.3723,2.1394-0.0197,3.1649c-0.7639,2.0012-2.2303,2.81-3.7851,2.81c-3.7823,0-8.088-4.7862-4.0782-8.8352
		c0.9791-0.9896,2.3754-1.5491,3.9499-1.549c0.2767,0,0.5591,0.0173,0.8455,0.0526c0.8236-0.1565,1.6526-0.2325,2.4788-0.2324
		c0.8851,0,1.7668,0.0872,2.6346,0.2559c0.1033,0.0201,0.2063,0.0414,0.3083,0.0635c2.3834,0.5187,3.8502,1.3647,5.7063,2.9236
		c1.7205,1.4452,3.2879,3.1408,5.0243,4.5603c1.5909,1.2872,3.3076,2.3722,5.1522,3.0772c1.088,0.4038,2.2191,0.6688,3.3802,0.7054
		c0.0327,0.0005,0.0653,0.0008,0.098,0.0008c0.3604,0,0.7157-0.0337,1.0763-0.1383c0.3085-0.0999,0.6081-0.2412,0.8959-0.4249
		c0.2613-0.1767,0.5073-0.3856,0.7339-0.6289c0.1833-0.2062,0.3488-0.4321,0.4926-0.6808c0.1094-0.2017,0.2027-0.4128,0.275-0.6361
		c0.0481-0.169,0.084-0.3399,0.1053-0.5142c-0.4399-0.1233-0.8643-0.3311-1.2584-0.6252c-0.6356-0.474-1.2722-1.1243-1.6959-1.9287
		c-0.0528,0.0122-0.1059,0.0258-0.1593,0.0411c-0.2356,0.0767-0.4649,0.1816-0.6858,0.3216
		c-0.1549,0.1064-0.3011,0.2284-0.4378,0.3712c-0.0919,0.1064-0.1761,0.2202-0.2518,0.3456
		c-0.0547,0.1051-0.1018,0.2135-0.1403,0.3281c-0.0276,0.1005-0.0471,0.2007-0.0591,0.3038
		c-0.0077,0.1183-0.0049,0.2337,0.0068,0.3495c0.0241,0.1497,0.0605,0.291,0.1085,0.4287c0.0847,0.2133,0.1912,0.4065,0.3125,0.5891
		c0.0689,0.0949,0.143,0.1774,0.2278,0.2506c0.1366,0.1036,0.2825,0.1824,0.4362,0.2447c0.1972,0.0699,0.4008,0.1113,0.6096,0.1212
		c0.1496-0.0002,0.2988-0.0171,0.4481-0.0574c0.0869-0.03,0.1699-0.0679,0.2516-0.1173c0.0532-0.0374,0.1028-0.0796,0.1499-0.1272
		c0.0365-0.0438,0.0697-0.09,0.101-0.1393c0.0281-0.0567,0.0519-0.1142,0.0735-0.1744c0.0201-0.0803,0.0349-0.1607,0.0445-0.2427
		c0.0052-0.0918,0.0056-0.1818-0.003-0.2718c-0.0107-0.0565-0.0235-0.1108-0.0411-0.1638
		c-0.0218-0.0502-0.0459-0.0976-0.0732-0.1426c-0.0386-0.0512-0.0811-0.0969-0.1272-0.1382
		c-0.056-0.0406-0.1143-0.0745-0.1766-0.1014c-0.0577-0.018-0.1158-0.0297-0.1752-0.0349c-0.0436,0.0019-0.0869,0.007-0.1304,0.0174
		c-0.0224,0.0087-0.0451,0.0192-0.0663,0.0308c-0.0127,0.0097-0.0246,0.02-0.0367,0.0312
		c-0.0062,0.0087-0.0124,0.0174-0.0186,0.0265c-0.0049,0.0112-0.0098,0.0224-0.0138,0.0338
		c-0.0045,0.0181-0.008,0.0363-0.0107,0.0551c-0.0003,0.0387,0.0004,0.0767,0.0038,0.1147c0.0151,0.089,0.0376,0.1726,0.0656,0.2556
		c0.0056,0.0132,0.0111,0.0265,0.0158,0.0391c0.0973,0.241-0.0908,0.4968-0.2553,0.4968c-0.0647,0-0.1258-0.0396-0.1644-0.1352
		c-0.168-0.4191-0.278-1.0724,0.149-1.4016c0.1554-0.1196,0.3307-0.1736,0.5054-0.1736c0.3717,0,0.7411,0.2448,0.9113,0.6238
		c0.2872,0.6404,0.1093,1.6207-0.4747,2.0161c-0.3149,0.2137-0.6567,0.3112-0.9952,0.3112c-0.9742,0-1.9203-0.8085-2.1124-1.9834
		c-0.2504-1.5292,0.8365-2.5197,1.9493-2.874c-0.1502-0.3999-0.2447-0.8313-0.265-1.2924c-1.305,0.2594-2.6156,0.4211-3.9189,0.4211
		c-0.104,0-0.2081-0.001-0.312-0.0031c-5.6729-0.1155-8.7283-2.7283-13.3346-5.0967c-0.9811-0.5042-1.9841-0.951-3.0067-1.339
		c-2.6689-0.9913-5.4558-1.5705-8.3042-1.6432c-0.1496-0.0026-0.2992-0.0039-0.4491-0.0039c-1.9086,0-3.8412,0.2145-5.7374,0.7885
		c-1.5399,0.4848-3.0378,1.1801-4.5336,1.8874l0.1363-0.7014c1.7553-0.8285,3.5164-1.6221,5.3438-2.0569
		c1.5895-0.3782,3.2-0.5524,4.804-0.5523c2.7885,0.0001,5.5561,0.5268,8.1493,1.4238c2.0669,0.7149,4.0246,1.6909,5.9357,2.8322
		c3.4677,2.0723,6.8759,3.7321,10.8959,3.8524c0.1059,0.002,0.2117,0.003,0.3176,0.003c1.2487,0,2.4995-0.139,3.748-0.3729
		C128.7372,6.2683,133.7551,3,139.1368,3 M129.9154,11.5508c0.8545-3.7661,4.2961-5.6151,7.9365-5.6151
		c3.2621,0,6.6838,1.4835,8.5503,4.4016c3.5255,5.5127,1.5038,14.4204-10.0207,14.4204c-0.3374,0-0.6825-0.0076-1.0363-0.0232
		c-4.3064-0.1899-9.8054-1.64-17.0456-5.9681c7.4524,6.4638,13.7012,8.9182,18.6209,8.9182c7.5616,0,11.9859-5.7935,12.8342-11.7305
		c0.7979-5.5789-3.6021-12.3002-10.652-12.3002c-1.066,0-2.1923,0.1536-3.3707,0.4881c-2.9203,0.9228-5.5632,3.0093-5.8876,6.2172
		C129.8206,10.6761,129.8651,11.1334,129.9154,11.5508 M130.2921,12.2078c0.9978-0.2168,1.9937-0.4885,2.9831-0.7921
		c0.2953-0.0917,0.5894-0.1868,0.8867-0.2664c0.6999-0.1878,1.4575-0.3583,2.1883-0.3583c0.3965,0,0.7849,0.0501,1.1521,0.1749
		c3.243,1.1035,0.343,6.472-3.2767,6.472c-0.1683,0-0.338-0.0116-0.5089-0.0358c-0.1919,1.4369-1.2184,2.5936-2.287,3.1286
		c-0.6056,0.3034-1.2131,0.4012-1.8294,0.4012c-0.1667,0-0.334-0.0071-0.5021-0.0193c-1.0595-0.0772-2.0893-0.3355-3.0847-0.7101
		c-1.9901-0.749-3.8354-1.9415-5.5323-3.3596c-1.7342-1.4493-3.3089-3.158-5.0559-4.5876c-2.4371-1.971-4.6884-2.8172-7.8425-2.9115
		c-0.0906-0.0018-0.1813-0.0027-0.272-0.0027c-0.2614,0-0.5233,0.0076-0.7857,0.0228c0.3321,0.1172,0.666,0.2578,0.9994,0.424
		c9.4919,4.7177,12.8478,13.2971,27.3928,14.0059c0.3799,0.0185,0.7491,0.0276,1.1071,0.0276
		c10.4434,0,11.6335-7.693,8.2872-12.6828c-1.6756-2.4982-4.7699-4.1366-7.6893-4.1366c-2.2238,0-4.3461,0.9505-5.663,3.1957
		c-0.1915,0.3501-0.3531,0.7137-0.4818,1.1022C130.3906,11.5991,130.3277,11.8994,130.2921,12.2078 M130.5733,14.0979
		c0.1262-0.0177,0.2501-0.0264,0.3692-0.0264c0.0461,0,0.0915,0.0013,0.136,0.0039c1.1811,0.0728,2.5744,1.1392,2.6654,2.7194
		c0.1577,0.028,0.3164,0.0453,0.4782,0.0515c0.0047,0,0.0091,0,0.0138,0c2.0186,0,4.7472-2.4533,4.0822-4.4372
		c-0.04-0.1001-0.0885-0.1933-0.1445-0.2808c-0.0749-0.1015-0.1585-0.1902-0.2502-0.2698c-0.1497-0.1147-0.3105-0.2009-0.481-0.2687
		c-0.3249-0.1127-0.6644-0.1593-1.0087-0.1722c-0.0199-0.0002-0.0397-0.0003-0.0596-0.0003c-0.8811,0-1.769,0.2023-2.6413,0.4666
		c-0.8294,0.2585-1.6594,0.5066-2.4943,0.7146c-0.3199,0.0792-0.6398,0.1544-0.9605,0.2241
		c0.0045,0.1022,0.0127,0.2038,0.0243,0.306c0.043,0.2795,0.1096,0.5433,0.1993,0.8004
		C130.5247,13.9862,130.548,14.0425,130.5733,14.0979 M133.2224,16.6606c-0.0246-0.1282-0.0572-0.2526-0.0995-0.3729
		c-0.0682-0.1727-0.1527-0.3311-0.2502-0.4784c-0.1489-0.2068-0.3182-0.383-0.5032-0.5392c-0.2388-0.1897-0.496-0.3536-0.7698-0.465
		c-0.222-0.077-0.4509-0.1178-0.6859-0.1275l-0.028,0.0004l0.0318,0.0494c0.3359,0.4774,0.7133,0.9044,1.1375,1.2612
		c0.3417,0.2718,0.7068,0.4923,1.0981,0.6482L133.2224,16.6606 M130.5189,17.2885c-0.0058-0.0168-0.0123-0.0339-0.0189-0.0509
		C130.5065,17.2546,130.5122,17.2715,130.5189,17.2885 M139.1368,0c-4.11,0-7.8027,1.5182-10.1314,4.1652
		c-1.3893,1.5791-2.2265,3.4638-2.4825,5.5523c-0.2539,0.013-0.5037,0.0195-0.7505,0.0195l-0.2603-0.0025
		c-3.2079-0.0962-6.0875-1.4401-9.4142-3.4281c-2.2658-1.3531-4.3898-2.3644-6.494-3.0922
		c-3.0471-1.054-6.1188-1.5885-9.1298-1.5886c-1.8807-0.0001-3.7307,0.2132-5.4986,0.6338
		c-2.1151,0.5033-4.0892,1.3936-5.9299,2.2624c-0.864,0.4078-1.4821,1.2028-1.6644,2.1406l-0.1363,0.7014
		c-0.2158,1.1102,0.2112,2.2475,1.1043,2.9414c0.5363,0.4167,1.1861,0.631,1.841,0.631c0.4357,0,0.8736-0.0948,1.2821-0.288
		c1.491-0.705,2.8325-1.3225,4.1519-1.7379c0.7141-0.216,1.467-0.378,2.2663-0.4862c-2.3389,2.4056-3.0224,5.5446-1.826,8.4132
		c1.321,3.1674,4.728,5.4663,8.1011,5.4663c2.9921,0,5.4548-1.772,6.5878-4.7401c0.0354-0.0926,0.069-0.1852,0.1009-0.2781
		c1.2478,1.1878,2.6495,2.5802,4.2269,4.1469c5.1456,5.1104,13.5621,10.5711,21.7523,10.5711c1.123,0,2.2292-0.1034,3.2879-0.3074
		c6.3484-1.2229,13.1328-6.9517,13.816-15.5348c0.4586-5.7642-1.7086-9.4249-3.6075-11.4808C147.5828,1.706,143.503,0,139.1368,0
		L139.1368,0z M135.8757,20.2331c3.1161-0.78,5.5034-3.6565,5.9522-6.3692c0.0515-0.3116,0.0787-0.6176,0.0824-0.9167
		c1.1477,1.7948,1.3951,3.8628,0.6245,5.3076c-0.8828,1.655-3.1949,2.5665-6.5103,2.5665c-0.1667,0-0.3363-0.0023-0.5086-0.0069
		C135.645,20.6262,135.7652,20.432,135.8757,20.2331L135.8757,20.2331z"/>
</g>
<g id="top-flourish-left">
	<path fill-rule="evenodd" clip-rule="evenodd" fill="#576C76" d="M17.1673,30.5037c-1.0288,0-2.0396-0.0947-3.0054-0.2812
		c-5.791-1.1152-11.9805-6.3438-12.6045-14.1802C1.2283,11.9075,2.3397,8.3304,4.7713,5.698
		c2.4639-2.668,6.1421-4.1982,10.0913-4.1982c3.6787,0,6.9609,1.333,9.0054,3.6567c1.439,1.6357,2.1846,3.6675,2.1919,5.939
		c0.7534,0.0952,1.4702,0.1416,2.168,0.1416l0.2881-0.0024c3.5478-0.1069,6.6279-1.5327,10.1553-3.6406
		c2.1768-1.2998,4.21-2.2686,6.2153-2.9619c2.8892-0.9995,5.7959-1.5063,8.6392-1.5063c1.7642,0,3.4976,0.1992,5.1514,0.5928
		c1.9717,0.4692,3.8657,1.3242,5.6367,2.1597c0.4321,0.2036,0.7412,0.6016,0.8325,1.0703l0.1362,0.7017
		c0.1074,0.5552-0.106,1.124-0.5527,1.4707c-0.2681,0.2085-0.5928,0.3154-0.9199,0.3154c-0.2183,0-0.437-0.0474-0.6416-0.144
		c-1.5405-0.729-2.9312-1.3687-4.3423-1.813c-1.5942-0.4819-3.3281-0.7188-5.2842-0.7188L53.116,6.7644
		c-1.5293,0.0386-3.0752,0.2368-4.6191,0.5918c0.2261,0.0283,0.4507,0.062,0.6743,0.1011c0.2671-0.0254,0.5312-0.0381,0.791-0.0381
		c1.9624,0,3.7441,0.7085,5.0166,1.9941c1.98,1.9995,2.5532,4.4951,1.5723,6.8467c-1.0981,2.6323-3.9229,4.5435-6.7173,4.5435
		c-2.3799,0-4.2705-1.376-5.186-3.7744c-0.3618-0.9468-0.5-1.9014-0.415-2.7764c-1.7334,1.5088-3.7964,3.5576-6.3711,6.1152
		C32.9285,25.2674,24.9012,30.5037,17.1673,30.5037z M17.3773,8.5017c-2.4609,0-5.0508,1.3955-6.4438,3.4722
		c-1.5288,2.2798-1.8394,5.022-0.7915,6.9868c1.1729,2.1982,3.8813,3.3604,7.833,3.3604c0.335,0,0.6787-0.0078,1.0342-0.0254
		c1.1162-0.0547,2.1621-0.1572,3.147-0.3027c-0.0864-0.0381-0.1724-0.0781-0.2573-0.1201c-1.2363-0.6191-2.23-1.7168-2.7495-2.9727
		c-2.811-0.3428-5.1099-2.9365-5.4976-5.2808c-0.3164-1.9092,0.5894-3.4702,2.3623-4.0732c0.498-0.1694,1.0483-0.2554,1.6357-0.2554
		c0.9253,0,1.8218,0.207,2.5767,0.4097c0.249,0.0664,0.4966,0.1431,0.7446,0.2207C19.8553,8.7776,18.4525,8.5017,17.3773,8.5017z
		 M26.9691,14.8084c0.3892,0.7007,0.5688,1.5503,0.4092,2.5254c-0.0547,0.333-0.1494,0.6514-0.2783,0.9492
		c0.063-0.0225,0.1265-0.0459,0.1899-0.0693c1.5361-0.5869,3.1323-1.543,4.7314-2.8369c0.522-0.4268,1.0288-0.8809,1.54-1.356
		c-1.5015,0.4751-3.1562,0.7827-5.0859,0.8218l-0.3433,0.0034C27.7508,14.846,27.3636,14.8338,26.9691,14.8084z M49.47,11.18
		c1.3325,0.8018,1.9507,2.5508,1.8481,3.9937c-0.0508,0.728-0.2812,1.396-0.6606,1.9346c1.0269-0.3315,2.0532-1.2266,2.3389-2.4316
		c0.2104-0.8877,0.0034-1.8657-0.54-2.5532c-0.52-0.6577-1.2993-1.0054-2.2534-1.0054C49.9686,11.118,49.7234,11.1385,49.47,11.18z
		 M47.8441,14.805c0.0107-0.1929-0.0293-0.3335-0.0664-0.4146c-0.0034,0.0024-0.0073,0.0054-0.0112,0.0078
		c0.0029-0.002,0.0049-0.0029,0.0059-0.0029c0.0039,0-0.0132,0.02-0.0303,0.0425c-0.0469,0.0732-0.0684,0.1924-0.0659,0.3428
		C47.7264,14.7854,47.8348,14.8035,47.8441,14.805z"/>
	<path fill="#FFFFFF" d="M14.8629,3c5.3809,0.0007,10.3994,3.2691,9.6164,9.3641c1.2486,0.2339,2.4993,0.3729,3.7481,0.3729
		c0.1058,0,0.2118-0.001,0.3176-0.003c4.02-0.1203,7.4282-1.7801,10.8959-3.8524c1.9111-1.1413,3.8688-2.1173,5.9357-2.8322
		c2.5934-0.8971,5.3605-1.4238,8.1493-1.4238c1.6038,0,3.2148,0.1742,4.804,0.5523c1.8274,0.4348,3.5886,1.2284,5.3438,2.0569
		L63.81,7.9362c-1.4958-0.7073-2.9937-1.4026-4.5336-1.8874c-1.8963-0.574-3.8287-0.7885-5.7374-0.7885
		c-0.1498,0-0.2997,0.0013-0.4491,0.0039c-2.8484,0.0727-5.6353,0.6519-8.3042,1.6432c-1.0226,0.388-2.0256,0.8347-3.0067,1.339
		c-4.6063,2.3684-7.6617,4.9812-13.3346,5.0967c-0.104,0.0021-0.2079,0.0031-0.312,0.0031c-1.3032,0-2.614-0.1617-3.9189-0.4211
		c-0.0203,0.4611-0.1148,0.8925-0.265,1.2924c1.1128,0.3543,2.1997,1.3448,1.9493,2.874c-0.1921,1.175-1.1381,1.9834-2.1124,1.9834
		c-0.3385,0-0.6804-0.0976-0.9952-0.3112c-0.584-0.3955-0.7619-1.3757-0.4747-2.0161c0.1702-0.3791,0.5395-0.6238,0.9113-0.6238
		c0.1747,0,0.35,0.054,0.5054,0.1736c0.427,0.3291,0.317,0.9824,0.149,1.4016c-0.0386,0.0956-0.0997,0.1352-0.1644,0.1352
		c-0.1645,0-0.3526-0.2558-0.2553-0.4968c0.0047-0.0126,0.0103-0.0259,0.0158-0.0391c0.028-0.0829,0.0505-0.1666,0.0656-0.2556
		c0.0034-0.0381,0.0041-0.076,0.0038-0.1147c-0.0027-0.0188-0.0063-0.037-0.0107-0.0551c-0.004-0.0114-0.0089-0.0226-0.0138-0.0338
		c-0.0063-0.0092-0.0125-0.0178-0.0187-0.0265c-0.0121-0.0112-0.024-0.0215-0.0367-0.0312
		c-0.0212-0.0117-0.0439-0.0221-0.0663-0.0308c-0.0435-0.0105-0.0868-0.0156-0.1304-0.0174
		c-0.0594,0.0052-0.1174,0.017-0.1752,0.0349c-0.0623,0.027-0.1206,0.0609-0.1766,0.1014c-0.046,0.0414-0.0885,0.087-0.1272,0.1382
		c-0.0273,0.045-0.0514,0.0924-0.0732,0.1426c-0.0176,0.053-0.0305,0.1073-0.0411,0.1638c-0.0086,0.09-0.0082,0.18-0.003,0.2718
		c0.0096,0.0819,0.0244,0.1624,0.0445,0.2427c0.0216,0.0602,0.0454,0.1178,0.0735,0.1744c0.0312,0.0493,0.0645,0.0956,0.101,0.1393
		c0.0471,0.0476,0.0967,0.0898,0.1499,0.1272c0.0817,0.0494,0.1647,0.0873,0.2516,0.1173c0.1493,0.0403,0.2985,0.0573,0.448,0.0574
		c0.2088-0.0099,0.4125-0.0513,0.6096-0.1212c0.1536-0.0623,0.2995-0.1411,0.4362-0.2447c0.0848-0.0732,0.1589-0.1557,0.2278-0.2506
		c0.1212-0.1826,0.2278-0.3758,0.3125-0.5891c0.048-0.1377,0.0845-0.279,0.1085-0.4287c0.0117-0.1158,0.0145-0.2312,0.0068-0.3495
		c-0.0119-0.1031-0.0314-0.2033-0.059-0.3038c-0.0385-0.1146-0.0857-0.223-0.1403-0.3281c-0.0757-0.1254-0.16-0.2392-0.2518-0.3456
		c-0.1367-0.1428-0.283-0.2648-0.4379-0.3712c-0.2209-0.14-0.4502-0.2449-0.6858-0.3216c-0.0534-0.0153-0.1065-0.0288-0.1593-0.0411
		c-0.4237,0.8044-1.0603,1.4547-1.6959,1.9287c-0.3941,0.2942-0.8185,0.5019-1.2584,0.6252
		c0.0213,0.1743,0.0572,0.3452,0.1053,0.5142c0.0722,0.2234,0.1655,0.4344,0.2749,0.6361c0.1438,0.2487,0.3093,0.4745,0.4926,0.6808
		c0.2265,0.2434,0.4725,0.4523,0.7338,0.6289c0.2879,0.1837,0.5874,0.325,0.8959,0.4249c0.3607,0.1046,0.7159,0.1383,1.0763,0.1383
		c0.0326,0,0.0653-0.0003,0.098-0.0008c1.1611-0.0366,2.2923-0.3015,3.3803-0.7054c1.8446-0.705,3.5612-1.79,5.1521-3.0772
		c1.7364-1.4195,3.3038-3.1151,5.0243-4.5603c1.8561-1.559,3.3229-2.4049,5.7063-2.9236c0.102-0.0221,0.205-0.0435,0.3083-0.0635
		c0.8678-0.1687,1.7494-0.2559,2.6346-0.2559c0.8261,0,1.6553,0.076,2.4788,0.2324c0.2865-0.0353,0.5687-0.0526,0.8455-0.0526
		c1.5743,0,2.9709,0.5595,3.9499,1.549c4.0103,4.0494-0.2956,8.8352-4.0782,8.8352c-1.5545,0-3.0213-0.8092-3.7851-2.81
		c-0.3921-1.0255-0.4982-2.253-0.0197-3.1649c0.3685-0.7022,1.0747-1.0982,1.7815-1.0981c0.1858,0,0.3718,0.0274,0.5515,0.0838
		c0.9601,0.3007,1.54,1.6253,1.46,2.7525c-0.0404,0.5704-0.2526,1.0918-0.6076,1.4293c-0.3333,0.3166-0.7523,0.4348-1.1815,0.4348
		c-0.1691,0-0.3398-0.0184-0.5073-0.0502c-0.2996-0.0568-0.3036-0.6108-0.0288-0.6108c0.0135,0,0.0276,0.0013,0.0424,0.0041
		c0.1656,0.0318,0.3303,0.0497,0.4963,0.0508c0.4218-0.0217,0.7535-0.1456,1.0304-0.5237c0.06-0.0945,0.1116-0.1951,0.1554-0.3032
		c0.0455-0.1318,0.0793-0.2686,0.101-0.412c0.1403-1.2873-0.5504-2.2365-1.4853-2.2365c-0.1606,0-0.3285,0.028-0.5006,0.0872
		c-0.1795,0.0727-0.3479,0.1658-0.506,0.2885c-0.1054,0.0925-0.2,0.1947-0.2872,0.3112c-0.6362,0.9718-0.3027,2.3866,0.2625,3.4221
		c0.1607,0.2755,0.3407,0.5297,0.5424,0.7607c0.7009,0.7151,1.5761,1.0286,2.4732,1.0286c2.0076,0,4.1238-1.5707,4.6344-3.7256
		c0.5924-2.4981-0.9908-5.4044-4.2531-5.4044c-0.6224,0-1.3059,0.1058-2.0471,0.3404c-2.8171,0.8918-5.8128,3.8443-11.3514,9.3456
		c-4.4918,4.4611-12.2593,9.6996-19.6381,9.6996c-0.9147,0-1.8246-0.0807-2.7204-0.2532
		C9.4451,27.787,3.6383,23.2788,3.0527,15.9232C2.3507,7.1001,8.8344,2.9992,14.8629,3 M17.0792,27.6846
		c4.92,0,11.1673-2.4534,18.6209-8.9182c-7.2402,4.3281-12.7392,5.7782-17.0456,5.9681c-0.353,0.0155-0.6996,0.0232-1.0363,0.0232
		c-11.5264,0-13.5464-8.9073-10.0207-14.4204c1.8662-2.9177,5.2885-4.4016,8.5503-4.4016c3.6409,0,7.0819,1.8486,7.9365,5.6151
		c0.0504-0.4174,0.0948-0.8747,0.071-1.1917c-0.3244-3.2079-2.9673-5.2944-5.8876-6.2172
		c-1.1779-0.3343-2.3051-0.4881-3.3707-0.4881c-7.0508,0-11.45,6.7209-10.652,12.3002
		C5.0932,21.8905,9.5189,27.6846,17.0792,27.6846 M17.9752,23.8213c0.3586,0,0.7265-0.009,1.1071-0.0276
		c14.545-0.7088,17.9009-9.2882,27.3928-14.0059c0.3334-0.1661,0.6673-0.3067,0.9994-0.424
		c-0.2624-0.0152-0.5243-0.0228-0.7857-0.0228c-0.0907,0-0.1814,0.0009-0.272,0.0027c-3.1541,0.0943-5.4053,0.9405-7.8425,2.9115
		c-1.747,1.4296-3.3217,3.1384-5.0559,4.5876c-1.697,1.4181-3.5423,2.6106-5.5323,3.3596
		c-0.9954,0.3746-2.0252,0.6329-3.0847,0.7101c-0.1681,0.0121-0.3354,0.0193-0.5021,0.0193c-0.6163,0-1.2237-0.0977-1.8294-0.4012
		c-1.0686-0.535-2.0951-1.6917-2.287-3.1286c-0.1706,0.0241-0.3408,0.0358-0.5089,0.0358c-3.62,0-6.5199-5.3684-3.2767-6.472
		c0.3672-0.1248,0.7558-0.1749,1.1521-0.1749c0.7309,0,1.4884,0.1705,2.1883,0.3583c0.2974,0.0796,0.5915,0.1747,0.8868,0.2664
		c0.9894,0.3036,1.9853,0.5753,2.9831,0.7921c-0.0356-0.3084-0.0985-0.6087-0.1855-0.9081
		c-0.1286-0.3885-0.2903-0.7521-0.4817-1.1022c-1.3167-2.2448-3.4396-3.1954-5.663-3.1957
		C14.4576,7.0016,11.3638,8.64,9.688,11.1385C6.3419,16.128,7.5337,23.8213,17.9752,23.8213 M19.7638,16.8464
		c0.0046,0,0.0092,0,0.0138,0c0.1618-0.0062,0.3206-0.0236,0.4782-0.0515c0.091-1.5802,1.4843-2.6465,2.6654-2.7194
		c0.0445-0.0026,0.0899-0.0039,0.1361-0.0039c0.1191,0,0.243,0.0088,0.3691,0.0264c0.0253-0.0554,0.0485-0.1117,0.0716-0.1689
		c0.0897-0.2571,0.1564-0.5209,0.1994-0.8004c0.0116-0.1023,0.0198-0.2039,0.0243-0.306c-0.3207-0.0697-0.6406-0.1448-0.9605-0.2241
		c-0.8348-0.208-1.6649-0.4561-2.4943-0.7146c-0.8723-0.2643-1.7602-0.4666-2.6413-0.4666c-0.0199,0-0.0397,0.0001-0.0596,0.0003
		c-0.3443,0.0129-0.6838,0.0595-1.0087,0.1722c-0.1705,0.0678-0.3313,0.154-0.481,0.2687
		c-0.0917,0.0796-0.1753,0.1683-0.2502,0.2698c-0.056,0.0875-0.1045,0.1806-0.1445,0.2808
		C15.0166,14.3932,17.7452,16.8464,19.7638,16.8464 M20.7773,16.6606l0.0692-0.0238c0.3913-0.1558,0.7564-0.3763,1.0981-0.6482
		c0.4242-0.3568,0.8016-0.7837,1.1375-1.2612l0.0318-0.0494l-0.028-0.0004c-0.235,0.0097-0.464,0.0505-0.6859,0.1275
		c-0.2738,0.1113-0.531,0.2753-0.7698,0.465c-0.1849,0.1562-0.3542,0.3324-0.5032,0.5392c-0.0975,0.1473-0.182,0.3057-0.2502,0.4784
		C20.8345,16.408,20.802,16.5323,20.7773,16.6606 M23.4808,17.2885c0.0066-0.017,0.0123-0.0339,0.0189-0.0509
		C23.4932,17.2546,23.4866,17.2716,23.4808,17.2885 M14.8633,0c-0.0001,0-0.002,0-0.0021,0c-4.3658,0-8.445,1.7057-11.1917,4.6796
		c-1.8988,2.0559-4.066,5.7167-3.6073,11.4816c0.6833,8.5832,7.4676,14.312,13.8161,15.5349
		c1.0587,0.204,2.1649,0.3074,3.2878,0.3074c8.1902,0,16.6066-5.4606,21.7521-10.571c1.5774-1.5668,2.9793-2.9592,4.2271-4.147
		c0.032,0.0933,0.0659,0.1866,0.1014,0.2796c1.1324,2.9666,3.5952,4.7386,6.5873,4.7386c3.3732,0,6.7804-2.2989,8.1013-5.4662
		c1.1961-2.868,0.5132-6.0061-1.8254-8.4126c0.8044,0.1095,1.5665,0.274,2.2973,0.4953c1.2877,0.4056,2.6292,1.023,4.1202,1.7281
		c0.4084,0.1931,0.8464,0.288,1.2821,0.288c0.6549,0,1.3047-0.2143,1.841-0.631c0.8931-0.6939,1.3201-1.8311,1.1043-2.9414
		l-0.1363-0.7014c-0.1823-0.9379-0.8004-1.7328-1.6644-2.1406c-1.8407-0.8688-3.8148-1.7591-5.9299-2.2624
		c-1.7676-0.4206-3.6176-0.6338-5.4984-0.6338c-3.0107,0-6.0825,0.5345-9.13,1.5886c-2.1042,0.7278-4.2281,1.7391-6.4932,3.0917
		c-3.3275,1.9885-6.2071,3.3324-9.4474,3.4294L28.2273,9.737c-0.2468,0-0.4967-0.0065-0.7506-0.0195
		c-0.2561-2.0876-1.0932-3.9721-2.4819-5.5509C22.6661,1.5192,18.9733,0.0005,14.8633,0L14.8633,0z M17.9752,20.8213
		c-3.3148,0-5.6267-0.9116-6.5097-2.5669c-0.7707-1.4449-0.5237-3.5124,0.6236-5.3069c0.0037,0.299,0.0309,0.6051,0.0824,0.9165
		c0.4489,2.7126,2.8362,5.5891,5.9524,6.3691c0.1105,0.1989,0.2308,0.3931,0.3598,0.5813
		C18.3117,20.819,18.1423,20.8213,17.9752,20.8213L17.9752,20.8213z"/>
</g>
<g id="top-flourish-star">
	<path fill="#F37522" d="M74.3675,24.0555c-0.1074,0-0.2412-0.0215-0.3433-0.0557c-0.5063-0.1641-0.8223-0.6914-0.7275-1.2236
		l1.2393-6.6406l-6.7056,0.812c-0.0396,0.0049-0.084,0.0073-0.1245,0.0073c-0.5039,0-0.9409-0.3384-1.062-0.8232
		c-0.1328-0.5308,0.1519-1.0806,0.6621-1.2783l6.4385-2.5088l-3.853-5.4092c-0.3169-0.4443-0.2534-1.0591,0.1475-1.4292
		c0.1851-0.1709,0.4868-0.29,0.7383-0.29c0.2534,0,0.5,0.0894,0.6953,0.2515l5.1396,4.1978l2.9146-6.2505
		c0.1641-0.3521,0.5957-0.6284,0.9844-0.6284c0.1104,0,0.2207,0.0171,0.3271,0.0503c0.5332,0.1675,0.8516,0.7056,0.7412,1.2524
		l-1.2393,6.6104l6.7031-0.8052C87.0823,9.8894,87.14,9.8855,87.18,9.8855c0.4961,0,0.9268,0.3389,1.0479,0.8247
		c0.1328,0.5288-0.1504,1.0776-0.6562,1.2769l-6.4453,2.5059l3.8623,5.4053c0.3115,0.4307,0.2578,1.041-0.1289,1.415
		c-0.1865,0.1807-0.4961,0.3037-0.7559,0.3037l0,0c-0.2402,0-0.4766-0.0801-0.666-0.2266l-5.1689-4.2139l-2.9155,6.251
		C75.1893,23.7791,74.7562,24.0555,74.3675,24.0555z"/>
	<path fill="#FFFFFF" d="M80.5109,3.7866c0.0094,0,0.0193,0.0015,0.0294,0.0047c0.042,0.0132,0.0674,0.0562,0.0586,0.0996
		l-1.4922,7.9639l8.0557-0.9678c0.0062-0.0011,0.0121-0.0016,0.0176-0.0016c0.0423,0,0.0686,0.0296,0.0781,0.0675
		c0.0107,0.043-0.0117,0.0874-0.0527,0.1035l-7.6406,2.9707l4.6104,6.4521c0.0254,0.0352,0.0205,0.085-0.0107,0.1152
		c-0.0179,0.0153-0.0394,0.0229-0.0608,0.0229c-0.0196,0-0.0391-0.0063-0.0554-0.019l-6.1431-5.0078l-3.458,7.4141
		c-0.0146,0.0312-0.0464,0.0508-0.0796,0.0508c-0.0088,0-0.0181-0.001-0.0269-0.0039c-0.042-0.0137-0.0674-0.0566-0.0596-0.1006
		l1.4883-7.9722l-8.0591,0.9761c-0.0014,0-0.0028,0.0001-0.0042,0.0001c-0.0476,0-0.0815-0.0242-0.092-0.066
		c-0.0107-0.043,0.0122-0.0874,0.0537-0.1035l7.6362-2.9756l-4.5981-6.4546c-0.0254-0.0356-0.0205-0.085,0.0117-0.1147
		c0.0168-0.0163,0.0382-0.0245,0.0597-0.0245c0.0197,0,0.0395,0.0068,0.056,0.0206l6.1416,5.0161l3.458-7.415
		C80.4482,3.8063,80.4767,3.7866,80.5109,3.7866 M78.2796,10.7888l-0.9253,1.957c-0.0117,0.0244-0.0337,0.042-0.0601,0.0483
		c-0.0066,0.001-0.0129,0.0015-0.0189,0.0015c-0.0215,0-0.0399-0.0062-0.0563-0.0195l-1.6328-1.3359l1.229,1.7085
		c0.0156,0.022,0.0205,0.0498,0.0132,0.0757c-0.0078,0.0264-0.0269,0.0474-0.0518,0.0571l-2.0229,0.8066l2.1255-0.271
		c0.0039-0.0005,0.0073-0.001,0.0112-0.001c0.0239,0,0.0469,0.0098,0.0635,0.0273c0.0195,0.0205,0.0278,0.0483,0.0229,0.0762
		l-0.3784,2.1001l0.9185-1.9355c0.0117-0.0244,0.0337-0.042,0.0601-0.0483c0.0059-0.0009,0.0117-0.0013,0.0176-0.0013
		c0.0206,0,0.0408,0.0056,0.0576,0.0189l1.5903,1.293l-1.1904-1.6572c-0.0156-0.022-0.0205-0.0498-0.0127-0.0762
		c0.0068-0.0259,0.0264-0.0469,0.0518-0.0566l2.0264-0.8022L77.9788,13.01c-0.0264-0.0005-0.0552-0.0068-0.0742-0.0273
		c-0.0195-0.0205-0.0273-0.0488-0.0225-0.0762L78.2796,10.7888 M80.5109,1.7866c-0.8035,0-1.5221,0.4499-1.8755,1.1741
		L76.249,8.0775l-4.1505-3.3899c-0.3613-0.3003-0.8351-0.4716-1.3212-0.4716c-0.5448,0-1.0605,0.2091-1.452,0.5887
		c-0.7345,0.6783-0.8561,1.8579-0.2483,2.7111l3.1081,4.3629l-5.2434,2.0432c-0.9765,0.3793-1.5224,1.4337-1.2679,2.452
		c0.2328,0.931,1.0685,1.581,2.0323,1.581c0.0189,0,0.042-0.0003,0.0609-0.0009c0.0615-0.0018,0.1228-0.0063,0.1838-0.0137
		l5.3522-0.6483l-0.9879,5.2918c-0.1844,1.0375,0.4215,2.0487,1.4065,2.3694c0.1999,0.0651,0.4357,0.1021,0.646,0.1021
		c0.8062,0,1.5482-0.4717,1.8905-1.2018l2.3741-5.0901l4.1524,3.385c0.0138,0.0113,0.0277,0.0223,0.0418,0.0332
		c0.364,0.2809,0.8176,0.4356,1.2773,0.4356c0.4991,0,0.9829-0.1791,1.3623-0.5043c0.0309-0.0265,0.061-0.0539,0.0902-0.0822
		c0.74-0.7171,0.8434-1.8875,0.2404-2.7224l-3.1082-4.3499l5.2418-2.038c0.9795-0.3847,1.5219-1.438,1.2682-2.4526
		c-0.2327-0.9315-1.0627-1.5824-2.0183-1.5824c-0.081,0-0.1706,0.0057-0.2562,0.016V8.9013l-5.3493,0.6426l0.9902-5.2847
		c0.2068-1.0215-0.4034-2.0551-1.425-2.376C80.9458,1.8223,80.7142,1.7866,80.5109,1.7866L80.5109,1.7866z"/>
</g>
</svg>
