<?xml version="1.0" encoding="utf-8"?>
<!-- Generator: Adobe Illustrator 19.0.0, SVG Export Plug-In . SVG Version: 6.00 Build 0)  -->
<svg version="1.1" id="archive" xmlns="http://www.w3.org/2000/svg" xmlns:xlink="http://www.w3.org/1999/xlink" x="0px" y="0px"
	 width="600.1px" height="509.1px" viewBox="-5 142.9 600.1 509.1" style="enable-background:new -5 142.9 600.1 509.1;"
	 xml:space="preserve">
<g>
	<path d="M299.5,142.9c79.6,0,159.2,0,238.8,0c20.9,0,27.9,6.8,28,27.5c0.1,23,0.1,46,0,69c-0.1,19.6-7.4,26.9-26.5,26.9
		c-160.6,0-321.1,0-481.7,0c-19.5,0-26.8-7.2-26.9-26.5c-0.1-23.3-0.1-46.7,0-70c0.1-19.9,7.3-26.9,27.6-26.9
		C138.9,142.9,219.2,142.9,299.5,142.9z"/>
	<path d="M508.5,297.1c-139.9,0-279.7,0-419.6,0c-19.8,0-26.5,7-26.5,27.8c0,98.1,0,196.3,0,294.4c0,20.8,6.8,27.8,26.5,27.8
		c69.6,0,139.2,0,208.8,0c69.9,0,139.9,0,209.8,0c21.1,0,27.5-6.6,27.5-28.8c0-97.8,0-195.6,0-293.4
		C535,304.1,528.3,297.1,508.5,297.1z M335.8,400.1c-3.1,0.1-6.2,0.1-9.3,0.1c-9.3,0.1-18.7-0.1-28-0.1c-9.1,0-18.2,0.1-27.3,0.1
		c-3,0-6.1,0-9.1-0.1c-13.5-0.2-22.3-8.6-22.3-20.7c0-12.2,8.7-20.5,22.3-20.6c24.6-0.2,49.2-0.2,73.8,0c13,0.1,21.5,8.3,21.7,20.1
		C357.8,391.2,349.2,399.8,335.8,400.1z"/>
</g>
</svg>
