<?xml version="1.0" encoding="utf-8"?>
<!-- Generator: Adobe Illustrator 18.1.1, SVG Export Plug-In . SVG Version: 6.00 Build 0)  -->
<svg version="1.1" id="Layer_1" xmlns="http://www.w3.org/2000/svg" xmlns:xlink="http://www.w3.org/1999/xlink" x="0px" y="0px"
	 viewBox="-269 361 72 72" enable-background="new -269 361 72 72" xml:space="preserve">
<g>
	<polygon points="-837.7,431 -837.7,385 -825.6,385 -843.1,359 -860.5,385 -848.5,385 -848.5,431 	"/>
	<polygon points="-810.4,359 -810.4,405 -822.5,405 -805,431 -788.5,405 -800.7,405 -800.7,359 	"/>
</g>
<path d="M-532.7,389.2l9.8,19.4c0,0,15.9-39.4,40.9-52.6c-0.6,9.4-3.1,17.5,1.2,27.5c-11,2.5-33.6,30.7-40.9,44.5
	c-10.4-13.1-22.6-23.2-31.1-26.3L-532.7,389.2z"/>
<path d="M-386,361h72v11.7h-72V361z M-386,381.3h54V393h-54V381.3z M-386,401h36v11.7h-36V401z M-386,421.3h18V433h-18V421.3z"/>
<path d="M-631.6,425.8c-2.5,2.5-7.2,3.1-9.7,0.7l-22.3-22.5c-1.6-1.6-2.1-3.8-1.7-5.8c-4,2.9-8,3.8-13.1,3.8c-6.2,0-12-2.4-16.3-6.8
	c-4.3-4.4-6.7-10.1-6.7-16.3c0-6.1,2.4-11.9,6.8-16.2c9-8.9,23.7-8.8,32.6,0.2c8.1,8.2,9.5,20.2,2.8,29.2c2-0.4,4.3,0.1,5.9,1.7
	l22.3,22.4C-628.4,418.6-629.1,423.3-631.6,425.8z M-664.8,378.9c0-3.6-1.4-6.9-3.9-9.5c-5.2-5.2-13.7-5.3-19-0.1
	c-5.3,5.2-5.3,13.7-0.1,18.9c5.2,5.2,13.7,5.3,19,0.1C-666.3,385.8-664.9,382.5-664.8,378.9z"/>
<g>
	<path d="M-200.2,410.9l-0.8,2.1l-7.9,1.4c-1.2,4.6-5.4,8.1-10.5,8.1v1.4c0,0.8-0.6,1.4-1.4,1.4h-2.7c-0.8,0-1.4-0.6-1.4-1.4v-24.5
		c0-0.8,0.6-1.4,1.4-1.4h2.7c0.8,0,1.4,0.6,1.4,1.4v1.4c4.1,0,7.6,2.3,9.5,5.6l2.9-0.5c0.8-2.6,1.2-5.4,1.2-8.2
		c0-12.8-12.7-24-27.2-24s-27.2,11.2-27.2,24c0,2.8,0.4,5.6,1.2,8.2l2.9,0.5c1.9-3.3,5.4-5.6,9.5-5.6v-1.4c0-0.8,0.6-1.4,1.4-1.4
		h2.7c0.8,0,1.4,0.6,1.4,1.4v24.5c0,0.8-0.6,1.4-1.4,1.4h-2.7c-0.8,0-1.4-0.6-1.4-1.4v-1.4c-5.1,0-9.3-3.4-10.5-8.1l-7.9-1.4
		l-0.8-2.1c-1.7-4.2-2.5-8.7-2.5-13.3c0-17.5,16.2-32.2,35.3-32.2s35.3,14.7,35.3,32.2C-197.7,402.1-198.5,406.6-200.2,410.9z"/>
</g>
</svg>
