<?xml version="1.0" encoding="utf-8"?>
<!-- Generator: Adobe Illustrator 18.1.1, SVG Export Plug-In . SVG Version: 6.00 Build 0)  -->
<svg version="1.1" id="Layer_1" xmlns="http://www.w3.org/2000/svg" xmlns:xlink="http://www.w3.org/1999/xlink" x="0px" y="0px"
	 viewBox="0 0 32 32" enable-background="new 0 0 32 32" xml:space="preserve">
<path d="M31,10.4c0-4.5-3.4-8.1-7.5-8.1c-4,0-7.3,2-7.5,6.3l0,0c-0.2-4.3-3.5-6.3-7.5-6.3C4.4,2.3,1,5.9,1,10.4c0,2.4,0.9,4.5,2.4,6
	l0,0c0,0,11,10.8,12.6,13.3c0,0,1.2-2.5,12.3-13c0,0,0,0,0,0c0.1-0.1,0.2-0.2,0.3-0.3l0,0C30.1,14.9,31,12.8,31,10.4z M23,18h-5v5
	h-4v-5H9v-4h5V9h4v5h5V18z"/>
</svg>
