<?xml version="1.0" encoding="utf-8"?>
<!-- Generator: Adobe Illustrator 18.1.1, SVG Export Plug-In . SVG Version: 6.00 Build 0)  -->
<svg version="1.1" id="Layer_1" xmlns="http://www.w3.org/2000/svg" xmlns:xlink="http://www.w3.org/1999/xlink" x="0px" y="0px"
	 viewBox="0 0 32 32" enable-background="new 0 0 32 32" xml:space="preserve">
<g>
	<path d="M32,10c0-4.8-3.6-8.7-8-8.7c-4.3,0-7.8,2.2-8,6.7l0,0c-0.2-4.6-3.7-6.7-8-6.7c-4.4,0-8,3.9-8,8.7c0,2.5,1,4.8,2.6,6.4l0,0
		c0,0,11.7,11.5,13.4,14.2c0,0,1.3-2.7,13.1-13.9c0,0,0,0,0,0c0.1-0.1,0.2-0.2,0.3-0.3l0,0C31,14.8,32,12.6,32,10z"/>
</g>
</svg>
