<?xml version="1.0" encoding="utf-8"?>
<!-- Generator: Adobe Illustrator 18.1.0, SVG Export Plug-In . SVG Version: 6.00 Build 0)  -->
<!DOCTYPE svg PUBLIC "-//W3C//DTD SVG 1.1//EN" "http://www.w3.org/Graphics/SVG/1.1/DTD/svg11.dtd">
<svg version="1.1" id="Layer_1" xmlns="http://www.w3.org/2000/svg" xmlns:xlink="http://www.w3.org/1999/xlink" x="0px" y="0px"
	 width="72px" height="72px" viewBox="0 0 72 72" enable-background="new 0 0 72 72" xml:space="preserve">
<g>
	<polygon fill-rule="evenodd" clip-rule="evenodd" points="-285,75 -285,29 -272.9,29 -290.3,3 -307.8,29 -295.7,29 -295.7,75 	"/>
	<polygon fill-rule="evenodd" clip-rule="evenodd" points="-257.6,3 -257.6,49 -269.7,49 -252.3,75 -235.8,49 -247.9,49 -247.9,3 	
		"/>
</g>
<path fill-rule="evenodd" clip-rule="evenodd" d="M20.1,33.2l9.8,19.4c0,0,15.9-39.4,40.9-52.6c-0.6,9.4-3.1,17.5,1.2,27.5
	C61,30.1,38.4,58.2,31.1,72C20.7,58.9,8.5,48.8,0,45.7L20.1,33.2z"/>
<path fill-rule="evenodd" clip-rule="evenodd" d="M166.8,5h72v11.7h-72V5z M166.8,25.3h54V37h-54V25.3z M166.8,45h36v11.7h-36V45z
	 M166.8,65.3h18V77h-18V65.3z"/>
<path fill-rule="evenodd" clip-rule="evenodd" d="M-78.8,69.8c-2.5,2.5-7.2,3.1-9.7,0.7L-110.9,48c-1.6-1.6-2.1-3.8-1.7-5.8
	c-4,2.9-8,3.8-13.1,3.8c-6.2,0-12-2.4-16.3-6.8c-4.3-4.4-6.7-10.1-6.7-16.3c0-6.1,2.4-11.9,6.8-16.2c9-8.9,23.7-8.8,32.6,0.2
	C-101,15-99.6,27-106.3,36c2-0.4,4.3,0.1,5.9,1.7l22.3,22.4C-75.6,62.6-76.4,67.3-78.8,69.8z M-112.1,22.9c0-3.6-1.4-6.9-3.9-9.5
	c-5.2-5.2-13.7-5.3-19-0.1c-5.3,5.2-5.3,13.7-0.1,18.9c5.2,5.2,13.7,5.3,19,0.1C-113.5,29.8-112.1,26.5-112.1,22.9z"/>
<g>
</g>
<g>
</g>
<g>
</g>
<g>
</g>
<g>
</g>
<g>
</g>
</svg>
