<?xml version="1.0" encoding="utf-8"?>
<!-- Generator: Adobe Illustrator 18.1.1, SVG Export Plug-In . SVG Version: 6.00 Build 0)  -->
<svg version="1.1" id="ps-star" xmlns="http://www.w3.org/2000/svg" xmlns:xlink="http://www.w3.org/1999/xlink" x="0px" y="0px"
	 width="51.9px" height="51.4px" viewBox="0 0 51.9 51.4" enable-background="new 0 0 51.9 51.4" xml:space="preserve">
<path fill="#BF4647" stroke="#BF4647" stroke-width="1.0581" stroke-linecap="round" stroke-linejoin="round" d="M36.8,28.8
	c0.1-1.2-0.8-2.1-1.3-3.1c-0.2-0.7-0.9-1.1-1.3-1.6c-0.3-0.1-0.5-0.4-0.8-0.6c-0.6-0.9-1.6-1.5-2.6-2c-0.8,0-1.4-0.7-2.2-0.8l-1.8,0
	c-0.7,0-1.6-0.1-2.1,0.2l0-0.1c-0.2,0.2-1.9,0.6-2.1,0.8c-0.2,0,1.1-0.7,0.9-0.5h0c-0.6,0.4-1,0.7-1.6,1.1c-0.1,0.2-0.4,0.3-0.3,0.5
	l0.4,1.2c1.2-1,2.8-1.5,4.2-2c1.2,0.3,2.3,0.4,3.5,0.9c0.1-0.1,0.2,0,0.3,0.1c1,0.4,1.9,1.1,2.7,1.8c0.8,0.5,1.4,1.3,2,2
	c1,1.7,0.6,3.5,0.1,5.2c-0.5,1.1-0.6,2.4-1.6,3.2c-0.8,1.5-2.4,2.2-4,2.7c-2.5,0.3-5.3-0.5-7.3-2.2c-0.5-0.7-1.2-1.2-1.6-2
	c-1.1-2.5-1.4-5-0.7-7.5l-0.3-1.9c0.3-0.8,0.3-2.1,0.7-2.9l-0.3,0.2c-1.6,0-0.7,2.3-1.2,3.5c-1.3,3-0.9,6.1,0.4,9.2
	c0.9,1.6,2.1,2.8,3.7,3.7c2.8,1.3,5.7,2.2,8.6,0.9c2.3-0.9,4.1-2.8,4.6-5.3l0.1,0c0.1-0.5,0.5-1,0.5-1.5C37,31,37.2,29.8,36.8,28.8z
	"/>
<path fill="#BF4647" stroke="#BF4647" stroke-width="0.8465" stroke-linecap="round" stroke-linejoin="round" d="M40.9,48.4
	c-1.3-2.8-3.5-4.8-5.3-7.3c-0.3-0.4,0.3-0.3,0.3-0.6c1.3-0.3,2,1,2.8,1.8c1.4,1.6,2.8,3.6,3,5.7c-0.2,0.2-0.3,0.3-0.6,0.3L40.9,48.4
	z"/>
<path fill="#BF4647" stroke="#BF4647" stroke-width="0.8465" stroke-linecap="round" stroke-linejoin="round" d="M25.2,50.6
	c-0.3-0.5-0.3-1.1-0.2-1.8c0.3-2,0.5-4.1,1.1-6c0.3-0.1,0.4-0.8,0.8-0.4c0.6,0.6,0.4,1.6,0.3,2.4c-0.3,2-0.7,4-1.4,5.8
	C25.7,50.8,25.4,50.8,25.2,50.6z"/>
<path fill="#BF4647" stroke="#BF4647" stroke-width="0.8465" stroke-linecap="round" stroke-linejoin="round" d="M49.3,35.4
	c-2.5-1-5.3-1.6-7.3-3.4l-0.2-0.3c0.4-0.7,1.3,0.2,1.9-0.1c1.6,0.9,3.6,1.3,5.4,1.9c0.6,0.2,1,0.8,1.6,1c0.1,0.3,0.3,0.2,0.4,0.4
	c-0.2,0.2-0.1,0.4-0.3,0.6C50.4,36,49.8,35.6,49.3,35.4z"/>
<path fill="#BF4647" stroke="#BF4647" stroke-width="0.8465" stroke-linecap="round" stroke-linejoin="round" d="M14.6,41.7
	c-0.1-0.1-0.2,0-0.3-0.2c0.6-1.4,2.2-2.1,3.6-2.8c0.3,0.1,0.5-0.4,0.8-0.2c0.1,0.2,0,0.4-0.2,0.5C17.4,40.3,15.9,41,14.6,41.7z"/>
<path fill="#BF4647" stroke="#BF4647" stroke-width="0.8465" stroke-linecap="round" stroke-linejoin="round" d="M38.3,24.6
	c-0.1,0.1-0.1-0.1-0.2-0.1c-0.1-0.1,0-0.3-0.1-0.3c1.2-3,4.2-4.8,6.7-6.8c1-0.6,1.8-1.4,2.9-1.5c0.2,0.1,0.4,0.1,0.6,0.1
	c0.4,0.2,1-0.3,1.2,0.4c-3.4,1.7-6.2,4.1-9.1,6.6c-0.6,0.7-1.2,1.3-1.9,1.9L38.3,24.6z"/>
<path fill="#BF4647" stroke="#BF4647" stroke-width="0.8465" stroke-linecap="round" stroke-linejoin="round" d="M13.9,30.7
	C11,31,8,31,5.1,31.4c-0.2-0.1-0.4-0.1-0.4-0.3c0.8-0.6,1.8-0.7,2.7-1c2.1-0.2,4.3-0.6,6.4,0.2c0.2,0,0.4,0.1,0.5,0.3L13.9,30.7z"/>
<path fill="#BF4647" stroke="#BF4647" stroke-width="0.8465" stroke-linecap="round" stroke-linejoin="round" d="M30.1,16.6
	c-0.2-0.2-0.8-0.3-0.5-0.7c0.7-1.8,2-3.2,2.9-4.8c0.9-1.4,1.8-2.9,2.9-4.2c0.3-0.2,0.4-0.4,0.7-0.5c0.3,0.1,0.7,0.3,0.9,0.4
	c-0.1,0.2,0.1,0.3,0.2,0.4l0.2,0.1C36.7,7.7,36.5,8.4,36,9c-1.8,2.6-3.3,5.4-5.5,7.7L30.1,16.6z"/>
<path fill="#BF4647" stroke="#BF4647" stroke-width="0.8465" stroke-linecap="round" stroke-linejoin="round" d="M14.7,23.7
	c-1.8-0.4-3.6-0.7-5.2-1.5c-2.5-1.1-4.8-2.3-7.3-3.5c-0.6-0.4-1.5-0.8-1.6-1.6c0-0.2,0-0.4,0.1-0.6C0.7,16.3,0.9,16.2,1,16
	c0.4-0.1,0.9-0.2,1.4,0c1.8,1,3.9,1.6,5.4,3.2c1,0.7,2.2,1,3.4,1.4c1.8-0.6,2.9,1.2,4.3,1.9c0.2,0.2,0.5,0.4,0.4,0.7
	c-0.2,0.2-0.6,0.3-0.7,0.6L14.7,23.7z"/>
<path fill="#BF4647" stroke="#BF4647" stroke-width="0.8465" stroke-linecap="round" stroke-linejoin="round" d="M20.9,16
	c-2.1-1.9-1.8-4.8-2.5-7.2c-0.3-2.7-0.9-5.2-1.1-7.9c0.1,0,0.3,0,0.3-0.1c0,0,0-0.1,0-0.1l0,0.1c0.1,0,0.2-0.2,0.3-0.2
	c0.6,0,0.6,0.7,0.9,1.1c0.4,3.4,0.8,6.8,1.5,10.2c0.1,1.5,0.9,2.9,1.5,4.3c-0.2-0.1-0.2,0.2-0.3,0.3C21.3,16.5,21.2,16.2,20.9,16z"
	/>
</svg>
