<?xml version="1.0" encoding="utf-8"?>
<!-- Generator: Adobe Illustrator 18.1.1, SVG Export Plug-In . SVG Version: 6.00 Build 0)  -->
<svg version="1.1" id="Layer_1" xmlns="http://www.w3.org/2000/svg" xmlns:xlink="http://www.w3.org/1999/xlink" x="0px" y="0px"
	 viewBox="-269 361 72 72" enable-background="new -269 361 72 72" xml:space="preserve">
<g>
	<polygon points="-867.7,431 -867.7,385 -855.6,385 -873.1,359 -890.5,385 -878.5,385 -878.5,431 	"/>
	<polygon points="-840.4,359 -840.4,405 -852.5,405 -835,431 -818.5,405 -830.7,405 -830.7,359 	"/>
</g>
<path d="M-562.7,389.2l9.8,19.4c0,0,15.9-39.4,40.9-52.6c-0.6,9.4-3.1,17.5,1.2,27.5c-11,2.5-33.6,30.7-40.9,44.5
	c-10.4-13.1-22.6-23.2-31.1-26.3L-562.7,389.2z"/>
<path d="M-416,361h72v11.7h-72V361z M-416,381.3h54V393h-54V381.3z M-416,401h36v11.7h-36V401z M-416,421.3h18V433h-18V421.3z"/>
<path d="M-661.6,425.8c-2.5,2.5-7.2,3.1-9.7,0.7l-22.3-22.5c-1.6-1.6-2.1-3.8-1.7-5.8c-4,2.9-8,3.8-13.1,3.8c-6.2,0-12-2.4-16.3-6.8
	c-4.3-4.4-6.7-10.1-6.7-16.3c0-6.1,2.4-11.9,6.8-16.2c9-8.9,23.7-8.8,32.6,0.2c8.1,8.2,9.5,20.2,2.8,29.2c2-0.4,4.3,0.1,5.9,1.7
	l22.3,22.4C-658.4,418.6-659.1,423.3-661.6,425.8z M-694.8,378.9c0-3.6-1.4-6.9-3.9-9.5c-5.2-5.2-13.7-5.3-19-0.1
	c-5.3,5.2-5.3,13.7-0.1,18.9c5.2,5.2,13.7,5.3,19,0.1C-696.3,385.8-694.9,382.5-694.8,378.9z"/>
<path d="M-197.1,396c0-10.6-1.1-19.5-3.2-23.5c-1.1-2.9-4.3-5.2-8-5.2h-49.6c-3.4,0-6.6,2.3-7.7,5.2c-2,4-3.2,12.9-3.2,23.5
	s1.1,19.5,3.2,23.5c1.1,2.9,4.3,5.2,7.7,5.2h49.6c3.4,0,6.6-2.3,8-5.2C-198.3,415.5-197.1,406.6-197.1,396z M-246.3,376.8L-213,396
	l-33.3,19.2V376.8z"/>
</svg>
