<?xml version="1.0" encoding="utf-8"?>
<!-- Generator: Adobe Illustrator 18.1.1, SVG Export Plug-In . SVG Version: 6.00 Build 0)  -->
<svg version="1.1" id="Layer_1" xmlns="http://www.w3.org/2000/svg" xmlns:xlink="http://www.w3.org/1999/xlink" x="0px" y="0px"
	 viewBox="0 0 80 14" enable-background="new 0 0 80 14" xml:space="preserve" width="80px" height="14px">
<path fill="none" d="M75.8,1.9c-0.2-0.1-0.3-0.2-0.5-0.2c-0.2-0.1-0.4-0.1-0.6-0.2C74.8,1.8,74.9,2,75,2.3C75.3,2.2,75.5,2,75.8,1.9
	z"/>
<path fill="none" d="M4.8,5.6C4.8,5.7,4.8,5.7,4.8,5.6L4.8,5.6L4.8,5.6z"/>
<path fill="#ABC5C8" stroke="#ABC5C8" stroke-width="0.25" stroke-miterlimit="10" d="M78.1,3.9C77.9,4,77.7,4,77.6,4.1
	c-0.4-0.3-0.9-0.5-1.4-0.6c-2.1-3-6.8-3.6-9.7-2.8c-3,0.9-4.2,3.2-1.7,5.3c1.2,1,3,1.2,4.5,1c-0.7,0.5-0.7,1.5-0.3,2.1
	c-0.1,0-0.2,0-0.4,0.1c-2.6,0.3-5.5-1.8-7.9-2.8c-5.3-2.2-11.9-3.9-17.5-1.6c-1.4,0.6-2.6,1.6-2.9,3c-0.2,0.2-0.4,0.5-0.4,0.8
	c0,0.5,0.4,0.8,0.8,0.9c0.2,0.1,0.4-0.3,0.1-0.4h-0.1c-0.1,0-0.1-0.1-0.2-0.1l-0.1-0.1c-0.2-0.3-0.1-0.5,0.1-0.7
	c0.1,0,0.1,0,0.1-0.1c0,0,0.1-0.1,0.2-0.1c0.2,0,0.2,0,0.3,0c0.1,0,0.2,0,0.3,0c0.4,0.1,0.8,0.4,1,0.8c0,0.1,0,0.1,0.1,0.2
	c0,0.1,0,0.1,0,0.2c0,0.1,0,0.1-0.1,0.2c0,0.1-0.1,0.1-0.1,0.2c-0.1,0.1-0.2,0.2-0.3,0.3c-0.1,0.1-0.3,0.2-0.4,0.2
	c-0.2,0.1-0.4,0.1-0.6,0.2c-0.4,0-0.7,0-1.1,0c-0.7-0.1-1.4-0.3-2-0.5c1.7-2.1,0.1-5-2.8-5.9c-1.3-0.4-3.2-0.5-4.5,0
	C30,3.5,29.4,3.2,29,2.9c-10.8-7.1-18.7,4.6-26,4.6c-0.3,0-0.7-0.1-1-0.3C1.8,7.1,1.6,7,1.5,6.9C1.4,6.8,1.2,6.6,1,6.3
	c0.4,0.1,0.8,0,1.1-0.2c0.5-0.3,0.9-0.8,0.8-1.4C2.6,3.9,1.7,3.5,0.9,3.4c-0.3,0-0.6,0-0.9,0v0.4c0.3,0,0.7-0.1,1,0
	c0.2,0,0.4,0.1,0.6,0.2C1.8,4.1,1.9,4.2,2,4.3c0.1,0.1,0.2,0.2,0.3,0.3c0.1,0.1,0.1,0.1,0.1,0.2c0,0.1,0,0.1,0.1,0.2
	c0,0.1,0,0.1,0,0.2c0,0.1,0,0.1-0.1,0.2C2.2,5.7,1.9,6,1.5,6.1c-0.1,0-0.2,0-0.3,0C1.1,6.1,1,6.1,1,6C0.7,5.8,0.3,5.5,0.6,5.2
	l0.1-0.1C0.8,5.1,0.8,5,0.9,5H1c0.2-0.1,0.1-0.5-0.1-0.4C0.5,4.7,0.1,5,0.1,5.4v0.1c0,0.2,0.1,0.4,0.3,0.6c0.3,1.5,1.6,2.5,2.9,3.1
	C9,11.5,15.6,9.8,20.9,7.7c2.4-1,5.3-3.1,7.9-2.8c0.1,0,0.2,0,0.4,0.1c-0.4,0.7-0.3,1.7,0.3,2.1c-1.5-0.2-3.4,0-4.5,1
	c-2.5,2-1.4,4.5,1.7,5.3c2.8,0.8,7.6,0.3,9.7-2.8c0.5-0.1,1-0.3,1.4-0.6c0.2,0.1,0.4,0.1,0.5,0.2c0.9,0.3,1.8,0.5,2.6,0.5
	c0.8-0.1,1.8-0.5,1.9-1.4c0.1-0.6-0.3-1.1-0.8-1.4c-0.3-0.2-0.7-0.3-1-0.2c0.2-0.3,0.4-0.5,0.5-0.6C41.7,7,41.8,6.9,42,6.8
	c0.3-0.1,0.7-0.2,1-0.3c7.2,0.1,15.1,11.7,26.1,4.8c0.6-0.3,1.1-0.6,1.6-0.9c1.3,0.5,3.3,0.4,4.5,0c2.9-1,4.5-3.8,2.8-5.9
	c0.7-0.2,1.4-0.4,2-0.6l0,0V3.5C79.4,3.5,78.7,3.7,78.1,3.9z M2.3,8.1C2.1,8,1.9,7.9,1.7,7.7C1.6,7.6,1.6,7.6,1.5,7.5
	C2.1,7.9,3,8,3.8,8c7.4,0,15.5-10.9,26.3-4.1C30,3.9,30,4,29.9,4C18.5,1.5,10.5,9.1,3.5,8.4C3.1,8.3,2.7,8.2,2.3,8.1z M3.8,8.8
	c3.4,0.3,9.1-2,12.5-3c2.2-0.7,4.5-1.3,6.7-1.6c2.1-0.3,4.4-0.3,6.5,0.1c-0.1,0.1-0.1,0.1-0.2,0.2C21.3,2.9,14.8,12.5,3.8,8.8z
	 M29.3,5.2c0.1-0.1,0.1-0.3,0.2-0.4c0.1-0.1,0.2-0.2,0.3-0.3l0.1-0.1c0.4,0.1,0.9,0.2,1.3,0.3c0.1,0.1,0.3,0.3,0.4,0.4
	c0.8,1-0.3,1.7-1.3,1.8c-0.1,0-0.2,0-0.3,0s-0.2,0-0.3-0.1c-0.1,0-0.1-0.1-0.2-0.1C29.1,6.3,29.1,5.7,29.3,5.2z M36.3,9.6
	c-1.3,2.8-5.6,3.6-8.4,3.2c-3.5-0.5-3.9-3.1-2.2-4.6c1.1-1,3-1.4,5.2-0.5c0.3,0.1,0.6,0.3,0.8,0.5l0.1,0.1c-0.2,0-0.4,0.1-0.6,0.1
	c-1.2,0.3-2.4,1.8-1.3,2.6c0.9,0.7,2.5,0,2.9-1c0.2-0.5,0-1-0.2-1.5c0.5,0,1.1,0,1.6,0.1c0.6,0.1,1.2,0.2,1.7,0.4
	c0.2,0.1,0.4,0.2,0.6,0.2C36.3,9.5,36.3,9.5,36.3,9.6z M31.8,8.8c0.1,0,0.2,0,0.3,0c0.1,0.1,0.2,0.3,0.2,0.4
	c0.1,0.1,0.1,0.3,0.1,0.5c0,0.1,0,0.2,0,0.3s0,0.2-0.1,0.2c0,0.1-0.1,0.2-0.1,0.2c-0.1,0.1-0.2,0.2-0.3,0.3
	c-0.4,0.3-0.9,0.5-1.5,0.4c-0.1,0-0.2,0-0.3-0.1c-0.1,0-0.1-0.1-0.2-0.1C29.1,9.9,30.9,8.9,31.8,8.8z M36.5,9.1
	c-0.4-0.2-0.7-0.3-1.1-0.4c-0.7-0.2-1.3-0.3-1.9-0.3c-0.4,0-0.8,0-1.1,0c-0.2-0.3-0.5-0.5-0.8-0.6c-0.3-0.2-0.6-0.3-1-0.4
	c0.4-0.1,0.7-0.2,1-0.4c0.9-0.5,1.1-1.2,0.5-1.9c1.8,0.6,4.1,1.3,4.4,3.4C36.5,8.6,36.5,8.8,36.5,9.1C36.5,9,36.5,9,36.5,9.1z
	 M36.9,9.8c-0.1,0-0.2,0.1-0.3,0.1c0.1-0.1,0.1-0.3,0.2-0.4c0.2,0.1,0.3,0.1,0.5,0.2C37,9.8,36.9,9.8,36.9,9.8z M37.5,9.4
	c-0.1,0-0.2-0.1-0.2-0.1c-0.2-0.1-0.3-0.1-0.5-0.2c0.5-2.7-2.3-3.8-4.4-4.6c-0.3-0.1-0.6-0.2-1-0.3C31.3,4.2,31.2,4.1,31,4
	c0.1,0,0.3,0,0.4-0.1c4.1-1.2,8.6,2.3,6.2,5.4C37.6,9.3,37.5,9.4,37.5,9.4z M76.9,4.2c0.1,0,0.2,0.1,0.3,0.1
	c-0.2,0.1-0.3,0.1-0.5,0.2c0-0.2-0.1-0.3-0.2-0.5C76.6,4.1,76.7,4.1,76.9,4.2z M76.4,5.1c0,0.2,0,0.4,0,0.7
	c-0.3,2.1-2.6,2.8-4.4,3.4c0.6-0.8,0.4-1.6-0.5-1.9c-0.3-0.2-0.6-0.3-1-0.4c0.3-0.1,0.7-0.2,1-0.4s0.6-0.4,0.8-0.6
	c0.4,0,0.8,0,1.1,0c0.7,0,1.4-0.1,1.9-0.3C75.7,5.2,76,5.2,76.4,5.1L76.4,5.1z M71.8,5.2c-0.9-0.1-2.8-1.2-1.7-2
	c0.1,0,0.1-0.1,0.2-0.1S70.6,3,70.7,3c0.5-0.1,1,0.1,1.5,0.4c0.1,0.1,0.2,0.2,0.3,0.3c0.1,0.1,0.1,0.2,0.1,0.2
	c0,0.1,0.1,0.2,0.1,0.2c0,0.1,0,0.2,0,0.3c0,0.2-0.1,0.3-0.1,0.5c-0.1,0.1-0.1,0.3-0.2,0.4C72,5.2,71.9,5.2,71.8,5.2z M65.6,5.7
	c-1.6-1.5-1.3-4.1,2.2-4.6c2.8-0.4,7.1,0.4,8.4,3.2c0,0.1,0.1,0.2,0.1,0.3c-0.2,0.1-0.4,0.2-0.6,0.2c-0.6,0.2-1.1,0.3-1.7,0.4
	c-0.5,0.1-1.1,0.1-1.6,0.1c0.2-0.4,0.4-1,0.2-1.5c-0.4-1-2-1.7-2.9-1c-1.1,0.9,0.1,2.3,1.3,2.6c0.2,0,0.4,0.1,0.6,0.1l-0.1,0.1
	c-0.3,0.2-0.5,0.3-0.8,0.5C68.7,7.1,66.7,6.6,65.6,5.7z M69.3,9.5c0.1,0.1,0.1,0.2,0.2,0.2c-2.1,0.4-4.4,0.4-6.5,0.1
	c-2.3-0.3-4.6-0.9-6.7-1.6c-3.4-1-9.1-3.3-12.5-3C54.8,1.5,61.3,11.1,69.3,9.5z M43.9,6c-0.8,0-1.7,0.1-2.3,0.5
	c0.1-0.1,0.1-0.1,0.2-0.2c0.2-0.2,0.4-0.3,0.7-0.4c0.4-0.2,0.8-0.2,1.2-0.3c7-0.8,15,6.8,26.4,4.4c0.1,0,0.1,0.1,0.2,0.1
	C59.4,16.9,51.3,6,43.9,6z M70,9.6L70,9.6c-0.2-0.2-0.3-0.3-0.4-0.4c-0.1-0.1-0.2-0.3-0.2-0.4c-0.2-0.5-0.2-1.1,0.3-1.5
	c0.1,0,0.1-0.1,0.2-0.1c0.1,0,0.2-0.1,0.3-0.1c0.1,0,0.2,0,0.3,0c1,0.2,1.9,0.8,1.3,1.8c-0.1,0.2-0.3,0.3-0.4,0.4
	C70.9,9.4,70.5,9.5,70,9.6z M71.4,10.1c-0.1,0-0.3,0-0.4-0.1c0.2-0.1,0.3-0.2,0.4-0.3c0.3-0.1,0.6-0.2,1-0.3c2-0.8,4.9-1.8,4.4-4.6
	c0.2-0.1,0.3-0.1,0.5-0.2c0.1,0,0.2-0.1,0.2-0.1c0.1,0.1,0.1,0.1,0.2,0.2C79.9,7.7,75.6,11.3,71.4,10.1z"/>
</svg>
