<?xml version="1.0" encoding="utf-8"?>
<!-- Generator: Adobe Illustrator 15.1.0, SVG Export Plug-In  -->
<!DOCTYPE svg PUBLIC "-//W3C//DTD SVG 1.1//EN" "http://www.w3.org/Graphics/SVG/1.1/DTD/svg11.dtd" [
	<!ENTITY ns_flows "http://ns.adobe.com/Flows/1.0/">
]>
<svg version="1.1"
	 xmlns="http://www.w3.org/2000/svg" xmlns:xlink="http://www.w3.org/1999/xlink" xmlns:a="http://ns.adobe.com/AdobeSVGViewerExtensions/3.0/"
	 x="0px" y="0px" width="140px" height="24px" viewBox="0 -0.277 140 24"
	 overflow="visible" enable-background="new 0 -0.277 140 24" xml:space="preserve">
<defs>
</defs>
<path fill="none" d="M52.649,18.223c0.087,0.062,0.178,0.114,0.275,0.16c0.152,0.061,0.304,0.098,0.466,0.123
	c0.885,0.098,1.794-0.199,2.504-0.723c0.178-0.139,0.336-0.296,0.479-0.468c0.096-0.132,0.178-0.271,0.246-0.417
	c0.048-0.125,0.083-0.257,0.107-0.392c0.016-0.171,0.009-0.34-0.014-0.511c-0.039-0.267-0.107-0.523-0.21-0.776
	c-0.104-0.235-0.234-0.456-0.385-0.666c-0.161,0.014-0.321,0.032-0.482,0.053C54.022,14.834,50.761,16.63,52.649,18.223z"/>
<path fill="none" d="M59.632,14.668c-0.896-0.118-1.805-0.183-2.712-0.157c0.417,0.718,0.695,1.704,0.395,2.509
	c-0.658,1.767-3.626,2.931-5.127,1.725c-1.905-1.535,0.187-4.085,2.302-4.623c0.34-0.086,0.684-0.152,1.03-0.2
	c-0.063-0.055-0.126-0.109-0.193-0.162c-0.429-0.32-0.899-0.58-1.39-0.791c-3.785-1.554-7.244-0.751-9.092,0.887
	c-2.883,2.555-2.268,7.146,3.92,8.01c4.908,0.631,12.491-0.7,14.636-5.629c0.062-0.152,0.116-0.305,0.161-0.457
	c-0.333-0.137-0.67-0.27-1.006-0.401C61.615,15.013,60.632,14.807,59.632,14.668z"/>
<path fill="none" d="M52.118,11.225c0.152,0.059,0.309,0.1,0.47,0.125c0.202,0.019,0.4,0.016,0.598-0.005
	c1.704-0.268,3.497-1.365,2.196-3.093c-0.212-0.269-0.45-0.512-0.703-0.745c-0.716-0.198-1.442-0.376-2.172-0.532
	c-0.074,0.05-0.147,0.098-0.219,0.152c-0.217,0.175-0.41,0.37-0.588,0.587c-0.161,0.216-0.297,0.445-0.407,0.692
	c-0.355,0.902-0.316,1.958,0.472,2.615C51.879,11.102,51.993,11.168,52.118,11.225z"/>
<path fill="none" d="M52.39,6.24c0.109-0.06,0.222-0.118,0.338-0.169C33.786-5.881,19.663,13.24,6.616,13.286
	c-1.336,0.003-2.898-0.182-4.086-0.867c0.12,0.114,0.243,0.223,0.372,0.328c0.359,0.267,0.744,0.484,1.153,0.662
	c0.641,0.263,1.316,0.423,2,0.521C18.4,15.35,32.36,2.026,52.39,6.24z"/>
<path fill="none" d="M51.595,6.798c-3.739-0.681-7.653-0.621-11.411-0.13C36.165,7.21,32.227,8.23,28.35,9.394
	c-5.912,1.776-15.835,5.869-21.87,5.294c19.375,6.376,30.751-10.222,44.743-7.508C51.339,7.042,51.462,6.914,51.595,6.798z"/>
<path fill="none" d="M55.982,7.9c1.055,1.425,0.632,2.664-0.896,3.491c-0.509,0.273-1.102,0.522-1.706,0.625
	c0.59,0.187,1.155,0.427,1.685,0.736c0.498,0.29,0.971,0.648,1.36,1.08c0.645-0.039,1.297-0.027,1.938,0.014
	c1.155,0.077,2.326,0.234,3.442,0.545c0.655,0.18,1.291,0.433,1.919,0.696c0.001-0.018,0.005-0.034,0.008-0.054
	c0.041-0.386,0.041-0.766-0.003-1.149C63.151,10.188,59.081,8.892,55.982,7.9z"/>
<path fill="none" d="M54.922,6.168c-0.217,0.031-0.432,0.07-0.646,0.116c0.255,0.187,0.509,0.384,0.749,0.594
	c0.554,0.159,1.103,0.332,1.646,0.525c3.659,1.285,8.535,3.103,7.695,7.957c0.294,0.124,0.586,0.249,0.882,0.363
	c0.13,0.052,0.263,0.104,0.396,0.154c0.103-0.1,0.202-0.205,0.292-0.314C69.927,10.32,62.141,4.039,54.922,6.168z"/>
<path fill="none" d="M63.903,16.808c0.203-0.059,0.401-0.127,0.598-0.207c0.167-0.071,0.328-0.152,0.485-0.242
	c-0.262-0.106-0.521-0.212-0.785-0.318C64.122,16.302,64.023,16.56,63.903,16.808z"/>
<path fill="none" d="M135.105,6.781c-0.157-0.09-0.319-0.171-0.487-0.242c-0.194-0.081-0.393-0.149-0.596-0.208
	c0.119,0.253,0.219,0.507,0.299,0.77C134.584,6.993,134.844,6.887,135.105,6.781z"/>
<path fill="none" d="M98.469,13.745c3.877,1.164,7.814,2.183,11.833,2.728c3.76,0.488,7.673,0.547,11.412-0.13
	c-0.133-0.12-0.256-0.246-0.372-0.381C107.35,18.674,95.975,2.076,76.599,8.45C82.631,7.878,92.557,11.97,98.469,13.745z"/>
<path fill="none" d="M125.499,14.889c1.301-1.73-0.49-2.828-2.194-3.095c-0.201-0.021-0.396-0.024-0.598-0.005
	c-0.161,0.027-0.316,0.067-0.472,0.124c-0.121,0.06-0.239,0.126-0.351,0.207c-0.789,0.658-0.829,1.711-0.472,2.616
	c0.111,0.244,0.246,0.474,0.407,0.69c0.174,0.217,0.37,0.412,0.588,0.586c0.071,0.055,0.145,0.104,0.219,0.152
	c0.729-0.155,1.454-0.333,2.17-0.531C125.052,15.401,125.289,15.155,125.499,14.889z"/>
<path fill="none" d="M76.173,9.211c-0.687,0.096-1.358,0.256-1.999,0.519c-0.407,0.178-0.795,0.396-1.152,0.663
	c-0.128,0.106-0.253,0.213-0.372,0.329c1.189-0.687,2.748-0.87,4.086-0.866c13.046,0.044,27.169,19.165,46.111,7.215
	c-0.116-0.054-0.229-0.111-0.338-0.171C102.479,21.112,88.517,7.789,76.173,9.211z"/>
<path fill="none" d="M126.834,7.142c0.021-0.169,0.027-0.337,0.012-0.509c-0.023-0.133-0.06-0.264-0.109-0.394
	c-0.068-0.146-0.15-0.283-0.246-0.415c-0.14-0.172-0.301-0.328-0.477-0.467c-0.713-0.522-1.62-0.819-2.504-0.726
	c-0.16,0.027-0.314,0.067-0.468,0.126c-0.096,0.044-0.187,0.098-0.273,0.16c-1.891,1.595,1.372,3.388,2.987,3.616
	c0.16,0.021,0.321,0.038,0.481,0.051c0.15-0.208,0.279-0.43,0.385-0.666C126.722,7.67,126.793,7.409,126.834,7.142z"/>
<path fill="none" d="M135.762,7.26c-0.132,0.051-0.265,0.103-0.395,0.154c-0.296,0.118-0.59,0.241-0.882,0.365
	c0.839,4.855-4.037,6.673-7.695,7.956c-0.544,0.193-1.093,0.369-1.646,0.528c-0.239,0.21-0.493,0.406-0.75,0.593
	c0.216,0.044,0.431,0.084,0.647,0.114c7.218,2.133,15.005-4.151,11.013-9.394C135.964,7.465,135.864,7.359,135.762,7.26z"/>
<path fill="none" d="M125.444,9.38c0.067-0.053,0.132-0.106,0.195-0.163c-0.347-0.048-0.69-0.114-1.03-0.2
	c-2.116-0.538-4.208-3.086-2.303-4.621c1.501-1.208,4.47-0.044,5.127,1.722c0.3,0.806,0.022,1.792-0.395,2.51
	c0.906,0.022,1.813-0.041,2.714-0.157c0.998-0.137,1.979-0.346,2.923-0.709c0.336-0.132,0.673-0.265,1.005-0.403
	c-0.047-0.152-0.1-0.303-0.161-0.456c-2.145-4.929-9.728-6.259-14.634-5.629c-6.19,0.868-6.804,5.457-3.922,8.012
	c1.849,1.636,5.308,2.439,9.093,0.885C124.548,9.96,125.016,9.702,125.444,9.38z"/>
<path fill="none" d="M128.481,9.293c-0.641,0.043-1.292,0.055-1.938,0.014c-0.389,0.432-0.861,0.791-1.359,1.08
	c-0.529,0.31-1.095,0.551-1.687,0.736c0.605,0.104,1.198,0.351,1.707,0.626c1.526,0.825,1.95,2.064,0.896,3.491
	c3.099-0.993,7.17-2.29,7.749-5.985c0.046-0.384,0.046-0.765,0.003-1.148c-0.003-0.021-0.007-0.038-0.008-0.055
	c-0.631,0.265-1.267,0.515-1.92,0.698C130.81,9.061,129.639,9.216,128.481,9.293z"/>
<path fill="none" d="M0.001,8.822c0.002,0.029,0.018,0.055,0.022,0.083V8.673C0.021,8.725-0.004,8.768,0.001,8.822z"/>
<path fill="#99CCCC" d="M136.833,6.132c-0.312,0.106-0.625,0.22-0.935,0.336c-0.684-0.51-1.516-0.802-2.356-0.975
	c-3.675-5.382-11.981-6.307-17.021-4.916c-5.346,1.478-7.387,5.592-2.912,9.261c1.999,1.644,5.38,1.987,7.9,1.698
	c-1.186,0.897-1.237,2.562-0.59,3.797c-0.205,0.036-0.408,0.07-0.615,0.098c-4.636,0.586-9.582-3.118-13.786-4.888
	c-9.245-3.903-20.854-6.789-30.746-2.792c-2.461,0.994-4.531,2.797-5.137,5.322c-0.41,0.329-0.695,0.811-0.74,1.339
	c-0.074,0.829,0.663,1.371,1.355,1.615c0.426,0.148,0.604-0.523,0.185-0.67c-0.046-0.018-0.094-0.032-0.139-0.052
	c-0.13-0.058-0.253-0.124-0.367-0.205c-0.066-0.056-0.128-0.116-0.186-0.181c-0.308-0.444-0.104-0.891,0.244-1.21
	c0.092-0.012,0.161-0.063,0.208-0.155c0.084-0.059,0.168-0.123,0.257-0.164c0.137-0.051,0.273-0.087,0.414-0.11
	c0.154-0.016,0.305-0.016,0.456,0.001c0.735,0.129,1.388,0.609,1.708,1.285c0.044,0.123,0.076,0.244,0.101,0.37
	c0.01,0.123,0.01,0.241-0.002,0.361c-0.022,0.11-0.048,0.215-0.087,0.322c-0.062,0.132-0.13,0.253-0.216,0.375
	c-0.137,0.169-0.29,0.317-0.459,0.456c-0.214,0.157-0.441,0.287-0.683,0.396c-0.328,0.128-0.664,0.214-1.011,0.265
	c-0.602,0.07-1.205,0.048-1.805-0.027c-1.203-0.169-2.374-0.521-3.514-0.939c2.977-3.77,0.226-8.775-4.913-10.423
	c-2.181-0.702-5.698-0.845-7.913,0.044c-0.88-0.582-1.808-1.09-2.751-1.562C31.61-8.06,17.752,12.372,5.061,12.501
	c-0.584-0.082-1.159-0.215-1.708-0.437c-0.308-0.135-0.599-0.294-0.871-0.496C2.28,11.404,1.946,10.99,1.656,10.58
	c0.657,0.15,1.35,0.045,1.938-0.33c0.829-0.529,1.507-1.433,1.323-2.466c-0.28-1.558-2.021-2.3-3.435-2.389
	C0.995,5.365,0.507,5.396,0.023,5.451v0.693C0.606,6.073,1.195,6.052,1.781,6.12c0.349,0.053,0.685,0.137,1.013,0.269
	c0.242,0.107,0.469,0.237,0.682,0.394c0.171,0.138,0.323,0.289,0.458,0.454C4.021,7.359,4.09,7.482,4.152,7.616
	c0.036,0.106,0.065,0.211,0.087,0.32c0.01,0.122,0.01,0.239,0.001,0.361c-0.024,0.127-0.056,0.247-0.103,0.37
	C3.819,9.343,3.165,9.824,2.431,9.954C2.279,9.969,2.129,9.969,1.977,9.955C1.833,9.93,1.695,9.894,1.56,9.842
	C0.981,9.578,0.418,8.939,0.851,8.314c0.058-0.065,0.12-0.123,0.186-0.18c0.114-0.08,0.237-0.147,0.367-0.207
	c0.044-0.017,0.092-0.034,0.14-0.051C1.962,7.73,1.782,7.058,1.358,7.206C0.71,7.434,0.052,7.935,0.023,8.673v0.233
	c0.05,0.361,0.208,0.695,0.443,0.973c0.54,2.626,2.664,4.491,5.186,5.512c9.892,3.992,21.501,1.109,30.745-2.796
	c4.206-1.77,9.152-5.474,13.788-4.887c0.205,0.027,0.412,0.062,0.617,0.097c-0.649,1.235-0.598,2.899,0.589,3.799
	c-2.522-0.289-5.903,0.053-7.902,1.696c-4.472,3.668-2.434,7.785,2.912,9.262c5.04,1.39,13.347,0.467,17.023-4.915
	c0.839-0.174,1.671-0.467,2.358-0.976c0.306,0.118,0.617,0.229,0.931,0.337c1.483,0.509,3.076,0.933,4.659,0.832
	c1.414-0.089,3.154-0.829,3.435-2.39c0.185-1.032-0.494-1.934-1.323-2.464c-0.529-0.34-1.148-0.458-1.747-0.367
	c0.297-0.43,0.652-0.876,0.865-1.048c0.271-0.2,0.561-0.362,0.87-0.497c0.547-0.222,1.121-0.354,1.707-0.437
	c12.691,0.129,26.55,20.562,45.716,8.295c0.941-0.472,1.873-0.981,2.753-1.562c2.215,0.889,5.732,0.745,7.913,0.047
	c5.139-1.651,7.889-6.656,4.913-10.425c1.142-0.416,2.311-0.768,3.514-0.941c0.003,0,0.009,0,0.012,0v-0.69
	C138.918,5.488,137.851,5.785,136.833,6.132z M4.055,13.409c-0.409-0.178-0.794-0.396-1.153-0.662
	c-0.129-0.104-0.252-0.214-0.372-0.328c1.188,0.685,2.75,0.87,4.086,0.867C19.663,13.24,33.786-5.881,52.728,6.071
	C52.612,6.122,52.499,6.18,52.39,6.24C32.36,2.026,18.4,15.35,6.054,13.93C5.371,13.832,4.695,13.672,4.055,13.409z M6.479,14.688
	c6.035,0.574,15.958-3.518,21.87-5.294c3.877-1.164,7.815-2.184,11.834-2.726c3.758-0.491,7.672-0.551,11.411,0.13
	c-0.133,0.116-0.256,0.245-0.373,0.383C37.231,4.467,25.854,21.064,6.479,14.688z M51.294,8.407
	c0.109-0.247,0.246-0.476,0.407-0.692c0.178-0.217,0.371-0.412,0.588-0.587c0.072-0.055,0.145-0.103,0.219-0.152
	c0.729,0.156,1.456,0.334,2.172,0.532c0.253,0.232,0.491,0.476,0.703,0.745c1.3,1.729-0.492,2.826-2.196,3.093
	c-0.198,0.021-0.396,0.024-0.598,0.005c-0.161-0.025-0.318-0.066-0.47-0.125c-0.125-0.057-0.239-0.123-0.352-0.204
	C50.978,10.365,50.939,9.309,51.294,8.407z M63.402,16.235c-2.145,4.929-9.728,6.26-14.636,5.629
	c-6.188-0.864-6.803-5.455-3.92-8.01c1.848-1.638,5.307-2.44,9.092-0.887c0.491,0.211,0.96,0.471,1.39,0.791
	c0.066,0.053,0.13,0.107,0.193,0.162c-0.347,0.048-0.69,0.114-1.03,0.2c-2.116,0.538-4.208,3.088-2.302,4.623
	c1.5,1.206,4.469,0.042,5.127-1.725c0.301-0.805,0.022-1.791-0.395-2.509c0.907-0.025,1.816,0.039,2.712,0.157
	c1,0.139,1.982,0.345,2.924,0.709c0.336,0.132,0.673,0.265,1.006,0.401C63.519,15.931,63.464,16.083,63.402,16.235z M55.637,14.606
	c0.161-0.021,0.321-0.039,0.482-0.053c0.15,0.21,0.28,0.431,0.385,0.666c0.103,0.253,0.171,0.51,0.21,0.776
	c0.022,0.171,0.029,0.34,0.014,0.511c-0.024,0.135-0.06,0.267-0.107,0.392c-0.068,0.146-0.15,0.285-0.246,0.417
	c-0.142,0.172-0.301,0.329-0.479,0.468c-0.709,0.523-1.619,0.82-2.504,0.723c-0.162-0.025-0.314-0.062-0.466-0.123
	c-0.098-0.046-0.188-0.099-0.275-0.16C50.761,16.63,54.022,14.834,55.637,14.606z M63.726,15.087
	c-0.629-0.264-1.265-0.517-1.919-0.696c-1.116-0.311-2.287-0.468-3.442-0.545c-0.641-0.041-1.293-0.053-1.938-0.014
	c-0.39-0.432-0.863-0.79-1.36-1.08c-0.53-0.309-1.095-0.549-1.685-0.736c0.604-0.103,1.196-0.351,1.706-0.625
	c1.528-0.827,1.95-2.066,0.896-3.491c3.099,0.992,7.169,2.288,7.749,5.983c0.044,0.384,0.044,0.764,0.003,1.149
	C63.73,15.053,63.727,15.069,63.726,15.087z M64.501,16.601c-0.197,0.08-0.395,0.148-0.598,0.207
	c0.12-0.248,0.219-0.506,0.299-0.768c0.263,0.106,0.523,0.212,0.785,0.318C64.83,16.448,64.669,16.529,64.501,16.601z
	 M65.645,15.878c-0.133-0.05-0.267-0.103-0.396-0.154c-0.295-0.114-0.588-0.239-0.882-0.363c0.839-4.854-4.037-6.671-7.695-7.957
	c-0.543-0.193-1.092-0.367-1.646-0.525c-0.239-0.21-0.494-0.408-0.749-0.594c0.214-0.046,0.429-0.085,0.646-0.116
	c7.219-2.129,15.005,4.152,11.015,9.396C65.846,15.673,65.747,15.778,65.645,15.878z M134.618,6.539
	c0.168,0.071,0.33,0.151,0.487,0.242c-0.262,0.106-0.521,0.212-0.784,0.32c-0.08-0.263-0.18-0.517-0.299-0.77
	C134.226,6.39,134.424,6.458,134.618,6.539z M133.853,8.107c0.043,0.384,0.043,0.765-0.003,1.148
	c-0.579,3.695-4.65,4.992-7.749,5.985c1.055-1.427,0.631-2.666-0.896-3.491c-0.509-0.275-1.102-0.522-1.707-0.626
	c0.592-0.185,1.157-0.426,1.687-0.736c0.498-0.29,0.971-0.648,1.359-1.08c0.646,0.041,1.297,0.029,1.938-0.014
	c1.157-0.077,2.328-0.232,3.443-0.542c0.653-0.183,1.289-0.433,1.92-0.698C133.846,8.069,133.85,8.086,133.853,8.107z
	 M125.756,8.533c-1.615-0.228-4.878-2.021-2.987-3.616c0.087-0.062,0.178-0.115,0.273-0.16c0.153-0.06,0.308-0.099,0.468-0.126
	c0.884-0.094,1.791,0.204,2.504,0.726c0.176,0.139,0.337,0.295,0.477,0.467c0.096,0.132,0.178,0.269,0.246,0.415
	c0.05,0.13,0.086,0.261,0.109,0.394c0.016,0.172,0.009,0.34-0.012,0.509c-0.041,0.267-0.112,0.529-0.212,0.777
	c-0.105,0.236-0.234,0.457-0.385,0.666C126.077,8.571,125.916,8.554,125.756,8.533z M114.964,9.286
	c-2.882-2.555-2.269-7.144,3.922-8.012c4.906-0.63,12.489,0.701,14.634,5.629c0.062,0.152,0.114,0.303,0.161,0.456
	c-0.332,0.138-0.669,0.271-1.005,0.403c-0.943,0.363-1.925,0.572-2.923,0.709c-0.9,0.116-1.808,0.18-2.714,0.157
	c0.417-0.718,0.694-1.705,0.395-2.51c-0.657-1.766-3.626-2.93-5.127-1.722c-1.905,1.535,0.187,4.083,2.303,4.621
	c0.34,0.085,0.684,0.152,1.03,0.2c-0.063,0.057-0.128,0.109-0.195,0.163c-0.429,0.322-0.896,0.58-1.388,0.791
	C120.271,11.725,116.812,10.922,114.964,9.286z M121.342,15.962c0.116,0.135,0.239,0.261,0.372,0.381
	c-3.739,0.677-7.652,0.618-11.412,0.13c-4.019-0.545-7.956-1.563-11.833-2.728c-5.912-1.775-15.838-5.867-21.87-5.295
	C95.975,2.076,107.35,18.674,121.342,15.962z M76.735,9.854c-1.338-0.003-2.896,0.179-4.086,0.866
	c0.119-0.115,0.244-0.223,0.372-0.329c0.357-0.267,0.745-0.485,1.152-0.663c0.641-0.262,1.312-0.423,1.999-0.519
	c12.344-1.422,26.307,11.901,46.336,7.688c0.109,0.06,0.222,0.117,0.338,0.171C103.904,29.02,89.781,9.899,76.735,9.854z
	 M122.627,16.163c-0.074-0.048-0.147-0.098-0.219-0.152c-0.218-0.174-0.414-0.369-0.588-0.586c-0.161-0.217-0.296-0.446-0.407-0.69
	c-0.357-0.904-0.317-1.958,0.472-2.616c0.111-0.08,0.229-0.147,0.351-0.207c0.155-0.057,0.311-0.097,0.472-0.124
	c0.201-0.019,0.396-0.015,0.598,0.005c1.704,0.267,3.495,1.365,2.194,3.095c-0.21,0.267-0.447,0.513-0.702,0.743
	C124.081,15.83,123.356,16.008,122.627,16.163z M125.041,16.97c-0.217-0.03-0.432-0.07-0.647-0.114
	c0.257-0.187,0.511-0.383,0.75-0.593c0.554-0.159,1.103-0.335,1.646-0.528c3.658-1.282,8.534-3.1,7.695-7.956
	c0.292-0.124,0.586-0.247,0.882-0.365c0.13-0.051,0.263-0.103,0.395-0.154c0.103,0.099,0.202,0.205,0.292,0.316
	C140.046,12.818,132.259,19.103,125.041,16.97z"/>
</svg>
