<?xml version="1.0" encoding="utf-8"?>
<!-- Generator: Adobe Illustrator 15.1.0, SVG Export Plug-In  -->
<!DOCTYPE svg PUBLIC "-//W3C//DTD SVG 1.1//EN" "http://www.w3.org/Graphics/SVG/1.1/DTD/svg11.dtd" [
	<!ENTITY ns_flows "http://ns.adobe.com/Flows/1.0/">
]>
<svg version="1.1"
	 xmlns="http://www.w3.org/2000/svg" xmlns:xlink="http://www.w3.org/1999/xlink" xmlns:a="http://ns.adobe.com/AdobeSVGViewerExtensions/3.0/"
	 x="0px" y="0px" width="230px" height="50px" viewBox="-6.963 -2.087 230 50"
	 overflow="visible" enable-background="new -6.963 -2.087 230 50" xml:space="preserve">
<defs>
</defs>
<radialGradient id="SVGID_1_" cx="111.1855" cy="17.501" r="17.188" gradientTransform="matrix(1.3205 0 0 1.3205 -40.1328 -0.4132)" gradientUnits="userSpaceOnUse">
	<stop  offset="0.8037" style="stop-color:#FFFFFF"/>
	<stop  offset="1" style="stop-color:#FFFFFF;stop-opacity:0"/>
</radialGradient>
<circle fill="url(#SVGID_1_)" cx="106.686" cy="22.696" r="22.697"/>
<radialGradient id="SVGID_2_" cx="-60.5503" cy="25.3389" r="34.3899" gradientTransform="matrix(-1 0 0 1 103.5996 0)" gradientUnits="userSpaceOnUse">
	<stop  offset="0.8344" style="stop-color:#FFFFFF"/>
	<stop  offset="1" style="stop-color:#FFFFFF;stop-opacity:0"/>
</radialGradient>
<path fill="url(#SVGID_2_)" d="M120.579,18.574c1.865,12.564,25.732,14.141,53.899,26.598c12.712,5.622,33.435-6.896,33.435-19.599
	S189.638,0.396,176.579,5.159C158.079,11.907,117.246-3.884,120.579,18.574z"/>
<radialGradient id="SVGID_3_" cx="185" cy="22.1123" r="21.833" gradientTransform="matrix(1.1956 0 0 1 -31.9117 0)" gradientUnits="userSpaceOnUse">
	<stop  offset="0.9018" style="stop-color:#FFFFFF"/>
	<stop  offset="1" style="stop-color:#FFFFFF;stop-opacity:0"/>
</radialGradient>
<ellipse fill="url(#SVGID_3_)" cx="189.27" cy="22.112" rx="26.103" ry="21.833"/>
<radialGradient id="SVGID_4_" cx="-57.5322" cy="25.3389" r="34.3899" gradientTransform="matrix(1 0 0 1 110.7002 0)" gradientUnits="userSpaceOnUse">
	<stop  offset="0.8344" style="stop-color:#FFFFFF"/>
	<stop  offset="1" style="stop-color:#FFFFFF;stop-opacity:0"/>
</radialGradient>
<path fill="url(#SVGID_4_)" d="M96.739,18.574c-1.865,12.564-25.732,14.141-53.899,26.598C30.127,50.794,9.405,38.275,9.405,25.574
	c0-12.703,18.275-25.178,31.334-20.415C59.239,11.907,100.072-3.884,96.739,18.574z"/>
<radialGradient id="SVGID_5_" cx="181.9805" cy="22.1123" r="21.833" gradientTransform="matrix(-1.2401 0 0 1 252.7529 0)" gradientUnits="userSpaceOnUse">
	<stop  offset="0.8834" style="stop-color:#FFFFFF"/>
	<stop  offset="1" style="stop-color:#FFFFFF;stop-opacity:0"/>
</radialGradient>
<ellipse fill="url(#SVGID_5_)" cx="27.075" cy="22.112" rx="27.075" ry="21.833"/>
<path fill-rule="evenodd" clip-rule="evenodd" fill="#586D77" d="M174.551,24.249c0.008,0.021,0.018,0.043,0.023,0.063
	C174.566,24.292,174.559,24.271,174.551,24.249 M173.326,18.158c-1.693,0.316-3.391,0.493-5.082,0.462
	c-5.025-0.15-9.287-2.226-13.621-4.816c-2.389-1.426-4.838-2.646-7.422-3.54c-5.107-1.766-10.752-2.384-16.193-1.089
	c-2.285,0.543-4.486,1.535-6.68,2.571l-0.172,0.877c1.871-0.885,3.742-1.753,5.668-2.36c2.557-0.772,5.166-1.024,7.734-0.979
	c3.561,0.091,7.045,0.814,10.381,2.054c1.279,0.484,2.533,1.043,3.76,1.673c5.758,2.961,9.578,6.227,16.67,6.371
	c1.758,0.036,3.527-0.172,5.289-0.522c0.025,0.576,0.145,1.116,0.332,1.615c-1.393,0.443-2.75,1.681-2.438,3.593
	c0.324,1.979,2.359,3.126,3.885,2.091c0.73-0.494,0.953-1.721,0.594-2.521c-0.312-0.697-1.162-1.03-1.771-0.562
	c-0.533,0.411-0.395,1.228-0.186,1.752c0.172,0.424,0.693-0.032,0.525-0.452c-0.006-0.017-0.014-0.032-0.02-0.049
	c-0.035-0.104-0.064-0.208-0.082-0.319c-0.004-0.048-0.006-0.095-0.006-0.145c0.004-0.022,0.008-0.046,0.014-0.067
	c0.004-0.016,0.01-0.029,0.018-0.043c0.008-0.011,0.016-0.022,0.023-0.033c0.014-0.014,0.029-0.027,0.045-0.039
	c0.027-0.014,0.055-0.027,0.084-0.038c0.053-0.013,0.107-0.02,0.162-0.021c0.074,0.006,0.148,0.021,0.219,0.044
	c0.078,0.032,0.15,0.075,0.223,0.126c0.057,0.052,0.109,0.108,0.156,0.173c0.035,0.056,0.066,0.116,0.094,0.178
	c0.021,0.067,0.037,0.134,0.051,0.205c0.01,0.113,0.01,0.225,0.004,0.34c-0.012,0.103-0.031,0.203-0.055,0.303
	c-0.027,0.076-0.059,0.147-0.094,0.219c-0.039,0.062-0.08,0.12-0.127,0.174c-0.057,0.06-0.119,0.113-0.186,0.159
	c-0.104,0.062-0.207,0.109-0.314,0.146c-0.188,0.051-0.375,0.072-0.561,0.072c-0.262-0.013-0.516-0.064-0.762-0.152
	c-0.193-0.077-0.375-0.176-0.547-0.305c-0.105-0.092-0.197-0.195-0.283-0.314c-0.152-0.228-0.285-0.469-0.391-0.735
	c-0.061-0.172-0.105-0.35-0.137-0.536c-0.014-0.146-0.018-0.289-0.008-0.438c0.014-0.129,0.039-0.254,0.074-0.38
	c0.047-0.143,0.105-0.277,0.176-0.41c0.094-0.155,0.199-0.299,0.312-0.432c0.172-0.178,0.355-0.331,0.549-0.464
	c0.275-0.175,0.562-0.306,0.857-0.402c0.066-0.019,0.133-0.036,0.199-0.051c0.529,1.005,1.326,1.818,2.121,2.411
	c0.492,0.367,1.021,0.627,1.572,0.781c-0.027,0.218-0.072,0.432-0.133,0.643c-0.09,0.279-0.207,0.543-0.344,0.795
	c-0.18,0.312-0.385,0.593-0.615,0.852c-0.283,0.304-0.59,0.564-0.918,0.785c-0.359,0.23-0.732,0.407-1.119,0.531
	c-0.492,0.144-0.975,0.181-1.469,0.172c-1.451-0.045-2.865-0.377-4.225-0.881c-2.307-0.882-4.453-2.237-6.441-3.847
	c-2.172-1.774-4.131-3.895-6.281-5.7c-2.32-1.949-4.154-3.006-7.135-3.655c-0.127-0.026-0.256-0.054-0.385-0.079
	c-2.098-0.407-4.26-0.435-6.393-0.029c-2.395-0.295-4.557,0.417-5.994,1.871c-7.074,7.142,6.551,16.117,9.83,7.531
	c0.49-1.281,0.623-2.816,0.023-3.957c-0.582-1.107-1.836-1.605-2.916-1.267c-1.201,0.375-1.926,2.031-1.826,3.44
	c0.053,0.713,0.316,1.364,0.762,1.786c0.58,0.552,1.369,0.621,2.109,0.481c0.395-0.075,0.379-0.833-0.016-0.759
	c-0.207,0.04-0.414,0.062-0.621,0.063c-0.527-0.026-0.941-0.182-1.287-0.654c-0.076-0.118-0.141-0.244-0.195-0.379
	c-0.057-0.165-0.1-0.337-0.127-0.516c-0.205-1.885,1.016-3.19,2.484-2.686c0.223,0.09,0.434,0.207,0.631,0.359
	c0.133,0.116,0.25,0.243,0.359,0.39c0.797,1.215,0.379,2.982-0.328,4.277c-0.201,0.345-0.426,0.662-0.678,0.951
	c-2.838,2.895-7.963,0.526-8.887-3.372c-0.881-3.718,2.094-8.16,7.877-6.33c3.523,1.115,7.268,4.807,14.191,11.683
	c6.312,6.268,17.799,13.764,27.953,11.808c6.25-1.204,13.51-6.839,14.242-16.033C201.773,1.733,171.25,2.003,173.326,18.158
	 M178.572,24.455c-0.238,1.796-1.523,3.241-2.859,3.911c-0.961,0.481-1.926,0.549-2.914,0.477c-1.324-0.096-2.611-0.419-3.855-0.887
	c-2.488-0.938-4.797-2.428-6.916-4.2c-2.168-1.812-4.139-3.947-6.322-5.734c-3.047-2.464-5.861-3.521-9.803-3.64
	c-0.441-0.009-0.883,0-1.324,0.025c0.416,0.146,0.834,0.322,1.25,0.529c11.867,5.897,16.062,16.622,34.246,17.508
	c14.33,0.698,16.07-9.367,11.744-15.818c-3.691-5.502-12.885-7.667-16.693-1.177c-0.238,0.438-0.441,0.893-0.602,1.378
	c-0.109,0.374-0.188,0.75-0.232,1.135c1.248-0.271,2.492-0.61,3.729-0.99c0.369-0.114,0.738-0.233,1.109-0.333
	c1.35-0.362,2.871-0.673,4.176-0.229C187.549,17.853,183.381,25.135,178.572,24.455 M178.605,23.695
	c-0.111-1.975-1.854-3.308-3.332-3.398c-0.197-0.012-0.412-0.003-0.631,0.028c-0.031-0.069-0.061-0.141-0.09-0.212
	c-0.111-0.321-0.195-0.65-0.248-1.001c-0.016-0.128-0.025-0.255-0.031-0.382c0.4-0.087,0.801-0.181,1.201-0.279
	c1.043-0.261,2.082-0.57,3.117-0.895c1.117-0.337,2.252-0.594,3.377-0.582c0.43,0.017,0.855,0.074,1.262,0.215
	c0.213,0.085,0.414,0.192,0.602,0.336c0.115,0.1,0.219,0.21,0.312,0.337c0.07,0.109,0.131,0.227,0.182,0.352
	c0.832,2.486-2.598,5.56-5.121,5.546C179.002,23.753,178.803,23.73,178.605,23.695 M175.033,21.05l0.035-0.001
	c0.295,0.013,0.58,0.063,0.857,0.16c0.342,0.139,0.664,0.344,0.963,0.581c0.23,0.194,0.443,0.415,0.629,0.674
	c0.121,0.184,0.229,0.382,0.312,0.598c0.053,0.15,0.094,0.307,0.125,0.466l-0.086-0.029c-0.49-0.194-0.947-0.471-1.373-0.811
	c-0.531-0.445-1.002-0.979-1.422-1.576L175.033,21.05z M173.82,17.141c2.025-8.926,15.674-9.235,20.611-1.517
	c4.537,7.093,1.727,18.681-13.822,17.997c-5.385-0.238-12.26-2.051-21.311-7.461c23.637,20.499,37.574,8.734,39.324-3.516
	c1.148-8.027-6.314-17.948-17.531-14.765c-3.65,1.153-6.955,3.762-7.361,7.771C173.701,16.048,173.758,16.619,173.82,17.141"/>
<path fill-rule="evenodd" clip-rule="evenodd" fill="#586D77" d="M174.551,24.249c0.008,0.021,0.018,0.043,0.023,0.063
	C174.566,24.292,174.559,24.271,174.551,24.249 M173.326,18.158c-1.693,0.316-3.391,0.493-5.082,0.462
	c-5.025-0.15-9.287-2.226-13.621-4.816c-2.389-1.426-4.838-2.646-7.422-3.54c-5.107-1.766-10.752-2.384-16.193-1.089
	c-2.285,0.543-4.486,1.535-6.68,2.571l-0.172,0.877c1.871-0.885,3.742-1.753,5.668-2.36c2.557-0.772,5.166-1.024,7.734-0.979
	c3.561,0.091,7.045,0.814,10.381,2.054c1.279,0.484,2.533,1.043,3.76,1.673c5.758,2.961,9.578,6.227,16.67,6.371
	c1.758,0.036,3.527-0.172,5.289-0.522c0.025,0.576,0.145,1.116,0.332,1.615c-1.393,0.443-2.75,1.681-2.438,3.593
	c0.324,1.979,2.359,3.126,3.885,2.091c0.73-0.494,0.953-1.721,0.594-2.521c-0.312-0.697-1.162-1.03-1.771-0.562
	c-0.533,0.411-0.395,1.228-0.186,1.752c0.172,0.424,0.693-0.032,0.525-0.452c-0.006-0.017-0.014-0.032-0.02-0.049
	c-0.035-0.104-0.064-0.208-0.082-0.319c-0.004-0.048-0.006-0.095-0.006-0.145c0.004-0.022,0.008-0.046,0.014-0.067
	c0.004-0.016,0.01-0.029,0.018-0.043c0.008-0.011,0.016-0.022,0.023-0.033c0.014-0.014,0.029-0.027,0.045-0.039
	c0.027-0.014,0.055-0.027,0.084-0.038c0.053-0.013,0.107-0.02,0.162-0.021c0.074,0.006,0.148,0.021,0.219,0.044
	c0.078,0.032,0.15,0.075,0.223,0.126c0.057,0.052,0.109,0.108,0.156,0.173c0.035,0.056,0.066,0.116,0.094,0.178
	c0.021,0.067,0.037,0.134,0.051,0.205c0.01,0.113,0.01,0.225,0.004,0.34c-0.012,0.103-0.031,0.203-0.055,0.303
	c-0.027,0.076-0.059,0.147-0.094,0.219c-0.039,0.062-0.08,0.12-0.127,0.174c-0.057,0.06-0.119,0.113-0.186,0.159
	c-0.104,0.062-0.207,0.109-0.314,0.146c-0.188,0.051-0.375,0.072-0.561,0.072c-0.262-0.013-0.516-0.064-0.762-0.152
	c-0.193-0.077-0.375-0.176-0.547-0.305c-0.105-0.092-0.197-0.195-0.283-0.314c-0.152-0.228-0.285-0.469-0.391-0.735
	c-0.061-0.172-0.105-0.35-0.137-0.536c-0.014-0.146-0.018-0.289-0.008-0.438c0.014-0.129,0.039-0.254,0.074-0.38
	c0.047-0.143,0.105-0.277,0.176-0.41c0.094-0.155,0.199-0.299,0.312-0.432c0.172-0.178,0.355-0.331,0.549-0.464
	c0.275-0.175,0.562-0.306,0.857-0.402c0.066-0.019,0.133-0.036,0.199-0.051c0.529,1.005,1.326,1.818,2.121,2.411
	c0.492,0.367,1.021,0.627,1.572,0.781c-0.027,0.218-0.072,0.432-0.133,0.643c-0.09,0.279-0.207,0.543-0.344,0.795
	c-0.18,0.312-0.385,0.593-0.615,0.852c-0.283,0.304-0.59,0.564-0.918,0.785c-0.359,0.23-0.732,0.407-1.119,0.531
	c-0.492,0.144-0.975,0.181-1.469,0.172c-1.451-0.045-2.865-0.377-4.225-0.881c-2.307-0.882-4.453-2.237-6.441-3.847
	c-2.172-1.774-4.131-3.895-6.281-5.7c-2.32-1.949-4.154-3.006-7.135-3.655c-0.127-0.026-0.256-0.054-0.385-0.079
	c-2.098-0.407-4.26-0.435-6.393-0.029c-2.395-0.295-4.557,0.417-5.994,1.871c-7.074,7.142,6.551,16.117,9.83,7.531
	c0.49-1.281,0.623-2.816,0.023-3.957c-0.582-1.107-1.836-1.605-2.916-1.267c-1.201,0.375-1.926,2.031-1.826,3.44
	c0.053,0.713,0.316,1.364,0.762,1.786c0.58,0.552,1.369,0.621,2.109,0.481c0.395-0.075,0.379-0.833-0.016-0.759
	c-0.207,0.04-0.414,0.062-0.621,0.063c-0.527-0.026-0.941-0.182-1.287-0.654c-0.076-0.118-0.141-0.244-0.195-0.379
	c-0.057-0.165-0.1-0.337-0.127-0.516c-0.205-1.885,1.016-3.19,2.484-2.686c0.223,0.09,0.434,0.207,0.631,0.359
	c0.133,0.116,0.25,0.243,0.359,0.39c0.797,1.215,0.379,2.982-0.328,4.277c-0.201,0.345-0.426,0.662-0.678,0.951
	c-2.838,2.895-7.963,0.526-8.887-3.372c-0.881-3.718,2.094-8.16,7.877-6.33c3.523,1.115,7.268,4.807,14.191,11.683
	c6.312,6.268,17.799,13.764,27.953,11.808c6.25-1.204,13.51-6.839,14.242-16.033C201.773,1.733,171.25,2.003,173.326,18.158
	 M178.572,24.455c-0.238,1.796-1.523,3.241-2.859,3.911c-0.961,0.481-1.926,0.549-2.914,0.477c-1.324-0.096-2.611-0.419-3.855-0.887
	c-2.488-0.938-4.797-2.428-6.916-4.2c-2.168-1.812-4.139-3.947-6.322-5.734c-3.047-2.464-5.861-3.521-9.803-3.64
	c-0.441-0.009-0.883,0-1.324,0.025c0.416,0.146,0.834,0.322,1.25,0.529c11.867,5.897,16.062,16.622,34.246,17.508
	c14.33,0.698,16.07-9.367,11.744-15.818c-3.691-5.502-12.885-7.667-16.693-1.177c-0.238,0.438-0.441,0.893-0.602,1.378
	c-0.109,0.374-0.188,0.75-0.232,1.135c1.248-0.271,2.492-0.61,3.729-0.99c0.369-0.114,0.738-0.233,1.109-0.333
	c1.35-0.362,2.871-0.673,4.176-0.229C187.549,17.853,183.381,25.135,178.572,24.455 M178.605,23.695
	c-0.111-1.975-1.854-3.308-3.332-3.398c-0.197-0.012-0.412-0.003-0.631,0.028c-0.031-0.069-0.061-0.141-0.09-0.212
	c-0.111-0.321-0.195-0.65-0.248-1.001c-0.016-0.128-0.025-0.255-0.031-0.382c0.4-0.087,0.801-0.181,1.201-0.279
	c1.043-0.261,2.082-0.57,3.117-0.895c1.117-0.337,2.252-0.594,3.377-0.582c0.43,0.017,0.855,0.074,1.262,0.215
	c0.213,0.085,0.414,0.192,0.602,0.336c0.115,0.1,0.219,0.21,0.312,0.337c0.07,0.109,0.131,0.227,0.182,0.352
	c0.832,2.486-2.598,5.56-5.121,5.546C179.002,23.753,178.803,23.73,178.605,23.695 M175.033,21.05l0.035-0.001
	c0.295,0.013,0.58,0.063,0.857,0.16c0.342,0.139,0.664,0.344,0.963,0.581c0.23,0.194,0.443,0.415,0.629,0.674
	c0.121,0.184,0.229,0.382,0.312,0.598c0.053,0.15,0.094,0.307,0.125,0.466l-0.086-0.029c-0.49-0.194-0.947-0.471-1.373-0.811
	c-0.531-0.445-1.002-0.979-1.422-1.576L175.033,21.05z M173.82,17.141c2.025-8.926,15.674-9.235,20.611-1.517
	c4.537,7.093,1.727,18.681-13.822,17.997c-5.385-0.238-12.26-2.051-21.311-7.461c23.637,20.499,37.574,8.734,39.324-3.516
	c1.148-8.027-6.314-17.948-17.531-14.765c-3.65,1.153-6.955,3.762-7.361,7.771C173.701,16.048,173.758,16.619,173.82,17.141"/>
<path fill-rule="evenodd" clip-rule="evenodd" fill="#586D77" d="M40.784,24.249c-0.008,0.021-0.015,0.042-0.023,0.064
	C40.768,24.292,40.776,24.271,40.784,24.249 M42.009,18.157c2.076-16.154-28.448-16.424-26.787,4.449
	c0.732,9.194,7.992,14.83,14.243,16.034c10.154,1.955,21.641-5.54,27.952-11.809c6.924-6.877,10.67-10.566,14.191-11.682
	c5.784-1.83,8.759,2.611,7.877,6.33c-0.924,3.896-6.049,6.266-8.886,3.371c-0.252-0.289-0.477-0.606-0.678-0.951
	c-0.706-1.294-1.123-3.063-0.328-4.277c0.109-0.146,0.227-0.273,0.359-0.389c0.198-0.154,0.408-0.271,0.633-0.361
	c1.467-0.504,2.688,0.801,2.482,2.688c-0.027,0.179-0.069,0.35-0.126,0.515c-0.055,0.135-0.119,0.261-0.194,0.379
	c-0.347,0.472-0.761,0.627-1.289,0.654c-0.207-0.001-0.413-0.023-0.62-0.063c-0.396-0.075-0.41,0.685-0.017,0.758
	c0.741,0.142,1.531,0.071,2.111-0.48c0.444-0.421,0.709-1.073,0.76-1.786c0.1-1.409-0.625-3.065-1.825-3.441
	c-1.079-0.338-2.335,0.16-2.917,1.269c-0.598,1.14-0.465,2.674,0.025,3.956c3.278,8.587,16.904-0.39,9.83-7.531
	c-1.439-1.455-3.6-2.166-5.995-1.871c-2.133-0.405-4.295-0.378-6.392,0.029c-0.13,0.024-0.258,0.052-0.386,0.08
	c-2.979,0.647-4.813,1.706-7.134,3.653c-2.151,1.808-4.11,3.927-6.281,5.701c-1.989,1.609-4.135,2.965-6.441,3.847
	c-1.36,0.505-2.774,0.836-4.226,0.882c-0.493,0.008-0.976-0.029-1.468-0.172c-0.385-0.125-0.76-0.303-1.12-0.531
	c-0.326-0.221-0.634-0.482-0.917-0.786c-0.229-0.258-0.436-0.54-0.616-0.851c-0.137-0.252-0.254-0.517-0.344-0.795
	c-0.06-0.213-0.105-0.426-0.131-0.644c0.549-0.154,1.08-0.414,1.573-0.782c0.794-0.592,1.59-1.404,2.12-2.411
	c0.066,0.017,0.132,0.033,0.199,0.053c0.295,0.096,0.581,0.227,0.857,0.401c0.194,0.134,0.377,0.285,0.548,0.465
	c0.115,0.133,0.22,0.274,0.315,0.432c0.068,0.131,0.127,0.267,0.175,0.41c0.035,0.126,0.059,0.251,0.074,0.38
	c0.009,0.147,0.006,0.292-0.009,0.437c-0.03,0.188-0.075,0.363-0.135,0.535c-0.106,0.268-0.239,0.509-0.391,0.737
	c-0.086,0.119-0.179,0.222-0.285,0.312c-0.171,0.13-0.353,0.229-0.545,0.307c-0.247,0.087-0.501,0.139-0.762,0.15
	c-0.187,0-0.374-0.021-0.56-0.07c-0.109-0.038-0.213-0.085-0.315-0.147c-0.066-0.047-0.128-0.099-0.187-0.159
	c-0.046-0.055-0.087-0.111-0.126-0.174c-0.036-0.071-0.065-0.143-0.092-0.218c-0.026-0.102-0.044-0.201-0.056-0.304
	c-0.006-0.114-0.007-0.228,0.004-0.34c0.013-0.07,0.029-0.139,0.051-0.204c0.027-0.063,0.058-0.122,0.092-0.179
	c0.048-0.063,0.101-0.121,0.159-0.173c0.07-0.051,0.143-0.093,0.22-0.127c0.073-0.021,0.145-0.037,0.22-0.044
	c0.054,0.003,0.108,0.009,0.163,0.022c0.028,0.011,0.056,0.023,0.082,0.038c0.016,0.013,0.031,0.025,0.046,0.039
	c0.008,0.012,0.016,0.021,0.024,0.033c0.006,0.015,0.012,0.028,0.017,0.042c0.005,0.023,0.01,0.045,0.013,0.069
	c0.001,0.048,0,0.096-0.005,0.143c-0.018,0.112-0.047,0.216-0.082,0.32c-0.007,0.016-0.013,0.033-0.019,0.049
	c-0.17,0.419,0.353,0.875,0.524,0.452c0.21-0.524,0.348-1.341-0.186-1.752c-0.608-0.468-1.458-0.134-1.771,0.562
	c-0.359,0.802-0.137,2.026,0.593,2.521c1.527,1.036,3.562-0.112,3.886-2.09c0.313-1.912-1.046-3.15-2.437-3.593
	c0.187-0.5,0.306-1.039,0.331-1.615c1.762,0.35,3.532,0.557,5.289,0.521c7.092-0.144,10.912-3.41,16.671-6.371
	c1.226-0.63,2.48-1.188,3.759-1.674c3.336-1.239,6.82-1.963,10.381-2.054c2.568-0.044,5.177,0.207,7.734,0.98
	c1.925,0.606,3.798,1.476,5.668,2.359l-0.17-0.876c-2.195-1.036-4.397-2.028-6.681-2.572c-5.442-1.294-11.087-0.676-16.194,1.09
	c-2.584,0.894-5.031,2.113-7.421,3.54c-4.335,2.591-8.596,4.665-13.621,4.816C45.399,18.652,43.702,18.475,42.009,18.157
	 M36.763,24.455c-4.808,0.68-8.976-6.602-4.733-8.045c1.306-0.444,2.827-0.133,4.176,0.229c0.372,0.1,0.74,0.219,1.109,0.333
	c1.237,0.38,2.482,0.72,3.729,0.99c-0.044-0.386-0.123-0.761-0.232-1.135c-0.16-0.486-0.363-0.94-0.602-1.378
	c-3.808-6.491-13.002-4.325-16.693,1.176c-4.326,6.451-2.586,16.518,11.745,15.819c18.184-0.886,22.379-11.61,34.245-17.507
	c0.417-0.208,0.835-0.385,1.25-0.53c-0.442-0.026-0.883-0.034-1.322-0.025c-3.944,0.118-6.758,1.176-9.805,3.64
	c-2.184,1.787-4.153,3.923-6.321,5.734c-2.121,1.772-4.428,3.264-6.916,4.199c-1.244,0.468-2.532,0.791-3.856,0.888
	c-0.988,0.071-1.953,0.004-2.915-0.478C38.286,27.697,37.003,26.251,36.763,24.455 M36.729,23.696
	c-0.197,0.035-0.396,0.056-0.598,0.063c-2.525,0.015-5.954-3.061-5.121-5.546c0.05-0.126,0.111-0.242,0.181-0.351
	c0.094-0.127,0.198-0.238,0.313-0.338c0.187-0.144,0.388-0.251,0.601-0.336c0.406-0.141,0.831-0.199,1.261-0.215
	c1.126-0.013,2.262,0.244,3.377,0.583c1.037,0.322,2.074,0.633,3.118,0.893c0.4,0.099,0.8,0.193,1.201,0.28
	c-0.006,0.128-0.016,0.255-0.03,0.383c-0.054,0.349-0.138,0.679-0.25,1c-0.029,0.072-0.058,0.142-0.089,0.211
	c-0.219-0.03-0.433-0.039-0.632-0.028C38.585,20.387,36.843,21.72,36.729,23.696 M40.302,21.05l-0.04,0.062
	c-0.42,0.597-0.891,1.131-1.422,1.577c-0.427,0.34-0.883,0.614-1.373,0.81l-0.086,0.03c0.031-0.16,0.071-0.316,0.124-0.466
	c0.086-0.217,0.191-0.414,0.313-0.599c0.186-0.259,0.398-0.479,0.629-0.674c0.299-0.237,0.62-0.441,0.963-0.582
	c0.277-0.096,0.563-0.146,0.857-0.159L40.302,21.05z M41.604,15.651c-0.406-4.01-3.71-6.618-7.361-7.771
	c-11.216-3.184-18.679,6.737-17.53,14.766c1.75,12.249,15.687,24.013,39.324,3.515c-9.052,5.41-15.926,7.223-21.31,7.46
	c-15.55,0.684-18.36-10.904-13.823-17.996c4.937-7.719,18.586-7.41,20.611,1.518C41.578,16.619,41.634,16.047,41.604,15.651"/>
<path fill-rule="evenodd" clip-rule="evenodd" fill="#F27623" d="M96.042,22.537l9.678-3.771l-5.83-8.185l7.787,6.361l4.384-9.398
	l-1.893,10.103l10.219-1.228l-9.682,3.766l5.844,8.179l-7.788-6.347l-4.383,9.395l1.888-10.113L96.042,22.537z M106.913,23.52
	l1.502-3.165l2.626,2.135l-1.967-2.74l3.32-1.312l-3.515,0.419l0.654-3.485l-1.521,3.217l-2.688-2.198l2.024,2.813l-3.332,1.329
	l3.515-0.449L106.913,23.52z"/>
<path fill="none" stroke="#F27623" stroke-width="0.22" d="M96.042,22.537l9.678-3.771l-5.83-8.185l7.787,6.361l4.384-9.398
	l-1.893,10.103l10.219-1.228l-9.682,3.766l5.844,8.179l-7.788-6.347l-4.383,9.395l1.888-10.113L96.042,22.537z M106.913,23.52
	l1.502-3.165l2.626,2.135l-1.967-2.74l3.32-1.312l-3.515,0.419l0.654-3.485l-1.521,3.217l-2.688-2.198l2.024,2.813l-3.332,1.329
	l3.515-0.449L106.913,23.52z"/>
</svg>
