<?xml version="1.0" encoding="utf-8"?>
<!-- Generator: Adobe Illustrator 17.1.0, SVG Export Plug-In . SVG Version: 6.00 Build 0)  -->
<!DOCTYPE svg PUBLIC "-//W3C//DTD SVG 1.1//EN" "http://www.w3.org/Graphics/SVG/1.1/DTD/svg11.dtd">
<svg version="1.1" xmlns="http://www.w3.org/2000/svg" xmlns:xlink="http://www.w3.org/1999/xlink" x="0px" y="0px" width="156px"
	 height="26px" viewBox="0 0 156 26" enable-background="new 0 0 156 26" xml:space="preserve">
<g id="blocker">
	<rect y="0" fill-rule="evenodd" clip-rule="evenodd" fill="#FFFFFF" width="156" height="24.9"/>
</g>
<g id="guts">
	<path id="right_1_" fill-rule="evenodd" clip-rule="evenodd" fill="#586C76" d="M130.3,14.2C130.3,14.2,130.3,14.2,130.3,14.2
		C130.3,14.2,130.3,14.2,130.3,14.2L130.3,14.2z M129.4,9.4c-1.3,0.2-2.7,0.4-4,0.4c-3.9-0.1-7.3-1.7-10.7-3.8
		c-1.9-1.1-3.8-2.1-5.8-2.8c-4-1.4-8.4-1.9-12.7-0.9c-1.8,0.4-3.5,1.2-5.2,2l-0.1,0.7c1.5-0.7,2.9-1.4,4.4-1.8c2-0.6,4-0.8,6-0.8
		c2.8,0.1,5.5,0.6,8.1,1.6c1,0.4,2,0.8,2.9,1.3c4.5,2.3,7.5,4.9,13,5c1.4,0,2.8-0.1,4.1-0.4c0,0.5,0.1,0.9,0.3,1.3
		c-1.1,0.3-2.2,1.3-1.9,2.8c0.3,1.5,1.8,2.4,3,1.6c0.6-0.4,0.7-1.3,0.5-2c-0.2-0.5-0.9-0.8-1.4-0.4c-0.4,0.3-0.3,1-0.1,1.4
		c0.1,0.3,0.5,0,0.4-0.4c0,0,0,0,0,0c0-0.1,0-0.2-0.1-0.2c0,0,0-0.1,0-0.1c0,0,0,0,0-0.1c0,0,0,0,0,0c0,0,0,0,0,0c0,0,0,0,0,0
		c0,0,0,0,0.1,0c0,0,0.1,0,0.1,0c0.1,0,0.1,0,0.2,0c0.1,0,0.1,0.1,0.2,0.1c0,0,0.1,0.1,0.1,0.1c0,0,0.1,0.1,0.1,0.1
		c0,0.1,0,0.1,0,0.2c0,0.1,0,0.2,0,0.3c0,0.1,0,0.2,0,0.2c0,0.1,0,0.1-0.1,0.2c0,0-0.1,0.1-0.1,0.1c0,0-0.1,0.1-0.1,0.1
		c-0.1,0-0.2,0.1-0.2,0.1c-0.1,0-0.3,0.1-0.4,0.1c-0.2,0-0.4-0.1-0.6-0.1c-0.2-0.1-0.3-0.1-0.4-0.2c-0.1-0.1-0.2-0.2-0.2-0.2
		c-0.1-0.2-0.2-0.4-0.3-0.6c0-0.1-0.1-0.3-0.1-0.4c0-0.1,0-0.2,0-0.3c0-0.1,0-0.2,0.1-0.3c0-0.1,0.1-0.2,0.1-0.3
		c0.1-0.1,0.2-0.2,0.2-0.3c0.1-0.1,0.3-0.3,0.4-0.4c0.2-0.1,0.4-0.2,0.7-0.3c0.1,0,0.1,0,0.2,0c0.4,0.8,1,1.4,1.7,1.9
		c0.4,0.3,0.8,0.5,1.2,0.6c0,0.2-0.1,0.3-0.1,0.5c-0.1,0.2-0.2,0.4-0.3,0.6c-0.1,0.2-0.3,0.5-0.5,0.7c-0.2,0.2-0.5,0.4-0.7,0.6
		c-0.3,0.2-0.6,0.3-0.9,0.4c-0.4,0.1-0.8,0.1-1.1,0.1c-1.1,0-2.2-0.3-3.3-0.7c-1.8-0.7-3.5-1.8-5-3c-1.7-1.4-3.2-3-4.9-4.5
		c-1.8-1.5-3.2-2.4-5.6-2.9c-0.1,0-0.2,0-0.3-0.1c-1.6-0.3-3.3-0.3-5,0c-1.9-0.2-3.6,0.3-4.7,1.5c-5.5,5.6,5.1,12.6,7.7,5.9
		c0.4-1,0.5-2.2,0-3.1c-0.5-0.9-1.4-1.3-2.3-1c-0.9,0.3-1.5,1.6-1.4,2.7c0,0.6,0.2,1.1,0.6,1.4c0.5,0.4,1.1,0.5,1.7,0.4
		c0.3-0.1,0.3-0.7,0-0.6c-0.2,0-0.3,0-0.5,0c-0.4,0-0.7-0.1-1-0.5c-0.1-0.1-0.1-0.2-0.2-0.3c0-0.1-0.1-0.3-0.1-0.4
		c-0.2-1.5,0.8-2.5,1.9-2.1c0.2,0.1,0.3,0.2,0.5,0.3c0.1,0.1,0.2,0.2,0.3,0.3c0.6,1,0.3,2.3-0.3,3.3c-0.2,0.3-0.3,0.5-0.5,0.7
		c-2.2,2.3-6.2,0.4-7-2.6c-0.7-2.9,1.6-6.4,6.2-5c2.8,0.9,5.7,3.8,11.1,9.1c4.9,4.9,13.9,10.8,21.9,9.2c4.9-0.9,10.6-5.3,11.1-12.5
		C151.6-3.4,127.7-3.2,129.4,9.4L129.4,9.4z M133.5,14.4c-0.2,1.4-1.2,2.5-2.2,3.1c-0.8,0.4-1.5,0.4-2.3,0.4c-1-0.1-2-0.3-3-0.7
		c-1.9-0.7-3.8-1.9-5.4-3.3c-1.7-1.4-3.2-3.1-4.9-4.5c-2.4-1.9-4.6-2.8-7.7-2.8c-0.3,0-0.7,0-1,0c0.3,0.1,0.7,0.3,1,0.4
		c9.3,4.6,12.6,13,26.8,13.7c11.2,0.5,12.6-7.3,9.2-12.4c-2.9-4.3-10.1-6-13.1-0.9c-0.2,0.3-0.3,0.7-0.5,1.1
		c-0.1,0.3-0.1,0.6-0.2,0.9c1-0.2,1.9-0.5,2.9-0.8c0.3-0.1,0.6-0.2,0.9-0.3c1.1-0.3,2.2-0.5,3.3-0.2
		C140.5,9.2,137.2,14.9,133.5,14.4L133.5,14.4z M133.5,13.8c-0.1-1.5-1.5-2.6-2.6-2.7c-0.2,0-0.3,0-0.5,0c0-0.1,0-0.1-0.1-0.2
		c-0.1-0.3-0.2-0.5-0.2-0.8c0-0.1,0-0.2,0-0.3c0.3-0.1,0.6-0.1,0.9-0.2c0.8-0.2,1.6-0.4,2.4-0.7c0.9-0.3,1.8-0.5,2.6-0.5
		c0.3,0,0.7,0.1,1,0.2c0.2,0.1,0.3,0.2,0.5,0.3c0.1,0.1,0.2,0.2,0.2,0.3c0.1,0.1,0.1,0.2,0.1,0.3c0.7,1.9-2,4.3-4,4.3
		C133.8,13.8,133.6,13.8,133.5,13.8L133.5,13.8z M130.7,11.7L130.7,11.7c0.3,0,0.5,0,0.7,0.1c0.3,0.1,0.5,0.3,0.8,0.5
		c0.2,0.2,0.3,0.3,0.5,0.5c0.1,0.1,0.2,0.3,0.2,0.5c0,0.1,0.1,0.2,0.1,0.4l-0.1,0c-0.4-0.2-0.7-0.4-1.1-0.6
		C131.4,12.6,131.1,12.2,130.7,11.7L130.7,11.7L130.7,11.7z M129.7,8.6c1.6-7,12.3-7.2,16.1-1.2c3.5,5.5,1.4,14.6-10.8,14.1
		c-4.2-0.2-9.6-1.6-16.7-5.8c18.5,16,29.4,6.8,30.8-2.7c0.9-6.3-4.9-14-13.7-11.5c-2.9,0.9-5.4,2.9-5.8,6.1
		C129.6,7.8,129.7,8.2,129.7,8.6z"/>
	<path id="left_1_" fill-rule="evenodd" clip-rule="evenodd" fill="#586C76" d="M25.7,14.2C25.7,14.2,25.7,14.2,25.7,14.2
		C25.7,14.2,25.7,14.2,25.7,14.2L25.7,14.2z M26.6,9.4c1.6-12.6-22.3-12.8-21,3.5c0.6,7.2,6.3,11.6,11.1,12.5
		c7.9,1.5,16.9-4.3,21.9-9.2C44.1,10.8,47,8,49.8,7.1c4.5-1.4,6.9,2,6.2,5c-0.7,3-4.7,4.9-7,2.6c-0.2-0.2-0.4-0.5-0.5-0.7
		c-0.6-1-0.9-2.4-0.3-3.3c0.1-0.1,0.2-0.2,0.3-0.3c0.2-0.1,0.3-0.2,0.5-0.3c1.1-0.4,2.1,0.6,1.9,2.1c0,0.1-0.1,0.3-0.1,0.4
		c0,0.1-0.1,0.2-0.2,0.3c-0.3,0.4-0.6,0.5-1,0.5c-0.2,0-0.3,0-0.5,0c-0.3-0.1-0.3,0.5,0,0.6c0.6,0.1,1.2,0.1,1.7-0.4
		c0.3-0.3,0.6-0.8,0.6-1.4c0.1-1.1-0.5-2.4-1.4-2.7c-0.8-0.3-1.8,0.1-2.3,1c-0.5,0.9-0.4,2.1,0,3.1c2.6,6.7,13.2-0.3,7.7-5.9
		c-1.1-1.1-2.8-1.7-4.7-1.5c-1.7-0.3-3.4-0.3-5,0c-0.1,0-0.2,0-0.3,0.1c-2.3,0.5-3.8,1.3-5.6,2.9c-1.7,1.4-3.2,3.1-4.9,4.5
		c-1.6,1.3-3.2,2.3-5,3c-1.1,0.4-2.2,0.7-3.3,0.7c-0.4,0-0.8,0-1.1-0.1c-0.3-0.1-0.6-0.2-0.9-0.4c-0.3-0.2-0.5-0.4-0.7-0.6
		c-0.2-0.2-0.3-0.4-0.5-0.7c-0.1-0.2-0.2-0.4-0.3-0.6c0-0.2-0.1-0.3-0.1-0.5c0.4-0.1,0.8-0.3,1.2-0.6c0.6-0.5,1.2-1.1,1.7-1.9
		c0.1,0,0.1,0,0.2,0c0.2,0.1,0.5,0.2,0.7,0.3c0.2,0.1,0.3,0.2,0.4,0.4c0.1,0.1,0.2,0.2,0.2,0.3c0.1,0.1,0.1,0.2,0.1,0.3
		c0,0.1,0,0.2,0.1,0.3c0,0.1,0,0.2,0,0.3c0,0.1-0.1,0.3-0.1,0.4c-0.1,0.2-0.2,0.4-0.3,0.6C27.1,14.9,27,15,26.9,15
		c-0.1,0.1-0.3,0.2-0.4,0.2c-0.2,0.1-0.4,0.1-0.6,0.1c-0.1,0-0.3,0-0.4-0.1c-0.1,0-0.2-0.1-0.2-0.1c-0.1,0-0.1-0.1-0.1-0.1
		c0,0-0.1-0.1-0.1-0.1c0-0.1-0.1-0.1-0.1-0.2c0-0.1,0-0.2,0-0.2c0-0.1,0-0.2,0-0.3c0-0.1,0-0.1,0-0.2c0,0,0-0.1,0.1-0.1
		c0-0.1,0.1-0.1,0.1-0.1c0.1,0,0.1-0.1,0.2-0.1c0.1,0,0.1,0,0.2,0c0,0,0.1,0,0.1,0c0,0,0,0,0.1,0c0,0,0,0,0,0c0,0,0,0,0,0
		c0,0,0,0,0,0c0,0,0,0,0,0.1c0,0,0,0.1,0,0.1c0,0.1,0,0.2-0.1,0.2c0,0,0,0,0,0c-0.1,0.3,0.3,0.7,0.4,0.4c0.2-0.4,0.3-1-0.1-1.4
		c-0.5-0.4-1.1-0.1-1.4,0.4c-0.3,0.6-0.1,1.6,0.5,2c1.2,0.8,2.8-0.1,3-1.6c0.2-1.5-0.8-2.5-1.9-2.8c0.1-0.4,0.2-0.8,0.3-1.3
		c1.4,0.3,2.8,0.4,4.1,0.4c5.5-0.1,8.5-2.7,13-5c1-0.5,1.9-0.9,2.9-1.3c2.6-1,5.3-1.5,8.1-1.6c2,0,4,0.2,6,0.8
		c1.5,0.5,3,1.2,4.4,1.8L65,4.4c-1.7-0.8-3.4-1.6-5.2-2c-4.3-1-8.7-0.5-12.7,0.9c-2,0.7-3.9,1.7-5.8,2.8c-3.4,2-6.7,3.6-10.7,3.8
		C29.3,9.8,28,9.7,26.6,9.4L26.6,9.4z M22.5,14.4c-3.8,0.5-7-5.2-3.7-6.3c1-0.3,2.2-0.1,3.3,0.2c0.3,0.1,0.6,0.2,0.9,0.3
		c1,0.3,1.9,0.6,2.9,0.8c0-0.3-0.1-0.6-0.2-0.9c-0.1-0.4-0.3-0.7-0.5-1.1c-3-5.1-10.2-3.4-13.1,0.9c-3.4,5-2,12.9,9.2,12.4
		c14.2-0.7,17.5-9.1,26.8-13.7c0.3-0.2,0.7-0.3,1-0.4c-0.3,0-0.7,0-1,0c-3.1,0.1-5.3,0.9-7.7,2.8c-1.7,1.4-3.2,3.1-4.9,4.5
		c-1.7,1.4-3.5,2.6-5.4,3.3c-1,0.4-2,0.6-3,0.7c-0.8,0.1-1.5,0-2.3-0.4C23.7,16.9,22.7,15.8,22.5,14.4L22.5,14.4z M22.5,13.8
		c-0.2,0-0.3,0-0.5,0.1c-2,0-4.7-2.4-4-4.3c0-0.1,0.1-0.2,0.1-0.3c0.1-0.1,0.2-0.2,0.2-0.3c0.1-0.1,0.3-0.2,0.5-0.3
		c0.3-0.1,0.6-0.2,1-0.2c0.9,0,1.8,0.2,2.6,0.5c0.8,0.3,1.6,0.5,2.4,0.7c0.3,0.1,0.6,0.2,0.9,0.2c0,0.1,0,0.2,0,0.3
		c0,0.3-0.1,0.5-0.2,0.8c0,0.1,0,0.1-0.1,0.2c-0.2,0-0.3,0-0.5,0C24,11.2,22.6,12.2,22.5,13.8L22.5,13.8z M25.3,11.7L25.3,11.7
		c-0.4,0.5-0.7,0.9-1.1,1.3c-0.3,0.3-0.7,0.5-1.1,0.6l-0.1,0c0-0.1,0.1-0.2,0.1-0.4c0.1-0.2,0.1-0.3,0.2-0.5
		c0.1-0.2,0.3-0.4,0.5-0.5c0.2-0.2,0.5-0.3,0.8-0.5C24.8,11.8,25.1,11.7,25.3,11.7L25.3,11.7L25.3,11.7z M26.3,7.5
		c-0.3-3.1-2.9-5.2-5.8-6.1C11.8-1.1,6,6.7,6.9,13c1.4,9.6,12.3,18.8,30.8,2.7c-7.1,4.2-12.5,5.6-16.7,5.8C8.8,22.1,6.6,13,10.1,7.5
		c3.9-6,14.5-5.8,16.1,1.2C26.3,8.2,26.4,7.8,26.3,7.5z"/>
	<path id="star_1_" fill-rule="evenodd" clip-rule="evenodd" fill="#F17523" stroke="#F17523" stroke-width="0.2196" d="M68.9,12.9
		l7.6-2.9l-4.6-6.4l6.1,5l3.4-7.4L80,9l8-1L80.4,11l4.6,6.4l-6.1-5l-3.4,7.3l1.5-7.9L68.9,12.9z M77.4,13.6l1.2-2.5l2.1,1.7
		l-1.5-2.1l2.6-1L78.9,10l0.5-2.7l-1.2,2.5l-2.1-1.7l1.6,2.2l-2.6,1l2.7-0.4L77.4,13.6z"/>
	<g>
	</g>
	<g>
	</g>
	<g>
	</g>
	<g>
	</g>
	<g>
	</g>
	<g>
	</g>
</g>
</svg>
