<?xml version="1.0" encoding="utf-8"?>
<!-- Generator: Adobe Illustrator 18.1.1, SVG Export Plug-In . SVG Version: 6.00 Build 0)  -->
<!DOCTYPE svg PUBLIC "-//W3C//DTD SVG 1.1//EN" "http://www.w3.org/Graphics/SVG/1.1/DTD/svg11.dtd">
<svg version="1.1" id="top-flourish" xmlns="http://www.w3.org/2000/svg" xmlns:xlink="http://www.w3.org/1999/xlink" x="0px"
	 y="0px" viewBox="0 0 153.9979 32.0035" enable-background="new 0 0 153.9979 32.0035" xml:space="preserve">
<g id="top-flourish-stroke">
	<path fill-rule="evenodd" clip-rule="evenodd" fill="#576C76" stroke="#FFFFFF" stroke-width="6" stroke-linejoin="round" d="
		M130.4985,17.2375c0.0066,0.0171,0.0132,0.0341,0.0189,0.051C130.5108,17.2715,130.5051,17.2546,130.4985,17.2375L130.4985,17.2375
		z M129.519,12.3641c-1.3544,0.2538-2.7115,0.3958-4.0657,0.3699c-4.02-0.1203-7.4282-1.7801-10.8959-3.8524
		c-1.9111-1.1413-3.8688-2.1173-5.9357-2.8322c-4.0849-1.413-8.6006-1.9071-12.9533-0.8715
		c-1.8274,0.4348-3.5886,1.2284-5.3438,2.0569l-0.1363,0.7014c1.4958-0.7073,2.9936-1.4026,4.5336-1.8874
		c2.0452-0.619,4.1325-0.8199,6.1865-0.7846c2.8484,0.0727,5.6352,0.6519,8.3042,1.6432c1.0226,0.388,2.0257,0.8347,3.0067,1.339
		c4.6063,2.3684,7.6618,4.9812,13.3346,5.0967c1.4059,0.0283,2.8217-0.1379,4.2309-0.4179c0.0203,0.4611,0.1148,0.8925,0.265,1.2924
		c-1.1128,0.3543-2.1997,1.3448-1.9493,2.874c0.2589,1.5831,1.8864,2.5009,3.1077,1.6721c0.584-0.3955,0.7619-1.3757,0.4747-2.0162
		c-0.2502-0.5572-0.9306-0.8241-1.4167-0.4502c-0.427,0.3291-0.317,0.9824-0.149,1.4016c0.1368,0.3388,0.5553-0.0258,0.4198-0.3616
		c-0.0047-0.0126-0.0103-0.0259-0.0158-0.0391c-0.028-0.0829-0.0505-0.1666-0.0656-0.2556
		c-0.0034-0.0381-0.0041-0.076-0.0038-0.1147c0.0027-0.0188,0.0063-0.0371,0.0107-0.0551c0.004-0.0114,0.0089-0.0226,0.0138-0.0338
		c0.0063-0.0092,0.0125-0.0178,0.0187-0.0265c0.0121-0.0112,0.024-0.0215,0.0367-0.0312c0.0212-0.0117,0.0439-0.0221,0.0663-0.0308
		c0.0435-0.0105,0.0868-0.0155,0.1304-0.0174c0.0594,0.0052,0.1174,0.017,0.1752,0.0349c0.0623,0.027,0.1206,0.0608,0.1766,0.1014
		c0.046,0.0414,0.0885,0.087,0.1272,0.1382c0.0273,0.045,0.0514,0.0924,0.0732,0.1426c0.0176,0.053,0.0305,0.1073,0.0411,0.1638
		c0.0086,0.09,0.0082,0.18,0.003,0.2717c-0.0096,0.0819-0.0244,0.1624-0.0445,0.2427c-0.0216,0.0602-0.0454,0.1178-0.0735,0.1744
		c-0.0312,0.0493-0.0645,0.0956-0.101,0.1394c-0.0471,0.0476-0.0967,0.0898-0.1499,0.1272
		c-0.0817,0.0494-0.1647,0.0873-0.2516,0.1173c-0.1493,0.0403-0.2985,0.0573-0.448,0.0575
		c-0.2088-0.0099-0.4125-0.0514-0.6096-0.1212c-0.1536-0.0623-0.2995-0.1411-0.4362-0.2447
		c-0.0848-0.0732-0.1589-0.1556-0.2278-0.2506c-0.1212-0.1826-0.2278-0.3758-0.3125-0.5891
		c-0.048-0.1377-0.0845-0.279-0.1085-0.4287c-0.0117-0.1158-0.0145-0.2312-0.0068-0.3495c0.0119-0.1031,0.0314-0.2033,0.059-0.3038
		c0.0385-0.1146,0.0857-0.223,0.1403-0.3281c0.0757-0.1254,0.16-0.2392,0.2518-0.3456c0.1367-0.1428,0.283-0.2648,0.4379-0.3712
		c0.2209-0.1399,0.4502-0.2449,0.6858-0.3216c0.0534-0.0153,0.1065-0.0288,0.1593-0.0411c0.4237,0.8044,1.0603,1.4547,1.6959,1.9287
		c0.3941,0.2941,0.8185,0.5019,1.2584,0.6252c-0.0213,0.1743-0.0572,0.3452-0.1053,0.5142
		c-0.0722,0.2234-0.1655,0.4345-0.2749,0.6361c-0.1438,0.2486-0.3094,0.4745-0.4926,0.6808
		c-0.2265,0.2434-0.4725,0.4523-0.7338,0.6289c-0.2879,0.1836-0.5874,0.325-0.8959,0.4249
		c-0.3933,0.1141-0.7801,0.1438-1.1743,0.1375c-1.1611-0.0366-2.2923-0.3015-3.3803-0.7053c-1.8446-0.705-3.5612-1.79-5.1522-3.0772
		c-1.7364-1.4195-3.3037-3.1151-5.0243-4.5603c-1.8561-1.559-3.3229-2.4049-5.7063-2.9236c-0.102-0.0221-0.205-0.0435-0.3083-0.0635
		c-1.6777-0.3262-3.4075-0.3476-5.1134-0.0235c-1.9159-0.236-3.6442,0.333-4.7953,1.4965
		c-5.6583,5.7135,5.241,12.8947,7.8632,6.0252c0.3921-1.0255,0.4982-2.253,0.0197-3.1649c-0.4653-0.8868-1.4697-1.2852-2.333-1.0143
		c-0.9601,0.3007-1.54,1.6253-1.46,2.7525c0.0404,0.5704,0.2526,1.0918,0.6076,1.4293c0.4646,0.4412,1.0959,0.4973,1.6889,0.3846
		c0.3143-0.0596,0.3033-0.6662-0.0136-0.6067c-0.1656,0.0318-0.3303,0.0498-0.4963,0.0508
		c-0.4218-0.0217-0.7535-0.1456-1.0304-0.5237c-0.06-0.0945-0.1116-0.1951-0.1554-0.3032c-0.0455-0.1318-0.0793-0.2685-0.101-0.412
		c-0.1644-1.5085,0.8123-2.5527,1.9859-2.1493c0.1795,0.0727,0.3479,0.1658,0.506,0.2884c0.1054,0.0925,0.2,0.1947,0.2872,0.3112
		c0.6362,0.9718,0.3027,2.3866-0.2625,3.4222c-0.1607,0.2755-0.3407,0.5297-0.5424,0.7608
		c-2.2695,2.3154-6.3689,0.4208-7.1077-2.697c-0.7054-2.9748,1.6741-6.5282,6.3003-5.064
		c2.8171,0.8918,5.8128,3.8443,11.3514,9.3456c5.0486,5.0141,14.237,11.011,22.3585,9.4463
		c5.0007-0.9633,10.8075-5.4715,11.3931-12.827C152.2742-0.7751,127.8586-0.5594,129.519,12.3641L129.519,12.3641z
		 M133.7154,17.4022c-0.1919,1.4369-1.2183,2.5936-2.287,3.1286c-0.7694,0.3855-1.5418,0.439-2.3315,0.3819
		c-1.0595-0.0772-2.0893-0.3355-3.0848-0.7101c-1.9901-0.749-3.8354-1.9415-5.5323-3.3596
		c-1.7342-1.4493-3.3089-3.158-5.0559-4.5876c-2.4371-1.971-4.6884-2.8172-7.8425-2.9115
		c-0.3517-0.0071-0.7043-0.0004-1.0577,0.0201c0.3321,0.1172,0.666,0.2578,0.9994,0.424
		c9.4919,4.7177,12.8478,13.2971,27.3928,14.0059c11.4631,0.5583,12.8553-7.4944,9.3943-12.6552
		c-2.952-4.4012-10.3066-6.1336-13.3524-0.9409c-0.1915,0.3501-0.3531,0.7137-0.4817,1.1022
		c-0.087,0.2993-0.1499,0.5997-0.1855,0.908c0.9978-0.2168,1.9937-0.4885,2.9831-0.7921c0.2953-0.0917,0.5894-0.1867,0.8868-0.2663
		c1.0795-0.2897,2.2961-0.5382,3.3404-0.1834C140.8948,12.1208,137.5612,17.9462,133.7154,17.4022L133.7154,17.4022z
		 M133.7425,16.7948c-0.091-1.5802-1.4843-2.6465-2.6654-2.7194c-0.1594-0.0094-0.3302-0.002-0.5052,0.0225
		c-0.0253-0.0554-0.0485-0.1117-0.0716-0.1689c-0.0897-0.2571-0.1564-0.5209-0.1994-0.8004
		c-0.0116-0.1023-0.0198-0.2038-0.0243-0.306c0.3207-0.0697,0.6406-0.1448,0.9605-0.224c0.8348-0.208,1.6649-0.4561,2.4943-0.7146
		c0.892-0.2703,1.8002-0.4757,2.7009-0.4663c0.3443,0.0129,0.6838,0.0595,1.0087,0.1722c0.1705,0.0678,0.3313,0.154,0.481,0.2687
		c0.0917,0.0795,0.1753,0.1683,0.2502,0.2698c0.056,0.0874,0.1045,0.1806,0.1445,0.2808c0.6665,1.9885-2.076,4.4484-4.096,4.4372
		C134.0589,16.8401,133.9001,16.8228,133.7425,16.7948L133.7425,16.7948z M130.8843,14.678l0.028-0.0004
		c0.235,0.0097,0.464,0.0505,0.6859,0.1275c0.2738,0.1113,0.531,0.2753,0.7698,0.465c0.1849,0.1562,0.3542,0.3324,0.5032,0.5392
		c0.0975,0.1473,0.182,0.3057,0.2502,0.4784c0.0424,0.1204,0.0749,0.2447,0.0995,0.3729l-0.0692-0.0238
		c-0.3913-0.1558-0.7564-0.3763-1.0981-0.6481c-0.4242-0.3568-0.8016-0.7837-1.1375-1.2612L130.8843,14.678L130.8843,14.678z
		 M129.914,11.5508c1.6203-7.1409,12.5374-7.3882,16.4868-1.2135c3.6288,5.6741,1.3811,14.9446-11.0569,14.3972
		c-4.3064-0.1899-9.8054-1.64-17.0456-5.9681c18.9068,16.3987,30.0549,6.9874,31.455-2.8123
		c0.9186-6.4224-5.0511-14.3587-14.0227-11.8121c-2.9203,0.9228-5.5632,3.0093-5.8876,6.2172
		C129.8192,10.6761,129.8636,11.1334,129.914,11.5508z"/>
	
		<path fill-rule="evenodd" clip-rule="evenodd" fill="#FFFFFF" stroke="#FFFFFF" stroke-width="6" stroke-linejoin="round" stroke-miterlimit="10" d="
		M130.4985,17.2375c0.0066,0.0171,0.0132,0.0341,0.0189,0.051C130.5108,17.2715,130.5051,17.2546,130.4985,17.2375L130.4985,17.2375
		z M129.519,12.3641c-1.3544,0.2538-2.7115,0.3958-4.0657,0.3699c-4.02-0.1203-7.4282-1.7801-10.8959-3.8524
		c-1.9111-1.1413-3.8688-2.1173-5.9357-2.8322c-4.0849-1.413-8.6006-1.9071-12.9533-0.8715
		c-1.8274,0.4348-3.5886,1.2284-5.3438,2.0569l-0.1363,0.7014c1.4958-0.7073,2.9936-1.4026,4.5336-1.8874
		c2.0452-0.619,4.1325-0.8199,6.1865-0.7846c2.8484,0.0727,5.6352,0.6519,8.3042,1.6432c1.0226,0.388,2.0257,0.8347,3.0067,1.339
		c4.6063,2.3684,7.6618,4.9812,13.3346,5.0967c1.4059,0.0283,2.8217-0.1379,4.2309-0.4179c0.0203,0.4611,0.1148,0.8925,0.265,1.2924
		c-1.1128,0.3543-2.1997,1.3448-1.9493,2.874c0.2589,1.5831,1.8864,2.5009,3.1077,1.6721c0.584-0.3955,0.7619-1.3757,0.4747-2.0162
		c-0.2502-0.5572-0.9306-0.8241-1.4167-0.4502c-0.427,0.3291-0.317,0.9824-0.149,1.4016c0.1368,0.3388,0.5553-0.0258,0.4198-0.3616
		c-0.0047-0.0126-0.0103-0.0259-0.0158-0.0391c-0.028-0.0829-0.0505-0.1666-0.0656-0.2556
		c-0.0034-0.0381-0.0041-0.076-0.0038-0.1147c0.0027-0.0188,0.0063-0.0371,0.0107-0.0551c0.004-0.0114,0.0089-0.0226,0.0138-0.0338
		c0.0063-0.0092,0.0125-0.0178,0.0187-0.0265c0.0121-0.0112,0.024-0.0215,0.0367-0.0312c0.0212-0.0117,0.0439-0.0221,0.0663-0.0308
		c0.0435-0.0105,0.0868-0.0155,0.1304-0.0174c0.0594,0.0052,0.1174,0.017,0.1752,0.0349c0.0623,0.027,0.1206,0.0608,0.1766,0.1014
		c0.046,0.0414,0.0885,0.087,0.1272,0.1382c0.0273,0.045,0.0514,0.0924,0.0732,0.1426c0.0176,0.053,0.0305,0.1073,0.0411,0.1638
		c0.0086,0.09,0.0082,0.18,0.003,0.2717c-0.0096,0.0819-0.0244,0.1624-0.0445,0.2427c-0.0216,0.0602-0.0454,0.1178-0.0735,0.1744
		c-0.0312,0.0493-0.0645,0.0956-0.101,0.1394c-0.0471,0.0476-0.0967,0.0898-0.1499,0.1272
		c-0.0817,0.0494-0.1647,0.0873-0.2516,0.1173c-0.1493,0.0403-0.2985,0.0573-0.448,0.0575
		c-0.2088-0.0099-0.4125-0.0514-0.6096-0.1212c-0.1536-0.0623-0.2995-0.1411-0.4362-0.2447
		c-0.0848-0.0732-0.1589-0.1556-0.2278-0.2506c-0.1212-0.1826-0.2278-0.3758-0.3125-0.5891
		c-0.048-0.1377-0.0845-0.279-0.1085-0.4287c-0.0117-0.1158-0.0145-0.2312-0.0068-0.3495c0.0119-0.1031,0.0314-0.2033,0.059-0.3038
		c0.0385-0.1146,0.0857-0.223,0.1403-0.3281c0.0757-0.1254,0.16-0.2392,0.2518-0.3456c0.1367-0.1428,0.283-0.2648,0.4379-0.3712
		c0.2209-0.1399,0.4502-0.2449,0.6858-0.3216c0.0534-0.0153,0.1065-0.0288,0.1593-0.0411c0.4237,0.8044,1.0603,1.4547,1.6959,1.9287
		c0.3941,0.2941,0.8185,0.5019,1.2584,0.6252c-0.0213,0.1743-0.0572,0.3452-0.1053,0.5142
		c-0.0722,0.2234-0.1655,0.4345-0.2749,0.6361c-0.1438,0.2486-0.3094,0.4745-0.4926,0.6808
		c-0.2265,0.2434-0.4725,0.4523-0.7338,0.6289c-0.2879,0.1836-0.5874,0.325-0.8959,0.4249
		c-0.3933,0.1141-0.7801,0.1438-1.1743,0.1375c-1.1611-0.0366-2.2923-0.3015-3.3803-0.7053c-1.8446-0.705-3.5612-1.79-5.1522-3.0772
		c-1.7364-1.4195-3.3037-3.1151-5.0243-4.5603c-1.8561-1.559-3.3229-2.4049-5.7063-2.9236c-0.102-0.0221-0.205-0.0435-0.3083-0.0635
		c-1.6777-0.3262-3.4075-0.3476-5.1134-0.0235c-1.9159-0.236-3.6442,0.333-4.7953,1.4965
		c-5.6583,5.7135,5.241,12.8947,7.8632,6.0252c0.3921-1.0255,0.4982-2.253,0.0197-3.1649c-0.4653-0.8868-1.4697-1.2852-2.333-1.0143
		c-0.9601,0.3007-1.54,1.6253-1.46,2.7525c0.0404,0.5704,0.2526,1.0918,0.6076,1.4293c0.4646,0.4412,1.0959,0.4973,1.6889,0.3846
		c0.3143-0.0596,0.3033-0.6662-0.0136-0.6067c-0.1656,0.0318-0.3303,0.0498-0.4963,0.0508
		c-0.4218-0.0217-0.7535-0.1456-1.0304-0.5237c-0.06-0.0945-0.1116-0.1951-0.1554-0.3032c-0.0455-0.1318-0.0793-0.2685-0.101-0.412
		c-0.1644-1.5085,0.8123-2.5527,1.9859-2.1493c0.1795,0.0727,0.3479,0.1658,0.506,0.2884c0.1054,0.0925,0.2,0.1947,0.2872,0.3112
		c0.6362,0.9718,0.3027,2.3866-0.2625,3.4222c-0.1607,0.2755-0.3407,0.5297-0.5424,0.7608
		c-2.2695,2.3154-6.3689,0.4208-7.1077-2.697c-0.7054-2.9748,1.6741-6.5282,6.3003-5.064
		c2.8171,0.8918,5.8128,3.8443,11.3514,9.3456c5.0486,5.0141,14.237,11.011,22.3585,9.4463
		c5.0007-0.9633,10.8075-5.4715,11.3931-12.827C152.2742-0.7751,127.8586-0.5594,129.519,12.3641L129.519,12.3641z
		 M133.7154,17.4022c-0.1919,1.4369-1.2183,2.5936-2.287,3.1286c-0.7694,0.3855-1.5418,0.439-2.3315,0.3819
		c-1.0595-0.0772-2.0893-0.3355-3.0848-0.7101c-1.9901-0.749-3.8354-1.9415-5.5323-3.3596
		c-1.7342-1.4493-3.3089-3.158-5.0559-4.5876c-2.4371-1.971-4.6884-2.8172-7.8425-2.9115
		c-0.3517-0.0071-0.7043-0.0004-1.0577,0.0201c0.3321,0.1172,0.666,0.2578,0.9994,0.424
		c9.4919,4.7177,12.8478,13.2971,27.3928,14.0059c11.4631,0.5583,12.8553-7.4944,9.3943-12.6552
		c-2.952-4.4012-10.3066-6.1336-13.3524-0.9409c-0.1915,0.3501-0.3531,0.7137-0.4817,1.1022
		c-0.087,0.2993-0.1499,0.5997-0.1855,0.908c0.9978-0.2168,1.9937-0.4885,2.9831-0.7921c0.2953-0.0917,0.5894-0.1867,0.8868-0.2663
		c1.0795-0.2897,2.2961-0.5382,3.3404-0.1834C140.8948,12.1208,137.5612,17.9462,133.7154,17.4022L133.7154,17.4022z
		 M133.7425,16.7948c-0.091-1.5802-1.4843-2.6465-2.6654-2.7194c-0.1594-0.0094-0.3302-0.002-0.5052,0.0225
		c-0.0253-0.0554-0.0485-0.1117-0.0716-0.1689c-0.0897-0.2571-0.1564-0.5209-0.1994-0.8004
		c-0.0116-0.1023-0.0198-0.2038-0.0243-0.306c0.3207-0.0697,0.6406-0.1448,0.9605-0.224c0.8348-0.208,1.6649-0.4561,2.4943-0.7146
		c0.892-0.2703,1.8002-0.4757,2.7009-0.4663c0.3443,0.0129,0.6838,0.0595,1.0087,0.1722c0.1705,0.0678,0.3313,0.154,0.481,0.2687
		c0.0917,0.0795,0.1753,0.1683,0.2502,0.2698c0.056,0.0874,0.1045,0.1806,0.1445,0.2808c0.6665,1.9885-2.076,4.4484-4.096,4.4372
		C134.0589,16.8401,133.9001,16.8228,133.7425,16.7948L133.7425,16.7948z M130.8843,14.678l0.028-0.0004
		c0.235,0.0097,0.464,0.0505,0.6859,0.1275c0.2738,0.1113,0.531,0.2753,0.7698,0.465c0.1849,0.1562,0.3542,0.3324,0.5032,0.5392
		c0.0975,0.1473,0.182,0.3057,0.2502,0.4784c0.0424,0.1204,0.0749,0.2447,0.0995,0.3729l-0.0692-0.0238
		c-0.3913-0.1558-0.7564-0.3763-1.0981-0.6481c-0.4242-0.3568-0.8016-0.7837-1.1375-1.2612L130.8843,14.678L130.8843,14.678z
		 M129.914,11.5508c1.6203-7.1409,12.5374-7.3882,16.4868-1.2135c3.6288,5.6741,1.3811,14.9446-11.0569,14.3972
		c-4.3064-0.1899-9.8054-1.64-17.0456-5.9681c18.9068,16.3987,30.0549,6.9874,31.455-2.8123
		c0.9186-6.4224-5.0511-14.3587-14.0227-11.8121c-2.9203,0.9228-5.5632,3.0093-5.8876,6.2172
		C129.8192,10.6761,129.8636,11.1334,129.914,11.5508z"/>
	
		<path fill-rule="evenodd" clip-rule="evenodd" fill="#FFFFFF" stroke="#FFFFFF" stroke-width="6" stroke-linejoin="round" stroke-miterlimit="10" d="
		M23.4994,17.2375c-0.0066,0.0171-0.0123,0.0339-0.0189,0.051C23.4862,17.2716,23.4928,17.2546,23.4994,17.2375L23.4994,17.2375z
		 M24.4789,12.3641C26.1393-0.5594,1.7237-0.7751,3.0524,15.9232c0.5856,7.3556,6.3923,11.8637,11.3931,12.827
		c8.1215,1.5647,17.3099-4.4322,22.3585-9.4463c5.5386-5.5013,8.5343-8.4538,11.3514-9.3456
		c4.6262-1.4642,7.0057,2.0892,6.3003,5.064c-0.7388,3.1178-4.8382,5.0124-7.1077,2.697c-0.2017-0.2311-0.3817-0.4852-0.5424-0.7608
		c-0.5651-1.0356-0.8987-2.4504-0.2625-3.4222c0.0872-0.1165,0.1818-0.2187,0.2872-0.3112c0.1581-0.1227,0.3265-0.2157,0.506-0.2884
		c1.1736-0.4034,2.1503,0.6409,1.9859,2.1493c-0.0217,0.1434-0.0555,0.2801-0.101,0.412c-0.0438,0.1081-0.0955,0.2086-0.1554,0.3032
		c-0.2769,0.3781-0.6086,0.5021-1.0304,0.5237c-0.166-0.0011-0.3307-0.0191-0.4963-0.0508
		c-0.3169-0.0596-0.3278,0.5471-0.0136,0.6067c0.5929,0.1127,1.2243,0.0566,1.6889-0.3846c0.355-0.3375,0.5672-0.8588,0.6076-1.4293
		c0.0799-1.1272-0.4999-2.4518-1.46-2.7525c-0.8633-0.2709-1.8676,0.1275-2.333,1.0143c-0.4785,0.9119-0.3723,2.1394,0.0197,3.1649
		c2.6222,6.8695,13.5215-0.3117,7.8632-6.0252C52.7607,9.305,51.0325,8.736,49.1165,8.972
		c-1.7059-0.3241-3.4357-0.3027-5.1134,0.0235c-0.1033,0.0201-0.2063,0.0414-0.3083,0.0635
		c-2.3834,0.5187-3.8502,1.3647-5.7063,2.9236c-1.7205,1.4452-3.2879,3.1408-5.0243,4.5603
		c-1.5909,1.2871-3.3076,2.3722-5.1522,3.0772c-1.088,0.4038-2.2191,0.6688-3.3803,0.7053
		c-0.3942,0.0063-0.781-0.0234-1.1743-0.1375c-0.3085-0.0999-0.608-0.2412-0.8959-0.4249
		c-0.2613-0.1767-0.5073-0.3856-0.7338-0.6289c-0.1833-0.2062-0.3488-0.4321-0.4926-0.6808
		c-0.1094-0.2017-0.2027-0.4128-0.275-0.6361c-0.0482-0.169-0.084-0.3399-0.1053-0.5142c0.4399-0.1233,0.8643-0.3311,1.2584-0.6252
		c0.6356-0.474,1.2722-1.1243,1.6959-1.9287c0.0528,0.0122,0.1059,0.0258,0.1593,0.0411c0.2356,0.0767,0.4649,0.1817,0.6858,0.3216
		c0.1549,0.1064,0.3011,0.2284,0.4378,0.3712c0.0918,0.1064,0.1761,0.2202,0.2518,0.3456c0.0546,0.1051,0.1018,0.2135,0.1403,0.3281
		c0.0276,0.1005,0.0471,0.2007,0.059,0.3038c0.0077,0.1183,0.0049,0.2337-0.0068,0.3495c-0.0241,0.1497-0.0605,0.291-0.1085,0.4287
		c-0.0847,0.2133-0.1912,0.4065-0.3125,0.5891c-0.0689,0.0949-0.143,0.1774-0.2278,0.2506
		c-0.1366,0.1036-0.2825,0.1824-0.4362,0.2447c-0.1972,0.0698-0.4008,0.1113-0.6096,0.1212
		c-0.1495-0.0002-0.2987-0.0171-0.448-0.0575c-0.0869-0.03-0.1699-0.0679-0.2516-0.1173c-0.0532-0.0374-0.1028-0.0795-0.1499-0.1272
		c-0.0365-0.0438-0.0697-0.09-0.101-0.1394c-0.0281-0.0567-0.0519-0.1142-0.0735-0.1744c-0.0201-0.0803-0.0349-0.1607-0.0445-0.2427
		c-0.0052-0.0918-0.0056-0.1818,0.003-0.2717c0.0106-0.0565,0.0235-0.1108,0.0411-0.1638c0.0218-0.0502,0.0459-0.0976,0.0732-0.1426
		c0.0387-0.0512,0.0812-0.0969,0.1272-0.1382c0.056-0.0406,0.1143-0.0745,0.1766-0.1014c0.0578-0.018,0.1158-0.0297,0.1752-0.0349
		c0.0436,0.0019,0.0869,0.007,0.1304,0.0174c0.0224,0.0087,0.0451,0.0192,0.0663,0.0308c0.0127,0.0097,0.0246,0.02,0.0367,0.0312
		c0.0062,0.0087,0.0124,0.0174,0.0187,0.0265c0.0049,0.0112,0.0098,0.0224,0.0138,0.0338c0.0044,0.018,0.008,0.0363,0.0107,0.0551
		c0.0003,0.0387-0.0004,0.0766-0.0038,0.1147c-0.0151,0.089-0.0376,0.1726-0.0656,0.2556
		c-0.0056,0.0132-0.0111,0.0265-0.0158,0.0391c-0.1356,0.3358,0.283,0.7004,0.4198,0.3616c0.168-0.4191,0.278-1.0724-0.149-1.4016
		c-0.4861-0.374-1.1665-0.107-1.4167,0.4502c-0.2872,0.6404-0.1093,1.6207,0.4747,2.0162c1.2212,0.8287,2.8488-0.089,3.1077-1.6721
		c0.2504-1.5292-0.8365-2.5196-1.9493-2.874c0.1502-0.3999,0.2447-0.8313,0.265-1.2924c1.4091,0.28,2.8249,0.4462,4.2309,0.4179
		c5.6728-0.1155,8.7283-2.7283,13.3346-5.0967c0.9811-0.5042,1.9841-0.951,3.0067-1.339c2.6689-0.9913,5.4558-1.5705,8.3042-1.6432
		c2.054-0.0354,4.1413,0.1656,6.1865,0.7846c1.5399,0.4848,3.0378,1.1801,4.5336,1.8874l-0.1363-0.7014
		c-1.7553-0.8285-3.5164-1.6221-5.3439-2.0569c-4.3527-1.0357-8.8684-0.5416-12.9533,0.8715
		c-2.0669,0.7149-4.0246,1.6909-5.9357,2.8322c-3.4677,2.0723-6.8759,3.7321-10.8959,3.8524
		C27.1904,12.7599,25.8333,12.6178,24.4789,12.3641L24.4789,12.3641z M20.2825,17.4022c-3.8458,0.5441-7.1793-5.2814-3.7855-6.4362
		c1.0444-0.3548,2.2609-0.1062,3.3404,0.1834c0.2974,0.0796,0.5915,0.1747,0.8868,0.2663c0.9894,0.3036,1.9853,0.5753,2.9831,0.7921
		c-0.0356-0.3084-0.0985-0.6087-0.1855-0.908c-0.1286-0.3884-0.2903-0.7521-0.4817-1.1022
		c-3.0458-5.1927-10.4003-3.4602-13.3524,0.9409c-3.461,5.1608-2.0688,13.2136,9.3943,12.6552
		c14.545-0.7088,17.9009-9.2882,27.3928-14.0059c0.3334-0.1662,0.6673-0.3067,0.9994-0.424
		c-0.3535-0.0205-0.706-0.0272-1.0577-0.0201c-3.1541,0.0943-5.4053,0.9405-7.8425,2.9115
		c-1.747,1.4296-3.3217,3.1384-5.0559,4.5876c-1.6969,1.4181-3.5423,2.6106-5.5323,3.3596
		c-0.9955,0.3746-2.0252,0.6329-3.0848,0.7101c-0.7897,0.0571-1.5621,0.0037-2.3315-0.3819
		C21.5008,19.9958,20.4744,18.8391,20.2825,17.4022L20.2825,17.4022z M20.2554,16.7948c-0.1576,0.028-0.3164,0.0453-0.4782,0.0515
		c-2.02,0.0112-4.7625-2.4487-4.096-4.4372c0.04-0.1001,0.0885-0.1933,0.1445-0.2808c0.0749-0.1015,0.1585-0.1903,0.2502-0.2698
		c0.1498-0.1147,0.3105-0.2009,0.481-0.2687c0.3249-0.1127,0.6644-0.1593,1.0087-0.1722c0.9007-0.0094,1.8089,0.1961,2.7009,0.4663
		c0.8294,0.2585,1.6594,0.5066,2.4943,0.7146c0.3199,0.0792,0.6398,0.1544,0.9605,0.224c-0.0044,0.1022-0.0126,0.2038-0.0243,0.306
		c-0.043,0.2795-0.1097,0.5433-0.1993,0.8004c-0.0231,0.0572-0.0464,0.1135-0.0716,0.1689
		c-0.175-0.0245-0.3458-0.0319-0.5052-0.0225C21.7397,14.1483,20.3464,15.2146,20.2554,16.7948L20.2554,16.7948z M23.1136,14.678
		l-0.0318,0.0494c-0.336,0.4775-0.7133,0.9044-1.1375,1.2612c-0.3417,0.2718-0.7068,0.4923-1.0981,0.6481l-0.0692,0.0238
		c0.0246-0.1282,0.0572-0.2526,0.0995-0.3729c0.0682-0.1727,0.1527-0.3311,0.2502-0.4784c0.1489-0.2069,0.3182-0.383,0.5032-0.5392
		c0.2388-0.1897,0.496-0.3536,0.7698-0.465c0.2219-0.077,0.4509-0.1178,0.6859-0.1275L23.1136,14.678L23.1136,14.678z
		 M24.155,10.3592c-0.3244-3.2079-2.9673-5.2944-5.8876-6.2172C9.2957,1.5954,3.326,9.5317,4.2446,15.9541
		c1.4002,9.7997,12.5483,19.2111,31.455,2.8123c-7.2402,4.3281-12.7392,5.7782-17.0456,5.9681
		C6.216,25.2819,3.9684,16.0114,7.5972,10.3373c3.9494-6.1746,14.8665-5.9274,16.4868,1.2135
		C24.1343,11.1334,24.1787,10.6761,24.155,10.3592z"/>
	
		<path fill-rule="evenodd" clip-rule="evenodd" fill="#FFFFFF" stroke="#FFFFFF" stroke-width="6" stroke-linecap="round" stroke-linejoin="round" d="
		M67.699,15.8676l7.7417-3.0168l-4.6636-6.5465l6.229,5.0883l3.5069-7.518l-1.515,8.0816l8.1751-0.982l-7.7451,3.0121l4.6752,6.5434
		l-6.2304-5.0781l-3.5056,7.516l1.51-8.0902L67.699,15.8676z M76.3947,16.6535l1.2014-2.5316l2.1007,1.7078l-1.5736-2.1918
		l2.6563-1.0512l-2.8113,0.3359l0.5234-2.7883l-1.217,2.5738l-2.1501-1.759L76.7437,13.2l-2.6658,1.0629l2.8121-0.3586
		L76.3947,16.6535z"/>
</g>
<g id="top-flourish-main">
	<path fill-rule="evenodd" clip-rule="evenodd" fill="#576C76" d="M130.4985,17.2375c0.0066,0.0171,0.0132,0.0341,0.0189,0.051
		C130.5108,17.2715,130.5051,17.2546,130.4985,17.2375L130.4985,17.2375z M129.519,12.3641
		c-1.3544,0.2538-2.7115,0.3958-4.0657,0.3699c-4.02-0.1203-7.4282-1.7801-10.8959-3.8524
		c-1.9111-1.1413-3.8688-2.1173-5.9357-2.8322c-4.0849-1.413-8.6006-1.9071-12.9533-0.8715
		c-1.8274,0.4348-3.5886,1.2284-5.3438,2.0569l-0.1363,0.7014c1.4958-0.7073,2.9936-1.4026,4.5336-1.8874
		c2.0452-0.619,4.1325-0.8199,6.1865-0.7846c2.8484,0.0727,5.6352,0.6519,8.3042,1.6432c1.0226,0.388,2.0257,0.8347,3.0067,1.339
		c4.6063,2.3684,7.6618,4.9812,13.3346,5.0967c1.4059,0.0283,2.8217-0.1379,4.2309-0.4179c0.0203,0.4611,0.1148,0.8925,0.265,1.2924
		c-1.1128,0.3543-2.1997,1.3448-1.9493,2.874c0.2589,1.5831,1.8864,2.5009,3.1077,1.6721c0.584-0.3955,0.7619-1.3757,0.4747-2.0162
		c-0.2502-0.5572-0.9306-0.8241-1.4167-0.4502c-0.427,0.3291-0.317,0.9824-0.149,1.4016c0.1368,0.3388,0.5553-0.0258,0.4198-0.3616
		c-0.0047-0.0126-0.0103-0.0259-0.0158-0.0391c-0.028-0.0829-0.0505-0.1666-0.0656-0.2556
		c-0.0034-0.0381-0.0041-0.076-0.0038-0.1147c0.0027-0.0188,0.0063-0.0371,0.0107-0.0551c0.004-0.0114,0.0089-0.0226,0.0138-0.0338
		c0.0063-0.0092,0.0125-0.0178,0.0187-0.0265c0.0121-0.0112,0.024-0.0215,0.0367-0.0312c0.0212-0.0117,0.0439-0.0221,0.0663-0.0308
		c0.0435-0.0105,0.0868-0.0155,0.1304-0.0174c0.0594,0.0052,0.1174,0.017,0.1752,0.0349c0.0623,0.027,0.1206,0.0608,0.1766,0.1014
		c0.046,0.0414,0.0885,0.087,0.1272,0.1382c0.0273,0.045,0.0514,0.0924,0.0732,0.1426c0.0176,0.053,0.0305,0.1073,0.0411,0.1638
		c0.0086,0.09,0.0082,0.18,0.003,0.2717c-0.0096,0.0819-0.0244,0.1624-0.0445,0.2427c-0.0216,0.0602-0.0454,0.1178-0.0735,0.1744
		c-0.0312,0.0493-0.0645,0.0956-0.101,0.1394c-0.0471,0.0476-0.0967,0.0898-0.1499,0.1272
		c-0.0817,0.0494-0.1647,0.0873-0.2516,0.1173c-0.1493,0.0403-0.2985,0.0573-0.448,0.0575
		c-0.2088-0.0099-0.4125-0.0514-0.6096-0.1212c-0.1536-0.0623-0.2995-0.1411-0.4362-0.2447
		c-0.0848-0.0732-0.1589-0.1556-0.2278-0.2506c-0.1212-0.1826-0.2278-0.3758-0.3125-0.5891
		c-0.048-0.1377-0.0845-0.279-0.1085-0.4287c-0.0117-0.1158-0.0145-0.2312-0.0068-0.3495c0.0119-0.1031,0.0314-0.2033,0.059-0.3038
		c0.0385-0.1146,0.0857-0.223,0.1403-0.3281c0.0757-0.1254,0.16-0.2392,0.2518-0.3456c0.1367-0.1428,0.283-0.2648,0.4379-0.3712
		c0.2209-0.1399,0.4502-0.2449,0.6858-0.3216c0.0534-0.0153,0.1065-0.0288,0.1593-0.0411c0.4237,0.8044,1.0603,1.4547,1.6959,1.9287
		c0.3941,0.2941,0.8185,0.5019,1.2584,0.6252c-0.0213,0.1743-0.0572,0.3452-0.1053,0.5142
		c-0.0722,0.2234-0.1655,0.4345-0.2749,0.6361c-0.1438,0.2486-0.3094,0.4745-0.4926,0.6808
		c-0.2265,0.2434-0.4725,0.4523-0.7338,0.6289c-0.2879,0.1836-0.5874,0.325-0.8959,0.4249
		c-0.3933,0.1141-0.7801,0.1438-1.1743,0.1375c-1.1611-0.0366-2.2923-0.3015-3.3803-0.7053c-1.8446-0.705-3.5612-1.79-5.1522-3.0772
		c-1.7364-1.4195-3.3037-3.1151-5.0243-4.5603c-1.8561-1.559-3.3229-2.4049-5.7063-2.9236c-0.102-0.0221-0.205-0.0435-0.3083-0.0635
		c-1.6777-0.3262-3.4075-0.3476-5.1134-0.0235c-1.9159-0.236-3.6442,0.333-4.7953,1.4965
		c-5.6583,5.7135,5.241,12.8947,7.8632,6.0252c0.3921-1.0255,0.4982-2.253,0.0197-3.1649c-0.4653-0.8868-1.4697-1.2852-2.333-1.0143
		c-0.9601,0.3007-1.54,1.6253-1.46,2.7525c0.0404,0.5704,0.2526,1.0918,0.6076,1.4293c0.4646,0.4412,1.0959,0.4973,1.6889,0.3846
		c0.3143-0.0596,0.3033-0.6662-0.0136-0.6067c-0.1656,0.0318-0.3303,0.0498-0.4963,0.0508
		c-0.4218-0.0217-0.7535-0.1456-1.0304-0.5237c-0.06-0.0945-0.1116-0.1951-0.1554-0.3032c-0.0455-0.1318-0.0793-0.2685-0.101-0.412
		c-0.1644-1.5085,0.8123-2.5527,1.9859-2.1493c0.1795,0.0727,0.3479,0.1658,0.506,0.2884c0.1054,0.0925,0.2,0.1947,0.2872,0.3112
		c0.6362,0.9718,0.3027,2.3866-0.2625,3.4222c-0.1607,0.2755-0.3407,0.5297-0.5424,0.7608
		c-2.2695,2.3154-6.3689,0.4208-7.1077-2.697c-0.7054-2.9748,1.6741-6.5282,6.3003-5.064
		c2.8171,0.8918,5.8128,3.8443,11.3514,9.3456c5.0486,5.0141,14.237,11.011,22.3585,9.4463
		c5.0007-0.9633,10.8075-5.4715,11.3931-12.827C152.2742-0.7751,127.8586-0.5594,129.519,12.3641L129.519,12.3641z
		 M133.7154,17.4022c-0.1919,1.4369-1.2183,2.5936-2.287,3.1286c-0.7694,0.3855-1.5418,0.439-2.3315,0.3819
		c-1.0595-0.0772-2.0893-0.3355-3.0848-0.7101c-1.9901-0.749-3.8354-1.9415-5.5323-3.3596
		c-1.7342-1.4493-3.3089-3.158-5.0559-4.5876c-2.4371-1.971-4.6884-2.8172-7.8425-2.9115
		c-0.3517-0.0071-0.7043-0.0004-1.0577,0.0201c0.3321,0.1172,0.666,0.2578,0.9994,0.424
		c9.4919,4.7177,12.8478,13.2971,27.3928,14.0059c11.4631,0.5583,12.8553-7.4944,9.3943-12.6552
		c-2.952-4.4012-10.3066-6.1336-13.3524-0.9409c-0.1915,0.3501-0.3531,0.7137-0.4817,1.1022
		c-0.087,0.2993-0.1499,0.5997-0.1855,0.908c0.9978-0.2168,1.9937-0.4885,2.9831-0.7921c0.2953-0.0917,0.5894-0.1867,0.8868-0.2663
		c1.0795-0.2897,2.2961-0.5382,3.3404-0.1834C140.8948,12.1208,137.5612,17.9462,133.7154,17.4022L133.7154,17.4022z
		 M133.7425,16.7948c-0.091-1.5802-1.4843-2.6465-2.6654-2.7194c-0.1594-0.0094-0.3302-0.002-0.5052,0.0225
		c-0.0253-0.0554-0.0485-0.1117-0.0716-0.1689c-0.0897-0.2571-0.1564-0.5209-0.1994-0.8004
		c-0.0116-0.1023-0.0198-0.2038-0.0243-0.306c0.3207-0.0697,0.6406-0.1448,0.9605-0.224c0.8348-0.208,1.6649-0.4561,2.4943-0.7146
		c0.892-0.2703,1.8002-0.4757,2.7009-0.4663c0.3443,0.0129,0.6838,0.0595,1.0087,0.1722c0.1705,0.0678,0.3313,0.154,0.481,0.2687
		c0.0917,0.0795,0.1753,0.1683,0.2502,0.2698c0.056,0.0874,0.1045,0.1806,0.1445,0.2808c0.6665,1.9885-2.076,4.4484-4.096,4.4372
		C134.0589,16.8401,133.9001,16.8228,133.7425,16.7948L133.7425,16.7948z M130.8843,14.678l0.028-0.0004
		c0.235,0.0097,0.464,0.0505,0.6859,0.1275c0.2738,0.1113,0.531,0.2753,0.7698,0.465c0.1849,0.1562,0.3542,0.3324,0.5032,0.5392
		c0.0975,0.1473,0.182,0.3057,0.2502,0.4784c0.0424,0.1204,0.0749,0.2447,0.0995,0.3729l-0.0692-0.0238
		c-0.3913-0.1558-0.7564-0.3763-1.0981-0.6481c-0.4242-0.3568-0.8016-0.7837-1.1375-1.2612L130.8843,14.678L130.8843,14.678z
		 M129.914,11.5508c1.6203-7.1409,12.5374-7.3882,16.4868-1.2135c3.6288,5.6741,1.3811,14.9446-11.0569,14.3972
		c-4.3064-0.1899-9.8054-1.64-17.0456-5.9681c18.9068,16.3987,30.0549,6.9874,31.455-2.8123
		c0.9186-6.4224-5.0511-14.3587-14.0227-11.8121c-2.9203,0.9228-5.5632,3.0093-5.8876,6.2172
		C129.8192,10.6761,129.8636,11.1334,129.914,11.5508z"/>
	<path fill-rule="evenodd" clip-rule="evenodd" fill="#576C76" d="M130.4985,17.2375c0.0066,0.0171,0.0132,0.0341,0.0189,0.051
		C130.5108,17.2715,130.5051,17.2546,130.4985,17.2375L130.4985,17.2375z M129.519,12.3641
		c-1.3544,0.2538-2.7115,0.3958-4.0657,0.3699c-4.02-0.1203-7.4282-1.7801-10.8959-3.8524
		c-1.9111-1.1413-3.8688-2.1173-5.9357-2.8322c-4.0849-1.413-8.6006-1.9071-12.9533-0.8715
		c-1.8274,0.4348-3.5886,1.2284-5.3438,2.0569l-0.1363,0.7014c1.4958-0.7073,2.9936-1.4026,4.5336-1.8874
		c2.0452-0.619,4.1325-0.8199,6.1865-0.7846c2.8484,0.0727,5.6352,0.6519,8.3042,1.6432c1.0226,0.388,2.0257,0.8347,3.0067,1.339
		c4.6063,2.3684,7.6618,4.9812,13.3346,5.0967c1.4059,0.0283,2.8217-0.1379,4.2309-0.4179c0.0203,0.4611,0.1148,0.8925,0.265,1.2924
		c-1.1128,0.3543-2.1997,1.3448-1.9493,2.874c0.2589,1.5831,1.8864,2.5009,3.1077,1.6721c0.584-0.3955,0.7619-1.3757,0.4747-2.0162
		c-0.2502-0.5572-0.9306-0.8241-1.4167-0.4502c-0.427,0.3291-0.317,0.9824-0.149,1.4016c0.1368,0.3388,0.5553-0.0258,0.4198-0.3616
		c-0.0047-0.0126-0.0103-0.0259-0.0158-0.0391c-0.028-0.0829-0.0505-0.1666-0.0656-0.2556
		c-0.0034-0.0381-0.0041-0.076-0.0038-0.1147c0.0027-0.0188,0.0063-0.0371,0.0107-0.0551c0.004-0.0114,0.0089-0.0226,0.0138-0.0338
		c0.0063-0.0092,0.0125-0.0178,0.0187-0.0265c0.0121-0.0112,0.024-0.0215,0.0367-0.0312c0.0212-0.0117,0.0439-0.0221,0.0663-0.0308
		c0.0435-0.0105,0.0868-0.0155,0.1304-0.0174c0.0594,0.0052,0.1174,0.017,0.1752,0.0349c0.0623,0.027,0.1206,0.0608,0.1766,0.1014
		c0.046,0.0414,0.0885,0.087,0.1272,0.1382c0.0273,0.045,0.0514,0.0924,0.0732,0.1426c0.0176,0.053,0.0305,0.1073,0.0411,0.1638
		c0.0086,0.09,0.0082,0.18,0.003,0.2717c-0.0096,0.0819-0.0244,0.1624-0.0445,0.2427c-0.0216,0.0602-0.0454,0.1178-0.0735,0.1744
		c-0.0312,0.0493-0.0645,0.0956-0.101,0.1394c-0.0471,0.0476-0.0967,0.0898-0.1499,0.1272
		c-0.0817,0.0494-0.1647,0.0873-0.2516,0.1173c-0.1493,0.0403-0.2985,0.0573-0.448,0.0575
		c-0.2088-0.0099-0.4125-0.0514-0.6096-0.1212c-0.1536-0.0623-0.2995-0.1411-0.4362-0.2447
		c-0.0848-0.0732-0.1589-0.1556-0.2278-0.2506c-0.1212-0.1826-0.2278-0.3758-0.3125-0.5891
		c-0.048-0.1377-0.0845-0.279-0.1085-0.4287c-0.0117-0.1158-0.0145-0.2312-0.0068-0.3495c0.0119-0.1031,0.0314-0.2033,0.059-0.3038
		c0.0385-0.1146,0.0857-0.223,0.1403-0.3281c0.0757-0.1254,0.16-0.2392,0.2518-0.3456c0.1367-0.1428,0.283-0.2648,0.4379-0.3712
		c0.2209-0.1399,0.4502-0.2449,0.6858-0.3216c0.0534-0.0153,0.1065-0.0288,0.1593-0.0411c0.4237,0.8044,1.0603,1.4547,1.6959,1.9287
		c0.3941,0.2941,0.8185,0.5019,1.2584,0.6252c-0.0213,0.1743-0.0572,0.3452-0.1053,0.5142
		c-0.0722,0.2234-0.1655,0.4345-0.2749,0.6361c-0.1438,0.2486-0.3094,0.4745-0.4926,0.6808
		c-0.2265,0.2434-0.4725,0.4523-0.7338,0.6289c-0.2879,0.1836-0.5874,0.325-0.8959,0.4249
		c-0.3933,0.1141-0.7801,0.1438-1.1743,0.1375c-1.1611-0.0366-2.2923-0.3015-3.3803-0.7053c-1.8446-0.705-3.5612-1.79-5.1522-3.0772
		c-1.7364-1.4195-3.3037-3.1151-5.0243-4.5603c-1.8561-1.559-3.3229-2.4049-5.7063-2.9236c-0.102-0.0221-0.205-0.0435-0.3083-0.0635
		c-1.6777-0.3262-3.4075-0.3476-5.1134-0.0235c-1.9159-0.236-3.6442,0.333-4.7953,1.4965
		c-5.6583,5.7135,5.241,12.8947,7.8632,6.0252c0.3921-1.0255,0.4982-2.253,0.0197-3.1649c-0.4653-0.8868-1.4697-1.2852-2.333-1.0143
		c-0.9601,0.3007-1.54,1.6253-1.46,2.7525c0.0404,0.5704,0.2526,1.0918,0.6076,1.4293c0.4646,0.4412,1.0959,0.4973,1.6889,0.3846
		c0.3143-0.0596,0.3033-0.6662-0.0136-0.6067c-0.1656,0.0318-0.3303,0.0498-0.4963,0.0508
		c-0.4218-0.0217-0.7535-0.1456-1.0304-0.5237c-0.06-0.0945-0.1116-0.1951-0.1554-0.3032c-0.0455-0.1318-0.0793-0.2685-0.101-0.412
		c-0.1644-1.5085,0.8123-2.5527,1.9859-2.1493c0.1795,0.0727,0.3479,0.1658,0.506,0.2884c0.1054,0.0925,0.2,0.1947,0.2872,0.3112
		c0.6362,0.9718,0.3027,2.3866-0.2625,3.4222c-0.1607,0.2755-0.3407,0.5297-0.5424,0.7608
		c-2.2695,2.3154-6.3689,0.4208-7.1077-2.697c-0.7054-2.9748,1.6741-6.5282,6.3003-5.064
		c2.8171,0.8918,5.8128,3.8443,11.3514,9.3456c5.0486,5.0141,14.237,11.011,22.3585,9.4463
		c5.0007-0.9633,10.8075-5.4715,11.3931-12.827C152.2742-0.7751,127.8586-0.5594,129.519,12.3641L129.519,12.3641z
		 M133.7154,17.4022c-0.1919,1.4369-1.2183,2.5936-2.287,3.1286c-0.7694,0.3855-1.5418,0.439-2.3315,0.3819
		c-1.0595-0.0772-2.0893-0.3355-3.0848-0.7101c-1.9901-0.749-3.8354-1.9415-5.5323-3.3596
		c-1.7342-1.4493-3.3089-3.158-5.0559-4.5876c-2.4371-1.971-4.6884-2.8172-7.8425-2.9115
		c-0.3517-0.0071-0.7043-0.0004-1.0577,0.0201c0.3321,0.1172,0.666,0.2578,0.9994,0.424
		c9.4919,4.7177,12.8478,13.2971,27.3928,14.0059c11.4631,0.5583,12.8553-7.4944,9.3943-12.6552
		c-2.952-4.4012-10.3066-6.1336-13.3524-0.9409c-0.1915,0.3501-0.3531,0.7137-0.4817,1.1022
		c-0.087,0.2993-0.1499,0.5997-0.1855,0.908c0.9978-0.2168,1.9937-0.4885,2.9831-0.7921c0.2953-0.0917,0.5894-0.1867,0.8868-0.2663
		c1.0795-0.2897,2.2961-0.5382,3.3404-0.1834C140.8948,12.1208,137.5612,17.9462,133.7154,17.4022L133.7154,17.4022z
		 M133.7425,16.7948c-0.091-1.5802-1.4843-2.6465-2.6654-2.7194c-0.1594-0.0094-0.3302-0.002-0.5052,0.0225
		c-0.0253-0.0554-0.0485-0.1117-0.0716-0.1689c-0.0897-0.2571-0.1564-0.5209-0.1994-0.8004
		c-0.0116-0.1023-0.0198-0.2038-0.0243-0.306c0.3207-0.0697,0.6406-0.1448,0.9605-0.224c0.8348-0.208,1.6649-0.4561,2.4943-0.7146
		c0.892-0.2703,1.8002-0.4757,2.7009-0.4663c0.3443,0.0129,0.6838,0.0595,1.0087,0.1722c0.1705,0.0678,0.3313,0.154,0.481,0.2687
		c0.0917,0.0795,0.1753,0.1683,0.2502,0.2698c0.056,0.0874,0.1045,0.1806,0.1445,0.2808c0.6665,1.9885-2.076,4.4484-4.096,4.4372
		C134.0589,16.8401,133.9001,16.8228,133.7425,16.7948L133.7425,16.7948z M130.8843,14.678l0.028-0.0004
		c0.235,0.0097,0.464,0.0505,0.6859,0.1275c0.2738,0.1113,0.531,0.2753,0.7698,0.465c0.1849,0.1562,0.3542,0.3324,0.5032,0.5392
		c0.0975,0.1473,0.182,0.3057,0.2502,0.4784c0.0424,0.1204,0.0749,0.2447,0.0995,0.3729l-0.0692-0.0238
		c-0.3913-0.1558-0.7564-0.3763-1.0981-0.6481c-0.4242-0.3568-0.8016-0.7837-1.1375-1.2612L130.8843,14.678L130.8843,14.678z
		 M129.914,11.5508c1.6203-7.1409,12.5374-7.3882,16.4868-1.2135c3.6288,5.6741,1.3811,14.9446-11.0569,14.3972
		c-4.3064-0.1899-9.8054-1.64-17.0456-5.9681c18.9068,16.3987,30.0549,6.9874,31.455-2.8123
		c0.9186-6.4224-5.0511-14.3587-14.0227-11.8121c-2.9203,0.9228-5.5632,3.0093-5.8876,6.2172
		C129.8192,10.6761,129.8636,11.1334,129.914,11.5508z"/>
	<path fill-rule="evenodd" clip-rule="evenodd" fill="#576C76" d="M23.4994,17.2375c-0.0066,0.0171-0.0123,0.0339-0.0189,0.051
		C23.4862,17.2716,23.4928,17.2546,23.4994,17.2375L23.4994,17.2375z M24.4789,12.3641C26.1393-0.5594,1.7237-0.7751,3.0524,15.9232
		c0.5856,7.3556,6.3923,11.8637,11.3931,12.827c8.1215,1.5647,17.3099-4.4322,22.3585-9.4463
		c5.5386-5.5013,8.5343-8.4538,11.3514-9.3456c4.6262-1.4642,7.0057,2.0892,6.3003,5.064c-0.7388,3.1178-4.8382,5.0124-7.1077,2.697
		c-0.2017-0.2311-0.3817-0.4852-0.5424-0.7608c-0.5651-1.0356-0.8987-2.4504-0.2625-3.4222
		c0.0872-0.1165,0.1818-0.2187,0.2872-0.3112c0.1581-0.1227,0.3265-0.2157,0.506-0.2884c1.1736-0.4034,2.1503,0.6409,1.9859,2.1493
		c-0.0217,0.1434-0.0555,0.2801-0.101,0.412c-0.0438,0.1081-0.0955,0.2086-0.1554,0.3032
		c-0.2769,0.3781-0.6086,0.5021-1.0304,0.5237c-0.166-0.0011-0.3307-0.0191-0.4963-0.0508
		c-0.3169-0.0596-0.3278,0.5471-0.0136,0.6067c0.5929,0.1127,1.2243,0.0566,1.6889-0.3846c0.355-0.3375,0.5672-0.8588,0.6076-1.4293
		c0.0799-1.1272-0.4999-2.4518-1.46-2.7525c-0.8633-0.2709-1.8676,0.1275-2.333,1.0143c-0.4785,0.9119-0.3723,2.1394,0.0197,3.1649
		c2.6222,6.8695,13.5215-0.3117,7.8632-6.0252C52.7607,9.305,51.0325,8.736,49.1165,8.972
		c-1.7059-0.3241-3.4357-0.3027-5.1134,0.0235c-0.1033,0.0201-0.2063,0.0414-0.3083,0.0635
		c-2.3834,0.5187-3.8502,1.3647-5.7063,2.9236c-1.7205,1.4452-3.2879,3.1408-5.0243,4.5603
		c-1.5909,1.2871-3.3076,2.3722-5.1522,3.0772c-1.088,0.4038-2.2191,0.6688-3.3803,0.7053
		c-0.3942,0.0063-0.781-0.0234-1.1743-0.1375c-0.3085-0.0999-0.608-0.2412-0.8959-0.4249
		c-0.2613-0.1767-0.5073-0.3856-0.7338-0.6289c-0.1833-0.2062-0.3488-0.4321-0.4926-0.6808
		c-0.1094-0.2017-0.2027-0.4128-0.275-0.6361c-0.0482-0.169-0.084-0.3399-0.1053-0.5142c0.4399-0.1233,0.8643-0.3311,1.2584-0.6252
		c0.6356-0.474,1.2722-1.1243,1.6959-1.9287c0.0528,0.0122,0.1059,0.0258,0.1593,0.0411c0.2356,0.0767,0.4649,0.1817,0.6858,0.3216
		c0.1549,0.1064,0.3011,0.2284,0.4378,0.3712c0.0918,0.1064,0.1761,0.2202,0.2518,0.3456c0.0546,0.1051,0.1018,0.2135,0.1403,0.3281
		c0.0276,0.1005,0.0471,0.2007,0.059,0.3038c0.0077,0.1183,0.0049,0.2337-0.0068,0.3495c-0.0241,0.1497-0.0605,0.291-0.1085,0.4287
		c-0.0847,0.2133-0.1912,0.4065-0.3125,0.5891c-0.0689,0.0949-0.143,0.1774-0.2278,0.2506
		c-0.1366,0.1036-0.2825,0.1824-0.4362,0.2447c-0.1972,0.0698-0.4008,0.1113-0.6096,0.1212
		c-0.1495-0.0002-0.2987-0.0171-0.448-0.0575c-0.0869-0.03-0.1699-0.0679-0.2516-0.1173c-0.0532-0.0374-0.1028-0.0795-0.1499-0.1272
		c-0.0365-0.0438-0.0697-0.09-0.101-0.1394c-0.0281-0.0567-0.0519-0.1142-0.0735-0.1744c-0.0201-0.0803-0.0349-0.1607-0.0445-0.2427
		c-0.0052-0.0918-0.0056-0.1818,0.003-0.2717c0.0106-0.0565,0.0235-0.1108,0.0411-0.1638c0.0218-0.0502,0.0459-0.0976,0.0732-0.1426
		c0.0387-0.0512,0.0812-0.0969,0.1272-0.1382c0.056-0.0406,0.1143-0.0745,0.1766-0.1014c0.0578-0.018,0.1158-0.0297,0.1752-0.0349
		c0.0436,0.0019,0.0869,0.007,0.1304,0.0174c0.0224,0.0087,0.0451,0.0192,0.0663,0.0308c0.0127,0.0097,0.0246,0.02,0.0367,0.0312
		c0.0062,0.0087,0.0124,0.0174,0.0187,0.0265c0.0049,0.0112,0.0098,0.0224,0.0138,0.0338c0.0044,0.018,0.008,0.0363,0.0107,0.0551
		c0.0003,0.0387-0.0004,0.0766-0.0038,0.1147c-0.0151,0.089-0.0376,0.1726-0.0656,0.2556
		c-0.0056,0.0132-0.0111,0.0265-0.0158,0.0391c-0.1356,0.3358,0.283,0.7004,0.4198,0.3616c0.168-0.4191,0.278-1.0724-0.149-1.4016
		c-0.4861-0.374-1.1665-0.107-1.4167,0.4502c-0.2872,0.6404-0.1093,1.6207,0.4747,2.0162c1.2212,0.8287,2.8488-0.089,3.1077-1.6721
		c0.2504-1.5292-0.8365-2.5196-1.9493-2.874c0.1502-0.3999,0.2447-0.8313,0.265-1.2924c1.4091,0.28,2.8249,0.4462,4.2309,0.4179
		c5.6728-0.1155,8.7283-2.7283,13.3346-5.0967c0.9811-0.5042,1.9841-0.951,3.0067-1.339c2.6689-0.9913,5.4558-1.5705,8.3042-1.6432
		c2.054-0.0354,4.1413,0.1656,6.1865,0.7846c1.5399,0.4848,3.0378,1.1801,4.5336,1.8874l-0.1363-0.7014
		c-1.7553-0.8285-3.5164-1.6221-5.3439-2.0569c-4.3527-1.0357-8.8684-0.5416-12.9533,0.8715
		c-2.0669,0.7149-4.0246,1.6909-5.9357,2.8322c-3.4677,2.0723-6.8759,3.7321-10.8959,3.8524
		C27.1904,12.7599,25.8333,12.6178,24.4789,12.3641L24.4789,12.3641z M20.2825,17.4022c-3.8458,0.5441-7.1793-5.2814-3.7855-6.4362
		c1.0444-0.3548,2.2609-0.1062,3.3404,0.1834c0.2974,0.0796,0.5915,0.1747,0.8868,0.2663c0.9894,0.3036,1.9853,0.5753,2.9831,0.7921
		c-0.0356-0.3084-0.0985-0.6087-0.1855-0.908c-0.1286-0.3884-0.2903-0.7521-0.4817-1.1022
		c-3.0458-5.1927-10.4003-3.4602-13.3524,0.9409c-3.461,5.1608-2.0688,13.2136,9.3943,12.6552
		c14.545-0.7088,17.9009-9.2882,27.3928-14.0059c0.3334-0.1662,0.6673-0.3067,0.9994-0.424
		c-0.3535-0.0205-0.706-0.0272-1.0577-0.0201c-3.1541,0.0943-5.4053,0.9405-7.8425,2.9115
		c-1.747,1.4296-3.3217,3.1384-5.0559,4.5876c-1.6969,1.4181-3.5423,2.6106-5.5323,3.3596
		c-0.9955,0.3746-2.0252,0.6329-3.0848,0.7101c-0.7897,0.0571-1.5621,0.0037-2.3315-0.3819
		C21.5008,19.9958,20.4744,18.8391,20.2825,17.4022L20.2825,17.4022z M20.2554,16.7948c-0.1576,0.028-0.3164,0.0453-0.4782,0.0515
		c-2.02,0.0112-4.7625-2.4487-4.096-4.4372c0.04-0.1001,0.0885-0.1933,0.1445-0.2808c0.0749-0.1015,0.1585-0.1903,0.2502-0.2698
		c0.1498-0.1147,0.3105-0.2009,0.481-0.2687c0.3249-0.1127,0.6644-0.1593,1.0087-0.1722c0.9007-0.0094,1.8089,0.1961,2.7009,0.4663
		c0.8294,0.2585,1.6594,0.5066,2.4943,0.7146c0.3199,0.0792,0.6398,0.1544,0.9605,0.224c-0.0044,0.1022-0.0126,0.2038-0.0243,0.306
		c-0.043,0.2795-0.1097,0.5433-0.1993,0.8004c-0.0231,0.0572-0.0464,0.1135-0.0716,0.1689
		c-0.175-0.0245-0.3458-0.0319-0.5052-0.0225C21.7397,14.1483,20.3464,15.2146,20.2554,16.7948L20.2554,16.7948z M23.1136,14.678
		l-0.0318,0.0494c-0.336,0.4775-0.7133,0.9044-1.1375,1.2612c-0.3417,0.2718-0.7068,0.4923-1.0981,0.6481l-0.0692,0.0238
		c0.0246-0.1282,0.0572-0.2526,0.0995-0.3729c0.0682-0.1727,0.1527-0.3311,0.2502-0.4784c0.1489-0.2069,0.3182-0.383,0.5032-0.5392
		c0.2388-0.1897,0.496-0.3536,0.7698-0.465c0.2219-0.077,0.4509-0.1178,0.6859-0.1275L23.1136,14.678L23.1136,14.678z
		 M24.155,10.3592c-0.3244-3.2079-2.9673-5.2944-5.8876-6.2172C9.2957,1.5954,3.326,9.5317,4.2446,15.9541
		c1.4002,9.7997,12.5483,19.2111,31.455,2.8123c-7.2402,4.3281-12.7392,5.7782-17.0456,5.9681
		C6.216,25.2819,3.9684,16.0114,7.5972,10.3373c3.9494-6.1746,14.8665-5.9274,16.4868,1.2135
		C24.1343,11.1334,24.1787,10.6761,24.155,10.3592z"/>
	<path fill-rule="evenodd" clip-rule="evenodd" fill="#F37522" stroke="#F37522" stroke-width="0.1757" d="M67.699,15.8676
		l7.7417-3.0168l-4.6636-6.5465l6.229,5.0883l3.5069-7.518l-1.515,8.0816l8.1751-0.982l-7.7451,3.0121l4.6752,6.5434l-6.2304-5.0781
		l-3.5056,7.516l1.51-8.0902L67.699,15.8676z M76.3947,16.6535l1.2014-2.5316l2.1007,1.7078l-1.5736-2.1918l2.6563-1.0512
		l-2.8113,0.3359l0.5234-2.7883l-1.217,2.5738l-2.1501-1.759L76.7437,13.2l-2.6658,1.0629l2.8121-0.3586L76.3947,16.6535z"/>
</g>
</svg>
