<?xml version="1.0" encoding="utf-8"?>
<!-- Generator: Adobe Illustrator 17.1.0, SVG Export Plug-In . SVG Version: 6.00 Build 0)  -->
<!DOCTYPE svg PUBLIC "-//W3C//DTD SVG 1.1//EN" "http://www.w3.org/Graphics/SVG/1.1/DTD/svg11.dtd">
<svg version="1.1" id="Layer_1" xmlns="http://www.w3.org/2000/svg" xmlns:xlink="http://www.w3.org/1999/xlink" x="0px" y="0px"
	 viewBox="15 15 20 20" enable-background="new 15 15 20 20" xml:space="preserve">
<radialGradient id="SVGID_1_" cx="25.021" cy="26.979" r="9.938" gradientTransform="matrix(1 0 0 -1 0 52)" gradientUnits="userSpaceOnUse">
	<stop  offset="0.5153" style="stop-color:#FFFFFF"/>
	<stop  offset="1" style="stop-color:#FFFFFF;stop-opacity:0"/>
</radialGradient>
<circle fill="url(#SVGID_1_)" cx="25" cy="25" r="9.9"/>
<path fill="#E88640" d="M15.6,27.3l7.3-2.8l-4.4-6.2l5.9,4.8l3.3-7.1l-1.4,7.6l7.7-0.9l-7.3,2.8l4.4,6.2l-5.9-4.8L21.9,34l1.4-7.6
	L15.6,27.3z M23.8,28.1l1.1-2.4l2,1.6l-1.5-2.1l2.5-1l-2.6,0.3l0.5-2.6l-1.1,2.4l-2-1.7l1.5,2.1l-2.5,1l2.6-0.3L23.8,28.1z"/>
<path fill="#E88640" d="M22,34L21.8,34l1.4-7.5l-7.6,0.9l0-0.2l7.2-2.8l-4.3-6.1l0.1-0.1l5.8,4.7l3.2-7l0.2,0.1l-1.4,7.5l7.6-0.9
	l0,0.2l-7.2,2.8l4.3,6.1L31,31.8l-5.8-4.7L22,34z M23.4,26.3l-1.3,7l3-6.5l0.1,0.1l5.3,4.4l-4.1-5.7l6.7-2.6l-7.1,0.9l1.3-7l-3,6.5
	L19,18.8l4.1,5.7l-6.7,2.6L23.4,26.3z M23.9,28.1L23.7,28l0.4-2.5l-2.5,0.3l0-0.2l2.4-1l-1.5-2l0.1-0.1l1.9,1.6l1.1-2.3l0.2,0.1
	l-0.5,2.5l2.5-0.3l0,0.2l-2.4,0.9l1.4,2l-0.1,0.1L25,25.8L23.9,28.1z M24.4,25.4l-0.4,2l0.9-1.9l1.5,1.3l-1.2-1.6l2-0.8l-2.1,0.2
	l0.4-2.1l-0.9,1.9l-1.6-1.3l1.2,1.7l-2,0.8L24.4,25.4z"/>
</svg>
