<?xml version="1.0" encoding="utf-8"?>
<!-- Generator: Adobe Illustrator 15.1.0, SVG Export Plug-In  -->
<!DOCTYPE svg PUBLIC "-//W3C//DTD SVG 1.1//EN" "http://www.w3.org/Graphics/SVG/1.1/DTD/svg11.dtd" [
	<!ENTITY ns_flows "http://ns.adobe.com/Flows/1.0/">
]>
<svg version="1.1"
	 xmlns="http://www.w3.org/2000/svg" xmlns:xlink="http://www.w3.org/1999/xlink" xmlns:a="http://ns.adobe.com/AdobeSVGViewerExtensions/3.0/"
	 x="0px" y="0px" width="360px" height="280px" viewBox="-92.969 -3.125 360 280"
	 overflow="visible" enable-background="new -92.969 -3.125 360 280" xml:space="preserve">
<defs>
</defs>
<path fill="#613C1C" d="M200.196,0.019c-0.119,0.046-0.195,0.168-0.18,0.301c0.265,2.21-2.109,4.894-3.667,6.066l-0.58,0.435
	c-2.64,1.977-5.371,4.021-6.827,7.074c-1.412,2.96-1.889,6.124-1.501,9.954c0.106,1.047,0.295,2.114,0.479,3.146
	c0.381,2.156,0.742,4.191,0.432,6.129c-0.025,0.158,0.08,0.306,0.236,0.333c0.156,0.026,0.302-0.08,0.326-0.235
	c0.328-2.035-0.06-4.215-0.434-6.325c-0.182-1.021-0.368-2.077-0.473-3.103c-0.377-3.719,0.082-6.784,1.447-9.646
	c1.396-2.926,4.069-4.927,6.655-6.864l0.581-0.435c1.309-0.984,3.039-2.847,3.67-4.765c0.674,5.147-1.206,11.807-4.58,15.656
	c-2.105,2.401-3.962,4.961-5.227,7.207c-0.903,1.604-1.059,3.222-1.208,4.785c-0.054,0.574-0.11,1.168-0.204,1.75
	c-0.025,0.157,0.081,0.307,0.236,0.332c0.156,0.026,0.302-0.08,0.328-0.235c0.096-0.599,0.152-1.202,0.209-1.785
	c0.149-1.574,0.291-3.062,1.135-4.558c1.246-2.213,3.078-4.738,5.16-7.113c3.941-4.496,5.857-12.362,4.363-17.908
	c-0.039-0.146-0.184-0.237-0.33-0.209C200.227,0.008,200.211,0.013,200.196,0.019"/>
<path fill="#613C1C" d="M191.639,31.608c-0.255,0.1-0.507,0.204-0.755,0.318c-0.81,0.379-1.49,0.903-2.149,1.41
	c-0.285,0.221-0.574,0.444-0.877,0.658c-0.129,0.09-0.158,0.268-0.068,0.4c0.092,0.13,0.269,0.16,0.398,0.07
	c0.307-0.217,0.602-0.443,0.896-0.672c0.664-0.509,1.29-0.992,2.043-1.343c0.878-0.411,1.836-0.696,2.762-0.971
	c0.398-0.118,0.799-0.235,1.191-0.365c3.923-1.278,8.189-1.411,11.707-0.368c5.097,1.51,9.171,4.604,13.214,10.029
	c4.241,5.691,8.919,10.102,13.917,13.115c-0.779,0.068-1.561,0.146-2.321,0.22c-4.065,0.397-7.903,0.776-11.81-0.261
	c-3.606-0.952-6.494-3.008-9.366-6.661c-0.818-1.038-1.575-2.161-2.308-3.25c-1.113-1.652-2.268-3.365-3.676-4.845l-0.377-0.401
	c-0.808-0.863-1.572-1.679-2.707-2.304c-1.629-0.898-2.939-1.428-4.248-1.719c-2.552-0.568-8.744-1.498-11.111,2.148
	c-0.088,0.133-0.049,0.311,0.082,0.398c0.132,0.088,0.311,0.051,0.395-0.082c2.176-3.347,8.079-2.445,10.518-1.904
	c1.254,0.279,2.517,0.793,4.096,1.662c1.054,0.58,1.753,1.328,2.564,2.195l0.379,0.401c1.375,1.447,2.515,3.138,3.616,4.772
	c0.737,1.095,1.5,2.226,2.331,3.283c2.954,3.758,5.938,5.875,9.672,6.863c4.006,1.061,8.074,0.662,12.01,0.275
	c1.054-0.103,2.144-0.211,3.217-0.287c0.123-0.01,0.229-0.102,0.257-0.227c0.026-0.123-0.031-0.25-0.14-0.312
	c-5.229-2.98-10.119-7.499-14.535-13.428c-4.121-5.529-8.288-8.688-13.51-10.236c-3.625-1.074-8.015-0.939-12.045,0.373
	c-0.388,0.128-0.783,0.245-1.177,0.361C193.036,31.134,192.329,31.343,191.639,31.608"/>
<path fill="#613C1C" d="M201.938,20.07c-1.201,0.462-2.379,1.025-3.32,1.754c-0.312,0.242-0.783,0.535-1.281,0.843
	c-1.096,0.677-2.459,1.519-3.123,2.438c-0.092,0.128-0.065,0.307,0.062,0.402c0.128,0.094,0.306,0.067,0.399-0.06
	c0.599-0.828,1.91-1.639,2.963-2.29c0.533-0.329,0.994-0.616,1.33-0.874c1.624-1.259,4.049-2.015,5.998-2.624l0.515-0.161
	c2.495-0.786,4.94-1.529,7.425-1.982c7.807-1.423,15.602,0.834,23.139,3.017l0.809,0.234c0.547,0.16,1.089,0.318,1.627,0.477
	c2.963,0.873,5.76,1.696,8.859,2.124c0.607,0.083,1.203,0.172,1.787,0.26c2.957,0.444,5.763,0.863,8.894,0.341
	c-2.174,2.5-5.601,5.016-8.604,6.278l-1.328,0.562c-3.908,1.658-7.946,3.369-12.086,3.852l-0.725,0.084
	c-2.427,0.287-4.938,0.583-7.271,0.494c-2.381-0.088-4.586-0.561-6.918-1.059l-1.652-0.35c-4.646-0.982-4.924-1.041-10.042-2.709
	c-0.149-0.05-0.31,0.034-0.356,0.184c-0.049,0.152,0.034,0.314,0.186,0.363c5.146,1.678,5.521,1.756,10.102,2.725l1.649,0.352
	c2.358,0.504,4.586,0.977,7.017,1.07c2.379,0.09,4.909-0.209,7.358-0.498l0.724-0.086c4.221-0.489,8.299-2.221,12.239-3.891
	l1.327-0.561c3.381-1.422,7.134-4.261,9.336-7.066c0.074-0.094,0.082-0.225,0.018-0.329c-0.064-0.104-0.186-0.156-0.304-0.131
	c-3.353,0.723-6.192,0.297-9.483-0.195c-0.586-0.088-1.182-0.177-1.793-0.262c-3.057-0.42-5.836-1.239-8.775-2.106
	c-0.538-0.159-1.081-0.319-1.631-0.477l-0.807-0.233c-7.603-2.203-15.461-4.479-23.398-3.031c-2.518,0.459-4.981,1.207-7.492,1.998
	l-0.514,0.161C203.901,19.387,202.913,19.695,201.938,20.07"/>
<path fill="#613C1C" d="M189.583,33.962c-1.541,0.594-2.094,1.195-2.137,1.244l0.426,0.387c0.021-0.021,2.117-2.238,9.875-2.24
	c7.205-0.003,12.531,5.826,16.42,10.082c0.363,0.4,0.714,0.783,1.048,1.141c3.973,4.266,13.556,10.379,18.95,9.875l-0.059-0.574
	c-5.041,0.474-14.537-5.461-18.479-9.692c-0.332-0.356-0.68-0.739-1.043-1.136c-3.738-4.094-9.385-10.273-16.842-10.271
	C193.694,32.778,191.136,33.364,189.583,33.962"/>
<path fill="#613C1C" d="M202.679,22.32c-9.036,3.478-14.09,10.964-14.146,11.05l0.475,0.323c0.059-0.091,6.125-9.065,16.821-11.771
	c10.608-2.683,22.325,0.519,29.325,2.431l0.504,0.136c7.283,1.988,18.564,1.643,23.221-0.696l-0.26-0.516
	c-4.549,2.296-15.641,2.615-22.814,0.658l-0.504-0.137c-7.056-1.928-18.861-5.154-29.613-2.434
	C204.64,21.629,203.637,21.952,202.679,22.32"/>
<path fill="#613C1C" d="M198.612,26.104c-0.943,0.363-1.823,0.731-2.631,1.104c-1.309,0.602-2.373,1.363-3.5,2.17
	c-0.231,0.165-0.465,0.334-0.705,0.502c-0.707,0.497-1.297,1.097-1.868,1.676c-0.474,0.48-0.921,0.934-1.423,1.327
	c-0.125,0.097-0.146,0.278-0.049,0.403c0.097,0.125,0.274,0.152,0.4,0.053c0.531-0.415,1.012-0.903,1.479-1.375
	c0.553-0.562,1.125-1.143,1.791-1.611c0.24-0.169,0.475-0.337,0.709-0.504c1.104-0.791,2.146-1.537,3.406-2.117
	c1.594-0.736,3.475-1.457,5.584-2.149c3.125-1.023,6.115-1.052,9.926-0.768c0.862,0.065,1.74,0.235,2.592,0.399
	c0.638,0.122,1.297,0.249,1.949,0.333c1.594,0.204,3.217,0.487,4.787,0.758c1.469,0.257,2.991,0.522,4.494,0.723
	c1.887,0.252,3.789,0.607,5.633,0.951c2.678,0.5,5.451,1.013,8.223,1.229c5.133,0.4,9.641-0.41,14.189-2.549
	c0.452-0.214,0.938-0.411,1.452-0.624c1.345-0.549,2.729-1.119,3.746-2.015c0.119-0.104,0.13-0.287,0.024-0.407
	c-0.101-0.119-0.281-0.131-0.4-0.027c-0.945,0.833-2.288,1.383-3.587,1.915c-0.522,0.216-1.013,0.416-1.479,0.636
	c-4.455,2.098-8.873,2.89-13.906,2.498c-2.742-0.213-5.498-0.727-8.164-1.222c-1.85-0.345-3.76-0.701-5.66-0.955
	c-1.492-0.2-3.006-0.465-4.473-0.719c-1.575-0.274-3.205-0.557-4.811-0.763c-0.636-0.082-1.285-0.207-1.915-0.328
	c-0.866-0.167-1.762-0.339-2.655-0.406c-3.881-0.29-6.932-0.259-10.146,0.794C200.561,25.384,199.553,25.741,198.612,26.104"/>
<path fill="#613C1C" d="M200.295,1.1c-0.116,0.045-0.194,0.167-0.18,0.299c0.006,0.041,0.394,4.096-4.011,9.276
	c-3.471,4.085-8.979,12.163-6.862,20.376c0.039,0.154,0.195,0.247,0.348,0.208c0.154-0.042,0.244-0.195,0.203-0.352
	c-2.051-7.958,3.347-15.856,6.748-19.855c4.576-5.387,4.162-9.539,4.142-9.714c-0.019-0.157-0.159-0.272-0.315-0.255
	C200.343,1.085,200.318,1.091,200.295,1.1"/>
<path fill="#613C1C" d="M191.362,32.792c-2.201,0.848-3.558,1.727-3.589,1.749c-0.132,0.086-0.168,0.264-0.081,0.397
	c0.087,0.133,0.264,0.17,0.395,0.086c0.074-0.051,7.461-4.834,15.83-2.643c7.893,2.066,11.568,6.921,14.812,11.202
	c0.248,0.327,0.494,0.653,0.741,0.974c3.556,4.641,9.335,8.484,14.382,9.562c0.153,0.033,0.306-0.064,0.337-0.221
	c0.032-0.156-0.068-0.31-0.223-0.343c-4.922-1.052-10.568-4.81-14.047-9.348c-0.246-0.321-0.49-0.646-0.739-0.974
	c-3.3-4.355-7.039-9.293-15.123-11.41C199.056,30.517,194.402,31.622,191.362,32.792"/>
<path fill="#613C1C" d="M195.936,28.794c-3.875,1.49-6.4,3.514-6.443,3.549c-0.123,0.1-0.142,0.281-0.043,0.405
	c0.1,0.123,0.28,0.144,0.402,0.043c0.071-0.058,7.221-5.773,15.889-4.894c5.778,0.587,10.197,1.467,14.472,2.322
	c2.286,0.454,4.446,0.886,6.719,1.252c6.897,1.111,23.306,0.591,29.976-5.647c0.115-0.108,0.121-0.289,0.014-0.407
	c-0.108-0.116-0.289-0.123-0.402-0.017c-6.531,6.108-22.695,6.599-29.502,5.501c-2.263-0.365-4.417-0.793-6.697-1.248
	c-4.287-0.854-8.721-1.739-14.527-2.331C202.102,26.95,198.68,27.738,195.936,28.794"/>
<path fill="#613C1C" d="M190.424,34.13c-0.139,0.053-0.213,0.209-0.166,0.355c0.047,0.151,0.207,0.236,0.357,0.188
	c0.086-0.026,8.768-2.652,15.385,3.786c1.588,1.543,3.019,3.24,4.401,4.883c4.527,5.381,9.211,10.943,19.938,11.482
	c0.16,0.008,0.291-0.113,0.298-0.273c0.007-0.157-0.116-0.293-0.273-0.303c-10.481-0.525-14.877-5.748-19.53-11.277
	c-1.393-1.652-2.832-3.361-4.439-4.928c-6.867-6.678-15.863-3.948-15.952-3.92C190.437,34.124,190.43,34.128,190.424,34.13"/>
<path fill="#5B6A74" d="M5.236,26.408c-0.48,0.006-0.9-0.03-0.72-0.046c-0.979,0.044-1-0.006-1.126,0.079
	c-0.629,0.042-1.3-0.016-0.585-0.05l-1.812,0.052l1.084,0.013C1.781,26.525,0.344,26.434,0,26.516l1.963-0.007l-0.099,0.024
	c0.447-0.026,1.315-0.015,1.617-0.005c-0.048,0.011-0.017,0.03-0.363,0.032c2.368,0.005,0.638-0.123,2.603-0.146
	C5.6,26.416,5.448,26.414,5.236,26.408z"/>
<path fill="#5B6A74" d="M7.25,26.58l0.826-0.088l1.387,0.023c0.015-0.031,1.026-0.056,0.342-0.083
	c-0.134,0.005-0.398,0.014-0.612,0.011c0.155-0.066,1.844-0.033,1.437-0.1c-1.097,0.018-1.265,0.002-1.94,0.056
	c-1.005-0.006-1.737-0.021-2.207-0.045c-0.298,0.01-0.34,0.051-0.719,0.059l0.258-0.002l0.041,0.099
	c0.316-0.021,0.616-0.011,0.966-0.013l-1.624,0.116c0.524,0.092,2.119,0.038,2.756,0.077C7.369,26.606,8.789,26.648,7.25,26.58z"/>
<path fill="#5B6A74" d="M127.026,25.836c0.347-0.002,0.446-0.025,0.497-0.037l-3.885,0.002c0.121,0.026,1.24,0.058,0.493,0.074
	c0.333,0.029,1.349,0.004,1.495-0.031l-0.281,0.04c0.896-0.051,1.507,0.049,0.924,0.079h0.075l2.479-0.196
	C127.914,25.754,128.123,25.833,127.026,25.836z"/>
<path fill="#5B6A74" d="M177.822,25.936c-0.503,0.009-0.564,0.019-0.508,0.028C177.495,25.957,177.667,25.948,177.822,25.936z"/>
<path fill="#5B6A74" d="M129.402,25.72l0.777-0.061C129.869,25.675,129.595,25.698,129.402,25.72z"/>
<path fill="#5B6A74" d="M124.022,26.653c-0.001,0.002-0.009,0.006,0.011,0.01l0.35-0.031h-0.01
	C124.245,26.639,124.128,26.646,124.022,26.653z"/>
<path fill="#5B6A74" d="M140.034,25.49l0.254-0.004C140.195,25.486,140.111,25.488,140.034,25.49z"/>
<path fill="#5B6A74" d="M113.498,27.003l1.727-0.059c-0.23,0.028,0.604,0.02,0.24,0.052c0.132-0.005,0.748-0.016,0.58-0.03
	l-0.352,0.002c0.91-0.082,0.358-0.113,1.869-0.175c-0.938-0.048-1.35-0.004-1.847,0.033c-0.167,0.005-0.308,0.008-0.45,0.011
	l-1.438,0.114L113.498,27.003z"/>
<path fill="#5B6A74" d="M175.751,26.397l-0.019,0.007C175.75,26.402,175.753,26.399,175.751,26.397z"/>
<path fill="#5B6A74" d="M175.657,26.43l0.076-0.025C175.64,26.417,175.284,26.429,175.657,26.43z"/>
<path fill="#5B6A74" d="M129.117,25.773c0.025-0.015,0.125-0.034,0.285-0.053l-0.578,0.046
	C128.906,25.767,129.015,25.77,129.117,25.773z"/>
<path fill="#5B6A74" d="M127.8,25.951l-1.456,0.012l-0.537,0.042C126.365,25.988,127.015,25.977,127.8,25.951z"/>
<path fill="#5B6A74" d="M137.734,25.441c3.015-0.012-0.74,0.097,0.644,0.119c0.838-0.011,1.133-0.057,1.656-0.071
	c-2.393,0.039,0.322-0.149-2.088-0.125c0.342-0.082,1.739-0.09,2.557-0.068c0.926,0.08-0.809,0.059-1.02,0.136
	c0.968-0.013,0.798-0.027,1.209-0.071c1.519,0.019,3.143-0.097,4.051,0.012c1.099-0.017,1.026-0.055,1.658-0.097
	c0.127-0.084-1.636-0.044-2.043-0.111c0.084,0.008,0.25,0.022,0.201,0.034l-0.949-0.019c0.902,0.03-0.126,0.085-0.608,0.092
	c-0.351,0.002-1.049,0.005-0.952-0.019l0.53-0.018c-0.684-0.027-1.509,0.062-2.229,0.016c-0.038-0.019,0.234-0.028,0.277-0.039
	c-0.811,0.058-1.591,0.054-2.789,0.095l0.695-0.084c-0.959,0.094,3.872,0.067,2.368,0.018c0.167,0.014,0.468,0.024,0.287,0.041
	c-0.883,0.02-1.55-0.038-1.142-0.082c-0.861,0.07-3.286-0.058-4.462,0.032l-5.406,0.427c0.203-0.011,0.419-0.019,0.644-0.023
	c0.49,0.074,0.755,0.064-0.105,0.134c0.846-0.039,0.523-0.098,1.792-0.101c-0.497,0.037-0.623,0.122,0.593,0.13
	c3.043-0.074,5.059-0.284,7.898-0.391c0.104,0.057-4.666,0.042-3.581,0.055c-0.413,0.061,5.781,0.079,4.946,0.091
	c0.524,0.004-5.573,0.005-4.904,0.008L137.734,25.441z"/>
<path fill="#5B6A74" d="M137.671,25.633c0.075,0.006,0.155,0.008,0.235,0.011C137.864,25.639,137.793,25.635,137.671,25.633z"/>
<path fill="#5B6A74" d="M142.112,25.552c-0.01,0.002-0.006,0.004-0.01,0.006l0.264-0.004L142.112,25.552z"/>
<path fill="#5B6A74" d="M129.831,25.901c-0.181,0.016-0.315,0.021-0.495,0.037c0.111-0.005,0.252-0.01,0.386-0.015
	C129.849,25.916,129.91,25.908,129.831,25.901z"/>
<path fill="#5B6A74" d="M129.222,25.801l0.097-0.023c-0.077-0.003-0.132-0.003-0.202-0.005
	C129.096,25.785,129.119,25.796,129.222,25.801z"/>
<path fill="#5B6A74" d="M149.252,25.956l0.289-0.012C149.368,25.945,149.292,25.95,149.252,25.956z"/>
<path fill="#5B6A74" d="M141.092,25.539c-1.049,0.005-0.126,0.085-1.609,0.085l0.436,0.005c-1.064,0.036,4.066,0.02,2.802,0.022
	c0.143-0.034-0.767-0.041-0.618-0.094c-0.865,0.013-1.721,0.024-2.165,0.079c-0.536-0.018-1.349,0.03-2.03,0.008
	c0.287,0.032-0.97,0.107,0.688,0.068c-0.135,0.004-0.051,0.012-0.183,0.016c1.067,0.045,1.495-0.03,2.415-0.031
	c0.549,0.031-0.898,0.05-0.38,0.063c1.147-0.029-3.398,0.038-3.474-0.08c0.834-0.009,0.949,0.017,1.199,0.039
	c1.322-0.126,4.904,0.054,4.892-0.107c-0.482,0.006-1.268,0.003-1.976,0.038L141.092,25.539z"/>
<path fill="#5B6A74" d="M131.59,25.893c0.064,0,0.15,0,0.205,0.001C131.735,25.894,131.66,25.893,131.59,25.893z"/>
<path fill="#5B6A74" d="M118.363,25.427l0.438-0.105c2.496-0.025,3.397,0.005,5.581,0c0.166,0.014-0.098,0.023-0.232,0.028
	c1.533-0.012,3.83,0.01,4.946-0.039c0.489,0.001,1.771,0.035,1.286,0.065c0.237-0.009,0.509-0.018,0.782-0.015
	c0.071,0.038-0.612,0.011-0.627,0.042c0.216,0.003,0.3,0.009,0.35-0.002c-0.364,0.033,0.378,0.128-1.321,0.125
	c-0.658-0.088,1.179-0.01,0.791-0.107c-0.564-0.001-0.499,0.037-0.547,0.049c-0.718-0.002-0.699-0.027-0.661-0.049
	c-0.274,0.03-1.179-0.012-1.559,0.034c-1.397,0.007,0.075-0.073-0.837-0.073l-0.527,0.099l-1.516-0.019
	c-2.196,0.035,0.314,0.17-2.196,0.227c0.329-0.051-0.678-0.138-1.847-0.159c0.7-0.003,1.992-0.068,2.896-0.039
	c-1.273-0.078,1.75-0.009,1.091-0.098c-0.629,0.042-1.678,0.047-2.496,0.025l0.268-0.009c-0.867-0.011-1.526,0.092-2.727,0.053
	c-0.596,0.003-0.484-0.025-0.379-0.048C118.815,25.43,118.364,25.449,118.363,25.427z M119.662,25.407l0.797,0.009
	C120.269,25.4,119.972,25.401,119.662,25.407z"/>
<path fill="#5B6A74" d="M18.405,26.568l-0.243-0.008C18.216,26.563,18.307,26.565,18.405,26.568z"/>
<path fill="#5B6A74" d="M89.199,26.605l-0.461-0.003C88.918,26.605,89.066,26.605,89.199,26.605z"/>
<path fill="#5B6A74" d="M78.831,26.931l-0.676,0.023C78.422,26.953,78.63,26.943,78.831,26.931z"/>
<path fill="#5B6A74" d="M23.913,26.574l0.023,0.001c0.038-0.001,0.067-0.003,0.107-0.005L23.913,26.574z"/>
<path fill="#5B6A74" d="M58.033,26.7c-0.103-0.008-0.218-0.016-0.375-0.022C57.676,26.688,57.817,26.695,58.033,26.7z"/>
<polygon fill="#5B6A74" points="78.955,26.926 78.914,26.925 78.831,26.931 "/>
<path fill="#5B6A74" d="M93.767,26.893c0.1-0.003,0.189-0.006,0.296-0.01C93.923,26.885,93.837,26.889,93.767,26.893z"/>
<path fill="#5B6A74" d="M93.116,26.613c0.106-0.003,0.208-0.005,0.288-0.01L93.116,26.613z"/>
<path fill="#5B6A74" d="M109.091,26.805l0.623-0.014C109.408,26.792,109.226,26.798,109.091,26.805z"/>
<path fill="#5B6A74" d="M94.762,26.678c0.036-0.005,0.071-0.009,0.097-0.014C94.773,26.667,94.731,26.673,94.762,26.678z"/>
<polygon fill="#5B6A74" points="14.453,26.273 14.49,26.273 14.505,26.262 "/>
<path fill="#5B6A74" d="M12.94,26.417l-0.548,0.008C12.596,26.426,12.793,26.422,12.94,26.417z"/>
<path fill="#5B6A74" d="M48.999,26.541c-0.165-0.013-0.552-0.031-0.372-0.047C48.312,26.515,48.333,26.564,48.999,26.541z"/>
<path fill="#5B6A74" d="M17.484,25.656c-0.099,0.014-0.223,0.023-0.346,0.034C17.368,25.676,17.57,25.664,17.484,25.656z"/>
<path fill="#5B6A74" d="M17.138,25.69c-0.113,0.007-0.235,0.014-0.337,0.022C16.919,25.706,17.033,25.698,17.138,25.69z"/>
<path fill="#5B6A74" d="M53.188,25.723c0.042,0.007,0.105,0.012,0.191,0.015C53.353,25.724,53.284,25.721,53.188,25.723z"/>
<path fill="#5B6A74" d="M11.952,26.41c-0.099,0.023-2.475,0.074-0.476,0.086c-0.078,0.073-1.282,0.034-1.814,0.052
	c0.386,0.017-0.193,0.047-0.076,0.073c0.265-0.009,0.579-0.03,1.016-0.025c0.201,0.033-0.461,0.056-0.98,0.043
	c0.638,0.039-0.81,0.059,0.094,0.088c1.929-0.027,3.292-0.053,4.649-0.16c-1.099,0.018-2.331,0.04-3.232,0.01l0.379-0.064
	c1.02,0.056,1.649,0.014,2.651,0.021l-2.253-0.034c-1.055-0.052-0.348-0.064,0.482-0.076C12.189,26.424,12.004,26.42,11.952,26.41z"
	/>
<path fill="#5B6A74" d="M13.469,25.854l-0.038-0.002c-0.033,0.002-0.073,0.004-0.094,0.007L13.469,25.854z"/>
<path fill="#5B6A74" d="M108.977,25.524l0.194-0.024C109.009,25.512,108.958,25.519,108.977,25.524z"/>
<path fill="#5B6A74" d="M14.813,26.161h-0.002C14.826,26.16,14.83,26.16,14.813,26.161z"/>
<path fill="#5B6A74" d="M104.164,25.52c0.007-0.002,0.013-0.004,0.025-0.005C104.172,25.516,104.172,25.518,104.164,25.52z"/>
<path fill="#5B6A74" d="M102.876,26.884c0.009,0.003,0.012,0.006,0.033,0.008C103.012,26.889,102.962,26.886,102.876,26.884z"/>
<path fill="#5B6A74" d="M104.16,25.525c0-0.002-0.003-0.003,0.004-0.005C104.16,25.521,104.152,25.523,104.16,25.525z"/>
<path fill="#5B6A74" d="M80.752,25.758c0,0,0.073,0.011,0.191,0.021C80.987,25.773,80.943,25.766,80.752,25.758z"/>
<path fill="#5B6A74" d="M85.374,25.852l0.084,0.007L85.374,25.852z"/>
<path fill="#5B6A74" d="M50.091,26.826c0.229,0.001,0.401,0,0.545-0.003C50.469,26.822,50.289,26.822,50.091,26.826z"/>
<path fill="#5B6A74" d="M104.189,25.514c0.049-0.007,0.117-0.014,0.23-0.022C104.294,25.5,104.229,25.507,104.189,25.514z"/>
<path fill="#5B6A74" d="M73.708,26.077l0.142-0.007c-0.027-0.001-0.057-0.001-0.084-0.003L73.708,26.077z"/>
<path fill="#5B6A74" d="M71.296,26.031c0.082-0.007,0.12-0.015,0.166-0.021c-0.86,0.026-2.441-0.003-2.628,0.064
	c0.292-0.001,1.806,0.038,1.548,0.077c0.6-0.016,1.487,0.031,1.81,0.02c-0.986-0.037-0.107-0.057,0.558-0.08
	c0.604,0.02-0.113,0.054,0.407,0.066l1.399-0.007l-1.219-0.009l0.37-0.065l-0.125,0.006C71.521,26.114,73.409,25.989,71.296,26.031z
	"/>
<path fill="#5B6A74" d="M71.462,26.01c0.13-0.005,0.243-0.009,0.332-0.016C71.598,25.995,71.523,26.001,71.462,26.01z"/>
<path fill="#5B6A74" d="M63.038,25.902c-0.105,0.003-0.221,0.005-0.365,0.011L63.038,25.902z"/>
<path fill="#5B6A74" d="M124.773,25.994c-0.035-0.019-1.237-0.059-1.215-0.008l1.076,0.016L124.773,25.994z"/>
<path fill="#5B6A74" d="M40.09,26.192c0.134,0.001,0.269,0.002,0.403,0c0.029-0.002,0.057-0.004,0.078-0.007
	C40.488,26.178,40.224,26.188,40.09,26.192z"/>
<path fill="#5B6A74" d="M70.01,26.175c0.22-0.007,0.319-0.016,0.372-0.024C70.239,26.156,70.107,26.163,70.01,26.175z"/>
<path fill="#5B6A74" d="M40.014,26.074c-0.17-0.015-0.421-0.036-0.457-0.055c-0.348,0-0.594,0.025-0.948,0.035
	C39.01,26.046,39.473,26.052,40.014,26.074z"/>
<path fill="#5B6A74" d="M38.58,26.055l0.029-0.001C38.599,26.054,38.59,26.055,38.58,26.055z"/>
<path fill="#5B6A74" d="M125.488,26.015l0.319-0.01l-0.165,0.014l0.826,0.015c0.1-0.003,0.207-0.006,0.34-0.008
	c-0.053,0.002-0.095,0.006-0.12,0.012l0.265,0.006c0.658-0.052,2.296-0.089,2.769-0.12c0.626-0.021,1.39-0.034,1.869-0.03
	c-0.445-0.001-1.034,0.009-0.857,0.038c0.904,0.03,1.342,0.115,2.9,0.042l-0.914,0.001l2.055-0.11
	c0.721,0.045-1.025,0.055-1.311,0.095c1.599-0.055,2.928,0.091,3.669-0.004c0.104,0.057,0.278,0.151,1.327,0.146
	c-0.754-0.065,0.63-0.041,0.009-0.111c0.363-0.032,1.171,0.021,1.231-0.021l-0.099,0.024c1.792,0.089,2.377-0.051,3.144-0.098
	c2.145-0.023-3.871,0.014-2.122,0.004c0.069,0.038,0.546,0.143,1.246,0.139c0.327-0.052,1.909-0.076,2.07-0.141
	c-1.255-0.028-1.026,0.055-1.776,0.07c-0.625-0.069-0.057-0.068-0.91-0.11c0.688,0.027,3.112-0.036,3.867,0.029l-0.266,0.009
	c1.203,0.039,1.434,0.202,3.441,0.104l0.957-0.041c-0.047,0.007-0.051,0.014-0.076,0.021c1.567,0.007,1.139,0.082,2.87,0.022
	c-0.134,0.004-0.05,0.012-0.185,0.016c0.986,0.038,1.98-0.037,2.727-0.053c0.455,0.056-0.109,0.054-0.391,0.094
	c1.735,0.021,3.608-0.073,4.687-0.141l1.118,0.033c-0.662,0.022-1.475,0.081-1.271,0.114c0.615-0.011,0.496-0.037,1.365-0.026
	c-0.148,0.035-0.514,0.068-0.922,0.112c1.799,0.059,0.402-0.125,1.661-0.017c0.565,0.001,0.894-0.05,0.956-0.093l1.023,0.056
	c0.113-0.054,1.379-0.057,2.207-0.065c0.101-0.024-0.667-0.058-0.981-0.037c0.063-0.043,0.944-0.062,1.511-0.062
	c0.207,0.113,3.713-0.017,3.041,0.117c2.547-0.037,6.125-0.048,7.805-0.096c0.555,0.032,1.686,0.034,1.008,0.087
	c2.049,0,0.105-0.116,2.141-0.085c0.169,0.014-0.918,0.001-0.848,0.04c1.33-0.046-16.578,0.047-14.516,0.018
	c-0.348,0.002-0.448,0.025-0.496,0.037c-0.037-0.019,0.846-0.039,1.378-0.058c0.3,0.01-0.398,0.014-0.231,0.029
	c3.986,0.055,7.023-0.1,10.988-0.095c-1.133-0.001-1.561,0.074-1.572,0.104l1.108,0.001c0.429-0.037,1.261-0.037,1.957-0.066
	c0.086,0.015,0.424,0.03,0.079,0.048c2.19,0.076,0.422-0.138,3.107-0.099l-0.252,0.152l-2.195,0.052l1.57,0.069
	c0.854,0.042-1.404-0.055-1.301,0.002c-0.181,0.016-0.615,0.011-0.629,0.042c0.82,0.022,0.885-0.021,1.5-0.031
	c-1.623,0.115-1.807,0.114-3.52,0.143c-0.27,0.009,0.23-0.028,0.278-0.04c-0.698,0.004-1.118-0.033-1.999-0.012
	c-0.545,0.049,0.418,0.036,0.852,0.041c-0.061,0.042-0.279,0.04-0.762,0.046c-0.104-0.057-2.65-0.02-3.273-0.089
	c-2.58,0.018,0.412,0.147-2.106,0.123l-0.753-0.065c-1.463,0.05,13.646,0.095,11.99,0.081l0.35-0.002
	c0.232-0.028-0.152-0.045-0.322-0.059c-1.25-0.028-0.374,0.051-1.131-0.014c-1.427,0.069-0.806,0.121-2.436,0.156
	c-0.44-0.086,2.127-0.073,2.806-0.126l-1.483,0c0.916-0.001,1.279-0.034,1.828-0.083c-1.301-0.016-1.729,0.059-2.961,0.081
	c0.096-0.023-0.07-0.037-0.639-0.038l-0.161,0.057c-0.011-0.005-0.073-0.009-0.249-0.012l-2.195,0.035
	c0.467,0.024,0.489,0.074,1.056,0.074c-0.202-0.033,0.278-0.04,0.845-0.039c-0.496,0.037,0.555,0.031,0.542,0.062
	c-1.138-0.001-2.534,0.006-3.28,0.021l-0.242-0.052c-1.084-0.014-2.229,0.016-2.963,0.001l0.23-0.028
	c-1.301-0.017-2.58,0.018-3.736-0.034c-1.16,0.06-2.619,0.109-3.568,0.173c-0.508,0.067-3.404-0.085-4.711,0.01
	c-0.088-0.007,0.898-0.051,1.345-0.077c-0.87-0.01-1.563,0.073-1.835,0.003c1.952,0.024-0.105-0.057,0.774-0.078
	c-0.913,0.001-1.878,0.015-2.326,0.04c1.479,0-0.525,0.099,0.972,0.068c-1.159,0.06-2.743,0.083-4.127,0.061
	c0.014-0.031-0.156-0.045-0.672-0.058l-0.416,0.044c-0.647-0.007,1.251-0.052-0.052-0.068c-1.341,0.076-4.036-0.043-4.623,0.097
	c-1.021-0.056,1.944-0.057,0.405-0.125c0.895-0.051,2.131,0.008,2.426-0.063c-0.879,0.021-0.32-0.059-0.887-0.06l-0.979,0.043
	l0.218,0.002c-1.645,0.067-4.248,0.034-6.345,0.045c-1.776,0.071,3.999,0.173,1.866,0.166c0.63-0.042-1.77-0.04-0.428-0.116
	c-0.985-0.037-1.96,0.007-1.979,0.037c0.868,0.01,0.306,0.01,1.036,0.025c-0.493,0.037-1.63,0.035-2.098,0.011
	c0.216,0.003,0.135-0.004,0.183-0.016c-1.036-0.025-0.497,0.037-1.246,0.052c-0.237-0.052-1.653-0.014-2.337-0.041l-0.992,0.074
	c0.545-0.049-0.95-0.018-1.106-0.062c-0.711,0.035-1.308,0.095-2.39,0.082c0.446-0.025-0.988-0.037-1.008-0.086
	c-1.854-0.048-3.07,0.135-4.826,0.064c0.055-0.012,0.409-0.045-0.104-0.057c-0.405,0.014-1.112,0.008-1.545,0.014l0.014-0.001
	l-0.023,0.001c-0.212,0.002-0.344,0.009-0.351,0.021c-0.74,0.048-1.122,0.098-2.579,0.139c0.107,0.056,1.338,0.035,1.87,0.016
	l0.46-0.056c0.439,0.086,1.314-0.015,1.65,0.014c-0.875,0.101-3.393,0.075-4.902,0.138c0.921,0.079,2.924,0.091,4.672,0.082
	l-0.77-0.034l0.914-0.001l-0.885-0.061c0.865,0.011,1.615-0.005,2.396-0.001c-0.916,0.001-1.272-0.077-0.754-0.064
	c1.021,0.056,1.064-0.037,1.846-0.033c-0.435-0.005-1.001-0.006-0.637-0.039c1.541,0.068,1.955,0.023,3.356,0.097
	c-0.174-0.095,1.75-0.01,1.959-0.088l-0.649-0.007l1.378-0.057c1.271,0.077-1.127,0.079,0.81,0.133
	c1.785,0.009,1.739-0.09,3.143-0.097c-0.462,0.056-1.575,0.104-2.708,0.103l0.686,0.026c-0.363,0.033-1.93,0.026-2.712,0.022
	c1.292-0.064-0.604-0.02-1.191-0.07c-0.109,0.054,0.722,0.045-0.259,0.089c0.918-0.001,1.051-0.006,2.22,0.014
	c-2.523-0.024-2.27,0.189-4.473,0.143c1.016-0.024-0.354-0.078-0.476-0.104c-0.478,0.006-1.447,0.019-1.846,0.032l0.36,0.079
	c-1.282,0.034-1.729-0.133-3.209-0.052c-0.193,0.047,1.303,0.016,1.036,0.025c-2.026,0.05-2.757-0.077-4.556-0.136
	c-0.102,0.024-0.08,0.073-0.709,0.115c0.197-0.047-0.27-0.071,0.439-0.105c-0.602-0.02-1.314,0.015-1.846,0.033
	c1.253,0.027-0.512,0.067-0.742,0.096c-0.648-0.008,0.197-0.047,0.596-0.061c-0.52-0.012-1.139-0.081-1.435-0.011
	c-0.021-0.05,1.456-0.13,2.421-0.144l-0.65-0.007c0.449-0.025,0.533-0.018,1.179-0.011c-0.634-0.038-0.571-0.081-0.424-0.115
	c0.084,0.006-0.046,0.011,0.034,0.018c0.52,0.013,0.918,0,0.799-0.027c0.468-0.067-0.722-0.042-1.074-0.075l-0.795,0.013
	l-2.701,0.213c-1.156,0.025-1.674-0.026-2.543-0.059l-0.236,0.057c-1.006-0.005-1.953-0.024-1.31-0.096
	c0.036,0.019,0.168,0.015,0.386,0.018c0.029-0.008,0.08-0.014,0.143-0.018c0.021-0.003,0.033-0.007,0.051-0.01
	c-1.076,0.018-1.748,0.03-1.811,0.033c1.827-0.083,0.092-0.104,0.397-0.205l-1.845,0.033c1.118,0.032,0.02,0.049-0.377,0.063
	c-0.109-0.057-1.486,0-2.134-0.007l0.048-0.012c-0.6-0.02-1.65-0.015-2.397,0.001c0.034,0.019-0.925,0.112-1.384,0.168
	c1.281,0.022,0.52,0.045,0.623,0.08c-0.133-0.003-0.371-0.004-0.398,0.003c-0.184,0.016,0.249,0.021,0.285,0.041
	c1.363-0.026,2.764-0.034,3.32-0.113c-0.418-0.036-0.713,0.035-1.182,0.01c0.676-0.054,1.547-0.042,2.68-0.042l0.371,0.048
	l1.139-0.026c-0.475,0.025-0.189,0.075-1.385,0.085c0.153,0.044,1.186-0.01,1.918,0.004L110,26.831
	c-0.145,0.035,1.422,0.042,0.309,0.09l-1.811,0.052l0.504,0.043l-1.531,0.013l0.36-0.033c-2.46,0.043-0.726-0.126-3.201-0.052
	c-0.776,0.077-1.608,0.085-3.126,0.066c1.098-0.017,0.111-0.054,0.525-0.098c-1.121-0.033-1.498,0.03-2.079,0.061
	c-0.285-0.041-0.489-0.074,0.512-0.068c0.126-0.085-1.315,0.015-1.407-0.073c-3.314,0.003-2.656,0.282-6.529,0.173l0.145-0.036
	c-2.461,0.043-3.881,0.001-6.159,0.029l-1.793-0.089c0.401-0.014,1.479-0.081,0.976-0.124c0.873,0.09,1.8,0.059,2.739,0.107
	c0.098-0.023-0.287-0.041-0.453-0.055c0.566,0,0.851,0.041,1.601,0.025c-0.036-0.019-0.854-0.041-0.237-0.052l1.019,0.056
	c1.364-0.026,0.672-0.133,2.274-0.108c-0.298,0.05-0.906,0.122-1.526,0.134c0.731,0.011-0.977,0.03-0.309,0.06
	c1.055-0.074,1.564-0.015,2.967-0.062c-0.164,0.01-0.209,0.025-0.553,0.029l2.035,0.031c-0.504-0.043,1.68-0.047,1.49-0.112
	c-2.168-0.026-1.531,0.012-4.002-0.024c0.699-0.015,1.602-0.08,2.024-0.14c0.021,0.002,0.057,0.004,0.132,0.005
	c0.378-0.063-0.006-0.08,0-0.191c-1.127,0.079-1.881,0.014-3.211,0.059c-0.251,0.061,0.771,0.078,1.433,0.062l-1.173,0.04
	l0.23-0.028l-2.975-0.021c0.564-0.003,0.756-0.039,1.049-0.065c-0.383-0.002-0.763-0.019-1.168-0.036
	c0.086,0.059,0.031,0.099-0.342,0.098c-1.915-0.014-2.979-0.066-3.686-0.132l-0.222,0.004c0.321,0.059-1.359,0.106-1.953,0.167
	c0.029-0.061-0.986-0.037-1.538-0.068c-0.294,0.07,0.099,0.167,0.77,0.225c1.294-0.064,0.726-0.065,1.336-0.156l2.077-0.062
	l-0.464,0.057c1.036,0.024,2.031-0.05,1.955,0.023c-0.547,0.048-1.452,0.019-1.995,0.068l0.686,0.027
	c-1.21,0.072-0.621-0.069-2.085-0.019c0.539,0.062-0.132,0.004-0.759,0.046c0.503,0.043,2.578-0.018,2.138,0.088
	c-0.762,0.046-2.562-0.124-3.568-0.019l0.048-0.012c-1.485-0.014-2.007,0.047-2.564,0.085c-0.632-0.035-1.505,0.014-2.191,0.018
	l0.017-0.031l-0.967,0.013c0.46-0.057,1.133,0.001,1.963-0.007l-0.103-0.057c0.958,0.068,1.596-0.035,2.339-0.085
	c-1.081,0.05-3.052-0.013-3.306,0.098l-0.669-0.058l-0.319,0.021c-0.5-0.043,0.01-0.111,0.975-0.125
	c0.168,0.015,0.252,0.022,0.202,0.034c0.449-0.026,0.86-0.07,1.944-0.057l-0.579,0.03c1.351,0.004,2.58-0.018,3.042-0.075
	c-1.95-0.023-3.868-0.028-5.699-0.025c-0.539,0.129-1.181,0.202-1.456,0.321c-1.229,0.022-2.897,0.039-3.964-0.005l0.099-0.023
	c-0.521-0.013-1-0.006-1.401,0.007c-0.549-0.031,0.377-0.063-0.006-0.081l-1.76,0.041c0.109-0.054,1.59-0.055,2.292-0.058
	c-0.132,0.004-0.4,0.013-0.314,0.02c0.818,0.023,2.342-0.07,2.7,0.009c0.398-0.013-0.81,0.058,0.539,0.062
	c0.904,0.03,1.198-0.041,1.292-0.064c0.015-0.031-1.418-0.042-0.921-0.08c-0.703,0.004-0.982,0.043-1.881,0.014
	c0.696-0.003,1.643-0.066,2.014-0.018c1.378-0.057,1.181-0.202,0.531-0.209c0.155,0.044-2.513,0.056-0.707,0.114
	c-0.812,0.059-2.295,0.059-3.356,0.095l0.048-0.012l-1.318,0.014c0.186-0.016,0.584-0.03,0.597-0.06l-1.825,0.082
	c1.028-0.056-0.638-0.039-1.105-0.063c-0.195,0.047-0.908,0.082-0.225,0.108c0.77,0.034,0.448-0.025,1.147-0.029l-0.99,0.074
	l-0.086-0.007l-0.596,0.061c-1.349-0.004,0.589-0.141-1.139-0.082l0.224,0.083c-2.001-0.013-4.573-0.105-5.986-0.067
	c0.39-0.047,0.562-0.123,0.025-0.167c0.611,0.014,1.835,0.011,2.71,0.003c0.169,0.015-1.093,0.098-2.043,0.08
	c0.461,0.135,2.391-0.083,2.502,0.056c2.42,0.047,1.806-0.132,3.861-0.052c0.027-0.062,0.583-0.03,0.692-0.084
	c-0.608-0.101-2.748,0.003-4.082-0.032c0.131-0.004,0.395-0.013,0.445-0.025c-0.952-0.019-1.347-0.004-2.013,0.018l0.084,0.008
	c-1.163,0.06-0.721-0.045-1.404-0.073c-0.267,0.009-1.219-0.009-1.066,0.036l-1.24-0.059l0.06,0.068
	c-0.7,0.005-0.853-0.041-1.486,0.001l-0.029,0.061l1.737,0.021c-0.881,0.02-0.246,0.059-1.212,0.071
	c1.08-0.067-0.766-0.034-0.872-0.091l-0.712,0.035l0.182-0.016c-0.558-0.031-0.665,0.023-1.317,0.015
	c0.77,0.034,1.273,0.078,2.252,0.033c-0.713,0.035-2.128,0.073-2.475,0.075c-0.749,0.026-1.271-0.021-1.972-0.028
	c1.345-0.024-0.472-0.185,2.224-0.142c-0.05,0.012-0.269,0.009-0.353,0.002c0.359,0.078,1.615-0.005,2.198-0.035
	c-0.15-0.045,0.461-0.056-0.575-0.081c0.34,0.028-0.873,0.1-1.858,0.063l0.174-0.096l-1.435-0.012l0.134-0.005
	c-0.539-0.062-1.531,0.012-2.52-0.024c-0.713,0.035-3.448,0.007-2.271,0.108c-0.887-0.061-1.666,0.017-2.632,0.03l1.206,0.04
	c-1.427,0.068-1.016,0.024-2.157,0.134c-0.115-0.026-0.369-0.048-0.138-0.076c-1.915-0.005-4.65-0.032-5.775,0.047
	c-1.351-0.004-1.562-0.118-3.457-0.073c-0.399,0.013,0.31,0.09-0.944,0.062c-0.083-0.007,1.208-0.071-0.188-0.063
	c-0.995,0.074-2.337-0.041-3.631,0.023c-0.684-0.027-1.869-0.017-1.621-0.076c1.082,0.013,2.613,0.001,2.846-0.027
	c-0.149,0.035,0.77,0.035-0.027,0.062c1.636,0.044,1.062-0.037,2.53-0.006c0.101-0.024-0.755-0.065-1.07-0.044
	c-0.006-0.08,2.895-0.039,1.59-0.135c-1.569-0.007-2.035,0.16-3.394,0.076c0.545-0.049,1.397-0.008,2.089-0.092l-1.116-0.033
	l-0.812,0.059l0.048-0.012c-1.972-0.073-1.825,0.083-3.589,0.123c1.021,0.056-0.237,0.139,0.533,0.173
	c-1.181,0.01-2.047,0-2.056-0.08c2.209-0.066,0.126-0.085,2.167-0.165c-0.335-0.029,0.487-0.118-0.73-0.126
	c-1.372,0.057,0.409,0.067-0.958,0.093c-0.081-0.007-0.165-0.014-0.117-0.026c-0.629,0.042-0.734-0.016-1.496,0.031l0.181-0.016
	c-0.938-0.049-1.026,0.055-1.833,0.002c0.323,0.06-0.542,0.049-1.042,0.085c0.818,0.023,1.261,0.108,2.876,0.104
	c0.195-0.048,0.078-0.074,0.74-0.097l-1.049,0.006c0.227-0.008,0.399-0.021,0.606-0.03l1.009,0.025
	c-1.279,0.033-0.692,0.083-1.235,0.132c-1.17-0.021-0.966,0.013-1.701-0.003c0.073-0.068-2.257-0.117-3.604-0.161
	c0.209,0.002,0.479,0,0.625,0.002c0.979-0.043-0.673-0.058-0.709-0.076l-0.713,0.034c0.134-0.005,0.319-0.021,0.015-0.031
	c-0.965,0.013-0.908,0.082-1.873,0.094c-0.071-0.038,0.743-0.096,0.144-0.115c-0.207-0.033-0.865-0.122-2.145-0.088
	c-0.091,0.015-0.424,0.023-0.808,0.029c0.052-0.002,0.119-0.003,0.145-0.006l-0.852-0.042c0.726-0.064,1.466,0.031,2.194-0.034
	l0.063-0.062c0.566,0,1.336-0.026,1.691-0.059c-0.864-0.01-1.047,0.006-2.014,0.019c-0.134-0.039,0.545-0.068,0.644-0.071
	l-0.145,0.035c1.154,0.051,1.724-0.059,3.159-0.047c0.216,0.002,0.084,0.006,0.036,0.019c1.162-0.06,2.301,0.022,3.43-0.057
	l-0.367,0.032c0.768-0.026,2.271-0.087,3.773-0.146l0.012-0.024c-0.167-0.014,0.397-0.014,0.7-0.004l-0.002,0
	c0.753-0.029,1.477-0.056,2.069-0.077c-0.189-0.015-0.431-0.027-0.71-0.031c-0.235,0.028-1.615,0.005-1.426,0.069
	c-0.638-0.04-1.665,0.016-2.133-0.007c0.854,0.041-0.594,0.061-0.743,0.096c-0.287-0.041-1.265,0.002-1.154-0.052
	c-0.167-0.014,0.42,0.036,0.783,0.003c0.894-0.05-1.636-0.045-0.522-0.092c-1.416,0.038-3.283,0.021-4.743,0.071l0.818,0.022
	c-0.65-0.008-2.186,0.004-2.301-0.022c0.482-0.006,1.046-0.005,1.663-0.016c0.03-0.062-1.483,0-1.552-0.038l-1.791,0.101
	l0.784,0.003c-0.495,0.038-2.135-0.007-3.352-0.016c0.697-0.083,1.835-0.002,3.115-0.035c0.929-0.032-0.575-0.082,0.306-0.102
	c-0.229-0.02-0.803-0.017-1.086,0.004l-0.346-0.016c0.785-0.076,2.544-0.059,3.716-0.124c-0.103,0.008-0.192,0.016-0.226,0.025
	c0.902,0.03,1.819,0.028,2.698,0.008c-0.464-0.023-0.648-0.007-0.915,0.001c-0.034-0.019,0.797-0.027,1.112-0.048
	c-0.818-0.021-0.153-0.044-0.671-0.058c0.533-0.018,0.965-0.012,1.614-0.004c0.336,0.028-0.278,0.039-0.21,0.077
	c0.668-0.023,0.975,0.067,1.953,0.024c-1.302-0.016,0.343-0.082,0.792-0.108l-0.218-0.002c0.412-0.045,0.762-0.046,1.048-0.006
	c-0.533,0.019-1.048,0.006-0.897,0.051c0.353-0.002,0.703-0.004,1.101-0.018l-0.363,0.033l1.75-0.009
	c0.277-0.04,0.739-0.096,0.982-0.154c0.419,0.036,1.003,0.006,1.401-0.008l-0.185,0.017c0.772,0.033,2.488,0.005,2.633-0.03
	c0.551,0.031-3.896,0.224,0,0.191c1.481,0,0.923-0.113,1.768-0.151c0,0-0.048,0.012,0.036,0.019
	c0.648,0.008,0.713-0.035,1.246-0.053c-0.388-0.017-0.952-0.017-1.133-0.001c0.195-0.047,1.349,0.004,1.846-0.033
	c-0.644,0.072,1.252,0.028,0.753,0.064c1.288,0.047,2.666-0.011,3.344-0.064c0.875,0.09,1.533-0.012,2.953,0.03
	c-0.218-0.003-0.615,0.011-0.918,0.001c-0.81,0.058,1.47,0.03,0.224,0.083c0.267-0.01,0.019-0.031-0.254-0.022
	c-0.478,0.006-0.927,0.032-0.808,0.059l1.157,0.051l-0.404,0.014l1.755,0.071c0.048-0.012-0.117-0.026-0.201-0.034
	c2.037,0.031,4.365-0.008,6.148,0.001c0.336-0.163,4.393-0.07,5.833-0.169c-0.386,0.047-0.598,0.129-0.358,0.163
	c-0.321,0.007-0.979,0.073-1.708,0.059c-0.118-0.026-1.018-0.056-0.438-0.085c-2.014,0.019,0.273,0.071-0.321,0.132
	c2.232-0.017,3.541-0.111,4.95-0.149l0.036,0.019l1.063-0.036c-0.868-0.011-0.826-0.103,0.295-0.07l-0.136,0.004
	c0.639,0.039,1.968-0.007,2.967,0l0.678-0.054c1,0.006,1.042,0.105,1.368,0.165c1.568,0.006,2.473-0.074,3.587-0.123
	c0.503,0.043,2.851,0.054,1.607,0.106c1.414-0.038,1.128-0.27,3.553-0.141l-0.629,0.041c2.318-0.008,5.625-0.091,6.693-0.047
	c-0.855,0.15,2.895,0.153,3.308,0.299c-0.115-0.033,0.755-0.045,0.883-0.062c0.191,0.017,0.507,0.034,0.845,0.003
	c-0.904-0.029,0.636-0.152-1.093-0.093c0.875-0.101,2.001-0.18,3.918-0.174l-0.03,0.061l-1.517-0.019
	c0.153,0.045-0.627,0.042-0.946,0.062c2.819,0.035-0.369,0.144,2.513,0.136c0.279-0.04,0.098-0.024,0.847-0.04
	c-0.353,0.002-0.416,0.044,0.153,0.046l0.545-0.05c1.007,0.103-1.668,0.067-0.808,0.139c-1.114,0.048-3.042,0.073-2.683,0.152
	c1.819,0.028,1.636-0.146,3.537-0.111l0.203,0.034c0.668-0.022,0.777-0.077,1.142-0.109c0.034,0.019,0.204,0.033,0.633,0.039
	c1.129-0.079,1.878-0.094,2.92-0.18c-2.772,0.064-2.369-0.061-5.231-0.003c0.449-0.026,2.463-0.044,2.586-0.129l-0.027,0.062
	c0.932-0.032,1.861-0.063,3.029-0.043l-0.713,0.034c1.547-0.042,2.573,0.093,3.796-0.009c-0.432-0.005-0.782-0.004-1.048,0.005
	c0.797-0.027,1.797-0.021,2.663-0.011l1.792-0.101c-0.016,0.031,1.119,0.032,0.572,0.081c1.29,0.046,1.898-0.045,2.645-0.06
	c1.322,0.064-1.145,0.029-1.275,0.113c1.821,0.029,3.751,0.003,4.779-0.052c-0.371-0.012-0.553-0.023-0.533-0.038
	c0.055,0.02,0.789,0.015,1.197,0.015l0.281-0.04c0.682,0.027,0.586,0.05,0.007,0.08c0.649,0.008,1.427-0.068,2.098-0.011
	c-1.112,0.048-2.528,0.006-3.108,0.036c2.324-0.039,2.338,0.122,5.283,0.071c0.037,0.02-0.461,0.056,0.105,0.057
	c1.314-0.014,0.344-0.082,0.755-0.126c-1.013,0.025-1.483,0-2.07-0.049l0.27-0.033c0.04,0.017,0.677,0.018,0.862,0.034l0.164-0.066
	c-0.075,0.072,0.941,0.128,1.741,0.101c-0.808-0.053-0.589-0.05-0.81-0.133c1.125-0.079,1.27,0.078,2.527-0.006
	c-0.094,0.023-1.193,0.041-0.243,0.058c0.786,0.003,0.682-0.053,1.21-0.072c-0.596,0.061-0.441,0.106-1.086,0.179
	c-1.396,0.007-0.564-0.001-1.93,0.025l1.156,0.052c-1.184,0.01-0.861,0.069-0.959,0.092c2.021,0.062,1.524-0.092,2.825-0.076
	c0.627-0.042-1.219-0.009-0.237-0.053c1.217,0.01,0.277-0.04,1.643-0.066l-0.229,0.028c0.418,0.037,0.83-0.008,1.312-0.014
	c0.531-0.019-0.602-0.211,1.583-0.215c-0.106,0.017-0.146,0.028-0.146,0.035l-2.131,0.511c2.213-0.001,4.764,0.013,7.326,0.047
	c0.603,0.1-1.83,0.082-1.674,0.127l-1.168-0.021c0.064-0.042,2.449-0.013,1.393-0.087c-2.064,0.03-3-0.019-4.959,0.069
	c0.609,0.1,2.58-0.019,3.854,0.059c-0.535-0.006-0.986,0.004-1.424,0.019l3.836,0.042l0.307-0.024
	c-0.918-0.011-1.553-0.02-1.635-0.023c1.217,0.008,2.243-0.047,2.322-0.12l-0.215-0.002l0.439-0.022L125.488,26.015z
	 M175.323,26.032c-0.072,0.007-0.131,0.015-0.174,0.025C175.194,26.047,175.143,26.04,175.323,26.032z M101.671,26.26
	c1.622,0.011,3.258,0.03,4.816,0.04c-2.812-0.145-4.791-0.254-0.096-0.251l0.308-0.01c-0.614-0.018-1.671-0.02-2.668-0.009
	c-0.806,0.051-3.404,0.24-3.375,0.256c0.285,0.041,0.7-0.003,1.219,0.009L101.671,26.26z M100.518,26.018
	c-0.919-0.017-0.709,0.016-0.852,0.044l0.965-0.011C100.509,26.044,100.449,26.034,100.518,26.018z M99.721,26.092
	c0.103,0.001,0.19,0.001,0.237,0.005L99.721,26.092z M117.601,26.128l-0.094,0.002l0.66,0.007
	C118.08,26.132,117.912,26.128,117.601,26.128z M115.734,26.057l-0.218,0.053l0.621,0.006
	C116.068,26.093,115.995,26.071,115.734,26.057z M109.738,25.883c-0.378,0.064-1.645,0.067-1.723,0.14
	c-0.08,0.018,0.187,0.026,0.484,0.032l1.068,0.006c0.012-0.011,0.088-0.021,0.213-0.03c-0.373-0.009-0.623-0.028-0.471-0.072
	c0.958,0.098,0.859-0.07,1.896-0.045C111.535,25.862,110.052,25.863,109.738,25.883z M30.084,26.074
	c-0.029-0.006-0.13-0.022-0.272-0.043l0.73-0.037c1.303,0.017,2.345,0.122,3.518,0.031c0.547,0.023,0.841,0.071,1.122,0.111
	c-0.268-0.003-0.52-0.007-0.729-0.013C31.167,26.255,32.74,25.983,30.084,26.074z M45.055,26.203
	c-0.134,0.005-0.182,0.017-0.182,0.017c2.909-0.135,5.305-0.174,6.874-0.168c-0.304-0.054-1.711-0.094-2.379-0.117l0.592-0.061
	l0.369,0.048l1.028-0.055c-0.287-0.041-1.118-0.032-1.671-0.064c-0.048,0.012-1.825,0.083-2.322,0.12l1.42,0.042
	c-0.384-0.017-2.268-0.002-3.014,0.013c-0.015,0.03,1.273,0.077,1.435,0.011c0.153,0.045-1.33,0.045-0.393,0.094
	c-1.112,0.048-2.88,0.007-3.701-0.014l-0.14-0.076c-0.9-0.03-0.608,0.091-1.678,0.048c1.315-0.015-0.223-0.083,0.824-0.089
	c-0.333-0.028-0.006-0.08-1.055-0.074c-0.873,0.1-1.105-0.063-1.93,0.025c-0.552-0.031,0.593-0.06-0.491-0.074
	c-1.244,0.053-1.172,0.091-1.25,0.164c1.164,0.021,1.307-0.095,2.259-0.077l-1.892,0.125c0.348,0.018,0.606,0.02,0.822,0.014
	c-0.38,0.007-0.703,0.026-0.979,0.051c-0.158,0.015-0.302,0.027-0.437,0.038c1.072,0,2.024,0.002,2.193,0.033l-0.148,0.035
	c0.379,0.033,0.999,0.008,1.284-0.019c0.96-0.003,1.919-0.053,2.129-0.007l-0.365,0.032C43.438,26.208,43.57,26.204,45.055,26.203z
	 M83.756,26.284c-0.715-0.13-1.504-0.245-4.843-0.222l0.263-0.009c-1.682-0.082-3.28,0.108-5.328,0.017
	c0.994-0.049,0.939-0.044,2.037-0.157l-1.065,0.037c0.296-0.071-0.768-0.035-1.55-0.037l0.69-0.085
	c0.47,0.024,1.687,0.033,1.651,0.014c-0.266,0.009,1.607,0.106,2.625,0.082c-0.105-0.057-2.253-0.034-1.294-0.127
	c-0.845,0.039-0.95-0.018-1.833,0.002c0.848-0.039,0.21-0.078,0.84-0.119L74.5,25.7c-0.038-0.019,2.11-0.042,0.923-0.112
	c-0.581,0.03-2.131-0.007-2.159,0.054l-0.036-0.019c-1.086-0.013-0.478,0.087-1.812,0.052c-0.015,0.031,0.239,0.052,0.717,0.045
	c0.403-0.013,0.465-0.056,1.296-0.064c0.373,0.048-1.003-0.006-0.426,0.076c0.287,0.041,2.196-0.035,1.588,0.056l-1.084-0.013
	c-0.027,0.061-0.812,0.058-0.791,0.107c-0.663,0.022-1.288-0.046-1.965,0.007c-0.281,0.04,0.209,0.113-0.911,0.082
	c-0.875-0.091-3.454-0.073-4.419-0.061l-0.846,0.04c0.072,0.037,1.615-0.005,1.072,0.044l-1.317,0.014l0.101-0.023
	c-0.437-0.005-0.883,0.02-1.282,0.033c0.411-0.044,1.361-0.026,1.173-0.09c-0.619-0.013-0.713-0.037-1.284-0.024
	c0.125-0.004,0.231-0.011,0.216-0.02c-1.252-0.028-1.21,0.072-1.524,0.092c-1.26,0.083,1.27,0.078,1.108,0.143l-3.677,0.036
	c0.313-0.021,0.629-0.042,0.512-0.068c-0.902-0.029-0.021-0.05-1.288-0.046c0.09,0.087-1.594,0.054-2.489,0.104
	c-0.418-0.035-0.504-0.042,0.41-0.043c-0.105-0.057-1.332-0.035-1.769-0.041c-0.252,0.014-0.684,0.022-0.957,0.035
	c0.365,0.029,0.21,0.064-0.583,0.088l-0.046,0.011c1.298,0.016,3.318,0.078,4.132,0.02l-0.231,0.028
	c1.504,0.049,3.272-0.102,3.966,0.005c-0.064,0.042,0.302,0.009,0.275,0.071l1.108-0.048l-0.231,0.028l1.884-0.014l-0.05,0.012
	c0.896-0.056,1.596-0.101,2.156-0.138c0.002-0.027-0.057-0.035,0.242-0.055c0.299-0.014,0.527-0.015,0.729-0.011l0.002-0.001v0.001
	c0.461,0.007,0.77,0.046,1.338,0.062l-1.751,0.007c-0.143,0.045,0.006,0.092,0.864,0.124c-0.35,0.001-0.497,0.037-0.063,0.042
	c0.048-0.012,1.147-0.029,0.728-0.065c1.664-0.016,4.356,0.103,6.882,0.016c-1.814,0.052,1.454,0.062-0.56,0.08
	c1.405,0.073,1.21-0.071,2.643-0.06c0.122,0.026-0.78-0.003-1.11,0.048c2.383,0.029,4.021-0.117,6.327-0.096l0.099,0.057
	L83.756,26.284z M88.316,26.213l1.352-0.02l-0.133-0.001l1.332-0.046c-0.818-0.021-1.357-0.084-0.211-0.113
	c-0.098,0.024,0.238,0.052-0.16,0.066c0.768,0.034,2.453,0.067,2.014-0.018c-1.477,0.081-0.344-0.109-1.504-0.049
	c0.623-0.056,1.24-0.03,1.827-0.056c-0.612,0.047,0.143,0.106,1.062,0.128c0.4-0.014,1.482,0,2.148-0.023
	c-0.238-0.053,0.342-0.083-0.741-0.096c0.396-0.014,1.013-0.025,1.701,0.002c-0.272,0.009-0.751,0.015-0.718,0.035
	c0.445,0.047,0.965,0.045,1.253,0.066l0.687-0.008c-0.068-0.004-0.127-0.01-0.168-0.018l0.761-0.046
	c-1.013,0.025-0.468-0.024-0.455-0.054c-0.027,0.061,0.652,0.008,1.001,0.006l-0.756-0.065c0.365-0.033,1.288,0.047,1.098-0.018
	c-1.601-0.025-2.215-0.014-3.662,0.005l0.587,0.05c-1.632,0.036-1.007-0.086-2.839-0.083c-0.761,0.046-2.754,0.003-2.791,0.095
	c0.229-0.028-1.142-0.082-1.769-0.04c-0.694,0.084-2.792,0.096-2.156,0.134c0.566,0.001,1.329-0.045,1.785,0.009l-1.1,0.018
	l0.722,0.046C88.109,26.101,88.144,26.146,88.316,26.213z M112.932,26.729l0.042,0.002l-0.047-0.001L112.932,26.729z"/>
<path fill="#5B6A74" d="M13.807,26.266c-0.317,0.021-1.099,0.017-0.946,0.062C12.842,26.278,14.258,26.32,13.807,26.266z"/>
<path fill="#5B6A74" d="M12.871,26.217c-0.055,0.012-0.017,0.031-0.367,0.033l0.965-0.013L12.871,26.217z"/>
<path fill="#5B6A74" d="M11.892,25.878c-0.5,0.038-0.814,0.058-1.597,0.054c-0.293-0.121,1.28-0.033,1.634-0.146
	c-1.433-0.011-1.873,0.094-3.052,0.104C9.462,25.94,11.847,25.97,11.892,25.878z"/>
<polygon fill="#5B6A74" points="12.527,25.726 11.73,25.752 11.81,25.76 12.607,25.732 "/>
<path fill="#5B6A74" d="M29.791,26.776c0.071,0.038,0.568,0,0.835-0.009C30.409,26.765,30.105,26.755,29.791,26.776z"/>
<path fill="#5B6A74" d="M179.403,26.815l-15.92-0.036C161.733,26.788,182.118,26.793,179.403,26.815z"/>
<path fill="#5B6A74" d="M49.965,26.529c-1.632,0.036-2.357,0.101-4.021,0.117c2.188,0.076,2.89-0.118,4.726-0.041L49.965,26.529z"/>
<path fill="#5B6A74" d="M49.391,26.831c-0.271-0.071,1.259-0.083,1.021-0.136c-1.099,0.018-0.512,0.068-1.51,0.062L49.391,26.831z"
	/>
<polygon fill="#5B6A74" points="41.992,25.654 42.487,25.617 42.089,25.63 "/>
<polygon fill="#5B6A74" points="56.831,26.767 56.65,26.783 57.469,26.805 "/>
<path fill="#5B6A74" d="M56.47,26.799l0.18-0.017L56.47,26.799z"/>
<polygon fill="#5B6A74" points="42.628,25.501 41.893,25.486 41.529,25.519 "/>
<path fill="#5B6A74" d="M49.122,25.883l-0.659,0.023C48.595,25.901,49.496,25.93,49.122,25.883z"/>
<polygon fill="#5B6A74" points="61.83,26.797 62.631,26.77 62.549,26.763 61.75,26.791 "/>
<path fill="#5B6A74" d="M54.274,25.687c-0.455-0.054,1.313-0.015,0.377-0.063C53.819,25.632,54.157,25.66,54.274,25.687z"/>
<path fill="#5B6A74" d="M63.936,26.058c0.109,0,0.223-0.002,0.332-0.008C64.137,26.052,64.028,26.055,63.936,26.058z"/>
<path fill="#5B6A74" d="M63.936,26.058c-0.348,0-0.696-0.021-0.936-0.005C63.434,26.077,63.593,26.068,63.936,26.058z"/>
<path fill="#5B6A74" d="M67.932,26.045l-0.317-0.004c0.323-0.027,0.17-0.023-0.117-0.001c-0.336,0.002-0.317,0.019-0.357,0.031
	l-0.206,0.021l0.275-0.02C67.728,26.073,68.045,26.07,67.932,26.045z"/>
<path fill="#5B6A74" d="M82.774,26.967c-1.168-0.021-1.47-0.03-1.408-0.073c-1.107-0.014-0.936,0.06-1.604,0.077
	C81.017,26.963,81.272,26.982,82.774,26.967z"/>
<path fill="#5B6A74" d="M79.762,26.971l-0.438,0.003C79.506,26.976,79.643,26.974,79.762,26.971z"/>
<polygon fill="#5B6A74" points="63.262,25.581 63.988,25.516 63.722,25.524 "/>
<path fill="#5B6A74" d="M84.507,26.988c-0.216-0.002-0.564-0.001-0.734-0.015C83.71,27.016,84.723,26.991,84.507,26.988z"/>
<path fill="#5B6A74" d="M80.003,26.156c-0.12-0.026-0.866-0.01-1.17-0.021C79.27,26.141,79.625,26.219,80.003,26.156z"/>
<path fill="#5B6A74" d="M87.857,26.813c-0.216-0.003-0.549-0.032-0.405-0.066C87.138,26.767,86.711,26.842,87.857,26.813z"/>
<polygon fill="#5B6A74" points="82.137,26.163 81.971,26.149 81.172,26.176 "/>
<path fill="#5B6A74" d="M79.286,25.536c-0.898,0.051,1.426,0.122-0.122,0.166c1.997,0.053-0.153-0.072,1.319-0.064
	C79.622,25.62,79.199,25.556,79.286,25.536z"/>
<path fill="#5B6A74" d="M80.484,25.638c0.126,0.003,0.262,0.004,0.409,0.004C80.729,25.64,80.598,25.639,80.484,25.638z"/>
<path fill="#5B6A74" d="M93.134,25.959c-0.13,0.004-0.22,0.011-0.302,0.016C92.935,25.971,93.034,25.966,93.134,25.959z"/>
<path fill="#5B6A74" d="M85.189,25.596l-1.347,0.076c0.9-0.05,3.163-0.048,3.022-0.123c-0.734-0.016-1.615,0.005-1.978,0.038
	L85.189,25.596z"/>
<path fill="#5B6A74" d="M100.652,26.97L100.07,27l0.728,0.009C100.589,26.997,100.964,26.942,100.652,26.97z"/>
<path fill="#5B6A74" d="M100.938,27.01l-0.141-0.002C100.829,27.01,100.873,27.011,100.938,27.01z"/>
<path fill="#5B6A74" d="M90.585,25.995c-0.434-0.004-0.781-0.002-1.18,0.01C89.571,26.02,90.656,26.033,90.585,25.995z"/>
<polygon fill="#5B6A74" points="104.751,26.859 103.791,26.873 104.839,26.867 "/>
<polygon fill="#5B6A74" points="109.234,26.988 109.4,27.002 110.197,26.976 110.029,26.961 "/>
<path fill="#5B6A74" d="M103.371,25.497c-0.65-0.007-1.16,0.061-0.99,0.075l1.264-0.003c-0.321-0.059-0.351,0.002-1.082-0.013
	L103.371,25.497z"/>
<path fill="#5B6A74" d="M142.508,26.876c-0.281,0.04-1.663,0.017-1.734-0.021c0.185-0.016,0.934-0.032,0.463-0.056l-1.092,0.098
	c-1.454-0.061,1.105-0.128,1.822-0.163c-1.48-0.013-1.92,0.051-3.494,0.051c0.463,0.009,0.757,0.033,1.002,0.054
	c0.055,0.068-1.414,0.038-2.463,0.043c0.668,0.03,0.281,0.055-0.205,0.082c-0.088,0.002-0.146,0.006-0.187,0.011l-0.166,0.01h0.126
	c-0.008,0.007,0.02,0.017,0.109,0.03c0.881-0.021,1.555,0.038,2.121,0.038c-0.561-0.111,1.93-0.026,2.643-0.061l0.823-0.011h0.308
	c0.062,0.012-0.025,0.028-0.496,0.049c0.393-0.021-5.301-0.014-5.422-0.05l2.981-0.001c0.094,0.005,0.187,0.01,0.255,0.018
	c0.104-0.007,0.119-0.013,0.107-0.019l12.988-0.006c-0.641-0.009-1.195-0.035-1.856-0.047c0.992-0.074-1.083-0.014-0.792-0.083
	c0.445-0.026,1.098-0.018,1.486-0.001c0.145-0.035-0.409-0.066-0.344-0.108c-1.639-0.045-1.891,0.125-3.49,0.099
	c0.062-0.043,0.558-0.08-0.491-0.074l0.267-0.009c-1.678,0.047-1.307-0.096-2.364,0.02l0.027-0.061
	c-0.762,0.046-2.243,0.047-3.077,0.055l0.051-0.012c-2.344,0.07-1.316,0.015-3.946,0.044l1.21-0.071
	c-0.906-0.03-1.111,0.048-1.762,0.04c0.047-0.012-0.105-0.057,0.51-0.068l3.81,0.109C141.475,26.852,142.391,26.851,142.508,26.876z
	"/>
<path fill="#5B6A74" d="M138.473,26.786c-0.17-0.003-0.361-0.005-0.588-0.002C138.104,26.786,138.292,26.786,138.473,26.786z"/>
<path fill="#5B6A74" d="M153.911,26.972l-0.912,0.001C153.282,26.977,153.575,26.978,153.911,26.972z"/>
<path fill="#5B6A74" d="M133.898,26.919c0.554,0.032-0.413,0.044-0.51,0.068l1.981-0.001c-0.01-0.023,0.188-0.05,0.147-0.072
	L133.898,26.919z"/>
<path fill="#5B6A74" d="M135.943,27.031c0.067-0.017,0.276-0.031,0.512-0.045l-1.085,0
	C135.376,27.004,135.499,27.021,135.943,27.031z"/>
<polygon fill="#5B6A74" points="135.733,25.77 136.083,25.768 136.614,25.75 "/>
<path fill="#5B6A74" d="M141.221,25.874c-0.42-0.036-1.215-0.009-1.481,0C140.657,25.874,140.26,25.887,141.221,25.874z"/>
<polygon fill="#5B6A74" points="140.088,25.49 140.971,25.469 140.889,25.463 "/>
<path fill="#5B6A74" d="M160.655,26.731l0.432-0.005C160.889,26.727,160.76,26.729,160.655,26.731z"/>
<path fill="#5B6A74" d="M153.079,26.79c2.105,0.069-1.381,0.057-0.72,0.146l1.147-0.029l-0.099,0.024l1.399-0.008
	c-0.287-0.04-0.504-0.043-0.441-0.085c1.867,0.017,0.589,0.051,1.957,0.104l2.088-0.008l-0.17,0.013
	c0.176-0.001,0.254-0.006,0.314-0.013l7.029-0.027c1.279-0.034-0.707-0.076,0.236-0.139c-1.482,0-3.686-0.045-3.811,0.04
	c0.049-0.012,0.146-0.035-0.153-0.045l-0.858,0.07l0.818,0.021c-0.862,0.07-3.646,0.055-4.148,0.012
	c1.582-0.024,0.788-0.108,2.992-0.062c-0.098-0.021-0.502-0.059-0.006-0.07C158.071,26.756,155.754,26.717,153.079,26.79z"/>
<path fill="#5B6A74" d="M179,26.748l-0.021,0.008C179.027,26.752,179.042,26.749,179,26.748z"/>
<path fill="#5B6A74" d="M178.133,26.738l-1.26,0.083l1.963-0.007l0.143-0.059c-0.172,0.015-0.861,0.044-1.128,0.021L178.133,26.738z
	"/>
<path fill="#5B6A74" d="M175.412,26.871c1.013-0.024,0.958-0.093,0.405-0.124c0.932-0.032,0.492,0.073,1.133,0.001
	c-0.021-0.049-1.169-0.02-1.434-0.011L175.412,26.871z"/>
<polygon fill="#5B6A74" points="167.927,26.835 168.212,26.807 167.51,26.799 "/>
<path fill="#5B6A74" d="M168.212,26.807l0.698,0.008c-0.048-0.022-0.096-0.042-0.209-0.057L168.212,26.807z"/>
<path fill="#5B6A74" d="M170.741,26.834c0.295,0.005,0.623,0.009,1.02,0.011L170.741,26.834z"/>
<path fill="#5B6A74" d="M169.944,26.817l0.022,0.009l0.774,0.009C170.456,26.829,170.2,26.823,169.944,26.817z"/>
<path fill="#5B6A74" d="M168.911,26.815c0.113,0.047,0.246,0.098,1.255,0.084l-0.199-0.074L168.911,26.815z"/>
<polygon fill="#5B6A74" points="139.51,25.562 140.308,25.535 140.224,25.528 139.426,25.555 "/>
<path fill="#5B6A74" d="M144.113,25.606c0.197-0.009,0.347-0.018,0.482-0.026C144.387,25.585,144.222,25.593,144.113,25.606z"/>
<path fill="#5B6A74" d="M147.534,25.278c0.938,0.048-1.294,0.064,0.443,0.086c0.152,0.044-0.661,0.103-1.479,0.08
	c0.064-0.042,0.797-0.027,0.293-0.07c-0.543,0.049-0.748,0.016-0.561,0.08c-0.914,0.04-1.015,0.085-1.636,0.127
	c1.105-0.028,3.426,0.037,4.827-0.045c0.773-0.077,0.304-0.181,0.309-0.292C149.613,25.217,147.61,25.205,147.534,25.278z"/>
<path fill="#5B6A74" d="M146.057,25.167c-0.434-0.005-0.566-0.001-0.832,0.008C145.295,25.213,145.708,25.169,146.057,25.167z"/>
<path fill="#5B6A74" d="M156.036,26.002c0.084-0.017,0.869-0.036,0.701-0.062l-1.191,0.02
	C155.825,25.962,155.922,25.981,156.036,26.002z"/>
<path fill="#5B6A74" d="M155.023,25.968l0.522-0.008C155.415,25.958,155.253,25.96,155.023,25.968z"/>
<path fill="#5B6A74" d="M156.092,26.012l-0.057-0.009C156.019,26.005,156.024,26.009,156.092,26.012z"/>
<path fill="#5B6A74" d="M173.631,26.862c-0.018,0.03,0.514,0.012,0.779,0.002C174.195,26.862,173.891,26.853,173.631,26.862z"/>
<path fill="#5B6A74" d="M171.608,26.742l0.471,0.024C171.913,26.752,171.827,26.745,171.608,26.742z"/>
<path fill="#5B6A74" d="M178.834,25.911c0.014-0.006,0.049-0.011,0.095-0.016C178.883,25.9,178.85,25.905,178.834,25.911z"/>
<path fill="#5B6A74" d="M178.929,25.896c0.321-0.025-1.69,0.015-1.335-0.024l2.955,0.012l-2.338-0.022
	C177.59,25.863,179.288,25.859,178.929,25.896z"/>
<path fill="#5B6A74" d="M227.838,176.267c0.006,0.313-0.029,0.587-0.046,0.47c0.044,0.639-0.006,0.652,0.079,0.734
	c0.041,0.411-0.016,0.849-0.051,0.382l0.053,1.183l0.013-0.707c0.07,0.192-0.021,1.13,0.062,1.354l-0.008-1.281l0.024,0.064
	c-0.026-0.292-0.015-0.857-0.005-1.056c0.011,0.032,0.029,0.012,0.031,0.237c0.006-1.546-0.122-0.417-0.146-1.698
	C227.846,176.029,227.845,176.129,227.838,176.267z"/>
<path fill="#5B6A74" d="M228.011,174.952l-0.089-0.538l0.023-0.905c-0.031-0.009-0.056-0.669-0.082-0.223
	c0.005,0.088,0.014,0.26,0.011,0.4c-0.065-0.103-0.033-1.203-0.1-0.938c0.018,0.717,0.003,0.826,0.056,1.266
	c-0.006,0.656-0.021,1.134-0.045,1.439c0.01,0.195,0.051,0.222,0.059,0.471l-0.002-0.169l0.099-0.026
	c-0.021-0.206-0.011-0.402-0.013-0.631l0.116,1.059c0.093-0.341,0.038-1.381,0.077-1.798
	C228.038,174.875,228.08,173.948,228.011,174.952z"/>
<path fill="#5B6A74" d="M227.267,96.815c-0.002-0.226-0.024-0.291-0.037-0.324l0.002,2.534c0.026-0.079,0.058-0.809,0.073-0.321
	c0.029-0.218,0.005-0.88-0.031-0.976l0.041,0.184c-0.051-0.585,0.049-0.983,0.078-0.603v-0.05l-0.195-1.617
	C227.186,96.236,227.264,96.101,227.267,96.815z"/>
<path fill="#5B6A74" d="M227.367,63.679c0.009,0.328,0.019,0.368,0.028,0.331C227.388,63.892,227.379,63.779,227.367,63.679z"/>
<path fill="#5B6A74" d="M227.151,95.266l-0.061-0.507C227.106,94.961,227.129,95.14,227.151,95.266z"/>
<path fill="#5B6A74" d="M228.084,98.775c0.002,0,0.006,0.006,0.01-0.007l-0.031-0.229v0.007
	C228.071,98.63,228.077,98.706,228.084,98.775z"/>
<path fill="#5B6A74" d="M226.92,88.33l-0.004-0.165C226.917,88.225,226.918,88.279,226.92,88.33z"/>
<path fill="#5B6A74" d="M228.434,105.641l-0.059-1.126c0.027,0.15,0.02-0.394,0.053-0.157c-0.006-0.086-0.016-0.487-0.03-0.378
	l0.002,0.229c-0.082-0.594-0.113-0.234-0.175-1.22c-0.049,0.611-0.004,0.881,0.033,1.205c0.006,0.108,0.008,0.2,0.011,0.293
	l0.114,0.938L228.434,105.641z"/>
<path fill="#5B6A74" d="M227.829,65.029l0.007,0.012C227.833,65.03,227.831,65.027,227.829,65.029z"/>
<path fill="#5B6A74" d="M227.861,65.091l-0.025-0.05C227.848,65.102,227.86,65.334,227.861,65.091z"/>
<path fill="#5B6A74" d="M227.204,95.451c-0.015-0.017-0.033-0.081-0.053-0.186l0.047,0.377
	C227.198,95.589,227.202,95.518,227.204,95.451z"/>
<path fill="#5B6A74" d="M227.381,96.311l0.012,0.949l0.043,0.351C227.418,97.247,227.409,96.822,227.381,96.311z"/>
<path fill="#5B6A74" d="M226.873,89.83c-0.013-1.967,0.097,0.482,0.119-0.421c-0.011-0.545-0.057-0.738-0.071-1.079
	c0.039,1.56-0.148-0.211-0.125,1.361c-0.082-0.224-0.09-1.134-0.068-1.668c0.08-0.604,0.059,0.528,0.137,0.665
	c-0.014-0.631-0.027-0.52-0.072-0.788c0.02-0.99-0.097-2.05,0.013-2.642c-0.017-0.718-0.056-0.671-0.097-1.083
	c-0.084-0.082-0.045,1.067-0.111,1.332c0.008-0.055,0.021-0.162,0.033-0.131l-0.018,0.62c0.029-0.588,0.084,0.082,0.092,0.396
	c0.002,0.229,0.005,0.685-0.02,0.622l-0.018-0.347c-0.026,0.446,0.062,0.983,0.016,1.455c-0.019,0.024-0.027-0.154-0.039-0.181
	c0.059,0.528,0.055,1.037,0.096,1.818l-0.084-0.453c0.094,0.625,0.066-2.526,0.018-1.545c0.014-0.109,0.023-0.306,0.04-0.188
	c0.021,0.576-0.038,1.011-0.082,0.744c0.069,0.562-0.058,2.145,0.032,2.911l0.428,3.527c-0.012-0.133-0.02-0.273-0.023-0.42
	c0.074-0.32,0.064-0.493,0.135,0.068c-0.039-0.552-0.099-0.341-0.102-1.169c0.037,0.324,0.121,0.406,0.131-0.388
	c-0.074-1.983-0.284-3.298-0.392-5.151c0.058-0.068,0.042,3.043,0.055,2.336c0.062,0.27,0.079-3.771,0.091-3.227
	c0.004-0.342,0.006,3.636,0.008,3.199L226.873,89.83z"/>
<path fill="#5B6A74" d="M227.064,89.871c0.006-0.05,0.009-0.102,0.011-0.153C227.071,89.745,227.067,89.792,227.064,89.871z"/>
<path fill="#5B6A74" d="M226.983,86.974c0.002,0.008,0.004,0.004,0.006,0.008l-0.004-0.173L226.983,86.974z"/>
<path fill="#5B6A74" d="M227.333,94.986c0.016,0.117,0.021,0.205,0.037,0.322c-0.006-0.072-0.01-0.164-0.016-0.251
	C227.347,94.974,227.338,94.935,227.333,94.986z"/>
<path fill="#5B6A74" d="M227.233,95.383l-0.023-0.063c-0.004,0.051-0.004,0.086-0.006,0.132
	C227.216,95.465,227.227,95.45,227.233,95.383z"/>
<path fill="#5B6A74" d="M227.387,82.316l-0.012-0.189C227.376,82.24,227.381,82.29,227.387,82.316z"/>
<path fill="#5B6A74" d="M226.969,87.64c0.006,0.684,0.086,0.082,0.086,1.049l0.005-0.284c0.036,0.695,0.02-2.652,0.022-1.827
	c-0.034-0.093-0.041,0.5-0.094,0.404c0.014,0.562,0.024,1.121,0.078,1.411c-0.018,0.35,0.031,0.881,0.008,1.325
	c0.032-0.188,0.107,0.632,0.068-0.449c0.004,0.088,0.012,0.033,0.016,0.119c0.045-0.696-0.029-0.976-0.031-1.574
	c0.031-0.359,0.051,0.585,0.063,0.247c-0.028-0.748,0.038,2.217-0.08,2.267c-0.009-0.546,0.017-0.621,0.039-0.783
	c-0.126-0.862,0.054-3.199-0.106-3.191c0.006,0.315,0.002,0.827,0.037,1.289L226.969,87.64z"/>
<path fill="#5B6A74" d="M227.325,93.838c0-0.043,0-0.099,0.001-0.133C227.325,93.743,227.325,93.793,227.325,93.838z"/>
<path fill="#5B6A74" d="M226.858,102.467l-0.104-0.286c-0.025-1.628,0.005-2.216,0-3.641c0.015-0.108,0.023,0.063,0.028,0.151
	c-0.012-1,0.01-2.498-0.039-3.227c0.002-0.319,0.035-1.155,0.065-0.839c-0.009-0.154-0.019-0.331-0.015-0.511
	c0.038-0.046,0.011,0.399,0.042,0.409c0.003-0.141,0.009-0.195-0.002-0.229c0.032,0.238,0.128-0.246,0.126,0.862
	c-0.089,0.43-0.011-0.77-0.107-0.516c-0.002,0.368,0.036,0.325,0.049,0.356c-0.003,0.469-0.027,0.456-0.049,0.432
	c0.029,0.179-0.013,0.769,0.033,1.017c0.008,0.912-0.072-0.049-0.072,0.546l0.1,0.344l-0.02,0.989
	c0.035,1.433,0.17-0.205,0.227,1.433c-0.051-0.215-0.139,0.442-0.158,1.205c-0.004-0.457-0.068-1.3-0.039-1.89
	c-0.078,0.831-0.009-1.142-0.098-0.711c0.042,0.41,0.047,1.094,0.025,1.628l-0.01-0.175c-0.01,0.566,0.093,0.996,0.054,1.779
	c0.003,0.389-0.024,0.315-0.048,0.247C226.862,102.172,226.88,102.467,226.858,102.467z M226.838,101.62l0.01-0.521
	C226.832,101.224,226.833,101.417,226.838,101.62z"/>
<path fill="#5B6A74" d="M227.999,167.676l-0.008,0.158C227.995,167.799,227.997,167.739,227.999,167.676z"/>
<path fill="#5B6A74" d="M228.036,121.492l-0.003,0.301C228.036,121.676,228.037,121.579,228.036,121.492z"/>
<path fill="#5B6A74" d="M228.362,128.256l0.023,0.44C228.383,128.523,228.374,128.387,228.362,128.256z"/>
<path fill="#5B6A74" d="M228.004,164.082l0.002-0.015c-0.002-0.025-0.004-0.044-0.006-0.069L228.004,164.082z"/>
<path fill="#5B6A74" d="M228.131,141.824c-0.008,0.067-0.016,0.143-0.021,0.244C228.12,142.057,228.126,141.965,228.131,141.824z"/>
<polygon fill="#5B6A74" points="228.358,128.175 228.356,128.202 228.362,128.256 "/>
<path fill="#5B6A74" d="M228.324,118.512c-0.003-0.064-0.006-0.123-0.01-0.192C228.316,118.41,228.32,118.467,228.324,118.512z"/>
<path fill="#5B6A74" d="M228.044,118.938c-0.003-0.07-0.005-0.136-0.011-0.188L228.044,118.938z"/>
<path fill="#5B6A74" d="M228.236,108.516l-0.015-0.407C228.223,108.309,228.229,108.428,228.236,108.516z"/>
<path fill="#5B6A74" d="M228.109,117.863c-0.005-0.023-0.009-0.047-0.014-0.063C228.098,117.856,228.104,117.884,228.109,117.863z"
	/>
<polygon fill="#5B6A74" points="227.704,170.254 227.704,170.229 227.693,170.219 "/>
<path fill="#5B6A74" d="M227.848,171.24l0.008,0.357C227.857,171.466,227.854,171.337,227.848,171.24z"/>
<path fill="#5B6A74" d="M227.972,147.718c-0.013,0.107-0.031,0.359-0.048,0.242C227.946,148.165,227.996,148.151,227.972,147.718z"
	/>
<path fill="#5B6A74" d="M227.087,168.276c0.014,0.064,0.023,0.146,0.034,0.226C227.107,168.352,227.094,168.22,227.087,168.276z"/>
<path fill="#5B6A74" d="M227.122,168.502c0.006,0.073,0.014,0.154,0.021,0.22C227.137,168.645,227.129,168.57,227.122,168.502z"/>
<path fill="#5B6A74" d="M227.155,144.985c0.006-0.028,0.012-0.069,0.014-0.125C227.155,144.877,227.153,144.923,227.155,144.985z"/>
<path fill="#5B6A74" d="M227.84,171.885c0.023,0.064,0.074,1.615,0.086,0.311c0.074,0.051,0.035,0.836,0.053,1.184
	c0.018-0.252,0.047,0.126,0.073,0.05c-0.009-0.173-0.03-0.378-0.024-0.662c0.033-0.132,0.056,0.301,0.043,0.64
	c0.039-0.417,0.059,0.527,0.088-0.062c-0.026-1.259-0.053-2.148-0.159-3.034c0.018,0.718,0.04,1.521,0.011,2.109l-0.064-0.247
	c0.056-0.665,0.014-1.076,0.021-1.73l-0.034,1.47c-0.053,0.688-0.064,0.228-0.076-0.314
	C227.856,171.73,227.852,171.852,227.84,171.885z"/>
<path fill="#5B6A74" d="M227.286,170.896l-0.002,0.024c0.002,0.021,0.004,0.049,0.006,0.062L227.286,170.896z"/>
<path fill="#5B6A74" d="M226.956,108.59l-0.023-0.127C226.943,108.568,226.95,108.602,226.956,108.59z"/>
<path fill="#5B6A74" d="M227.592,170.018v0.002C227.59,170.011,227.59,170.008,227.592,170.018z"/>
<path fill="#5B6A74" d="M226.951,111.729c-0.002-0.004-0.004-0.008-0.005-0.016C226.947,111.725,226.949,111.725,226.951,111.729z"
	/>
<path fill="#5B6A74" d="M228.315,112.569c0.003-0.006,0.006-0.008,0.008-0.021C228.32,112.481,228.317,112.514,228.315,112.569z"/>
<path fill="#5B6A74" d="M226.956,111.732c-0.002,0-0.003,0.002-0.005-0.003C226.953,111.732,226.954,111.737,226.956,111.732z"/>
<path fill="#5B6A74" d="M227.189,127.003c0,0,0.011-0.048,0.021-0.125C227.205,126.849,227.198,126.878,227.189,127.003z"/>
<path fill="#5B6A74" d="M227.283,123.988l0.007-0.055L227.283,123.988z"/>
<path fill="#5B6A74" d="M228.257,147.005c0.001-0.149-0.001-0.262-0.003-0.355C228.252,146.759,228.252,146.876,228.257,147.005z"/>
<path fill="#5B6A74" d="M226.946,111.714c-0.008-0.032-0.014-0.077-0.023-0.15C226.932,111.645,226.938,111.688,226.946,111.714z"/>
<path fill="#5B6A74" d="M227.508,131.599l-0.007-0.093c-0.001,0.018-0.001,0.037-0.003,0.055L227.508,131.599z"/>
<path fill="#5B6A74" d="M227.461,133.171c-0.007-0.054-0.015-0.077-0.021-0.108c0.026,0.562-0.003,1.593,0.064,1.715
	c-0.001-0.189,0.038-1.178,0.077-1.01c-0.016-0.392,0.031-0.97,0.02-1.18c-0.036,0.642-0.057,0.068-0.079-0.364
	c0.02-0.395,0.054,0.073,0.066-0.266l-0.007-0.913l-0.01,0.795l-0.064-0.241l0.006,0.082
	C227.545,133.024,227.42,131.794,227.461,133.171z"/>
<path fill="#5B6A74" d="M227.441,133.062c-0.005-0.084-0.009-0.157-0.017-0.215C227.426,132.975,227.432,133.023,227.441,133.062z"
	/>
<path fill="#5B6A74" d="M227.333,138.559c0.003,0.068,0.005,0.144,0.011,0.238L227.333,138.559z"/>
<path fill="#5B6A74" d="M227.424,98.285c-0.019,0.023-0.059,0.808-0.008,0.793l0.016-0.702L227.424,98.285z"/>
<path fill="#5B6A74" d="M227.624,153.529c0.002-0.088,0.002-0.176,0-0.263c-0.002-0.019-0.004-0.037-0.007-0.051
	C227.61,153.27,227.619,153.441,227.624,153.529z"/>
<path fill="#5B6A74" d="M227.606,134.011c-0.007-0.144-0.016-0.209-0.023-0.243C227.586,133.861,227.594,133.947,227.606,134.011z"
	/>
<path fill="#5B6A74" d="M227.504,153.579c-0.014,0.11-0.035,0.273-0.055,0.298c0,0.227,0.025,0.388,0.035,0.618
	C227.477,154.234,227.483,153.932,227.504,153.579z"/>
<path fill="#5B6A74" d="M227.486,154.515l-0.001-0.02C227.485,154.501,227.486,154.508,227.486,154.515z"/>
<path fill="#5B6A74" d="M227.446,97.819l-0.01-0.209l0.014,0.107l0.014-0.538c-0.003-0.065-0.006-0.136-0.008-0.222
	c0.002,0.034,0.007,0.062,0.013,0.078l0.006-0.173c-0.052-0.43-0.089-1.498-0.12-1.806c-0.021-0.409-0.033-0.907-0.029-1.22
	c-0.002,0.29,0.009,0.675,0.037,0.56c0.03-0.59,0.115-0.876,0.042-1.893l0.001,0.598l-0.11-1.342
	c0.046-0.469,0.055,0.669,0.095,0.855c-0.055-1.043,0.092-1.911-0.004-2.394c0.057-0.069,0.15-0.183,0.145-0.866
	c-0.064,0.493-0.041-0.41-0.111-0.006c-0.031-0.236,0.021-0.764-0.021-0.803l0.024,0.064c0.089-1.169-0.052-1.551-0.099-2.051
	c-0.022-1.399,0.014,2.525,0.005,1.384c0.038-0.045,0.143-0.355,0.14-0.812c-0.053-0.214-0.076-1.245-0.142-1.351
	c-0.028,0.818,0.055,0.669,0.07,1.159c-0.069,0.408-0.068,0.037-0.11,0.594c0.027-0.449-0.035-2.031,0.029-2.523l0.01,0.174
	c0.039-0.786,0.201-0.937,0.104-2.245l-0.041-0.624c0.007,0.029,0.014,0.032,0.021,0.049c0.007-1.022,0.082-0.743,0.022-1.872
	c0.004,0.087,0.012,0.032,0.016,0.12c0.038-0.643-0.037-1.291-0.053-1.778c0.057-0.298,0.055,0.07,0.095,0.254
	c0.021-1.131-0.073-2.354-0.141-3.057l0.032-0.729c0.023,0.433,0.081,0.962,0.114,0.829c-0.011-0.4-0.037-0.322-0.026-0.891
	c0.035,0.098,0.068,0.335,0.112,0.603c0.059-1.175-0.125-0.263-0.017-1.084c0.001-0.37-0.051-0.583-0.094-0.624l0.056-0.668
	c-0.054-0.074-0.057-0.898-0.065-1.439c-0.023-0.065-0.057,0.436-0.036,0.641c-0.043-0.041-0.062-0.615-0.062-0.985
	c0.113-0.136-0.018-2.422,0.116-1.984c-0.036-1.661-0.048-3.995-0.096-5.092c0.032-0.361,0.034-1.099,0.087-0.657
	c0-1.336-0.115-2.025-0.086-3.354c0.015-0.11,0.002,0.599,0.04,0.553c-0.046-0.867,0.048,12.773,0.018,11.427
	c0.002,0.227,0.024,0.293,0.037,0.324c-0.019,0.023-0.039-0.552-0.058-0.899c0.01-0.195,0.014,0.26,0.029,0.15
	c0.055-2.6-0.101-4.581-0.096-7.168c0,0.739,0.074,1.019,0.105,1.026l0.001-0.724c-0.037-0.279-0.037-0.822-0.065-1.276
	c0.014-0.056,0.029-0.276,0.047-0.052c0.076-1.429-0.137-0.275-0.098-2.027l0.152,0.165l0.052-0.525l0.069,0.933
	c0.041-0.557-0.055-1.041,0.002-1.108c0.016,0.118,0.011,0.401,0.042,0.41c0.022-0.535-0.021-0.577-0.031-0.979
	c0.115,1.059,0.114,3.136,0.143,4.253c0.009,0.176-0.028-0.15-0.04-0.182c0.004,0.456-0.033,0.729-0.012,1.305
	c0.049,0.355,0.035-0.272,0.041-0.556c0.042,0.039,0.039,0.182,0.046,0.496c-0.058,0.068-0.02,1.73-0.089,2.137
	c0.018,1.684,0.146-0.271,0.122,1.374l-0.065,0.49c0.051,0.954,0.096-10.206,0.081-9.126l-0.002-0.229
	c-0.028-0.151-0.045,0.1-0.06,0.211c-0.027,0.815,0.051-0.409-0.014,0.085c0.069,0.931,0.121,2.482,0.156,3.546
	c-0.086,0.287-0.072-1.388-0.127-1.83l0.001,0.968c-0.001-0.598-0.034-0.835-0.083-1.193c-0.016,0.849,0.06,1.128,0.081,1.932
	c-0.022-0.062-0.037,0.046-0.038,0.417l0.057,0.105c-0.005,0.007-0.009,0.048-0.012,0.163l0.034,1.431
	c0.024-0.304,0.073-0.318,0.074-0.688c-0.033,0.132-0.04-0.182-0.038-0.552c0.036,0.325,0.031-0.36,0.062-0.353
	c-0.001,0.741,0.006,1.653,0.021,2.141l-0.052,0.156c-0.014,0.708,0.016,1.455,0,1.935l-0.027-0.15
	c-0.017,0.848,0.018,1.684-0.033,2.437c0.06,0.757,0.109,1.71,0.172,2.327c0.067,0.332-0.084,2.222,0.01,3.074
	c-0.007,0.058-0.051-0.586-0.076-0.877c-0.01,0.568,0.073,1.019,0.003,1.197c0.024-1.274-0.058,0.068-0.077-0.506
	c0.001,0.597,0.014,1.226,0.039,1.518c0-0.966,0.099,0.343,0.068-0.635c0.059,0.757,0.083,1.79,0.061,2.692
	c-0.031-0.009-0.045,0.103-0.059,0.439l0.045,0.271c-0.008,0.423-0.053-0.815-0.068,0.034c0.076,0.874-0.043,2.633,0.098,3.016
	c-0.057,0.667-0.057-1.268-0.125-0.264c-0.051-0.585,0.008-1.391-0.062-1.583c0.02,0.573-0.06,0.209-0.061,0.579l0.044,0.639
	l0.003-0.142c0.066,1.071,0.033,2.77,0.045,4.139c0.071,1.159,0.174-2.609,0.166-1.219c-0.041-0.41-0.04,1.155-0.116,0.279
	c-0.036,0.644,0.007,1.279,0.037,1.292c0.011-0.566,0.01-0.2,0.025-0.676c0.037,0.321,0.035,1.063,0.011,1.368
	c0.003-0.141-0.004-0.087-0.016-0.119c-0.025,0.677,0.037,0.325,0.053,0.813c-0.053,0.154-0.015,1.077-0.041,1.524l0.074,0.647
	c-0.049-0.356-0.018,0.619-0.062,0.722c0.034,0.464,0.095,0.853,0.081,1.56c-0.024-0.292-0.036,0.645-0.086,0.656
	c-0.048,1.21,0.135,2.003,0.064,3.148c-0.013-0.035-0.045-0.267-0.058,0.068c0.015,0.265,0.009,0.726,0.014,1.008l-0.001-0.009
	l0.001,0.016c0.003,0.138,0.01,0.224,0.021,0.229c0.048,0.482,0.098,0.731,0.139,1.683c0.057-0.07,0.035-0.873,0.017-1.221
	l-0.056-0.3c0.086-0.286-0.016-0.857,0.014-1.076c0.101,0.57,0.075,2.213,0.138,3.197c0.079-0.601,0.091-1.907,0.081-3.047
	l-0.033,0.502l-0.002-0.597l-0.061,0.577c0.012-0.564-0.004-1.054-0.001-1.563c0.001,0.598-0.077,0.83-0.064,0.492
	c0.056-0.667-0.036-0.694-0.033-1.204c-0.005,0.283-0.007,0.653-0.038,0.415c0.068-1.005,0.023-1.275,0.097-2.19
	c-0.095,0.114-0.01-1.141-0.088-1.277l-0.007,0.424l-0.058-0.898c0.077-0.829,0.079,0.734,0.134-0.528
	c0.009-1.165-0.091-1.135-0.098-2.05c0.056,0.301,0.104,1.028,0.103,1.767l0.026-0.447c0.033,0.236,0.025,1.259,0.022,1.769
	c-0.064-0.843-0.021,0.395-0.069,0.777c0.054,0.071,0.045-0.47,0.089,0.168c-0.001-0.598-0.006-0.686,0.015-1.447
	c-0.025,1.646,0.188,1.48,0.143,2.918c-0.025-0.662-0.078,0.23-0.104,0.311c0.006,0.312,0.018,0.944,0.031,1.204l0.08-0.235
	c0.033,0.837-0.133,1.128-0.053,2.094c0.047,0.126,0.017-0.851,0.025-0.677c0.05,1.322-0.077,1.799-0.137,2.973
	c0.024,0.066,0.074,0.052,0.115,0.462c-0.047-0.128-0.07,0.176-0.105-0.286c-0.02,0.393,0.015,0.857,0.033,1.204
	c0.027-0.817,0.067,0.334,0.096,0.484c-0.008,0.423-0.047-0.129-0.061-0.389c-0.013,0.339-0.082,0.742-0.012,0.936
	c-0.05,0.014-0.131-0.95-0.144-1.579l-0.007,0.424c-0.025-0.293-0.019-0.348-0.012-0.769c-0.037,0.413-0.08,0.372-0.115,0.276
	c0.007-0.055,0.012,0.03,0.019-0.022c0.013-0.339-0.001-0.599-0.026-0.521c-0.067-0.305-0.042,0.472-0.075,0.701l0.013,0.519
	l0.214,1.762c0.024,0.755-0.026,1.093-0.059,1.659l0.058,0.154c-0.006,0.656-0.024,1.274-0.097,0.854
	c0.019-0.023,0.015-0.109,0.018-0.252c-0.009-0.019-0.014-0.052-0.018-0.093c-0.003-0.014-0.007-0.021-0.011-0.033
	c0.019,0.702,0.031,1.141,0.033,1.182c-0.083-1.192-0.104-0.061-0.205-0.26l0.033,1.203c0.031-0.729,0.049-0.013,0.062,0.246
	c-0.057,0.071,0,0.97-0.007,1.393l-0.012-0.031c-0.021,0.391-0.015,1.076,0.001,1.563c0.02-0.022,0.112,0.604,0.168,0.902
	c0.021-0.835,0.045-0.339,0.08-0.406c-0.004,0.087-0.004,0.242,0.003,0.26c0.017,0.12,0.021-0.162,0.04-0.186
	c-0.025-0.89-0.033-1.803-0.113-2.166c-0.035,0.272,0.035,0.465,0.011,0.771c-0.054-0.44-0.042-1.009-0.042-1.748l0.049-0.242
	l-0.026-0.742c0.024,0.31,0.075,0.123,0.085,0.903c0.045-0.101-0.01-0.773,0.004-1.252l-0.062-0.244
	c0.035,0.095,0.042-0.928,0.09-0.201l0.053,1.181l0.043-0.328l0.012,0.999l-0.032-0.235c0.044,1.604-0.126,0.474-0.052,2.088
	c0.076,0.507,0.085,1.05,0.066,2.039c-0.018-0.716-0.055-0.072-0.098-0.342c-0.033,0.73,0.029,0.977,0.061,1.355
	c-0.041,0.187-0.074,0.319-0.068-0.333c-0.084-0.083,0.016,0.857-0.072,0.918c0.003,2.162,0.281,1.732,0.174,4.259l-0.036-0.094
	c0.044,1.605,0.001,2.531,0.029,4.019l-0.089,1.17c-0.014-0.262-0.082-0.965-0.124-0.638c0.091-0.568,0.06-1.173,0.106-1.786
	c-0.023-0.063-0.04,0.188-0.055,0.296c0.001-0.37,0.041-0.556,0.025-1.045c-0.018,0.024-0.041,0.557-0.052,0.155l0.056-0.665
	c-0.026-0.89-0.133-0.438-0.107-1.483c0.049,0.194,0.121,0.592,0.133,0.995c0.012-0.477,0.03,0.638,0.061,0.201
	c-0.074-0.688-0.016-1.021-0.062-1.936c0.011,0.107,0.024,0.137,0.029,0.361l0.031-1.328c-0.044,0.329-0.048-1.096-0.112-0.972
	c-0.025,1.414,0.013,0.999-0.023,2.61c-0.015-0.456-0.08-1.045-0.14-1.32c0.003-0.014,0.004-0.036,0.005-0.086
	c-0.062-0.246-0.08,0.004-0.19,0c0.079,0.734,0.014,1.227,0.06,2.095c0.061,0.164,0.077-0.504,0.062-0.935l0.04,0.765l-0.027-0.15
	l-0.021,1.94c-0.003-0.368-0.038-0.493-0.064-0.684c-0.002,0.249-0.019,0.498-0.036,0.762c0.059-0.057,0.099-0.021,0.098,0.223
	c-0.014,1.25-0.065,1.943-0.132,2.404l0.004,0.146c0.06-0.209,0.107,0.887,0.168,1.274c-0.062-0.02-0.037,0.643-0.068,1.002
	c0.07,0.191,0.168-0.064,0.225-0.502c-0.064-0.845-0.064-0.474-0.155-0.871l-0.062-1.355l0.057,0.303
	c0.024-0.677-0.05-1.325,0.023-1.275c0.049,0.357,0.02,0.947,0.068,1.301l0.026-0.447c0.071,0.79-0.069,0.405-0.019,1.361
	c0.062-0.352,0.004,0.085,0.045,0.494c0.044-0.327-0.018-1.682,0.088-1.394c0.047,0.496-0.123,1.67-0.018,2.327l-0.013-0.031
	c-0.014,0.968,0.047,1.31,0.085,1.673c-0.035,0.413,0.014,0.982,0.018,1.43l-0.031-0.012l0.014,0.631
	c-0.057-0.3,0.002-0.739-0.007-1.28l-0.058,0.067c0.068-0.626-0.035-1.043-0.084-1.526c0.049,0.704-0.014,1.991,0.098,2.157
	l-0.059,0.436l0.021,0.209c-0.043,0.324-0.111-0.008-0.124-0.638c0.015-0.109,0.022-0.164,0.034-0.131
	c-0.025-0.293-0.07-0.561-0.057-1.268l0.029,0.377c0.005-0.882-0.018-1.684-0.074-1.983c-0.023,1.271-0.028,2.522-0.025,3.718
	c0.129,0.352,0.201,0.77,0.32,0.949c0.023,0.801,0.039,1.89-0.005,2.586l-0.022-0.064c-0.014,0.34-0.007,0.653,0.007,0.915
	c-0.031,0.357-0.063-0.246-0.081,0.003l0.041,1.148c-0.055-0.071-0.055-1.037-0.059-1.496c0.005,0.087,0.014,0.262,0.021,0.205
	c0.022-0.532-0.069-1.527,0.009-1.761c-0.014-0.26,0.058,0.529,0.062-0.352c0.029-0.59-0.041-0.781-0.064-0.842
	c-0.031-0.011-0.043,0.925-0.08,0.6c0.005,0.459,0.044,0.642,0.014,1.228c-0.003-0.454-0.065-1.072-0.018-1.313
	c-0.057-0.898-0.201-0.771-0.209-0.346c0.045-0.102,0.056,1.639,0.113,0.461c0.059,0.529,0.06,1.497,0.096,2.189l-0.012-0.032
	l0.014,0.86c-0.016-0.121-0.029-0.381-0.059-0.389l0.082,1.189c-0.057-0.67-0.039,0.417-0.063,0.722
	c0.048,0.127,0.081,0.593,0.108,0.146c0.034-0.502-0.025-0.292-0.029-0.748l0.074,0.645l-0.007,0.057l0.061,0.389
	c-0.004,0.88-0.142-0.384-0.081,0.744l0.082-0.146c-0.013,1.305-0.105,2.982-0.066,3.905c-0.048-0.255-0.123-0.367-0.168-0.017
	c0.014-0.399,0.011-1.198,0.004-1.769c0.014-0.11,0.098,0.713,0.08,1.332c0.135-0.301-0.083-1.56,0.055-1.632
	c0.048-1.579-0.132-1.178-0.051-2.519c-0.062-0.019-0.03-0.382-0.084-0.451c-0.102,0.396,0.003,1.792-0.033,2.663
	c-0.004-0.087-0.013-0.258-0.024-0.291c-0.019,0.62-0.004,0.878,0.019,1.312l0.008-0.055c0.059,0.759-0.046,0.47-0.073,0.916
	c0.009,0.175-0.009,0.795,0.036,0.695l-0.059,0.81l0.068-0.04c0.005,0.456-0.041,0.558,0.001,0.97l0.062,0.02l0.021-1.133
	c0.02,0.574,0.059,0.16,0.07,0.791c-0.066-0.704-0.033,0.5-0.09,0.568l0.034,0.464l-0.017-0.118
	c-0.031,0.364,0.023,0.433,0.016,0.858c0.033-0.502,0.077-0.829,0.033-1.469c0.034,0.465,0.072,1.389,0.074,1.614
	c0.025,0.489-0.021,0.829-0.027,1.287c-0.025-0.878-0.186,0.308-0.143-1.452c0.013,0.033,0.01,0.177,0.002,0.231
	c0.078-0.234-0.004-1.054-0.034-1.436c-0.046,0.099-0.056-0.3-0.081,0.376c0.029-0.222,0.1,0.568,0.063,1.212l-0.097-0.113
	l-0.012,0.937l-0.004-0.088c-0.062,0.352,0.012,0.999-0.025,1.644c0.035,0.465,0.008,2.249,0.108,1.481
	c-0.061,0.579,0.017,1.087,0.03,1.718l0.039-0.787c0.068,0.932,0.024,0.662,0.134,1.406c-0.026,0.075-0.048,0.241-0.075,0.091
	c-0.006,1.25-0.033,3.033,0.047,3.768c-0.005,0.881-0.118,1.02-0.074,2.255c0.014,0.261,0.09-0.202,0.062,0.616
	c-0.007,0.055-0.071-0.789-0.063,0.123c0.074,0.648-0.041,1.524,0.023,2.369c-0.027,0.445-0.017,1.219-0.075,1.057
	c0.013-0.705,0.001-1.704-0.027-1.856c0.035,0.098,0.035-0.503,0.062,0.019c0.044-1.068-0.036-0.693-0.006-1.651
	c-0.024-0.065-0.065,0.493-0.044,0.698c-0.08,0.004-0.039-1.889-0.135-1.037c-0.008,1.022,0.16,1.327,0.076,2.214
	c-0.05-0.356-0.008-0.912-0.092-1.363l-0.033,0.728l0.059,0.53l-0.012-0.032c-0.074,1.287,0.082,1.191,0.122,2.343
	c0.056-0.667,0.14,0.153,0.173-0.349c0.011,0.771,0,1.336-0.08,1.342c-0.065-1.44-0.084-0.083-0.164-1.414
	c-0.029,0.219-0.118-0.317-0.127,0.477c0.057,0.895,0.066-0.268,0.094,0.624c-0.008,0.053-0.015,0.107-0.026,0.077
	c0.042,0.41-0.016,0.479,0.03,0.976l-0.016-0.118c-0.049,0.611,0.055,0.669,0.002,1.196c0.061-0.212,0.049,0.353,0.086,0.68
	c0.023-0.533,0.108-0.822,0.104-1.876c-0.047-0.128-0.073-0.052-0.096-0.483l0.006,0.685c-0.008-0.148-0.021-0.26-0.029-0.396
	l0.024-0.658c0.033,0.834,0.083,0.451,0.132,0.807c-0.02,0.763,0.014,0.629-0.002,1.109c-0.068-0.049-0.117,1.472-0.162,2.351
	c0.002-0.138,0.001-0.313,0.002-0.407c-0.043-0.639-0.057,0.438-0.076,0.462l0.035,0.466c-0.006-0.088-0.021-0.208-0.031-0.011
	c0.013,0.63,0.082,0.593,0.094,1.222c-0.037,0.048-0.096-0.483-0.115-0.093c-0.033,0.135-0.121,0.564-0.088,1.399
	c0.016,0.06,0.023,0.276,0.029,0.526c-0.002-0.033-0.004-0.078-0.006-0.095l-0.043,0.556c-0.064-0.473,0.031-0.956-0.033-1.431
	l-0.062-0.041c0-0.369-0.025-0.871-0.059-1.104c-0.01,0.564,0.006,0.683,0.019,1.313c-0.038,0.088-0.067-0.355-0.071-0.42
	l0.035,0.095c0.051-0.753-0.06-1.125-0.048-2.062c0.003-0.14,0.007-0.055,0.019-0.022c-0.06-0.758,0.021-1.501-0.057-2.237
	l0.032,0.239c-0.026-0.501-0.087-1.481-0.146-2.462l-0.023-0.007c-0.015,0.108-0.014-0.261-0.004-0.456v0.001
	c-0.029-0.492-0.057-0.963-0.076-1.351c-0.016,0.123-0.027,0.281-0.031,0.464c0.027,0.152,0.005,1.054,0.069,0.93
	c-0.04,0.417,0.017,1.086-0.007,1.392c0.04-0.557,0.061,0.388,0.096,0.485c-0.041,0.188,0.002,0.824-0.053,0.752
	c-0.014,0.109,0.037-0.274,0.004-0.51c-0.051-0.584-0.045,1.066-0.092,0.34c0.037,0.924,0.021,2.143,0.07,3.094l0.023-0.532
	c-0.009,0.423,0.004,1.426-0.023,1.501c-0.006-0.314-0.005-0.684-0.016-1.086c-0.062-0.019,0,0.967-0.037,1.013l0.101,1.169
	l0.003-0.513c0.038,0.324-0.007,1.395-0.016,2.187c-0.084-0.455-0.002-1.196-0.035-2.031c-0.032-0.606-0.082,0.375-0.102-0.199
	c-0.02,0.148-0.018,0.523,0.004,0.708l-0.016,0.226c-0.076-0.511-0.059-1.659-0.125-2.424c0.009,0.066,0.017,0.125,0.025,0.146
	c0.03-0.588,0.029-1.186,0.008-1.759c-0.023,0.303-0.007,0.423,0.002,0.596c-0.02,0.023-0.027-0.52-0.049-0.725
	c-0.021,0.534-0.044,0.101-0.057,0.438c-0.018-0.348-0.013-0.63-0.004-1.054c0.027-0.22,0.039,0.182,0.076,0.138
	c-0.022-0.437,0.068-0.636,0.024-1.274c-0.016,0.849-0.082-0.225-0.108-0.518l-0.002,0.143c-0.045-0.269-0.046-0.497-0.006-0.683
	c0.019,0.348,0.006,0.683,0.051,0.585c-0.002-0.23-0.004-0.459-0.018-0.719l0.033,0.237l-0.01-1.142
	c-0.039-0.182-0.096-0.482-0.154-0.642c0.036-0.272,0.006-0.653-0.008-0.913l0.017,0.121c0.033-0.505,0.005-1.623-0.03-1.718
	c0.031-0.36,0.225,2.541,0.191,0c0-0.967-0.112-0.603-0.15-1.154c0,0,0.012,0.032,0.019-0.022c0.009-0.424-0.034-0.466-0.054-0.813
	c-0.016,0.254-0.016,0.622,0,0.739c-0.047-0.128,0.004-0.879-0.033-1.204c0.072,0.42,0.027-0.816,0.064-0.492
	c0.047-0.84-0.011-1.739-0.064-2.181c0.091-0.57-0.012-1.001,0.031-1.927c-0.004,0.143,0.01,0.401,0,0.6
	c0.059,0.528,0.03-0.959,0.084-0.146c-0.01-0.174-0.031-0.013-0.022,0.166c0.007,0.312,0.032,0.604,0.059,0.526l0.051-0.755
	l0.014,0.264l0.071-1.145c-0.012-0.032-0.026,0.076-0.034,0.131c0.031-1.329-0.008-2.848,0.001-4.011
	c-0.162-0.22-0.069-2.866-0.169-3.806c0.047,0.252,0.129,0.39,0.163,0.234c0.006,0.209,0.072,0.638,0.059,1.113
	c-0.026,0.076-0.056,0.664-0.086,0.286c0.02,1.314,0.072-0.178,0.133,0.209c-0.018-1.456-0.111-2.31-0.15-3.229l0.02-0.023
	l-0.036-0.692c-0.011,0.565-0.103,0.539-0.07-0.192l0.004,0.088c0.038-0.417-0.007-1.283-0.001-1.936l-0.053-0.442
	c0.006-0.652,0.104-0.679,0.164-0.892c0.007-1.023-0.074-1.613-0.123-2.34c0.044-0.328,0.055-1.86,0.106-1.048
	c-0.038-0.923-0.27-0.737-0.142-2.318l0.041,0.41c-0.008-1.512-0.091-3.669-0.047-4.366c0.15,0.559,0.152-1.888,0.299-2.158
	c-0.033,0.075-0.045-0.493-0.062-0.576c0.018-0.125,0.035-0.331,0.004-0.552c-0.029,0.59-0.152-0.414-0.093,0.714
	c-0.101-0.571-0.181-1.306-0.175-2.558l0.062,0.021l-0.019,0.989c0.045-0.1,0.041,0.409,0.062,0.616
	c0.035-1.839,0.145,0.241,0.136-1.639c-0.04-0.182-0.024-0.064-0.04-0.553c0.003,0.229,0.045,0.271,0.047-0.101l-0.051-0.355
	c0.104-0.656,0.068,1.088,0.14,0.527c0.048,0.727,0.073,1.984,0.151,1.75c0.028-1.187-0.146-1.067-0.111-2.307l0.034-0.133
	c-0.022-0.436-0.077-0.507-0.109-0.745c0.019-0.021,0.033-0.133,0.038-0.413c-0.078-0.736-0.094-1.225-0.18-1.904
	c0.064,1.809-0.061,1.545-0.002,3.412c-0.026-0.292-0.045-1.606-0.129-1.688l0.061,0.019c-0.031-0.608-0.062-1.215-0.043-1.977
	l0.035,0.465c-0.043-1.009,0.093-1.678-0.01-2.476c-0.005,0.281-0.004,0.51,0.006,0.683c-0.027-0.52-0.021-1.172-0.011-1.736
	l-0.101-1.17c0.03,0.011,0.031-0.729,0.08-0.373c0.047-0.842-0.045-1.238-0.06-1.725c0.064-0.863,0.028,0.746,0.113,0.832
	c0.028-1.188,0.003-2.447-0.052-3.118c-0.013,0.242-0.023,0.36-0.039,0.348c0.021-0.035,0.016-0.515,0.016-0.781l-0.039-0.184
	c0.026-0.444,0.05-0.382,0.08-0.004c0.008-0.424-0.068-0.931-0.012-1.368c0.048,0.726,0.006,1.649,0.035,2.027
	c-0.039-1.517,0.122-1.525,0.071-3.446c0.02-0.024,0.056,0.301,0.058-0.069c-0.015-0.857-0.082-0.224-0.127-0.492
	c0.025,0.661,0,0.968-0.049,1.351l-0.033-0.176c0.018-0.026,0.018-0.441,0.034-0.562l-0.065-0.107
	c0.072,0.05,0.127-0.614,0.101-1.136c-0.054,0.527-0.05,0.385-0.134,0.528c-0.078-0.733,0.078-0.828-0.006-1.648
	c0.023,0.061,0.041,0.778,0.059,0.158c0.004-0.513-0.053-0.444-0.072-0.789c0.062,0.389,0.107,0.288,0.18,0.708
	c0.007,0.911-0.002,0.368,0.025,1.259l0.051-0.754c0.01,0.772,0.07,0.562,0.093,0.626c0.062-1.319-0.093-0.995-0.076-1.844
	c-0.042-0.408-0.009,0.795-0.053,0.155c0.01-0.794-0.04-0.181-0.065-1.071l0.027,0.148c0.037-0.272-0.008-0.541-0.014-0.856
	c-0.02-0.346-0.211,0.393-0.216-1.032c0.017,0.069,0.028,0.095,0.034,0.095l0.512,1.391c-0.002-1.444,0.012-3.108,0.047-4.779
	c0.1-0.394,0.082,1.193,0.127,1.092l-0.021,0.762c-0.042-0.042-0.013-1.598-0.087-0.908c0.029,1.347-0.02,1.957,0.068,3.234
	c0.1-0.397-0.018-1.683,0.06-2.514c-0.007,0.35,0.005,0.644,0.019,0.929l0.043-2.502l-0.025-0.2
	c-0.011,0.599-0.02,1.013-0.023,1.066c0.009-0.794-0.047-1.463-0.119-1.515l-0.003,0.14l-0.022-0.286L227.446,97.819z
	 M227.463,65.308c0.007,0.049,0.015,0.087,0.025,0.114C227.478,65.394,227.471,65.426,227.463,65.308z M227.692,113.355
	c0.01-1.058,0.029-2.125,0.039-3.142c-0.145,1.835-0.254,3.125-0.252,0.062l-0.01-0.201c-0.018,0.401-0.02,1.09-0.01,1.741
	c0.051,0.525,0.24,2.221,0.256,2.201c0.041-0.186-0.003-0.457,0.01-0.795L227.692,113.355z M227.45,114.108
	c-0.018,0.6,0.016,0.462,0.044,0.556l-0.011-0.63C227.475,114.114,227.465,114.153,227.45,114.108z M227.523,114.628
	c0.001-0.066,0.001-0.124,0.005-0.154L227.523,114.628z M227.559,102.964l0.002,0.062l0.007-0.431
	C227.563,102.651,227.559,102.762,227.559,102.964z M227.489,104.182l0.053,0.143l0.006-0.405
	C227.524,103.964,227.502,104.012,227.489,104.182z M227.315,108.094c0.063,0.246,0.066,1.072,0.14,1.124
	c0.019,0.052,0.026-0.122,0.032-0.316l0.006-0.697c-0.012-0.008-0.021-0.057-0.03-0.139c-0.009,0.243-0.028,0.406-0.072,0.308
	c0.098-0.625-0.069-0.562-0.045-1.237C227.293,106.921,227.294,107.889,227.315,108.094z M227.505,160.057
	c-0.006,0.02-0.022,0.084-0.043,0.177l-0.036-0.475c0.016-0.85,0.121-1.53,0.03-2.295c0.022-0.358,0.071-0.549,0.11-0.732
	c-0.002,0.174-0.006,0.339-0.013,0.475C227.686,159.351,227.415,158.324,227.505,160.057z M227.634,150.29
	c0.005,0.087,0.017,0.119,0.017,0.119c-0.135-1.897-0.174-3.461-0.168-4.484c-0.054,0.198-0.094,1.116-0.117,1.553l-0.061-0.387
	l0.049-0.24l-0.056-0.671c-0.04,0.188-0.032,0.729-0.063,1.09c0.012,0.032,0.082,1.191,0.119,1.515l0.042-0.926
	c-0.017,0.251-0.003,1.479,0.013,1.967c0.03,0.009,0.078-0.83,0.012-0.937c0.045-0.1,0.045,0.868,0.094,0.256
	c0.049,0.726,0.008,1.879-0.014,2.415l-0.076,0.091c-0.03,0.587,0.09,0.397,0.047,1.094c-0.015-0.857-0.083,0.146-0.089-0.537
	c-0.028,0.218-0.08,0.005-0.074,0.689c0.101,0.567-0.063,0.721,0.025,1.259c-0.031,0.359-0.06-0.388-0.073,0.319
	c0.053,0.812,0.09,0.765,0.163,0.815c0.021-0.76-0.095-0.853-0.077-1.474l0.125,1.234c0.018-0.227,0.02-0.396,0.015-0.536
	c0.007,0.248,0.026,0.458,0.052,0.64c0.014,0.102,0.026,0.195,0.037,0.283c0-0.699,0.002-1.319,0.033-1.431l0.035,0.097
	c0.033-0.247,0.008-0.65-0.02-0.837c-0.003-0.627-0.053-1.252-0.006-1.389l0.031,0.237
	C227.639,151.346,227.635,151.259,227.634,150.29z M227.715,125.043c-0.13,0.467-0.245,0.981-0.223,3.159l-0.008-0.172
	c-0.082,1.098,0.107,2.141,0.017,3.476c-0.049-0.648-0.044-0.613-0.157-1.329l0.037,0.696c-0.07-0.194-0.034,0.5-0.037,1.011
	l-0.084-0.45c0.023-0.307,0.033-1.1,0.014-1.077c0.009,0.174,0.105-1.049,0.082-1.712c-0.058,0.068-0.035,1.47-0.127,0.845
	c0.039,0.552-0.018,0.62,0.002,1.196c-0.039-0.554-0.078-0.138-0.119-0.548l0.02,0.943c-0.02,0.026-0.043-1.376-0.113-0.601
	c0.03,0.378-0.007,1.39,0.055,1.407l-0.02,0.023c-0.013,0.708,0.087,0.312,0.053,1.183c0.03,0.01,0.052-0.156,0.045-0.468
	c-0.014-0.264-0.056-0.305-0.064-0.847c0.049-0.243-0.006,0.654,0.076,0.278c0.04-0.188-0.035-1.433,0.056-1.036l-0.013,0.707
	c0.061,0.019,0.058,0.53,0.107,0.517c0.021,0.433-0.047,0.841,0.006,1.281c0.04,0.184,0.113-0.136,0.082,0.596
	c-0.091,0.569-0.073,2.252-0.061,2.882l0.039,0.552c0.037-0.046-0.005-1.054,0.045-0.7l0.014,0.86l-0.023-0.066
	c-0.005,0.286,0.02,0.577,0.033,0.838c-0.043-0.27-0.025-0.889-0.09-0.767c-0.013,0.404-0.037,0.466-0.024,0.838
	c-0.005-0.081-0.011-0.15-0.02-0.141c-0.028,0.816,0.071,0.79,0.093,0.994c0.083,0.821,0.077-0.828,0.143-0.723l0.035,2.397
	c-0.021-0.203-0.041-0.41-0.067-0.333c-0.029,0.588-0.05,0.014-0.046,0.841c0.087-0.061,0.054,1.039,0.104,1.623
	c-0.035,0.272-0.042,0.329-0.043-0.268c-0.057,0.068-0.035,0.869-0.041,1.153c0.015,0.165,0.023,0.445,0.035,0.624
	c0.029-0.238,0.064-0.137,0.089,0.381l0.011,0.029c0.016-0.848,0.078-2.165,0.021-2.696l0.028,0.152
	c0.049-0.981-0.103-2.136,0.005-2.588c0.042,0.042,0.009-0.196,0.071-0.18l-0.049-0.723l0.028,0.15l-0.014-1.229l0.012,0.032
	c-0.056-0.584-0.101-1.041-0.138-1.407c-0.027-0.001-0.035,0.037-0.055-0.157c-0.014-0.195-0.016-0.343-0.012-0.476l-0.001-0.001
	h0.001c0.008-0.301,0.046-0.502,0.062-0.873l0.007,1.143c0.045,0.094,0.092-0.005,0.124-0.564c0.001,0.229,0.036,0.325,0.042,0.041
	c-0.012-0.03-0.029-0.748-0.064-0.474c-0.017-1.086,0.102-2.843,0.016-4.49c0.053,1.184,0.062-0.948,0.08,0.365
	c0.072-0.917-0.072-0.79-0.061-1.725c0.026-0.079-0.003,0.51,0.049,0.725c0.029-1.555-0.117-2.623-0.096-4.128l0.057-0.063
	L227.715,125.043z M227.645,122.068l-0.02-0.882l-0.002,0.087l-0.047-0.869c-0.021,0.534-0.084,0.886-0.113,0.138
	c0.024,0.063,0.053-0.155,0.066,0.104c0.034-0.501,0.067-1.601-0.018-1.313c0.08,0.963-0.109,0.224-0.05,0.98
	c-0.056-0.406-0.03-0.809-0.056-1.191c0.047,0.399,0.105-0.093,0.128-0.692c-0.014-0.262,0-0.968-0.022-1.402
	c-0.053,0.156-0.083-0.223-0.096,0.484c-0.014-0.259-0.025-0.661,0.002-1.109c0.009,0.177,0.016,0.489,0.035,0.468
	c0.047-0.291,0.045-0.63,0.065-0.817l-0.009-0.448c-0.004,0.045-0.01,0.083-0.018,0.109l-0.047-0.496
	c0.025,0.661-0.023,0.306-0.054,0.297c0.062,0.018,0.009-0.426,0.006-0.653l-0.065,0.493c-0.032-0.238,0.047-0.84-0.018-0.716
	c-0.025,1.044-0.014,1.445,0.006,2.389l0.049-0.382c0.037,1.064-0.086,0.656-0.083,1.852c0.046,0.497,0.003,1.796,0.095,1.82
	c-0.027-0.148-0.082,0.746-0.039,1.154c0.084,0.453,0.096,1.821,0.133,1.407c0.002-0.37-0.045-0.868,0.01-1.165l0.018,0.718
	l0.047-0.472C227.532,122.203,227.577,122.181,227.645,122.068z M228.161,106.01l0.002-0.027l-0.001,0.03L228.161,106.01z"/>
<path fill="#5B6A74" d="M227.697,170.676c0.021,0.206,0.017,0.717,0.062,0.616C227.709,171.305,227.75,170.381,227.697,170.676z"/>
<path fill="#5B6A74" d="M227.648,171.286c0.012,0.035,0.031,0.01,0.032,0.239l-0.013-0.63L227.648,171.286z"/>
<path fill="#5B6A74" d="M227.309,171.924c0.037,0.326,0.058,0.531,0.055,1.042c-0.121,0.191-0.033-0.834-0.146-1.066
	c-0.012,0.936,0.094,1.223,0.104,1.992C227.372,173.509,227.401,171.953,227.309,171.924z"/>
<polygon fill="#5B6A74" points="227.157,171.51 227.184,172.029 227.191,171.978 227.163,171.458 "/>
<path fill="#5B6A74" d="M228.208,160.248c0.037-0.046,0-0.371-0.01-0.544C228.196,159.844,228.186,160.043,228.208,160.248z"/>
<path fill="#5B6A74" d="M228.247,62.647l-0.037,10.386C228.219,74.174,228.224,60.876,228.247,62.647z"/>
<path fill="#5B6A74" d="M227.959,147.087c0.036,1.064,0.102,1.538,0.117,2.622c0.076-1.427-0.117-1.884-0.041-3.082L227.959,147.087
	z"/>
<path fill="#5B6A74" d="M228.262,147.462c-0.072,0.176-0.084-0.822-0.137-0.666c0.018,0.717,0.068,0.333,0.062,0.984
	L228.262,147.462z"/>
<polygon fill="#5B6A74" points="227.085,152.288 227.047,151.965 227.061,152.225 "/>
<polygon fill="#5B6A74" points="228.198,142.607 228.213,142.726 228.237,142.192 "/>
<path fill="#5B6A74" d="M228.231,142.843l-0.018-0.117L228.231,142.843z"/>
<polygon fill="#5B6A74" points="226.932,151.873 226.917,152.354 226.95,152.59 "/>
<path fill="#5B6A74" d="M227.314,147.637l0.022,0.431C227.333,147.98,227.362,147.393,227.314,147.637z"/>
<polygon fill="#5B6A74" points="228.228,139.347 228.202,138.824 228.194,138.878 228.221,139.399 "/>
<path fill="#5B6A74" d="M227.118,144.276c-0.055,0.297-0.015-0.857-0.062-0.247C227.063,144.573,227.091,144.353,227.118,144.276z"
	/>
<path fill="#5B6A74" d="M227.489,137.974c0-0.071-0.002-0.146-0.008-0.217C227.483,137.842,227.486,137.913,227.489,137.974z"/>
<path fill="#5B6A74" d="M227.489,137.974c0,0.227-0.021,0.453-0.005,0.61C227.508,138.301,227.5,138.196,227.489,137.974z"/>
<path fill="#5B6A74" d="M227.476,135.366l-0.004,0.207c-0.027-0.211-0.022-0.111-0.001,0.076c0.002,0.219,0.019,0.206,0.031,0.233
	l0.021,0.134l-0.02-0.18C227.504,135.499,227.501,135.293,227.476,135.366z"/>
<path fill="#5B6A74" d="M228.398,125.683c-0.021,0.764-0.03,0.96-0.073,0.919c-0.014,0.723,0.061,0.61,0.077,1.048
	C228.394,126.83,228.414,126.663,228.398,125.683z"/>
<path fill="#5B6A74" d="M228.402,127.649l0.003,0.285C228.407,127.816,228.405,127.727,228.402,127.649z"/>
<polygon fill="#5B6A74" points="227.012,138.413 226.947,137.938 226.956,138.112 "/>
<path fill="#5B6A74" d="M228.419,124.553c-0.003,0.142-0.001,0.368-0.015,0.479C228.447,125.072,228.422,124.413,228.419,124.553z"
	/>
<path fill="#5B6A74" d="M227.586,127.491c-0.025,0.077-0.01,0.565-0.02,0.763C227.572,127.97,227.65,127.738,227.586,127.491z"/>
<path fill="#5B6A74" d="M228.245,122.368c-0.004,0.141-0.031,0.357-0.066,0.264C228.198,122.837,228.273,123.115,228.245,122.368z"
	/>
<polygon fill="#5B6A74" points="227.594,126.1 227.581,126.208 227.608,126.729 "/>
<path fill="#5B6A74" d="M226.967,127.959c0.051,0.586,0.122-0.931,0.166,0.08c0.053-1.304-0.072,0.1-0.064-0.861
	C227.051,127.741,226.987,128.016,226.967,127.959z"/>
<path fill="#5B6A74" d="M227.069,127.178c0.003-0.082,0.004-0.171,0.004-0.267C227.071,127.019,227.07,127.104,227.069,127.178z"/>
<path fill="#5B6A74" d="M227.39,118.925c0.005,0.086,0.011,0.145,0.017,0.197C227.403,119.055,227.397,118.991,227.39,118.925z"/>
<path fill="#5B6A74" d="M227.027,124.108l0.076,0.879c-0.05-0.587-0.048-2.064-0.123-1.973c-0.016,0.479,0.005,1.054,0.038,1.291
	L227.027,124.108z"/>
<path fill="#5B6A74" d="M228.401,114.021l0.029,0.38l0.01-0.475C228.428,114.062,228.374,113.817,228.401,114.021z"/>
<path fill="#5B6A74" d="M228.442,113.834l-0.002,0.092C228.442,113.905,228.442,113.877,228.442,113.834z"/>
<path fill="#5B6A74" d="M227.426,120.588c-0.005,0.283-0.003,0.51,0.01,0.77C227.452,121.25,227.463,120.542,227.426,120.588z"/>
<polygon fill="#5B6A74" points="228.291,111.347 228.303,111.974 228.298,111.289 "/>
<polygon fill="#5B6A74" points="228.419,108.422 228.433,108.314 228.407,107.794 228.393,107.903 "/>
<path fill="#5B6A74" d="M226.928,112.247c-0.008,0.425,0.061,0.757,0.074,0.646L227,112.069c-0.06,0.209,0.003,0.229-0.013,0.705
	L226.928,112.247z"/>
<path fill="#5B6A74" d="M228.307,86.716c0.041,0.183,0.018,1.085-0.021,1.131c-0.017-0.12-0.032-0.608-0.056-0.303l0.098,0.714
	c-0.061,0.948-0.129-0.721-0.162-1.189c-0.014,0.967,0.051,1.252,0.051,2.28c0.008-0.303,0.033-0.494,0.054-0.655
	c0.068-0.035,0.038,0.923,0.044,1.606c0.029-0.434,0.055-0.183,0.082,0.135c0.002,0.058,0.006,0.095,0.01,0.122l0.01,0.108v-0.083
	c0.008,0.006,0.018-0.012,0.03-0.071c-0.021-0.574,0.038-1.014,0.038-1.383c-0.111,0.365-0.025-1.26-0.061-1.725l-0.011-0.537v-0.2
	c0.013-0.041,0.028,0.017,0.05,0.322c-0.021-0.256-0.015,3.458-0.051,3.538l-0.001-1.945c0.005-0.061,0.011-0.121,0.019-0.166
	c-0.008-0.066-0.014-0.078-0.02-0.07l-0.006-8.473c-0.01,0.418-0.035,0.78-0.047,1.211c-0.074-0.647-0.014,0.706-0.084,0.517
	c-0.025-0.291-0.018-0.717-0.001-0.97c-0.035-0.094-0.066,0.268-0.108,0.226c-0.045,1.068,0.125,1.231,0.1,2.276
	c-0.043-0.041-0.08-0.364-0.074,0.32l-0.01-0.174c0.047,1.095-0.096,0.853,0.02,1.542l-0.061-0.018
	c0.047,0.496,0.047,1.462,0.055,2.007l-0.012-0.032c0.07,1.528,0.016,0.857,0.045,2.573l-0.071-0.789
	c-0.03,0.591,0.048,0.726,0.04,1.149c-0.012-0.03-0.057,0.068-0.068-0.333l0.109-2.484C228.284,87.39,228.282,86.792,228.307,86.716
	z"/>
<path fill="#5B6A74" d="M228.217,89.349c-0.004,0.11-0.006,0.235-0.002,0.383C228.217,89.589,228.217,89.466,228.217,89.349z"/>
<path fill="#5B6A74" d="M228.403,79.276l0.002,0.596C228.409,79.688,228.409,79.495,228.403,79.276z"/>
<path fill="#5B6A74" d="M228.35,92.332c0.032-0.36,0.045,0.271,0.068,0.333l-0.001-1.292c-0.023,0.006-0.05-0.123-0.071-0.097
	L228.35,92.332z"/>
<path fill="#5B6A74" d="M228.461,90.998c-0.016-0.044-0.031-0.181-0.045-0.333l0.001,0.708
	C228.435,91.368,228.452,91.289,228.461,90.998z"/>
<polygon fill="#5B6A74" points="227.202,91.135 227.2,90.906 227.181,90.561 "/>
<path fill="#5B6A74" d="M227.305,87.556c-0.036,0.273-0.009,0.793,0,0.966C227.305,87.924,227.318,88.183,227.305,87.556z"/>
<polygon fill="#5B6A74" points="226.92,88.295 226.901,87.718 226.894,87.771 "/>
<path fill="#5B6A74" d="M228.163,74.878l-0.005-0.283C228.158,74.724,228.16,74.81,228.163,74.878z"/>
<path fill="#5B6A74" d="M228.221,79.82c0.068-1.374,0.057,0.9,0.145,0.469l-0.029-0.748l0.024,0.064l-0.009-0.913
	c-0.039,0.188-0.043,0.328-0.085,0.287c0.017-1.218,0.051-0.384,0.104-1.276l-0.008-1.361l0.013,0.11
	c-0.001-0.114-0.007-0.165-0.013-0.205l-0.027-4.586c-0.033-0.834-0.076,0.462-0.139-0.154c0,0.968-0.045,2.404,0.039,2.487
	c-0.012-0.033-0.034-0.097-0.045,0.099l0.07,0.56l0.021-0.533c0.07,0.562,0.055,2.378,0.012,2.707
	c-0.023-1.032-0.107-0.515-0.062-1.953c-0.021,0.064-0.059,0.328-0.07,0.005C228.187,76.563,228.148,78.073,228.221,79.82z"/>
<path fill="#5B6A74" d="M228.179,62.909l0.009,0.015C228.184,62.893,228.18,62.882,228.179,62.909z"/>
<path fill="#5B6A74" d="M228.169,63.476l0.083,0.821l-0.006-1.28l-0.059-0.093c0.015,0.111,0.043,0.562,0.021,0.735L228.169,63.476z
	"/>
<path fill="#5B6A74" d="M228.302,65.251c-0.024-0.661-0.093-0.625-0.124-0.265c-0.032-0.607,0.073-0.321,0.001-0.739
	c-0.05,0.015-0.021,0.763-0.011,0.935L228.302,65.251z"/>
<polygon fill="#5B6A74" points="228.266,70.133 228.238,69.947 228.231,70.406 "/>
<path fill="#5B6A74" d="M228.238,69.947l0.009-0.456c-0.022,0.031-0.043,0.063-0.057,0.138L228.238,69.947z"/>
<path fill="#5B6A74" d="M228.266,68.299c0.004-0.194,0.008-0.407,0.01-0.665L228.266,68.299z"/>
<path fill="#5B6A74" d="M228.249,68.818l0.008-0.016l0.01-0.504C228.26,68.484,228.254,68.651,228.249,68.818z"/>
<path fill="#5B6A74" d="M228.247,69.491c0.047-0.074,0.098-0.16,0.084-0.818l-0.074,0.13L228.247,69.491z"/>
<polygon fill="#5B6A74" points="226.994,88.671 226.966,88.15 226.959,88.205 226.987,88.726 "/>
<path fill="#5B6A74" d="M227.038,85.669c-0.009-0.129-0.018-0.226-0.026-0.314C227.016,85.489,227.024,85.598,227.038,85.669z"/>
<path fill="#5B6A74" d="M226.709,83.437c0.048-0.611,0.063,0.845,0.086-0.288c0.044-0.101,0.103,0.431,0.08,0.965
	c-0.043-0.043-0.027-0.521-0.07-0.192c0.049,0.354,0.016,0.489,0.079,0.365c0.04,0.597,0.085,0.663,0.127,1.068
	c-0.028-0.722,0.037-2.235-0.045-3.148c-0.077-0.506-0.181-0.199-0.292-0.202C226.648,82.081,226.635,83.388,226.709,83.437z"/>
<path fill="#5B6A74" d="M226.598,84.399c-0.005,0.284,0,0.37,0.009,0.544C226.645,84.896,226.6,84.629,226.598,84.399z"/>
<path fill="#5B6A74" d="M227.434,77.891c-0.018-0.055-0.036-0.566-0.062-0.457l0.02,0.777
	C227.393,78.029,227.413,77.964,227.434,77.891z"/>
<path fill="#5B6A74" d="M227.399,78.552l-0.008-0.341C227.389,78.295,227.391,78.401,227.399,78.552z"/>
<path fill="#5B6A74" d="M227.443,77.854l-0.009,0.037C227.436,77.901,227.44,77.899,227.443,77.854z"/>
<path fill="#5B6A74" d="M228.293,66.413c0.029,0.011,0.012-0.336,0.002-0.51C228.293,66.045,228.284,66.242,228.293,66.413z"/>
<path fill="#5B6A74" d="M228.173,67.731l0.024-0.307C228.184,67.533,228.176,67.59,228.173,67.731z"/>
<path fill="#5B6A74" d="M227.342,63.018c-0.006-0.009-0.011-0.031-0.016-0.062C227.331,62.986,227.336,63.008,227.342,63.018z"/>
<path fill="#5B6A74" d="M227.327,62.956c-0.025-0.21,0.015-0.854-0.024-1.086l0.012,0.029l-0.022-0.433
	C227.294,61.872,227.29,62.722,227.327,62.956z"/>
</svg>
