<?xml version="1.0" encoding="utf-8"?>
<!-- Generator: Adobe Illustrator 18.1.0, SVG Export Plug-In . SVG Version: 6.00 Build 0)  -->
<!DOCTYPE svg PUBLIC "-//W3C//DTD SVG 1.1//EN" "http://www.w3.org/Graphics/SVG/1.1/DTD/svg11.dtd">
<svg version="1.1" id="Layer_1" xmlns="http://www.w3.org/2000/svg" xmlns:xlink="http://www.w3.org/1999/xlink" x="0px" y="0px"
	 width="32px" height="20px" viewBox="0 0 32 20" enable-background="new 0 0 32 20" xml:space="preserve">
<linearGradient id="SVGID_1_" gradientUnits="userSpaceOnUse" x1="-9.094947e-13" y1="10" x2="32" y2="10">
	<stop  offset="0" style="stop-color:#0071BC"/>
	<stop  offset="1" style="stop-color:#29ABE2"/>
</linearGradient>
<rect fill="url(#SVGID_1_)" width="32" height="20"/>
<path fill="#FFFFFF" d="M2.9,7.2L2.3,5.7L1.7,7.2 M16.4,6.6c-0.1,0.1-0.3,0.1-0.4,0.1h-1.1V5.8H16c0.2,0,0.3,0,0.4,0.1
	c0.1,0.1,0.2,0.2,0.2,0.3C16.6,6.4,16.5,6.5,16.4,6.6z M24.2,7.2l-0.6-1.5l-0.6,1.5H24.2z M9.7,8.8H8.8l0-2.9L7.5,8.8H6.7L5.4,5.8
	v2.9H3.5L3.2,7.9H1.3L1,8.8H0L1.6,5h1.3l1.5,3.6V5h1.5l1.2,2.5L8.2,5h1.5L9.7,8.8L9.7,8.8z M13.3,8.8h-3V5h3v0.8h-2.1v0.7h2v0.8h-2
	V8h2.1V8.8z M17.6,6c0,0.6-0.4,0.9-0.6,1c0.2,0.1,0.4,0.2,0.4,0.3c0.1,0.2,0.1,0.4,0.1,0.7v0.7h-0.9l0-0.5c0-0.2,0-0.6-0.1-0.7
	c-0.1-0.1-0.3-0.2-0.7-0.2h-1v1.4H14V5H16c0.5,0,0.8,0,1.1,0.2C17.4,5.4,17.6,5.6,17.6,6z M19,8.8h-0.9V5H19V8.8z M29.6,8.8h-1.3
	L26.6,6v2.8h-1.8l-0.3-0.8h-1.9l-0.3,0.8h-1c-0.4,0-1-0.1-1.3-0.4c-0.3-0.3-0.5-0.8-0.5-1.4c0-0.6,0.1-1.1,0.5-1.5
	C20.2,5.2,20.7,5,21.3,5h0.9v0.8h-0.8c-0.3,0-0.5,0-0.7,0.2c-0.2,0.2-0.3,0.5-0.3,0.8c0,0.4,0.1,0.7,0.2,0.9C20.7,7.9,21,8,21.2,8
	h0.4l1.3-3h1.3l1.5,3.5V5h1.4l1.6,2.6V5h0.9L29.6,8.8L29.6,8.8z M0,9.5h1.5l0.3-0.8h0.8L3,9.5h3V8.9l0.3,0.6h1.6l0.3-0.6v0.6h7.5
	l0-1.4h0.1c0.1,0,0.1,0,0.1,0.2v1.2h3.9V9.2c0.3,0.2,0.8,0.3,1.4,0.3h1.6l0.3-0.8h0.8l0.3,0.8h3.1V8.7l0.5,0.8h2.5V4.3h-2.5v0.6
	l-0.3-0.6H25v0.6l-0.3-0.6h-3.5c-0.6,0-1.1,0.1-1.5,0.3V4.3h-2.4v0.3c-0.3-0.2-0.6-0.3-1-0.3H7.7L7.1,5.6L6.5,4.3H3.7v0.6L3.4,4.3
	H1.1L0,6.8L0,9.5L0,9.5z"/>
<path fill="#FFFFFF" d="M31.9,12.3h-1.6c-0.2,0-0.3,0-0.4,0.1c-0.1,0.1-0.1,0.2-0.1,0.3c0,0.1,0.1,0.2,0.2,0.3c0.1,0,0.2,0,0.3,0
	l0.5,0c0.5,0,0.8,0.1,1,0.3c0,0,0.1,0.1,0.1,0.1 M31.9,14.8c-0.2,0.3-0.6,0.5-1.2,0.5H29v-0.8h1.7c0.2,0,0.3,0,0.4-0.1
	c0.1-0.1,0.1-0.1,0.1-0.2c0-0.1,0-0.2-0.1-0.2c-0.1-0.1-0.2-0.1-0.3-0.1c-0.8,0-1.9,0-1.9-1.2c0-0.5,0.3-1.1,1.3-1.1h1.8v-0.7h-1.7
	c-0.5,0-0.9,0.1-1.1,0.3v-0.3h-2.5c-0.4,0-0.9,0.1-1.1,0.3v-0.3h-4.4V11c-0.3-0.3-0.9-0.3-1.2-0.3h-2.9V11c-0.3-0.3-0.9-0.3-1.3-0.3
	h-3.2l-0.7,0.8l-0.7-0.8H6.3V16h4.7l0.8-0.8l0.7,0.8l2.9,0v-1.2h0.3c0.4,0,0.8,0,1.2-0.2V16h2.4v-1.4h0.1c0.1,0,0.2,0,0.2,0.2V16H27
	c0.5,0,1-0.1,1.2-0.3V16h2.3c0.5,0,1-0.1,1.3-0.2L31.9,14.8L31.9,14.8z M28.3,13.3c0.2,0.2,0.3,0.4,0.3,0.8c0,0.8-0.5,1.2-1.4,1.2
	h-1.7v-0.8h1.7c0.2,0,0.3,0,0.4-0.1c0.1-0.1,0.1-0.1,0.1-0.2c0-0.1,0-0.2-0.1-0.2c-0.1-0.1-0.2-0.1-0.3-0.1c-0.8,0-1.9,0-1.9-1.2
	c0-0.5,0.3-1.1,1.3-1.1h1.8v0.8h-1.6c-0.2,0-0.3,0-0.4,0.1c-0.1,0.1-0.1,0.2-0.1,0.3c0,0.1,0.1,0.2,0.2,0.3c0.1,0,0.2,0,0.3,0l0.5,0
	C27.8,13,28.1,13,28.3,13.3z M20.2,13c-0.1,0.1-0.3,0.1-0.4,0.1h-1.1v-0.8h1.1c0.2,0,0.3,0,0.4,0.1c0.1,0.1,0.2,0.2,0.2,0.3
	C20.4,12.8,20.4,13,20.2,13z M20.8,13.5c0.2,0.1,0.4,0.2,0.4,0.3c0.1,0.2,0.1,0.4,0.1,0.7v0.7h-0.9v-0.5c0-0.2,0-0.6-0.1-0.7
	c-0.1-0.1-0.3-0.2-0.7-0.2h-1v1.4h-0.9v-3.8h2.1c0.5,0,0.8,0,1.1,0.2c0.3,0.2,0.5,0.4,0.5,0.8C21.4,13.1,21,13.4,20.8,13.5z
	 M21.9,11.5h3v0.8h-2.1v0.7h2v0.8h-2v0.7l2.1,0v0.8h-3V11.5z M15.9,13.2h-1.2v-1h1.2c0.3,0,0.5,0.1,0.5,0.5
	C16.4,13,16.2,13.2,15.9,13.2z M13.8,14.9l-1.4-1.5l1.4-1.5V14.9z M10.3,14.5H8v-0.7h2v-0.8H8v-0.7h2.2l1,1.1L10.3,14.5z M17.4,12.7
	c0,1-0.8,1.3-1.6,1.3h-1.1v1.3H13L11.9,14l-1.1,1.2H7.2v-3.8h3.6l1.1,1.2l1.1-1.2h2.9C16.6,11.5,17.4,11.7,17.4,12.7z"/>
</svg>
