<?xml version="1.0" encoding="utf-8"?>
<!-- Generator: Adobe Illustrator 15.1.0, SVG Export Plug-In  -->
<!DOCTYPE svg PUBLIC "-//W3C//DTD SVG 1.1//EN" "http://www.w3.org/Graphics/SVG/1.1/DTD/svg11.dtd" [
	<!ENTITY ns_flows "http://ns.adobe.com/Flows/1.0/">
]>
<svg version="1.1"
	 xmlns="http://www.w3.org/2000/svg" xmlns:xlink="http://www.w3.org/1999/xlink" xmlns:a="http://ns.adobe.com/AdobeSVGViewerExtensions/3.0/"
	 x="0px" y="0px" width="32px" height="20px" viewBox="0 0 32 20" overflow="visible" enable-background="new 0 0 32 20"
	 xml:space="preserve">
<defs>
</defs>
<rect fill="#FFFFFF" width="32" height="20"/>
<path d="M2.006,17.812V17.62c0.268,0,0.448-0.032,0.54-0.099c0.091-0.065,0.137-0.206,0.137-0.424v-3.111
	c0-0.137-0.024-0.229-0.073-0.281c-0.061-0.068-0.187-0.102-0.377-0.102L2,13.615v-0.174c0.744-0.118,1.342-0.177,1.798-0.177
	c0.788,0,1.415,0.175,1.882,0.523c0.532,0.396,0.798,0.982,0.798,1.757c0,0.681-0.219,1.23-0.655,1.645
	c-0.437,0.415-1.016,0.622-1.739,0.622c-0.085,0-0.268-0.004-0.548-0.016c-0.28-0.011-0.429-0.016-0.445-0.016L2.006,17.812z
	 M4.042,17.583c0.561,0,1.003-0.184,1.328-0.55c0.325-0.365,0.487-0.87,0.487-1.514c0-0.63-0.187-1.13-0.561-1.501
	c-0.353-0.35-0.802-0.523-1.347-0.523c-0.276,0-0.465,0.03-0.566,0.092c-0.102,0.062-0.152,0.19-0.152,0.387v2.977
	C3.231,17.372,3.501,17.583,4.042,17.583z"/>
<path d="M7.533,15.201v2.182c0,0.105,0.025,0.179,0.075,0.221c0.051,0.041,0.152,0.062,0.305,0.062v0.142l-0.554-0.024H7.018
	c-0.075,0-0.141,0.005-0.199,0.013c-0.058,0.009-0.093,0.012-0.104,0.012v-0.147c0.13-0.016,0.216-0.031,0.258-0.047
	c0.097-0.04,0.145-0.122,0.145-0.248v-1.433c0-0.094-0.018-0.162-0.053-0.203c-0.035-0.041-0.122-0.085-0.26-0.133v-0.1
	L7.533,15.201z M7.314,13.479c0.082,0,0.152,0.032,0.21,0.093c0.058,0.062,0.087,0.135,0.087,0.221c0,0.087-0.029,0.16-0.087,0.222
	c-0.058,0.061-0.128,0.091-0.21,0.091c-0.086,0-0.156-0.029-0.213-0.089c-0.056-0.06-0.083-0.133-0.083-0.224
	c0-0.086,0.029-0.159,0.087-0.221C7.163,13.511,7.232,13.479,7.314,13.479z"/>
<path d="M8.217,17.807v-0.147c0.131-0.016,0.216-0.031,0.257-0.047c0.097-0.04,0.146-0.122,0.146-0.248v-1.433
	c0-0.094-0.018-0.162-0.053-0.203c-0.036-0.041-0.123-0.085-0.26-0.133v-0.1l0.682-0.295l0.034,0.023v0.494
	c0.149-0.132,0.287-0.237,0.415-0.311c0.183-0.107,0.354-0.16,0.514-0.16c0.179,0,0.321,0.044,0.425,0.13
	c0.157,0.131,0.235,0.354,0.235,0.674v0.112v1.235c0,0.099,0.023,0.167,0.07,0.206c0.047,0.04,0.145,0.06,0.294,0.06v0.142
	l-0.548-0.024c-0.138,0-0.257,0.003-0.358,0.009c-0.101,0.005-0.195,0.011-0.285,0.016v-0.142c0.167,0,0.274-0.013,0.319-0.041
	c0.063-0.039,0.095-0.136,0.095-0.29V16.14c0-0.379-0.147-0.567-0.442-0.567c-0.228,0-0.472,0.109-0.733,0.324v1.486
	c0,0.105,0.025,0.179,0.076,0.221c0.051,0.041,0.152,0.062,0.305,0.062v0.142l-0.548-0.024c-0.071,0-0.164,0.005-0.28,0.01
	S8.34,17.804,8.217,17.807z"/>
<path d="M12.18,17.871c-0.312,0-0.576-0.089-0.793-0.266c-0.26-0.212-0.39-0.521-0.39-0.931c0-0.448,0.143-0.813,0.429-1.097
	c0.255-0.251,0.553-0.377,0.89-0.377c0.277,0,0.51,0.079,0.699,0.238c0.188,0.16,0.283,0.381,0.283,0.663l-0.006,0.147h-1.819
	l-0.02,0.194c0,0.283,0.084,0.527,0.253,0.731c0.19,0.232,0.438,0.348,0.74,0.348c0.256,0,0.516-0.119,0.78-0.359l0.091,0.088
	C12.992,17.665,12.613,17.871,12.18,17.871z M11.497,16.085h1.001c0.187,0,0.28-0.075,0.28-0.229c0-0.142-0.05-0.258-0.149-0.348
	c-0.1-0.091-0.234-0.136-0.403-0.136c-0.165,0-0.315,0.06-0.451,0.18C11.637,15.672,11.545,15.85,11.497,16.085z"/>
<path d="M14.239,15.902l0.185-0.254c0.108-0.145,0.214-0.251,0.316-0.318c0.103-0.066,0.199-0.1,0.288-0.1
	c0.085,0,0.154,0.028,0.207,0.083c0.052,0.055,0.079,0.124,0.079,0.206c0,0.168-0.067,0.253-0.202,0.253
	c-0.063,0-0.131-0.016-0.201-0.047c-0.03-0.012-0.064-0.023-0.101-0.033c-0.038-0.009-0.065-0.015-0.084-0.015
	c-0.06,0-0.125,0.032-0.196,0.095s-0.168,0.176-0.291,0.341v1.105c0,0.148,0.019,0.25,0.056,0.305c0.059,0.087,0.19,0.13,0.392,0.13
	v0.158l-0.548-0.011h-0.66v-0.123c0.138,0,0.23-0.025,0.277-0.074c0.046-0.051,0.07-0.145,0.07-0.286v-1.422
	c0-0.048-0.015-0.086-0.045-0.117c-0.041-0.045-0.136-0.102-0.286-0.172v-0.112l0.745-0.288V15.902z"/>
<path d="M15.646,17.078l0.146-0.023c0.116,0.421,0.318,0.63,0.61,0.63c0.126,0,0.235-0.039,0.324-0.118
	c0.089-0.078,0.134-0.184,0.134-0.312c0-0.17-0.06-0.3-0.179-0.391c-0.135-0.086-0.25-0.162-0.347-0.225
	c-0.224-0.146-0.376-0.273-0.456-0.388c-0.08-0.111-0.12-0.234-0.12-0.368c0-0.173,0.062-0.329,0.185-0.467
	c0.149-0.166,0.349-0.248,0.599-0.248c0.026,0,0.048,0,0.067,0c0.06,0,0.129,0.01,0.207,0.029c0.079,0.02,0.206,0.065,0.381,0.135
	l-0.018,0.543h-0.105c-0.12-0.365-0.297-0.548-0.532-0.548c-0.123,0-0.226,0.036-0.308,0.112c-0.082,0.074-0.124,0.167-0.124,0.277
	c0,0.091,0.017,0.16,0.051,0.206c0.071,0.099,0.233,0.221,0.487,0.367c0.187,0.119,0.31,0.207,0.369,0.267
	c0.146,0.145,0.218,0.32,0.218,0.525c0,0.229-0.083,0.413-0.251,0.556c-0.168,0.141-0.369,0.212-0.604,0.212
	c-0.235,0-0.467-0.079-0.694-0.237C15.686,17.37,15.673,17.192,15.646,17.078z"/>
<path d="M21.343,17.919c-0.597,0-1.117-0.199-1.561-0.6c-0.492-0.445-0.738-1.028-0.738-1.746c0-0.569,0.188-1.08,0.564-1.53
	c0.433-0.519,0.996-0.778,1.69-0.778c0.477,0,0.916,0.12,1.314,0.359c0,0.11,0.008,0.261,0.022,0.453s0.032,0.342,0.051,0.448
	l-0.141,0.026c-0.074-0.325-0.224-0.585-0.444-0.778c-0.223-0.194-0.479-0.292-0.77-0.292c-0.521,0-0.942,0.221-1.259,0.663
	c-0.28,0.392-0.42,0.854-0.42,1.39c0,0.595,0.147,1.091,0.442,1.485c0.323,0.434,0.763,0.651,1.314,0.651
	c0.66,0,1.062-0.339,1.203-1.013l0.162,0.044c-0.049,0.281-0.085,0.493-0.108,0.637c-0.024,0.145-0.037,0.223-0.037,0.235
	C22.229,17.804,21.799,17.919,21.343,17.919z"/>
<path d="M23.881,13.248v4.14c0,0.106,0.025,0.181,0.076,0.222s0.151,0.062,0.305,0.062v0.141l-0.555-0.022
	c-0.101,0-0.204,0.003-0.313,0.008c-0.107,0.007-0.218,0.011-0.329,0.015v-0.146c0.13-0.015,0.215-0.032,0.258-0.047
	c0.097-0.04,0.145-0.122,0.145-0.248v-3.187c0-0.155-0.02-0.268-0.059-0.332c-0.04-0.064-0.124-0.124-0.255-0.179V13.59
	L23.881,13.248z"/>
<path d="M26.785,15.248v1.828c0,0.148,0.014,0.251,0.042,0.306c0.028,0.056,0.085,0.083,0.169,0.083c0.02,0,0.051-0.003,0.091-0.009
	s0.071-0.011,0.097-0.015v0.113c-0.164,0.047-0.419,0.158-0.762,0.335l-0.071-0.048l0.024-0.454
	c-0.236,0.195-0.431,0.329-0.58,0.405c-0.124,0.064-0.246,0.097-0.366,0.097c-0.495,0-0.742-0.283-0.742-0.848v-1.103
	c0-0.17-0.015-0.277-0.042-0.325c-0.053-0.087-0.183-0.131-0.392-0.131v-0.129c0.063,0,0.165-0.008,0.302-0.024
	c0.341-0.039,0.529-0.059,0.565-0.059v1.549c0,0.48,0.194,0.721,0.583,0.721c0.185,0,0.401-0.103,0.647-0.308V15.78
	c0-0.107-0.026-0.18-0.08-0.219c-0.065-0.053-0.191-0.078-0.378-0.078v-0.129c0.185,0,0.353-0.013,0.507-0.039
	C26.552,15.29,26.681,15.267,26.785,15.248z"/>
<path d="M27.694,17.205v-3.02c0-0.141-0.013-0.239-0.038-0.294c-0.041-0.087-0.133-0.16-0.275-0.219v-0.082
	c0.16-0.06,0.4-0.174,0.718-0.343v2.265c0.331-0.199,0.598-0.301,0.799-0.301c0.261,0,0.501,0.099,0.717,0.297
	C29.872,15.745,30,16.062,30,16.455c0,0.447-0.147,0.806-0.441,1.079c-0.258,0.235-0.552,0.355-0.88,0.355
	c-0.118,0-0.239-0.022-0.362-0.064c-0.079-0.021-0.149-0.042-0.214-0.062c-0.1-0.034-0.165-0.051-0.195-0.051
	c-0.044,0-0.082,0.059-0.111,0.178h-0.135c0.004-0.048,0.011-0.111,0.02-0.189C27.69,17.621,27.694,17.456,27.694,17.205z
	 M28.099,15.686v1.125c0,0.282,0.058,0.496,0.176,0.644c0.116,0.148,0.28,0.224,0.489,0.224c0.269,0,0.472-0.114,0.609-0.339
	c0.12-0.193,0.179-0.437,0.179-0.729c0-0.323-0.065-0.584-0.195-0.782c-0.152-0.232-0.377-0.35-0.671-0.35
	C28.513,15.478,28.317,15.547,28.099,15.686z"/>
<path fill="#204683" d="M22.88,7.724c0-3.116-2.526-5.642-5.641-5.642c-0.109,0-0.218,0.003-0.325,0.009h-2.299
	c-0.107-0.006-0.215-0.009-0.324-0.009c-3.116,0-5.642,2.526-5.642,5.642s2.526,5.642,5.642,5.642c0.097,0,0.194-0.002,0.291-0.006
	h2.366c0.096,0.004,0.193,0.006,0.292,0.006c0.097,0,0.193-0.002,0.29-0.006h0.033v-0.002C20.528,13.188,22.88,10.731,22.88,7.724z
	 M9.121,7.724c0-2.851,2.319-5.17,5.17-5.17c2.852,0,5.171,2.319,5.171,5.17s-2.319,5.171-5.171,5.171
	C11.44,12.895,9.121,10.575,9.121,7.724z"/>
<path fill="#FFFFFF" d="M14.291,12.895c2.852,0,5.171-2.32,5.171-5.171s-2.319-5.17-5.171-5.17c-2.851,0-5.17,2.319-5.17,5.17
	S11.44,12.895,14.291,12.895z M15.456,4.667c1.232,0.469,2.107,1.661,2.107,3.057c0,1.396-0.875,2.588-2.107,3.057V4.667z
	 M11.019,7.724c0-1.396,0.875-2.588,2.107-3.057v6.114C11.894,10.312,11.019,9.12,11.019,7.724z"/>
<path fill="#204683" d="M13.126,10.781V4.667c-1.232,0.469-2.107,1.661-2.107,3.057C11.019,9.12,11.894,10.312,13.126,10.781z"/>
<path fill="#204683" d="M17.562,7.724c0-1.396-0.875-2.588-2.107-3.057v6.114C16.688,10.312,17.562,9.12,17.562,7.724z"/>
</svg>
