<?xml version="1.0" encoding="utf-8"?>
<!-- Generator: Adobe Illustrator 15.1.0, SVG Export Plug-In  -->
<!DOCTYPE svg PUBLIC "-//W3C//DTD SVG 1.1//EN" "http://www.w3.org/Graphics/SVG/1.1/DTD/svg11.dtd" [
	<!ENTITY ns_flows "http://ns.adobe.com/Flows/1.0/">
]>
<svg version="1.1"
	 xmlns="http://www.w3.org/2000/svg" xmlns:xlink="http://www.w3.org/1999/xlink" xmlns:a="http://ns.adobe.com/AdobeSVGViewerExtensions/3.0/"
	 x="0px" y="0px" width="32px" height="20px" viewBox="0 0 32 20" overflow="visible" enable-background="new 0 0 32 20"
	 xml:space="preserve">
<defs>
</defs>
<rect fill="#FFFFFF" width="32" height="20"/>
<path id="Rectangle-1-copy_2_" fill="#D97B16" d="M32,8.42c0,0-4.77,8.16-22.09,11.58c8.6,0,20.88,0,22.09,0"/>
<path d="M9.64,12.41v-1.65h0.22l0.87,1.29v-1.29h0.21v1.65h-0.22l-0.86-1.29v1.29H9.64z"/>
<path d="M11.31,12.41v-1.65h1.19v0.19h-0.97v0.5h0.91v0.19h-0.91v0.56h1.01v0.19h-1.23V12.41z"/>
<path d="M13.26,12.41v-1.45h-0.54v-0.19h1.31v0.19h-0.54v1.45H13.26z"/>
<path d="M14.53,12.41l-0.44-1.65h0.22l0.25,1.08c0.03,0.11,0.05,0.23,0.07,0.34c0.04-0.18,0.07-0.279,0.07-0.3l0.31-1.11h0.26
	l0.24,0.83c0.06,0.211,0.1,0.4,0.13,0.58c0.02-0.1,0.05-0.22,0.08-0.359l0.26-1.061h0.22l-0.45,1.65h-0.21l-0.35-1.25
	c-0.03-0.1-0.05-0.17-0.05-0.189c-0.02,0.079-0.03,0.139-0.05,0.189l-0.35,1.25H14.53z"/>
<path d="M16.35,11.6c0-0.27,0.07-0.49,0.22-0.64c0.15-0.16,0.34-0.229,0.57-0.229c0.149,0,0.289,0.039,0.409,0.109
	s0.21,0.17,0.28,0.301c0.061,0.129,0.1,0.279,0.1,0.439c0,0.17-0.029,0.32-0.1,0.449c-0.07,0.131-0.16,0.23-0.29,0.301
	c-0.12,0.07-0.261,0.1-0.399,0.1c-0.16,0-0.291-0.039-0.42-0.109c-0.121-0.08-0.211-0.18-0.281-0.311
	C16.38,11.891,16.35,11.75,16.35,11.6z M16.58,11.609c0,0.201,0.05,0.361,0.16,0.471c0.109,0.109,0.24,0.17,0.4,0.17
	c0.159,0,0.299-0.061,0.399-0.17c0.11-0.12,0.16-0.28,0.16-0.49c0-0.13-0.021-0.25-0.07-0.35s-0.11-0.18-0.2-0.23
	c-0.09-0.06-0.189-0.08-0.289-0.08c-0.15,0-0.291,0.051-0.4,0.16C16.63,11.18,16.58,11.359,16.58,11.609z"/>
<path d="M18.21,12.41v-1.65h0.729c0.15,0,0.261,0.01,0.33,0.04c0.08,0.03,0.141,0.08,0.181,0.16s0.069,0.16,0.069,0.25
	c0,0.12-0.039,0.22-0.109,0.3c-0.08,0.08-0.189,0.131-0.35,0.15c0.06,0.029,0.1,0.05,0.129,0.08c0.061,0.06,0.121,0.13,0.181,0.22
	l0.29,0.45h-0.27l-0.221-0.34c-0.061-0.1-0.12-0.17-0.16-0.23c-0.039-0.061-0.08-0.09-0.109-0.109
	c-0.03-0.021-0.07-0.041-0.101-0.041c-0.021,0-0.069-0.01-0.12-0.01h-0.25v0.73H18.21z M18.43,11.49H18.9
	c0.1,0,0.18-0.01,0.229-0.03c0.06-0.021,0.101-0.05,0.13-0.101c0.03-0.039,0.04-0.09,0.04-0.149c0-0.08-0.03-0.14-0.079-0.19
	c-0.061-0.049-0.15-0.08-0.271-0.08H18.43V11.49z"/>
<path d="M19.859,12.41v-1.65h0.221v0.82l0.82-0.82h0.289L20.5,11.43l0.721,0.98H20.93l-0.59-0.83l-0.27,0.26v0.57H19.859z"/>
<path fill="#414042" d="M3.63,5.17H2.31v4.21H3.5c0.74,0,1.31-0.18,1.71-0.55S5.8,7.93,5.8,7.24c0-0.65-0.19-1.16-0.57-1.52
	C4.85,5.36,4.32,5.17,3.63,5.17z M3.59,8.64H3.21V5.91h0.48c0.8,0,1.2,0.45,1.2,1.35C4.88,8.18,4.45,8.64,3.59,8.64z"/>
<rect x="6.56" y="5.17" fill="#414042" width="0.89" height="4.21"/>
<path fill="#414042" d="M9.96,6.95c-0.3-0.14-0.49-0.24-0.57-0.3s-0.13-0.1-0.17-0.16C9.19,6.43,9.17,6.36,9.17,6.28
	c0-0.13,0.04-0.23,0.14-0.31C9.39,5.9,9.52,5.86,9.69,5.86c0.14,0,0.29,0.02,0.43,0.05c0.15,0.04,0.33,0.1,0.56,0.19l0.29-0.69
	c-0.22-0.09-0.42-0.17-0.62-0.22c-0.2-0.05-0.41-0.08-0.63-0.08c-0.45,0-0.79,0.11-1.05,0.32C8.43,5.65,8.3,5.94,8.3,6.31
	c0,0.2,0.04,0.37,0.11,0.52c0.08,0.15,0.18,0.28,0.31,0.39C8.85,7.33,9.04,7.45,9.3,7.57C9.57,7.7,9.76,7.79,9.85,7.85
	c0.09,0.06,0.16,0.12,0.2,0.19c0.05,0.06,0.07,0.14,0.07,0.22c0,0.15-0.05,0.26-0.16,0.33C9.86,8.67,9.71,8.7,9.51,8.7
	c-0.16,0-0.34-0.03-0.54-0.08c-0.2-0.05-0.44-0.14-0.72-0.27v0.83C8.6,9.35,8.99,9.44,9.44,9.44c0.49,0,0.87-0.11,1.14-0.33
	c0.27-0.22,0.41-0.52,0.41-0.9c0-0.27-0.07-0.51-0.22-0.69C10.63,7.33,10.36,7.14,9.96,6.95z"/>
<path fill="#414042" d="M12.49,7.29c0-0.45,0.09-0.8,0.28-1.05c0.18-0.25,0.44-0.38,0.78-0.38c0.15,0,0.31,0.03,0.47,0.08
	c0.16,0.06,0.32,0.12,0.48,0.2l0.29-0.73c-0.41-0.2-0.82-0.3-1.23-0.3c-0.4,0-0.75,0.09-1.05,0.26c-0.3,0.18-0.53,0.43-0.69,0.76
	c-0.16,0.33-0.24,0.71-0.24,1.15c0,0.69,0.16,1.23,0.49,1.6c0.32,0.37,0.79,0.56,1.4,0.56c0.43,0,0.81-0.07,1.16-0.22V8.47
	c-0.42,0.15-0.78,0.22-1.07,0.22C12.84,8.7,12.49,8.23,12.49,7.29z"/>
<path fill="#414042" d="M20.96,7.68c-0.12,0.44-0.19,0.75-0.22,0.93C20.73,8.53,20.7,8.4,20.65,8.2C20.6,8,20.561,7.83,20.51,7.68
	l-0.789-2.5h-0.9l1.43,4.21h0.971l1.43-4.21h-0.9L20.96,7.68z"/>
<polygon fill="#414042" points="23.189,9.38 25.609,9.38 25.609,8.64 24.08,8.64 24.08,7.56 25.5,7.56 25.5,6.83 24.08,6.83 
	24.08,5.91 25.609,5.91 25.609,5.17 23.189,5.17 "/>
<path fill="#414042" d="M28.609,7.55c0.25-0.11,0.44-0.26,0.58-0.45c0.141-0.19,0.201-0.41,0.201-0.66c0-0.42-0.141-0.74-0.41-0.95
	c-0.28-0.21-0.701-0.31-1.271-0.31H26.48v4.21h0.89V7.77h0.47l1,1.61h0.99C29.66,9.1,29.24,8.49,28.609,7.55z M28.29,6.9
	c-0.13,0.09-0.34,0.14-0.62,0.14h-0.29V5.9h0.271c0.289,0,0.5,0.04,0.64,0.13c0.14,0.09,0.21,0.23,0.21,0.43
	C28.49,6.66,28.42,6.81,28.29,6.9z"/>
<circle fill="#D97B16" cx="16.82" cy="7.28" r="2.1"/>
</svg>
