<?xml version="1.0" encoding="utf-8"?>
<!-- Generator: Adobe Illustrator 15.1.0, SVG Export Plug-In . SVG Version: 6.00 Build 0)  -->
<!DOCTYPE svg PUBLIC "-//W3C//DTD SVG 1.1//EN" "http://www.w3.org/Graphics/SVG/1.1/DTD/svg11.dtd">
<svg version="1.1" id="Layer_1" xmlns="http://www.w3.org/2000/svg" xmlns:xlink="http://www.w3.org/1999/xlink" x="0px" y="0px"
	 width="32px" height="20px" viewBox="0 0 32 20" enable-background="new 0 0 32 20" xml:space="preserve">
<g>
	<rect x="1" y="1" fill="#FFFFFF" width="30" height="18"/>
	<path fill="#1D478E" d="M5.5,7.087V6.888h2.982l0.104,2.068l0.104,2.068c0.248-0.577,0.87-1.611,1.429-2.5
		c0.559-0.89,1.055-1.635,1.055-1.635h0.849h0.85l-1.833,3.121l-1.833,3.123H8.286H7.364l-0.477-2.467L6.411,8.2
		c-0.083-0.497-0.259-0.87-0.497-1.03C5.759,7.067,5.5,7.087,5.5,7.087z"/>
	<polygon fill="#1D478E" points="13.909,6.888 15.566,6.888 13.453,13.131 11.797,13.131 	"/>
	<path fill="#1D478E" d="M20.949,7.564l-0.952,1.073c-1.422-1.146-2.07-0.304-2.07-0.304c-0.436,0.643,1.02,1.266,1.02,1.266
		c1.685,0.979,1.196,2.115,1.196,2.115c-0.81,1.855-2.758,1.644-2.758,1.644c-2.248-0.173-2.621-0.751-2.621-0.751l0.898-1.218
		c1.525,1.006,2.417,0.523,2.417,0.523c0.912-0.803-0.677-1.312-0.677-1.312c-2.265-1.062-1.076-2.804-1.076-2.804
		c1.416-1.881,3.519-0.908,3.519-0.908C20.419,7.14,20.949,7.564,20.949,7.564z"/>
	<path fill="#1D478E" d="M26.5,13.131l-0.607-6.242h-2.292l-3.506,6.242h1.934l0.412-0.887l2.268,0.053l0.025,0.836H26.5V13.131z
		 M23.077,11.051l1.479-2.816l0.149,2.816H23.077z"/>
	<rect x="1" y="1" fill="#1D478E" width="30" height="3.6"/>
	<rect x="1" y="15.4" fill="#EFA634" width="30" height="3.6"/>
</g>
</svg>
