<?xml version="1.0" encoding="utf-8"?>
<!-- Generator: Adobe Illustrator 18.1.0, SVG Export Plug-In . SVG Version: 6.00 Build 0)  -->
<!DOCTYPE svg PUBLIC "-//W3C//DTD SVG 1.1//EN" "http://www.w3.org/Graphics/SVG/1.1/DTD/svg11.dtd">
<svg version="1.1" id="Layer_1" xmlns="http://www.w3.org/2000/svg" xmlns:xlink="http://www.w3.org/1999/xlink" x="0px" y="0px"
	 width="32px" height="20px" viewBox="0 0 32 20" enable-background="new 0 0 32 20" xml:space="preserve">
<g id="master_1_">
	<rect fill="#00ADEF" width="32" height="20"/>
	<g display="none">
		<path display="inline" fill="#FFFFFF" d="M7.4,13.3l-0.3-1.1H5.2l-0.3,1.1H3.1l2-6h2.2l2,6H7.4z M6.8,10.8l-0.3-1
			C6.4,9.6,6.4,9.4,6.3,9C6.2,8.7,6.1,8.4,6.1,8.3C6.1,8.4,6,8.6,6,8.9s-0.2,0.9-0.5,1.9L6.8,10.8L6.8,10.8z"/>
		<path display="inline" fill="#FFFFFF" d="M12.4,13.3L11.2,9h0c0.1,0.7,0.1,1.3,0.1,1.7v2.6H9.8v-6H12l1.3,4.3h0l1.2-4.3h2.2v6
			h-1.5v-2.6c0-0.1,0-0.3,0-0.5c0-0.2,0-0.6,0.1-1.2h0L14,13.3L12.4,13.3L12.4,13.3z"/>
		<path display="inline" fill="#FFFFFF" d="M21.3,13.3h-3.6v-6h3.6v1.3h-1.9v0.9h1.8v1.3h-1.8V12h1.9V13.3z"/>
		<path display="inline" fill="#FFFFFF" d="M27.8,13.3h-1.9l-1.2-1.9l-1.2,1.9h-1.8l2-3.1l-1.9-2.9h1.8l1.1,1.9l1-1.9h1.8l-1.9,3.1
			L27.8,13.3z"/>
	</g>
	<g display="none">
		<path display="inline" fill-rule="evenodd" clip-rule="evenodd" fill="#FFFFFF" d="M7.9,8.5l-1-2.2H5.7v3.2L4.2,6.3H3.7H3.1
			L1.7,9.6h0.9l0.3-0.8h0.8h0.8l0.3,0.8h1.7V7.1l1.1,2.5h0.8l1.1-2.4v2.4h0.8V6.3H8.9L7.9,8.5L7.9,8.5z M3.7,8.1H3.2L3.7,7v0
			l0.5,1.1H3.7L3.7,8.1z"/>
		<path display="inline" fill-rule="evenodd" clip-rule="evenodd" fill="#FFFFFF" d="M17,7.2c0-0.7-0.6-0.9-1-0.9h-0.6h-1.5v3.3h0.8
			V8.4h0.7h0.3c0.3,0,0.4,0.3,0.4,0.6l0,0.6H17l0-0.7c0-0.6-0.1-0.8-0.5-0.8C16.9,7.9,17,7.6,17,7.2L17,7.2z M15.8,7.8h-0.3h-0.7V7
			h0.7h0.3c0.3,0,0.4,0.2,0.4,0.4C16.2,7.6,16.1,7.8,15.8,7.8L15.8,7.8z"/>
		<polygon display="inline" fill-rule="evenodd" clip-rule="evenodd" fill="#FFFFFF" points="17.4,9.6 18.3,9.6 18.3,6.3 17.4,6.3 
			17.4,9.6 		"/>
		<path display="inline" fill-rule="evenodd" clip-rule="evenodd" fill="#FFFFFF" d="M26.7,6.3v2.3l-1.4-2.3h-1.2v3.1l-1.4-3.1h-0.5
			h-0.6l-1.1,2.6c0,0-0.4,0-0.5,0c-0.3,0-0.6-0.3-0.6-0.9c0-0.8,0.4-1,1-1h0.5V6.3h-1.1c-0.4,0-1.2,0.3-1.2,1.7
			c0,0.9,0.4,1.7,1.3,1.7H21l0.3-0.8h0.8h0.8l0.3,0.8h1.6V7.2l1.5,2.4h1.1V6.3H26.7L26.7,6.3z M22.1,8.1h-0.5L22.1,7l0,0l0.5,1.1
			H22.1L22.1,8.1z"/>
		<polygon display="inline" fill-rule="evenodd" clip-rule="evenodd" fill="#FFFFFF" points="10.8,9.6 13.5,9.6 13.5,8.9 11.6,8.9 
			11.6,8.3 13.4,8.3 13.4,7.6 11.6,7.6 11.6,7 13.5,7 13.5,6.3 10.8,6.3 10.8,9.6 		"/>
		<path display="inline" fill-rule="evenodd" clip-rule="evenodd" fill="#FFFFFF" d="M25,12.3c0,0-0.5,0-0.6,0
			c-0.2,0-0.3-0.1-0.3-0.3c0-0.3,0.3-0.3,0.6-0.3h1.3V11h-1.7c-0.5,0-1,0.3-1,1c0,0.6,0.2,1,1.1,1c0.1,0,0.5,0,0.6,0
			c0.2,0,0.3,0.1,0.3,0.3c0,0.3-0.3,0.3-0.6,0.3h-1.3v0.7H25c0.5,0,1.1-0.3,1.1-0.9C26.1,12.8,26,12.3,25,12.3L25,12.3z"/>
		<path display="inline" fill-rule="evenodd" clip-rule="evenodd" fill="#FFFFFF" d="M28,12.3c-0.1,0-0.5,0-0.6,0
			c-0.2,0-0.4-0.1-0.4-0.3c0-0.3,0.3-0.3,0.6-0.3H29V11h-1.7c-0.5,0-1,0.3-1,1c0,0.6,0.2,1,1.1,1c0.1,0,0.5,0,0.6,0
			c0.2,0,0.3,0.1,0.3,0.3c0,0.3-0.4,0.3-0.6,0.3h-1.3v0.7h1.7c0.5,0,1.1-0.3,1.1-0.9C29.1,12.8,29,12.3,28,12.3L28,12.3z"/>
		<path display="inline" fill-rule="evenodd" clip-rule="evenodd" fill="#FFFFFF" d="M15.4,11h-0.6h-2.1h-0.2l-0.9,1l-0.9-1h-1H7.4
			v3.3h2.2h0.9l1-1.1l1,1.1h0.2h1.4v-1.1h0.7h0.4c0.4,0,1.2,0,1.2-1.2C16.4,11.1,15.8,11,15.4,11L15.4,11z M10.1,13.6H9.6H8.3v-0.7
			h1.4h0.4v-0.6H9.6H8.3v-0.6h1.4h0.5l0.9,0.9L10.1,13.6L10.1,13.6z M13.2,13.9l-0.6-0.7l-0.6-0.7l0.6-0.6l0.6-0.7V13.9L13.2,13.9z
			 M15.1,12.5h-0.3h-0.7v-0.8h0.7h0.3c0.3,0,0.5,0.2,0.5,0.4C15.5,12.3,15.4,12.5,15.1,12.5L15.1,12.5z"/>
		<path display="inline" fill-rule="evenodd" clip-rule="evenodd" fill="#FFFFFF" d="M19.8,11.8c0-0.7-0.6-0.9-1-0.9h-0.6h-1.6v3.3
			h0.8v-1.2h0.8h0.3c0.3,0,0.4,0.3,0.4,0.6l0,0.6h0.8l0-0.7c0-0.5-0.1-0.8-0.5-0.8C19.7,12.5,19.8,12.3,19.8,11.8L19.8,11.8z
			 M18.6,12.4h-0.3h-0.8v-0.7h0.8h0.3c0.3,0,0.5,0.2,0.5,0.4C19,12.3,18.9,12.4,18.6,12.4L18.6,12.4z"/>
		<polygon display="inline" fill-rule="evenodd" clip-rule="evenodd" fill="#FFFFFF" points="20.2,14.3 22.9,14.3 22.9,13.6 
			21.1,13.6 21.1,12.9 22.8,12.9 22.8,12.3 21.1,12.3 21.1,11.7 22.9,11.7 22.9,11 20.2,11 20.2,14.3 		"/>
	</g>
	<g>
		<path fill-rule="evenodd" clip-rule="evenodd" fill="#FFFFFF" d="M13.5,10.8l-1.8-4.1H9.3v5.9L6.7,6.7h-1h-1l-2.6,6.1h1.6l0.5-1.4
			h1.5h1.5l0.6,1.4h3V8.3l2,4.5h1.4l2-4.4v4.4h1.5V6.7h-2.4L13.5,10.8L13.5,10.8z M5.7,10.1H4.8L5.7,8v0.1l0.9,2.1H5.7L5.7,10.1z"/>
		<path fill="#FFFFFF" d="M27,9.7l1.1-1.1l1.6-1.8h-1.9l-1.7,1.8l-1.7-1.8h-5.9v6h5.7l1.8-2l1.7,2h1.9l-1.6-1.8L27,9.7z M23.4,11.5
			H20v-1.2h3.3V9.1H20V8h3.4l1.7,1.6L23.4,11.5z"/>
	</g>
</g>
</svg>
