<?xml version="1.0" encoding="utf-8"?>
<!-- Generator: Adobe Illustrator 15.1.0, SVG Export Plug-In  -->
<!DOCTYPE svg PUBLIC "-//W3C//DTD SVG 1.1//EN" "http://www.w3.org/Graphics/SVG/1.1/DTD/svg11.dtd" [
	<!ENTITY ns_flows "http://ns.adobe.com/Flows/1.0/">
]>
<svg version="1.1"
	 xmlns="http://www.w3.org/2000/svg" xmlns:xlink="http://www.w3.org/1999/xlink" xmlns:a="http://ns.adobe.com/AdobeSVGViewerExtensions/3.0/"
	 x="0px" y="0px" width="32px" height="20px" viewBox="0 0 32 20" overflow="visible" enable-background="new 0 0 32 20"
	 xml:space="preserve">
<defs>
</defs>
<rect fill="#CCCCCC" width="32" height="20"/>
<rect y="2" width="32" height="5"/>
<rect x="2" y="9.167" fill="#FFFFFF" width="20" height="5"/>
<rect x="22.5" y="9.167" fill="#FFFFFF" width="7" height="5"/>
<path fill="none" stroke="#003366" stroke-linecap="round" stroke-linejoin="round" stroke-miterlimit="10" d="M6.125,10.667
	c-0.224-0.517-1.615,0.855-1.757,1.015c-0.476,0.538-1.01,1.182-0.999,1.938c0.87,0.168,1.889-0.902,2.295-1.571
	c0.268-0.44,0.353-1.009,0.456-1.472c-0.02,0.868-0.513,1.754-0.456,2.642c0.659-0.106,1.391-1.177,1.345-1.838
	c0.148,0.381-0.269,1.411,0.366,1.575c0.614,0.159,1.234-1.013,1.412-1.401c0.249-0.545,0.188-1.181,0.413-1.7
	c0.051,0.981-0.005,1.972,0.007,2.955c0.718-0.193,1.23-1.015,1.849-1.422c0.412,0.411,0.396,1.443,0.399,1.981
	c0.645-0.178,0.742-1.986,1.057-2.544c0.247,0.641,0.559,1.636,0.354,2.309c-0.125,0.413-0.438,0.824-0.633,1.207
	c-0.319,0.629-0.649,1.471-1.223,1.907c-0.145-0.286,0.182-1.259,0.228-1.417c0.315-1.095,0.775-2.206,1.363-3.181
	c0.622-1.03,1.492-2.089,2.587-2.637c0.722,0.646,0.683,2.795,0.634,3.604c-0.056,0.915-0.374,1.599-0.576,2.455
	c-0.088-0.346,0.145-0.901,0.239-1.181c0.141-0.421,0.35-1.318,0.678-1.684c0.275-0.307,0.935-0.864,1.33-0.964
	c0.141,0.401,0.119,0.854,0.225,1.268c0.272-0.2,0.455-0.43,0.778-0.548c0.204-0.075,0.401-0.024,0.588-0.172"/>
<text transform="matrix(1 0 0 1 23.001 12.6309)" font-family="'Helvetica-Oblique'" font-size="3">123</text>
<g>
	<path fill="#EE2A69" d="M25.999,9.167c2.169,0,4.001,1.146,4.001,2.501c0,1.354-1.832,2.499-4.001,2.499
		c-2.168,0-3.999-1.145-3.999-2.499C22,10.312,23.831,9.167,25.999,9.167 M25.999,8.167C23.238,8.167,21,9.734,21,11.668
		c0,1.933,2.238,3.499,4.999,3.499c2.762,0,5.001-1.566,5.001-3.499C31,9.734,28.761,8.167,25.999,8.167L25.999,8.167z"/>
</g>
</svg>
