<?xml version="1.0" encoding="utf-8"?>
<!-- Generator: Adobe Illustrator 15.1.0, SVG Export Plug-In  -->
<!DOCTYPE svg PUBLIC "-//W3C//DTD SVG 1.1//EN" "http://www.w3.org/Graphics/SVG/1.1/DTD/svg11.dtd" [
	<!ENTITY ns_flows "http://ns.adobe.com/Flows/1.0/">
]>
<svg version="1.1"
	 xmlns="http://www.w3.org/2000/svg" xmlns:xlink="http://www.w3.org/1999/xlink" xmlns:a="http://ns.adobe.com/AdobeSVGViewerExtensions/3.0/"
	 x="0px" y="0px" width="40px" height="25px" viewBox="0 0 40 25" overflow="visible" enable-background="new 0 0 40 25"
	 xml:space="preserve">
<defs>
</defs>
<rect fill="#003473" width="40" height="25"/>
<ellipse fill="#ED1C2E" cx="12.652" cy="12.5" rx="10.949" ry="10.816"/>
<path fill="#FCB131" d="M27.352,1.683c-2.83,0-5.407,1.06-7.351,2.8c-0.396,0.354-0.765,0.737-1.104,1.145h2.212
	c0.302,0.363,0.58,0.745,0.834,1.146h-3.882c-0.231,0.368-0.443,0.75-0.631,1.146h5.144c0.176,0.37,0.33,0.753,0.464,1.146h-6.07
	c-0.127,0.372-0.233,0.754-0.318,1.145h6.706c0.16,0.738,0.246,1.505,0.246,2.291c0,1.2-0.198,2.356-0.563,3.436h-6.07
	c0.133,0.393,0.287,0.775,0.463,1.146h5.144c-0.188,0.395-0.398,0.776-0.632,1.146h-3.881c0.254,0.399,0.533,0.781,0.836,1.145
	h2.211c-0.34,0.407-0.71,0.791-1.105,1.146c1.942,1.74,4.52,2.799,7.35,2.799c6.047,0,10.948-4.842,10.948-10.816
	S33.398,1.683,27.352,1.683z"/>
<path fill="#FCB131" d="M36.841,18.529c0-0.193,0.158-0.35,0.354-0.35c0.196,0,0.354,0.156,0.354,0.35s-0.157,0.351-0.354,0.351
	C36.999,18.88,36.841,18.723,36.841,18.529z M37.194,18.796c0.148,0,0.27-0.12,0.27-0.267s-0.121-0.266-0.27-0.266
	s-0.269,0.119-0.269,0.266S37.046,18.796,37.194,18.796z M37.146,18.683h-0.072v-0.306h0.132c0.027,0,0.055,0,0.079,0.015
	c0.025,0.017,0.039,0.046,0.039,0.077c0,0.034-0.02,0.066-0.054,0.079l0.058,0.135h-0.081l-0.047-0.12h-0.054V18.683z
	 M37.146,18.509h0.041c0.015,0,0.03,0.001,0.044-0.006c0.012-0.008,0.019-0.021,0.019-0.035c0-0.012-0.009-0.025-0.019-0.032
	c-0.013-0.007-0.032-0.005-0.046-0.005h-0.039V18.509z"/>
<path fill="#003473" d="M10.095,13.684c-0.124-0.014-0.18-0.018-0.265-0.018c-0.674,0-1.015,0.229-1.015,0.679
	c0,0.278,0.166,0.454,0.426,0.454C9.726,14.799,10.074,14.344,10.095,13.684z M10.96,15.673c-0.159,0-0.985,0-0.985,0l0.022-0.463
	c-0.3,0.365-0.701,0.54-1.246,0.54c-0.644,0-1.086-0.497-1.086-1.219c0-1.088,0.769-1.722,2.087-1.722
	c0.136,0,0.309,0.013,0.485,0.035c0.036-0.147,0.046-0.211,0.046-0.29c0-0.295-0.207-0.406-0.762-0.406
	c-0.582-0.006-1.062,0.138-1.259,0.202c0.013-0.074,0.165-1.004,0.165-1.004C9.02,11.174,9.41,11.11,9.851,11.11
	c1.021,0,1.562,0.453,1.56,1.309c0.003,0.229-0.036,0.512-0.096,0.884C11.211,13.949,10.99,15.335,10.96,15.673z"/>
<polygon fill="#003473" points="7.168,15.673 5.979,15.673 6.661,11.454 5.14,15.673 4.33,15.673 4.229,11.479 3.514,15.673 
	2.401,15.673 3.331,10.186 5.04,10.186 5.144,13.257 6.187,10.186 8.088,10.186 "/>
<path fill="#003473" d="M28.82,13.684c-0.125-0.014-0.18-0.018-0.265-0.018c-0.674,0-1.015,0.229-1.015,0.679
	c0,0.278,0.166,0.454,0.426,0.454C28.451,14.799,28.8,14.344,28.82,13.684z M29.686,15.673c-0.159,0-0.985,0-0.985,0l0.022-0.463
	c-0.3,0.365-0.701,0.54-1.245,0.54c-0.645,0-1.086-0.497-1.086-1.219c0-1.088,0.769-1.722,2.087-1.722
	c0.135,0,0.307,0.013,0.484,0.035c0.036-0.147,0.046-0.211,0.046-0.29c0-0.295-0.207-0.406-0.762-0.406
	c-0.582-0.006-1.062,0.138-1.259,0.202c0.013-0.074,0.165-1.004,0.165-1.004c0.592-0.173,0.983-0.236,1.422-0.236
	c1.021,0,1.562,0.453,1.561,1.309c0.002,0.229-0.036,0.512-0.096,0.884C29.938,13.949,29.715,15.335,29.686,15.673z"/>
<path fill="#003473" d="M16.242,15.604c-0.325,0.101-0.579,0.146-0.854,0.146c-0.608,0-0.939-0.346-0.939-0.98
	c-0.009-0.198,0.087-0.717,0.163-1.189c0.068-0.417,0.515-3.046,0.515-3.046h1.182l-0.138,0.676h0.714l-0.161,1.073h-0.717
	c-0.137,0.848-0.332,1.905-0.335,2.045c0,0.229,0.125,0.331,0.407,0.331c0.136,0,0.24-0.015,0.32-0.042L16.242,15.604z"/>
<path fill="#003473" d="M19.865,15.568c-0.406,0.122-0.798,0.183-1.213,0.182c-1.322-0.002-2.012-0.685-2.012-1.991
	c0-1.525,0.877-2.648,2.067-2.648c0.974,0,1.597,0.628,1.597,1.614c0,0.328-0.043,0.647-0.146,1.099h-2.353
	c-0.079,0.647,0.34,0.916,1.027,0.916c0.423,0,0.805-0.086,1.229-0.28L19.865,15.568z M19.2,12.923
	c0.008-0.093,0.126-0.796-0.55-0.796c-0.376,0-0.646,0.282-0.754,0.796H19.2z"/>
<path fill="#003473" d="M11.673,12.621c0,0.563,0.276,0.953,0.904,1.245c0.481,0.224,0.557,0.29,0.557,0.493
	c0,0.277-0.213,0.404-0.683,0.404c-0.354,0-0.685-0.056-1.065-0.178c0,0-0.155,0.984-0.163,1.031
	c0.271,0.059,0.511,0.112,1.237,0.133c1.254,0,1.833-0.473,1.833-1.492c0-0.612-0.242-0.973-0.838-1.243
	c-0.498-0.227-0.556-0.277-0.556-0.484c0-0.241,0.198-0.365,0.582-0.365c0.232,0,0.552,0.024,0.854,0.066l0.169-1.034
	c-0.309-0.049-0.775-0.087-1.047-0.087C12.129,11.11,11.668,11.797,11.673,12.621z"/>
<path fill="#003473" d="M25.646,11.229c0.33,0,0.639,0.085,1.062,0.296l0.194-1.191c-0.175-0.067-0.787-0.464-1.307-0.464
	c-0.795,0-1.468,0.391-1.94,1.033c-0.69-0.226-0.974,0.23-1.321,0.685l-0.309,0.071c0.023-0.149,0.044-0.298,0.037-0.448h-1.092
	c-0.148,1.382-0.413,2.779-0.62,4.162l-0.054,0.301h1.189c0.198-1.275,0.307-2.09,0.373-2.644l0.447-0.245
	c0.067-0.245,0.276-0.328,0.696-0.318c-0.055,0.291-0.084,0.598-0.084,0.914c0,1.461,0.798,2.37,2.077,2.37
	c0.329,0,0.612-0.044,1.051-0.161l0.208-1.251c-0.394,0.192-0.717,0.282-1.009,0.282c-0.691,0-1.109-0.505-1.109-1.338
	C24.137,12.074,24.758,11.229,25.646,11.229z"/>
<path fill="#003473" d="M35.71,10.186l-0.265,1.585c-0.324-0.423-0.674-0.729-1.135-0.729c-0.6,0-1.146,0.449-1.503,1.11
	c-0.498-0.102-1.012-0.274-1.012-0.274l-0.001,0.004c0.04-0.37,0.057-0.595,0.053-0.672h-1.092c-0.148,1.382-0.413,2.779-0.62,4.162
	l-0.055,0.301h1.189c0.161-1.03,0.283-1.887,0.374-2.565c0.406-0.362,0.61-0.678,1.021-0.657c-0.183,0.435-0.288,0.935-0.288,1.448
	c0,1.115,0.57,1.852,1.435,1.852c0.437,0,0.771-0.149,1.097-0.493l-0.057,0.415h1.125l0.905-5.486H35.71z M34.223,14.642
	c-0.404,0-0.609-0.297-0.609-0.88c0-0.877,0.383-1.499,0.922-1.499c0.409,0,0.63,0.307,0.63,0.874
	C35.165,14.021,34.776,14.642,34.223,14.642z"/>
<polygon fill="#FFFFFF" points="7.51,15.347 6.321,15.347 7.003,11.129 5.482,15.347 4.672,15.347 4.572,11.153 3.856,15.347 
	2.743,15.347 3.673,9.86 5.382,9.86 5.43,13.257 6.583,9.86 8.43,9.86 "/>
<path fill="#FFFFFF" d="M10.438,13.358c-0.125-0.015-0.18-0.018-0.266-0.018c-0.674,0-1.015,0.229-1.015,0.679
	c0,0.277,0.167,0.455,0.426,0.455C10.067,14.475,10.417,14.019,10.438,13.358z M11.302,15.347c-0.158,0-0.984,0-0.984,0l0.021-0.463
	c-0.3,0.366-0.701,0.541-1.245,0.541c-0.645,0-1.086-0.498-1.086-1.22c0-1.088,0.769-1.721,2.087-1.721
	c0.135,0,0.308,0.013,0.484,0.035c0.037-0.147,0.047-0.211,0.047-0.29c0-0.295-0.207-0.405-0.763-0.405
	c-0.582-0.006-1.061,0.137-1.259,0.2c0.013-0.074,0.165-1.004,0.165-1.004c0.593-0.171,0.983-0.236,1.423-0.236
	c1.021,0,1.562,0.454,1.561,1.309c0.002,0.229-0.036,0.514-0.097,0.885C11.554,13.623,11.332,15.01,11.302,15.347z"/>
<path fill="#FFFFFF" d="M27.245,10.008l-0.195,1.19c-0.424-0.21-0.731-0.296-1.062-0.296c-0.888,0-1.51,0.847-1.51,2.056
	c0,0.833,0.418,1.337,1.109,1.337c0.293,0,0.616-0.09,1.01-0.282l-0.209,1.251c-0.438,0.117-0.721,0.161-1.051,0.161
	c-1.279,0-2.077-0.91-2.077-2.37c0-1.961,1.103-3.331,2.678-3.331C26.457,9.724,27.07,9.94,27.245,10.008z"/>
<path fill="#FFFFFF" d="M29.162,13.358c-0.124-0.015-0.179-0.018-0.265-0.018c-0.674,0-1.015,0.229-1.015,0.679
	c0,0.277,0.167,0.455,0.426,0.455C28.793,14.475,29.143,14.019,29.162,13.358z M30.027,15.347c-0.158,0-0.984,0-0.984,0l0.021-0.463
	c-0.3,0.366-0.701,0.541-1.245,0.541c-0.645,0-1.086-0.498-1.086-1.22c0-1.088,0.768-1.721,2.087-1.721
	c0.135,0,0.307,0.013,0.483,0.035c0.037-0.147,0.047-0.211,0.047-0.29c0-0.295-0.206-0.405-0.762-0.405
	c-0.581-0.006-1.061,0.137-1.259,0.2c0.013-0.074,0.165-1.004,0.165-1.004c0.593-0.171,0.983-0.236,1.423-0.236
	c1.021,0,1.562,0.454,1.561,1.309c0.002,0.229-0.036,0.514-0.097,0.885C30.279,13.623,30.058,15.01,30.027,15.347z"/>
<path fill="#FFFFFF" d="M16.584,15.278c-0.325,0.102-0.579,0.146-0.854,0.146c-0.607,0-0.939-0.346-0.939-0.98
	c-0.009-0.198,0.088-0.716,0.163-1.189c0.068-0.418,0.516-3.046,0.516-3.046h1.182l-0.139,0.676h0.606l-0.161,1.072H16.35
	c-0.138,0.849-0.333,1.905-0.336,2.046c0,0.23,0.125,0.33,0.407,0.33c0.136,0,0.24-0.013,0.321-0.041L16.584,15.278z"/>
<path fill="#FFFFFF" d="M20.207,15.244c-0.405,0.122-0.798,0.181-1.212,0.181c-1.323-0.001-2.013-0.685-2.013-1.991
	c0-1.526,0.877-2.649,2.067-2.649c0.975,0,1.597,0.63,1.597,1.615c0,0.328-0.043,0.646-0.146,1.099h-2.353
	c-0.08,0.647,0.34,0.917,1.026,0.917c0.423,0,0.805-0.087,1.229-0.281L20.207,15.244z M19.543,12.598
	c0.007-0.094,0.125-0.797-0.55-0.797c-0.376,0-0.646,0.284-0.755,0.797H19.543z"/>
<path fill="#FFFFFF" d="M12.015,12.296c0,0.564,0.277,0.953,0.905,1.245c0.481,0.224,0.556,0.29,0.556,0.493
	c0,0.277-0.212,0.403-0.683,0.403c-0.354,0-0.685-0.054-1.065-0.176c0,0-0.155,0.983-0.163,1.029
	c0.271,0.06,0.511,0.112,1.237,0.134c1.254,0,1.833-0.472,1.833-1.492c0-0.613-0.242-0.974-0.838-1.243
	c-0.498-0.227-0.556-0.276-0.556-0.484c0-0.241,0.198-0.366,0.582-0.366c0.233,0,0.552,0.025,0.854,0.067l0.169-1.034
	c-0.308-0.048-0.774-0.088-1.046-0.088C12.471,10.784,12.011,11.471,12.015,12.296z"/>
<path fill="#FFFFFF" d="M36.318,15.347h-1.124l0.056-0.415c-0.326,0.344-0.66,0.493-1.096,0.493c-0.864,0-1.436-0.736-1.436-1.853
	c0-1.484,0.886-2.734,1.934-2.734c0.461,0,0.811,0.185,1.136,0.607l0.264-1.585h1.172L36.318,15.347z M34.564,14.315
	c0.555,0,0.943-0.619,0.943-1.503c0-0.567-0.222-0.876-0.63-0.876c-0.539,0-0.922,0.622-0.922,1.5
	C33.956,14.021,34.161,14.315,34.564,14.315z"/>
<path fill="#FFFFFF" d="M31.098,10.885c-0.148,1.381-0.413,2.779-0.619,4.161l-0.055,0.301h1.189
	c0.425-2.729,0.527-3.262,1.194-3.195c0.106-0.559,0.304-1.048,0.451-1.294c-0.498-0.102-0.776,0.176-1.141,0.704
	c0.029-0.229,0.082-0.45,0.072-0.677H31.098z"/>
<path fill="#FFFFFF" d="M21.313,10.885c-0.149,1.381-0.414,2.779-0.62,4.161l-0.055,0.301h1.189
	c0.426-2.729,0.527-3.262,1.193-3.195c0.107-0.559,0.305-1.048,0.452-1.294c-0.497-0.102-0.776,0.176-1.14,0.704
	c0.028-0.229,0.081-0.45,0.071-0.677H21.313z"/>
<path fill="#FFFFFF" d="M36.841,14.997c0-0.193,0.158-0.35,0.353-0.35c0.196,0,0.354,0.156,0.354,0.35s-0.157,0.35-0.354,0.35
	C36.999,15.347,36.841,15.19,36.841,14.997z M37.193,15.264c0.149,0,0.27-0.12,0.27-0.267c0-0.146-0.12-0.266-0.27-0.266
	c-0.147,0-0.268,0.12-0.268,0.266C36.926,15.144,37.046,15.264,37.193,15.264z M37.146,15.15h-0.072v-0.307h0.131
	c0.027,0,0.056,0.001,0.079,0.016c0.026,0.016,0.04,0.046,0.04,0.076c0,0.034-0.021,0.067-0.054,0.08l0.057,0.135h-0.08
	l-0.048-0.121h-0.053V15.15z M37.146,14.977h0.04c0.015,0,0.031,0.001,0.044-0.007c0.012-0.007,0.018-0.021,0.018-0.034
	c0-0.012-0.007-0.025-0.017-0.032c-0.013-0.007-0.033-0.005-0.047-0.005h-0.038V14.977z"/>
</svg>
