<?xml version="1.0" encoding="utf-8"?>
<!-- Generator: Adobe Illustrator 15.1.0, SVG Export Plug-In  -->
<!DOCTYPE svg PUBLIC "-//W3C//DTD SVG 1.1//EN" "http://www.w3.org/Graphics/SVG/1.1/DTD/svg11.dtd" [
	<!ENTITY ns_flows "http://ns.adobe.com/Flows/1.0/">
]>
<svg version="1.1"
	 xmlns="http://www.w3.org/2000/svg" xmlns:xlink="http://www.w3.org/1999/xlink" xmlns:a="http://ns.adobe.com/AdobeSVGViewerExtensions/3.0/"
	 x="0px" y="0px" width="32px" height="20px" viewBox="0 0 32 20" overflow="visible" enable-background="new 0 0 32 20"
	 xml:space="preserve">
<defs>
</defs>
<rect fill="#003473" width="32" height="20"/>
<ellipse fill="#ED1C2E" cx="10.122" cy="10" rx="8.759" ry="8.653"/>
<path fill="#FCB131" d="M21.881,1.346c-2.264,0-4.324,0.848-5.88,2.239c-0.316,0.284-0.611,0.591-0.884,0.917h1.77
	c0.242,0.29,0.465,0.596,0.668,0.916h-3.105c-0.186,0.294-0.355,0.6-0.505,0.917h4.114c0.141,0.296,0.265,0.602,0.371,0.916h-4.856
	c-0.102,0.298-0.187,0.604-0.255,0.916h5.365c0.129,0.591,0.197,1.204,0.197,1.833c0,0.96-0.158,1.885-0.451,2.749h-4.856
	c0.106,0.313,0.23,0.619,0.371,0.916h4.114c-0.15,0.316-0.318,0.622-0.505,0.917h-3.104c0.203,0.319,0.426,0.625,0.668,0.916h1.77
	c-0.272,0.326-0.568,0.633-0.885,0.916c1.555,1.392,3.616,2.239,5.879,2.239c4.838,0,8.76-3.874,8.76-8.653
	S26.719,1.346,21.881,1.346z"/>
<path fill="#FCB131" d="M29.473,14.824c0-0.155,0.127-0.28,0.283-0.28s0.283,0.125,0.283,0.28c0,0.154-0.127,0.279-0.283,0.279
	S29.473,14.979,29.473,14.824z M29.756,15.036c0.119,0,0.215-0.095,0.215-0.212c0-0.118-0.096-0.213-0.215-0.213
	s-0.215,0.095-0.215,0.213C29.541,14.941,29.637,15.036,29.756,15.036z M29.719,14.946H29.66v-0.245h0.105
	c0.021,0,0.043,0,0.062,0.012c0.02,0.014,0.031,0.037,0.031,0.062c0,0.028-0.016,0.054-0.043,0.063l0.047,0.108h-0.064L29.76,14.85
	h-0.041V14.946z M29.719,14.808h0.031c0.012,0,0.025,0,0.035-0.005c0.01-0.007,0.016-0.018,0.016-0.028
	c0-0.01-0.008-0.021-0.016-0.025c-0.01-0.006-0.025-0.005-0.037-0.005h-0.029V14.808z"/>
<path fill="#003473" d="M8.077,10.947c-0.1-0.012-0.144-0.015-0.212-0.015c-0.539,0-0.812,0.183-0.812,0.543
	c0,0.223,0.133,0.364,0.34,0.364C7.781,11.84,8.06,11.476,8.077,10.947z M8.768,12.538c-0.126,0-0.788,0-0.788,0l0.018-0.37
	C7.758,12.46,7.437,12.6,7.001,12.6c-0.515,0-0.869-0.397-0.869-0.976c0-0.869,0.615-1.376,1.669-1.376
	c0.108,0,0.246,0.01,0.388,0.027c0.029-0.117,0.037-0.168,0.037-0.231c0-0.236-0.166-0.325-0.61-0.325
	C7.152,9.714,6.769,9.829,6.611,9.88c0.01-0.06,0.132-0.803,0.132-0.803C7.216,8.939,7.529,8.888,7.88,8.888
	c0.817,0,1.25,0.362,1.249,1.047c0.001,0.184-0.029,0.41-0.077,0.708C8.969,11.159,8.792,12.268,8.768,12.538z"/>
<polygon fill="#003473" points="5.735,12.538 4.784,12.538 5.329,9.163 4.112,12.538 3.464,12.538 3.384,9.183 2.812,12.538 
	1.922,12.538 2.665,8.148 4.033,8.148 4.115,10.605 4.95,8.148 6.47,8.148 "/>
<path fill="#003473" d="M23.057,10.947c-0.1-0.012-0.143-0.015-0.211-0.015c-0.541,0-0.812,0.183-0.812,0.543
	c0,0.223,0.133,0.364,0.34,0.364C22.762,11.84,23.041,11.476,23.057,10.947z M23.748,12.538c-0.127,0-0.787,0-0.787,0l0.018-0.37
	c-0.24,0.292-0.561,0.432-0.996,0.432c-0.516,0-0.869-0.397-0.869-0.976c0-0.869,0.615-1.376,1.67-1.376
	c0.107,0,0.246,0.01,0.387,0.027c0.029-0.117,0.037-0.168,0.037-0.231c0-0.236-0.166-0.325-0.609-0.325
	c-0.465-0.005-0.85,0.11-1.008,0.161c0.012-0.06,0.133-0.803,0.133-0.803c0.475-0.138,0.787-0.189,1.139-0.189
	c0.816,0,1.248,0.362,1.248,1.047c0.002,0.184-0.029,0.41-0.076,0.708C23.949,11.159,23.773,12.268,23.748,12.538z"/>
<path fill="#003473" d="M12.994,12.483c-0.26,0.081-0.463,0.116-0.683,0.116c-0.486,0-0.751-0.276-0.751-0.784
	c-0.007-0.158,0.07-0.573,0.13-0.952c0.055-0.333,0.413-2.436,0.413-2.436h0.945l-0.11,0.54h0.571l-0.129,0.858h-0.573
	c-0.11,0.679-0.266,1.524-0.268,1.637c0,0.184,0.1,0.264,0.326,0.264c0.108,0,0.192-0.011,0.256-0.033L12.994,12.483z"/>
<path fill="#003473" d="M15.893,12.455c-0.325,0.098-0.638,0.146-0.97,0.145c-1.058-0.002-1.61-0.547-1.61-1.593
	c0-1.22,0.702-2.119,1.655-2.119c0.779,0,1.277,0.503,1.277,1.292c0,0.263-0.034,0.518-0.117,0.878h-1.882
	c-0.063,0.519,0.271,0.733,0.822,0.733c0.338,0,0.644-0.068,0.982-0.224L15.893,12.455z M15.361,10.338
	c0.006-0.074,0.1-0.637-0.44-0.637c-0.301,0-0.516,0.227-0.604,0.637H15.361z"/>
<path fill="#003473" d="M9.338,10.097c0,0.451,0.222,0.763,0.724,0.996c0.385,0.18,0.445,0.232,0.445,0.395
	c0,0.222-0.17,0.323-0.546,0.323c-0.284,0-0.548-0.044-0.853-0.142c0,0-0.125,0.787-0.13,0.825c0.216,0.046,0.409,0.089,0.989,0.105
	c1.003,0,1.467-0.378,1.467-1.193c0-0.49-0.194-0.778-0.67-0.995c-0.398-0.181-0.445-0.221-0.445-0.388
	c0-0.193,0.158-0.291,0.465-0.291c0.187,0,0.442,0.02,0.684,0.053l0.135-0.827c-0.246-0.039-0.62-0.07-0.837-0.07
	C9.703,8.888,9.335,9.438,9.338,10.097z"/>
<path fill="#003473" d="M20.518,8.982c0.264,0,0.51,0.067,0.85,0.237l0.156-0.953c-0.141-0.054-0.631-0.372-1.046-0.372
	c-0.636,0-1.175,0.312-1.553,0.827c-0.552-0.181-0.779,0.185-1.058,0.548l-0.246,0.058c0.018-0.12,0.035-0.239,0.029-0.359h-0.873
	c-0.119,1.105-0.331,2.225-0.496,3.33l-0.043,0.24h0.952c0.158-1.02,0.245-1.672,0.299-2.114l0.357-0.196
	c0.055-0.197,0.221-0.264,0.557-0.255c-0.043,0.232-0.066,0.478-0.066,0.731c0,1.168,0.639,1.896,1.661,1.896
	c0.264,0,0.49-0.034,0.841-0.129l0.166-1c-0.314,0.153-0.572,0.225-0.807,0.225c-0.553,0-0.888-0.403-0.888-1.069
	C19.31,9.659,19.807,8.982,20.518,8.982z"/>
<path fill="#003473" d="M28.568,8.148l-0.211,1.268c-0.26-0.338-0.539-0.582-0.908-0.582c-0.48,0-0.916,0.359-1.203,0.889
	c-0.398-0.082-0.809-0.221-0.809-0.221v0.003c0.031-0.296,0.045-0.476,0.041-0.537h-0.873c-0.119,1.105-0.33,2.225-0.496,3.33
	l-0.043,0.24h0.951c0.129-0.824,0.227-1.509,0.299-2.052c0.324-0.29,0.488-0.543,0.816-0.526c-0.146,0.348-0.23,0.748-0.23,1.158
	c0,0.893,0.457,1.481,1.148,1.481c0.348,0,0.615-0.119,0.877-0.395l-0.045,0.332h0.898l0.725-4.389H28.568z M27.379,11.713
	c-0.324,0-0.488-0.237-0.488-0.703c0-0.702,0.307-1.199,0.738-1.199c0.326,0,0.504,0.245,0.504,0.698
	C28.133,11.217,27.822,11.713,27.379,11.713z"/>
<polygon fill="#FFFFFF" points="6.008,12.277 5.058,12.277 5.603,8.903 4.386,12.277 3.738,12.277 3.658,8.923 3.085,12.277 
	2.195,12.277 2.939,7.888 4.306,7.888 4.344,10.605 5.267,7.888 6.744,7.888 "/>
<path fill="#FFFFFF" d="M8.35,10.688c-0.1-0.012-0.144-0.015-0.212-0.015c-0.539,0-0.812,0.182-0.812,0.543
	c0,0.222,0.133,0.364,0.341,0.364C8.055,11.58,8.333,11.215,8.35,10.688z M9.042,12.277c-0.127,0-0.788,0-0.788,0l0.018-0.37
	c-0.24,0.292-0.561,0.432-0.997,0.432c-0.516,0-0.869-0.397-0.869-0.976c0-0.869,0.615-1.375,1.669-1.375
	c0.108,0,0.246,0.01,0.388,0.027c0.029-0.118,0.037-0.168,0.037-0.232c0-0.236-0.166-0.324-0.61-0.324
	c-0.465-0.005-0.849,0.109-1.007,0.16c0.01-0.059,0.132-0.803,0.132-0.803C7.49,8.68,7.803,8.628,8.154,8.628
	c0.817,0,1.249,0.362,1.249,1.047c0.001,0.184-0.029,0.41-0.077,0.707C9.243,10.898,9.066,12.008,9.042,12.277z"/>
<path fill="#FFFFFF" d="M21.797,8.006l-0.156,0.953c-0.34-0.169-0.586-0.237-0.85-0.237c-0.71,0-1.208,0.678-1.208,1.645
	c0,0.667,0.335,1.069,0.888,1.069c0.234,0,0.492-0.072,0.807-0.226l-0.166,1.001c-0.351,0.094-0.576,0.128-0.84,0.128
	c-1.024,0-1.662-0.727-1.662-1.895c0-1.569,0.881-2.666,2.142-2.666C21.166,7.778,21.656,7.952,21.797,8.006z"/>
<path fill="#FFFFFF" d="M23.33,10.688c-0.1-0.012-0.143-0.015-0.211-0.015c-0.539,0-0.812,0.182-0.812,0.543
	c0,0.222,0.133,0.364,0.342,0.364C23.035,11.58,23.314,11.215,23.33,10.688z M24.021,12.277c-0.125,0-0.787,0-0.787,0l0.018-0.37
	c-0.24,0.292-0.561,0.432-0.996,0.432c-0.516,0-0.869-0.397-0.869-0.976c0-0.869,0.615-1.375,1.67-1.375
	c0.107,0,0.246,0.01,0.387,0.027c0.029-0.118,0.037-0.168,0.037-0.232c0-0.236-0.164-0.324-0.609-0.324
	c-0.465-0.005-0.848,0.109-1.006,0.16c0.01-0.059,0.131-0.803,0.131-0.803c0.475-0.137,0.787-0.188,1.139-0.188
	c0.816,0,1.25,0.362,1.248,1.047c0.002,0.184-0.029,0.41-0.076,0.707C24.225,10.898,24.047,12.008,24.021,12.277z"/>
<path fill="#FFFFFF" d="M13.268,12.223c-0.26,0.081-0.463,0.116-0.683,0.116c-0.486,0-0.752-0.275-0.752-0.783
	c-0.006-0.159,0.07-0.573,0.131-0.952c0.055-0.334,0.412-2.437,0.412-2.437h0.945l-0.11,0.54h0.485l-0.129,0.858H13.08
	c-0.11,0.68-0.267,1.524-0.269,1.637c0,0.185,0.1,0.265,0.326,0.265c0.108,0,0.192-0.011,0.256-0.034L13.268,12.223z"/>
<path fill="#FFFFFF" d="M16.167,12.194c-0.325,0.099-0.639,0.146-0.97,0.145c-1.059,0-1.61-0.547-1.61-1.592
	c0-1.221,0.702-2.119,1.654-2.119c0.78,0,1.277,0.503,1.277,1.292c0,0.262-0.035,0.518-0.116,0.878h-1.882
	c-0.064,0.518,0.271,0.734,0.821,0.734c0.338,0,0.644-0.069,0.983-0.226L16.167,12.194z M15.635,10.078
	c0.005-0.075,0.101-0.638-0.44-0.638c-0.301,0-0.516,0.228-0.604,0.638H15.635z"/>
<path fill="#FFFFFF" d="M9.612,9.836c0,0.452,0.222,0.763,0.724,0.997c0.385,0.179,0.444,0.231,0.444,0.394
	c0,0.223-0.169,0.323-0.546,0.323c-0.284,0-0.548-0.043-0.852-0.141c0,0-0.125,0.787-0.13,0.824
	c0.216,0.047,0.409,0.089,0.989,0.105c1.003,0,1.467-0.377,1.467-1.192c0-0.491-0.194-0.779-0.67-0.995
	C10.64,9.97,10.594,9.93,10.594,9.764c0-0.193,0.158-0.292,0.465-0.292c0.187,0,0.441,0.02,0.683,0.054l0.136-0.828
	c-0.247-0.038-0.62-0.069-0.837-0.069C9.977,8.628,9.609,9.177,9.612,9.836z"/>
<path fill="#FFFFFF" d="M29.055,12.277h-0.898l0.045-0.332c-0.262,0.275-0.529,0.394-0.877,0.394c-0.691,0-1.148-0.588-1.148-1.481
	c0-1.187,0.709-2.188,1.547-2.188c0.369,0,0.648,0.148,0.908,0.486l0.211-1.269h0.938L29.055,12.277z M27.652,11.452
	c0.443,0,0.754-0.495,0.754-1.202c0-0.454-0.178-0.7-0.504-0.7c-0.432,0-0.738,0.497-0.738,1.199
	C27.164,11.217,27.328,11.452,27.652,11.452z"/>
<path fill="#FFFFFF" d="M24.879,8.707c-0.119,1.105-0.33,2.225-0.496,3.33l-0.043,0.24h0.951c0.34-2.184,0.422-2.609,0.955-2.556
	c0.086-0.447,0.244-0.839,0.361-1.035c-0.398-0.082-0.621,0.14-0.912,0.562c0.023-0.183,0.064-0.36,0.057-0.542H24.879z"/>
<path fill="#FFFFFF" d="M17.051,8.707c-0.119,1.105-0.331,2.225-0.496,3.33l-0.043,0.24h0.951c0.34-2.184,0.422-2.609,0.955-2.556
	c0.086-0.447,0.244-0.839,0.361-1.035c-0.398-0.082-0.621,0.14-0.912,0.562c0.023-0.183,0.065-0.36,0.057-0.542H17.051z"/>
<path fill="#FFFFFF" d="M29.473,11.998c0-0.155,0.127-0.28,0.283-0.28s0.283,0.125,0.283,0.28c0,0.153-0.127,0.279-0.283,0.279
	S29.473,12.151,29.473,11.998z M29.756,12.21c0.119,0,0.215-0.095,0.215-0.212s-0.096-0.213-0.215-0.213s-0.215,0.096-0.215,0.213
	S29.637,12.21,29.756,12.21z M29.717,12.12H29.66v-0.245h0.105c0.021,0,0.043,0.001,0.062,0.013c0.02,0.013,0.031,0.036,0.031,0.061
	c0,0.028-0.016,0.054-0.043,0.063l0.047,0.108h-0.064l-0.039-0.097h-0.043V12.12z M29.717,11.981h0.033
	c0.012,0,0.025,0.001,0.035-0.005s0.014-0.018,0.014-0.028c0-0.01-0.006-0.021-0.014-0.025c-0.01-0.006-0.025-0.004-0.037-0.004
	h-0.031V11.981z"/>
</svg>
