<?xml version="1.0" encoding="utf-8"?>
<!-- Generator: Adobe Illustrator 18.1.1, SVG Export Plug-In . SVG Version: 6.00 Build 0)  -->
<svg version="1.1" id="Layer_1" xmlns="http://www.w3.org/2000/svg" xmlns:xlink="http://www.w3.org/1999/xlink" x="0px" y="0px"
	 viewBox="0 0 35 35" enable-background="new 0 0 35 35" xml:space="preserve">
<path fill="#C23F97" d="M28.5,33.3h-22c-2.8,0-5-2.3-5-5v-22c0-2.8,2.2-5,5-5h22c2.8,0,5,2.2,5,5v22C33.5,31.1,31.2,33.3,28.5,33.3z
	"/>
<path d="M4.2,8.1"/>
<linearGradient id="SVGID_1_" gradientUnits="userSpaceOnUse" x1="17.5" y1="1.3042" x2="17.5" y2="33.3042">
	<stop  offset="0" style="stop-color:#E8E8E8"/>
	<stop  offset="1" style="stop-color:#7D7D7D"/>
</linearGradient>
<path opacity="0.6" fill="url(#SVGID_1_)" stroke="#6D6E71" stroke-width="0.5" stroke-miterlimit="10" d="M28.5,1.3h-22
	c-2.8,0-5,2.2-5,5v22c0,2.8,2.2,5,5,5h22c2.8,0,5-2.2,5-5v-22C33.5,3.6,31.2,1.3,28.5,1.3z M29.9,25.6c0,1.1-0.9,2-2,2h-1.1
	c-1.1,0-2-0.9-2-2v-5.6c0-0.6,0.2-1.1,0.6-1.4c-0.7-4.9-4.3-9-8.2-9c-3.8,0-7.3,3.8-8.2,8.5c0.5,0.4,0.9,1,0.9,1.7v5.6
	c0,1.1-0.9,2-2,2H7c-1.1,0-2-0.9-2-2v-5.6c0-1.1,0.9-2,2-2h0.1c1-5.6,5.3-10.2,10.1-10.2c4.9,0,9.3,4.7,10.2,10.5H28
	c1.1,0,2,0.9,2,2V25.6z"/>
</svg>
