<?xml version="1.0" encoding="utf-8"?>
<!-- Generator: Adobe Illustrator 18.1.1, SVG Export Plug-In . SVG Version: 6.00 Build 0)  -->
<svg version="1.1" id="Layer_1" xmlns="http://www.w3.org/2000/svg" xmlns:xlink="http://www.w3.org/1999/xlink" x="0px" y="0px"
	 viewBox="0 0 35 35" enable-background="new 0 0 35 35" xml:space="preserve">
<g opacity="0.4">
	<linearGradient id="SVGID_1_" gradientUnits="userSpaceOnUse" x1="17.5" y1="1.0542" x2="17.5" y2="33.5547">
		<stop  offset="0" style="stop-color:#E8E8E8"/>
		<stop  offset="1" style="stop-color:#7D7D7D"/>
	</linearGradient>
	<path fill="url(#SVGID_1_)" d="M6.5,33.6c-2.9,0-5.2-2.4-5.2-5.2v-22c0-2.9,2.4-5.2,5.2-5.2h22c2.9,0,5.2,2.4,5.2,5.2v22
		c0,2.9-2.4,5.2-5.2,5.2H6.5z M7.9,17.6c6.8,6.7,8.9,9.7,9.6,10.7c0.6-1,2.8-4,9.6-10.7l0.3-0.3l0,0l0.2-0.2
		c1.2-1.2,1.9-2.9,1.9-4.7c0-3.5-2.6-6.4-5.8-6.4c-3.2,0-5.8,2.9-5.8,6.4h-0.5c0-3.5-2.6-6.4-5.8-6.4s-5.8,2.9-5.8,6.4
		c0,1.8,0.7,3.5,1.9,4.7l0.2,0.2l0,0L7.9,17.6z"/>
	<path fill="#6D6E71" d="M28.5,1.3c2.8,0,5,2.2,5,5v22c0,2.8-2.2,5-5,5h-22c-2.8,0-5-2.2-5-5v-22c0-2.8,2.2-5,5-5H28.5 M17.5,12.4
		c0-3.7-2.7-6.6-6.1-6.6s-6.1,3-6.1,6.6c0,1.9,0.8,3.7,2,4.9l0,0l0.5,0.5c8.7,8.5,9.8,11.1,9.8,11.1s1.1-2.6,9.8-11.1l0.5-0.5l0,0
		c1.2-1.2,2-2.9,2-4.9c0-3.7-2.7-6.6-6.1-6.6C20.2,5.7,17.5,8.7,17.5,12.4 M28.5,0.8h-22C3.5,0.8,1,3.3,1,6.3v22
		c0,3,2.5,5.5,5.5,5.5h22c3,0,5.5-2.5,5.5-5.5v-22C34,3.3,31.5,0.8,28.5,0.8L28.5,0.8z M17,12.4h1c0-3.4,2.5-6.1,5.6-6.1
		c3.1,0,5.6,2.8,5.6,6.1c0,1.7-0.7,3.4-1.8,4.5l-0.5,0.5l0,0l0,0c-6.2,6.1-8.5,9.1-9.4,10.4c-0.9-1.3-3.2-4.4-9.4-10.5l0,0l0,0
		l-0.5-0.5c-1.2-1.2-1.8-2.8-1.8-4.5c0-3.4,2.5-6.1,5.6-6.1C14.5,6.2,17,9,17,12.4L17,12.4z"/>
</g>
</svg>
