<?xml version="1.0" encoding="utf-8"?>
<!-- Generator: Adobe Illustrator 18.1.0, SVG Export Plug-In . SVG Version: 6.00 Build 0)  -->
<!DOCTYPE svg PUBLIC "-//W3C//DTD SVG 1.1//EN" "http://www.w3.org/Graphics/SVG/1.1/DTD/svg11.dtd">
<svg version="1.1" id="Layer_1" xmlns="http://www.w3.org/2000/svg" xmlns:xlink="http://www.w3.org/1999/xlink" x="0px" y="0px"
	 width="72px" height="72px" viewBox="0 0 72 72" enable-background="new 0 0 72 72" xml:space="preserve">
<g>
	<polygon fill-rule="evenodd" clip-rule="evenodd" points="-451.7,70 -451.7,24 -439.6,24 -457.1,-2 -474.5,24 -462.5,24 -462.5,70 
			"/>
	<polygon fill-rule="evenodd" clip-rule="evenodd" points="-424.4,-2 -424.4,44 -436.5,44 -419,70 -402.5,44 -414.7,44 -414.7,-2 	
		"/>
</g>
<path fill-rule="evenodd" clip-rule="evenodd" d="M-146.7,28.2l9.8,19.4c0,0,15.9-39.4,40.9-52.6c-0.6,9.4-3.1,17.5,1.2,27.5
	c-11,2.5-33.6,30.7-40.9,44.5c-10.4-13.1-22.6-23.2-31.1-26.3L-146.7,28.2z"/>
<path fill-rule="evenodd" clip-rule="evenodd" d="M0,0h72v11.7H0V0z M0,20.3h54V32H0V20.3z M0,40h36v11.7H0V40z M0,60.3h18V72H0
	V60.3z"/>
<path fill-rule="evenodd" clip-rule="evenodd" d="M-245.6,64.8c-2.5,2.5-7.2,3.1-9.7,0.7L-277.6,43c-1.6-1.6-2.1-3.8-1.7-5.8
	c-4,2.9-8,3.8-13.1,3.8c-6.2,0-12-2.4-16.3-6.8c-4.3-4.4-6.7-10.1-6.7-16.3c0-6.1,2.4-11.9,6.8-16.2c9-8.9,23.7-8.8,32.6,0.2
	c8.1,8.2,9.5,20.2,2.8,29.2c2-0.4,4.3,0.1,5.9,1.7l22.3,22.4C-242.4,57.6-243.1,62.3-245.6,64.8z M-278.8,17.9
	c0-3.6-1.4-6.9-3.9-9.5c-5.2-5.2-13.7-5.3-19-0.1c-5.3,5.2-5.3,13.7-0.1,18.9c5.2,5.2,13.7,5.3,19,0.1
	C-280.3,24.8-278.9,21.5-278.8,17.9z"/>
<g>
</g>
<g>
</g>
<g>
</g>
<g>
</g>
<g>
</g>
<g>
</g>
</svg>
