<?xml version="1.0" encoding="utf-8"?>
<!-- Generator: Adobe Illustrator 18.1.0, SVG Export Plug-In . SVG Version: 6.00 Build 0)  -->
<!DOCTYPE svg PUBLIC "-//W3C//DTD SVG 1.1//EN" "http://www.w3.org/Graphics/SVG/1.1/DTD/svg11.dtd">
<svg version="1.1" id="Layer_1" xmlns="http://www.w3.org/2000/svg" xmlns:xlink="http://www.w3.org/1999/xlink" x="0px" y="0px"
	 viewBox="0 0 64.1 56.4" enable-background="new 0 0 64.1 56.4" xml:space="preserve">
<g>
	<g>
		<g>
			<path fill-rule="evenodd" clip-rule="evenodd" fill="#CCCCCC" d="M32.9,13.7C24.8-5.1,2-0.8,1.8,21.1c-0.1,12,16,21.8,16,21.8
				s13.5,10.2,15.1,13.2C34.7,52.4,49,41.9,49,41.9S63.7,32.7,63.9,21C64.3-0.9,40.5-4.4,32.9,13.7z"/>
			
				<path fill="none" stroke="#CCCCCC" stroke-width="0.4043" stroke-linecap="round" stroke-linejoin="round" stroke-miterlimit="10" d="
				M32.9,13.7C24.8-5.1,2-0.8,1.8,21.1c-0.1,12,16,21.8,16,21.8s13.5,10.2,15.1,13.2C34.7,52.4,49,41.9,49,41.9S63.7,32.7,63.9,21
				C64.3-0.9,40.5-4.4,32.9,13.7z"/>
		</g>
		<g>
			<linearGradient id="SVGID_1_" gradientUnits="userSpaceOnUse" x1="31.2557" y1="54.5355" x2="31.2557" y2="0.2021">
				<stop  offset="0" style="stop-color:#BE1E80"/>
				<stop  offset="0.1274" style="stop-color:#C32782"/>
				<stop  offset="0.3391" style="stop-color:#CF4186"/>
				<stop  offset="0.6074" style="stop-color:#E46A8D"/>
				<stop  offset="0.8227" style="stop-color:#F79094"/>
			</linearGradient>
			<path fill-rule="evenodd" clip-rule="evenodd" fill="url(#SVGID_1_)" d="M31.2,12.1c-8-18.8-30.9-14.4-31,7.4
				c-0.1,12,16,21.8,16,21.8s13.5,10.2,15.1,13.2c1.8-3.7,16.1-14.2,16.1-14.2s14.8-9.2,14.9-20.9C62.7-2.6,38.9-6,31.2,12.1z"/>
			
				<path fill="none" stroke="#883131" stroke-width="0.4043" stroke-linecap="round" stroke-linejoin="round" stroke-miterlimit="10" d="
				M31.2,12.1c-8-18.8-30.9-14.4-31,7.4c-0.1,12,16,21.8,16,21.8s13.5,10.2,15.1,13.2c1.8-3.7,16.1-14.2,16.1-14.2
				s14.8-9.2,14.9-20.9C62.7-2.6,38.9-6,31.2,12.1z"/>
		</g>
	</g>
	<g>
		<g>
			<rect x="20.7" y="23.4" fill="#FFFFFF" stroke="#883131" stroke-width="0.25" stroke-miterlimit="10" width="21.3" height="6"/>
		</g>
	</g>
</g>
</svg>
