<?xml version="1.0" encoding="utf-8"?>
<!-- Generator: Adobe Illustrator 18.1.0, SVG Export Plug-In . SVG Version: 6.00 Build 0)  -->
<!DOCTYPE svg PUBLIC "-//W3C//DTD SVG 1.1//EN" "http://www.w3.org/Graphics/SVG/1.1/DTD/svg11.dtd">
<svg version="1.1" id="Layer_1" xmlns="http://www.w3.org/2000/svg" xmlns:xlink="http://www.w3.org/1999/xlink" x="0px" y="0px"
	 width="72px" height="72px" viewBox="0 0 72 72" enable-background="new 0 0 72 72" xml:space="preserve">
<g>
	<polygon fill-rule="evenodd" clip-rule="evenodd" points="-136.4,75 -136.4,29 -124.3,29 -141.7,3 -159.2,29 -147.1,29 -147.1,75 	
		"/>
	<polygon fill-rule="evenodd" clip-rule="evenodd" points="-109,3 -109,49 -121.1,49 -103.7,75 -87.2,49 -99.3,49 -99.3,3 	"/>
</g>
<path fill-rule="evenodd" clip-rule="evenodd" d="M168.7,33.2l9.8,19.4c0,0,15.9-39.4,40.9-52.6c-0.6,9.4-3.1,17.5,1.2,27.5
	c-11,2.5-33.6,30.7-40.9,44.5c-10.4-13.1-22.6-23.2-31.1-26.3L168.7,33.2z"/>
<path fill-rule="evenodd" clip-rule="evenodd" d="M315.4,5h72v11.7h-72V5z M315.4,25.3h54V37h-54V25.3z M315.4,45h36v11.7h-36V45z
	 M315.4,65.3h18V77h-18V65.3z"/>
<path fill-rule="evenodd" clip-rule="evenodd" d="M69.7,69.8c-2.5,2.5-7.2,3.1-9.7,0.7L37.7,48c-1.6-1.6-2.1-3.8-1.7-5.8
	c-4,2.9-8,3.8-13.1,3.8c-6.2,0-12-2.4-16.3-6.8C2.4,34.8,0,29,0,22.9C0,16.7,2.4,11,6.8,6.6c9-8.9,23.7-8.8,32.6,0.2
	C47.6,15,49,27,42.3,36c2-0.4,4.3,0.1,5.9,1.7l22.3,22.4C72.9,62.6,72.2,67.3,69.7,69.8z M36.5,22.9c0-3.6-1.4-6.9-3.9-9.5
	c-5.2-5.2-13.7-5.3-19-0.1C8.4,18.5,8.3,27,13.5,32.2c5.2,5.2,13.7,5.3,19,0.1C35.1,29.8,36.5,26.5,36.5,22.9z"/>
<g>
</g>
<g>
</g>
<g>
</g>
<g>
</g>
<g>
</g>
<g>
</g>
</svg>
