<?xml version="1.0" encoding="utf-8"?>
<!-- Generator: Adobe Illustrator 18.1.0, SVG Export Plug-In . SVG Version: 6.00 Build 0)  -->
<!DOCTYPE svg PUBLIC "-//W3C//DTD SVG 1.1//EN" "http://www.w3.org/Graphics/SVG/1.1/DTD/svg11.dtd">
<svg version="1.1" id="Layer_1" xmlns="http://www.w3.org/2000/svg" xmlns:xlink="http://www.w3.org/1999/xlink" x="0px" y="0px"
	 width="96px" height="48.2px" viewBox="0 0 96 48.2" enable-background="new 0 0 96 48.2" xml:space="preserve">
<g>
	<g>
		<polygon fill="#440303" stroke="#440303" stroke-width="1.2768" stroke-linejoin="round" points="58.7,34.8 58.7,34.8 58.7,34.8 
					"/>
		<path fill="#440303" stroke="#440303" stroke-width="1.2768" stroke-linejoin="round" d="M62.3,16l-9.7-7.4l0,0L3.8,20.1L10,46.3
			l48.7-11.5l5.6-9.9L62.3,16z M56.9,25.9c-1.2,0-2.3-0.4-3.1-1.2c-0.8-0.8-1.4-1.8-1.4-3.1c-0.1-2.4,1.8-4.4,4.1-4.4
			c1.2,0,2.3,0.4,3.1,1.2c0.8,0.8,1.4,1.8,1.4,3.1C61.1,23.8,59.2,25.8,56.9,25.9z"/>
	</g>
	<g>
		
			<linearGradient id="SVGID_1_" gradientUnits="userSpaceOnUse" x1="23.697" y1="49.9513" x2="56.1005" y2="21.0769" gradientTransform="matrix(0.9995 -3.110000e-02 3.110000e-02 0.9995 7.8703 9.9058)">
			<stop  offset="1.775150e-02" style="stop-color:#8B1D3A"/>
			<stop  offset="0.2959" style="stop-color:#BF4646"/>
			<stop  offset="0.6272" style="stop-color:#BF4646"/>
			<stop  offset="0.9941" style="stop-color:#8B1D3A"/>
		</linearGradient>
		<polygon fill="url(#SVGID_1_)" points="58.7,34.8 58.7,34.8 58.7,34.8 		"/>
		
			<linearGradient id="SVGID_2_" gradientUnits="userSpaceOnUse" x1="32.3663" y1="53.5854" x2="64.6056" y2="24.8573" gradientTransform="matrix(0.9982 5.980000e-02 -5.980000e-02 0.9982 -13.6123 -15.5296)">
			<stop  offset="1.775150e-02" style="stop-color:#8B1D3A"/>
			<stop  offset="0.2959" style="stop-color:#BF4646"/>
			<stop  offset="0.6272" style="stop-color:#BF4646"/>
			<stop  offset="0.9941" style="stop-color:#8B1D3A"/>
		</linearGradient>
		<path fill="url(#SVGID_2_)" d="M62.3,16l-9.7-7.4l0,0L3.8,20.1L10,46.3l48.7-11.5l5.6-9.9L62.3,16z M56.9,25.9
			c-1.2,0-2.3-0.4-3.1-1.2c-0.8-0.8-1.4-1.8-1.4-3.1c-0.1-2.4,1.8-4.4,4.1-4.4c1.2,0,2.3,0.4,3.1,1.2c0.8,0.8,1.4,1.8,1.4,3.1
			C61.1,23.8,59.2,25.8,56.9,25.9z"/>
	</g>
	<g>
		<g>
			<path fill="#FFFFFF" stroke="#FFFFFF" stroke-width="0.3586" d="M56.8,17.6c-2.3-0.1-4.3,1.7-4.5,4c-0.1,2.4,1.6,4.4,4,4.5
				c2.3,0.1,4.3-1.7,4.5-4C60.9,19.7,59.2,17.7,56.8,17.6z M56.4,25.2c-1.8-0.1-3.2-1.7-3.1-3.6c0.1-1.9,1.7-3.3,3.5-3.2
				c1.8,0.1,3.2,1.7,3.1,3.6C59.8,23.9,58.2,25.3,56.4,25.2z"/>
		</g>
		<g>
			<path fill="#381B07" stroke="#381B07" stroke-width="0.3586" d="M56.8,17.3c-2.3-0.1-4.3,1.7-4.5,4c-0.1,2.4,1.6,4.4,4,4.5
				c2.3,0.1,4.3-1.7,4.5-4C60.9,19.5,59.2,17.5,56.8,17.3z M56.4,25c-1.8-0.1-3.2-1.7-3.1-3.6c0.1-1.9,1.7-3.3,3.5-3.2
				c1.8,0.1,3.2,1.7,3.1,3.6C59.8,23.7,58.2,25.1,56.4,25z"/>
		</g>
		<g>
			
				<linearGradient id="SVGID_3_" gradientUnits="userSpaceOnUse" x1="67.9322" y1="32.5699" x2="76.405" y2="32.5699" gradientTransform="matrix(0.9982 5.980000e-02 -5.980000e-02 0.9982 -13.6123 -15.5296)">
				<stop  offset="5.917160e-03" style="stop-color:#6B6B6B"/>
				<stop  offset="0.4201" style="stop-color:#FFFFFF"/>
				<stop  offset="0.4851" style="stop-color:#FAFAFA"/>
				<stop  offset="0.557" style="stop-color:#EDEDED"/>
				<stop  offset="0.6323" style="stop-color:#D7D7D7"/>
				<stop  offset="0.7099" style="stop-color:#B8B8B8"/>
				<stop  offset="0.7893" style="stop-color:#909090"/>
				<stop  offset="0.8702" style="stop-color:#5F5F5F"/>
				<stop  offset="0.9508" style="stop-color:#262626"/>
				<stop  offset="1" style="stop-color:#000000"/>
			</linearGradient>
			<path fill="url(#SVGID_3_)" d="M56.7,17c-2.3-0.1-4.3,1.7-4.5,4c-0.1,2.4,1.6,4.4,4,4.5c2.3,0.1,4.3-1.7,4.5-4
				C60.8,19.2,59.1,17.1,56.7,17z M56.3,24.7c-1.8-0.1-3.2-1.7-3.1-3.6c0.1-1.9,1.7-3.3,3.5-3.2c1.8,0.1,3.2,1.7,3.1,3.6
				C59.7,23.4,58.1,24.8,56.3,24.7z"/>
		</g>
	</g>
	<polygon fill="none" stroke="#660000" stroke-width="0.3015" stroke-linejoin="round" points="57.9,34.1 63.4,24.9 61.5,16.7 
		52.3,10 52.2,10 5.1,21 10.8,45.2 57.9,34.1 	"/>
	<polygon fill="none" stroke="#FFFFFF" stroke-width="0.3088" stroke-linejoin="round" points="58,34.5 63.5,25 61.5,16.5 52.1,9.4 
		52.1,9.4 4.7,20.5 10.6,45.7 58,34.6 	"/>
	<path fill="#42210B" d="M83,3.7c-2.2-2.6-7.7,0.6-9.7,1.9c-2.2,1.3-4.5,2.5-6.9,3.5c-2.6-2.1-6.7-2-8-1.7c-3.2,0.7-5.3,3.1-6.5,6
		c-0.9,2.2-0.1,7.1,1.8,8.7c2.6,2.1,4.7-0.6,3.9-3.4c-0.3-0.1-1.1-0.2-1.3-0.2c0.1,0.5,0.2,2.2-0.7,2.5c-0.8,0.2-1.6-0.7-1.9-1.7
		c-0.8-2.4-1-4.1,0.1-6.3c2.5-5.3,9.3-4.4,11.6-3.4c-0.3,0.1-0.7,0.3-1,0.4c-2.4,1-3.9,1.3-6.5,1.7l1.5,1.1c3.1-0.9,4.9-0.9,7.9-2.1
		c0.1,0,0.1-0.1,0.2-0.1C71,11.2,87.6,9.2,83,3.7z M80.1,7.6c-2.3,1.4-6.9,2.1-9.5,2.3c-0.5,0-1.1,0-1.6,0c2.5-1.1,4.7-2.4,7.1-3.7
		c0.9-0.5,3-2.3,4.1-2C82.1,4.7,81.4,6.8,80.1,7.6z"/>
	<g>
		<g>
			<path fill="#330000" d="M18.2,26.6c0.2,0.8,0,1.6-0.6,2.3c-0.6,0.7-1.5,1.2-2.7,1.5c-0.7,0.2-1.3,0.2-1.9,0.2
				c-0.6,0-1.1,0-1.6-0.1l-0.5-2l0.2-0.1c0.5,0.3,1.1,0.4,1.7,0.5c0.6,0.1,1.2,0,1.7-0.1c0.1,0,0.3-0.1,0.5-0.2
				c0.2-0.1,0.4-0.2,0.5-0.2c0.2-0.1,0.3-0.2,0.4-0.4s0.1-0.3,0.1-0.5c0-0.2-0.2-0.3-0.4-0.4S15.2,27,14.9,27c-0.3,0-0.7,0-1.1,0
				c-0.4,0-0.7,0-1.1,0c-0.8-0.1-1.4-0.3-1.8-0.6c-0.4-0.3-0.7-0.8-0.8-1.4c-0.2-0.8,0-1.5,0.6-2.2c0.6-0.7,1.4-1.1,2.6-1.4
				c0.6-0.1,1.1-0.2,1.7-0.2c0.6,0,1.1,0,1.5,0.1l0.5,2l-0.2,0.1c-0.4-0.2-0.9-0.3-1.4-0.4c-0.5-0.1-1.1,0-1.6,0.1
				c-0.2,0-0.4,0.1-0.5,0.2c-0.2,0.1-0.3,0.2-0.5,0.3c-0.1,0.1-0.2,0.2-0.3,0.3c-0.1,0.1-0.1,0.3-0.1,0.4c0.1,0.2,0.2,0.4,0.4,0.5
				c0.2,0.1,0.5,0.1,1,0.1c0.3,0,0.6,0,0.9,0c0.3,0,0.6,0,1,0c0.7,0.1,1.2,0.2,1.6,0.5C17.8,25.6,18.1,26.1,18.2,26.6z"/>
			<path fill="#330000" d="M28.2,27.1l-2.3,0.5l-1-1.6l-3.1,0.7l-0.2,1.9l-2.2,0.5l1.1-9.2l2.5-0.6L28.2,27.1z M24,24.6l-1.8-2.8
				l-0.3,3.3L24,24.6z"/>
			<path fill="#330000" d="M35.5,25.4l-6.1,1.4l-2-8.5l2.2-0.5l1.6,6.9l3.9-0.9L35.5,25.4z"/>
			<path fill="#330000" d="M43,23.6l-6.1,1.4l-2-8.5l6.1-1.4l0.4,1.6l-4,0.9l0.3,1.5l3.7-0.9l0.4,1.6l-3.7,0.9l0.5,2.1l4-0.9
				L43,23.6z"/>
		</g>
		<g>
			<g>
				<path fill="#FFFFFF" d="M18.8,26.2c0.2,0.8,0,1.6-0.6,2.3c-0.6,0.7-1.5,1.2-2.7,1.5c-0.7,0.2-1.3,0.2-1.9,0.2
					c-0.6,0-1.1,0-1.6-0.1l-0.5-2l0.2-0.1c0.5,0.3,1.1,0.4,1.7,0.5c0.6,0.1,1.2,0,1.7-0.1c0.1,0,0.3-0.1,0.5-0.2
					c0.2-0.1,0.4-0.2,0.5-0.2c0.2-0.1,0.3-0.2,0.4-0.4s0.1-0.3,0.1-0.5c0-0.2-0.2-0.3-0.4-0.4s-0.4-0.1-0.8-0.1c-0.3,0-0.7,0-1.1,0
					c-0.4,0-0.7,0-1.1,0c-0.8-0.1-1.4-0.3-1.8-0.6c-0.4-0.3-0.7-0.8-0.8-1.4c-0.2-0.8,0-1.5,0.6-2.2c0.6-0.7,1.4-1.1,2.6-1.4
					c0.6-0.1,1.1-0.2,1.7-0.2c0.6,0,1.1,0,1.5,0.1l0.5,2l-0.2,0.1c-0.4-0.2-0.9-0.3-1.4-0.4c-0.5-0.1-1.1,0-1.6,0.1
					c-0.2,0-0.4,0.1-0.5,0.2c-0.2,0.1-0.3,0.2-0.5,0.3c-0.1,0.1-0.2,0.2-0.3,0.3C13,23.5,13,23.7,13,23.8c0.1,0.2,0.2,0.4,0.4,0.5
					c0.2,0.1,0.5,0.1,1,0.1c0.3,0,0.6,0,0.9,0c0.3,0,0.6,0,1,0c0.7,0.1,1.2,0.2,1.6,0.5C18.4,25.2,18.7,25.7,18.8,26.2z"/>
				<path fill="#FFFFFF" d="M28.8,26.7l-2.3,0.5l-1-1.6l-3.1,0.7l-0.2,1.9L20,28.8l1.1-9.2l2.5-0.6L28.8,26.7z M24.6,24.2l-1.8-2.8
					l-0.3,3.3L24.6,24.2z"/>
				<path fill="#FFFFFF" d="M36.1,25L30,26.4l-2-8.5l2.2-0.5l1.6,6.9l3.9-0.9L36.1,25z"/>
				<path fill="#FFFFFF" d="M43.6,23.2l-6.1,1.4l-2-8.5l6.1-1.4l0.4,1.6l-4,0.9l0.3,1.5l3.7-0.9l0.4,1.6l-3.7,0.9l0.5,2.1l4-0.9
					L43.6,23.2z"/>
			</g>
		</g>
	</g>
	<g>
		<g>
			<path fill="#330000" d="M26.6,37.6l-4.4,1l-0.2-0.9c0.3-0.3,0.6-0.7,0.8-1c0.3-0.4,0.5-0.7,0.7-0.9c0.2-0.4,0.4-0.7,0.5-0.9
				c0.1-0.3,0.1-0.5,0-0.7c-0.1-0.3-0.2-0.4-0.4-0.5c-0.2-0.1-0.5-0.1-0.8,0c-0.2,0.1-0.5,0.2-0.7,0.3s-0.4,0.3-0.6,0.5l-0.1,0
				L21,33.2c0.2-0.1,0.4-0.3,0.7-0.4c0.3-0.2,0.7-0.3,1-0.4c0.7-0.2,1.3-0.1,1.7,0.1c0.4,0.2,0.7,0.6,0.9,1.1c0.1,0.4,0.1,0.7,0,1.1
				c-0.1,0.4-0.3,0.8-0.6,1.2c-0.2,0.3-0.4,0.5-0.6,0.8s-0.3,0.4-0.4,0.5l2.5-0.6L26.6,37.6z"/>
			<path fill="#330000" d="M31.6,34.4c0.1,0.3,0.1,0.6,0,0.9c-0.1,0.3-0.2,0.5-0.3,0.8c-0.2,0.2-0.4,0.5-0.7,0.6
				c-0.3,0.2-0.6,0.3-1,0.4c-0.5,0.1-0.8,0.2-1.2,0.2c-0.3,0-0.6,0-0.8-0.1l-0.3-1.3l0.2,0C27.7,36,28,36,28.2,36c0.3,0,0.6,0,0.8,0
				c0.2,0,0.3-0.1,0.5-0.2c0.2-0.1,0.3-0.2,0.4-0.3c0.1-0.1,0.1-0.2,0.1-0.3c0-0.1,0-0.2,0-0.4c0-0.1-0.1-0.2-0.2-0.3
				c-0.1-0.1-0.2-0.1-0.3-0.2c-0.2-0.1-0.3-0.1-0.5,0c-0.2,0-0.4,0-0.5,0.1c-0.2,0.1-0.4,0.1-0.6,0.2c-0.2,0.1-0.4,0.2-0.5,0.2
				l-0.2,0l-0.8-3.2l4-0.9l0.3,1.1l-2.7,0.6l0.2,0.9c0.1,0,0.2-0.1,0.3-0.1s0.2-0.1,0.3-0.1c0.3-0.1,0.6-0.1,0.9-0.1
				c0.3,0,0.5,0,0.7,0.1c0.3,0.1,0.5,0.2,0.7,0.4C31.3,33.8,31.5,34.1,31.6,34.4z"/>
			<path fill="#330000" d="M35.6,31.4c0.1,0.6,0.1,1.1-0.1,1.5c-0.2,0.4-0.6,0.6-1.2,0.8c-0.6,0.1-1,0.1-1.4-0.2s-0.6-0.7-0.8-1.3
				c-0.1-0.6-0.1-1.1,0.1-1.5c0.2-0.4,0.6-0.6,1.2-0.8c0.6-0.1,1-0.1,1.4,0.2C35.2,30.3,35.4,30.7,35.6,31.4z M34.5,31.6
				c-0.1-0.4-0.2-0.7-0.3-0.8s-0.3-0.2-0.5-0.1c-0.2,0-0.3,0.2-0.4,0.3c-0.1,0.2,0,0.5,0.1,0.9c0.1,0.4,0.2,0.7,0.3,0.8
				s0.3,0.2,0.5,0.1c0.2-0.1,0.3-0.2,0.4-0.3C34.6,32.3,34.6,32,34.5,31.6z M38.1,28.9l-1.6,6.4l-1,0.2l1.6-6.4L38.1,28.9z
				 M41.5,32.3c0.1,0.6,0.1,1.1-0.1,1.5c-0.2,0.4-0.6,0.6-1.2,0.8c-0.6,0.1-1,0.1-1.4-0.2c-0.4-0.2-0.6-0.7-0.8-1.3
				c-0.1-0.6-0.1-1.1,0.1-1.5c0.2-0.4,0.6-0.6,1.2-0.8c0.6-0.1,1-0.1,1.4,0.2C41.1,31.2,41.3,31.7,41.5,32.3z M40.4,32.6
				c-0.1-0.4-0.2-0.7-0.3-0.8c-0.1-0.1-0.3-0.2-0.5-0.1c-0.2,0-0.3,0.2-0.4,0.3c-0.1,0.2,0,0.5,0.1,0.9c0.1,0.4,0.2,0.7,0.3,0.8
				s0.3,0.2,0.5,0.1c0.2-0.1,0.4-0.2,0.4-0.3C40.5,33.3,40.5,33,40.4,32.6z"/>
		</g>
		<g>
			<g>
				<path fill="#FFFFFF" d="M27.2,37.2l-4.4,1l-0.2-0.9c0.3-0.3,0.6-0.7,0.8-1c0.3-0.4,0.5-0.7,0.7-0.9c0.2-0.4,0.4-0.7,0.5-0.9
					c0.1-0.3,0.1-0.5,0-0.7c-0.1-0.3-0.2-0.4-0.4-0.5c-0.2-0.1-0.5-0.1-0.8,0c-0.2,0.1-0.5,0.2-0.7,0.3S22.2,33.8,22,34l-0.1,0
					l-0.3-1.3c0.2-0.1,0.4-0.3,0.7-0.4c0.3-0.2,0.7-0.3,1-0.4c0.7-0.2,1.3-0.1,1.7,0.1c0.4,0.2,0.7,0.6,0.9,1.1
					c0.1,0.4,0.1,0.7,0,1.1c-0.1,0.4-0.3,0.8-0.6,1.2c-0.2,0.3-0.4,0.5-0.6,0.8s-0.3,0.4-0.4,0.5l2.5-0.6L27.2,37.2z"/>
				<path fill="#FFFFFF" d="M32.2,34c0.1,0.3,0.1,0.6,0,0.9c-0.1,0.3-0.2,0.5-0.3,0.8c-0.2,0.2-0.4,0.5-0.7,0.6
					c-0.3,0.2-0.6,0.3-1,0.4c-0.5,0.1-0.8,0.2-1.2,0.2c-0.3,0-0.6,0-0.8-0.1l-0.3-1.3l0.2,0c0.3,0.1,0.5,0.1,0.8,0.2
					c0.3,0,0.6,0,0.8,0c0.2,0,0.3-0.1,0.5-0.2c0.2-0.1,0.3-0.2,0.4-0.3c0.1-0.1,0.1-0.2,0.1-0.3c0-0.1,0-0.2,0-0.4
					c0-0.1-0.1-0.2-0.2-0.3c-0.1-0.1-0.2-0.1-0.3-0.2c-0.2-0.1-0.3-0.1-0.5,0c-0.2,0-0.4,0-0.5,0.1c-0.2,0.1-0.4,0.1-0.6,0.2
					c-0.2,0.1-0.4,0.2-0.5,0.2l-0.2,0l-0.8-3.2l4-0.9l0.3,1.1L28.7,32l0.2,0.9c0.1,0,0.2-0.1,0.3-0.1s0.2-0.1,0.3-0.1
					c0.3-0.1,0.6-0.1,0.9-0.1c0.3,0,0.5,0,0.7,0.1c0.3,0.1,0.5,0.2,0.7,0.4C31.9,33.4,32.1,33.7,32.2,34z"/>
				<path fill="#FFFFFF" d="M36.2,31c0.1,0.6,0.1,1.1-0.1,1.5c-0.2,0.4-0.6,0.6-1.2,0.8c-0.6,0.1-1,0.1-1.4-0.2s-0.6-0.7-0.8-1.3
					c-0.1-0.6-0.1-1.1,0.1-1.5c0.2-0.4,0.6-0.6,1.2-0.8c0.6-0.1,1-0.1,1.4,0.2C35.8,29.9,36,30.3,36.2,31z M35.1,31.2
					c-0.1-0.4-0.2-0.7-0.3-0.8s-0.3-0.2-0.5-0.1c-0.2,0-0.3,0.2-0.4,0.3c-0.1,0.2,0,0.5,0.1,0.9c0.1,0.4,0.2,0.7,0.3,0.8
					s0.3,0.2,0.5,0.1c0.2-0.1,0.3-0.2,0.4-0.3C35.2,31.9,35.2,31.6,35.1,31.2z M38.7,28.5l-1.6,6.4l-1,0.2l1.6-6.4L38.7,28.5z
					 M42.1,31.9c0.1,0.6,0.1,1.1-0.1,1.5c-0.2,0.4-0.6,0.6-1.2,0.8c-0.6,0.1-1,0.1-1.4-0.2c-0.4-0.2-0.6-0.7-0.8-1.3
					c-0.1-0.6-0.1-1.1,0.1-1.5c0.2-0.4,0.6-0.6,1.2-0.8c0.6-0.1,1-0.1,1.4,0.2C41.7,30.8,41.9,31.3,42.1,31.9z M41,32.2
					c-0.1-0.4-0.2-0.7-0.3-0.8c-0.1-0.1-0.3-0.2-0.5-0.1c-0.2,0-0.3,0.2-0.4,0.3c-0.1,0.2,0,0.5,0.1,0.9c0.1,0.4,0.2,0.7,0.3,0.8
					s0.3,0.2,0.5,0.1c0.2-0.1,0.4-0.2,0.4-0.3C41.1,32.9,41.1,32.6,41,32.2z"/>
			</g>
		</g>
	</g>
</g>
</svg>
