<?xml version="1.0" encoding="utf-8"?>
<!-- Generator: Adobe Illustrator 18.1.1, SVG Export Plug-In . SVG Version: 6.00 Build 0)  -->
<!DOCTYPE svg PUBLIC "-//W3C//DTD SVG 1.1//EN" "http://www.w3.org/Graphics/SVG/1.1/DTD/svg11.dtd">
<svg version="1.1" id="Layer_1" xmlns="http://www.w3.org/2000/svg" xmlns:xlink="http://www.w3.org/1999/xlink" x="0px" y="0px"
	 width="48px" height="96px" viewBox="0 0 48 96" style="enable-background:new 0 0 48 96;" xml:space="preserve">
<g id="people.svg">
	<g>
		<path style="fill:#FFFFFF;" d="M21.6996,73.3323c-0.6533,0.411-1.3968,0.6651-2.1996,0.6651s-1.5463-0.2541-2.1996-0.6651
			C15.3585,73.9496,14,75.3573,14,76.9974c0,2.2091,2.4625,2,5.5,2s5.5,0.2091,5.5-2C25,75.3573,23.6415,73.9496,21.6996,73.3323z"
			/>
		<ellipse style="fill:#FFFFFF;" cx="19.5" cy="68.9974" rx="3.5" ry="4"/>
	</g>
	<g>
		<g>
			<path style="fill:#FFFFFF;" d="M34,67.9974c0,0.55-0.45,1-1,1h-6c-0.55,0-1-0.45-1-1l0,0c0-0.55,0.45-1,1-1h6
				C33.55,66.9974,34,67.4473,34,67.9974L34,67.9974z"/>
		</g>
		<g>
			<path style="fill:#FFFFFF;" d="M34,71.9974c0,0.55-0.45,1-1,1h-7c-0.55,0-1-0.45-1-1l0,0c0-0.55,0.45-1,1-1h7
				C33.55,70.9974,34,71.4473,34,71.9974L34,71.9974z"/>
		</g>
		<g>
			<path style="fill:#FFFFFF;" d="M34,75.9974c0,0.55-0.45,1-1,1h-5c-0.55,0-1-0.45-1-1l0,0c0-0.55,0.45-1,1-1h5
				C33.55,74.9974,34,75.4473,34,75.9974L34,75.9974z"/>
		</g>
	</g>
</g>
<g>
	<path style="fill:#FFFFFF;" d="M18.6967,16.5754c-0.3889-0.3889-1.0253-0.3889-1.4142,0l-0.7071,0.7071
		c-0.3889,0.3889-0.3889,1.0253,0,1.4142l12.7279,12.7279c0.3889,0.3889,1.0253,0.3889,1.4142,0l0.7071-0.7071
		c0.3889-0.3889,0.3889-1.0253,0-1.4142L18.6967,16.5754z"/>
</g>
<g>
	<path style="fill:#FFFFFF;" d="M31.4246,18.6967c0.3889-0.3889,0.3889-1.0253,0-1.4142l-0.7071-0.7071
		c-0.3889-0.3889-1.0253-0.3889-1.4142,0L16.5754,29.3033c-0.3889,0.3889-0.3889,1.0253,0,1.4142l0.7071,0.7071
		c0.3889,0.3889,1.0253,0.3889,1.4142,0L31.4246,18.6967z"/>
</g>
<g>
</g>
<g>
</g>
<g>
</g>
<g>
</g>
<g>
</g>
<g>
</g>
<g>
</g>
<g>
</g>
<g>
</g>
<g>
</g>
<g>
</g>
<g>
</g>
<g>
</g>
<g>
</g>
<g>
</g>
</svg>
