<?xml version="1.0" encoding="utf-8"?>
<!-- Generator: Adobe Illustrator 18.1.1, SVG Export Plug-In . SVG Version: 6.00 Build 0)  -->
<!DOCTYPE svg PUBLIC "-//W3C//DTD SVG 1.1//EN" "http://www.w3.org/Graphics/SVG/1.1/DTD/svg11.dtd">
<svg version="1.1" id="Layer_1" xmlns="http://www.w3.org/2000/svg" xmlns:xlink="http://www.w3.org/1999/xlink" x="0px" y="0px"
	 width="48px" height="96px" viewBox="0 0 48 96" style="enable-background:new 0 0 48 96;" xml:space="preserve">
<g id="people.svg">
	<g>
		<path style="fill:#FFFFFF;" d="M21.2395,73.5987c-0.7839,0.4932-1.6761,0.7981-2.6395,0.7981s-1.8556-0.3049-2.6395-0.7981
			C13.6302,74.3395,12,76.0288,12,77.9968c0,2.6509,2.955,2.4,6.6,2.4s6.6,0.2509,6.6-2.4
			C25.2,76.0288,23.5698,74.3395,21.2395,73.5987z"/>
		<ellipse style="fill:#FFFFFF;" cx="18.6" cy="68.3968" rx="4.2" ry="4.8"/>
	</g>
	<g>
		<g>
			<path style="fill:#FFFFFF;" d="M36,67.1968c0,0.66-0.54,1.2-1.2,1.2h-7.2c-0.66,0-1.2-0.54-1.2-1.2c0-0.66,0.54-1.2,1.2-1.2h7.2
				C35.46,65.9968,36,66.5368,36,67.1968z"/>
		</g>
		<g>
			<path style="fill:#FFFFFF;" d="M36,71.9968c0,0.66-0.54,1.2-1.2,1.2h-8.4c-0.66,0-1.2-0.54-1.2-1.2c0-0.66,0.54-1.2,1.2-1.2h8.4
				C35.46,70.7968,36,71.3368,36,71.9968z"/>
		</g>
		<g>
			<path style="fill:#FFFFFF;" d="M36,76.7968c0,0.66-0.54,1.2-1.2,1.2h-6c-0.66,0-1.2-0.54-1.2-1.2l0,0c0-0.66,0.54-1.2,1.2-1.2h6
				C35.46,75.5968,36,76.1368,36,76.7968L36,76.7968z"/>
		</g>
	</g>
</g>
<g>
	<path style="fill:#FFFFFF;" d="M17.6967,15.5754c-0.3889-0.3889-1.0253-0.3889-1.4142,0l-0.7071,0.7071
		c-0.3889,0.3889-0.3889,1.0253,0,1.4142l14.7279,14.7279c0.3889,0.3889,1.0253,0.3889,1.4142,0l0.7071-0.7071
		c0.3889-0.3889,0.3889-1.0253,0-1.4142L17.6967,15.5754z"/>
</g>
<g>
	<path style="fill:#FFFFFF;" d="M32.4246,17.6967c0.3889-0.3889,0.3889-1.0253,0-1.4142l-0.7071-0.7071
		c-0.3889-0.3889-1.0253-0.3889-1.4142,0L15.5754,30.3033c-0.3889,0.3889-0.3889,1.0253,0,1.4142l0.7071,0.7071
		c0.3889,0.3889,1.0253,0.3889,1.4142,0L32.4246,17.6967z"/>
</g>
<g>
</g>
<g>
</g>
<g>
</g>
<g>
</g>
<g>
</g>
<g>
</g>
<g>
</g>
<g>
</g>
<g>
</g>
<g>
</g>
<g>
</g>
<g>
</g>
<g>
</g>
<g>
</g>
<g>
</g>
</svg>
