<?xml version="1.0" encoding="utf-8"?>
<!-- Generator: Adobe Illustrator 17.1.0, SVG Export Plug-In . SVG Version: 6.00 Build 0)  -->
<!DOCTYPE svg PUBLIC "-//W3C//DTD SVG 1.1//EN" "http://www.w3.org/Graphics/SVG/1.1/DTD/svg11.dtd">
<svg version="1.1" xmlns="http://www.w3.org/2000/svg" xmlns:xlink="http://www.w3.org/1999/xlink" x="0px" y="0px" width="16px"
	 height="16px" viewBox="0 0 16 16" enable-background="new 0 0 16 16" xml:space="preserve">
<g id="oldie">
</g>
<g id="demos">
</g>
<g id="star">
	<g opacity="0.11">
		<polygon stroke="#000000" stroke-width="1.0191" stroke-linejoin="round" points="4.4,15.5 5.1,10.7 1.6,7.4 6.4,6.6 8.4,2.3 
			10.7,6.6 15.4,7.2 12.1,10.6 12.9,15.4 8.6,13.2 		"/>
		<polygon stroke="#000000" stroke-width="0.4269" stroke-linejoin="round" points="4.2,15.3 5.1,10.5 1.6,7.2 6.4,6.5 8.4,2.1 
			10.7,6.4 15.4,7.1 11.9,10.5 12.9,15.2 8.6,13 		"/>
	</g>
	<g opacity="0.21">
		<g>
			<polygon fill="#830E44" stroke="#830E44" stroke-width="1.0191" stroke-linejoin="round" points="3.4,14.5 4.1,9.7 0.6,6.4 
				5.4,5.6 7.5,1.3 9.7,5.6 14.4,6.2 11.1,9.6 11.9,14.4 7.6,12.2 			"/>
			
				<radialGradient id="SVGID_1_" cx="42.1762" cy="199.8764" r="13.4025" gradientTransform="matrix(0.9256 3.918997e-02 3.918997e-02 -0.9256 -39.5427 197.9591)" gradientUnits="userSpaceOnUse">
				<stop  offset="0" style="stop-color:#FF2817"/>
				<stop  offset="0.1069" style="stop-color:#FF5737"/>
				<stop  offset="0.2236" style="stop-color:#FF8255"/>
				<stop  offset="0.3366" style="stop-color:#FFA46C"/>
				<stop  offset="0.4431" style="stop-color:#FFBD7D"/>
				<stop  offset="0.5408" style="stop-color:#FFCC87"/>
				<stop  offset="0.6213" style="stop-color:#FFD18B"/>
				<stop  offset="1" style="stop-color:#FFD60A"/>
			</radialGradient>
			<polygon fill="url(#SVGID_1_)" stroke="#FF793F" stroke-width="0.4269" stroke-linejoin="round" points="3.3,14.3 4.1,9.5 
				0.6,6.2 5.4,5.5 7.5,1.1 9.7,5.4 14.4,6.1 10.9,9.5 11.9,14.2 7.6,12 			"/>
		</g>
	</g>
</g>
<g id="showcase-work" display="none">
</g>
<g id="showcase">
</g>
<g id="staff_pick">
</g>
</svg>
