<?xml version="1.0" encoding="utf-8"?>
<!-- Generator: Adobe Illustrator 17.1.0, SVG Export Plug-In . SVG Version: 6.00 Build 0)  -->
<!DOCTYPE svg PUBLIC "-//W3C//DTD SVG 1.1//EN" "http://www.w3.org/Graphics/SVG/1.1/DTD/svg11.dtd">
<svg version="1.1" xmlns="http://www.w3.org/2000/svg" xmlns:xlink="http://www.w3.org/1999/xlink" x="0px" y="0px" width="210px"
	 height="146px" viewBox="0 0 210 146" enable-background="new 0 0 210 146" xml:space="preserve">
<g id="vertical">
	<polygon fill="#5B6A74" points="181.1,48 179.6,138.6 180.3,51.4 	"/>
</g>
<g id="horizontal">
	<polygon fill="#5B6A74" points="11.5,22.1 146.2,20.7 140.9,21.4 	"/>
</g>
<g id="leaf">
	<path fill="#613C1C" d="M161.9,0.7c-0.3,0.1-0.3,3.3-3.1,5.1c-1.7,1.6-3.7,2.7-5.1,4.6c-1.9,2.7-2.3,6.1-2,9.3
		c0.1,0.8,0.9,7.7,0.9,7.7c-0.5-0.1-0.3-12.7,0.1-14.1c1.7-5,7.7-6.3,9.3-11c0.6,4.3-0.8,9.3-3.7,12.5c-0.7,0.8-7.7,10.8-5.1,11.3
		c-2-0.3,6.7-12.5,7.2-13.4C161,11.7,163.5,0.1,161.9,0.7"/>
	<path fill="#613C1C" d="M155.1,26c-0.4,0.2-3.4,1.7-3.1,2.2c-0.3-0.4,6.9-3,7.7-3.1c4.1-0.8,8.2-0.1,11.7,2.1
		c6.9,4.3,10.3,12.3,17.4,16.6c-4.7,0.4-9.7,1.3-14-1.1c-3.9-2.1-5.8-6.1-8.5-9.5c-2-2.6-4.5-4.4-7.8-5c-1.6-0.3-3.3-0.4-4.9-0.1
		c-0.3,0.1-4,1.6-3,2.3c-0.1-0.1,2.8-1.8,3.2-1.8c1.5-0.3,3.1-0.2,4.7,0.1c3.8,0.7,6.3,3,8.5,6.1c2.5,3.5,4.8,7.3,9.1,9
		c1.4,0.6,13.4,2.2,13.8,0.3c0.1-0.3-6.2-4.7-6.8-5.3c-3-2.9-5.2-6.6-8.3-9.5C169.2,23.9,162.1,23.3,155.1,26"/>
	<path fill="#613C1C" d="M163.3,16.7c-0.7,0.3-6.8,3.8-6.1,4.3c-0.2-0.2,8-4.5,8.8-4.7c4.8-1.5,9.4-2.4,14.5-1.7
		c9,1.3,18.5,6.7,27.8,5.2c-4.3,5-11.9,7.7-18.2,8.6c-4.2,0.5-7.9,0.3-12-0.6c-0.8-0.2-9-2.2-9-2.2c-0.2,0.7,7.4,2.3,8.2,2.5
		c4.4,0.9,8.3,1.3,12.8,0.7c3.9-0.6,7.3-1.9,10.9-3.4c1-0.4,8.9-4.7,8-6.1c-0.1-0.2-5.7,0.7-11.1-0.8c-3.1-0.8-6.2-1.7-9.2-2.5
		C179.8,13.6,172,13.4,163.3,16.7"/>
	<path fill="#613C1C" d="M153.4,27.8c-0.6,0.2-1.2,0.5-1.7,1c0.1,0.1,0.2,0.2,0.3,0.3c4.8-4.8,14-0.7,17.9,3
		c5,4.7,11.3,12.8,19.1,12.1c0-0.2,0-0.3,0-0.5c-6.2,0.6-12.6-5.5-16.5-9.6C167.5,28.7,161,24.9,153.4,27.8"/>
	<path fill="#613C1C" d="M163.9,18.5c-4.3,1.7-8.7,4.9-11.3,8.8c0.1,0.1,0.3,0.2,0.4,0.3c5.7-8.8,16.5-11.2,26.3-9.8
		c9.4,1.3,20.4,6.6,29.6,1.9c-0.1-0.1-0.1-0.3-0.2-0.4c-5.4,2.7-13.1,1.8-18.7,0.4C181.7,17.4,172.3,15.3,163.9,18.5"/>
	<path fill="#613C1C" d="M160.7,21.6c-0.9,0.3-9,4.6-8.1,5.7c-0.7-0.9,9.7-5.8,10.7-6.2c5-1.6,10.4-0.3,15.4,0.6
		c4.8,0.8,9.8,1.9,14.7,2.3c3.2,0.3,6.5-0.1,9.5-1.3c0.6-0.2,6.5-2.6,6-3.2c0.1,0.1-8.9,3.6-9.8,3.8c-4.6,0.8-9.2-0.2-13.8-1
		C177.2,20.9,168.6,18.5,160.7,21.6"/>
	<path fill="#613C1C" d="M162,1.6c-0.3,0.1-0.4,2.2-0.4,2.4c-0.7,2.4-2.2,4.3-3.7,6.2c-1.6,2-3,4.3-4,6.7c-0.3,0.7-2,9.2-0.5,8.8
		c-0.3,0.1,0.2-6.4,0.4-7.1c0.9-3,2.5-5.7,4.4-8.2c1.6-2,3.1-3.9,3.8-6.4C162,4,162.7,1.3,162,1.6"/>
	<path fill="#613C1C" d="M154.9,26.9c0,0-3.3,1.2-2.9,1.7c0.1,0.1,5.7-2.1,6.2-2.2c4.5-0.9,9.2,0.3,12.9,3c3.1,2.3,4.9,5.5,7.4,8.2
		c0.7,0.7,10.3,7.8,10.6,6.1c-0.1,0.3-7.1-3.5-7.7-4c-2.7-2.1-4.4-4.9-6.6-7.4C169.8,26.6,162.2,24.1,154.9,26.9"/>
	<path fill="#613C1C" d="M158.5,23.7c-0.3,0.1-5.7,2.5-5.2,3.2c-0.1-0.1,7.5-3.4,8.1-3.6c5.9-1.3,12.5,0.8,18.3,1.9
		c5,1,9.8,1.3,14.9,0.7c1-0.1,14-3.4,12.7-4.9c0.3,0.3-7.7,3.5-8.5,3.7c-4,0.9-8.2,1.2-12.4,1C177.3,25.2,167.6,20.2,158.5,23.7"/>
	<path fill="#613C1C" d="M154.1,28c-0.5,0.2,2.9,0,3.2,0c4.2-0.1,7.7,1.7,10.5,4.7c2.6,2.8,4.8,6,7.8,8.3c0.9,0.7,10.6,5,10.6,3.3
		c0,0.5-8.3-2.3-9.2-2.9c-3.1-2-5.4-4.9-7.8-7.7C165.6,29.4,160.1,26,154.1,28"/>
</g>
</svg>
