<?xml version="1.0" encoding="utf-8"?>
<!-- Generator: Adobe Illustrator 18.1.1, SVG Export Plug-In . SVG Version: 6.00 Build 0)  -->
<svg version="1.1" id="Layer_1" xmlns="http://www.w3.org/2000/svg" xmlns:xlink="http://www.w3.org/1999/xlink" x="0px" y="0px"
	 viewBox="0 0 35 35" enable-background="new 0 0 35 35" xml:space="preserve">
<path d="M4.2,8.1"/>
<linearGradient id="SVGID_1_" gradientUnits="userSpaceOnUse" x1="17.5" y1="1.3042" x2="17.5" y2="33.3042">
	<stop  offset="0" style="stop-color:#E8E8E8"/>
	<stop  offset="1" style="stop-color:#7D7D7D"/>
</linearGradient>
<path opacity="0.6" fill="url(#SVGID_1_)" stroke="#6D6E71" stroke-width="0.5" stroke-miterlimit="10" d="M28.5,1.3h-22
	c-2.8,0-5,2.2-5,5v22c0,2.8,2.2,5,5,5h22c2.8,0,5-2.2,5-5v-22C33.5,3.6,31.2,1.3,28.5,1.3z M24.8,19.8L24.8,19.8l-12.4,5.6l-0.2,0.1
	l0,0c-0.3,0.2-0.7,0.3-1,0.3c-1.3,0-2.4-1-2.5-2.3l0,0v-12l0,0c0.1-1.3,1.1-2.4,2.5-2.4c0.2,0,0.5,0,0.7,0.1l0,0l0.1,0l0.5,0.2
	l12.4,5.6v0c1,0.4,1.6,1.3,1.6,2.3C26.4,18.6,25.7,19.5,24.8,19.8z"/>
</svg>
