<?xml version="1.0" encoding="utf-8"?>
<!-- Generator: Adobe Illustrator 18.1.0, SVG Export Plug-In . SVG Version: 6.00 Build 0)  -->
<!DOCTYPE svg PUBLIC "-//W3C//DTD SVG 1.1//EN" "http://www.w3.org/Graphics/SVG/1.1/DTD/svg11.dtd">
<svg version="1.1" id="Layer_1" xmlns="http://www.w3.org/2000/svg" xmlns:xlink="http://www.w3.org/1999/xlink" x="0px" y="0px"
	 viewBox="0 0 66.1 58.1" enable-background="new 0 0 66.1 58.1" xml:space="preserve">
<g>
	<g>
		<g>
			<path fill-rule="evenodd" clip-rule="evenodd" fill="#CCCCCC" d="M33.9,14.1C25.6-5.3,2-0.8,1.9,21.8
				C1.8,34.1,18.4,44.2,18.4,44.2s14,10.5,15.5,13.6c1.9-3.8,16.6-14.7,16.6-14.7s15.2-9.5,15.4-21.6C66.2-1,41.8-4.5,33.9,14.1z"/>
			
				<path fill="none" stroke="#CCCCCC" stroke-width="0.4166" stroke-linecap="round" stroke-linejoin="round" stroke-miterlimit="10" d="
				M33.9,14.1C25.6-5.3,2-0.8,1.9,21.8C1.8,34.1,18.4,44.2,18.4,44.2s14,10.5,15.5,13.6c1.9-3.8,16.6-14.7,16.6-14.7
				s15.2-9.5,15.4-21.6C66.2-1,41.8-4.5,33.9,14.1z"/>
		</g>
		<g>
			<linearGradient id="SVGID_1_" gradientUnits="userSpaceOnUse" x1="32.2083" y1="56.1976" x2="32.2083" y2="0.2083">
				<stop  offset="0" style="stop-color:#BE1E80"/>
				<stop  offset="0.1274" style="stop-color:#C32782"/>
				<stop  offset="0.3391" style="stop-color:#CF4186"/>
				<stop  offset="0.6074" style="stop-color:#E46A8D"/>
				<stop  offset="0.8227" style="stop-color:#F79094"/>
			</linearGradient>
			<path fill-rule="evenodd" clip-rule="evenodd" fill="url(#SVGID_1_)" d="M32.2,12.4C23.9-7,0.4-2.4,0.2,20.1
				C0.1,32.5,16.7,42.6,16.7,42.6s14,10.5,15.5,13.6c1.9-3.8,16.6-14.7,16.6-14.7S64,32,64.2,20C64.6-2.6,40.1-6.2,32.2,12.4z"/>
			
				<path fill="none" stroke="#883131" stroke-width="0.4166" stroke-linecap="round" stroke-linejoin="round" stroke-miterlimit="10" d="
				M32.2,12.4C23.9-7,0.4-2.4,0.2,20.1C0.1,32.5,16.7,42.6,16.7,42.6s14,10.5,15.5,13.6c1.9-3.8,16.6-14.7,16.6-14.7S64,32,64.2,20
				C64.6-2.6,40.1-6.2,32.2,12.4z"/>
		</g>
	</g>
	<g>
		<g>
			<path fill="#FFFFFF" stroke="#883131" stroke-width="0.25" stroke-miterlimit="10" d="M21.3,30.7v-4.9h8.6v-8.6h4.8v8.6h8.6v4.9
				h-8.6v8.5h-4.8v-8.5H21.3z"/>
		</g>
	</g>
</g>
</svg>
