<?xml version="1.0" encoding="utf-8"?>
<!-- Generator: Adobe Illustrator 18.1.0, SVG Export Plug-In . SVG Version: 6.00 Build 0)  -->
<!DOCTYPE svg PUBLIC "-//W3C//DTD SVG 1.1//EN" "http://www.w3.org/Graphics/SVG/1.1/DTD/svg11.dtd">
<svg version="1.1" id="Layer_1" xmlns="http://www.w3.org/2000/svg" xmlns:xlink="http://www.w3.org/1999/xlink" x="0px" y="0px"
	 width="72px" height="72px" viewBox="0 0 72 72" enable-background="new 0 0 72 72" xml:space="preserve">
<g>
	<polygon fill-rule="evenodd" clip-rule="evenodd" points="22.8,72 22.8,26 34.9,26 17.5,0 0,26 12.1,26 12.1,72 	"/>
	<polygon fill-rule="evenodd" clip-rule="evenodd" points="50.2,0 50.2,46 38,46 55.5,72 72,46 59.9,46 59.9,0 	"/>
</g>
<path fill-rule="evenodd" clip-rule="evenodd" d="M327.9,30.2l9.8,19.4c0,0,15.9-39.4,40.9-52.6c-0.6,9.4-3.1,17.5,1.2,27.5
	c-11,2.5-33.6,30.7-40.9,44.5c-10.4-13.1-22.6-23.2-31.1-26.3L327.9,30.2z"/>
<path fill-rule="evenodd" clip-rule="evenodd" d="M474.5,2h72v11.7h-72V2z M474.5,22.3h54V34h-54V22.3z M474.5,42h36v11.7h-36V42z
	 M474.5,62.3h18V74h-18V62.3z"/>
<path fill-rule="evenodd" clip-rule="evenodd" d="M228.9,66.8c-2.5,2.5-7.2,3.1-9.7,0.7L196.9,45c-1.6-1.6-2.1-3.8-1.7-5.8
	c-4,2.9-8,3.8-13.1,3.8c-6.2,0-12-2.4-16.3-6.8c-4.3-4.4-6.7-10.1-6.7-16.3c0-6.1,2.4-11.9,6.8-16.2c9-8.9,23.7-8.8,32.6,0.2
	c8.1,8.2,9.5,20.2,2.8,29.2c2-0.4,4.3,0.1,5.9,1.7l22.3,22.4C232.1,59.6,231.4,64.3,228.9,66.8z M195.7,19.9c0-3.6-1.4-6.9-3.9-9.5
	c-5.2-5.2-13.7-5.3-19-0.1c-5.3,5.2-5.3,13.7-0.1,18.9c5.2,5.2,13.7,5.3,19,0.1C194.3,26.8,195.7,23.5,195.7,19.9z"/>
<g>
</g>
<g>
</g>
<g>
</g>
<g>
</g>
<g>
</g>
<g>
</g>
</svg>
