<?xml version="1.0" encoding="utf-8"?>
<!-- Generator: Adobe Illustrator 18.1.1, SVG Export Plug-In . SVG Version: 6.00 Build 0)  -->
<svg version="1.1" id="Layer_1" xmlns="http://www.w3.org/2000/svg" xmlns:xlink="http://www.w3.org/1999/xlink" x="0px" y="0px"
	 viewBox="20 -20 72 72" enable-background="new 20 -20 72 72" xml:space="preserve">
<g>
	<path d="M23.9,24.2l25.5-9.8L34-7.2L54.6,9.5l11.5-24.8l-4.9,26.5l26.9-3.1l-25.5,9.8L78,39.6L57.4,22.8L45.9,47.6l4.9-26.5
		L23.9,24.2z M52.5,27l3.8-8.4l7,5.6l-5.2-7.3l8.7-3.5l-9.1,1l1.7-9.1l-3.8,8.4l-7-5.9l5.2,7.3l-8.7,3.5l9.1-1L52.5,27z"/>
	<path d="M46.2,47.6h-0.7l4.9-26.2l-26.5,3.1v-0.7L49,14.1L34-7.2l0.3-0.3L54.6,8.8l11.2-24.4l0.7,0.3l-4.9,26.2l26.5-3.1v0.7
		L63,18.3l15,21.3l-0.3,0.3L57.4,23.5L46.2,47.6z M51.1,20.7l-4.5,24.4L57,22.5l0.3,0.3l18.5,15.4L61.6,18.3L85,9.2l-24.8,3.1
		l4.5-24.4L54.3,10.6L35.8-5.5l14.3,19.9l-23.4,9.1L51.1,20.7z M52.9,27l-0.7-0.3l1.4-8.7l-8.7,1v-0.7l8.4-3.5l-5.2-7l0.3-0.3L55,13
		l3.8-8l0.7,0.3l-1.7,8.7l8.7-1v0.7l-8.4,3.1l4.9,7l-0.3,0.3L56.7,19L52.9,27z M54.6,17.6l-1.4,7l3.1-6.6l5.2,4.5l-4.2-5.6l7-2.8
		L57,14.8l1.4-7.3l-3.1,6.6l-5.6-4.5l4.2,5.9l-7,2.8L54.6,17.6z"/>
</g>
</svg>
