<?xml version="1.0" encoding="utf-8"?>
<!-- Generator: Adobe Illustrator 18.1.0, SVG Export Plug-In . SVG Version: 6.00 Build 0)  -->
<!DOCTYPE svg PUBLIC "-//W3C//DTD SVG 1.1//EN" "http://www.w3.org/Graphics/SVG/1.1/DTD/svg11.dtd">
<svg version="1.1" id="Layer_1" xmlns="http://www.w3.org/2000/svg" xmlns:xlink="http://www.w3.org/1999/xlink" x="0px" y="0px"
	 width="80.6px" height="44.1px" viewBox="0 0 80.6 44.1" enable-background="new 0 0 80.6 44.1" xml:space="preserve">
<g>
	<g>
		<polygon fill="#440303" stroke="#440303" stroke-width="1.2768" stroke-linejoin="round" points="55.5,32.1 55.5,32 55.5,32 		"/>
		<path fill="#440303" stroke="#440303" stroke-width="1.2768" stroke-linejoin="round" d="M59.1,13.3l-9.7-7.4l0,0L0.6,17.3
			l6.2,26.2L55.5,32l5.6-9.9L59.1,13.3z M53.7,23.1c-1.2,0-2.3-0.4-3.1-1.2c-0.8-0.8-1.4-1.8-1.4-3.1c-0.1-2.4,1.8-4.4,4.1-4.4
			c1.2,0,2.3,0.4,3.1,1.2c0.8,0.8,1.4,1.8,1.4,3.1C57.9,21.1,56,23.1,53.7,23.1z"/>
	</g>
	<g>
		
			<linearGradient id="SVGID_1_" gradientUnits="userSpaceOnUse" x1="22.2061" y1="47.2779" x2="54.6095" y2="18.4035" gradientTransform="matrix(0.9995 -3.110000e-02 3.110000e-02 0.9995 6.243 9.7753)">
			<stop  offset="1.775150e-02" style="stop-color:#8B1D3A"/>
			<stop  offset="0.2959" style="stop-color:#BF4646"/>
			<stop  offset="0.6272" style="stop-color:#BF4646"/>
			<stop  offset="0.9941" style="stop-color:#8B1D3A"/>
		</linearGradient>
		<polygon fill="url(#SVGID_1_)" points="55.5,32.1 55.5,32 55.5,32 		"/>
		
			<linearGradient id="SVGID_2_" gradientUnits="userSpaceOnUse" x1="25.8733" y1="50.8175" x2="58.1126" y2="22.0894" gradientTransform="matrix(0.9982 5.980000e-02 -5.980000e-02 0.9982 -10.4972 -15.1345)">
			<stop  offset="1.775150e-02" style="stop-color:#8B1D3A"/>
			<stop  offset="0.2959" style="stop-color:#BF4646"/>
			<stop  offset="0.6272" style="stop-color:#BF4646"/>
			<stop  offset="0.9941" style="stop-color:#8B1D3A"/>
		</linearGradient>
		<path fill="url(#SVGID_2_)" d="M59.1,13.3l-9.7-7.4l0,0L0.6,17.3l6.2,26.2L55.5,32l5.6-9.9L59.1,13.3z M53.7,23.1
			c-1.2,0-2.3-0.4-3.1-1.2c-0.8-0.8-1.4-1.8-1.4-3.1c-0.1-2.4,1.8-4.4,4.1-4.4c1.2,0,2.3,0.4,3.1,1.2c0.8,0.8,1.4,1.8,1.4,3.1
			C57.9,21.1,56,23.1,53.7,23.1z"/>
	</g>
	<g>
		<g>
			<path fill="#FFFFFF" stroke="#FFFFFF" stroke-width="0.3586" d="M53.6,14.8c-2.3-0.1-4.3,1.7-4.5,4c-0.1,2.4,1.6,4.4,4,4.5
				c2.3,0.1,4.3-1.7,4.5-4C57.7,17,56,14.9,53.6,14.8z M53.2,22.5c-1.8-0.1-3.2-1.7-3.1-3.6c0.1-1.9,1.7-3.3,3.5-3.2
				c1.8,0.1,3.2,1.7,3.1,3.6C56.6,21.2,55,22.6,53.2,22.5z"/>
		</g>
		<g>
			<path fill="#381B07" stroke="#381B07" stroke-width="0.3586" d="M53.6,14.6c-2.3-0.1-4.3,1.7-4.5,4c-0.1,2.4,1.6,4.4,4,4.5
				c2.3,0.1,4.3-1.7,4.5-4C57.7,16.8,56,14.7,53.6,14.6z M53.2,22.2c-1.8-0.1-3.2-1.7-3.1-3.6c0.1-1.9,1.7-3.3,3.5-3.2
				c1.8,0.1,3.2,1.7,3.1,3.6C56.6,20.9,55,22.4,53.2,22.2z"/>
		</g>
		<g>
			
				<linearGradient id="SVGID_3_" gradientUnits="userSpaceOnUse" x1="61.4392" y1="29.802" x2="69.912" y2="29.802" gradientTransform="matrix(0.9982 5.980000e-02 -5.980000e-02 0.9982 -10.4972 -15.1345)">
				<stop  offset="5.917160e-03" style="stop-color:#6B6B6B"/>
				<stop  offset="0.4201" style="stop-color:#FFFFFF"/>
				<stop  offset="0.4851" style="stop-color:#FAFAFA"/>
				<stop  offset="0.557" style="stop-color:#EDEDED"/>
				<stop  offset="0.6323" style="stop-color:#D7D7D7"/>
				<stop  offset="0.7099" style="stop-color:#B8B8B8"/>
				<stop  offset="0.7893" style="stop-color:#909090"/>
				<stop  offset="0.8702" style="stop-color:#5F5F5F"/>
				<stop  offset="0.9508" style="stop-color:#262626"/>
				<stop  offset="1" style="stop-color:#000000"/>
			</linearGradient>
			<path fill="url(#SVGID_3_)" d="M53.5,14.2c-2.3-0.1-4.3,1.7-4.5,4c-0.1,2.4,1.6,4.4,4,4.5c2.3,0.1,4.3-1.7,4.5-4
				C57.6,16.4,55.9,14.4,53.5,14.2z M53.1,21.9c-1.8-0.1-3.2-1.7-3.1-3.6c0.1-1.9,1.7-3.3,3.5-3.2c1.8,0.1,3.2,1.7,3.1,3.6
				C56.5,20.6,54.9,22,53.1,21.9z"/>
		</g>
	</g>
	<polygon fill="none" stroke="#660000" stroke-width="0.3015" stroke-linejoin="round" points="54.7,31.3 60.2,22.1 58.3,13.9 
		49.1,7.2 49,7.2 1.9,18.3 7.6,42.4 54.7,31.3 	"/>
	<polygon fill="none" stroke="#FFFFFF" stroke-width="0.3088" stroke-linejoin="round" points="54.8,31.8 60.3,22.3 58.3,13.7 
		48.9,6.7 48.9,6.6 1.5,17.8 7.4,43 54.8,31.8 	"/>
	<g>
		<g>
			<g>
				<path fill="#330000" d="M10.5,24.7c0.1,0.6,0,1.2-0.4,1.7c-0.4,0.5-1.1,0.9-2,1.1c-0.5,0.1-1,0.2-1.4,0.2c-0.4,0-0.8,0-1.2-0.1
					L5,26.1l0.2,0c0.4,0.2,0.8,0.3,1.3,0.4c0.5,0,0.9,0,1.3-0.1c0.1,0,0.2-0.1,0.4-0.1c0.2-0.1,0.3-0.1,0.4-0.2
					c0.1-0.1,0.2-0.2,0.3-0.3c0.1-0.1,0.1-0.2,0-0.4c0-0.1-0.1-0.2-0.3-0.3C8.4,25,8.2,25,8,25c-0.3,0-0.5,0-0.8,0
					c-0.3,0-0.5,0-0.8,0c-0.6,0-1-0.2-1.3-0.4c-0.3-0.2-0.5-0.6-0.6-1c-0.1-0.6,0-1.1,0.5-1.6c0.4-0.5,1.1-0.8,1.9-1
					c0.4-0.1,0.8-0.2,1.3-0.2c0.4,0,0.8,0,1.1,0.1l0.3,1.5l-0.2,0c-0.3-0.1-0.7-0.2-1.1-0.3c-0.4,0-0.8,0-1.2,0.1
					C7,22,6.9,22,6.8,22.1c-0.1,0.1-0.3,0.1-0.4,0.2c-0.1,0.1-0.2,0.2-0.2,0.3c-0.1,0.1-0.1,0.2,0,0.3c0,0.2,0.1,0.3,0.3,0.3
					c0.2,0.1,0.4,0.1,0.8,0.1c0.2,0,0.5,0,0.7,0c0.2,0,0.5,0,0.7,0c0.5,0,0.9,0.2,1.2,0.4C10.1,23.9,10.4,24.3,10.5,24.7z"/>
				<path fill="#330000" d="M16.2,20.8c0.1,0.3,0.1,0.6,0,0.9s-0.1,0.6-0.3,0.8c-0.2,0.3-0.4,0.6-0.7,0.8c-0.3,0.2-0.7,0.4-1.1,0.5
					l-1,0.2l0.5,2.1L12,26.4l-1.5-6.4l2.7-0.6c0.4-0.1,0.8-0.1,1-0.1c0.3,0,0.6,0.1,0.8,0.1c0.3,0.1,0.5,0.3,0.7,0.5
					S16.2,20.5,16.2,20.8z M14.5,21.3c0-0.2-0.1-0.3-0.3-0.4c-0.1-0.1-0.3-0.2-0.4-0.2c-0.2,0-0.4,0-0.5,0c-0.2,0-0.4,0.1-0.7,0.1
					l-0.3,0.1l0.4,1.9l0.5-0.1c0.3-0.1,0.5-0.1,0.7-0.2s0.3-0.2,0.4-0.3c0.1-0.1,0.1-0.2,0.2-0.4C14.6,21.6,14.6,21.5,14.5,21.3z"/>
				<path fill="#330000" d="M23,23.9l-4.6,1.1l-1.5-6.4l4.6-1.1l0.3,1.2l-3,0.7l0.3,1.1l2.8-0.6l0.3,1.2l-2.8,0.6l0.4,1.6l3-0.7
					L23,23.9z"/>
				<path fill="#330000" d="M27.2,23c-0.5,0.1-0.9,0.1-1.4,0.1c-0.4,0-0.8-0.2-1.2-0.4c-0.4-0.2-0.7-0.5-0.9-0.9
					c-0.3-0.4-0.4-0.8-0.6-1.4c-0.1-0.5-0.2-1-0.1-1.4c0.1-0.4,0.2-0.8,0.4-1.2c0.2-0.3,0.5-0.6,0.9-0.9s0.8-0.4,1.3-0.5
					c0.3-0.1,0.5-0.1,0.7-0.1c0.2,0,0.4,0,0.6,0c0.2,0,0.4,0,0.6,0.1c0.2,0,0.3,0.1,0.5,0.1l0.4,1.5l-0.2,0
					c-0.1-0.1-0.2-0.1-0.4-0.2c-0.1-0.1-0.3-0.1-0.5-0.2c-0.2-0.1-0.4-0.1-0.6-0.1s-0.4,0-0.6,0c-0.2,0.1-0.4,0.1-0.6,0.3
					c-0.2,0.1-0.4,0.3-0.5,0.5c-0.1,0.2-0.2,0.4-0.3,0.7c0,0.3,0,0.6,0.1,1c0.1,0.4,0.2,0.7,0.4,1c0.2,0.2,0.4,0.4,0.6,0.5
					c0.2,0.1,0.4,0.2,0.7,0.2c0.2,0,0.4,0,0.7,0c0.2,0,0.4-0.1,0.6-0.2c0.2-0.1,0.3-0.2,0.5-0.4c0.1-0.1,0.2-0.2,0.3-0.4
					s0.2-0.2,0.2-0.3l0.2,0l0.4,1.5c-0.1,0.1-0.3,0.2-0.4,0.3c-0.1,0.1-0.3,0.2-0.4,0.3c-0.2,0.1-0.4,0.2-0.6,0.3
					C27.8,22.8,27.6,22.9,27.2,23z"/>
				<path fill="#330000" d="M34.1,21.3l-3.7,0.9L30.1,21l1-0.2l-1-4.1l-1,0.2l-0.3-1.1l3.7-0.9l0.3,1.1l-1,0.2l1,4.1l1-0.2
					L34.1,21.3z"/>
				<path fill="#330000" d="M41.2,19.6L39.5,20l-0.7-1.2l-2.4,0.6l-0.1,1.4l-1.7,0.4l0.9-6.9l1.9-0.4L41.2,19.6z M38.1,17.7
					l-1.3-2.1l-0.2,2.5L38.1,17.7z"/>
				<path fill="#330000" d="M46.7,18.3l-4.6,1.1L40.6,13l1.6-0.4l1.2,5.1l3-0.7L46.7,18.3z"/>
				<path fill="#330000" d="M18.5,30.8c0.2,1,0.1,1.9-0.3,2.6S17,34.6,16,34.9c-1,0.2-1.9,0.1-2.6-0.3c-0.7-0.5-1.2-1.2-1.4-2.2
					c-0.2-1-0.1-1.9,0.3-2.6c0.4-0.7,1.2-1.2,2.2-1.5c1-0.2,1.9-0.1,2.6,0.3C17.8,29,18.3,29.8,18.5,30.8z M16.7,32.9
					c0.1-0.2,0.2-0.5,0.2-0.8c0-0.3,0-0.6-0.1-1c-0.1-0.4-0.2-0.7-0.4-0.9c-0.2-0.2-0.3-0.4-0.5-0.6c-0.2-0.1-0.4-0.2-0.6-0.3
					c-0.2,0-0.4,0-0.6,0c-0.2,0-0.4,0.1-0.6,0.2c-0.2,0.1-0.3,0.3-0.4,0.5c-0.1,0.2-0.2,0.4-0.2,0.7c0,0.3,0,0.6,0.1,1
					c0.1,0.4,0.2,0.7,0.4,0.9c0.2,0.2,0.3,0.4,0.5,0.6c0.2,0.1,0.4,0.2,0.6,0.3c0.2,0,0.4,0,0.6,0s0.4-0.1,0.6-0.3
					C16.5,33.3,16.6,33.1,16.7,32.9z"/>
				<path fill="#330000" d="M23.8,27.5l-2.9,0.7l0.3,1.2l2.7-0.6l0.3,1.2l-2.7,0.6l0.6,2.7l-1.6,0.4L19,27.3l4.6-1.1L23.8,27.5z"/>
				<path fill="#330000" d="M29.5,26.2l-2.9,0.7l0.3,1.2l2.7-0.6l0.3,1.2l-2.7,0.6l0.6,2.7l-1.6,0.4L24.6,26l4.6-1.1L29.5,26.2z"/>
				<path fill="#330000" d="M36.4,30L31.8,31l-1.5-6.4l4.6-1.1l0.3,1.2l-3,0.7l0.3,1.1l2.8-0.6l0.3,1.2l-2.8,0.6l0.4,1.6l3-0.7
					L36.4,30z"/>
				<path fill="#330000" d="M43.9,28.2l-2,0.5l-2.3-1.9l-0.8,0.2l0.5,2.3l-1.6,0.4l-1.5-6.4l2.8-0.6c0.4-0.1,0.7-0.1,1-0.2
					s0.6,0,0.8,0.1c0.3,0.1,0.5,0.2,0.7,0.4c0.2,0.2,0.3,0.5,0.4,0.8c0.1,0.5,0.1,0.9-0.1,1.2c-0.1,0.3-0.4,0.7-0.8,1L43.9,28.2z
					 M40.3,24.4c0-0.2-0.1-0.3-0.2-0.4c-0.1-0.1-0.2-0.2-0.4-0.2c-0.1,0-0.3,0-0.4,0c-0.2,0-0.3,0.1-0.5,0.1l-0.6,0.1l0.4,1.7
					l0.5-0.1c0.3-0.1,0.5-0.1,0.7-0.2c0.2-0.1,0.3-0.2,0.4-0.3c0.1-0.1,0.2-0.2,0.2-0.4C40.3,24.7,40.3,24.6,40.3,24.4z"/>
			</g>
			<g>
				<g>
					<path fill="#FFFFFF" d="M11.1,24.3c0.1,0.6,0,1.2-0.4,1.7c-0.4,0.5-1.1,0.9-2,1.1c-0.5,0.1-1,0.2-1.4,0.2c-0.4,0-0.8,0-1.2-0.1
						l-0.4-1.5l0.2,0c0.4,0.2,0.8,0.3,1.3,0.4c0.5,0,0.9,0,1.3-0.1c0.1,0,0.2-0.1,0.4-0.1c0.2-0.1,0.3-0.1,0.4-0.2
						c0.1-0.1,0.2-0.2,0.3-0.3c0.1-0.1,0.1-0.2,0-0.4c0-0.1-0.1-0.2-0.3-0.3c-0.1-0.1-0.3-0.1-0.6-0.1c-0.3,0-0.5,0-0.8,0
						c-0.3,0-0.5,0-0.8,0c-0.6,0-1-0.2-1.3-0.4c-0.3-0.2-0.5-0.6-0.6-1c-0.1-0.6,0-1.1,0.5-1.6c0.4-0.5,1.1-0.8,1.9-1
						c0.4-0.1,0.8-0.2,1.3-0.2c0.4,0,0.8,0,1.1,0.1l0.3,1.5l-0.2,0c-0.3-0.1-0.7-0.2-1.1-0.3c-0.4,0-0.8,0-1.2,0.1
						c-0.1,0-0.3,0.1-0.4,0.1c-0.1,0.1-0.3,0.1-0.4,0.2c-0.1,0.1-0.2,0.2-0.2,0.3c-0.1,0.1-0.1,0.2,0,0.3c0,0.2,0.1,0.3,0.3,0.3
						c0.2,0.1,0.4,0.1,0.8,0.1c0.2,0,0.5,0,0.7,0c0.2,0,0.5,0,0.7,0c0.5,0,0.9,0.2,1.2,0.4C10.7,23.5,11,23.9,11.1,24.3z"/>
					<path fill="#FFFFFF" d="M16.8,20.4c0.1,0.3,0.1,0.6,0,0.9s-0.1,0.6-0.3,0.8c-0.2,0.3-0.4,0.6-0.7,0.8c-0.3,0.2-0.7,0.4-1.1,0.5
						l-1,0.2l0.5,2.1L12.6,26l-1.5-6.4l2.7-0.6c0.4-0.1,0.8-0.1,1-0.1c0.3,0,0.6,0.1,0.8,0.1c0.3,0.1,0.5,0.3,0.7,0.5
						S16.8,20.1,16.8,20.4z M15.1,20.9c0-0.2-0.1-0.3-0.3-0.4c-0.1-0.1-0.3-0.2-0.4-0.2c-0.2,0-0.4,0-0.5,0c-0.2,0-0.4,0.1-0.7,0.1
						L13,20.5l0.4,1.9l0.5-0.1c0.3-0.1,0.5-0.1,0.7-0.2s0.3-0.2,0.4-0.3c0.1-0.1,0.1-0.2,0.2-0.4C15.2,21.2,15.2,21.1,15.1,20.9z"/>
					<path fill="#FFFFFF" d="M23.6,23.5L19,24.5l-1.5-6.4l4.6-1.1l0.3,1.2l-3,0.7l0.3,1.1l2.8-0.6l0.3,1.2L20,21.4l0.4,1.6l3-0.7
						L23.6,23.5z"/>
					<path fill="#FFFFFF" d="M27.8,22.6c-0.5,0.1-0.9,0.1-1.4,0.1c-0.4,0-0.8-0.2-1.2-0.4c-0.4-0.2-0.7-0.5-0.9-0.9
						c-0.3-0.4-0.4-0.8-0.6-1.4c-0.1-0.5-0.2-1-0.1-1.4c0.1-0.4,0.2-0.8,0.4-1.2c0.2-0.3,0.5-0.6,0.9-0.9s0.8-0.4,1.3-0.5
						c0.3-0.1,0.5-0.1,0.7-0.1c0.2,0,0.4,0,0.6,0c0.2,0,0.4,0,0.6,0.1c0.2,0,0.3,0.1,0.5,0.1l0.4,1.5l-0.2,0
						c-0.1-0.1-0.2-0.1-0.4-0.2c-0.1-0.1-0.3-0.1-0.5-0.2c-0.2-0.1-0.4-0.1-0.6-0.1s-0.4,0-0.6,0c-0.2,0.1-0.4,0.1-0.6,0.3
						c-0.2,0.1-0.4,0.3-0.5,0.5c-0.1,0.2-0.2,0.4-0.3,0.7c0,0.3,0,0.6,0.1,1c0.1,0.4,0.2,0.7,0.4,1c0.2,0.2,0.4,0.4,0.6,0.5
						c0.2,0.1,0.4,0.2,0.7,0.2c0.2,0,0.4,0,0.7,0c0.2,0,0.4-0.1,0.6-0.2c0.2-0.1,0.3-0.2,0.5-0.4c0.1-0.1,0.2-0.2,0.3-0.4
						s0.2-0.2,0.2-0.3l0.2,0l0.4,1.5c-0.1,0.1-0.3,0.2-0.4,0.3c-0.1,0.1-0.3,0.2-0.4,0.3c-0.2,0.1-0.4,0.2-0.6,0.3
						C28.4,22.4,28.2,22.5,27.8,22.6z"/>
					<path fill="#FFFFFF" d="M34.7,20.9l-3.7,0.9l-0.3-1.1l1-0.2l-1-4.1l-1,0.2l-0.3-1.1l3.7-0.9l0.3,1.1l-1,0.2l1,4.1l1-0.2
						L34.7,20.9z"/>
					<path fill="#FFFFFF" d="M41.8,19.2l-1.7,0.4l-0.7-1.2L37,18.9l-0.1,1.4l-1.7,0.4l0.9-6.9l1.9-0.4L41.8,19.2z M38.7,17.3
						l-1.3-2.1l-0.2,2.5L38.7,17.3z"/>
					<path fill="#FFFFFF" d="M47.3,17.9L42.7,19l-1.5-6.4l1.6-0.4l1.2,5.1l3-0.7L47.3,17.9z"/>
					<path fill="#FFFFFF" d="M19.1,30.4c0.2,1,0.1,1.9-0.3,2.6s-1.2,1.2-2.2,1.5c-1,0.2-1.9,0.1-2.6-0.3c-0.7-0.5-1.2-1.2-1.4-2.2
						c-0.2-1-0.1-1.9,0.3-2.6c0.4-0.7,1.2-1.2,2.2-1.5c1-0.2,1.9-0.1,2.6,0.3C18.4,28.6,18.9,29.4,19.1,30.4z M17.3,32.5
						c0.1-0.2,0.2-0.5,0.2-0.8c0-0.3,0-0.6-0.1-1c-0.1-0.4-0.2-0.7-0.4-0.9c-0.2-0.2-0.3-0.4-0.5-0.6c-0.2-0.1-0.4-0.2-0.6-0.3
						c-0.2,0-0.4,0-0.6,0c-0.2,0-0.4,0.1-0.6,0.2c-0.2,0.1-0.3,0.3-0.4,0.5c-0.1,0.2-0.2,0.4-0.2,0.7c0,0.3,0,0.6,0.1,1
						c0.1,0.4,0.2,0.7,0.4,0.9c0.2,0.2,0.3,0.4,0.5,0.6c0.2,0.1,0.4,0.2,0.6,0.3c0.2,0,0.4,0,0.6,0s0.4-0.1,0.6-0.3
						C17.1,32.9,17.2,32.7,17.3,32.5z"/>
					<path fill="#FFFFFF" d="M24.4,27.1l-2.9,0.7l0.3,1.2l2.7-0.6l0.3,1.2l-2.7,0.6l0.6,2.7l-1.6,0.4l-1.5-6.4l4.6-1.1L24.4,27.1z"
						/>
					<path fill="#FFFFFF" d="M30.1,25.8l-2.9,0.7l0.3,1.2l2.7-0.6l0.3,1.2l-2.7,0.6l0.6,2.7L26.7,32l-1.5-6.4l4.6-1.1L30.1,25.8z"/>
					<path fill="#FFFFFF" d="M37,29.6l-4.6,1.1l-1.5-6.4l4.6-1.1l0.3,1.2l-3,0.7l0.3,1.1l2.8-0.6l0.3,1.2l-2.8,0.6l0.4,1.6l3-0.7
						L37,29.6z"/>
					<path fill="#FFFFFF" d="M44.5,27.8l-2,0.5l-2.3-1.9l-0.8,0.2l0.5,2.3l-1.6,0.4l-1.5-6.4l2.8-0.6c0.4-0.1,0.7-0.1,1-0.2
						s0.6,0,0.8,0.1c0.3,0.1,0.5,0.2,0.7,0.4c0.2,0.2,0.3,0.5,0.4,0.8c0.1,0.5,0.1,0.9-0.1,1.2c-0.1,0.3-0.4,0.7-0.8,1L44.5,27.8z
						 M40.9,24c0-0.2-0.1-0.3-0.2-0.4c-0.1-0.1-0.2-0.2-0.4-0.2c-0.1,0-0.3,0-0.4,0c-0.2,0-0.3,0.1-0.5,0.1l-0.6,0.1l0.4,1.7
						l0.5-0.1c0.3-0.1,0.5-0.1,0.7-0.2c0.2-0.1,0.3-0.2,0.4-0.3c0.1-0.1,0.2-0.2,0.2-0.4C40.9,24.3,40.9,24.2,40.9,24z"/>
				</g>
			</g>
		</g>
	</g>
	<path fill="#42210B" d="M79.8,1c-2.2-2.6-7.7,0.6-9.7,1.9c-2.2,1.3-4.5,2.5-6.9,3.5c-2.6-2.1-6.7-2-8-1.7c-3.2,0.7-5.3,3.1-6.5,6
		c-0.9,2.2-0.1,7.1,1.8,8.7c2.6,2.1,4.7-0.6,3.9-3.4c-0.3-0.1-1.1-0.2-1.3-0.2c0.1,0.5,0.2,2.2-0.7,2.5c-0.8,0.2-1.6-0.7-1.9-1.7
		c-0.8-2.4-1-4.1,0.1-6.3c2.5-5.3,9.3-4.4,11.6-3.4c-0.3,0.1-0.7,0.3-1,0.4c-2.4,1-3.9,1.3-6.5,1.7l1.5,1.1C59.2,9.1,61,9.2,64,8
		c0.1,0,0.1-0.1,0.2-0.1C67.8,8.5,84.4,6.4,79.8,1z M76.9,4.9c-2.3,1.4-6.9,2.1-9.5,2.3c-0.5,0-1.1,0-1.6,0c2.5-1.1,4.7-2.4,7.1-3.7
		c0.9-0.5,3-2.3,4.1-2C78.9,2,78.2,4.1,76.9,4.9z"/>
</g>
</svg>
